<svg width="20" height="20" viewBox="0 0 20 20" fill="none" xmlns="http://www.w3.org/2000/svg">
<g id="noun-report-issue-1446452 1">
<path id="Vector" d="M16.4507 4.25685L16.5941 4.0586H16.3494H11.9582V2.7502V2.6252H11.8332H4.925V2V1.875H4.8H4H3.875V2V17.5668V17.6918H4H4.8H4.925V17.5668V9.825H8.0082V11.1334V11.2584H8.1332H16.3136H16.5471L16.4176 11.0641L14.0724 7.54551L16.4507 4.25685ZM14.5856 10.2084H9.0582V9.825H11.8332H11.9582V9.7V5.1086H14.5387L12.8449 7.45055L12.794 7.5209L12.8422 7.59314L14.5856 10.2084ZM4.925 3.6752H10.9082V8.775H4.925V3.6752Z" fill="#222222" stroke="black" stroke-width="0.25"/>
</g>
</svg>
