<svg width="20" height="20" viewBox="0 0 20 20" fill="none" xmlns="http://www.w3.org/2000/svg">
<g id="settings">
<path id="Vector" d="M10.1824 1.66797H9.81569C9.37366 1.66797 8.94974 1.84356 8.63718 2.15612C8.32462 2.46868 8.14902 2.89261 8.14902 3.33463V3.48463C8.14873 3.77691 8.07157 4.06396 7.92531 4.317C7.77904 4.57004 7.56881 4.78017 7.31569 4.9263L6.95736 5.13463C6.70399 5.28091 6.41659 5.35793 6.12402 5.35793C5.83146 5.35793 5.54406 5.28091 5.29069 5.13463L5.16569 5.06797C4.78325 4.84735 4.32889 4.7875 3.90236 4.90156C3.47583 5.01561 3.11198 5.29425 2.89069 5.6763L2.70736 5.99297C2.48674 6.37541 2.42689 6.82977 2.54095 7.2563C2.655 7.68283 2.93364 8.04667 3.31569 8.26797L3.44069 8.3513C3.69259 8.49673 3.90204 8.70554 4.04823 8.95699C4.19443 9.20844 4.27227 9.49378 4.27403 9.78463V10.2096C4.27519 10.5033 4.19873 10.7921 4.05239 11.0467C3.90606 11.3014 3.69503 11.5128 3.44069 11.6596L3.31569 11.7346C2.93364 11.9559 2.655 12.3198 2.54095 12.7463C2.42689 13.1728 2.48674 13.6272 2.70736 14.0096L2.89069 14.3263C3.11198 14.7084 3.47583 14.987 3.90236 15.101C4.32889 15.2151 4.78325 15.1552 5.16569 14.9346L5.29069 14.868C5.54406 14.7217 5.83146 14.6447 6.12402 14.6447C6.41659 14.6447 6.70399 14.7217 6.95736 14.868L7.31569 15.0763C7.56881 15.2224 7.77904 15.4326 7.92531 15.6856C8.07157 15.9386 8.14873 16.2257 8.14902 16.518V16.668C8.14902 17.11 8.32462 17.5339 8.63718 17.8465C8.94974 18.159 9.37366 18.3346 9.81569 18.3346H10.1824C10.6244 18.3346 11.0483 18.159 11.3609 17.8465C11.6734 17.5339 11.849 17.11 11.849 16.668V16.518C11.8493 16.2257 11.9265 15.9386 12.0727 15.6856C12.219 15.4326 12.4292 15.2224 12.6824 15.0763L13.0407 14.868C13.2941 14.7217 13.5815 14.6447 13.874 14.6447C14.1666 14.6447 14.454 14.7217 14.7074 14.868L14.8324 14.9346C15.2148 15.1552 15.6692 15.2151 16.0957 15.101C16.5222 14.987 16.8861 14.7084 17.1074 14.3263L17.2907 14.0013C17.5113 13.6189 17.5712 13.1645 17.4571 12.738C17.343 12.3114 17.0644 11.9476 16.6824 11.7263L16.5574 11.6596C16.303 11.5128 16.092 11.3014 15.9457 11.0467C15.7993 10.7921 15.7229 10.5033 15.724 10.2096V9.79297C15.7229 9.49928 15.7993 9.21051 15.9457 8.95588C16.092 8.70125 16.303 8.48981 16.5574 8.34297L16.6824 8.26797C17.0644 8.04667 17.343 7.68283 17.4571 7.2563C17.5712 6.82977 17.5113 6.37541 17.2907 5.99297L17.1074 5.6763C16.8861 5.29425 16.5222 5.01561 16.0957 4.90156C15.6692 4.7875 15.2148 4.84735 14.8324 5.06797L14.7074 5.13463C14.454 5.28091 14.1666 5.35793 13.874 5.35793C13.5815 5.35793 13.2941 5.28091 13.0407 5.13463L12.6824 4.9263C12.4292 4.78017 12.219 4.57004 12.0727 4.317C11.9265 4.06396 11.8493 3.77691 11.849 3.48463V3.33463C11.849 2.89261 11.6734 2.46868 11.3609 2.15612C11.0483 1.84356 10.6244 1.66797 10.1824 1.66797Z" fill="white" stroke="#222222" stroke-width="1.5" stroke-linecap="round" stroke-linejoin="round"/>
<path id="Vector_2" d="M10 12.5C11.3807 12.5 12.5 11.3807 12.5 10C12.5 8.61929 11.3807 7.5 10 7.5C8.61929 7.5 7.5 8.61929 7.5 10C7.5 11.3807 8.61929 12.5 10 12.5Z" fill="white" stroke="#222222" stroke-width="1.5" stroke-linecap="round" stroke-linejoin="round"/>
</g>
</svg>
