<svg width="30" height="26" viewBox="0 0 30 26" fill="none" xmlns="http://www.w3.org/2000/svg">
<g id="Group 48097238">
<path id="Vector" d="M15.7765 6.29829L15.6868 6.27254C15.4418 6.20227 15.2934 5.94968 15.3701 5.70225L15.7765 6.29829ZM15.7765 6.29829L15.7841 6.28988M15.7765 6.29829L15.7841 6.28988M15.7841 6.28988C15.9969 6.30554 16.203 6.17779 16.2683 5.96587C16.7672 4.35348 18.3421 3.22104 20.1023 3.22104C20.3558 3.22104 20.5715 3.02182 20.5715 2.76404C20.5715 2.50625 20.3558 2.30703 20.1023 2.30703C17.8633 2.30703 15.9767 3.74136 15.3701 5.70216L15.7841 6.28988Z" fill="#0B3D60" stroke="#F9FFF9" stroke-width="0.3"/>
<path id="Vector_2" d="M24.5746 17.8053H22.6597C22.4835 17.8053 22.3406 17.6678 22.3406 17.4983C22.3406 17.3288 22.4835 17.1913 22.6597 17.1913H24.5746C27.2142 17.1913 29.3618 15.1254 29.3618 12.5862C29.3618 10.0471 27.2142 7.98123 24.5746 7.98123H24.5286C24.436 7.98123 24.348 7.94263 24.2874 7.87531C24.2267 7.80799 24.1994 7.71874 24.2126 7.63058C24.2411 7.43937 24.2555 7.24727 24.2555 7.06023C24.2555 4.85969 22.3941 3.06918 20.1065 3.06918C19.2165 3.06918 18.3678 3.33671 17.652 3.84304C17.4947 3.95422 17.2713 3.90488 17.1804 3.73844C15.1531 0.0250471 9.8581 -0.473623 7.11291 2.7567C5.95648 4.11759 5.5021 5.88789 5.8662 7.61328C5.90632 7.80384 5.75472 7.98146 5.55343 7.98146H5.42554C2.78598 7.98146 0.638327 10.0474 0.638327 12.5865C0.638327 15.1256 2.78598 17.1915 5.42554 17.1915H7.3404C7.51662 17.1915 7.65955 17.329 7.65955 17.4985C7.65955 17.668 7.51662 17.8055 7.3404 17.8055H5.42554C2.43396 17.8055 0 15.4642 0 12.5865C0 9.78946 2.29921 7.49922 5.17501 7.37291C4.90487 5.58285 5.42144 3.77724 6.61868 2.36813C9.5578 -1.09068 15.1904 -0.70299 17.5714 3.15383C18.331 2.69574 19.2002 2.45542 20.1064 2.45542C22.878 2.45542 25.0742 4.72462 24.882 7.37577C27.7313 7.52949 30 9.80765 30 12.5862C30 15.4642 27.5662 17.8053 24.5746 17.8053Z" fill="#0B3D60"/>
<path id="Vector_3" d="M6.83047 17.3236C6.83047 21.6439 10.4825 25.1487 14.9593 25.1487C19.4361 25.1487 23.088 21.6439 23.088 17.3236C23.088 13.0032 19.4361 9.49844 14.9593 9.49844C10.4824 9.49844 6.83047 13.0032 6.83047 17.3236ZM7.76891 17.3236C7.76891 13.5185 10.9891 10.4126 14.9593 10.4126C18.9294 10.4126 22.1496 13.5184 22.1496 17.3236C22.1496 21.1287 18.9294 24.2346 14.9593 24.2346C10.9892 24.2346 7.76891 21.1287 7.76891 17.3236Z" fill="#0B3D60" stroke="#F9FFF9" stroke-width="0.3"/>
<path id="Vector_4" d="M14.825 20.4162C14.825 20.5698 14.9539 20.691 15.1087 20.691C15.2634 20.691 15.3923 20.5699 15.3923 20.4162V14.5724C15.3923 14.4189 15.2634 14.2977 15.1087 14.2977C14.9539 14.2977 14.825 14.4189 14.825 14.5724V20.4162Z" fill="#0B3D60" stroke="#0B3D60" stroke-width="0.1"/>
<path id="Vector_5" d="M16.7722 16.5655C16.8277 16.6188 16.9002 16.6453 16.9721 16.6453L13.4336 16.5655L15.1029 14.9597L16.7722 16.5655ZM13.0338 16.5655C13.1444 16.6719 13.3231 16.672 13.4336 16.5655L14.9377 14.4135L14.903 14.3775L14.903 14.3775L13.0338 16.1755C12.9221 16.283 12.9221 16.458 13.0338 16.5655Z" fill="#0B3D60" stroke="#0B3D60" stroke-width="0.1"/>
</g>
</svg>
