<svg width="20" height="20" viewBox="0 0 20 20" fill="none" xmlns="http://www.w3.org/2000/svg">
<path d="M6.00094 12.75H6.00134L7.56399 12.75C8.33358 13.0798 9.16265 13.2501 10.0011 13.2501C10.8395 13.2501 11.6686 13.0798 12.4382 12.75L13.9954 12.75L13.9964 12.75C14.4235 12.7494 14.8464 12.8331 15.2411 12.9961C15.6359 13.1592 15.9946 13.3985 16.2967 13.7003C16.5989 14.0021 16.8387 14.3606 17.0022 14.7552C17.1658 15.1498 17.25 15.5728 17.25 16V16.4979C17.25 16.6974 17.1708 16.8887 17.0297 17.0298C16.8887 17.1708 16.6975 17.25 16.4982 17.25H3.50184C3.30249 17.25 3.11127 17.1708 2.97026 17.0298C2.82925 16.8887 2.75 16.6974 2.75 16.4979V15.9983C2.75023 15.5714 2.83451 15.1489 2.99802 14.7546C3.16153 14.3604 3.40107 14.0022 3.70295 13.7006C4.00484 13.399 4.36315 13.1598 4.75744 12.9967C5.15173 12.8336 5.57427 12.7498 6.00094 12.75ZM9.99983 10.25C9.25861 10.2499 8.53405 10.03 7.91771 9.61805C7.30118 9.20601 6.82062 8.62035 6.53684 7.93511C6.25307 7.24987 6.17881 6.49584 6.32348 5.76838C6.46816 5.04093 6.82525 4.37274 7.34958 3.8483C7.87391 3.32386 8.54193 2.96673 9.26915 2.82205C9.99638 2.67737 10.7502 2.75162 11.4352 3.03543C12.1202 3.31924 12.7058 3.79987 13.1178 4.41656C13.5296 5.03305 13.7495 5.75783 13.7496 6.4993C13.7481 7.49362 13.3525 8.44677 12.6496 9.14982C11.9467 9.85288 10.9938 10.2485 9.99983 10.25Z" stroke="#222222" stroke-width="1.5"/>
</svg>
