<svg xmlns="http://www.w3.org/2000/svg" width="36.949" height="33.955" viewBox="0 0 36.949 33.955"><defs><style>.a{fill:#026d39;}.b{fill:#55c86c;stroke-width:2px;}.b,.c{stroke:#fff;}.c,.e{fill:none;}.c{stroke-linecap:round;stroke-linejoin:round;}.d{stroke:none;}</style></defs><g transform="translate(-397.051 -888.045)"><g transform="translate(397.051 888.045)"><g transform="translate(0 0)"><path class="a" d="M31.51,12.624a.864.864,0,0,0-.061-.315v-.132L27.381,4.539A1.017,1.017,0,0,0,26.425,4H6.084a1.017,1.017,0,0,0-.895.539l-4.068,7.6v.132a.864.864,0,0,0-.061.315V24.595a3.773,3.773,0,0,0,3.651,3.814H27.8a3.773,3.773,0,0,0,3.712-3.814Zm-2.7-1.017H21.5l-.458-5.573h4.77Zm-12.56,5.614a1.017,1.017,0,0,0-.346.061.854.854,0,0,0-.315.193l-2.624,2.258V12.787l1.719-6.753H19l.549,6.672v7.017l-2.634-2.268A1.017,1.017,0,0,0,16.254,17.221ZM6.694,6.034h5.889l-1.414,5.6H3.714ZM29.476,24.595a1.729,1.729,0,0,1-1.678,1.78H4.711a1.729,1.729,0,0,1-1.678-1.78V13.672h7.9V21.94a1.012,1.012,0,0,0,.976,1.017H12a.874.874,0,0,0,.234-.051h.092a.824.824,0,0,0,.285-.173l3.641-3.163,3.651,3.143a1.017,1.017,0,0,0,1.678-.773V13.672h7.892Z" transform="translate(-1.06 -3.998)"/></g></g><g class="b" transform="translate(418 906)"><circle class="d" cx="7" cy="7" r="7"/><circle class="e" cx="7" cy="7" r="8"/></g><path class="c" d="M-10715.889-1663.388l1.829,1.753,3.525-3.764" transform="translate(11138.225 2576.666)"/></g></svg>