<svg xmlns="http://www.w3.org/2000/svg" width="38.949" height="40.292" viewBox="0 0 38.949 40.292"><defs><style>.a{fill:#026d39;}.b{fill:#55c86c;stroke-width:2px;}.b,.c{stroke:#fff;}.c,.e{fill:none;}.c{stroke-linecap:round;stroke-linejoin:round;}.d{stroke:none;}</style></defs><g transform="translate(-157.051 -246.708)"><g transform="translate(148.69 244.208)"><path class="a" d="M38.733,42.317l-2.341-4.865h0a.865.865,0,0,0-.512-.439L29,34.6l-1.39,1.39,5.267,1.865-9.29,3.219L14.3,37.819l5.267-1.829-1.39-1.39L11.3,37.014a1.009,1.009,0,0,0-.512.439h0L8.448,42.317a1.013,1.013,0,0,0-.037.732,1.156,1.156,0,0,0,.512.512l1.756.622v8.339a.918.918,0,0,0,.585.841l12,4.206a1.188,1.188,0,0,0,.585,0l12-4.206a.9.9,0,0,0,.585-.841V44.146l1.756-.622a.724.724,0,0,0,.512-.512A.679.679,0,0,0,38.733,42.317ZM10.5,42.208l1.573-3.255,10.278,3.621-1.573,3.255Zm12.216,13.24-10.2-3.584V44.8l8.449,2.963a.805.805,0,0,0,.293.037.877.877,0,0,0,.8-.512l.658-1.353Zm11.96-3.584-10.2,3.584v-9.51l.658,1.353a.877.877,0,0,0,.8.512.805.805,0,0,0,.293-.037L34.673,44.8Zm-8.266-6.072-1.573-3.255,10.278-3.621,1.573,3.255Z" transform="translate(0 -20.359)"/><path class="a" d="M40.974,16.472a.883.883,0,0,0,1.244,0l3.95-3.914a.905.905,0,0,0-1.28-1.28l-2.414,2.414V3.378a.878.878,0,0,0-1.756,0V13.692L38.3,11.278a.905.905,0,1,0-1.28,1.28Z" transform="translate(-18.006 0)"/></g><g class="b" transform="translate(180 271)"><circle class="d" cx="7" cy="7" r="7"/><circle class="e" cx="7" cy="7" r="8"/></g><path class="c" d="M-10715.889-1663.388l1.829,1.753,3.525-3.764" transform="translate(10900.225 1941.666)"/></g></svg>