<svg xmlns="http://www.w3.org/2000/svg" width="41" height="25.951" viewBox="0 0 41 25.951"><defs><style>.a{fill:#026d39;}.b{fill:#55c86c;stroke-width:2px;}.b,.c{stroke:#fff;}.c,.e{fill:none;}.c{stroke-linecap:round;stroke-linejoin:round;}.d{stroke:none;}</style></defs><g transform="translate(-184 -355)"><g transform="translate(189 360)"><path class="a" d="M35.5,10,32.42,5.33A3,3,0,0,0,29.93,4H25a3,3,0,0,0-1,.18V3a3,3,0,0,0-3-3H1A1,1,0,0,0,1,2H21a1,1,0,0,1,1,1V16H20.85a4,4,0,0,0-7.72,0H13a1,1,0,0,1-1-1V13a1,1,0,0,0-2,0v2a3,3,0,0,0,3,3h.14a4,4,0,0,0,7.72,0h4.28a4,4,0,0,0,7.72,0H33a3,3,0,0,0,3-3V11.61A3,3,0,0,0,35.5,10ZM17,19a2,2,0,0,1-2-2h0a2,2,0,1,1,2,2Zm12,0a2,2,0,0,1-2-2h0a2,2,0,1,1,2,2Zm5-4a1,1,0,0,1-1,1h-.15a4,4,0,0,0-7.72,0H24V7a1,1,0,0,1,1-1h4.93a1,1,0,0,1,.83.44l3.08,4.62a1,1,0,0,1,.17.54Z"/><path class="a" d="M16,5a1,1,0,0,0-1-1H4A1,1,0,0,0,4,6H15A1,1,0,0,0,16,5Z"/><path class="a" d="M16,9a1,1,0,0,0-1-1H7a1,1,0,0,0,0,2h8A1,1,0,0,0,16,9Z"/></g><g class="b" transform="translate(186 357)"><circle class="d" cx="7" cy="7" r="7"/><circle class="e" cx="7" cy="7" r="8"/></g><path class="c" d="M-10715.889-1663.388l1.829,1.753,3.525-3.764" transform="translate(10906.225 2027.666)"/></g></svg>