<svg xmlns="http://www.w3.org/2000/svg" width="31.244" height="26.372" viewBox="0 0 31.244 26.372"><defs><style>.a{fill:#026d39;}.b{fill:#55c86c;stroke-width:2px;}.b,.c{stroke:#fff;}.c,.e{fill:none;}.c{stroke-linecap:round;stroke-linejoin:round;}.d{stroke:none;}</style></defs><g transform="translate(-88.756 -488)"><g transform="translate(88.756 488.728)"><g transform="translate(0 0)"><path class="a" d="M24.512,9.4A7.974,7.974,0,0,0,17,14.706l-3.979-1.832a1.006,1.006,0,0,0-.853,0L3.1,17.011a1.006,1.006,0,0,0-.6.947V29.865a1.038,1.038,0,0,0,.6.947l9.064,4.137a1.009,1.009,0,0,0,.442.095,1.114,1.114,0,0,0,.442-.095l9.064-4.137a1.006,1.006,0,0,0,.6-.947V25.127a8.508,8.508,0,0,0,1.8.221,7.974,7.974,0,1,0,0-15.948ZM11.564,32.423,4.553,29.2V19.569l7.011,3.221ZM12.606,20.99l-6.6-3.032,6.6-3.032,3.948,1.832a4.233,4.233,0,0,0-.032.632,7.427,7.427,0,0,0,.189,1.705ZM20.659,29.2l-7.043,3.221V22.759l3.79-1.737a8.144,8.144,0,0,0,3.221,3.316V29.2ZM24.512,23.3a5.937,5.937,0,1,1,5.937-5.906A5.93,5.93,0,0,1,24.512,23.3Z" transform="translate(-2.5 -9.4)"/><path class="a" d="M66.433,26.684,64,29.116l-.916-.916a1.027,1.027,0,1,0-1.453,1.453L63.275,31.3a1.088,1.088,0,0,0,.726.316.96.96,0,0,0,.726-.316l3.158-3.158a1.011,1.011,0,0,0,0-1.453A1.07,1.07,0,0,0,66.433,26.684Z" transform="translate(-42.747 -21.031)"/></g></g><g class="b" transform="translate(104 490)"><circle class="d" cx="7" cy="7" r="7"/><circle class="e" cx="7" cy="7" r="8"/></g><path class="c" d="M-10715.889-1663.388l1.829,1.753,3.525-3.764" transform="translate(10824.225 2160.666)"/></g></svg>