<svg xmlns="http://www.w3.org/2000/svg" width="23" height="22" viewBox="0 0 23 22" fill="none">
  <path d="M2.27692 5.25739H1.25V4.98047H2.92906L3.56166 6.32641L3.76422 6.75739H4.24042H17.3808C17.4175 6.75739 17.4527 6.77198 17.4787 6.79795C17.5046 6.82391 17.5192 6.85913 17.5192 6.89585C17.5192 6.90366 17.5161 6.93951 17.4871 7.01178L14.3268 12.7233C14.3266 12.7236 14.3265 12.7239 14.3263 12.7242C14.1505 13.0388 13.809 13.2535 13.4271 13.2535H6.80808H6.36546L6.15151 13.641L5.36046 15.0737C5.25498 15.2507 5.23181 15.4304 5.23181 15.5584C5.23181 15.8162 5.33423 16.0634 5.51653 16.2457L5.51653 16.2457C5.69885 16.4281 5.94611 16.5305 6.20392 16.5305H15.7423V16.8074H5.83077C5.55841 16.8074 5.29721 16.6992 5.10462 16.5066C4.91204 16.314 4.80385 16.0528 4.80385 15.7805C4.80385 15.5995 4.85012 15.4291 4.92591 15.286L6.13113 13.1148L6.31824 12.7777L6.15302 12.4294L2.95456 5.68598L2.75128 5.25739H2.27692ZM13.6885 20.2228C13.6885 19.6508 14.1434 19.1959 14.7154 19.1959C15.2809 19.1959 15.7423 19.6532 15.7423 20.2228C15.7423 20.4951 15.6341 20.7563 15.4415 20.9489C15.2489 21.1415 14.9877 21.2497 14.7154 21.2497C14.443 21.2497 14.1818 21.1415 13.9892 20.9489C13.7967 20.7563 13.6885 20.4951 13.6885 20.2228ZM4.80385 20.2228C4.80385 19.6508 5.25879 19.1959 5.83077 19.1959C6.39631 19.1959 6.85769 19.6532 6.85769 20.2228C6.85769 20.4951 6.7495 20.7563 6.55691 20.9489C6.36433 21.1415 6.10312 21.2497 5.83077 21.2497C5.55841 21.2497 5.29721 21.1415 5.10463 20.9489C4.91204 20.7563 4.80385 20.4951 4.80385 20.2228Z" fill="white" stroke="#0B3D60" stroke-width="1.5"/>
  <circle cx="18.2698" cy="4.23077" r="4.23077" fill="#0B3D60"/>
  <path d="M16.5683 5.90425L19.9393 2.53325M19.9393 5.90425L16.5683 2.53325" stroke="white" stroke-linecap="round" stroke-linejoin="round"/>
</svg>