<svg width="50" height="50" viewBox="0 0 50 50" fill="none" xmlns="http://www.w3.org/2000/svg">
<circle cx="25" cy="25" r="24.75" fill="white" stroke="#CCCCCC" stroke-width="0.5"/>
<path d="M17.1053 14.5H28.6842C28.9902 14.5 29.2368 14.7498 29.2368 15.0455C29.2368 15.3411 28.9902 15.5909 28.6842 15.5909H18.1579C17.306 15.5909 16.6053 16.282 16.6053 17.1364V29.6818C16.6053 29.9775 16.3587 30.2273 16.0526 30.2273C15.7466 30.2273 15.5 29.9775 15.5 29.6818V16.0909C15.5 15.2203 16.2203 14.5 17.1053 14.5ZM21.3158 18.6818H32.8947C33.7797 18.6818 34.5 19.4021 34.5 20.2727V34.9091C34.5 35.7797 33.7797 36.5 32.8947 36.5H21.3158C20.4308 36.5 19.7105 35.7797 19.7105 34.9091V20.2727C19.7105 19.4021 20.4308 18.6818 21.3158 18.6818ZM22.3684 35.4091H31.8421C32.694 35.4091 33.3947 34.718 33.3947 33.8636V21.3182C33.3947 20.4638 32.694 19.7727 31.8421 19.7727H22.3684C21.5166 19.7727 20.8158 20.4638 20.8158 21.3182V33.8636C20.8158 34.718 21.5166 35.4091 22.3684 35.4091Z" fill="#222222" stroke="black"/>
</svg>
