<svg xmlns="http://www.w3.org/2000/svg" width="173" height="161" viewBox="0 0 173 161"><defs><style>.a{fill:#f2f2f2;opacity:0.5;}.b{fill:#e74c3c;}</style></defs><g transform="translate(-869 -460)"><circle class="a" cx="53.5" cy="53.5" r="53.5" transform="translate(916 460)"/><circle class="a" cx="53.5" cy="53.5" r="53.5" transform="translate(869 491)"/><circle class="a" cx="53.5" cy="53.5" r="53.5" transform="translate(935 514)"/><path class="b" d="M9.331,20.157h5.83V69.294a11.66,11.66,0,0,0,11.66,11.66H60.134a11.66,11.66,0,0,0,11.66-11.66V20.157h4.164a3.331,3.331,0,0,0,0-6.663H59.3A9.994,9.994,0,0,0,49.307,3.5H37.648a9.994,9.994,0,0,0-9.994,9.994H9.331a3.331,3.331,0,1,0,0,6.663Zm55.8,0V69.294a5,5,0,0,1-5,5H26.821a5,5,0,0,1-5-5V20.157ZM37.648,10.163h11.66a3.331,3.331,0,0,1,3.331,3.331H34.316A3.331,3.331,0,0,1,37.648,10.163Z" transform="translate(910.45 495.898)"/><path class="b" d="M50.331,38.5A3.331,3.331,0,0,0,47,41.831V71.813a3.331,3.331,0,0,0,6.663,0V41.831A3.331,3.331,0,0,0,50.331,38.5Z" transform="translate(903.596 490.047)"/><path class="b" d="M61,41.831V71.813a3.331,3.331,0,0,0,6.663,0V41.831a3.331,3.331,0,1,0-6.663,0Z" transform="translate(901.256 490.047)"/><path class="b" d="M36.331,38.5A3.331,3.331,0,0,0,33,41.831V71.813a3.331,3.331,0,1,0,6.663,0V41.831A3.331,3.331,0,0,0,36.331,38.5Z" transform="translate(905.937 490.047)"/></g></svg>