<svg xmlns="http://www.w3.org/2000/svg" width="16.234" height="17.157" viewBox="0 0 16.234 17.157"><defs><style>.a{fill:#e74c3c;}</style></defs><g transform="translate(-1365.352 -308.699)"><path class="a" d="M6.738,7.19H8.029V18.074a2.583,2.583,0,0,0,2.583,2.583h7.379a2.583,2.583,0,0,0,2.583-2.583V7.19H21.5a.738.738,0,0,0,0-1.476h-3.69A2.214,2.214,0,0,0,15.593,3.5H13.01A2.214,2.214,0,0,0,10.8,5.714H6.738a.738.738,0,0,0,0,1.476Zm12.36,0V18.074a1.107,1.107,0,0,1-1.107,1.107H10.612a1.107,1.107,0,0,1-1.107-1.107V7.19ZM13.01,4.976h2.583a.738.738,0,0,1,.738.738H12.272A.738.738,0,0,1,13.01,4.976Z" transform="translate(1359.352 305.199)"/><path class="a" d="M47.738,38.5a.738.738,0,0,0-.738.738v6.641a.738.738,0,0,0,1.476,0V39.238A.738.738,0,0,0,47.738,38.5Z" transform="translate(1325.916 276.655)"/><path class="a" d="M61,39.238v6.641a.738.738,0,0,0,1.476,0V39.238a.738.738,0,1,0-1.476,0Z" transform="translate(1314.499 276.655)"/><path class="a" d="M33.738,38.5a.738.738,0,0,0-.738.738v6.641a.738.738,0,1,0,1.476,0V39.238A.738.738,0,0,0,33.738,38.5Z" transform="translate(1337.333 276.655)"/></g></svg>