<svg width="28" height="28" viewBox="0 0 28 28" fill="none" xmlns="http://www.w3.org/2000/svg">
<g id="Frame">
<path id="Vector" d="M8.00401 21.992L8.96935 22.556C10.5973 23.5054 12.4488 24.0039 14.3334 24C16.443 24 18.5053 23.3744 20.2594 22.2023C22.0136 21.0303 23.3807 19.3644 24.1881 17.4153C24.9954 15.4662 25.2067 13.3215 24.7951 11.2524C24.3835 9.18324 23.3676 7.28262 21.8758 5.79086C20.3841 4.2991 18.4835 3.2832 16.4143 2.87163C14.3452 2.46005 12.2005 2.67129 10.2514 3.47862C8.30231 4.28596 6.63641 5.65313 5.46434 7.40725C4.29227 9.16138 3.66668 11.2237 3.66668 13.3333C3.66668 15.248 4.16935 17.084 5.11201 18.6987L5.67468 19.664L4.80401 22.8653L8.00401 21.992ZM1.00535 26.6667L2.80801 20.0427C1.6202 18.0065 0.996145 15.6906 1.00002 13.3333C1.00002 5.96934 6.96935 0 14.3334 0C21.6974 0 27.6667 5.96934 27.6667 13.3333C27.6667 20.6973 21.6974 26.6667 14.3334 26.6667C11.9771 26.6705 9.66222 26.0469 7.62668 24.86L1.00535 26.6667ZM9.52135 7.07734C9.70002 7.064 9.88001 7.064 10.0587 7.072C10.1307 7.07734 10.2027 7.08534 10.2747 7.09334C10.4867 7.11734 10.72 7.24667 10.7987 7.42534C11.196 8.32667 11.5827 9.23467 11.956 10.1453C12.0387 10.348 11.9894 10.608 11.832 10.8613C11.7238 11.0326 11.6068 11.1982 11.4814 11.3573C11.3307 11.5507 11.0067 11.9053 11.0067 11.9053C11.0067 11.9053 10.8747 12.0627 10.9254 12.2587C10.944 12.3333 11.0054 12.4413 11.0614 12.532L11.14 12.6587C11.4814 13.228 11.94 13.8053 12.5 14.3493C12.66 14.504 12.816 14.6627 12.984 14.8107C13.608 15.3613 14.3147 15.8107 15.0774 16.144L15.084 16.1467C15.1974 16.196 15.2547 16.2227 15.42 16.2933C15.5027 16.328 15.588 16.3587 15.6747 16.3813C15.7643 16.4041 15.8586 16.3998 15.9457 16.369C16.0328 16.3381 16.1088 16.2821 16.164 16.208C17.1294 15.0387 17.2174 14.9627 17.2254 14.9627V14.9653C17.2924 14.9028 17.3721 14.8553 17.459 14.8261C17.546 14.7969 17.6381 14.7866 17.7294 14.796C17.8094 14.8013 17.8907 14.816 17.9654 14.8493C18.6734 15.1733 19.832 15.6787 19.832 15.6787L20.608 16.0267C20.7387 16.0893 20.8574 16.2373 20.8614 16.38C20.8667 16.4693 20.8747 16.6133 20.844 16.8773C20.8014 17.2227 20.6974 17.6373 20.5934 17.8547C20.5221 18.003 20.4276 18.1389 20.3134 18.2573C20.1788 18.3986 20.0315 18.5271 19.8734 18.6413C19.8186 18.6825 19.7631 18.7225 19.7067 18.7613C19.5409 18.8665 19.3705 18.9644 19.196 19.0547C18.8527 19.237 18.4736 19.3417 18.0854 19.3613C17.8387 19.3747 17.592 19.3933 17.344 19.38C17.3334 19.38 16.5867 19.264 16.5867 19.264C14.691 18.7654 12.9379 17.8313 11.4667 16.536C11.1654 16.2707 10.8867 15.9853 10.6014 15.7013C9.41468 14.5213 8.51868 13.248 7.97468 12.0453C7.69624 11.455 7.54583 10.8125 7.53335 10.16C7.52785 9.35051 7.79248 8.56222 8.28535 7.92C8.38268 7.79467 8.47468 7.664 8.63335 7.51334C8.80268 7.35334 8.90935 7.268 9.02535 7.20934C9.17958 7.13204 9.34783 7.08669 9.52001 7.076L9.52135 7.07734Z" fill="white"/>
</g>
</svg>
