<svg width="25" height="25" viewBox="0 0 25 25" fill="none" xmlns="http://www.w3.org/2000/svg">
<g id="Social media logo">
<path id="vector" d="M23.4389 12.7429C23.4389 11.8436 23.3644 11.1874 23.2033 10.5068H12.7246V14.5658H18.8753C18.7514 15.5745 18.0817 17.0936 16.5936 18.1144L16.5728 18.2503L19.8859 20.7656L20.1155 20.7881C22.2236 18.8801 23.4389 16.0728 23.4389 12.7429Z" fill="#4285F4"/>
<path id="vector_2" d="M12.7232 23.4375C15.7365 23.4375 18.2662 22.4652 20.114 20.7882L16.5922 18.1144C15.6497 18.7586 14.3848 19.2082 12.7232 19.2082C9.7718 19.2082 7.26687 17.3003 6.37393 14.6631L6.24304 14.674L2.79798 17.2869L2.75293 17.4096C4.58822 20.9825 8.35806 23.4375 12.7232 23.4375Z" fill="#34A853"/>
<path id="vector_3" d="M6.37591 14.6633C6.1403 13.9827 6.00394 13.2535 6.00394 12.5001C6.00394 11.7466 6.1403 11.0174 6.36351 10.3369L6.35727 10.1919L2.86903 7.53711L2.7549 7.59031C1.99849 9.07297 1.56445 10.7379 1.56445 12.5001C1.56445 14.2622 1.99849 15.9271 2.7549 17.4098L6.37591 14.6633Z" fill="#FBBC05"/>
<path id="vector_4" d="M12.7232 5.79164C14.8189 5.79164 16.2326 6.67879 17.0387 7.42016L20.1885 4.40625C18.254 2.6441 15.7366 1.5625 12.7232 1.5625C8.35809 1.5625 4.58823 4.01734 2.75293 7.59023L6.36155 10.3368C7.26689 7.69965 9.77184 5.79164 12.7232 5.79164Z" fill="#EB4335"/>
</g>
</svg>
