<svg width="50" height="50" viewBox="0 0 50 50" fill="none" xmlns="http://www.w3.org/2000/svg">
<circle cx="25" cy="25" r="25" fill="#007AB7"/>
<path fill-rule="evenodd" clip-rule="evenodd" d="M20.0245 21.9768H16.2913V34H20.0245V21.9768ZM20.33 18.1683C20.33 16.973 19.3585 16 18.165 16C16.9645 16 16 16.973 16 18.1683C16 19.3637 16.9645 20.3367 18.165 20.3367C19.3585 20.3367 20.33 19.3637 20.33 18.1683ZM25.9437 21.9769H22.3771V34H26.1033V28.051C26.1033 26.4873 26.3948 24.9653 28.3377 24.9653C30.2529 24.9653 30.2737 26.7583 30.2737 28.1552V34H34V27.4116C34 24.173 33.2992 21.685 29.5243 21.685C27.7063 21.685 26.4919 22.6788 25.9923 23.624H25.9437V21.9769Z" fill="white"/>
</svg>
