<svg xmlns="http://www.w3.org/2000/svg" width="98" height="80" viewBox="20 0 98 62" fill="none">
  <g filter="url(#filter0_d_920_14536)">
    <circle cx="49" cy="37" r="25" fill="#007AB7"/>
    <path fill-rule="evenodd" clip-rule="evenodd" d="M44.0389 33.3444H40.3163V45.3333H44.0389V33.3444ZM44.3433 29.5468C44.3433 28.3548 43.3746 27.3846 42.1845 27.3846C40.9874 27.3846 40.0256 28.3548 40.0256 29.5468C40.0256 30.7388 40.9874 31.709 42.1845 31.709C43.3746 31.709 44.3433 30.7388 44.3433 29.5468ZM49.941 33.3444H46.3845V45.3333H50.1002V39.4013C50.1002 37.842 50.3908 36.3243 52.3282 36.3243C54.2379 36.3243 54.2587 38.1123 54.2587 39.5052V45.3333H57.9743V38.7637C57.9743 35.5343 57.2755 33.0534 53.5114 33.0534C51.6985 33.0534 50.4876 34.0444 49.9894 34.9868H49.941V33.3444Z" fill="white"/>
  </g>
  <defs>
    <filter id="filter0_d_920_14536" x="0" y="0" width="98" height="98" filterUnits="userSpaceOnUse" color-interpolation-filters="sRGB">
      <feFlood flood-opacity="0" result="BackgroundImageFix"/>
      <feColorMatrix in="SourceAlpha" type="matrix" values="0 0 0 0 0 0 0 0 0 0 0 0 0 0 0 0 0 0 127 0" result="hardAlpha"/>
      <feOffset dy="12"/>
      <feGaussianBlur stdDeviation="12"/>
      <feColorMatrix type="matrix" values="0 0 0 0 0 0 0 0 0 0 0 0 0 0 0 0 0 0 0.1 0"/>
      <feBlend mode="normal" in2="BackgroundImageFix" result="effect1_dropShadow_920_14536"/>
      <feBlend mode="normal" in="SourceGraphic" in2="effect1_dropShadow_920_14536" result="shape"/>
    </filter>
  </defs>
</svg>