<svg width="50" height="50" viewBox="0 0 50 50" fill="none" xmlns="http://www.w3.org/2000/svg">
<circle cx="25" cy="25" r="24.925" fill="white" stroke="#CCCCCC" stroke-width="0.15"/>
<path d="M14.6364 34H18.4545V24.7296L13 20.6397V32.364C13 33.2693 13.7336 34 14.6364 34Z" fill="#4285F4"/>
<path d="M31.5455 34H35.3636C36.2691 34 37 33.2665 37 32.364V20.6397L31.5455 24.7296" fill="#34A853"/>
<path d="M31.5455 17.6406V24.7296L37 20.6397V18.4586C37 16.4354 34.69 15.2821 33.0727 16.4954" fill="#FBBC04"/>
<path d="M18.4545 24.7296L18.4545 17.6405L25 22.5483L31.5455 17.6406V24.7296L25 29.6375" fill="#EA4335"/>
<path d="M13 18.4586V20.6397L18.4545 24.7296L18.4545 17.6405L16.9273 16.4954C15.3073 15.2821 13 16.4354 13 18.4586Z" fill="#C5221F"/>
</svg>
