<svg xmlns="http://www.w3.org/2000/svg" width="22" height="21" viewBox="0 0 22 21" fill="none">
  <rect width="21.4691" height="20.2764" transform="translate(0.5)" fill="white"/>
  <path d="M11.3436 10.7994C11.2723 10.7909 11.2002 10.7909 11.1289 10.7994C10.3703 10.7753 9.65131 10.4736 9.12384 9.95809C8.59637 9.44258 8.30173 8.75361 8.30216 8.03673C8.30216 6.50756 9.60819 5.26563 11.2363 5.26563C12.0051 5.26437 12.7436 5.54849 13.2927 6.05675C13.8417 6.565 14.1573 7.25668 14.1714 7.98265C14.1855 8.70863 13.8969 9.41075 13.368 9.93766C12.839 10.4646 12.112 10.774 11.3436 10.7994ZM17.2655 16.3754C15.6216 17.8024 13.4691 18.5926 11.2363 18.5889C8.91045 18.5889 6.79932 17.7525 5.20703 16.3754C5.29649 15.5812 5.83321 14.804 6.79038 14.1957C9.24143 12.6581 13.249 12.6581 15.6822 14.1957C16.6393 14.804 17.176 15.5812 17.2655 16.3754Z" fill="#0B3D60"/>
</svg>