<svg width="140" height="137" viewBox="0 0 140 137" fill="none" xmlns="http://www.w3.org/2000/svg">
<g clip-path="url(#clip0_2218_14172)">
<path d="M88.8762 30.6988H51.1523C50.2927 30.6998 49.4685 31.0414 48.8606 31.6485C48.2528 32.2557 47.9108 33.0789 47.9098 33.9375V117.681L47.4774 117.813L38.2231 120.644C37.7846 120.777 37.3108 120.732 36.906 120.517C36.5011 120.302 36.1982 119.935 36.0637 119.497L8.5364 29.6861C8.40244 29.248 8.4481 28.7748 8.66334 28.3703C8.87858 27.9658 9.24579 27.6633 9.68428 27.5291L23.9451 23.1675L65.2878 10.5277L79.5485 6.16616C79.7655 6.09945 79.9936 6.07613 80.2196 6.09756C80.4457 6.11898 80.6653 6.18472 80.8659 6.29101C81.0665 6.3973 81.2441 6.54206 81.3886 6.717C81.5331 6.89194 81.6417 7.09363 81.7081 7.31053L88.7444 30.2669L88.8762 30.6988Z" fill="#CCCCCC" fill-opacity="0.4"/>
<path d="M97.1083 30.2643L88.6279 2.59656C88.4868 2.13557 88.2562 1.70686 87.9491 1.33493C87.6421 0.96301 87.2647 0.655161 86.8385 0.428978C86.4123 0.202795 85.9457 0.0627084 85.4653 0.0167289C84.9848 -0.0292506 84.5001 0.0197781 84.0386 0.161008L63.9888 6.29092L22.6483 18.9329L2.59851 25.065C1.6671 25.3507 0.887218 25.9938 0.430047 26.8532C-0.0271243 27.7126 -0.124234 28.7181 0.160038 29.6489L29.1442 124.206C29.3752 124.957 29.8411 125.615 30.4737 126.082C31.1063 126.55 31.8723 126.803 32.6592 126.803C33.0234 126.804 33.3856 126.749 33.7335 126.641L47.4777 122.44L47.91 122.306V121.855L47.4777 121.986L33.606 126.229C32.7839 126.479 31.8959 126.394 31.1369 125.991C30.3778 125.588 29.8097 124.901 29.5571 124.081L0.575174 29.5215C0.450031 29.115 0.406415 28.6877 0.446823 28.2642C0.487231 27.8408 0.610865 27.4295 0.810654 27.0538C1.01044 26.6781 1.28246 26.3455 1.61113 26.075C1.93979 25.8045 2.31865 25.6014 2.72601 25.4774L22.7758 19.3453L64.1164 6.70549L84.1662 0.573416C84.4752 0.479232 84.7964 0.43121 85.1195 0.430909C85.8128 0.432464 86.4873 0.655714 87.0444 1.06796C87.6015 1.4802 88.0117 2.05978 88.2151 2.7218L96.6565 30.2643L96.7906 30.6961H97.2402L97.1083 30.2643Z" fill="#CCCCCC"/>
<path d="M26.5202 27.6006C26.1036 27.6003 25.698 27.4666 25.363 27.2192C25.0279 26.9718 24.7811 26.6237 24.6587 26.2259L21.8743 17.1418C21.7995 16.8978 21.7736 16.6415 21.7979 16.3874C21.8223 16.1334 21.8966 15.8866 22.0164 15.6613C22.1363 15.4359 22.2994 15.2363 22.4965 15.0739C22.6936 14.9115 22.9208 14.7895 23.1651 14.7149L61.198 3.08469C61.6914 2.93431 62.2243 2.9856 62.6799 3.2273C63.1355 3.469 63.4764 3.88136 63.6279 4.37388L66.4123 13.458C66.5627 13.9508 66.5113 14.4831 66.2694 14.9381C66.0274 15.3932 65.6146 15.7337 65.1216 15.8851L27.0886 27.5153C26.9044 27.5717 26.7129 27.6005 26.5202 27.6006Z" fill="#CCCCCC"/>
<path d="M41.1047 9.70703C43.4924 9.70703 45.4281 7.77364 45.4281 5.38867C45.4281 3.00371 43.4924 1.07031 41.1047 1.07031C38.7169 1.07031 36.7812 3.00371 36.7812 5.38867C36.7812 7.77364 38.7169 9.70703 41.1047 9.70703Z" fill="#CCCCCC"/>
<path d="M41.1049 8.12529C42.6169 8.12529 43.8426 6.901 43.8426 5.39077C43.8426 3.88054 42.6169 2.65625 41.1049 2.65625C39.5929 2.65625 38.3672 3.88054 38.3672 5.39077C38.3672 6.901 39.5929 8.12529 41.1049 8.12529Z" fill="white"/>
<path d="M129.985 125.43H56.9195C56.4323 125.429 55.9653 125.236 55.6208 124.892C55.2764 124.548 55.0826 124.081 55.082 123.595V36.1478C55.0826 35.6612 55.2763 35.1947 55.6208 34.8506C55.9653 34.5066 56.4323 34.313 56.9195 34.3125H129.985C130.472 34.3131 130.939 34.5066 131.284 34.8507C131.628 35.1947 131.822 35.6612 131.823 36.1478V123.595C131.822 124.081 131.628 124.548 131.284 124.892C130.939 125.236 130.472 125.429 129.985 125.43Z" fill="#CCCCCC" fill-opacity="0.4"/>
<path d="M96.6593 30.2656H51.1554C50.1811 30.267 49.2472 30.6542 48.5583 31.3422C47.8695 32.0303 47.4818 32.9631 47.4805 33.9362V121.988L47.9128 121.856V33.9362C47.9139 33.0776 48.2558 32.2544 48.8637 31.6472C49.4716 31.0401 50.2957 30.6985 51.1554 30.6975H96.7934L96.6593 30.2656ZM136.327 30.2656H51.1554C50.1811 30.267 49.2472 30.6542 48.5583 31.3422C47.8695 32.0303 47.4818 32.9631 47.4805 33.9362V132.827C47.4818 133.8 47.8695 134.733 48.5583 135.421C49.2472 136.109 50.1811 136.496 51.1554 136.497H136.327C137.301 136.496 138.235 136.109 138.924 135.421C139.613 134.733 140 133.8 140.002 132.827V33.9362C140 32.9631 139.613 32.0303 138.924 31.3422C138.235 30.6542 137.301 30.267 136.327 30.2656ZM139.569 132.827C139.568 133.685 139.226 134.509 138.618 135.116C138.01 135.723 137.186 136.064 136.327 136.065H51.1554C50.2957 136.064 49.4716 135.723 48.8637 135.116C48.2558 134.509 47.9139 133.685 47.9128 132.827V33.9362C47.9139 33.0776 48.2558 32.2544 48.8637 31.6472C49.4716 31.0401 50.2957 30.6985 51.1554 30.6975H136.327C137.186 30.6985 138.01 31.0401 138.618 31.6472C139.226 32.2544 139.568 33.0776 139.569 33.9362V132.827Z" fill="#CCCCCC"/>
<path d="M113.627 39.7658H73.8518C73.336 39.7652 72.8415 39.5603 72.4767 39.196C72.112 38.8317 71.9068 38.3378 71.9062 37.8226V28.3222C71.9068 27.807 72.112 27.313 72.4767 26.9487C72.8415 26.5844 73.336 26.3795 73.8518 26.3789H113.627C114.143 26.3795 114.638 26.5844 115.002 26.9487C115.367 27.313 115.572 27.807 115.573 28.3222V37.8226C115.572 38.3378 115.367 38.8317 115.002 39.196C114.638 39.5603 114.143 39.7652 113.627 39.7658Z" fill="#CCCCCC"/>
<path d="M93.7414 27.0273C96.1291 27.0273 98.0648 25.094 98.0648 22.709C98.0648 20.324 96.1291 18.3906 93.7414 18.3906C91.3536 18.3906 89.418 20.324 89.418 22.709C89.418 25.094 91.3536 27.0273 93.7414 27.0273Z" fill="#CCCCCC"/>
<path d="M93.7388 25.3387C95.1932 25.3387 96.3722 24.1611 96.3722 22.7084C96.3722 21.2557 95.1932 20.0781 93.7388 20.0781C92.2845 20.0781 91.1055 21.2557 91.1055 22.7084C91.1055 24.1611 92.2845 25.3387 93.7388 25.3387Z" fill="white"/>
<g clip-path="url(#clip1_2218_14172)">
<path d="M104.606 92.7149C101.647 89.7654 97.634 88.1084 93.4492 88.1084C89.2645 88.1084 85.792 89.2262 82.833 92.1757" stroke="#CCCCCC"/>
<path d="M87.0036 83.2077C87.0036 84.4514 85.9917 85.4623 84.7401 85.4623C83.4884 85.4623 82.4766 84.4514 82.4766 83.2077C82.4766 81.9641 83.4884 80.9531 84.7401 80.9531C85.9917 80.9531 87.0036 81.9641 87.0036 83.2077Z" fill="#CCCCCC" stroke="#CCCCCC"/>
<path d="M104.961 83.2077C104.961 84.4514 103.949 85.4623 102.697 85.4623C101.445 85.4623 100.434 84.4514 100.434 83.2077C100.434 81.9641 101.445 80.9531 102.697 80.9531C103.949 80.9531 104.961 81.9641 104.961 83.2077Z" fill="#CCCCCC" stroke="#CCCCCC"/>
<path d="M116.308 62.1385L116.308 62.1387C116.772 62.6008 117.029 63.2273 117.029 63.8737V64.1277H102.155V56.7162V49.3047H102.411C103.075 49.3047 103.704 49.5627 104.167 50.0241L116.308 62.1385ZM97.1863 49.3047V65.6167C97.1863 67.5261 98.7511 69.0835 100.663 69.0835H117.029V109.13C117.029 110.497 115.928 111.597 114.553 111.597H72.8827C71.5079 111.597 70.4062 110.497 70.4062 109.13V51.7715C70.4062 50.4051 71.5079 49.3047 72.8827 49.3047H97.1863Z" stroke="#CCCCCC"/>
</g>
</g>
<defs>
<clipPath id="clip0_2218_14172">
<rect width="140" height="137" fill="white"/>
</clipPath>
<clipPath id="clip1_2218_14172">
<rect width="63.4973" height="63.2922" fill="white" transform="translate(61.9688 48.8047)"/>
</clipPath>
</defs>
</svg>
