<svg xmlns="http://www.w3.org/2000/svg" width="22" height="21" viewBox="0 0 22 21" fill="none">
  <path d="M20.393 15.5851C20.4113 16.2726 20.228 16.9234 19.898 17.4826C19.7146 17.8126 19.4671 18.1151 19.1921 18.3626C18.5596 18.9493 17.7255 19.3068 16.7996 19.3343C15.4613 19.3618 14.2788 18.6743 13.628 17.6201C13.2796 17.0793 13.0688 16.4284 13.0596 15.7409C13.0321 14.5859 13.5455 13.5409 14.3705 12.8534C14.9938 12.3401 15.7821 12.0193 16.6438 12.0009C17.1254 11.99 17.6043 12.074 18.0534 12.2482C18.5025 12.4224 18.9128 12.6834 19.261 13.0163C19.6091 13.3491 19.8883 13.7473 20.0825 14.1881C20.2768 14.6288 20.3823 15.1036 20.393 15.5851Z" stroke="#0B3D60" stroke-width="1.5" stroke-miterlimit="10" stroke-linecap="round" stroke-linejoin="round"/>
  <path d="M15.2957 15.6919L16.2215 16.5719L18.1373 14.7202M2.21484 5.98438L10.309 10.6685L18.3482 6.01187M10.309 18.9735V10.6594" stroke="#0B3D60" stroke-width="1.5" stroke-linecap="round" stroke-linejoin="round"/>
  <path d="M19.1183 7.5725V12.7608C19.1183 12.8067 19.1183 12.8433 19.1092 12.8892C18.4675 12.33 17.6425 12 16.7258 12C15.8642 12 15.0667 12.3025 14.4342 12.8067C14.0039 13.1486 13.6566 13.5836 13.4185 14.0789C13.1804 14.5742 13.0575 15.1171 13.0592 15.6667C13.0592 16.3542 13.2517 17.005 13.5908 17.555C13.6733 17.7017 13.7742 17.8392 13.8842 17.9675L12.2067 18.8933C11.1617 19.48 9.45667 19.48 8.41167 18.8933L3.51667 16.18C2.4075 15.5658 1.5 14.0258 1.5 12.7608V7.5725C1.5 6.3075 2.4075 4.7675 3.51667 4.15333L8.41167 1.44C9.45667 0.853333 11.1617 0.853333 12.2067 1.44L17.1017 4.15333C18.2108 4.7675 19.1183 6.3075 19.1183 7.5725Z" stroke="#0B3D60" stroke-width="1.5" stroke-linecap="round" stroke-linejoin="round"/>
</svg>