<svg width="50" height="50" viewBox="0 0 50 50" fill="none" xmlns="http://www.w3.org/2000/svg">
<circle cx="25" cy="25" r="25" fill="#C8232C"/>
<g clip-path="url(#clip0_1182_9798)">
<path d="M25.8125 11.3555C18.8656 11.3555 12 15.0961 12 21.15C12 25 14.6812 27.1875 16.3062 27.1875C16.9766 27.1875 17.3625 25.6781 17.3625 25.2516C17.3625 24.743 15.7578 23.6602 15.7578 21.5438C15.7578 17.1469 19.9016 14.0297 25.2641 14.0297C29.875 14.0297 33.2875 16.1461 33.2875 20.0344C33.2875 22.9383 31.8453 28.3852 27.1734 28.3852C25.4875 28.3852 24.0453 27.4008 24.0453 25.9898C24.0453 23.9227 25.8328 21.9211 25.8328 19.7883C25.8328 16.168 19.475 16.8242 19.475 21.1992C19.475 22.118 19.6172 23.1352 20.125 23.9719C19.1906 27.2203 17.2812 32.0602 17.2812 35.407C17.2812 36.4406 17.4641 37.4578 17.5859 38.4914C17.8161 38.6992 17.701 38.6773 18.0531 38.5734C21.4656 34.8 21.3437 34.0617 22.8875 29.1234C23.7203 30.4031 25.8734 31.0922 27.5797 31.0922C34.7703 31.0922 38 25.432 38 20.3297C38 14.8992 32.1906 11.3555 25.8125 11.3555Z" fill="white"/>
</g>
<defs>
<clipPath id="clip0_1182_9798">
<rect width="26" height="28" fill="white" transform="translate(12 11)"/>
</clipPath>
</defs>
</svg>
