<svg width="50" height="60" viewBox="0 2 50 36" fill="none" xmlns="http://www.w3.org/2000/svg">
<circle cx="25" cy="25" r="25" fill="#C8232C"/>
<g clip-path="url(#clip0_1812_45188)">
<path d="M26.2812 13.3428C19.6016 13.3428 13 16.9498 13 22.7875C13 26.5 15.5781 28.6094 17.1406 28.6094C17.7852 28.6094 18.1562 27.1539 18.1562 26.7426C18.1562 26.2521 16.6133 25.208 16.6133 23.1672C16.6133 18.9273 20.5977 15.9215 25.7539 15.9215C30.1875 15.9215 33.4687 17.9623 33.4687 21.7117C33.4687 24.5119 32.082 29.7643 27.5898 29.7643C25.9688 29.7643 24.582 28.815 24.582 27.4545C24.582 25.4611 26.3008 23.5311 26.3008 21.4744C26.3008 17.9834 20.1875 18.6162 20.1875 22.835C20.1875 23.7209 20.3242 24.7018 20.8125 25.5086C19.9141 28.641 18.0781 33.308 18.0781 36.5354C18.0781 37.532 18.2539 38.5129 18.3711 39.5096C18.5924 39.71 18.4818 39.6889 18.8203 39.5887C22.1016 35.95 21.9844 35.2381 23.4688 30.4762C24.2695 31.7102 26.3398 32.3746 27.9805 32.3746C34.8945 32.3746 38 26.9166 38 21.9965C38 16.76 32.4141 13.3428 26.2812 13.3428Z" fill="white"/>
</g>
<defs>
<clipPath id="clip0_1812_45188">
<rect width="25" height="27" fill="white" transform="translate(13 13)"/>
</clipPath>
</defs>
</svg>
