<svg width="16" height="30" viewBox="0 0 16 18" fill="none" class="product-svg" xmlns="http://www.w3.org/2000/svg">
<g id="Group 48096541">
<path id="Vector" d="M16 2.64706C16 3.3491 15.7281 4.02239 15.2441 4.51881C14.7602 5.01523 14.1038 5.29412 13.4194 5.29412C12.7349 5.29412 12.0785 5.01523 11.5946 4.51881C11.1106 4.02239 10.8387 3.3491 10.8387 2.64706C10.8387 1.94502 11.1106 1.27173 11.5946 0.775306C12.0785 0.278886 12.7349 0 13.4194 0C14.1038 0 14.7602 0.278886 15.2441 0.775306C15.7281 1.27173 16 1.94502 16 2.64706ZM16 15.3529C16 16.055 15.7281 16.7283 15.2441 17.2247C14.7602 17.7211 14.1038 18 13.4194 18C12.7349 18 12.0785 17.7211 11.5946 17.2247C11.1106 16.7283 10.8387 16.055 10.8387 15.3529C10.8387 14.6509 11.1106 13.9776 11.5946 13.4812C12.0785 12.9848 12.7349 12.7059 13.4194 12.7059C14.1038 12.7059 14.7602 12.9848 15.2441 13.4812C15.7281 13.9776 16 14.6509 16 15.3529ZM5.16129 9C5.16129 9.70204 4.8894 10.3753 4.40544 10.8718C3.92147 11.3682 3.26507 11.6471 2.58065 11.6471C1.89622 11.6471 1.23982 11.3682 0.755853 10.8718C0.271889 10.3753 0 9.70204 0 9C0 8.29796 0.271889 7.62467 0.755853 7.12825C1.23982 6.63183 1.89622 6.35294 2.58065 6.35294C3.26507 6.35294 3.92147 6.63183 4.40544 7.12825C4.8894 7.62467 5.16129 8.29796 5.16129 9Z" fill="#FFD66B"/>
<path id="Vector_2" d="M13 3L3.24931 8.561C3.17386 8.604 3.1109 8.66747 3.06702 8.74472C3.02315 8.82197 3 8.91016 3 9C3 9.08984 3.02315 9.17803 3.06702 9.25528C3.1109 9.33253 3.17386 9.396 3.24931 9.439L13 15" stroke="#FFD66B" stroke-linecap="round" stroke-linejoin="round"/>
</g>
</svg>
