<svg width="30" height="30" viewBox="0 0 30 30" fill="none" xmlns="http://www.w3.org/2000/svg">
<circle cx="15" cy="15" r="15" fill="white" fill-opacity="0.45"/>
<path opacity="0.4" d="M22.8949 11.6604V12.6315H7.10547V11.4789C7.10547 9.67098 8.57389 8.21045 10.3818 8.21045H18.1581V10.2394C18.1581 11.242 18.7581 11.842 19.7607 11.842H22.0818C22.3976 11.842 22.666 11.7868 22.8949 11.6604Z" fill="white"/>
<path d="M7.10547 12.6318V18.5213C7.10547 20.3292 8.57389 21.7897 10.3818 21.7897H19.6186C21.4265 21.7897 22.8949 20.3292 22.8949 18.5213V12.6318H7.10547ZM11.8423 19.145H10.2634C9.93968 19.145 9.67126 18.8766 9.67126 18.5529C9.67126 18.2292 9.93968 17.9608 10.2634 17.9608H11.8423C12.166 17.9608 12.4344 18.2292 12.4344 18.5529C12.4344 18.8766 12.166 19.145 11.8423 19.145ZM16.9739 19.145H13.816C13.4923 19.145 13.2239 18.8766 13.2239 18.5529C13.2239 18.2292 13.4923 17.9608 13.816 17.9608H16.9739C17.2976 17.9608 17.566 18.2292 17.566 18.5529C17.566 18.8766 17.2976 19.145 16.9739 19.145Z" fill="#0B3D60"/>
<path d="M22.0819 6.31592H19.7608C18.7582 6.31592 18.1582 6.91592 18.1582 7.91855V10.2396C18.1582 11.2422 18.7582 11.8422 19.7608 11.8422H22.0819C23.0845 11.8422 23.6845 11.2422 23.6845 10.2396V7.91855C23.6845 6.91592 23.0845 6.31592 22.0819 6.31592ZM20.5345 10.7133C20.5108 10.737 20.4556 10.7685 20.4161 10.7685L19.595 10.887C19.5714 10.8949 19.5398 10.8949 19.5161 10.8949C19.3977 10.8949 19.295 10.8554 19.224 10.7764C19.1293 10.6817 19.0898 10.5475 19.1135 10.4054L19.2319 9.58434C19.2398 9.54487 19.2635 9.4896 19.2872 9.46592L20.6293 8.12381C20.6529 8.17908 20.6766 8.24223 20.7003 8.30539C20.7319 8.36855 20.7635 8.42381 20.795 8.47908C20.8187 8.52644 20.8503 8.57381 20.8819 8.60539C20.9135 8.65276 20.945 8.70013 20.9687 8.72381C20.9845 8.7475 20.9924 8.75539 21.0003 8.76329C21.0714 8.85013 21.1503 8.92908 21.2214 8.98434C21.2371 9.00013 21.2529 9.01592 21.2608 9.01592C21.3003 9.0475 21.3477 9.08697 21.3793 9.11065C21.4266 9.14223 21.4661 9.17381 21.5135 9.1975C21.5687 9.22908 21.6319 9.26065 21.695 9.29223C21.7582 9.32381 21.8214 9.3475 21.8766 9.36329L20.5345 10.7133ZM22.4214 8.82644L22.1687 9.07908C22.1529 9.10276 22.1293 9.11065 22.1056 9.11065C22.0977 9.11065 22.0898 9.11065 22.0819 9.11065C21.5135 8.94487 21.0635 8.49487 20.8977 7.92644C20.8898 7.89487 20.8977 7.86329 20.9214 7.8396L21.1819 7.57908C21.6082 7.15276 22.0108 7.16065 22.4293 7.57908C22.6424 7.79223 22.745 7.9975 22.745 8.20276C22.7371 8.40802 22.6345 8.61329 22.4214 8.82644Z" fill="#0B3D60"/>
</svg>
