<svg width="340" height="140" viewBox="0 0 340 140" fill="none" xmlns="http://www.w3.org/2000/svg">
<rect width="340" height="140" rx="15" fill="#0B3D60"/>
<rect width="340" height="140" rx="15" fill="#0B3D60"/>
<mask id="mask0_1441_10178" style="mask-type:alpha" maskUnits="userSpaceOnUse" x="0" y="0" width="340" height="140">
<rect width="340" height="140" rx="15" fill="#978CD0"/>
</mask>
<g mask="url(#mask0_1441_10178)">
<path d="M85.2653 80.6028C7.71428 91.966 -25.8912 31.227 -33 -0.562864L-33 -31L428.429 -31L442 27.8451C423.905 48.8129 378.408 88.7194 341.184 80.6028C303.959 72.4863 288.5 40.5 273.327 27.8451C228.735 -4.62115 182.204 66.3988 85.2653 80.6028Z" fill="white" fill-opacity="0.1"/>
<path d="M71.3225 56.0109C2.9143 64.0557 -26.7292 21.0546 -33 -1.45157L-33 -23L374.029 -23.0001L386 18.6602C370.038 33.5047 329.905 61.7571 297.069 56.0109C264.233 50.2646 248.5 27.5 237.212 18.6603C197.878 -4.32473 156.833 45.955 71.3225 56.0109Z" fill="white" fill-opacity="0.1"/>
</g>
</svg>
