<svg width="60" height="70" viewBox="0 0 60 42" fill="none" xmlns="http://www.w3.org/2000/svg">
<g filter="url(#filter0_d_1812_45183)">
<rect x="5" y="3" width="50" height="50" rx="25" fill="#0CDA0C" shape-rendering="crispEdges"/>
<g clip-path="url(#clip0_1812_45183)">
<path d="M24.004 35.992L24.9694 36.556C26.5973 37.5054 28.4488 38.0039 30.3334 38C32.443 38 34.5053 37.3744 36.2594 36.2023C38.0136 35.0303 39.3807 33.3644 40.1881 31.4153C40.9954 29.4662 41.2067 27.3215 40.7951 25.2524C40.3835 23.1832 39.3676 21.2826 37.8758 19.7909C36.3841 18.2991 34.4835 17.2832 32.4143 16.8716C30.3452 16.46 28.2005 16.6713 26.2514 17.4786C24.3023 18.286 22.6364 19.6531 21.4643 21.4072C20.2923 23.1614 19.6667 25.2237 19.6667 27.3333C19.6667 29.248 20.1694 31.084 21.112 32.6987L21.6747 33.664L20.804 36.8653L24.004 35.992ZM17.0054 40.6667L18.808 34.0427C17.6202 32.0065 16.9961 29.6906 17 27.3333C17 19.9693 22.9694 14 30.3334 14C37.6974 14 43.6667 19.9693 43.6667 27.3333C43.6667 34.6973 37.6974 40.6667 30.3334 40.6667C27.9771 40.6705 25.6622 40.0469 23.6267 38.86L17.0054 40.6667ZM25.5214 21.0773C25.7 21.064 25.88 21.064 26.0587 21.072C26.1307 21.0773 26.2027 21.0853 26.2747 21.0933C26.4867 21.1173 26.72 21.2467 26.7987 21.4253C27.196 22.3267 27.5827 23.2347 27.956 24.1453C28.0387 24.348 27.9894 24.608 27.832 24.8613C27.7238 25.0326 27.6068 25.1982 27.4814 25.3573C27.3307 25.5507 27.0067 25.9053 27.0067 25.9053C27.0067 25.9053 26.8747 26.0627 26.9254 26.2587C26.944 26.3333 27.0054 26.4413 27.0614 26.532L27.14 26.6587C27.4814 27.228 27.94 27.8053 28.5 28.3493C28.66 28.504 28.816 28.6627 28.984 28.8107C29.608 29.3613 30.3147 29.8107 31.0774 30.144L31.084 30.1467C31.1974 30.196 31.2547 30.2227 31.42 30.2933C31.5027 30.328 31.588 30.3587 31.6747 30.3813C31.7643 30.4041 31.8586 30.3998 31.9457 30.369C32.0328 30.3381 32.1088 30.2821 32.164 30.208C33.1294 29.0387 33.2174 28.9627 33.2254 28.9627V28.9653C33.2924 28.9028 33.3721 28.8553 33.459 28.8261C33.546 28.7969 33.6381 28.7866 33.7294 28.796C33.8094 28.8013 33.8907 28.816 33.9654 28.8493C34.6734 29.1733 35.832 29.6787 35.832 29.6787L36.608 30.0267C36.7387 30.0893 36.8574 30.2373 36.8614 30.38C36.8667 30.4693 36.8747 30.6133 36.844 30.8773C36.8014 31.2227 36.6974 31.6373 36.5934 31.8547C36.5221 32.003 36.4276 32.1389 36.3134 32.2573C36.1788 32.3986 36.0315 32.5271 35.8734 32.6413C35.8186 32.6825 35.7631 32.7225 35.7067 32.7613C35.5409 32.8665 35.3705 32.9644 35.196 33.0547C34.8527 33.237 34.4736 33.3417 34.0854 33.3613C33.8387 33.3747 33.592 33.3933 33.344 33.38C33.3334 33.38 32.5867 33.264 32.5867 33.264C30.691 32.7654 28.9379 31.8313 27.4667 30.536C27.1654 30.2707 26.8867 29.9853 26.6014 29.7013C25.4147 28.5213 24.5187 27.248 23.9747 26.0453C23.6962 25.455 23.5458 24.8125 23.5334 24.16C23.5279 23.3505 23.7925 22.5622 24.2854 21.92C24.3827 21.7947 24.4747 21.664 24.6334 21.5133C24.8027 21.3533 24.9094 21.268 25.0254 21.2093C25.1796 21.132 25.3478 21.0867 25.52 21.076L25.5214 21.0773Z" fill="white"/>
</g>
</g>
<defs>
<filter id="filter0_d_1812_45183" x="0" y="0" width="60" height="60" filterUnits="userSpaceOnUse" color-interpolation-filters="sRGB">
<feFlood flood-opacity="0" result="BackgroundImageFix"/>
<feColorMatrix in="SourceAlpha" type="matrix" values="0 0 0 0 0 0 0 0 0 0 0 0 0 0 0 0 0 0 127 0" result="hardAlpha"/>
<feOffset dy="2"/>
<feGaussianBlur stdDeviation="2.5"/>
<feComposite in2="hardAlpha" operator="out"/>
<feColorMatrix type="matrix" values="0 0 0 0 0 0 0 0 0 0 0 0 0 0 0 0 0 0 0.15 0"/>
<feBlend mode="normal" in2="BackgroundImageFix" result="effect1_dropShadow_1812_45183"/>
<feBlend mode="normal" in="SourceGraphic" in2="effect1_dropShadow_1812_45183" result="shape"/>
</filter>
<clipPath id="clip0_1812_45183">
<rect width="28" height="28" fill="white" transform="translate(16 14)"/>
</clipPath>
</defs>
</svg>
