<svg width="50" height="50" viewBox="0 0 50 50" fill="none" xmlns="http://www.w3.org/2000/svg">
<circle cx="25" cy="25" r="25" fill="#0CDA0C"/>
<g clip-path="url(#clip0_1181_9715)">
<path d="M19.004 32.992L19.9694 33.556C21.5973 34.5054 23.4488 35.0039 25.3334 35C27.443 35 29.5053 34.3744 31.2594 33.2023C33.0136 32.0303 34.3807 30.3644 35.1881 28.4153C35.9954 26.4662 36.2067 24.3215 35.7951 22.2524C35.3835 20.1832 34.3676 18.2826 32.8758 16.7909C31.3841 15.2991 29.4835 14.2832 27.4143 13.8716C25.3452 13.46 23.2005 13.6713 21.2514 14.4786C19.3023 15.286 17.6364 16.6531 16.4643 18.4072C15.2923 20.1614 14.6667 22.2237 14.6667 24.3333C14.6667 26.248 15.1694 28.084 16.112 29.6987L16.6747 30.664L15.804 33.8653L19.004 32.992ZM12.0054 37.6667L13.808 31.0427C12.6202 29.0065 11.9961 26.6906 12 24.3333C12 16.9693 17.9694 11 25.3334 11C32.6974 11 38.6667 16.9693 38.6667 24.3333C38.6667 31.6973 32.6974 37.6667 25.3334 37.6667C22.9771 37.6705 20.6622 37.0469 18.6267 35.86L12.0054 37.6667ZM20.5214 18.0773C20.7 18.064 20.88 18.064 21.0587 18.072C21.1307 18.0773 21.2027 18.0853 21.2747 18.0933C21.4867 18.1173 21.72 18.2467 21.7987 18.4253C22.196 19.3267 22.5827 20.2347 22.956 21.1453C23.0387 21.348 22.9894 21.608 22.832 21.8613C22.7238 22.0326 22.6068 22.1982 22.4814 22.3573C22.3307 22.5507 22.0067 22.9053 22.0067 22.9053C22.0067 22.9053 21.8747 23.0627 21.9254 23.2587C21.944 23.3333 22.0054 23.4413 22.0614 23.532L22.14 23.6587C22.4814 24.228 22.94 24.8053 23.5 25.3493C23.66 25.504 23.816 25.6627 23.984 25.8107C24.608 26.3613 25.3147 26.8107 26.0774 27.144L26.084 27.1467C26.1974 27.196 26.2547 27.2227 26.42 27.2933C26.5027 27.328 26.588 27.3587 26.6747 27.3813C26.7643 27.4041 26.8586 27.3998 26.9457 27.369C27.0328 27.3381 27.1088 27.2821 27.164 27.208C28.1294 26.0387 28.2174 25.9627 28.2254 25.9627V25.9653C28.2924 25.9028 28.3721 25.8553 28.459 25.8261C28.546 25.7969 28.6381 25.7866 28.7294 25.796C28.8094 25.8013 28.8907 25.816 28.9654 25.8493C29.6734 26.1733 30.832 26.6787 30.832 26.6787L31.608 27.0267C31.7387 27.0893 31.8574 27.2373 31.8614 27.38C31.8667 27.4693 31.8747 27.6133 31.844 27.8773C31.8014 28.2227 31.6974 28.6373 31.5934 28.8547C31.5221 29.003 31.4276 29.1389 31.3134 29.2573C31.1788 29.3986 31.0315 29.5271 30.8734 29.6413C30.8186 29.6825 30.7631 29.7225 30.7067 29.7613C30.5409 29.8665 30.3705 29.9644 30.196 30.0547C29.8527 30.237 29.4736 30.3417 29.0854 30.3613C28.8387 30.3747 28.592 30.3933 28.344 30.38C28.3334 30.38 27.5867 30.264 27.5867 30.264C25.691 29.7654 23.9379 28.8313 22.4667 27.536C22.1654 27.2707 21.8867 26.9853 21.6014 26.7013C20.4147 25.5213 19.5187 24.248 18.9747 23.0453C18.6962 22.455 18.5458 21.8125 18.5334 21.16C18.5279 20.3505 18.7925 19.5622 19.2854 18.92C19.3827 18.7947 19.4747 18.664 19.6334 18.5133C19.8027 18.3533 19.9094 18.268 20.0254 18.2093C20.1796 18.132 20.3478 18.0867 20.52 18.076L20.5214 18.0773Z" fill="white"/>
</g>
<defs>
<clipPath id="clip0_1181_9715">
<rect width="28" height="28" fill="white" transform="translate(11 11)"/>
</clipPath>
</defs>
</svg>
