<svg xmlns="http://www.w3.org/2000/svg" width="41.176" height="40.552" viewBox="0 0 41.176 40.552">
  <g id="Category" transform="translate(0.65 -3.176)">
    <g id="Group_1449" data-name="Group 1449" transform="translate(8.442 3.326)">
      <path id="Path_542" data-name="Path 542" d="M113.416,3.34q3.56-.057,7.105.12a3.075,3.075,0,0,1,1.317,1Q123,6.483,124.194,8.489l8.223.08a2.52,2.52,0,0,1,2.036,2.036q.08,5.07,0,10.139a2.62,2.62,0,0,1-1.876,2.036q-9.58.08-19.161,0a2.621,2.621,0,0,1-1.876-2.036q-.08-7.664,0-15.329A2.758,2.758,0,0,1,113.416,3.34Zm.559,1.277q3.038-.053,6.068.12a1.624,1.624,0,0,1,.679.519q.923,1.626,1.876,3.233-4.87.06-9.74.04-.02-1.478.04-2.954A1.329,1.329,0,0,1,113.975,4.617Zm-1.118,5.269q9.7-.02,19.4.04a1.315,1.315,0,0,1,.838.838q.118,5.037-.08,10.059a1.25,1.25,0,0,1-.679.6q-9.341.08-18.682,0a1.2,1.2,0,0,1-.758-.838Q112.837,15.235,112.857,9.886Z" transform="translate(-111.5 -3.326)" fill="#f09700" stroke="#f09700" stroke-width="0.3" fill-rule="evenodd" opacity="0.944"/>
    </g>
    <g id="Group_1450" data-name="Group 1450" transform="translate(4.45 25.041)">
      <path id="Path_543" data-name="Path 543" d="M76.749,275.332a.833.833,0,0,1,.838.319q.06,1.037.04,2.076,7.271-.058,14.53.12a.613.613,0,0,1,.279.439,25.876,25.876,0,0,1,0,2.874.709.709,0,0,1-1.158.359.755.755,0,0,1-.12-.2q-.06-1.117-.04-2.235H77.627q.02,1.118-.04,2.235a.7.7,0,0,1-1,.279.557.557,0,0,1-.2-.279q-.06-1.117-.04-2.235H62.857q.02,1.118-.04,2.235a.706.706,0,0,1-1,.279.613.613,0,0,1-.279-.439,25.884,25.884,0,0,1,0-2.874.613.613,0,0,1,.279-.439q7.26-.178,14.53-.12-.02-1.039.04-2.076A1.971,1.971,0,0,1,76.749,275.332Z" transform="translate(-61.5 -275.318)" stroke="#000" stroke-width="0.3" fill-rule="evenodd" opacity="0.943"/>
    </g>
    <g id="Group_1451" data-name="Group 1451" transform="translate(-0.5 33.598)">
      <path id="Path_544" data-name="Path 544" d="M-.5,391.441v-7.9a1.875,1.875,0,0,1,1.277-1,30.413,30.413,0,0,1,3.114,0,1.982,1.982,0,0,1,1.078.6q.524.908,1.078,1.8l3.672.08a1.5,1.5,0,0,1,1.317,1.158q.08,2.595,0,5.189a1.462,1.462,0,0,1-1,1.078q-4.75.08-9.5,0A1.748,1.748,0,0,1-.5,391.441Zm1.437-7.584q1.4-.02,2.794.04a5.523,5.523,0,0,1,.719,1.038q-1.836.06-3.672.04A2.337,2.337,0,0,1,.937,383.857Zm-.16,2.475q4.391-.02,8.782.04l.12.12q.08,2.275,0,4.551a.754.754,0,0,1-.2.12q-4.276.1-8.542-.04a.355.355,0,0,1-.12-.16Q.757,388.648.777,386.332Z" transform="translate(0.5 -382.5)" fill="#f09c0d" stroke="#f09c0d" stroke-width="0.3" fill-rule="evenodd"/>
    </g>
    <g id="Group_1452" data-name="Group 1452" transform="translate(14.11 33.586)">
      <path id="Path_545" data-name="Path 545" d="M183.857,382.372a27.022,27.022,0,0,1,3.433.12,2.873,2.873,0,0,1,.679.439l1.078,1.836q1.835.1,3.672.12a1.5,1.5,0,0,1,1.4,1.237q.08,2.515,0,5.03a1.6,1.6,0,0,1-1,1.158q-4.79.08-9.58,0a1.6,1.6,0,0,1-1-1.158q-.08-3.752,0-7.5A1.568,1.568,0,0,1,183.857,382.372Zm.16,1.357q1.358-.02,2.714.04a.557.557,0,0,1,.279.2,5.784,5.784,0,0,0,.439.8q-1.795.12-3.593.08A2.191,2.191,0,0,1,184.017,383.729Zm-.16,2.475q4.441-.058,8.862.12a44.344,44.344,0,0,1,.04,4.591.755.755,0,0,1-.2.12l-4.231.04q-2.206.019-4.391-.12Q183.818,388.588,183.857,386.2Z" transform="translate(-182.5 -382.361)" fill="#f09c0d" stroke="#f09c0d" stroke-width="0.3" fill-rule="evenodd" opacity="0.953"/>
    </g>
    <g id="Group_1453" data-name="Group 1453" transform="translate(28.8 33.598)">
      <path id="Path_546" data-name="Path 546" d="M378.076,386.092v5.349a1.748,1.748,0,0,1-1.038,1q-4.75.08-9.5,0a1.462,1.462,0,0,1-1-1.078q-.08-3.832,0-7.664a1.5,1.5,0,0,1,1.317-1.158,28.874,28.874,0,0,1,3.034,0,1.556,1.556,0,0,1,1.158.679q.514.848,1,1.716,2.041.009,4.072.16A1.943,1.943,0,0,1,378.076,386.092Zm-10.059-2.235q1.358-.02,2.714.04a3.615,3.615,0,0,1,.719,1.038q-1.8.06-3.593.04A2.227,2.227,0,0,1,368.017,383.857Zm-.16,2.475q4.4-.039,8.782.08a.356.356,0,0,1,.12.16,42.313,42.313,0,0,1-.04,4.471.356.356,0,0,1-.16.12l-4.231.04q-2.206.019-4.391-.12Q367.818,388.716,367.857,386.332Z" transform="translate(-366.5 -382.5)" fill="#f0a018" stroke="#f0a018" stroke-width="0.3" fill-rule="evenodd" opacity="0.961"/>
    </g>
  </g>
</svg>
