<svg id="Group_29" data-name="Group 29" xmlns="http://www.w3.org/2000/svg" width="51" height="23.619" viewBox="0 0 51 23.619">
  <path id="Icon_ionic-ios-arrow-back" data-name="Icon ionic-ios-arrow-back" d="M15.321,18l8.937-8.93a1.688,1.688,0,0,0-2.391-2.384L11.742,16.8a1.685,1.685,0,0,0-.049,2.327L21.86,29.32a1.688,1.688,0,0,0,2.391-2.384Z" transform="translate(-11.251 -6.194)" fill="#ff4131"/>
  <path id="Icon_ionic-ios-arrow-back-2" data-name="Icon ionic-ios-arrow-back" d="M20.683,18,11.746,9.07a1.688,1.688,0,0,1,2.391-2.384L24.262,16.8a1.685,1.685,0,0,1,.049,2.327L14.144,29.32a1.688,1.688,0,0,1-2.391-2.384Z" transform="translate(26.246 -6.194)" fill="#ff4131"/>
</svg>
