<svg id="Component_23_174" data-name="Component 23 – 174" xmlns="http://www.w3.org/2000/svg" width="147" height="102" viewBox="0 0 147 102">
  <g id="Rectangle_12" data-name="Rectangle 12" fill="#fff" stroke="rgba(112,112,112,0.4)" stroke-width="1" opacity="0.81">
    <rect width="147" height="102" stroke="none"/>
    <rect x="0.5" y="0.5" width="146" height="101" fill="none"/>
  </g>
  <g id="Group_35" data-name="Group 35" transform="translate(-117 -702)">
    <g id="Group_33" data-name="Group 33" transform="translate(126.617 740.937)">
      <path id="Path_35" data-name="Path 35" d="M2.34-.5H23.589a3.593,3.593,0,0,1,2.84,2.84V23.589a3.593,3.593,0,0,1-2.84,2.84H2.34A3.593,3.593,0,0,1-.5,23.589V2.34A3.593,3.593,0,0,1,2.34-.5Zm.21,1.63q10.414-.013,20.828.026a2,2,0,0,1,1.394,1.394q.053,5.759,0,11.518Q22.808,11.6,20.749,9.2a2.19,2.19,0,0,0-2.682.053l-7.39,7.39Q9.266,15.42,7.81,14.253a2.238,2.238,0,0,0-2.63.21q-1.989,1.752-4.024,3.445-.053-7.679,0-15.358A2.1,2.1,0,0,1,2.551,1.13Zm5,3.314a2.281,2.281,0,0,1,2.6,1.841,2.21,2.21,0,1,1-4.392.342A2.406,2.406,0,0,1,7.547,4.444Zm11.887,5.943a.866.866,0,0,1,.394.21l4.944,6.1q.053,3.34,0,6.68a2,2,0,0,1-1.394,1.394q-10.414.053-20.828,0a2,2,0,0,1-1.394-1.394q-.053-1.657,0-3.314l4.97-4.234a1.291,1.291,0,0,1,.526-.289q.161.058.316.131l3.261,2.735a.859.859,0,0,0,1.1-.053q3.837-3.916,7.732-7.784A1.187,1.187,0,0,1,19.434,10.387Z" transform="translate(0.5 0.5)" fill="#707070" stroke="#fff" stroke-width="1" fill-rule="evenodd" opacity="0.969"/>
    </g>
    <line id="Line_23" data-name="Line 23" x2="26.13" transform="translate(157.5 749.661)" fill="none" stroke="#707070" stroke-width="2"/>
    <line id="Line_25" data-name="Line 25" x2="19.473" transform="translate(157.5 762.661)" fill="none" stroke="#e7e7e7" stroke-width="2"/>
    <line id="Line_24" data-name="Line 24" x2="19.473" transform="translate(157.5 756.661)" fill="none" stroke="#e7e7e7" stroke-width="2"/>
  </g>
  <g id="Group_36" data-name="Group 36" transform="translate(-116 -702)">
    <g id="Group_34" data-name="Group 34" transform="translate(196.5 739.177)">
      <path id="Path_35-2" data-name="Path 35" d="M2.711-.5H26.738a4.063,4.063,0,0,1,3.211,3.211V26.738a4.063,4.063,0,0,1-3.211,3.211H2.711A4.063,4.063,0,0,1-.5,26.738V2.711A4.063,4.063,0,0,1,2.711-.5Zm.238,1.844q11.775-.015,23.55.03a2.257,2.257,0,0,1,1.576,1.576q.059,6.512,0,13.024-2.221-2.792-4.549-5.5a2.476,2.476,0,0,0-3.033.059l-8.356,8.356Q10.543,17.5,8.9,16.181a2.531,2.531,0,0,0-2.974.238q-2.248,1.981-4.549,3.9-.059-8.683,0-17.365A2.371,2.371,0,0,1,2.949,1.344ZM8.6,5.09a2.58,2.58,0,0,1,2.944,2.081,2.5,2.5,0,1,1-4.966.387A2.721,2.721,0,0,1,8.6,5.09Zm13.44,6.72a.979.979,0,0,1,.446.238l5.59,6.9q.059,3.776,0,7.553A2.257,2.257,0,0,1,26.5,28.076q-11.775.059-23.55,0A2.257,2.257,0,0,1,1.373,26.5q-.059-1.873,0-3.747l5.62-4.787a1.46,1.46,0,0,1,.595-.327q.182.066.357.149l3.687,3.092a.971.971,0,0,0,1.249-.059q4.339-4.428,8.742-8.8A1.342,1.342,0,0,1,22.039,11.81Z" transform="translate(0.5 0.5)" fill="#707070" stroke="#fff" stroke-width="1" fill-rule="evenodd" opacity="0.969"/>
    </g>
    <line id="Line_26" data-name="Line 26" x2="26.13" transform="translate(230.5 748.661)" fill="none" stroke="#707070" stroke-width="2"/>
    <line id="Line_28" data-name="Line 28" x2="19.473" transform="translate(230.5 761.661)" fill="none" stroke="#e7e7e7" stroke-width="2"/>
    <line id="Line_27" data-name="Line 27" x2="19.473" transform="translate(230.5 755.661)" fill="none" stroke="#e7e7e7" stroke-width="2"/>
  </g>
</svg>

