<svg xmlns="http://www.w3.org/2000/svg" width="39.418" height="39.417" viewBox="0 0 39.418 39.417">
  <g id="Group_1295" data-name="Group 1295" transform="translate(-79.9 -32.583)">
    <g id="image_18_" data-name="image (18)" transform="translate(79.9 32.583)">
      <g id="Group_27" data-name="Group 27">
        <path id="Path_35" data-name="Path 35" d="M3.657-.5h31.1a5.259,5.259,0,0,1,4.157,4.157v31.1a5.259,5.259,0,0,1-4.157,4.157H3.657A5.259,5.259,0,0,1-.5,34.76V3.657A5.259,5.259,0,0,1,3.657-.5Zm.308,2.387q15.243-.019,30.487.038a2.921,2.921,0,0,1,2.04,2.04q.077,8.43,0,16.86Q33.616,17.212,30.6,13.7a3.206,3.206,0,0,0-3.926.077L15.86,24.6q-2.064-1.795-4.2-3.5a3.277,3.277,0,0,0-3.849.308Q4.9,23.967,1.925,26.445q-.077-11.24,0-22.48A3.07,3.07,0,0,1,3.965,1.887Zm7.314,4.85A3.339,3.339,0,0,1,15.09,9.431a3.232,3.232,0,0,1-2.425,3.657q-3.518.357-4-3.156A3.522,3.522,0,0,1,11.279,6.737Zm17.4,8.7a1.267,1.267,0,0,1,.577.308l7.237,8.931q.077,4.889,0,9.777a2.921,2.921,0,0,1-2.04,2.04q-15.243.077-30.487,0a2.921,2.921,0,0,1-2.04-2.04q-.077-2.425,0-4.85L9.2,23.4a1.89,1.89,0,0,1,.77-.423q.236.085.462.192l4.773,4a1.257,1.257,0,0,0,1.617-.077q5.617-5.732,11.317-11.394A1.737,1.737,0,0,1,28.678,15.436Z" transform="translate(0.5 0.5)" fill="#daa30e" fill-rule="evenodd" opacity="0.969"/>
      </g>
      <g id="Group_28" data-name="Group 28" transform="translate(6.781 4.816)">
        <path id="Path_36" data-name="Path 36" d="M92.265,62.084a5.685,5.685,0,1,1-4.2,3.233A5.957,5.957,0,0,1,92.265,62.084Zm.308,2.387a3.523,3.523,0,0,0-2.618,3.195q.486,3.513,4,3.156a3.232,3.232,0,0,0,2.425-3.657A3.339,3.339,0,0,0,92.573,64.471Z" transform="translate(-87.575 -62.05)" fill="#daa30e" fill-rule="evenodd" opacity="0.963"/>
      </g>
    </g>
  </g>
</svg>
