<svg id="Component_21_175" data-name="Component 21 – 175" xmlns="http://www.w3.org/2000/svg" width="147" height="102" viewBox="0 0 147 102">
  <g id="Rectangle_12" data-name="Rectangle 12" fill="#fff" stroke="rgba(112,112,112,0.4)" stroke-width="1">
    <rect width="147" height="102" stroke="none"/>
    <rect x="0.5" y="0.5" width="146" height="101" fill="none"/>
  </g>
  <line id="Line_13" data-name="Line 13" x2="40.708" transform="translate(6.5 62.402)" fill="none" stroke="#707070" stroke-width="2"/>
  <line id="Line_17" data-name="Line 17" x2="40.708" transform="translate(54.5 62.402)" fill="none" stroke="#707070" stroke-width="2"/>
  <line id="Line_20" data-name="Line 20" x2="40.708" transform="translate(100.5 62.902)" fill="none" stroke="#707070" stroke-width="2"/>
  <line id="Line_15" data-name="Line 15" x2="34.588" transform="translate(6.662 75.402)" fill="none" stroke="#e7e7e7" stroke-width="2"/>
  <line id="Line_19" data-name="Line 19" x2="34.588" transform="translate(54.5 75.402)" fill="none" stroke="#e7e7e7" stroke-width="2"/>
  <line id="Line_22" data-name="Line 22" x2="34.588" transform="translate(100.5 75.902)" fill="none" stroke="#e7e7e7" stroke-width="2"/>
  <line id="Line_16" data-name="Line 16" x2="34.588" transform="translate(6.662 69.402)" fill="none" stroke="#e7e7e7" stroke-width="2"/>
  <line id="Line_18" data-name="Line 18" x2="34.588" transform="translate(54.5 69.402)" fill="none" stroke="#e7e7e7" stroke-width="2"/>
  <line id="Line_21" data-name="Line 21" x2="34.588" transform="translate(100.5 69.902)" fill="none" stroke="#e7e7e7" stroke-width="2"/>
  <g id="image_18_" data-name="image (18)" transform="translate(55.5 14.5)">
    <g id="Group_27" data-name="Group 27" transform="translate(-0.5 -0.5)">
      <path id="Path_35" data-name="Path 35" d="M2.711-.5H26.738a4.063,4.063,0,0,1,3.211,3.211V26.738a4.063,4.063,0,0,1-3.211,3.211H2.711A4.063,4.063,0,0,1-.5,26.738V2.711A4.063,4.063,0,0,1,2.711-.5Zm.238,1.844q11.775-.015,23.55.03a2.257,2.257,0,0,1,1.576,1.576q.06,6.512,0,13.024-2.221-2.792-4.549-5.5a2.476,2.476,0,0,0-3.033.059l-8.356,8.356Q10.543,17.5,8.9,16.181a2.531,2.531,0,0,0-2.974.238q-2.248,1.981-4.549,3.9-.059-8.683,0-17.365A2.371,2.371,0,0,1,2.949,1.344ZM8.6,5.09a2.58,2.58,0,0,1,2.944,2.081,2.5,2.5,0,1,1-4.966.387A2.721,2.721,0,0,1,8.6,5.09Zm13.44,6.72a.979.979,0,0,1,.446.238l5.59,6.9q.06,3.776,0,7.553A2.257,2.257,0,0,1,26.5,28.076q-11.775.06-23.55,0A2.257,2.257,0,0,1,1.373,26.5q-.059-1.873,0-3.747l5.62-4.787a1.46,1.46,0,0,1,.595-.327q.182.066.357.149l3.687,3.092a.971.971,0,0,0,1.249-.059q4.339-4.428,8.742-8.8A1.342,1.342,0,0,1,22.039,11.81Z" transform="translate(0.5 0.5)" fill="#666" stroke="#fff" stroke-width="1" fill-rule="evenodd" opacity="0.969"/>
    </g>
    <g id="Group_28" data-name="Group 28" transform="translate(4.738 3.22)">
      <path id="Path_36" data-name="Path 36" d="M91.2,62.077a4.391,4.391,0,1,1-3.241,2.5A4.6,4.6,0,0,1,91.2,62.077Zm.238,1.844a2.721,2.721,0,0,0-2.022,2.468A2.5,2.5,0,1,0,94.38,66,2.58,2.58,0,0,0,91.436,63.92Z" transform="translate(-87.575 -62.05)" fill="none" stroke="#fff" stroke-width="1" fill-rule="evenodd" opacity="0.963"/>
    </g>
  </g>
  <g id="image_18_2" data-name="image (18)" transform="translate(101.5 14.5)">
    <g id="Group_27-2" data-name="Group 27" transform="translate(-0.5 -0.5)">
      <path id="Path_35-2" data-name="Path 35" d="M2.711-.5H26.738a4.063,4.063,0,0,1,3.211,3.211V26.738a4.063,4.063,0,0,1-3.211,3.211H2.711A4.063,4.063,0,0,1-.5,26.738V2.711A4.063,4.063,0,0,1,2.711-.5Zm.238,1.844q11.775-.015,23.55.03a2.257,2.257,0,0,1,1.576,1.576q.06,6.512,0,13.024-2.221-2.792-4.549-5.5a2.476,2.476,0,0,0-3.033.059l-8.356,8.356Q10.543,17.5,8.9,16.181a2.531,2.531,0,0,0-2.974.238q-2.248,1.981-4.549,3.9-.059-8.683,0-17.365A2.371,2.371,0,0,1,2.949,1.344ZM8.6,5.09a2.58,2.58,0,0,1,2.944,2.081,2.5,2.5,0,1,1-4.966.387A2.721,2.721,0,0,1,8.6,5.09Zm13.44,6.72a.979.979,0,0,1,.446.238l5.59,6.9q.06,3.776,0,7.553A2.257,2.257,0,0,1,26.5,28.076q-11.775.06-23.55,0A2.257,2.257,0,0,1,1.373,26.5q-.059-1.873,0-3.747l5.62-4.787a1.46,1.46,0,0,1,.595-.327q.182.066.357.149l3.687,3.092a.971.971,0,0,0,1.249-.059q4.339-4.428,8.742-8.8A1.342,1.342,0,0,1,22.039,11.81Z" transform="translate(0.5 0.5)" fill="#666" stroke="#fff" stroke-width="1" fill-rule="evenodd" opacity="0.969"/>
    </g>
    <g id="Group_28-2" data-name="Group 28" transform="translate(4.738 3.22)">
      <path id="Path_36-2" data-name="Path 36" d="M91.2,62.077a4.391,4.391,0,1,1-3.241,2.5A4.6,4.6,0,0,1,91.2,62.077Zm.238,1.844a2.721,2.721,0,0,0-2.022,2.468A2.5,2.5,0,1,0,94.38,66,2.58,2.58,0,0,0,91.436,63.92Z" transform="translate(-87.575 -62.05)" fill="none" stroke="#fff" stroke-width="1" fill-rule="evenodd" opacity="0.963"/>
    </g>
  </g>
  <g id="image_18_3" data-name="image (18)" transform="translate(9.5 14.5)">
    <g id="Group_27-3" data-name="Group 27" transform="translate(-0.5 -0.5)">
      <path id="Path_35-3" data-name="Path 35" d="M2.711-.5H26.738a4.063,4.063,0,0,1,3.211,3.211V26.738a4.063,4.063,0,0,1-3.211,3.211H2.711A4.063,4.063,0,0,1-.5,26.738V2.711A4.063,4.063,0,0,1,2.711-.5Zm.238,1.844q11.775-.015,23.55.03a2.257,2.257,0,0,1,1.576,1.576q.06,6.512,0,13.024-2.221-2.792-4.549-5.5a2.476,2.476,0,0,0-3.033.059l-8.356,8.356Q10.543,17.5,8.9,16.181a2.531,2.531,0,0,0-2.974.238q-2.248,1.981-4.549,3.9-.059-8.683,0-17.365A2.371,2.371,0,0,1,2.949,1.344ZM8.6,5.09a2.58,2.58,0,0,1,2.944,2.081,2.5,2.5,0,1,1-4.966.387A2.721,2.721,0,0,1,8.6,5.09Zm13.44,6.72a.979.979,0,0,1,.446.238l5.59,6.9q.06,3.776,0,7.553A2.257,2.257,0,0,1,26.5,28.076q-11.775.06-23.55,0A2.257,2.257,0,0,1,1.373,26.5q-.059-1.873,0-3.747l5.62-4.787a1.46,1.46,0,0,1,.595-.327q.182.066.357.149l3.687,3.092a.971.971,0,0,0,1.249-.059q4.339-4.428,8.742-8.8A1.342,1.342,0,0,1,22.039,11.81Z" transform="translate(0.5 0.5)" fill="#666" stroke="#fff" stroke-width="1" fill-rule="evenodd" opacity="0.969"/>
    </g>
    <g id="Group_28-3" data-name="Group 28" transform="translate(4.738 3.22)">
      <path id="Path_36-3" data-name="Path 36" d="M91.2,62.077a4.391,4.391,0,1,1-3.241,2.5A4.6,4.6,0,0,1,91.2,62.077Zm.238,1.844a2.721,2.721,0,0,0-2.022,2.468A2.5,2.5,0,1,0,94.38,66,2.58,2.58,0,0,0,91.436,63.92Z" transform="translate(-87.575 -62.05)" fill="none" stroke="#fff" stroke-width="1" fill-rule="evenodd" opacity="0.963"/>
    </g>
  </g>
</svg>