<svg id="Component_6_174" data-name="Component 6 – 174" xmlns="http://www.w3.org/2000/svg" width="147" height="102" viewBox="0 0 147 102">
  <g id="Rectangle_12" data-name="Rectangle 12" fill="#fff" stroke="rgba(112,112,112,0.4)" stroke-width="1">
    <rect width="147" height="102" stroke="none"/>
    <rect x="0.5" y="0.5" width="146" height="101" fill="none"/>
  </g>
  <line id="Line_7" data-name="Line 7" x2="48" transform="translate(18.5 69.5)" fill="none" stroke="#707070" stroke-width="2"/>
  <line id="Line_12" data-name="Line 12" x2="48" transform="translate(82.957 69.5)" fill="none" stroke="#707070" stroke-width="2"/>
  <line id="Line_8" data-name="Line 8" x2="33" transform="translate(26.5 76.5)" fill="none" stroke="#e7e7e7" stroke-width="2"/>
  <line id="Line_10" data-name="Line 10" x2="33" transform="translate(90.957 76.5)" fill="none" stroke="#e7e7e7" stroke-width="2"/>
  <line id="Line_9" data-name="Line 9" x2="48" transform="translate(18.5 82.5)" fill="none" stroke="#e7e7e7" stroke-width="2"/>
  <line id="Line_11" data-name="Line 11" x2="48" transform="translate(82.957 82.5)" fill="none" stroke="#e7e7e7" stroke-width="2"/>
  <g id="image_18_" data-name="image (18)" transform="translate(21.328 20.949)">
    <g id="Group_27" data-name="Group 27" transform="translate(-0.5 -0.5)">
      <path id="Path_35" data-name="Path 35" d="M4.093-.5H38.458a5.811,5.811,0,0,1,4.593,4.593V38.458a5.811,5.811,0,0,1-4.593,4.593H4.093A5.811,5.811,0,0,1-.5,38.458V4.093A5.811,5.811,0,0,1,4.093-.5Zm.34,2.637q16.842-.021,33.684.043a3.228,3.228,0,0,1,2.254,2.254q.085,9.314,0,18.628-3.177-3.993-6.507-7.868a3.542,3.542,0,0,0-4.338.085L17.575,27.23q-2.281-1.983-4.636-3.87a3.62,3.62,0,0,0-4.253.34q-3.216,2.834-6.507,5.571-.085-12.419,0-24.838A3.392,3.392,0,0,1,4.434,2.137ZM12.514,7.5a3.69,3.69,0,0,1,4.211,2.977,3.571,3.571,0,0,1-2.679,4.04q-3.887.395-4.423-3.487A3.892,3.892,0,0,1,12.514,7.5Zm19.224,9.612a1.4,1.4,0,0,1,.638.34l8,9.867q.085,5.4,0,10.8a3.228,3.228,0,0,1-2.254,2.254q-16.842.085-33.684,0a3.228,3.228,0,0,1-2.254-2.254q-.085-2.679,0-5.359l8.038-6.847a2.089,2.089,0,0,1,.851-.468q.26.094.51.213l5.274,4.423a1.389,1.389,0,0,0,1.786-.085q6.206-6.333,12.5-12.589A1.919,1.919,0,0,1,31.738,17.108Z" transform="translate(0.5 0.5)" fill="rgba(102,102,102,0.6)" stroke="#fff" stroke-width="1" fill-rule="evenodd" opacity="0.969"/>
    </g>
    <g id="Group_28" data-name="Group 28" transform="translate(6.992 4.821)">
      <path id="Path_36" data-name="Path 36" d="M92.757,62.088a6.281,6.281,0,1,1-4.636,3.573A6.582,6.582,0,0,1,92.757,62.088Zm.34,2.637a3.892,3.892,0,0,0-2.892,3.53q.537,3.882,4.423,3.487a3.571,3.571,0,0,0,2.679-4.04A3.69,3.69,0,0,0,93.1,64.725Z" transform="translate(-87.575 -62.05)" fill="none" stroke="#fff" stroke-width="1" fill-rule="evenodd" opacity="0.963"/>
    </g>
  </g>
  <g id="image_18_2" data-name="image (18)" transform="translate(86.328 20.949)">
    <g id="Group_27-2" data-name="Group 27" transform="translate(-0.5 -0.5)">
      <path id="Path_35-2" data-name="Path 35" d="M4.093-.5H38.458a5.811,5.811,0,0,1,4.593,4.593V38.458a5.811,5.811,0,0,1-4.593,4.593H4.093A5.811,5.811,0,0,1-.5,38.458V4.093A5.811,5.811,0,0,1,4.093-.5Zm.34,2.637q16.842-.021,33.684.043a3.228,3.228,0,0,1,2.254,2.254q.085,9.314,0,18.628-3.177-3.993-6.507-7.868a3.542,3.542,0,0,0-4.338.085L17.575,27.23q-2.281-1.983-4.636-3.87a3.62,3.62,0,0,0-4.253.34q-3.216,2.834-6.507,5.571-.085-12.419,0-24.838A3.392,3.392,0,0,1,4.434,2.137ZM12.514,7.5a3.69,3.69,0,0,1,4.211,2.977,3.571,3.571,0,0,1-2.679,4.04q-3.887.395-4.423-3.487A3.892,3.892,0,0,1,12.514,7.5Zm19.224,9.612a1.4,1.4,0,0,1,.638.34l8,9.867q.085,5.4,0,10.8a3.228,3.228,0,0,1-2.254,2.254q-16.842.085-33.684,0a3.228,3.228,0,0,1-2.254-2.254q-.085-2.679,0-5.359l8.038-6.847a2.089,2.089,0,0,1,.851-.468q.26.094.51.213l5.274,4.423a1.389,1.389,0,0,0,1.786-.085q6.206-6.333,12.5-12.589A1.919,1.919,0,0,1,31.738,17.108Z" transform="translate(0.5 0.5)" fill="rgba(102,102,102,0.6)" stroke="#fff" stroke-width="1" fill-rule="evenodd" opacity="0.969"/>
    </g>
    <g id="Group_28-2" data-name="Group 28" transform="translate(6.992 4.821)">
      <path id="Path_36-2" data-name="Path 36" d="M92.757,62.088a6.281,6.281,0,1,1-4.636,3.573A6.582,6.582,0,0,1,92.757,62.088Zm.34,2.637a3.892,3.892,0,0,0-2.892,3.53q.537,3.882,4.423,3.487a3.571,3.571,0,0,0,2.679-4.04A3.69,3.69,0,0,0,93.1,64.725Z" transform="translate(-87.575 -62.05)" fill="none" stroke="#fff" stroke-width="1" fill-rule="evenodd" opacity="0.963"/>
    </g>
  </g>
</svg>
