<svg id="Component_24_177" data-name="Component 24 – 177" xmlns="http://www.w3.org/2000/svg" xmlns:xlink="http://www.w3.org/1999/xlink" width="147" height="102" viewBox="0 0 147 102">
  <defs>
    <clipPath id="clip-path">
      <rect width="122.38" height="41.974" fill="none"/>
    </clipPath>
  </defs>
  <g id="Rectangle_12" data-name="Rectangle 12" fill="#fff" stroke="rgba(112,112,112,0.4)" stroke-width="1" opacity="0.81">
    <rect width="147" height="102" stroke="none"/>
    <rect x="0.5" y="0.5" width="146" height="101" fill="none"/>
  </g>
  <g id="Repeat_Grid_16" data-name="Repeat Grid 16" transform="translate(11.999 30)" clip-path="url(#clip-path)">
    <g id="Group_37" data-name="Group 37" transform="translate(-126.367 -740.687)">
      <g id="Group_33" data-name="Group 33" transform="translate(126.617 740.937)">
        <path id="Path_35" data-name="Path 35" d="M1.507-.5H16.524a2.539,2.539,0,0,1,2.007,2.007V16.524a2.539,2.539,0,0,1-2.007,2.007H1.507A2.539,2.539,0,0,1-.5,16.524V1.507A2.539,2.539,0,0,1,1.507-.5ZM1.656.652q7.36-.009,14.72.019a1.41,1.41,0,0,1,.985.985q.037,4.07,0,8.14-1.388-1.745-2.844-3.438a1.548,1.548,0,0,0-1.9.037L7.4,11.618q-1-.867-2.026-1.691a1.582,1.582,0,0,0-1.859.149Q2.109,11.313.671,12.51.634,7.083.671,1.656A1.482,1.482,0,0,1,1.656.652ZM5.187,2.994a1.612,1.612,0,0,1,1.84,1.3,1.562,1.562,0,1,1-3.1.242A1.7,1.7,0,0,1,5.187,2.994Zm8.4,4.2a.612.612,0,0,1,.279.149l3.494,4.312q.037,2.36,0,4.721a1.41,1.41,0,0,1-.985.985q-7.36.037-14.72,0a1.41,1.41,0,0,1-.985-.985q-.037-1.171,0-2.342l3.513-2.992a.913.913,0,0,1,.372-.2q.114.041.223.093l2.3,1.933a.607.607,0,0,0,.781-.037q2.712-2.768,5.464-5.5A.839.839,0,0,1,13.588,7.194Z" transform="translate(0.5 0.5)" fill="#707070" stroke="#fff" stroke-width="0.5" fill-rule="evenodd" opacity="0.969"/>
      </g>
      <line id="Line_23" data-name="Line 23" x2="26.13" transform="translate(126.617 768.661)" fill="none" stroke="#707070" stroke-width="2"/>
      <line id="Line_25" data-name="Line 25" x2="19.473" transform="translate(126.617 781.661)" fill="none" stroke="#e7e7e7" stroke-width="2"/>
      <line id="Line_24" data-name="Line 24" x2="19.473" transform="translate(126.617 775.661)" fill="none" stroke="#e7e7e7" stroke-width="2"/>
    </g>
    <g id="Group_37-2" data-name="Group 37" transform="translate(-94.367 -740.687)">
      <g id="Group_33-2" data-name="Group 33" transform="translate(126.617 740.937)">
        <path id="Path_35-2" data-name="Path 35" d="M1.507-.5H16.524a2.539,2.539,0,0,1,2.007,2.007V16.524a2.539,2.539,0,0,1-2.007,2.007H1.507A2.539,2.539,0,0,1-.5,16.524V1.507A2.539,2.539,0,0,1,1.507-.5ZM1.656.652q7.36-.009,14.72.019a1.41,1.41,0,0,1,.985.985q.037,4.07,0,8.14-1.388-1.745-2.844-3.438a1.548,1.548,0,0,0-1.9.037L7.4,11.618q-1-.867-2.026-1.691a1.582,1.582,0,0,0-1.859.149Q2.109,11.313.671,12.51.634,7.083.671,1.656A1.482,1.482,0,0,1,1.656.652ZM5.187,2.994a1.612,1.612,0,0,1,1.84,1.3,1.562,1.562,0,1,1-3.1.242A1.7,1.7,0,0,1,5.187,2.994Zm8.4,4.2a.612.612,0,0,1,.279.149l3.494,4.312q.037,2.36,0,4.721a1.41,1.41,0,0,1-.985.985q-7.36.037-14.72,0a1.41,1.41,0,0,1-.985-.985q-.037-1.171,0-2.342l3.513-2.992a.913.913,0,0,1,.372-.2q.114.041.223.093l2.3,1.933a.607.607,0,0,0,.781-.037q2.712-2.768,5.464-5.5A.839.839,0,0,1,13.588,7.194Z" transform="translate(0.5 0.5)" fill="#707070" stroke="#fff" stroke-width="0.5" fill-rule="evenodd" opacity="0.969"/>
      </g>
      <line id="Line_23-2" data-name="Line 23" x2="26.13" transform="translate(126.617 768.661)" fill="none" stroke="#707070" stroke-width="2"/>
      <line id="Line_25-2" data-name="Line 25" x2="19.473" transform="translate(126.617 781.661)" fill="none" stroke="#e7e7e7" stroke-width="2"/>
      <line id="Line_24-2" data-name="Line 24" x2="19.473" transform="translate(126.617 775.661)" fill="none" stroke="#e7e7e7" stroke-width="2"/>
    </g>
    <g id="Group_37-3" data-name="Group 37" transform="translate(-62.367 -740.687)">
      <g id="Group_33-3" data-name="Group 33" transform="translate(126.617 740.937)">
        <path id="Path_35-3" data-name="Path 35" d="M1.507-.5H16.524a2.539,2.539,0,0,1,2.007,2.007V16.524a2.539,2.539,0,0,1-2.007,2.007H1.507A2.539,2.539,0,0,1-.5,16.524V1.507A2.539,2.539,0,0,1,1.507-.5ZM1.656.652q7.36-.009,14.72.019a1.41,1.41,0,0,1,.985.985q.037,4.07,0,8.14-1.388-1.745-2.844-3.438a1.548,1.548,0,0,0-1.9.037L7.4,11.618q-1-.867-2.026-1.691a1.582,1.582,0,0,0-1.859.149Q2.109,11.313.671,12.51.634,7.083.671,1.656A1.482,1.482,0,0,1,1.656.652ZM5.187,2.994a1.612,1.612,0,0,1,1.84,1.3,1.562,1.562,0,1,1-3.1.242A1.7,1.7,0,0,1,5.187,2.994Zm8.4,4.2a.612.612,0,0,1,.279.149l3.494,4.312q.037,2.36,0,4.721a1.41,1.41,0,0,1-.985.985q-7.36.037-14.72,0a1.41,1.41,0,0,1-.985-.985q-.037-1.171,0-2.342l3.513-2.992a.913.913,0,0,1,.372-.2q.114.041.223.093l2.3,1.933a.607.607,0,0,0,.781-.037q2.712-2.768,5.464-5.5A.839.839,0,0,1,13.588,7.194Z" transform="translate(0.5 0.5)" fill="#707070" stroke="#fff" stroke-width="0.5" fill-rule="evenodd" opacity="0.969"/>
      </g>
      <line id="Line_23-3" data-name="Line 23" x2="26.13" transform="translate(126.617 768.661)" fill="none" stroke="#707070" stroke-width="2"/>
      <line id="Line_25-3" data-name="Line 25" x2="19.473" transform="translate(126.617 781.661)" fill="none" stroke="#e7e7e7" stroke-width="2"/>
      <line id="Line_24-3" data-name="Line 24" x2="19.473" transform="translate(126.617 775.661)" fill="none" stroke="#e7e7e7" stroke-width="2"/>
    </g>
    <g id="Group_37-4" data-name="Group 37" transform="translate(-30.367 -740.687)">
      <g id="Group_33-4" data-name="Group 33" transform="translate(126.617 740.937)">
        <path id="Path_35-4" data-name="Path 35" d="M1.507-.5H16.524a2.539,2.539,0,0,1,2.007,2.007V16.524a2.539,2.539,0,0,1-2.007,2.007H1.507A2.539,2.539,0,0,1-.5,16.524V1.507A2.539,2.539,0,0,1,1.507-.5ZM1.656.652q7.36-.009,14.72.019a1.41,1.41,0,0,1,.985.985q.037,4.07,0,8.14-1.388-1.745-2.844-3.438a1.548,1.548,0,0,0-1.9.037L7.4,11.618q-1-.867-2.026-1.691a1.582,1.582,0,0,0-1.859.149Q2.109,11.313.671,12.51.634,7.083.671,1.656A1.482,1.482,0,0,1,1.656.652ZM5.187,2.994a1.612,1.612,0,0,1,1.84,1.3,1.562,1.562,0,1,1-3.1.242A1.7,1.7,0,0,1,5.187,2.994Zm8.4,4.2a.612.612,0,0,1,.279.149l3.494,4.312q.037,2.36,0,4.721a1.41,1.41,0,0,1-.985.985q-7.36.037-14.72,0a1.41,1.41,0,0,1-.985-.985q-.037-1.171,0-2.342l3.513-2.992a.913.913,0,0,1,.372-.2q.114.041.223.093l2.3,1.933a.607.607,0,0,0,.781-.037q2.712-2.768,5.464-5.5A.839.839,0,0,1,13.588,7.194Z" transform="translate(0.5 0.5)" fill="#707070" stroke="#fff" stroke-width="0.5" fill-rule="evenodd" opacity="0.969"/>
      </g>
      <line id="Line_23-4" data-name="Line 23" x2="26.13" transform="translate(126.617 768.661)" fill="none" stroke="#707070" stroke-width="2"/>
      <line id="Line_25-4" data-name="Line 25" x2="19.473" transform="translate(126.617 781.661)" fill="none" stroke="#e7e7e7" stroke-width="2"/>
      <line id="Line_24-4" data-name="Line 24" x2="19.473" transform="translate(126.617 775.661)" fill="none" stroke="#e7e7e7" stroke-width="2"/>
    </g>
  </g>
</svg>
