<svg id="Component_22_174" data-name="Component 22 – 174" xmlns="http://www.w3.org/2000/svg" width="147" height="102" viewBox="0 0 147 102">
  <g id="Rectangle_12" data-name="Rectangle 12" fill="#fff" stroke="rgba(112,112,112,0.4)" stroke-width="1">
    <rect width="147" height="102" stroke="none"/>
    <rect x="0.5" y="0.5" width="146" height="101" fill="none"/>
  </g>
  <g id="image_18_" data-name="image (18)" transform="translate(12.556 14.5)">
    <g id="Group_27" data-name="Group 27" transform="translate(-0.5 -0.5)">
      <path id="Path_35" data-name="Path 35" d="M4.973-.5H45.915a6.923,6.923,0,0,1,5.473,5.473V45.915a6.923,6.923,0,0,1-5.473,5.473H4.973A6.923,6.923,0,0,1-.5,45.915V4.973A6.923,6.923,0,0,1,4.973-.5Zm.405,3.142q20.066-.025,40.132.051A3.845,3.845,0,0,1,48.2,5.378q.1,11.1,0,22.194Q44.41,22.815,40.443,18.2a4.22,4.22,0,0,0-5.169.1L21.035,32.538q-2.717-2.363-5.523-4.611a4.313,4.313,0,0,0-5.067.405Q6.613,31.708,2.692,34.97q-.1-14.8,0-29.592A4.041,4.041,0,0,1,5.378,2.642Zm9.628,6.385a4.4,4.4,0,0,1,5.016,3.547,4.254,4.254,0,0,1-3.192,4.814q-4.631.47-5.27-4.155A4.637,4.637,0,0,1,15.006,9.026Zm22.9,11.452a1.668,1.668,0,0,1,.76.405L48.2,32.639q.1,6.435,0,12.871A3.845,3.845,0,0,1,45.51,48.2q-20.066.1-40.132,0A3.845,3.845,0,0,1,2.692,45.51q-.1-3.192,0-6.385l9.577-8.158a2.488,2.488,0,0,1,1.013-.557q.31.112.608.253l6.283,5.27a1.655,1.655,0,0,0,2.128-.1q7.394-7.546,14.9-15A2.287,2.287,0,0,1,37.909,20.478Z" transform="translate(0.5 0.5)" fill="#666" stroke="#fff" stroke-width="2" fill-rule="evenodd" opacity="0.969"/>
    </g>
    <g id="Group_28" data-name="Group 28" transform="translate(8.426 5.839)">
      <path id="Path_36" data-name="Path 36" d="M93.749,62.1a7.483,7.483,0,1,1-5.523,4.256A7.842,7.842,0,0,1,93.749,62.1Zm.405,3.142a4.637,4.637,0,0,0-3.446,4.206q.639,4.625,5.27,4.155a4.254,4.254,0,0,0,3.192-4.814A4.4,4.4,0,0,0,94.154,65.237Z" transform="translate(-87.575 -62.05)" fill="none" stroke="#fff" stroke-width="1" fill-rule="evenodd" opacity="0.963"/>
    </g>
  </g>
  <g id="image_18_2" data-name="image (18)" transform="translate(85.939 14.5)">
    <g id="Group_27-2" data-name="Group 27" transform="translate(-0.5 -0.5)">
      <path id="Path_35-2" data-name="Path 35" d="M3.156-.5H30.507a4.625,4.625,0,0,1,3.656,3.656V30.507a4.625,4.625,0,0,1-3.656,3.656H3.156A4.625,4.625,0,0,1-.5,30.507V3.156A4.625,4.625,0,0,1,3.156-.5Zm.271,2.1q13.4-.017,26.81.034a2.569,2.569,0,0,1,1.794,1.794q.068,7.413,0,14.827-2.529-3.178-5.179-6.262a2.819,2.819,0,0,0-3.453.068l-9.512,9.512q-1.815-1.578-3.69-3.08a2.881,2.881,0,0,0-3.385.271Q4.252,21.016,1.633,23.2q-.068-9.884,0-19.769A2.7,2.7,0,0,1,3.427,1.6ZM9.858,5.864a2.937,2.937,0,0,1,3.351,2.37,2.845,2.845,0,1,1-5.653.44A3.1,3.1,0,0,1,9.858,5.864Zm15.3,7.65a1.115,1.115,0,0,1,.508.271l6.364,7.853q.068,4.3,0,8.6a2.569,2.569,0,0,1-1.794,1.794q-13.4.068-26.81,0a2.569,2.569,0,0,1-1.794-1.794q-.068-2.133,0-4.265l6.4-5.45a1.662,1.662,0,0,1,.677-.372q.207.075.406.169l4.2,3.52a1.106,1.106,0,0,0,1.422-.068q4.939-5.041,9.952-10.02A1.528,1.528,0,0,1,25.159,13.514Z" transform="translate(0.5 0.5)" fill="#666" stroke="#fff" stroke-width="1" fill-rule="evenodd" opacity="0.969"/>
    </g>
    <g id="Group_28-2" data-name="Group 28" transform="translate(5.463 3.735)">
      <path id="Path_36-2" data-name="Path 36" d="M91.7,62.08a5,5,0,1,1-3.69,2.843A5.239,5.239,0,0,1,91.7,62.08Zm.271,2.1a3.1,3.1,0,0,0-2.3,2.81,2.845,2.845,0,1,0,5.653-.44A2.937,2.937,0,0,0,91.97,64.179Z" transform="translate(-87.575 -62.05)" fill="none" stroke="#fff" stroke-width="1" fill-rule="evenodd" opacity="0.963"/>
    </g>
  </g>
  <g id="image_18_3" data-name="image (18)" transform="translate(85.939 56.163)">
    <g id="Group_27-3" data-name="Group 27" transform="translate(-0.5 -0.5)">
      <path id="Path_35-3" data-name="Path 35" d="M3.156-.5H30.507a4.625,4.625,0,0,1,3.656,3.656V30.507a4.625,4.625,0,0,1-3.656,3.656H3.156A4.625,4.625,0,0,1-.5,30.507V3.156A4.625,4.625,0,0,1,3.156-.5Zm.271,2.1q13.4-.017,26.81.034a2.569,2.569,0,0,1,1.794,1.794q.068,7.413,0,14.827-2.529-3.178-5.179-6.262a2.819,2.819,0,0,0-3.453.068l-9.512,9.512q-1.815-1.578-3.69-3.08a2.881,2.881,0,0,0-3.385.271Q4.252,21.016,1.633,23.2q-.068-9.884,0-19.769A2.7,2.7,0,0,1,3.427,1.6ZM9.858,5.864a2.937,2.937,0,0,1,3.351,2.37,2.845,2.845,0,1,1-5.653.44A3.1,3.1,0,0,1,9.858,5.864Zm15.3,7.65a1.115,1.115,0,0,1,.508.271l6.364,7.853q.068,4.3,0,8.6a2.569,2.569,0,0,1-1.794,1.794q-13.4.068-26.81,0a2.569,2.569,0,0,1-1.794-1.794q-.068-2.133,0-4.265l6.4-5.45a1.662,1.662,0,0,1,.677-.372q.207.075.406.169l4.2,3.52a1.106,1.106,0,0,0,1.422-.068q4.939-5.041,9.952-10.02A1.528,1.528,0,0,1,25.159,13.514Z" transform="translate(0.5 0.5)" fill="#666" stroke="#fff" stroke-width="1" fill-rule="evenodd" opacity="0.969"/>
    </g>
    <g id="Group_28-3" data-name="Group 28" transform="translate(5.463 3.735)">
      <path id="Path_36-3" data-name="Path 36" d="M91.7,62.08a5,5,0,1,1-3.69,2.843A5.239,5.239,0,0,1,91.7,62.08Zm.271,2.1a3.1,3.1,0,0,0-2.3,2.81,2.845,2.845,0,1,0,5.653-.44A2.937,2.937,0,0,0,91.97,64.179Z" transform="translate(-87.575 -62.05)" fill="none" stroke="#fff" stroke-width="1" fill-rule="evenodd" opacity="0.963"/>
    </g>
  </g>
</svg>