<svg xmlns="http://www.w3.org/2000/svg" width="51.014" height="51.242" viewBox="0 0 51.014 51.242">
  <g id="package_1_" data-name="package (1)" transform="translate(-17.599 -15.437)">
    <g id="Group_1454" data-name="Group 1454" transform="translate(19.076 15.437)">
      <path id="Path_547" data-name="Path 547" d="M35.291,15.444q12.382-.027,24.764.053a1.01,1.01,0,0,1,.267.16L63.844,22.7q.107,12.382,0,24.764a1.009,1.009,0,0,1-.16.267q-7.992.186-16.011.16l-15.8-.053a1.01,1.01,0,0,1-.267-.16Q31.342,35.2,31.5,22.7l3.522-7.045A1.022,1.022,0,0,0,35.291,15.444Z" transform="translate(-31.442 -15.437)" fill="#231f20" fill-rule="evenodd"/>
    </g>
    <g id="Group_1455" data-name="Group 1455" transform="translate(21.324 17.152)">
      <path id="Path_548" data-name="Path 548" d="M55.062,31.5H63.6l-1.174,5.124q-4.964.027-9.927-.053Q53.8,34.043,55.062,31.5Z" transform="translate(-52.5 -31.5)" fill="#a87b4f" fill-rule="evenodd"/>
    </g>
    <g id="Group_1456" data-name="Group 1456" transform="translate(32.959 17.139)">
      <path id="Path_549" data-name="Path 549" d="M162.781,31.39a10.768,10.768,0,0,1,2.135.107l1.281,4.91a25.885,25.885,0,0,1-4.7,0Q162.166,33.9,162.781,31.39Z" transform="translate(-161.5 -31.377)" fill="#ea8500" fill-rule="evenodd"/>
    </g>
    <g id="Group_1457" data-name="Group 1457" transform="translate(38.189 17.145)">
      <path id="Path_550" data-name="Path 550" d="M210.5,31.444q4.27-.027,8.539.053l2.562,5.017q-4.963.08-9.927.053Z" transform="translate(-210.5 -31.438)" fill="#a87b4f" fill-rule="evenodd"/>
    </g>
    <g id="Group_1458" data-name="Group 1458" transform="translate(20.79 23.983)">
      <path id="Path_551" data-name="Path 551" d="M75.679,95.5q.027,7.685-.053,15.371a5.3,5.3,0,0,1-4.323,4.216q-11.9.08-23.8.053V95.5H57.747q-.027,4.8.053,9.607a.735.735,0,0,0,.747.64,30.517,30.517,0,0,0,3.469-1.6l3.1,1.548a.967.967,0,0,0,1.014-.267q.236-4.953.16-9.927Z" transform="translate(-47.5 -95.5)" fill="#bb9876" fill-rule="evenodd"/>
    </g>
    <g id="Group_1459" data-name="Group 1459" transform="translate(32.739 23.983)">
      <path id="Path_552" data-name="Path 552" d="M159.444,95.5h5.124q.027,4-.053,8.006a13.877,13.877,0,0,0-2.562-1.174,19.4,19.4,0,0,0-2.455,1.174Q159.417,99.5,159.444,95.5Z" transform="translate(-159.437 -95.5)" fill="#fe9711" fill-rule="evenodd"/>
    </g>
    <g id="Group_1460" data-name="Group 1460" transform="translate(20.79 23.983)">
      <path id="Path_553" data-name="Path 553" d="M75.679,95.5h.854v22.2H47.5V115.14q11.9.027,23.8-.053a5.3,5.3,0,0,0,4.323-4.216Q75.706,103.185,75.679,95.5Z" transform="translate(-47.5 -95.5)" fill="#b38b63" fill-rule="evenodd"/>
    </g>
    <g id="Group_1461" data-name="Group 1461" transform="translate(17.599 49.594)">
      <path id="Path_554" data-name="Path 554" d="M53.666,335.444q3.843-.027,7.685.053a.5.5,0,0,1,.374.374,7.724,7.724,0,0,1,.053,1.281q3.324-.076,6.618.16a1.009,1.009,0,0,1,.16.267q.027,3.2.053,6.4.025,3.323-.16,6.618a1.009,1.009,0,0,1-.267.16q-3.2.08-6.4.053a7.724,7.724,0,0,1-.053,1.281.5.5,0,0,1-.374.374q-3.843.107-7.685,0a.5.5,0,0,1-.374-.374,10.705,10.705,0,0,0-.16-1.494q-1.048.551-2.135,1.014-8.006.107-16.011,0-8.053-4.507-16.011-9.18a3.485,3.485,0,0,1,3.522-5.977q4.232,2.45,8.486,4.857a4.809,4.809,0,0,0,.907-.8,5.055,5.055,0,0,1,1.281-.534q6.771-1.84,13.556-3.629a2.7,2.7,0,0,1,1.067,0q2.718.693,5.444,1.334a15.483,15.483,0,0,1,.053-1.815A.746.746,0,0,1,53.666,335.444Z" transform="translate(-17.599 -335.437)" fill="#231f20" fill-rule="evenodd" opacity="0.995"/>
    </g>
    <g id="Group_1462" data-name="Group 1462" transform="translate(54.947 51.309)">
      <path id="Path_555" data-name="Path 555" d="M367.5,351.5h5.124v13.663H367.5Z" transform="translate(-367.5 -351.5)" fill="#006cf0" fill-rule="evenodd"/>
    </g>
    <g id="Group_1463" data-name="Group 1463" transform="translate(19.387 52.049)">
      <path id="Path_556" data-name="Path 556" d="M35.651,358.44a2.309,2.309,0,0,1,1.281.267q4.282,2.421,8.486,4.963A3.467,3.467,0,0,0,48.78,367.3a8.219,8.219,0,0,0,2.028-.374q4.581-1.26,9.18-2.455a.913.913,0,0,0,.48-1.228,1.011,1.011,0,0,0-.8-.427l-9.713,2.615a4.492,4.492,0,0,1-1.708.107,1.755,1.755,0,0,1-.8-2.615,1.649,1.649,0,0,1,.8-.587q6.966-1.935,13.983-3.683l5.977,1.388q.053,4.575-.107,9.126l-2.562,1.281q-7.579.107-15.157,0-7.765-4.443-15.477-8.966a2.109,2.109,0,0,1-.48-1.975A2.543,2.543,0,0,1,35.651,358.44Z" transform="translate(-34.354 -358.433)" fill="#fdbaaa" fill-rule="evenodd"/>
    </g>
    <g id="Group_1464" data-name="Group 1464" transform="translate(61.779 53.017)">
      <path id="Path_557" data-name="Path 557" d="M433.208,367.5v10.247H431.5V367.5Z" transform="translate(-431.5 -367.5)" fill="#005dce" fill-rule="evenodd"/>
    </g>
    <g id="Group_1465" data-name="Group 1465" transform="translate(63.486 53.017)">
      <path id="Path_558" data-name="Path 558" d="M447.5,367.5h3.416v10.247H447.5Z" transform="translate(-447.5 -367.5)" fill="#2487ff" fill-rule="evenodd"/>
    </g>
  </g>
</svg>
