<svg xmlns="http://www.w3.org/2000/svg" width="44.66" height="44.901" viewBox="0 0 44.66 44.901">
  <g id="Group_1294" data-name="Group 1294" transform="translate(20674.66 2542)">
    <path id="Path_1" data-name="Path 1" d="M44.621,7.416s-.168.243-.262.361a1.278,1.278,0,0,1-1.051.531c-1.889,0-3.778,0-5.667,0a1.234,1.234,0,0,1-1.266-1.26c0-.493,0-.985,0-1.5H8.3c0,.436,0,.879,0,1.324A1.359,1.359,0,0,1,6.866,8.307H5.536V36.39c.432,0,.877,0,1.321,0A1.363,1.363,0,0,1,8.3,37.822c0,1.656-.031,3.315.014,4.97a1.792,1.792,0,0,1-.973,1.882H.887A1.63,1.63,0,0,1,0,43c.048-1.727.052-3.458,0-5.186a1.354,1.354,0,0,1,1.428-1.43c.485.033.974.006,1.437.006V8.307a14.538,14.538,0,0,0-1.548.01A1.381,1.381,0,0,1,0,6.991C.046,5.118.014,3.243.016,1.368A1.249,1.249,0,0,1,1.374.023q2.745,0,5.491,0A1.357,1.357,0,0,1,8.3,1.463c0,.473,0,.947,0,1.415H36.373a13.682,13.682,0,0,0-.009-1.453,1.331,1.331,0,0,1,1.4-1.412c1.684.03,3.371.04,5.055,0a1.766,1.766,0,0,1,1.838.973l-.036,6.435Z" transform="translate(-20674.658 -2542.009)" fill="#674deb"/>
    <path id="Path_2" data-name="Path 2" d="M313.039,320.616a1.635,1.635,0,0,1-.888-1.672c.048-1.769.013-3.541.016-5.31a1.238,1.238,0,0,1,1.312-1.3c1.857,0,3.715,0,5.571,0a1.575,1.575,0,0,1,1.4.961v6.454l-.959.872H313.04Z" transform="translate(-20950.451 -2817.717)" fill="#674deb"/>
    <path id="Path_3" data-name="Path 3" d="M96.586,107.7c0-3.225.021-6.451-.016-9.676a1.389,1.389,0,0,1,1.415-1.4c6.435.017,12.869.009,19.3.01a1.361,1.361,0,0,1,1.443,1.429q0,9.653,0,19.308a1.343,1.343,0,0,1-1.415,1.413H97.968a1.247,1.247,0,0,1-1.383-1.407V107.7Zm9.766-2.871v.479c0,2.192.009,4.386,0,6.578a1.279,1.279,0,0,0,1.918,1.136,1.413,1.413,0,0,0,.7-1.329v-6.863c.465,0,.9-.012,1.328,0a1.361,1.361,0,0,0,1.449-1.266,1.31,1.31,0,0,0-1.315-1.341q-2.808-.047-5.618,0a1.252,1.252,0,0,0-1.248,1.411,1.3,1.3,0,0,0,1.349,1.192c.462,0,.926,0,1.44,0Z" transform="translate(-20759.98 -2627.134)" fill="#674deb"/>
    <path id="Path_4" data-name="Path 4" d="M336.14,99.405c0-.45.035-.9-.008-1.348a1.282,1.282,0,0,1,1.224-1.354,1.358,1.358,0,0,1,1.4,1.293c.021.941.028,1.885,0,2.826a1.373,1.373,0,0,1-1.444,1.294,1.288,1.288,0,0,1-1.164-1.322c0-.464,0-.927,0-1.392Z" transform="translate(-20971.635 -2627.207)" fill="#674deb"/>
    <path id="Path_5" data-name="Path 5" d="M336.128,171.262a12.654,12.654,0,0,0-.009-1.347,1.287,1.287,0,0,1,1.243-1.337,1.354,1.354,0,0,1,1.376,1.269c.026.956.035,1.914,0,2.869a1.364,1.364,0,0,1-1.46,1.274,1.3,1.3,0,0,1-1.146-1.338c0-.464,0-.927,0-1.392Z" transform="translate(-20971.623 -2690.71)" fill="#674deb"/>
    <path id="Path_6" data-name="Path 6" d="M336.216,243.05c0-.464,0-.927,0-1.392a1.26,1.26,0,0,1,1.083-1.264,1.374,1.374,0,0,1,1.436.879,2.624,2.624,0,0,1,.091.714q.016,1.239,0,2.479a1.431,1.431,0,0,1-1.1,1.327,1.225,1.225,0,0,1-1.435-.856,4.853,4.853,0,0,1-.078-1.192c-.009-.232,0-.464,0-.7Z" transform="translate(-20971.709 -2754.149)" fill="#674deb"/>
    <path id="Path_7" data-name="Path 7" d="M99.287,338.81c-.464,0-.927,0-1.391,0a1.282,1.282,0,0,1-1.274-1.166,1.258,1.258,0,0,1,1.169-1.439c1-.034,2-.034,3,0a1.354,1.354,0,0,1,1.243,1.356,1.374,1.374,0,0,1-1.355,1.251c-.464,0-.927,0-1.391,0Z" transform="translate(-20760.021 -2838.789)" fill="#674deb"/>
    <path id="Path_8" data-name="Path 8" d="M171.148,338.795c-.464,0-.927,0-1.391,0a1.306,1.306,0,0,1-.076-2.609c.97-.02,1.943-.042,2.912,0a1.287,1.287,0,0,1,1.287,1.3,1.35,1.35,0,0,1-1.341,1.3c-.464,0-.927,0-1.391,0Z" transform="translate(-20823.506 -2838.774)" fill="#674deb"/>
    <path id="Path_9" data-name="Path 9" d="M242.986,338.756c-.464,0-.927,0-1.391,0a1.284,1.284,0,0,1-1.257-1.183,1.264,1.264,0,0,1,1.188-1.423c.984-.027,1.973-.051,2.955,0a1.278,1.278,0,0,1,1.261,1.326,1.343,1.343,0,0,1-1.322,1.277c-.479,0-.956,0-1.435,0Z" transform="translate(-20886.998 -2838.736)" fill="#674deb"/>
  </g>
</svg>
