<svg xmlns="http://www.w3.org/2000/svg" width="20" height="20" viewBox="0 0 20 20" fill="none">
  <g clip-path="url(#clip0_1_27020)">
    <path d="M11.0146 0H1.65145C0.742498 0 -0.000976562 0.613069 -0.000976562 1.36245V18.6196C-0.000976562 19.3692 0.74257 19.982 1.65145 19.982H15.9717C16.8809 19.982 17.6241 19.3691 17.6241 18.6196V5.44976L13.7688 3.179L11.0146 0Z" fill="#0F9C57"/>
    <path d="M4.4751 7.29492V16.493H12.5883V7.29492H4.4751ZM8.02462 15.2241H5.48918V13.6384H8.02462V15.2241ZM8.02462 12.6869H5.48918V11.1006H8.02462V12.6869ZM8.02462 10.1491H5.48918V8.56353H8.02462V10.1491ZM11.574 15.2241H9.03836V13.6384H11.574V15.2241ZM11.574 12.6869H9.03836V11.1006H11.574V12.6869ZM11.574 10.1491H9.03836V8.56353H11.574V10.1491Z" fill="#F0F0F0"/>
    <mask id="mask0_1_27020" style="mask-type:luminance" maskUnits="userSpaceOnUse" x="11" y="5" width="7" height="6">
      <path d="M11.4873 5.04102H17.635V10.9796H11.4873V5.04102Z" fill="url(#paint0_linear_1_27020)"/>
    </mask>
    <g mask="url(#mask0_1_27020)">
      <path d="M11.498 5.05078L17.624 10.1009V5.44942L11.498 5.05078Z" fill="url(#paint1_linear_1_27020)"/>
    </g>
    <path d="M11.0142 0V4.08736C11.0142 4.84011 11.7538 5.44976 12.6665 5.44976H17.6237L11.0142 0Z" fill="#87CDAC"/>
    <path d="M1.65096 0C0.742009 0 -0.00146484 0.613069 -0.00146484 1.36251V1.47599C-0.00146484 0.726727 0.742082 0.113538 1.65096 0.113538H11.0141V5.99461e-05H1.65096V0Z" fill="white" fill-opacity="0.2"/>
    <path d="M15.9712 19.8683H1.65096C0.742009 19.8683 -0.00146484 19.2551 -0.00146484 18.5059V18.6192C-0.00146484 19.3688 0.742082 19.9816 1.65096 19.9816H15.9712C16.8804 19.9816 17.6237 19.3687 17.6237 18.6192V18.5059C17.6237 19.2551 16.8803 19.8683 15.9712 19.8683Z" fill="#263138" fill-opacity="0.2"/>
    <path d="M12.6665 5.44833C11.7538 5.44833 11.0142 4.83868 11.0142 4.08594V4.19942C11.0142 4.95216 11.7538 5.56181 12.6665 5.56181H17.6237V5.44833H12.6665Z" fill="#263138" fill-opacity="0.102"/>
    <mask id="mask1_1_27020" style="mask-type:luminance" maskUnits="userSpaceOnUse" x="-1" y="-1" width="19" height="21">
      <path d="M-0.012207 -0.00976562H17.6348V19.9902H-0.012207V-0.00976562Z" fill="url(#paint2_radial_1_27020)"/>
    </mask>
    <g mask="url(#mask1_1_27020)">
      <path d="M11.0146 0H1.65145C0.742498 0 -0.000976562 0.613069 -0.000976562 1.36251V18.6196C-0.000976562 19.3692 0.74257 19.982 1.65145 19.982H15.9717C16.8809 19.982 17.6241 19.3691 17.6241 18.6196V5.44976L11.0146 0Z" fill="url(#paint3_radial_1_27020)"/>
    </g>
  </g>
  <defs>
    <linearGradient id="paint0_linear_1_27020" x1="14.5612" y1="5.46446" x2="14.5612" y2="10.5562" gradientUnits="userSpaceOnUse">
      <stop stop-color="white" stop-opacity="0.02"/>
      <stop offset="1" stop-color="white" stop-opacity="0.2"/>
    </linearGradient>
    <linearGradient id="paint1_linear_1_27020" x1="14.561" y1="5.70205" x2="14.561" y2="10.3201" gradientUnits="userSpaceOnUse">
      <stop stop-color="#263138"/>
      <stop offset="1" stop-color="#263138"/>
    </linearGradient>
    <radialGradient id="paint2_radial_1_27020" cx="0" cy="0" r="1" gradientUnits="userSpaceOnUse" gradientTransform="translate(-0.00130139 -0.000773708) scale(0)">
      <stop stop-color="white" stop-opacity="0"/>
      <stop offset="1" stop-color="white" stop-opacity="0.098"/>
    </radialGradient>
    <radialGradient id="paint3_radial_1_27020" cx="0" cy="0" r="1" gradientUnits="userSpaceOnUse" gradientTransform="translate(0.703953 0.599485) scale(12.1174 9.99104)">
      <stop stop-color="white"/>
      <stop offset="1" stop-color="white"/>
    </radialGradient>
    <clipPath id="clip0_1_27020">
      <rect width="20" height="20" fill="white"/>
    </clipPath>
  </defs>
</svg>