<svg xmlns="http://www.w3.org/2000/svg" width="19" height="20" viewBox="0 0 19 20" fill="none">
  <path fill-rule="evenodd" clip-rule="evenodd" d="M7.43121 13.7664L12.5614 10.8607C12.7154 10.776 12.844 10.6511 12.9335 10.499C13.023 10.3469 13.0703 10.1734 13.0703 9.9965C13.0703 9.81965 13.023 9.64609 12.9335 9.49402C12.844 9.34195 12.7154 9.21692 12.5614 9.13223L7.54168 6.28844C7.39075 6.17943 7.21314 6.11408 7.02804 6.0995C6.84294 6.08495 6.6574 6.12165 6.49152 6.20573C6.32565 6.28979 6.18573 6.41804 6.08695 6.57651C5.98816 6.73497 5.93423 6.91767 5.93104 7.10481V12.8868C5.93419 13.0626 5.98229 13.2346 6.07064 13.3862C6.159 13.5379 6.28463 13.664 6.43545 13.7524C6.58625 13.8408 6.75713 13.8885 6.93156 13.8908C7.10599 13.8932 7.27808 13.8502 7.43121 13.766V13.7664ZM8.30164 5.05699L14.886 8.7865C15.0909 8.90212 15.3218 8.96276 15.5566 8.96276C15.7914 8.96276 16.0222 8.90212 16.2271 8.7865L16.2723 8.76091C16.4264 8.67625 16.555 8.55123 16.6446 8.39912C16.7342 8.247 16.7815 8.07335 16.7815 7.89642C16.7815 7.71949 16.7342 7.54584 16.6446 7.39371C16.555 7.24159 16.4264 7.11669 16.2723 7.03203L7.54168 2.08711C7.39061 1.97889 7.21314 1.91427 7.02835 1.90007C6.84355 1.88588 6.65841 1.92272 6.49281 2.0066C6.32722 2.09049 6.18743 2.21828 6.08844 2.37623C5.98947 2.53418 5.93504 2.71626 5.93104 2.90305V2.99878C5.93013 3.04011 5.91858 3.08054 5.89747 3.11599C5.87637 3.15145 5.84647 3.18069 5.81073 3.20095C5.77496 3.2212 5.7346 3.23168 5.69358 3.23141C5.65258 3.23114 5.61234 3.22018 5.57686 3.19945L4.62432 2.65995C4.58192 2.63657 4.54798 2.60026 4.52743 2.55616C4.50689 2.51209 4.50077 2.46255 4.50997 2.41472C4.60075 2.0208 4.78386 1.65448 5.04399 1.3466C5.30413 1.03871 5.63368 0.798258 6.00504 0.645228C6.3764 0.492196 6.77872 0.43106 7.17832 0.467081C7.57789 0.503102 7.96312 0.635229 8.30164 0.852254L17.0073 5.78363C17.3818 5.99009 17.6945 6.29403 17.913 6.66367C18.1315 7.03332 18.2477 7.45513 18.2495 7.88541C18.2514 8.31568 18.1388 8.73859 17.9235 9.11011C17.7082 9.48164 17.3981 9.78827 17.0254 9.99798L6.64716 15.8757C6.43119 15.996 6.25096 16.1722 6.12507 16.386C5.99919 16.5999 5.93219 16.8438 5.93104 17.0925C5.93497 17.2793 5.98933 17.4615 6.08828 17.6195C6.18723 17.7775 6.32702 17.9053 6.49263 17.9893C6.65823 18.0732 6.84341 18.1101 7.02824 18.0959C7.21307 18.0817 7.39057 18.0171 7.54168 17.9089L16.2723 12.9635C16.4263 12.8788 16.5548 12.7539 16.6443 12.6018C16.7339 12.4498 16.7812 12.2762 16.7812 12.0993C16.7812 11.9225 16.7339 11.7488 16.6443 11.5967C16.5548 11.4447 16.4263 11.3198 16.2723 11.2351L16.1863 11.1865C16.1506 11.1668 16.1208 11.1378 16.1001 11.1025C16.0794 11.0672 16.0684 11.027 16.0684 10.9859C16.0684 10.9449 16.0794 10.9046 16.1001 10.8694C16.1208 10.8341 16.1506 10.805 16.1863 10.7853L17.1375 10.2467C17.1804 10.2223 17.2296 10.2116 17.2786 10.2162C17.3276 10.2208 17.3741 10.2404 17.4118 10.2723C17.7057 10.5253 17.9342 10.8466 18.0777 11.2084C18.2211 11.5702 18.2752 11.9618 18.2353 12.3493C18.1954 12.7369 18.0626 13.1088 17.8485 13.4332C17.6344 13.7576 17.3452 14.0246 17.006 14.2114L8.30036 19.1428C7.92976 19.3829 7.50272 19.5196 7.0627 19.539C6.62268 19.5585 6.18539 19.4602 5.79531 19.254C5.40523 19.0478 5.07629 18.7412 4.84199 18.3652C4.6077 17.9893 4.47637 17.5575 4.46141 17.1138V5.25936C4.46034 5.04023 4.40134 4.82539 4.29051 4.6369C4.17967 4.4484 4.02099 4.29311 3.83082 4.18699C3.67971 4.07875 3.50223 4.01403 3.31739 3.99986C3.13256 3.98566 2.94739 4.02255 2.78178 4.10648C2.61616 4.19041 2.47637 4.31819 2.37743 4.47621C2.27849 4.63421 2.22412 4.81642 2.22019 5.00325V14.9892C2.22405 15.1761 2.27836 15.3583 2.37727 15.5164C2.47619 15.6745 2.61596 15.8024 2.78158 15.8864C2.94721 15.9704 3.13242 16.0072 3.31729 15.9931C3.50215 15.9789 3.67969 15.9143 3.83082 15.806C3.86628 15.7853 3.90648 15.7743 3.94744 15.774C3.98843 15.7737 4.02876 15.7841 4.0645 15.8043C4.10025 15.8245 4.13015 15.8538 4.15127 15.8892C4.17241 15.9246 4.18403 15.9649 4.18501 16.0062V17.0803C4.18458 17.1296 4.16873 17.1774 4.1397 17.217C4.11067 17.2566 4.06995 17.286 4.02339 17.3009C3.65485 17.4288 3.26148 17.467 2.87552 17.4122C2.48953 17.3574 2.12191 17.2113 1.80271 16.9858C1.48351 16.7603 1.22181 16.4618 1.03901 16.1148C0.856203 15.7678 0.757501 15.3821 0.750977 14.9892V5.00325C0.760476 4.5699 0.88136 4.14645 1.10181 3.7743C1.32226 3.40217 1.63475 3.09405 2.0087 2.88008C2.38265 2.66614 2.80527 2.55374 3.23525 2.55374C3.66525 2.55372 4.08786 2.66614 4.46182 2.88008C5.7422 3.60429 7.02214 4.32922 8.30164 5.05486V5.05699Z" fill="#2A0C64"/>
  <path d="M7.27832 11.8628C7.27807 11.9324 7.29688 12.0007 7.33266 12.0602C7.36845 12.1198 7.41983 12.1682 7.48115 12.2002C7.54248 12.2322 7.61136 12.2465 7.68023 12.2415C7.7491 12.2366 7.81531 12.2126 7.87151 12.1721L11.0898 10.299C11.1468 10.2658 11.1942 10.2182 11.2271 10.1607C11.2601 10.1032 11.2774 10.038 11.2774 9.97166C11.2774 9.90528 11.2601 9.84008 11.2271 9.78261C11.1942 9.72515 11.1468 9.67738 11.0898 9.64424L7.87151 7.77107C7.81527 7.7308 7.7491 7.70696 7.68028 7.7021C7.61146 7.69722 7.54266 7.7116 7.48139 7.74356C7.42012 7.77552 7.36873 7.82387 7.33292 7.88331C7.2971 7.94274 7.27821 8.01095 7.27832 8.08049V11.8628Z" fill="#18F040"/>
</svg>