<svg width="25" height="25" viewBox="0 0 25 25" fill="none" xmlns="http://www.w3.org/2000/svg">
<path d="M21.3438 18.7279H19.7917H18.2396M19.7917 17.207V18.7643V20.3216M23.9583 18.7487C23.9583 19.5299 23.7396 20.2695 23.3542 20.8945C23.1354 21.2695 22.8542 21.6029 22.5313 21.8737C21.8021 22.5299 20.8438 22.9154 19.7917 22.9154C18.5208 22.9154 17.3854 22.3424 16.6354 21.4466C16.6146 21.4154 16.5833 21.3945 16.5625 21.3633C16.4375 21.2174 16.3229 21.0612 16.2292 20.8945C15.8327 20.2491 15.6235 19.5062 15.625 18.7487C15.625 17.4362 16.2292 16.2591 17.1875 15.4987C17.9063 14.9258 18.8125 14.582 19.7917 14.582C20.8333 14.582 21.7708 14.957 22.5 15.5924C22.625 15.6862 22.7396 15.8008 22.8438 15.9154C23.5313 16.6654 23.9583 17.6549 23.9583 18.7487Z" stroke="#222222" stroke-width="2" stroke-miterlimit="10" stroke-linecap="round" stroke-linejoin="round"/>
<path d="M3.30206 7.75L12.5 13.0729L21.6354 7.78125M12.5 22.5104V13.0625" stroke="#222222" stroke-width="2" stroke-linecap="round" stroke-linejoin="round"/>
<path d="M22.5104 9.55078V15.4466C22.5104 15.4987 22.5104 15.5404 22.5 15.5924C21.7708 14.957 20.8333 14.582 19.7916 14.582C18.8125 14.582 17.9062 14.9258 17.1875 15.4987C16.6985 15.8873 16.3039 16.3815 16.0333 16.9444C15.7627 17.5073 15.6231 18.1242 15.625 18.7487C15.625 19.5299 15.8437 20.2695 16.2291 20.8945C16.3229 21.0612 16.4375 21.2174 16.5625 21.3633L14.6562 22.4154C13.4687 23.082 11.5312 23.082 10.3437 22.4154L4.78123 19.332C3.52081 18.6341 2.48956 16.8841 2.48956 15.4466V9.55078C2.48956 8.11328 3.52081 6.36328 4.78123 5.66536L10.3437 2.58203C11.5312 1.91536 13.4687 1.91536 14.6562 2.58203L20.2187 5.66536C21.4791 6.36328 22.5104 8.11328 22.5104 9.55078Z" stroke="#222222" stroke-width="2" stroke-linecap="round" stroke-linejoin="round"/>
</svg>
