<svg xmlns="http://www.w3.org/2000/svg" width="35" height="35" viewBox="0 0 35 35" fill="none">
  <path fill-rule="evenodd" clip-rule="evenodd" d="M23.2947 2.72563L15.2981 7.4418L24.6809 8.70054L32.3961 3.95017L23.2947 2.72563ZM25.1466 16.7202C30.2608 16.7202 34.406 20.8125 34.406 25.8605C34.406 30.9077 30.2608 35 25.1466 35C20.0325 35 15.8872 30.9077 15.8872 25.8605C15.8872 20.8125 20.0325 16.7202 25.1466 16.7202ZM14.1961 8.62871L14.1899 18.3231L10.6241 15.926L7.05752 17.9147L7.4803 7.72776L1.34386 6.90478V28.3157L13.7463 29.8987C13.921 30.3837 14.1254 30.8551 14.3597 31.3093L0.644554 29.5587C0.286238 29.5443 0 29.2522 0 28.8958V6.14749C0.0187129 5.87043 0.13099 5.67615 0.396436 5.5448L12.6471 0.0583336C12.7566 0.00907859 12.8911 -0.0107602 13.011 0.0056581L34.37 2.88161C34.7228 2.92197 34.9646 3.20792 34.9646 3.56502L35 19.2165C34.6036 18.6377 33.9209 17.8285 33.6187 17.3168V4.75877L25.5923 9.88472V13.9763C25.1442 13.96 24.6956 13.9682 24.2484 14.0009V9.97707L14.1961 8.62871ZM8.54624 6.53674L16.3204 1.78636L13.0228 1.34239L3.06614 5.80134L8.54624 6.53674Z" fill="#0B3D60"/>
</svg>