<svg xmlns="http://www.w3.org/2000/svg" width="49.437" height="44.821" viewBox="0 0 49.437 44.821">
    <path d="M52.885 43.849 33.486 9.672a5.32 5.32 0 0 0-9.252 0L4.837 43.849A5.32 5.32 0 0 0 9.463 51.8h38.795a5.321 5.321 0 0 0 4.627-7.946zm-21.374 1.666a3.356 3.356 0 0 1-2.292.871 3.443 3.443 0 0 1-2.318-.859 3.066 3.066 0 0 1-1.014-2.427 3.319 3.319 0 0 1 5.647-2.32 3.14 3.14 0 0 1 .979 2.32 3.094 3.094 0 0 1-1 2.42zm.861-22.007-.845 9.678a7.792 7.792 0 0 1-.623 2.773 1.894 1.894 0 0 1-1.8 1.117 1.836 1.836 0 0 1-1.788-1.1 9.118 9.118 0 0 1-.619-2.832l-.63-9.418c-.119-1.861-.178-3.16-.178-3.971a3.923 3.923 0 0 1 .948-2.779 3.286 3.286 0 0 1 2.5-1.023 2.593 2.593 0 0 1 2.57 1.363 8.162 8.162 0 0 1 .6 3.521 25.49 25.49 0 0 1-.135 2.671z" transform="translate(-4.141 -6.979)" style="fill:#f22"/>
</svg>