<svg width="45" height="45" viewBox="0 0 45 45" fill="none" xmlns="http://www.w3.org/2000/svg">
<g id="&#240;&#159;&#166;&#134; icon &#34;bye&#34;">
<path id="Vector" fill-rule="evenodd" clip-rule="evenodd" d="M27.071 12.6562C33.8664 12.6562 39.3751 18.1649 39.3751 24.9603C39.3751 31.7557 33.8664 37.2644 27.071 37.2644C20.7303 37.2644 15.5106 32.4679 14.8404 26.3054C13.5826 26.0438 12.3419 25.3797 11.3951 24.305C10.4421 23.2232 9.78931 21.7297 9.72412 19.8203L11.1499 19.7756C11.2025 21.3159 11.7175 22.5074 12.4686 23.36C13.1093 24.0874 13.924 24.5711 14.7687 24.8154C14.8465 18.0869 20.3241 12.6563 27.071 12.6563L27.071 12.6562Z" fill="#FFD54F"/>
<path id="Vector_2" fill-rule="evenodd" clip-rule="evenodd" d="M7.54066 14.7656C7.42133 12.2155 8.51232 12.03 9.38486 12.6563C9.14701 10.2963 10.478 10.3009 11.2291 11.9531C11.6655 9.46292 12.9263 9.71143 13.3596 11.25L13.1048 14.5061C14.5027 13.3295 15.5301 13.4821 16.147 14.5141C16.4124 15.376 14.4976 15.639 13.9708 16.728L13.5759 19.5912C13.3901 20.9388 8.45918 21.3652 7.79831 19.4754C7.42237 18.4004 4.09598 12.1298 7.54066 14.7656Z" fill="#FBC02D"/>
<g id="Group">
<path id="Vector_3" fill-rule="evenodd" clip-rule="evenodd" d="M32.8366 28.7205C30.1915 33.3019 23.7087 33.0663 21.1997 28.7205C21.5621 28.2269 21.9688 27.9636 22.4353 28.0104C24.4092 31.4292 29.5222 31.611 31.6009 28.0104C32.1592 27.9069 32.5803 28.1221 32.8366 28.7205Z" fill="#5D4037"/>
<path id="Vector_4" fill-rule="evenodd" clip-rule="evenodd" d="M22.8157 19.6486C23.4363 19.6486 23.9394 20.1518 23.9394 20.7724C23.9394 21.393 23.4363 21.8961 22.8157 21.8961C22.195 21.8961 21.6919 21.393 21.6919 20.7724C21.6919 20.1518 22.195 19.6486 22.8157 19.6486Z" fill="#5D4037"/>
<path id="Vector_5" fill-rule="evenodd" clip-rule="evenodd" d="M31.22 19.6486C31.8406 19.6486 32.3437 20.1518 32.3437 20.7724C32.3437 21.393 31.8406 21.8961 31.22 21.8961C30.5993 21.8961 30.0962 21.393 30.0962 20.7724C30.0962 20.1518 30.5993 19.6486 31.22 19.6486Z" fill="#5D4037"/>
</g>
<path id="Vector_6" d="M11.4943 15.1095H11.3722L11.25 11.9531L11.4943 15.1095Z" fill="#F9A825"/>
<path id="Vector_7" d="M9.64351 15.8298H9.52136L9.39917 12.6735L9.64351 15.8298Z" fill="#F9A825"/>
<path id="Vector_8" d="M7.89768 16.5997H7.77549L7.51538 14.7464L7.89768 16.5997Z" fill="#F9A825"/>
</g>
</svg>
