<svg xmlns="http://www.w3.org/2000/svg" width="22.404" height="21.4" viewBox="0 0 22.404 21.4">
    <g data-name="5038513_appointment_calendar_date_event_schedule_icon">
        <path data-name="Line 409" transform="translate(2.704 8.7)" style="fill:none;stroke:#000;stroke-linecap:round;stroke-linejoin:round;stroke-width:1.4px" d="M0 0h19"/>
        <path data-name="Path 23850" d="M7.409 4.5H4.463A2.085 2.085 0 0 0 2.5 6.695v13.167a2.085 2.085 0 0 0 1.963 2.195h16.923a2.085 2.085 0 0 0 1.963-2.195V6.695A2.085 2.085 0 0 0 21.386 4.5h-1.329" transform="translate(-1.793 -1.356)" style="fill:none;stroke:#000;stroke-linecap:round;stroke-linejoin:round;stroke-width:1.4px"/>
        <path data-name="Line 410" transform="translate(15.704 .7)" style="fill:none;stroke:#000;stroke-linecap:round;stroke-linejoin:round;stroke-width:1.4px" d="M0 0v5"/>
        <path data-name="Line 411" transform="translate(5.704 .7)" style="fill:none;stroke:#000;stroke-linecap:round;stroke-linejoin:round;stroke-width:1.4px" d="M0 0v5"/>
        <path data-name="Line 412" transform="translate(8.388 3.128)" style="fill:none;stroke:#000;stroke-linecap:round;stroke-linejoin:round;stroke-width:1.4px" d="M0 .015 7.637 0"/>
        <path data-name="Path 23851" d="M7.25 13.024a.274.274 0 0 1 .549 0" transform="translate(-1.331 -.554)" style="fill:none;stroke:#000;stroke-linecap:round;stroke-linejoin:round;stroke-width:1.4px"/>
        <path data-name="Path 23852" d="M7.8 13a.274.274 0 0 1-.549 0" transform="translate(-1.331 -.529)" style="fill:none;stroke:#000;stroke-linecap:round;stroke-linejoin:round;stroke-width:1.4px"/>
        <path data-name="Path 23853" d="M12.3 13a.274.274 0 0 1-.549 0" transform="translate(-.893 -.529)" style="fill:none;stroke:#000;stroke-linecap:round;stroke-linejoin:round;stroke-width:1.4px"/>
        <path data-name="Path 23854" d="M11.75 13.024a.274.274 0 1 1 .549 0" transform="translate(-.893 -.554)" style="fill:none;stroke:#000;stroke-linecap:round;stroke-linejoin:round;stroke-width:1.4px"/>
        <path data-name="Path 23855" d="M16.8 13a.274.274 0 0 1-.549 0" transform="translate(-.455 -.529)" style="fill:none;stroke:#000;stroke-linecap:round;stroke-linejoin:round;stroke-width:1.4px"/>
        <path data-name="Path 23856" d="M16.25 13.024a.274.274 0 0 1 .549 0" transform="translate(-.455 -.554)" style="fill:none;stroke:#000;stroke-linecap:round;stroke-linejoin:round;stroke-width:1.4px"/>
        <path data-name="Path 23857" d="M7.8 17a.274.274 0 0 1-.549 0" transform="translate(-1.331 -.14)" style="fill:none;stroke:#000;stroke-linecap:round;stroke-linejoin:round;stroke-width:1.4px"/>
        <path data-name="Path 23858" d="M7.25 17.024a.274.274 0 0 1 .549 0" transform="translate(-1.331 -.165)" style="fill:none;stroke:#000;stroke-linecap:round;stroke-linejoin:round;stroke-width:1.4px"/>
        <path data-name="Path 23859" d="M12.3 17a.274.274 0 0 1-.549 0" transform="translate(-.893 -.14)" style="fill:none;stroke:#000;stroke-linecap:round;stroke-linejoin:round;stroke-width:1.4px"/>
        <path data-name="Path 23860" d="M11.75 17.024a.274.274 0 1 1 .549 0" transform="translate(-.893 -.165)" style="fill:none;stroke:#000;stroke-linecap:round;stroke-linejoin:round;stroke-width:1.4px"/>
        <path data-name="Path 23861" d="M16.8 17a.274.274 0 0 1-.549 0" transform="translate(-.455 -.14)" style="fill:none;stroke:#000;stroke-linecap:round;stroke-linejoin:round;stroke-width:1.4px"/>
        <path data-name="Path 23862" d="M16.25 17.024a.274.274 0 0 1 .549 0" transform="translate(-.455 -.165)" style="fill:none;stroke:#000;stroke-linecap:round;stroke-linejoin:round;stroke-width:1.4px"/>
    </g>
</svg>
