<svg xmlns="http://www.w3.org/2000/svg" width="46" height="46" viewBox="0 0 46 46"><defs><style>.a{fill:#f2f2f2;}.b{fill:#fc5050;}</style></defs><g transform="translate(-1273 -446)"><rect class="a" width="46" height="46" rx="5" transform="translate(1273 446)"/><path class="b" d="M72.674,356.275a1.621,1.621,0,0,1,0-2.293l6.285-6.286a.976.976,0,0,0-1.38-1.38L71.294,352.6a1.621,1.621,0,0,1-2.293,0l-6.288-6.287a.976.976,0,0,0-1.38,1.38l6.287,6.287a1.621,1.621,0,0,1,0,2.293l-6.287,6.287a.976.976,0,1,0,1.38,1.38L69,357.655a1.621,1.621,0,0,1,2.293,0l6.285,6.286a.976.976,0,0,0,1.38-1.38Z" transform="translate(1225.854 113.872)"/></g></svg>