<svg width="15" height="14" viewBox="0 0 15 14" fill="none" xmlns="http://www.w3.org/2000/svg">
<path fill-rule="evenodd" clip-rule="evenodd" d="M9.9577 1.08736L6.75908 2.96883L10.5121 3.471L13.5982 1.57588L9.9577 1.08736ZM10.6984 6.67037C12.7441 6.67037 14.4022 8.30294 14.4022 10.3168C14.4022 12.3303 12.7441 13.9629 10.6984 13.9629C8.6528 13.9629 6.99472 12.3303 6.99472 10.3168C6.99472 8.30294 8.6528 6.67037 10.6984 6.67037ZM9.74479 9.80233L10.2967 10.3116L11.5645 9.04363C11.6881 8.92 11.7663 8.82038 11.9191 8.97513L12.4147 9.47538C12.5778 9.63394 12.5694 9.72701 12.4159 9.87438L10.5798 11.6486C10.2565 11.9614 10.3125 11.9802 9.98431 11.6598L8.91007 10.6085C8.84159 10.5354 8.84935 10.462 8.9242 10.3885L9.49945 9.80124C9.58677 9.71118 9.6558 9.71882 9.74479 9.80233ZM6.31829 3.44234L6.3158 7.30981L4.88947 6.35352L3.46287 7.14688L3.63198 3.08291L1.17743 2.7546V11.2963L6.13837 11.9278C6.20823 12.1213 6.29001 12.3093 6.38372 12.4905L0.897712 11.7921C0.754386 11.7864 0.639893 11.6699 0.639893 11.5277V2.45248C0.647378 2.34195 0.692288 2.26444 0.798465 2.21204L5.69869 0.0232716C5.74249 0.00362182 5.79628 -0.00429269 5.84424 0.00225724L14.3878 1.14959C14.5289 1.16569 14.6256 1.27977 14.6256 1.42223L14.6398 7.66623C14.4812 7.43535 14.2081 7.11249 14.0872 6.90835V1.89846L10.8767 3.94341V5.57571C10.6975 5.56919 10.518 5.57247 10.3392 5.58553V3.98025L6.31829 3.44234ZM4.05835 2.60777L7.16798 0.712653L5.84895 0.535531L1.86634 2.31439L4.05835 2.60777Z" fill="#222222"/>
<path fill-rule="evenodd" clip-rule="evenodd" d="M10.7507 6.61404C12.8987 6.61404 14.6398 8.26737 14.6398 10.3072C14.6398 12.3467 12.8987 14 10.7507 14C8.60308 14 6.86206 12.3467 6.86206 10.3072C6.86206 8.26737 8.60308 6.61404 10.7507 6.61404Z" fill="#F84141"/>
<path fill-rule="evenodd" clip-rule="evenodd" d="M9.06756 9.62716C9.01246 9.57606 8.96155 9.53169 8.92933 9.48763L8.9348 9.49252L9.72169 10.2398L9.71686 10.2441L9.06756 9.62716ZM12.5412 9.12042L12.6018 9.17918C12.79 9.35574 12.7803 9.45917 12.6031 9.6238L11.8172 10.3698L11.6799 10.2398L12.4703 9.48885C12.6205 9.34962 12.6505 9.25384 12.5412 9.12042ZM12.5509 11.0755L12.6031 11.125C12.7803 11.2894 12.79 11.3928 12.6018 11.5697L12.0289 12.1269C11.8526 12.2995 11.7627 12.1887 11.6196 12.0507L10.8334 11.3041L10.0423 12.0553C9.86927 12.2239 9.76004 12.2331 9.57411 12.0544L8.98733 11.5103C8.96058 11.4855 8.9406 11.4629 8.92578 11.4414L9.44135 11.9194C9.6276 12.0981 9.73651 12.089 9.90988 11.9206L10.7006 11.1694L11.4869 11.9161C11.6299 12.0541 11.7198 12.1645 11.8961 11.9919L12.469 11.4347C12.6227 11.2906 12.6447 11.1951 12.5509 11.0755Z" fill="#D13327"/>
<path fill-rule="evenodd" clip-rule="evenodd" d="M8.93506 9.49254C8.78973 9.35668 8.67309 9.2713 8.85482 9.10361L9.44161 8.55985C9.62786 8.38114 9.73677 8.39002 9.90981 8.55862L10.7009 9.30986L11.4871 8.56321C11.6302 8.42521 11.7201 8.31443 11.8964 8.48702L12.4693 9.04425C12.6575 9.22112 12.6478 9.32455 12.4706 9.48918L11.6801 10.2395L12.4706 10.9901C12.6478 11.1547 12.6575 11.2582 12.4693 11.4347L11.8964 11.992C11.7201 12.1646 11.6302 12.0541 11.4871 11.9161L10.7009 11.1694L9.90981 11.9207C9.73677 12.089 9.62786 12.0982 9.44161 11.9194L8.85482 11.3754C8.67309 11.208 8.78973 11.1226 8.93506 10.9868L9.72195 10.2395L8.93506 9.49254Z" fill="white"/>
</svg>
