<svg width="19" height="14" viewBox="0 0 19 14" fill="none" xmlns="http://www.w3.org/2000/svg">
<g clip-path="url(#clip0_1352_35621)">
<path d="M1.05333 1.02883C0.755263 1.02883 0.5 0.794213 0.5 0.508587C0.5 0.234621 0.755263 0 1.05333 0H2.4993C2.51356 0 2.5421 0 2.55637 0C3.0669 0.0131154 3.52035 0.103466 3.90245 0.324971C4.32736 0.572707 4.6397 0.95014 4.80935 1.50973C4.80935 1.52285 4.80935 1.53596 4.82362 1.54908L4.96472 2.06932H10.357C9.28041 4.42573 10.2444 7.61424 13.2505 8.47694H6.83401C7.03219 9.15457 7.23038 9.51889 7.49991 9.68794C7.82652 9.88321 8.39254 9.89633 9.34224 9.88321H9.35651H15.7619C16.0742 9.88321 16.3136 10.1178 16.3136 10.3918C16.3136 10.6774 16.0584 10.8989 15.7619 10.8989H9.35651C8.18008 10.912 7.4571 10.8858 6.87682 10.5346C6.28226 10.1703 5.96992 9.54512 5.65758 8.41137L3.75975 1.80993C3.75975 1.79681 3.75975 1.79681 3.74549 1.7837C3.65987 1.49662 3.51876 1.30134 3.32058 1.19788C3.12239 1.08129 2.85286 1.02883 2.54052 1.02883C2.52625 1.02883 2.51198 1.02883 2.49771 1.02883H1.05333ZM14.1019 11.4993C14.8534 11.4993 15.4622 12.0589 15.4622 12.7497C15.4622 13.4404 14.8534 14 14.1019 14C13.3503 14 12.7415 13.4404 12.7415 12.7497C12.7431 12.0604 13.3519 11.4993 14.1019 11.4993ZM8.13728 11.4993C8.8888 11.4993 9.49762 12.0589 9.49762 12.7497C9.49762 13.4404 8.8888 14 8.13728 14C7.38576 14 6.77693 13.4404 6.77693 12.7497C6.77693 12.0604 7.38576 11.4993 8.13728 11.4993Z" fill="#F84141"/>
<path fill-rule="evenodd" clip-rule="evenodd" d="M14.9312 0.76944C16.9019 0.76944 18.5001 2.23837 18.5001 4.04976C18.5001 5.86114 16.9019 7.33007 14.9312 7.33007C10.2381 7.33007 10.2381 0.76944 14.9312 0.76944Z" fill="#F84141"/>
</g>
<path d="M13.4552 2.78479L16.3456 5.59493M13.4552 5.59493L16.3456 2.78479" stroke="white" stroke-width="0.5" stroke-linecap="round" stroke-linejoin="round"/>
<defs>
<clipPath id="clip0_1352_35621">
<rect width="18" height="14" fill="white" transform="translate(0.5)"/>
</clipPath>
</defs>
</svg>
