<svg width="18" height="18" viewBox="0 0 18 18" fill="none" xmlns="http://www.w3.org/2000/svg">
<path id="Vector" d="M1.77692 1.02692H0.75V0.75H2.42906L3.06166 2.09594L3.26422 2.52692H3.74042H16.8808C16.9175 2.52692 16.9527 2.54151 16.9787 2.56748C17.0046 2.59344 17.0192 2.62866 17.0192 2.66538C17.0192 2.67319 17.0161 2.70904 16.9871 2.78131L13.8268 8.49282C13.8266 8.49311 13.8265 8.49341 13.8263 8.49371C13.6505 8.80832 13.309 9.02308 12.9271 9.02308H6.30808H5.86546L5.65151 9.41055L4.86046 10.8432C4.75498 11.0203 4.73181 11.1999 4.73181 11.3279C4.73181 11.5857 4.83423 11.833 5.01653 12.0153L5.01653 12.0153C5.19885 12.1976 5.44611 12.3 5.70392 12.3H15.2423V12.5769H5.33077C5.05841 12.5769 4.79721 12.4687 4.60462 12.2761C4.41204 12.0836 4.30385 11.8224 4.30385 11.55C4.30385 11.3691 4.35012 11.1986 4.42591 11.0555L5.63113 8.88435L5.81824 8.54727L5.65302 8.19894L2.45456 1.45551L2.25128 1.02692H1.77692ZM13.1885 15.9923C13.1885 15.4203 13.6434 14.9654 14.2154 14.9654C14.7809 14.9654 15.2423 15.4228 15.2423 15.9923C15.2423 16.2647 15.1341 16.5259 14.9415 16.7185C14.7489 16.911 14.4877 17.0192 14.2154 17.0192C13.943 17.0192 13.6818 16.911 13.4892 16.7185C13.2967 16.5259 13.1885 16.2647 13.1885 15.9923ZM4.30385 15.9923C4.30385 15.4203 4.75879 14.9654 5.33077 14.9654C5.89631 14.9654 6.35769 15.4228 6.35769 15.9923C6.35769 16.2647 6.2495 16.5259 6.05691 16.7185C5.86433 16.911 5.60312 17.0192 5.33077 17.0192C5.05841 17.0192 4.79721 16.911 4.60463 16.7185C4.41204 16.5259 4.30385 16.2647 4.30385 15.9923Z" fill="#0B3D60" stroke="#0B3D60" stroke-width="1.5"/>
</svg>
