<svg width="18" height="18" viewBox="0 0 18 18" fill="none" xmlns="http://www.w3.org/2000/svg">
<path id="Vector" d="M14.2154 14.2154C13.2292 14.2154 12.4385 15.0061 12.4385 15.9923C12.4385 16.4636 12.6257 16.9155 12.9589 17.2488C13.2921 17.582 13.7441 17.7692 14.2154 17.7692C14.6867 17.7692 15.1386 17.582 15.4719 17.2488C15.8051 16.9155 15.9923 16.4636 15.9923 15.9923C15.9923 15.0061 15.1927 14.2154 14.2154 14.2154ZM0 0V1.77692H1.77692L4.97538 8.52035L3.76708 10.6971C3.63381 10.9458 3.55385 11.239 3.55385 11.55C3.55385 12.0213 3.74106 12.4732 4.07429 12.8065C4.40753 13.1397 4.8595 13.3269 5.33077 13.3269H15.9923V11.55H5.70392C5.64501 11.55 5.58852 11.5266 5.54686 11.4849C5.50521 11.4433 5.48181 11.3868 5.48181 11.3279C5.48181 11.2835 5.49069 11.2479 5.50846 11.2213L6.30808 9.77308H12.9271C13.5935 9.77308 14.1798 9.39992 14.4819 8.85796L17.6626 3.10962C17.7248 2.96746 17.7692 2.81642 17.7692 2.66538C17.7692 2.42975 17.6756 2.20377 17.509 2.03715C17.3424 1.87053 17.1164 1.77692 16.8808 1.77692H3.74042L2.90527 0H0ZM5.33077 14.2154C4.34458 14.2154 3.55385 15.0061 3.55385 15.9923C3.55385 16.4636 3.74106 16.9155 4.07429 17.2488C4.40753 17.582 4.8595 17.7692 5.33077 17.7692C5.80204 17.7692 6.254 17.582 6.58724 17.2488C6.92048 16.9155 7.10769 16.4636 7.10769 15.9923C7.10769 15.0061 6.30808 14.2154 5.33077 14.2154Z" fill="#222222" fill-opacity="0.5"/>
</svg>
