<svg xmlns="http://www.w3.org/2000/svg" width="14.392" height="14.393" viewBox="0 0 14.392 14.393"><defs><style>.a{fill:#666;}</style></defs><g transform="translate(-11.108 -11.236)"><g transform="translate(11.108 11.236)"><path class="a" d="M15.934,11.236h-2.92a1.909,1.909,0,0,0-1.906,1.906v2.92a1.909,1.909,0,0,0,1.906,1.906h2.92a1.909,1.909,0,0,0,1.906-1.906v-2.92a1.909,1.909,0,0,0-1.906-1.906Zm0,7.66h-2.92A1.909,1.909,0,0,0,11.108,20.8v2.92a1.909,1.909,0,0,0,1.906,1.906h2.92a1.909,1.909,0,0,0,1.906-1.906V20.8A1.909,1.909,0,0,0,15.934,18.9Zm7.659,0h-2.92A1.908,1.908,0,0,0,18.768,20.8v2.92a1.908,1.908,0,0,0,1.906,1.906h2.92A1.909,1.909,0,0,0,25.5,23.722V20.8A1.909,1.909,0,0,0,23.594,18.9Zm.866,4.826a.866.866,0,0,1-.866.866h-2.92a.866.866,0,0,1-.866-.866V20.8a.866.866,0,0,1,.866-.866h2.92a.866.866,0,0,1,.866.866Z" transform="translate(-11.108 -11.236)"/></g><path class="a" d="M3.393,6.787A3.394,3.394,0,1,1,6.787,3.393,3.4,3.4,0,0,1,3.393,6.787ZM3.38,4.208h0l.879.627a.135.135,0,0,0,.079.026A.139.139,0,0,0,4.453,4.8a.141.141,0,0,0,.016-.126l-.374-1,.873-.625a.137.137,0,0,0-.079-.248h-1L3.509,1.8a.137.137,0,0,0-.257,0L2.874,2.807h-1a.137.137,0,0,0-.079.248l.873.625-.374,1a.137.137,0,0,0,.209.159l.879-.627Z" transform="translate(18.713 11.254)"/></g></svg>