<svg xmlns="http://www.w3.org/2000/svg" width="15" height="15" viewBox="0 0 15 15" fill="none">
  <path d="M13.5186 9.21875C13.5186 9.775 13.3686 10.3 13.0936 10.75C12.8302 11.1892 12.4573 11.5526 12.0115 11.8046C11.5656 12.0565 11.0619 12.1885 10.5498 12.1875C9.9623 12.1875 9.4123 12.0125 8.9498 11.7062C8.5623 11.4687 8.24355 11.1375 8.0123 10.75C7.7373 10.3 7.58105 9.775 7.58105 9.21875C7.58105 7.58125 8.9123 6.25 10.5498 6.25C10.7748 6.25 10.9936 6.275 11.1998 6.325C11.8579 6.4715 12.4463 6.8381 12.8679 7.36423C13.2895 7.89036 13.519 8.54455 13.5186 9.21875Z" stroke="#222222" stroke-miterlimit="10" stroke-linecap="round" stroke-linejoin="round"/>
  <path d="M9.39355 9.21855L10.1248 9.9498L11.7061 8.4873" stroke="#222222" stroke-linecap="round" stroke-linejoin="round"/>
  <path d="M12.9309 2.5125V3.9C12.9309 4.40625 12.6121 5.0375 12.2996 5.35625L11.1996 6.325C10.9867 6.27434 10.7685 6.24916 10.5496 6.25C8.91211 6.25 7.58086 7.58125 7.58086 9.21875C7.58086 9.775 7.73711 10.3 8.01211 10.75C8.24336 11.1375 8.56211 11.4687 8.94961 11.7062V11.9187C8.94961 12.3 8.69961 12.8062 8.38086 12.9937L7.49961 13.5625C6.68086 14.0687 5.54336 13.5 5.54336 12.4875V9.14375C5.54336 8.7 5.28711 8.13125 5.03711 7.81875L2.63711 5.29375C2.32461 4.975 2.06836 4.40625 2.06836 4.03125V2.575C2.06836 1.81875 2.63711 1.25 3.33086 1.25H11.6684C12.3621 1.25 12.9309 1.81875 12.9309 2.5125Z" stroke="#222222" stroke-miterlimit="10" stroke-linecap="round" stroke-linejoin="round"/>
</svg>