<svg xmlns="http://www.w3.org/2000/svg" width="14.298" height="16.261" viewBox="0 0 14.298 16.261"><defs><style>.a{fill:#666;}</style></defs><g transform="translate(-1.324 -0.925)"><g transform="translate(1.324 0.925)"><path class="a" d="M2.4,289.459a.186.186,0,0,0-.135.057l-.93.994-.014,12.931a2.391,2.391,0,0,0,2.49,2.277l11.012,0c-1.375,0-2.832-1.015-2.832-2.272l.013-12.932-.932-.994a.188.188,0,0,0-.27,0l-.795.85a.19.19,0,0,1-.271,0l-.8-.851a.188.188,0,0,0-.27,0l-.795.85a.19.19,0,0,1-.271,0l-.8-.851a.188.188,0,0,0-.27,0l-.793.85a.19.19,0,0,1-.271,0l-.8-.85a.188.188,0,0,0-.27,0l-.795.85a.19.19,0,0,1-.271,0l-.8-.851a.183.183,0,0,0-.135-.057Zm6.381,3.579a.359.359,0,0,1,.337.2.305.305,0,0,1-.079.359l-4.262,3.9a.378.378,0,0,1-.347.091.342.342,0,0,1-.255-.233.307.307,0,0,1,.1-.317l4.262-3.9a.372.372,0,0,1,.245-.1Zm-3.9.324a.653.653,0,1,1,0,1.3.653.653,0,1,1,0-1.3Zm3.557,2.6a.653.653,0,1,1-.711.65A.683.683,0,0,1,8.438,295.963ZM3.1,298.892h7.114v.65H3.1Zm0,1.951h7.114v.65H3.1Z" transform="translate(-1.324 -289.459)"/><path class="a" d="M5.555,294.611l1.587.007v.662a.794.794,0,1,1-1.587,0Z" transform="translate(7.156 -279.815)"/></g></g></svg>