<svg width="90" height="90" viewBox="0 0 90 90" fill="none" xmlns="http://www.w3.org/2000/svg">
<g id="&#240;&#159;&#166;&#134; icon &#34;Chat Help&#34;">
<g id="Ellipse 163" filter="url(#filter0_d_392_905)">
<circle cx="45" cy="45" r="35" fill="#0B3D60"/>
</g>
<path id="Vector" d="M45 24C56.5979 24 66 33.4012 66 44.9982C66 56.5951 56.5979 65.9965 45 65.9965C41.6016 65.9965 38.3174 65.1872 35.367 63.6615L27.3328 65.9026C25.9365 66.2925 24.4884 65.4768 24.0985 64.0806C23.9695 63.6186 23.9695 63.13 24.0986 62.6684L26.3407 54.641C24.8114 51.6883 24 48.4006 24 44.9982C24 33.4012 33.402 24 45 24ZM45 27.1497C35.1417 27.1497 27.15 35.1408 27.15 44.9982C27.15 48.0841 27.9328 51.0529 29.4034 53.6862L29.7197 54.2526L27.383 62.6187L35.7549 60.2833L36.3209 60.5989C38.9521 62.0658 41.9176 62.8467 45 62.8467C54.8582 62.8467 62.85 54.8556 62.85 44.9982C62.85 35.1408 54.8582 27.1497 45 27.1497ZM45 52.3476C46.1598 52.3476 47.1 53.2877 47.1 54.4474C47.1 55.6072 46.1598 56.5473 45 56.5473C43.8402 56.5473 42.9 55.6072 42.9 54.4474C42.9 53.2877 43.8402 52.3476 45 52.3476ZM45 33.9742C48.1895 33.9742 50.775 36.5595 50.775 39.7487C50.775 41.8712 50.1503 43.0538 48.5677 44.7013L48.2136 45.0619C46.9076 46.3677 46.575 46.9223 46.575 48.148C46.575 49.0177 45.8698 49.7228 45 49.7228C44.1302 49.7228 43.425 49.0177 43.425 48.148C43.425 46.0255 44.0498 44.8428 45.6323 43.1953L45.9864 42.8348C47.2924 41.5289 47.625 40.9743 47.625 39.7487C47.625 38.299 46.4498 37.1239 45 37.1239C43.6409 37.1239 42.5231 38.1567 42.3887 39.4803L42.375 39.7487C42.375 40.6184 41.6698 41.3235 40.8 41.3235C39.9302 41.3235 39.225 40.6184 39.225 39.7487C39.225 36.5595 41.8105 33.9742 45 33.9742Z" fill="white"/>
</g>
<defs>
<filter id="filter0_d_392_905" x="0" y="0" width="90" height="90" filterUnits="userSpaceOnUse" color-interpolation-filters="sRGB">
<feFlood flood-opacity="0" result="BackgroundImageFix"/>
<feColorMatrix in="SourceAlpha" type="matrix" values="0 0 0 0 0 0 0 0 0 0 0 0 0 0 0 0 0 0 127 0" result="hardAlpha"/>
<feOffset/>
<feGaussianBlur stdDeviation="5"/>
<feComposite in2="hardAlpha" operator="out"/>
<feColorMatrix type="matrix" values="0 0 0 0 0 0 0 0 0 0 0 0 0 0 0 0 0 0 0.25 0"/>
<feBlend mode="normal" in2="BackgroundImageFix" result="effect1_dropShadow_392_905"/>
<feBlend mode="normal" in="SourceGraphic" in2="effect1_dropShadow_392_905" result="shape"/>
</filter>
</defs>
</svg>
