<svg width="18" height="14" viewBox="0 0 18 14" fill="none" xmlns="http://www.w3.org/2000/svg">
<g clip-path="url(#clip0_1352_35573)">
<path d="M0.553334 1.02883C0.255263 1.02883 0 0.794213 0 0.508587C0 0.234621 0.255263 0 0.553334 0H1.9993C2.01356 0 2.0421 0 2.05637 0C2.5669 0.0131154 3.02035 0.103466 3.40245 0.324971C3.82736 0.572707 4.1397 0.95014 4.30935 1.50973C4.30935 1.52285 4.30935 1.53596 4.32362 1.54908L4.46472 2.06932H9.85695C8.78041 4.42573 9.74438 7.61424 12.7505 8.47694H6.33401C6.53219 9.15457 6.73038 9.51889 6.99991 9.68794C7.32652 9.88321 7.89254 9.89633 8.84224 9.88321H8.85651H15.2619C15.5742 9.88321 15.8136 10.1178 15.8136 10.3918C15.8136 10.6774 15.5584 10.8989 15.2619 10.8989H8.85651C7.68008 10.912 6.9571 10.8858 6.37682 10.5346C5.78226 10.1703 5.46992 9.54512 5.15758 8.41137L3.25975 1.80993C3.25975 1.79681 3.25975 1.79681 3.24549 1.7837C3.15987 1.49662 3.01876 1.30134 2.82058 1.19788C2.62239 1.08129 2.35286 1.02883 2.04052 1.02883C2.02625 1.02883 2.01198 1.02883 1.99771 1.02883H0.553334ZM13.6019 11.4993C14.3534 11.4993 14.9622 12.0589 14.9622 12.7497C14.9622 13.4404 14.3534 14 13.6019 14C12.8503 14 12.2415 13.4404 12.2415 12.7497C12.2431 12.0604 12.8519 11.4993 13.6019 11.4993ZM7.63728 11.4993C8.3888 11.4993 8.99762 12.0589 8.99762 12.7497C8.99762 13.4404 8.3888 14 7.63728 14C6.88576 14 6.27693 13.4404 6.27693 12.7497C6.27693 12.0604 6.88576 11.4993 7.63728 11.4993Z" fill="#F59E0B"/>
<path fill-rule="evenodd" clip-rule="evenodd" d="M14.4312 0.76944C16.4019 0.76944 18.0001 2.23837 18.0001 4.04976C18.0001 5.86114 16.4019 7.33007 14.4312 7.33007C9.73812 7.33007 9.73812 0.76944 14.4312 0.76944ZM12.852 4.13719C12.8996 3.88217 13.2167 3.73936 13.4672 3.8778C13.4894 3.89091 13.5116 3.90549 13.5322 3.92152L13.5338 3.92297C13.6463 4.02207 13.7716 4.12553 13.8953 4.22609L14.0031 4.31352L15.2715 3.09087C15.3476 3.01801 15.4031 2.96992 15.5172 2.9466C15.9057 2.86791 16.1799 3.30509 15.9057 3.57177L14.3233 5.10045C14.1743 5.24617 13.9079 5.25929 13.7478 5.11939C13.6559 5.04216 13.556 4.96201 13.4561 4.8804C13.2817 4.7405 13.1041 4.59769 12.9582 4.45779C12.8695 4.3791 12.8314 4.24649 12.852 4.13719Z" fill="#F59E0B"/>
</g>
<defs>
<clipPath id="clip0_1352_35573">
<rect width="18" height="14" fill="white"/>
</clipPath>
</defs>
</svg>
