<svg xmlns="http://www.w3.org/2000/svg" width="18.197" height="18.199" viewBox="0 0 18.197 18.199"><defs><style>.a{fill:#fc5050;}</style></defs><path class="a" d="M72.674,356.275a1.621,1.621,0,0,1,0-2.293l6.285-6.286a.976.976,0,0,0-1.38-1.38L71.294,352.6a1.621,1.621,0,0,1-2.293,0l-6.288-6.287a.976.976,0,0,0-1.38,1.38l6.287,6.287a1.621,1.621,0,0,1,0,2.293l-6.287,6.287a.976.976,0,1,0,1.38,1.38L69,357.655a1.621,1.621,0,0,1,2.293,0l6.285,6.286a.976.976,0,0,0,1.38-1.38Z" transform="translate(-61.047 -346.029)"/></svg>