<svg width="38" height="35" viewBox="0 0 38 35" fill="none" xmlns="http://www.w3.org/2000/svg">
<path d="M19.8847 9.01336L19.9776 9.04115L19.9842 9.03349C20.246 9.06197 20.4973 8.89956 20.5742 8.63933C21.2131 6.48737 23.2262 4.98394 25.4683 4.98394C25.7747 4.98394 26.0225 4.73493 26.0225 4.42869C26.0225 4.12243 25.7746 3.87344 25.4683 3.87344C22.6452 3.87344 20.2734 5.75768 19.5118 8.323C19.4245 8.61668 19.5913 8.92565 19.8847 9.01336Z" fill="#0B3D60" stroke="#F9FFF9" stroke-width="0.3"/>
<path d="M31.1278 24.2864H28.7023C28.4791 24.2864 28.2981 24.1049 28.2981 23.8812C28.2981 23.6574 28.4791 23.4759 28.7023 23.4759H31.1278C34.4713 23.4759 37.1916 20.7489 37.1916 17.3972C37.1916 14.0456 34.4713 11.3185 31.1278 11.3185H31.0695C30.9523 11.3185 30.8408 11.2676 30.764 11.1787C30.6872 11.0899 30.6525 10.972 30.6693 10.8557C30.7054 10.6033 30.7236 10.3497 30.7236 10.1028C30.7236 7.19806 28.3659 4.83457 25.4682 4.83457C24.341 4.83457 23.2659 5.18771 22.3592 5.85607C22.16 6.00283 21.877 5.9377 21.7618 5.71799C19.1939 0.816266 12.4869 0.158014 9.00969 4.42209C7.54487 6.21848 6.96932 8.5553 7.43051 10.8328C7.48134 11.0844 7.28931 11.3188 7.03434 11.3188H6.87235C3.52891 11.3188 0.808547 14.0459 0.808547 17.3975C0.808547 20.7492 3.52891 23.4762 6.87235 23.4762H9.29784C9.52105 23.4762 9.7021 23.6577 9.7021 23.8815C9.7021 24.1052 9.52106 24.2867 9.29784 24.2867H6.87235C3.08302 24.2867 0 21.1962 0 17.3975C0 13.7054 2.91234 10.6823 6.55501 10.5155C6.21284 8.15264 6.86716 5.76921 8.38367 3.90917C12.1065 -0.656505 19.2412 -0.144754 22.2571 4.9463C23.2193 4.34161 24.3203 4.0244 25.4681 4.0244C28.9788 4.0244 31.7606 7.01976 31.5172 10.5193C35.1263 10.7222 38 13.7294 38 17.3972C38 21.1962 34.9172 24.2864 31.1278 24.2864Z" fill="#0B3D60"/>
<path d="M8.68789 23.6528C8.68789 29.3217 13.2885 33.9341 18.9444 33.9341C24.6003 33.9341 29.2008 29.3216 29.2008 23.6528C29.2008 17.9838 24.6003 13.3715 18.9444 13.3715C13.2884 13.3715 8.68789 17.9839 8.68789 23.6528ZM9.79659 23.6528C9.79659 18.596 13.9008 14.4822 18.9444 14.4822C23.9879 14.4822 28.0921 18.5959 28.0921 23.6528C28.0921 28.7096 23.9879 32.8234 18.9444 32.8234C13.9008 32.8234 9.79659 28.7096 9.79659 23.6528Z" fill="#0B3D60" stroke="#F9FFF9" stroke-width="0.3"/>
<path d="M18.6859 27.7294C18.6859 27.9757 18.8853 28.176 19.1319 28.176C19.3784 28.176 19.5779 27.9759 19.5779 27.7294V20.0154C19.5779 19.7691 19.3785 19.5687 19.1319 19.5687C18.8853 19.5687 18.6859 19.7691 18.6859 20.0154V27.7294Z" fill="#0B3D60" stroke="#0B3D60" stroke-width="0.3"/>
<path d="M19.1305 20.6494L21.1827 22.7066C21.2696 22.7938 21.3842 22.8376 21.4981 22.8376L19.1305 20.6494ZM19.1305 20.6494L17.0784 22.7065L17.0783 22.7066L19.1305 20.6494ZM21.8136 22.7066C21.9876 22.5322 21.9876 22.2496 21.8136 22.0752L19.4459 19.7017C19.2718 19.5271 18.989 19.5269 18.8149 19.7018L21.8136 22.7066ZM21.8136 22.7066C21.7264 22.7942 21.6118 22.8376 21.4981 22.8376L21.8136 22.7066Z" fill="#0B3D60" stroke="#0B3D60" stroke-width="0.3"/>
</svg>
