<svg xmlns="http://www.w3.org/2000/svg" width="22" height="22" viewBox="0 0 22 22" fill="none">
  <path d="M20.6252 1.40305L20.6116 1.38835L20.597 1.37479C20.0167 0.839164 19.3145 0.5 18.5 0.5H3.5C2.6528 0.5 1.94272 0.834548 1.38863 1.38863C0.788124 1.98914 0.5 2.70182 0.5 3.5V14.75C0.5 15.5728 0.778853 16.2917 1.3884 16.8616C1.95831 17.4711 2.67718 17.75 3.5 17.75H6.75V20.5312C6.75 20.7646 6.80867 21.0314 7.01363 21.2364C7.20675 21.4295 7.46326 21.5 7.67969 21.5C7.68271 21.5 7.68595 21.5 7.6894 21.5C7.74138 21.5001 7.84042 21.5003 7.94003 21.4822C8.04711 21.4627 8.18706 21.4174 8.31287 21.3063L13.042 17.75H18.5C19.2982 17.75 20.0109 17.4619 20.6114 16.8614C21.1655 16.3073 21.5 15.5972 21.5 14.75V3.5C21.5 2.68554 21.1608 1.9833 20.6252 1.40305ZM9 16V15.5H8.5H3.5C3.26371 15.5 3.08414 15.4239 2.95512 15.2949C2.82609 15.1659 2.75 14.9863 2.75 14.75V3.5C2.75 3.31118 2.82064 3.12866 2.95512 2.99418C3.1124 2.83689 3.3029 2.75 3.5 2.75H18.5C18.6499 2.75 18.8416 2.82998 19.0058 2.99418C19.17 3.15838 19.25 3.35012 19.25 3.5V14.75C19.25 14.9471 19.1631 15.1376 19.0058 15.2949C18.8713 15.4294 18.6888 15.5 18.5 15.5H12.4453H12.2782L12.1447 15.6005L9 17.9668V16Z" fill="#606770" stroke="white"/>
</svg>