<svg width="15" height="14" viewBox="0 0 15 14" fill="none" xmlns="http://www.w3.org/2000/svg">
<path d="M7.5 0C3.643 0 0.5 3.143 0.5 7C0.5 10.857 3.643 14 7.5 14C11.357 14 14.5 10.857 14.5 7C14.5 3.143 11.357 0 7.5 0ZM10.846 5.39L6.877 9.359C6.779 9.457 6.646 9.513 6.506 9.513C6.366 9.513 6.233 9.457 6.135 9.359L4.154 7.378C3.951 7.175 3.951 6.839 4.154 6.636C4.357 6.433 4.693 6.433 4.896 6.636L6.506 8.246L10.104 4.648C10.307 4.445 10.643 4.445 10.846 4.648C11.049 4.851 11.049 5.18 10.846 5.39Z" fill="#23A26D"/>
</svg>
