<svg xmlns="http://www.w3.org/2000/svg" width="25" height="25" viewBox="0 0 25 25" fill="none">
  <path fill-rule="evenodd" clip-rule="evenodd" d="M14.4572 0.824398C14.2024 0.563444 13.8979 0.356083 13.5617 0.214507C13.2255 0.0729319 12.8645 0 12.4997 0C12.1349 0 11.7738 0.0729319 11.4377 0.214507C11.1015 0.356083 10.797 0.563444 10.5421 0.824398L9.33961 2.05568C9.08098 2.32069 8.77126 2.53046 8.42919 2.67227C8.08712 2.81408 7.71983 2.88499 7.34956 2.8807L5.62827 2.85945C5.26345 2.85509 4.90145 2.92373 4.56355 3.06133C4.22565 3.19893 3.91868 3.40272 3.6607 3.6607C3.40272 3.91868 3.19893 4.22565 3.06133 4.56355C2.92373 4.90145 2.85509 5.26345 2.85945 5.62827L2.87945 7.34956C2.88374 7.71983 2.81283 8.08712 2.67102 8.42919C2.52921 8.77126 2.31944 9.08098 2.05443 9.33961L0.824398 10.5421C0.563444 10.797 0.356083 11.1015 0.214507 11.4377C0.0729319 11.7738 0 12.1349 0 12.4997C0 12.8645 0.0729319 13.2255 0.214507 13.5617C0.356083 13.8979 0.563444 14.2024 0.824398 14.4572L2.05568 15.6598C2.59069 16.1823 2.88945 16.9023 2.8807 17.6498L2.85945 19.3711C2.85509 19.7359 2.92373 20.0979 3.06133 20.4358C3.19893 20.7737 3.40272 21.0807 3.6607 21.3387C3.91868 21.5967 4.22565 21.8004 4.56355 21.938C4.90145 22.0756 5.26345 22.1443 5.62827 22.1399L7.34956 22.1199C7.71983 22.1156 8.08712 22.1865 8.42919 22.3284C8.77126 22.4702 9.08098 22.6799 9.33961 22.945L10.5421 24.175C11.6159 25.275 13.3835 25.275 14.4572 24.175L15.6598 22.9437C15.9184 22.6787 16.2281 22.4689 16.5702 22.3271C16.9123 22.1853 17.2795 22.1144 17.6498 22.1187L19.3711 22.1399C19.7359 22.1443 20.0979 22.0756 20.4358 21.938C20.7737 21.8004 21.0807 21.5967 21.3387 21.3387C21.5967 21.0807 21.8004 20.7737 21.938 20.4358C22.0756 20.0979 22.1443 19.7359 22.1399 19.3711L22.1199 17.6498C22.1156 17.2795 22.1865 16.9123 22.3284 16.5702C22.4702 16.2281 22.6799 15.9184 22.945 15.6598L24.175 14.4572C25.275 13.3835 25.275 11.6159 24.175 10.5421L22.9437 9.33961C22.6787 9.08098 22.4689 8.77126 22.3271 8.42919C22.1853 8.08712 22.1144 7.71983 22.1187 7.34956L22.1399 5.62827C22.1443 5.26345 22.0756 4.90145 21.938 4.56355C21.8004 4.22565 21.5967 3.91868 21.3387 3.6607C21.0807 3.40272 20.7737 3.19893 20.4358 3.06133C20.0979 2.92373 19.7359 2.85509 19.3711 2.85945L17.6498 2.87945C17.2795 2.88374 16.9123 2.81283 16.5702 2.67102C16.2281 2.52921 15.9184 2.31944 15.6598 2.05443L14.4572 0.824398ZM8.74959 10.6246C8.99583 10.6246 9.23965 10.5761 9.46714 10.4819C9.69464 10.3877 9.90134 10.2496 10.0755 10.0755C10.2496 9.90134 10.3877 9.69464 10.4819 9.46714C10.5761 9.23965 10.6246 8.99583 10.6246 8.74959C10.6246 8.50336 10.5761 8.25954 10.4819 8.03205C10.3877 7.80455 10.2496 7.59785 10.0755 7.42374C9.90134 7.24962 9.69464 7.11151 9.46714 7.01728C9.23965 6.92305 8.99583 6.87455 8.74959 6.87455C8.2523 6.87455 7.77538 7.0721 7.42374 7.42374C7.0721 7.77538 6.87455 8.2523 6.87455 8.74959C6.87455 9.24689 7.0721 9.72381 7.42374 10.0755C7.77538 10.4271 8.2523 10.6246 8.74959 10.6246ZM16.2498 18.1248C16.7471 18.1248 17.224 17.9273 17.5756 17.5756C17.9273 17.224 18.1248 16.7471 18.1248 16.2498C18.1248 15.7525 17.9273 15.2756 17.5756 14.9239C17.224 14.5723 16.7471 14.3747 16.2498 14.3747C15.7525 14.3747 15.2756 14.5723 14.9239 14.9239C14.5723 15.2756 14.3747 15.7525 14.3747 16.2498C14.3747 16.7471 14.5723 17.224 14.9239 17.5756C15.2756 17.9273 15.7525 18.1248 16.2498 18.1248ZM17.2223 7.77707C17.3501 7.90476 17.4514 8.05637 17.5205 8.22324C17.5897 8.39011 17.6253 8.56897 17.6253 8.74959C17.6253 8.93022 17.5897 9.10908 17.5205 9.27595C17.4514 9.44282 17.3501 9.59443 17.2223 9.72212L9.72212 17.2223C9.46419 17.4802 9.11436 17.6251 8.74959 17.6251C8.38483 17.6251 8.035 17.4802 7.77707 17.2223C7.51914 16.9644 7.37424 16.6145 7.37424 16.2498C7.37424 15.885 7.51914 15.5352 7.77707 15.2773L15.2773 7.77707C15.405 7.64932 15.5566 7.54798 15.7234 7.47883C15.8903 7.40969 16.0692 7.3741 16.2498 7.3741C16.4304 7.3741 16.6093 7.40969 16.7761 7.47883C16.943 7.54798 17.0946 7.64932 17.2223 7.77707Z" fill="#27285C"/>
</svg>