<svg xmlns="http://www.w3.org/2000/svg" width="120" height="120" viewBox="0 0 120 120" fill="none">
  <path d="M98.531 83.4864L109.228 72.7896C109.736 72.2799 110.022 71.5894 110.022 70.8696C110.022 70.1498 109.736 69.4593 109.228 68.9496L71.4998 31.224C71.1396 31.3847 70.739 31.4322 70.3511 31.3603C69.9632 31.2885 69.6063 31.1006 69.3275 30.8215C69.0487 30.5424 68.8611 30.1853 68.7896 29.7974C68.7181 29.4094 68.766 29.0089 68.927 28.6488L51.0494 10.7712C50.5397 10.2629 49.8493 9.97752 49.1294 9.97752C48.4096 9.97752 47.7192 10.2629 47.2094 10.7712L36.2102 21.7704C37.4377 23.7576 37.9584 26.1009 37.688 28.4209C37.4176 30.7409 36.3719 32.9017 34.7203 34.5532C33.0687 36.2048 30.9079 37.2505 28.5879 37.5209C26.2679 37.7913 23.9246 37.2707 21.9374 36.0432L10.7702 47.2104C10.262 47.7201 9.97656 48.4106 9.97656 49.1304C9.97656 49.8502 10.262 50.5407 10.7702 51.0504L28.559 68.8344L30.6758 66.7152C30.8571 66.534 31.0722 66.3902 31.309 66.2921C31.5458 66.1941 31.7995 66.1436 32.0558 66.1436C32.3121 66.1436 32.5659 66.1941 32.8027 66.2921C33.0395 66.3902 33.2546 66.534 33.4358 66.7152C33.6171 66.8964 33.7608 67.1116 33.8589 67.3484C33.957 67.5851 34.0075 67.8389 34.0075 68.0952C34.0075 68.3515 33.957 68.6053 33.8589 68.8421C33.7608 69.0788 33.6171 69.294 33.4358 69.4752L31.319 71.5944L68.951 109.229C69.4608 109.737 70.1512 110.022 70.871 110.022C71.5909 110.022 72.2813 109.737 72.791 109.229L84.2774 97.7424C83.0669 95.7565 82.5588 93.4214 82.8349 91.1121C83.1109 88.8027 84.1551 86.6532 85.7997 85.0086C87.4442 83.3641 89.5938 82.3199 91.9031 82.0438C94.2124 81.7678 96.5476 82.2758 98.5334 83.4864H98.531ZM38.9558 63.9528C38.7746 64.134 38.5595 64.2778 38.3227 64.3759C38.0859 64.4739 37.8321 64.5244 37.5758 64.5244C37.3195 64.5244 37.0658 64.4739 36.829 64.3759C36.5922 64.2778 36.3771 64.134 36.1958 63.9528C36.0146 63.7716 35.8709 63.5564 35.7728 63.3196C35.6747 63.0829 35.6242 62.8291 35.6242 62.5728C35.6242 62.3165 35.6747 62.0627 35.7728 61.826C35.8709 61.5892 36.0146 61.374 36.1958 61.1928L38.9582 58.4328C39.3242 58.0668 39.8206 57.8612 40.3382 57.8612C40.8558 57.8612 41.3522 58.0668 41.7182 58.4328C42.0842 58.7988 42.2899 59.2952 42.2899 59.8128C42.2899 60.3304 42.0842 60.8268 41.7182 61.1928L38.9558 63.9528ZM47.2382 55.68C46.8722 56.046 46.3758 56.2516 45.8582 56.2516C45.3406 56.2516 44.8442 56.046 44.4782 55.68C44.1122 55.314 43.9066 54.8176 43.9066 54.3C43.9066 53.7824 44.1122 53.286 44.4782 52.92L47.2406 50.16C47.4219 49.9788 47.637 49.835 47.8738 49.7369C48.1106 49.6389 48.3643 49.5884 48.6206 49.5884C48.8769 49.5884 49.1307 49.6389 49.3675 49.7369C49.6043 49.835 49.8194 49.9788 50.0006 50.16C50.1819 50.3412 50.3256 50.5564 50.4237 50.7931C50.5218 51.0299 50.5723 51.2837 50.5723 51.54C50.5723 51.7963 50.5218 52.0501 50.4237 52.2868C50.3256 52.5236 50.1819 52.7388 50.0006 52.92L47.2382 55.68ZM55.523 47.3976C55.157 47.7636 54.6606 47.9692 54.143 47.9692C53.6254 47.9692 53.129 47.7636 52.763 47.3976C52.397 47.0316 52.1914 46.5352 52.1914 46.0176C52.1914 45.5 52.397 45.0036 52.763 44.6376L55.523 41.8776C55.8913 41.5242 56.3833 41.3292 56.8937 41.3344C57.404 41.3396 57.892 41.5445 58.2531 41.9052C58.6141 42.2659 58.8194 42.7537 58.825 43.2641C58.8306 43.7744 58.6361 44.2666 58.283 44.6352L55.523 47.3976ZM63.8054 39.1152C63.4394 39.4812 62.943 39.6868 62.4254 39.6868C61.9078 39.6868 61.4114 39.4812 61.0454 39.1152C60.6794 38.7492 60.4738 38.2528 60.4738 37.7352C60.4738 37.2176 60.6794 36.7212 61.0454 36.3552L63.8054 33.5928C64.1714 33.2268 64.6678 33.0212 65.1854 33.0212C65.703 33.0212 66.1994 33.2268 66.5654 33.5928C66.9314 33.9588 67.1371 34.4552 67.1371 34.9728C67.1371 35.4904 66.9314 35.9868 66.5654 36.3528L63.8054 39.1152Z" fill="#0B3D60"/>
  <path d="M51.2507 70.992C51.081 70.8224 50.9652 70.6064 50.9182 70.3712C50.8711 70.1359 50.8947 69.892 50.9861 69.6702C51.0775 69.4483 51.2326 69.2585 51.4317 69.1247C51.6309 68.991 51.8652 68.9192 52.1051 68.9184L89.6387 68.8248C89.9608 68.8248 90.2697 68.9527 90.4974 69.1805C90.7252 69.4082 90.8531 69.7171 90.8531 70.0392C90.8531 70.3613 90.7252 70.6702 90.4974 70.8979C90.2697 71.1257 89.9608 71.2536 89.6387 71.2536L52.1051 71.3472C51.9463 71.3475 51.789 71.3162 51.6423 71.2553C51.4956 71.1943 51.3625 71.1048 51.2507 70.992Z" fill="white"/>
  <path d="M65.2809 61.728C64.4439 60.888 63.8747 59.8189 63.6449 58.6556C63.4152 57.4923 63.5353 56.287 63.9901 55.192C64.4448 54.0969 65.2139 53.1611 66.2001 52.5028C67.1863 51.8445 68.3455 51.4931 69.5313 51.4931C70.717 51.4931 71.8762 51.8445 72.8624 52.5028C73.8486 53.1611 74.6177 54.0969 75.0724 55.192C75.5272 56.287 75.6473 57.4923 75.4176 58.6556C75.1878 59.8189 74.6186 60.888 73.7817 61.728C72.6533 62.8533 71.1248 63.4852 69.5313 63.4852C67.9377 63.4852 66.4092 62.8533 65.2809 61.728ZM72.0633 54.9456C71.5625 54.4448 70.9244 54.1038 70.2298 53.9656C69.5352 53.8274 68.8152 53.8983 68.1609 54.1694C67.5066 54.4404 66.9474 54.8994 66.5539 55.4882C66.1604 56.0771 65.9504 56.7694 65.9504 57.4776C65.9504 58.1858 66.1604 58.8781 66.5539 59.467C66.9474 60.0558 67.5066 60.5148 68.1609 60.7858C68.8152 61.0569 69.5352 61.1278 70.2298 60.9896C70.9244 60.8514 71.5625 60.5104 72.0633 60.0096C72.7345 59.3381 73.1118 58.4276 73.1122 57.4781C73.1127 56.5286 72.7363 55.6178 72.0657 54.9456H72.0633Z" fill="white"/>
  <path d="M67.9644 86.9448C67.1275 86.1048 66.5583 85.0357 66.3285 83.8724C66.0988 82.7091 66.2189 81.5038 66.6737 80.4088C67.1284 79.3137 67.8975 78.3779 68.8837 77.7196C69.8699 77.0613 71.0291 76.7099 72.2148 76.7099C73.4006 76.7099 74.5598 77.0613 75.546 77.7196C76.5322 78.3779 77.3012 79.3137 77.756 80.4088C78.2108 81.5038 78.3309 82.7091 78.1012 83.8724C77.8714 85.0357 77.3022 86.1048 76.4652 86.9448C75.3372 88.0706 73.8086 88.703 72.2148 88.703C70.6211 88.703 69.0925 88.0706 67.9644 86.9448ZM74.7469 80.16C74.2461 79.6592 73.608 79.3182 72.9134 79.18C72.2188 79.0418 71.4988 79.1127 70.8445 79.3838C70.1902 79.6548 69.631 80.1138 69.2375 80.7026C68.844 81.2915 68.634 81.9838 68.634 82.692C68.634 83.4002 68.844 84.0925 69.2375 84.6814C69.631 85.2702 70.1902 85.7292 70.8445 86.0002C71.4988 86.2712 72.2188 86.3422 72.9134 86.204C73.608 86.0658 74.2461 85.7248 74.7469 85.224C75.4178 84.5522 75.7946 83.6415 75.7946 82.692C75.7946 81.7425 75.4178 80.8318 74.7469 80.16Z" fill="white"/>
</svg>