<svg xmlns="http://www.w3.org/2000/svg" width="18.674" height="19.204" viewBox="0 0 18.674 19.204"><defs></defs><path class="a" d="M4.759,15.29a1.107,1.107,0,0,0-.537.913.507.507,0,0,1-.537.537H2.611A1.582,1.582,0,0,1,1,15.129V7.611A1.582,1.582,0,0,1,2.611,6H3.685a.507.507,0,0,1,.537.537,1.039,1.039,0,0,0,.537.913ZM17.11,7.611v7.518A1.582,1.582,0,0,1,15.5,16.74H6.907A.507.507,0,0,1,6.37,16.2a1.039,1.039,0,0,0-.537-.913V7.45a1.107,1.107,0,0,0,.537-.913A.507.507,0,0,1,6.907,6H15.5A1.582,1.582,0,0,1,17.11,7.611Zm-2.148,5.907a.507.507,0,0,0-.537-.537H8.518a.537.537,0,1,0,0,1.074h5.907A.507.507,0,0,0,14.962,13.518Zm-5.37-1.611h3.759a.537.537,0,0,0,0-1.074H9.592a.537.537,0,0,0,0,1.074Zm5.37-2.685a.507.507,0,0,0-.537-.537H8.518a.537.537,0,0,0,0,1.074h5.907A.507.507,0,0,0,14.962,9.222Z" transform="translate(-5.184 8.976) rotate(-49)"/></svg>