<svg width="23" height="12" viewBox="0 0 23 12" fill="none" xmlns="http://www.w3.org/2000/svg">
<path id="Vector" d="M5.94107 4.93295C5.94272 5.06232 5.99432 5.18641 6.08573 5.28081C6.17713 5.37522 6.30172 5.43311 6.435 5.44311C6.56827 5.4531 6.70059 5.41447 6.80592 5.33481C6.91126 5.25515 6.98199 5.14024 7.00421 5.01266C7.00607 4.98612 7.00607 4.95949 7.00421 4.93295V3.89853C7.00256 3.76916 6.95095 3.64507 6.85955 3.55066C6.76815 3.45626 6.64355 3.39836 6.51028 3.38837C6.377 3.37838 6.24469 3.41701 6.13935 3.49667C6.03402 3.57632 5.96328 3.69124 5.94107 3.81882C5.93921 3.84536 5.93921 3.87199 5.94107 3.89853V4.93295ZM1.07832 0H21.9219C22.2077 0.000478961 22.4816 0.11057 22.6837 0.306155C22.8858 0.501741 22.9995 0.766874 23 1.04347V2.1739C23 2.28698 22.9537 2.39545 22.8713 2.47558C22.7888 2.5557 22.677 2.60096 22.5601 2.60144H22.4965C22.3411 2.6016 22.1873 2.63163 22.044 2.68979C21.9007 2.74794 21.7708 2.83306 21.6617 2.9402C21.4369 3.15753 21.3092 3.45155 21.3061 3.75904V3.78802C21.3063 3.94165 21.3382 4.0937 21.3999 4.23524C21.4616 4.37678 21.5519 4.50497 21.6655 4.6123L21.686 4.63222C21.919 4.8368 22.2232 4.94873 22.5377 4.94563H22.5583C22.6158 4.94539 22.6728 4.95612 22.726 4.9772C22.7793 4.99829 22.8277 5.02931 22.8685 5.06851C22.9094 5.1077 22.9418 5.1543 22.9641 5.20564C22.9863 5.25698 22.9979 5.31206 22.9981 5.36773V6.79888C22.9981 6.85479 22.9868 6.91015 22.9646 6.9618C22.9425 7.01345 22.9101 7.06038 22.8693 7.09991C22.8285 7.13944 22.78 7.1708 22.7266 7.1922C22.6732 7.21359 22.616 7.2246 22.5583 7.2246H22.5358C22.2126 7.22235 21.9011 7.34189 21.6673 7.55793C21.5539 7.66474 21.4636 7.79229 21.4016 7.93317C21.3396 8.07405 21.3071 8.22545 21.3061 8.37858V8.40757C21.3098 8.71549 21.4373 9.00989 21.6617 9.22822C21.7709 9.3352 21.9009 9.42021 22.0441 9.47835C22.1874 9.5365 22.3411 9.56662 22.4965 9.56698H22.5545C22.612 9.56626 22.6691 9.57652 22.7226 9.59716C22.776 9.6178 22.8247 9.64843 22.8659 9.68729C22.9071 9.72615 22.94 9.77248 22.9627 9.82364C22.9853 9.8748 22.9974 9.92979 22.9981 9.98546V10.9547C22.9982 11.0917 22.9703 11.2273 22.916 11.3539C22.8617 11.4804 22.7821 11.5953 22.6818 11.692L22.65 11.7191C22.4523 11.899 22.1913 11.9994 21.92 11.9999H1.07832C0.795308 12.0028 0.52243 11.8981 0.318394 11.7083C0.115345 11.5124 0.000902443 11.2466 0.000200206 10.9691V9.99995C0.000200206 9.88704 0.0465421 9.77876 0.129031 9.69892C0.21152 9.61908 0.323399 9.57423 0.440056 9.57423H0.501823C0.657203 9.57438 0.811087 9.54485 0.954657 9.48734C1.09823 9.42983 1.22866 9.34547 1.33849 9.23909C1.56259 9.02132 1.69016 8.72758 1.69411 8.42025V8.40576H1.68476C1.68525 8.25185 1.65432 8.09937 1.59376 7.95707C1.53319 7.81477 1.44417 7.68545 1.33182 7.57654C1.21947 7.46762 1.08599 7.38127 0.939061 7.32243C0.792128 7.26359 0.634632 7.23342 0.475619 7.23366C0.35994 7.23176 0.249694 7.18581 0.168765 7.10579C0.0878355 7.02577 0.0427409 6.9181 0.04325 6.80613L0.000200206 5.38765C-0.00154425 5.33183 0.00812549 5.27622 0.0286538 5.22403C0.0491821 5.17183 0.0801644 5.12408 0.11982 5.08351C0.159476 5.04294 0.207024 5.01035 0.259732 4.98762C0.312441 4.96489 0.36927 4.95247 0.426954 4.95106H0.460645C0.784906 4.95474 1.09785 4.8358 1.33287 4.61954L1.35346 4.60143C1.57093 4.38591 1.69255 4.09652 1.69224 3.79527V3.76447C1.69211 3.6111 1.66025 3.45931 1.59852 3.31806C1.5368 3.1768 1.44647 3.04894 1.33287 2.94201L1.31041 2.92028C1.07823 2.71705 0.775545 2.60582 0.462517 2.60868H0.415724C0.303015 2.60353 0.196755 2.5563 0.11927 2.47691C0.041785 2.39753 -0.000893894 2.29216 0.000200206 2.18296V1.04347C0.00119087 0.767503 0.1149 0.503109 0.316522 0.30797C0.518294 0.111719 0.792266 0.000960726 1.07832 0ZM13.1341 8.54163C13.0677 8.65483 12.9698 8.74773 12.8515 8.80974C12.6628 8.88609 12.4584 8.91896 12.2544 8.90575C11.9755 8.90575 11.8351 8.83329 11.8351 8.69018C11.8379 8.66783 11.8435 8.64592 11.852 8.62496L14.8767 3.44201C14.9177 3.37078 14.9646 3.30292 15.0171 3.23911C15.0854 3.17799 15.1656 3.13058 15.2529 3.09962C15.3889 3.04872 15.534 3.0247 15.6797 3.02897C16.0334 3.02897 16.2094 3.10325 16.2094 3.2518C16.21 3.27751 16.2042 3.30299 16.1925 3.32607L13.1341 8.54163ZM11.7509 6.18656C11.5307 6.18977 11.3108 6.16788 11.0958 6.12135C10.91 6.07641 10.7347 5.99772 10.5792 5.88946C10.2548 5.66362 10.0926 5.22522 10.0926 4.57425C10.0926 3.92329 10.2635 3.50059 10.6054 3.30614C10.9523 3.11075 11.35 3.0164 11.7509 3.03441C12.1539 3.01902 12.5533 3.11315 12.9039 3.30614C13.2446 3.52172 13.4168 3.94563 13.4168 4.57425C13.4168 5.20287 13.2539 5.6612 12.9282 5.88946C12.5762 6.10219 12.1655 6.20584 11.7509 6.18656ZM11.7509 5.38403C11.7719 5.38453 11.7928 5.38039 11.812 5.37191C11.8311 5.36344 11.848 5.35086 11.8613 5.33512C11.9343 5.25722 11.9718 5.06157 11.9718 4.74816C11.9778 4.53147 11.9665 4.31464 11.9381 4.09962C11.9313 4.0216 11.9049 3.94636 11.8613 3.88042C11.847 3.86629 11.8298 3.85527 11.8108 3.84809C11.7917 3.8409 11.7713 3.83772 11.7509 3.83875C11.6012 3.83875 11.5282 4.09599 11.5282 4.6123C11.5282 5.1286 11.6012 5.38403 11.7509 5.38403ZM16.2431 8.98909C16.0234 8.99215 15.8042 8.97026 15.5898 8.92387C15.404 8.88085 15.2286 8.80333 15.0732 8.69561C14.75 8.46976 14.5878 8.03136 14.5866 7.3804C14.5866 6.74634 14.7569 6.32606 15.0994 6.11229C15.4436 5.91142 15.8416 5.81371 16.2431 5.83149C16.6508 5.81371 17.0552 5.91061 17.4073 6.11048C17.7479 6.32062 17.9183 6.74091 17.9183 7.37859C17.9183 8.01626 17.7573 8.46554 17.4316 8.6938C17.0793 8.90753 16.6677 9.01125 16.2524 8.9909L16.2431 8.98909ZM16.2431 8.18837C16.2637 8.18899 16.2843 8.18563 16.3035 8.17848C16.3228 8.17132 16.3404 8.16052 16.3554 8.1467C16.4284 8.06337 16.4658 7.8659 16.4658 7.55069C16.4717 7.33399 16.4605 7.11717 16.4321 6.90214C16.4249 6.8242 16.3986 6.74904 16.3554 6.68294C16.3404 6.66912 16.3228 6.65831 16.3035 6.65116C16.2843 6.64401 16.2637 6.64064 16.2431 6.64127C16.0952 6.64127 16.0222 6.89852 16.0222 7.41482C16.0222 7.93112 16.0952 8.18837 16.2431 8.18837ZM21.9219 0.853257H7.00982V1.82789C7.01175 1.85382 7.01175 1.87986 7.00982 1.90579C6.98766 2.03324 6.91709 2.14808 6.81194 2.22776C6.7068 2.30744 6.57468 2.3462 6.44152 2.33645C6.30836 2.32669 6.18378 2.26912 6.09223 2.17502C6.00068 2.08093 5.94876 1.95712 5.94668 1.82789V0.853257H1.08019C1.05369 0.851618 1.02713 0.855455 1.00228 0.864513C0.977436 0.873571 0.954863 0.887643 0.936064 0.905793C0.917693 0.923206 0.903225 0.944097 0.893564 0.967161C0.883903 0.990226 0.879256 1.01497 0.879913 1.03985V1.79347C1.26731 1.86727 1.62576 2.04418 1.91498 2.30434L1.94305 2.32789C2.14086 2.51318 2.29827 2.73498 2.40597 2.98018C2.51367 3.22537 2.56948 3.48898 2.57008 3.75542V3.80433C2.5678 4.32888 2.35191 4.8314 1.96926 5.20287L1.94305 5.23005C1.65247 5.50123 1.28723 5.68553 0.891143 5.76084L0.911732 6.42207C1.30881 6.50079 1.67365 6.68962 1.96177 6.96555C2.15623 7.15327 2.31041 7.37636 2.41545 7.62197C2.52049 7.86758 2.57432 8.13087 2.57383 8.3967C2.57383 8.3967 2.57383 8.413 2.57383 8.41844C2.56867 8.94792 2.34966 9.45444 1.96364 9.82966C1.66976 10.1161 1.29332 10.31 0.883656 10.3858V10.9619C0.882738 10.9871 0.887258 11.0122 0.896927 11.0356C0.906596 11.059 0.9212 11.0801 0.939808 11.0978H0.936064C0.973149 11.1327 1.02285 11.1522 1.07457 11.1521H5.94107V10.1014C5.93914 10.0755 5.93914 10.0494 5.94107 10.0235C5.96323 9.89605 6.03381 9.78121 6.13895 9.70153C6.24409 9.62185 6.37621 9.58309 6.50937 9.59284C6.64253 9.6026 6.76711 9.66017 6.85866 9.75426C6.95021 9.84836 7.00213 9.97217 7.00421 10.1014V11.1521H21.9163C21.9622 11.153 22.0068 11.1375 22.0417 11.1086L22.0548 11.096C22.0918 11.0598 22.1126 11.011 22.1128 10.9601V10.3913C21.7031 10.3166 21.3265 10.1233 21.0328 9.83691C20.6467 9.46246 20.4277 8.95647 20.4226 8.4275V8.37858C20.424 8.1122 20.4805 7.84877 20.5888 7.60389C20.6972 7.35901 20.8551 7.13764 21.0534 6.95286C21.345 6.67659 21.7129 6.48785 22.1128 6.40939V5.76084C21.7253 5.68947 21.3665 5.51364 21.0777 5.2536L21.0497 5.23005C20.8531 5.04451 20.6969 4.8228 20.5901 4.57795C20.4834 4.3331 20.4284 4.07007 20.4282 3.80433V3.7536C20.4366 3.22849 20.6554 2.72704 21.0384 2.35506C21.3316 2.06739 21.7083 1.8728 22.1184 1.79709V1.04347C22.1157 0.996274 22.0951 0.951693 22.0606 0.918267C22.0261 0.884841 21.98 0.864919 21.9312 0.862315L21.9219 0.853257ZM5.94107 8.03982C5.94272 8.16919 5.99432 8.29328 6.08573 8.38768C6.17713 8.48209 6.30172 8.53998 6.435 8.54998C6.56827 8.55997 6.70059 8.52134 6.80592 8.44168C6.91126 8.36202 6.98199 8.24711 7.00421 8.11952C7.00607 8.09299 7.00607 8.06635 7.00421 8.03982V7.0054C7.00256 6.87603 6.95095 6.75194 6.85955 6.65753C6.76815 6.56313 6.64355 6.50523 6.51028 6.49524C6.377 6.48525 6.24469 6.52388 6.13935 6.60354C6.03402 6.68319 5.96328 6.79811 5.94107 6.92569C5.93915 6.95223 5.93915 6.97886 5.94107 7.0054V8.03982Z" fill="black"/>
</svg>
