<svg xmlns="http://www.w3.org/2000/svg" width="32" height="32" viewBox="0 0 32 32"><defs><style>.a{fill:#f1f1f1;}.b{fill:#666;}</style></defs><g transform="translate(-400 -309)"><rect class="a" width="32" height="32" rx="3" transform="translate(400 309)"/><g transform="translate(400.744 300.479)"><g transform="translate(5 17)"><path class="b" d="M18.581,20.923l-5.926,7.749-.724-.554,5.926-7.749Zm-6.971,1.09a1.6,1.6,0,1,1,1.6,1.6A1.6,1.6,0,0,1,11.609,22.014Zm.912,0a.684.684,0,1,0,.683-.684A.685.685,0,0,0,12.521,22.014Zm3.191,5.014a1.6,1.6,0,1,1,1.6,1.6A1.6,1.6,0,0,1,15.712,27.028Zm.912,0a.684.684,0,1,0,.683-.684A.685.685,0,0,0,16.623,27.028Zm8.888-8.888V22.7h-.456a1.823,1.823,0,0,0,0,3.647h.456V30.9a1.141,1.141,0,0,1-1.14,1.14H6.14A1.141,1.141,0,0,1,5,30.9V26.344h.456a1.823,1.823,0,1,0,0-3.647H5V18.14A1.141,1.141,0,0,1,6.14,17H24.372A1.141,1.141,0,0,1,25.512,18.14Zm-.912,0a.231.231,0,0,0-.228-.228H6.14a.231.231,0,0,0-.228.228v3.685a2.735,2.735,0,0,1,0,5.394V30.9a.231.231,0,0,0,.228.228H24.372A.231.231,0,0,0,24.6,30.9V27.218a2.735,2.735,0,0,1,0-5.394Z" transform="translate(-5 -17)"/></g></g></g></svg>