<svg xmlns="http://www.w3.org/2000/svg" width="15.662" height="14.74" viewBox="0 0 15.662 14.74"><defs><style>.a{fill:#666;}</style></defs><g transform="translate(0 -0.016)"><g transform="translate(0 0.016)"><path class="a" d="M2.45,14.74a2.278,2.278,0,0,1-1.4-.513,2.691,2.691,0,0,1-.935-1.262A1.776,1.776,0,0,1,.1,11.746c0-.025.01-.112.028-.258s.032-.266.038-.356a.553.553,0,0,0-.028-.206.5.5,0,0,1-.028-.187.606.606,0,0,1,.075-.2,2.537,2.537,0,0,1,.155-.226,2.209,2.209,0,0,0,.155-.225,6.4,6.4,0,0,0,.423-.878A5.327,5.327,0,0,0,1.2,8.33a.763.763,0,0,0,0-.287.888.888,0,0,1,0-.269.8.8,0,0,1,.16-.268,1.494,1.494,0,0,0,.16-.221,5.846,5.846,0,0,0,.4-.883,3.993,3.993,0,0,0,.235-.863,1.428,1.428,0,0,0-.024-.308c-.022-.147-.02-.237.005-.268a.756.756,0,0,1,.206-.293c.113-.112.182-.184.207-.216a3.994,3.994,0,0,0,.4-.811A3.681,3.681,0,0,0,3.2,2.716a.8.8,0,0,0-.028-.245.647.647,0,0,1-.019-.255.545.545,0,0,1,.085-.173c.043-.064.1-.137.169-.22s.122-.15.16-.2a2.173,2.173,0,0,0,.155-.293c.053-.119.1-.23.141-.336s.091-.221.15-.346A1.685,1.685,0,0,1,4.2.34a1.1,1.1,0,0,1,.25-.225A.623.623,0,0,1,4.787,0a1.926,1.926,0,0,1,.446.053l-.01.029A2.587,2.587,0,0,1,5.7,0h7.157a1.229,1.229,0,0,1,1.072.537A1.388,1.388,0,0,1,14.1,1.785L11.526,10.48a3.775,3.775,0,0,1-.673,1.473,1.709,1.709,0,0,1-1.208.331H1.472a.409.409,0,0,0-.357.144.443.443,0,0,0-.01.412q.226.672,1.354.672H11.14a1.023,1.023,0,0,0,.527-.149.687.687,0,0,0,.329-.4l2.822-9.472a1.61,1.61,0,0,0,.047-.548,1.248,1.248,0,0,1,.555.413A1.378,1.378,0,0,1,15.588,4.6L13,13.291a1.985,1.985,0,0,1-.72,1.032,1.853,1.853,0,0,1-1.152.417Z" transform="translate(0)"/></g></g></svg>