<svg width="250" height="130" viewBox="0 0 250 130" fill="none" xmlns="http://www.w3.org/2000/svg">
<path d="M250 2.18053V0H141.522C141.522 9.03683 135.158 16.4776 126.956 17.5117C127.961 18.2029 128.63 19.4056 128.63 20.7768C128.63 22.9237 127.003 24.6546 124.997 24.6546C122.992 24.6546 121.365 22.918 121.365 20.7768C121.365 19.4056 122.039 18.2029 123.044 17.5117C114.842 16.4776 108.483 9.03121 108.483 0H0V2.18053C2.13207 2.9898 3.66401 5.15909 3.66401 7.71053C3.66401 10.262 2.13207 12.4369 0 13.2405V14.8141C2.13207 15.6234 3.66401 17.7927 3.66401 20.3441C3.66401 22.8956 2.13207 25.0705 0 25.8741V27.6275C2.2321 28.375 3.84826 30.6005 3.84826 33.2306C3.84826 35.8607 2.22683 38.0862 0 38.8336V40.2667C2.2321 41.0142 3.84826 43.2397 3.84826 45.8698C3.84826 48.4999 2.22683 50.7254 0 51.4728V53.0352C2.2321 53.7826 3.84826 56.0081 3.84826 58.6382C3.84826 61.2684 2.22683 63.4939 0 64.2413V65.6744C2.2321 66.4218 3.84826 68.6473 3.84826 71.2775C3.84826 73.9076 2.22683 76.1331 0 76.8805V78.544C2.2321 79.2915 3.84826 81.5169 3.84826 84.1471C3.84826 86.7772 2.22683 89.0027 0 89.7501V91.1832C2.2321 91.9307 3.84826 94.1561 3.84826 96.7863C3.84826 99.4164 2.22683 101.642 0 102.389V104.047C2.2321 104.795 3.84826 107.02 3.84826 109.65C3.84826 112.28 2.22683 114.506 0 115.253V116.686C2.2321 117.434 3.84826 119.659 3.84826 122.289C3.84826 124.92 2.22683 127.145 0 127.893V130H108.478C108.478 121.137 114.605 113.803 122.581 112.55C121.833 111.836 121.365 110.808 121.365 109.662C121.365 107.515 122.997 105.784 124.997 105.784C126.998 105.784 128.63 107.52 128.63 109.662C128.63 110.808 128.161 111.836 127.414 112.55C135.395 113.798 141.522 121.132 141.522 130H250V127.893C247.768 127.145 246.152 124.92 246.152 122.289C246.152 119.659 247.773 117.434 250 116.686V115.253C247.768 114.506 246.152 112.28 246.152 109.65C246.152 107.02 247.773 104.795 250 104.047V102.389C247.768 101.642 246.152 99.4164 246.152 96.7863C246.152 94.1561 247.773 91.9307 250 91.1832V89.7501C247.768 89.0027 246.152 86.7772 246.152 84.1471C246.152 81.5169 247.773 79.2915 250 78.544V76.8805C247.768 76.1331 246.152 73.9076 246.152 71.2775C246.152 68.6473 247.773 66.4218 250 65.6744V64.2413C247.768 63.4939 246.152 61.2684 246.152 58.6382C246.152 56.0081 247.773 53.7826 250 53.0352V51.4728C247.768 50.7254 246.152 48.4999 246.152 45.8698C246.152 43.2397 247.773 41.0142 250 40.2667V38.8336C247.768 38.0862 246.152 35.8607 246.152 33.2306C246.152 30.6005 247.773 28.375 250 27.6275V25.8741C247.863 25.0648 246.336 22.8956 246.336 20.3441C246.336 17.7927 247.868 15.6178 250 14.8141V13.2405C247.863 12.4313 246.336 10.262 246.336 7.71053C246.336 5.15909 247.868 2.98418 250 2.18053ZM124.997 100.855C122.997 100.855 121.365 99.1185 121.365 96.9773C121.365 94.8362 122.997 93.0996 124.997 93.0996C126.998 93.0996 128.63 94.8418 128.63 96.9773C128.63 99.1129 127.003 100.855 124.997 100.855ZM124.997 88.1541C122.997 88.1541 121.365 86.4175 121.365 84.2763C121.365 82.1351 122.997 80.3986 124.997 80.3986C126.998 80.3986 128.63 82.1408 128.63 84.2763C128.63 86.4119 127.003 88.1541 124.997 88.1541ZM124.997 75.4587C122.997 75.4587 121.365 73.7165 121.365 71.5809C121.365 69.4454 122.997 67.7032 124.997 67.7032C126.998 67.7032 128.63 69.4397 128.63 71.5809C128.63 73.7221 127.003 75.4587 124.997 75.4587ZM124.997 62.752C122.997 62.752 121.365 61.0155 121.365 58.8743C121.365 56.7331 122.997 54.9965 124.997 54.9965C126.998 54.9965 128.63 56.7387 128.63 58.8743C128.63 61.0099 127.003 62.752 124.997 62.752ZM124.997 50.051C122.997 50.051 121.365 48.3145 121.365 46.1733C121.365 44.0321 122.997 42.2955 124.997 42.2955C126.998 42.2955 128.63 44.0377 128.63 46.1733C128.63 48.3088 127.003 50.051 124.997 50.051ZM124.997 37.3556C122.997 37.3556 121.365 35.6134 121.365 33.4779C121.365 31.3423 122.997 29.6001 124.997 29.6001C126.998 29.6001 128.63 31.3367 128.63 33.4779C128.63 35.6191 127.003 37.3556 124.997 37.3556Z" fill="url(#paint0_linear_1426_12751)"/>
<path d="M36.325 55C36.9333 55 37.4792 54.9 37.9625 54.7C38.4458 54.4917 38.8542 54.2 39.1875 53.825C39.5208 53.45 39.775 52.9958 39.95 52.4625C40.125 51.9292 40.2125 51.3292 40.2125 50.6625V39.8625H43.9625V50.6625C43.9625 51.7625 43.7833 52.775 43.425 53.7C43.075 54.6167 42.5708 55.4083 41.9125 56.075C41.2542 56.7417 40.4542 57.2625 39.5125 57.6375C38.5708 58.0125 37.5083 58.2 36.325 58.2C35.1417 58.2 34.075 58.0125 33.125 57.6375C32.1833 57.2625 31.3833 56.7417 30.725 56.075C30.0667 55.4083 29.5583 54.6167 29.2 53.7C28.85 52.775 28.675 51.7625 28.675 50.6625V39.8625H32.425V50.6625C32.425 51.3292 32.5125 51.9292 32.6875 52.4625C32.8625 52.9958 33.1167 53.45 33.45 53.825C33.7833 54.2 34.1917 54.4917 34.675 54.7C35.1583 54.9 35.7083 55 36.325 55ZM53.6529 48.8875C54.8279 48.8875 55.6863 48.6042 56.2279 48.0375C56.7779 47.4708 57.0529 46.6958 57.0529 45.7125C57.0529 45.2625 56.9821 44.8542 56.8404 44.4875C56.7071 44.1125 56.4988 43.7958 56.2154 43.5375C55.9404 43.2708 55.5904 43.0667 55.1654 42.925C54.7404 42.7833 54.2363 42.7125 53.6529 42.7125H51.2779V48.8875H53.6529ZM53.6529 39.8625C54.8946 39.8625 55.9654 40.0083 56.8654 40.3C57.7738 40.5917 58.5196 41 59.1029 41.525C59.6863 42.0417 60.1154 42.6583 60.3904 43.375C60.6738 44.0917 60.8154 44.8708 60.8154 45.7125C60.8154 46.6042 60.6696 47.4208 60.3779 48.1625C60.0863 48.9042 59.6446 49.5417 59.0529 50.075C58.4613 50.6083 57.7154 51.025 56.8154 51.325C55.9154 51.6167 54.8613 51.7625 53.6529 51.7625H51.2779V58H47.5279V39.8625H53.6529ZM76.0393 42.8875H70.7393V58H66.9768V42.8875H61.6768V39.8625H76.0393V42.8875ZM95.2775 48.925C95.2775 50.25 95.0525 51.4792 94.6025 52.6125C94.1609 53.7458 93.5317 54.725 92.715 55.55C91.9067 56.375 90.9317 57.025 89.79 57.5C88.6484 57.9667 87.3817 58.2 85.99 58.2C84.5984 58.2 83.3317 57.9667 82.19 57.5C81.0484 57.025 80.0692 56.375 79.2525 55.55C78.4359 54.725 77.8025 53.7458 77.3525 52.6125C76.9109 51.4792 76.69 50.25 76.69 48.925C76.69 47.6 76.9109 46.375 77.3525 45.25C77.8025 44.1167 78.4359 43.1375 79.2525 42.3125C80.0692 41.4875 81.0484 40.8417 82.19 40.375C83.3317 39.9 84.5984 39.6625 85.99 39.6625C87.3817 39.6625 88.6484 39.9 89.79 40.375C90.9317 40.8417 91.9067 41.4917 92.715 42.325C93.5317 43.15 94.1609 44.1292 94.6025 45.2625C95.0525 46.3875 95.2775 47.6083 95.2775 48.925ZM91.44 48.925C91.44 47.975 91.315 47.125 91.065 46.375C90.815 45.6167 90.4525 44.975 89.9775 44.45C89.5109 43.9167 88.94 43.5125 88.265 43.2375C87.5984 42.9542 86.84 42.8125 85.99 42.8125C85.14 42.8125 84.3775 42.9542 83.7025 43.2375C83.0275 43.5125 82.4525 43.9167 81.9775 44.45C81.5109 44.975 81.1525 45.6167 80.9025 46.375C80.6525 47.125 80.5275 47.975 80.5275 48.925C80.5275 49.8833 80.6525 50.7417 80.9025 51.5C81.1525 52.25 81.5109 52.8875 81.9775 53.4125C82.4525 53.9375 83.0275 54.3417 83.7025 54.625C84.3775 54.9 85.14 55.0375 85.99 55.0375C86.84 55.0375 87.5984 54.9 88.265 54.625C88.94 54.3417 89.5109 53.9375 89.9775 53.4125C90.4525 52.8875 90.815 52.25 91.065 51.5C91.315 50.7417 91.44 49.8833 91.44 48.925Z" fill="white"/>
<path d="M46.9544 62.6063V64.7527C46.9544 65.3833 46.8817 65.8926 46.7362 66.2807C46.6028 66.6687 46.4694 66.9962 46.336 67.2629L36.7317 87.3265C36.4891 87.7873 36.1617 88.1814 35.7494 88.5089C35.3371 88.8363 34.7793 89 34.0759 89H30.4379L40.2787 69.4094C40.5212 68.9486 40.7698 68.5302 41.0245 68.1543C41.2792 67.7783 41.5641 67.4206 41.8794 67.081H29.7103C29.4193 67.081 29.1525 66.9658 28.91 66.7354C28.6795 66.505 28.5643 66.2443 28.5643 65.9533V62.6063H46.9544ZM68.3851 75.7941C68.3851 78.0981 68.1365 80.099 67.6393 81.7968C67.1421 83.4945 66.457 84.9012 65.5838 86.0168C64.7107 87.1204 63.6739 87.945 62.4733 88.4907C61.2849 89.0243 59.9995 89.291 58.6171 89.291C57.2346 89.291 55.9492 89.0243 54.7608 88.4907C53.5724 87.945 52.5477 87.1204 51.6867 86.0168C50.8257 84.9012 50.1466 83.4945 49.6494 81.7968C49.1643 80.099 48.9218 78.0981 48.9218 75.7941C48.9218 73.49 49.1643 71.4952 49.6494 69.8095C50.1466 68.1118 50.8257 66.7112 51.6867 65.6077C52.5477 64.492 53.5724 63.6674 54.7608 63.1338C55.9492 62.5881 57.2346 62.3153 58.6171 62.3153C59.9995 62.3153 61.2849 62.5881 62.4733 63.1338C63.6739 63.6674 64.7107 64.492 65.5838 65.6077C66.457 66.7112 67.1421 68.1118 67.6393 69.8095C68.1365 71.4952 68.3851 73.49 68.3851 75.7941ZM63.2009 75.7941C63.2009 73.9266 63.0676 72.3865 62.8008 71.1738C62.5461 69.9611 62.2066 69.0031 61.7821 68.2998C61.3577 67.5964 60.8666 67.1053 60.3087 66.8264C59.763 66.5475 59.1991 66.408 58.6171 66.408C58.035 66.408 57.4711 66.5475 56.9254 66.8264C56.3918 67.1053 55.9128 67.5964 55.4884 68.2998C55.0761 69.0031 54.7426 69.9611 54.4879 71.1738C54.2333 72.3865 54.1059 73.9266 54.1059 75.7941C54.1059 77.6737 54.2333 79.2198 54.4879 80.4325C54.7426 81.6452 55.0761 82.6032 55.4884 83.3065C55.9128 84.0099 56.3918 84.501 56.9254 84.7799C57.4711 85.0588 58.035 85.1983 58.6171 85.1983C59.1991 85.1983 59.763 85.0588 60.3087 84.7799C60.8666 84.501 61.3577 84.0099 61.7821 83.3065C62.2066 82.6032 62.5461 81.6452 62.8008 80.4325C63.0676 79.2198 63.2009 77.6737 63.2009 75.7941Z" fill="white"/>
<path d="M85.2486 84.212C85.2486 84.9111 85.1299 85.5596 84.8925 86.1576C84.6595 86.7555 84.3275 87.2721 83.8967 87.7074C83.4702 88.1426 82.9558 88.4856 82.3534 88.7362C81.7511 88.9824 81.0828 89.1055 80.3485 89.1055C79.6143 89.1055 78.946 88.9824 78.3437 88.7362C77.7413 88.4856 77.2247 88.1426 76.7938 87.7074C76.363 87.2721 76.0288 86.7555 75.7914 86.1576C75.5584 85.5596 75.4419 84.9111 75.4419 84.212C75.4419 83.513 75.5584 82.8666 75.7914 82.2731C76.0288 81.6752 76.363 81.1585 76.7938 80.7233C77.2247 80.288 77.7413 79.9473 78.3437 79.701C78.946 79.4504 79.6143 79.3251 80.3485 79.3251C81.0828 79.3251 81.7511 79.4504 82.3534 79.701C82.9558 79.9473 83.4702 80.2902 83.8967 80.7299C84.3275 81.1651 84.6595 81.6817 84.8925 82.2797C85.1299 82.8732 85.2486 83.5174 85.2486 84.212ZM83.224 84.212C83.224 83.7108 83.158 83.2623 83.0261 82.8666C82.8942 82.4666 82.703 82.128 82.4523 81.851C82.2061 81.5696 81.905 81.3564 81.5488 81.2113C81.1971 81.0618 80.797 80.9871 80.3485 80.9871C79.9001 80.9871 79.4978 81.0618 79.1417 81.2113C78.7855 81.3564 78.4822 81.5696 78.2315 81.851C77.9853 82.128 77.7963 82.4666 77.6644 82.8666C77.5325 83.2623 77.4665 83.7108 77.4665 84.212C77.4665 84.7176 77.5325 85.1705 77.6644 85.5706C77.7963 85.9663 77.9853 86.3026 78.2315 86.5796C78.4822 86.8566 78.7855 87.0699 79.1417 87.2193C79.4978 87.3644 79.9001 87.437 80.3485 87.437C80.797 87.437 81.1971 87.3644 81.5488 87.2193C81.905 87.0699 82.2061 86.8566 82.4523 86.5796C82.703 86.3026 82.8942 85.9663 83.0261 85.5706C83.158 85.1705 83.224 84.7176 83.224 84.212ZM88.6852 80.9805V83.6251H92.1278V85.1815H88.6852V89H86.6936V79.4307H92.7873V80.9805H88.6852ZM96.1561 80.9805V83.6251H99.5987V85.1815H96.1561V89H94.1645V79.4307H100.258V80.9805H96.1561Z" fill="white"/>
<path d="M82.55 65C82.55 65.54 82.4567 66.03 82.27 66.47C82.0833 66.91 81.83 67.29 81.51 67.61C81.1967 67.9233 80.8333 68.1667 80.42 68.34C80.0067 68.5067 79.5767 68.59 79.13 68.59C78.6367 68.59 78.1833 68.5067 77.77 68.34C77.3567 68.1667 76.9967 67.9233 76.69 67.61C76.39 67.29 76.1533 66.91 75.98 66.47C75.8133 66.03 75.73 65.54 75.73 65C75.73 64.44 75.8133 63.9367 75.98 63.49C76.1533 63.0367 76.39 62.6533 76.69 62.34C76.9967 62.02 77.3567 61.7733 77.77 61.6C78.1833 61.4267 78.6367 61.34 79.13 61.34C79.6233 61.34 80.08 61.4267 80.5 61.6C80.92 61.7733 81.28 62.02 81.58 62.34C81.8867 62.6533 82.1233 63.0367 82.29 63.49C82.4633 63.9367 82.55 64.44 82.55 65ZM80.43 65C80.43 64.64 80.3967 64.34 80.33 64.1C80.2633 63.8533 80.17 63.6567 80.05 63.51C79.9367 63.3633 79.8 63.26 79.64 63.2C79.48 63.1333 79.31 63.1 79.13 63.1C78.95 63.1 78.78 63.1333 78.62 63.2C78.4667 63.26 78.3333 63.3633 78.22 63.51C78.1133 63.6567 78.0267 63.8533 77.96 64.1C77.9 64.34 77.87 64.64 77.87 65C77.87 65.3533 77.9 65.6467 77.96 65.88C78.0267 66.1133 78.1133 66.3033 78.22 66.45C78.3333 66.59 78.4667 66.69 78.62 66.75C78.78 66.81 78.95 66.84 79.13 66.84C79.31 66.84 79.48 66.81 79.64 66.75C79.8 66.69 79.9367 66.59 80.05 66.45C80.17 66.3033 80.2633 66.1133 80.33 65.88C80.3967 65.6467 80.43 65.3533 80.43 65ZM87.25 61.91C87.3433 61.8033 87.4533 61.7067 87.58 61.62C87.7133 61.5333 87.8967 61.49 88.13 61.49H90.14L79.29 75.6C79.1967 75.7133 79.0833 75.81 78.95 75.89C78.8167 75.9633 78.6533 76 78.46 76H76.41L87.25 61.91ZM90.81 72.59C90.81 73.13 90.7167 73.62 90.53 74.06C90.3433 74.5 90.09 74.88 89.77 75.2C89.4567 75.5133 89.0933 75.7567 88.68 75.93C88.2667 76.0967 87.8367 76.18 87.39 76.18C86.8967 76.18 86.4433 76.0967 86.03 75.93C85.6167 75.7567 85.2567 75.5133 84.95 75.2C84.65 74.88 84.4133 74.5 84.24 74.06C84.0733 73.62 83.99 73.13 83.99 72.59C83.99 72.03 84.0733 71.5267 84.24 71.08C84.4133 70.6267 84.65 70.2433 84.95 69.93C85.2567 69.61 85.6167 69.3667 86.03 69.2C86.4433 69.0267 86.8967 68.94 87.39 68.94C87.8833 68.94 88.34 69.0267 88.76 69.2C89.18 69.3667 89.54 69.61 89.84 69.93C90.1467 70.2433 90.3833 70.6267 90.55 71.08C90.7233 71.5267 90.81 72.03 90.81 72.59ZM88.69 72.59C88.69 72.23 88.6567 71.93 88.59 71.69C88.5233 71.4433 88.43 71.2467 88.31 71.1C88.1967 70.9533 88.06 70.85 87.9 70.79C87.74 70.7233 87.57 70.69 87.39 70.69C87.21 70.69 87.04 70.7233 86.88 70.79C86.7267 70.85 86.5933 70.9533 86.48 71.1C86.3733 71.2467 86.2867 71.4433 86.22 71.69C86.16 71.93 86.13 72.23 86.13 72.59C86.13 72.9433 86.16 73.2367 86.22 73.47C86.2867 73.7033 86.3733 73.8933 86.48 74.04C86.5933 74.18 86.7267 74.28 86.88 74.34C87.04 74.4 87.21 74.43 87.39 74.43C87.57 74.43 87.74 74.4 87.9 74.34C88.06 74.28 88.1967 74.18 88.31 74.04C88.43 73.8933 88.5233 73.7033 88.59 73.47C88.6567 73.2367 88.69 72.9433 88.69 72.59Z" fill="white"/>
<path d="M62.9998 25L64.2167 28.8205H68.1433L64.9666 31.1794L66.1765 35L62.9998 32.6411L59.8231 35L61.04 31.1794L57.8633 28.8205H61.7899L62.9998 25Z" fill="white"/>
<path d="M79.9021 25L81.112 28.8205H85.0386L81.8619 31.1794L83.0788 35L79.9021 32.6411L76.7254 35L77.9352 31.1794L74.7656 28.8205H78.6852L79.9021 25Z" fill="white"/>
<path d="M95.8631 25L97.08 28.8205H101L97.8299 31.1794L99.0398 35L95.8631 32.6411L92.6864 35L93.9033 31.1794L90.7266 28.8205H94.6532L95.8631 25Z" fill="white"/>
<path d="M46.1052 25L44.8883 28.8205H40.9688L44.1384 31.1794L42.9285 35L46.1052 32.6411L49.2819 35L48.065 31.1794L51.2417 28.8205H47.3151L46.1052 25Z" fill="white"/>
<path d="M30.1436 25L28.9267 28.8205H25L28.1767 31.1794L26.9669 35L30.1436 32.6411L33.3203 35L32.1034 31.1794L35.2801 28.8205H31.3534L30.1436 25Z" fill="white"/>
<path d="M62.9998 95L64.2167 98.8205H68.1433L64.9666 101.179L66.1765 105L62.9998 102.641L59.8231 105L61.04 101.179L57.8633 98.8205H61.7899L62.9998 95Z" fill="white"/>
<path d="M79.9021 95L81.112 98.8205H85.0386L81.8619 101.179L83.0788 105L79.9021 102.641L76.7254 105L77.9352 101.179L74.7656 98.8205H78.6852L79.9021 95Z" fill="white"/>
<path d="M95.8631 95L97.08 98.8205H101L97.8299 101.179L99.0398 105L95.8631 102.641L92.6864 105L93.9033 101.179L90.7266 98.8205H94.6532L95.8631 95Z" fill="white"/>
<path d="M46.1052 95L44.8883 98.8205H40.9688L44.1384 101.179L42.9285 105L46.1052 102.641L49.2819 105L48.065 101.179L51.2417 98.8205H47.3151L46.1052 95Z" fill="white"/>
<path d="M30.1436 95L28.9267 98.8205H25L28.1767 101.179L26.9669 105L30.1436 102.641L33.3203 105L32.1034 101.179L35.2801 98.8205H31.3534L30.1436 95Z" fill="white"/>
<path d="M163.504 33.616C163.429 33.7387 163.352 33.8293 163.272 33.888C163.197 33.9413 163.099 33.968 162.976 33.968C162.859 33.968 162.731 33.928 162.592 33.848C162.459 33.7627 162.301 33.672 162.12 33.576C161.939 33.48 161.731 33.392 161.496 33.312C161.261 33.2267 160.987 33.184 160.672 33.184C160.117 33.184 159.701 33.3093 159.424 33.56C159.147 33.8053 159.008 34.128 159.008 34.528C159.008 34.784 159.083 34.9973 159.232 35.168C159.387 35.3333 159.587 35.4773 159.832 35.6C160.083 35.7227 160.365 35.832 160.68 35.928C160.995 36.024 161.317 36.1307 161.648 36.248C161.979 36.36 162.301 36.4933 162.616 36.648C162.931 36.8027 163.211 36.9973 163.456 37.232C163.707 37.4667 163.907 37.7547 164.056 38.096C164.211 38.432 164.288 38.8427 164.288 39.328C164.288 39.856 164.195 40.352 164.008 40.816C163.827 41.2747 163.563 41.6773 163.216 42.024C162.869 42.3653 162.44 42.6347 161.928 42.832C161.421 43.0293 160.845 43.128 160.2 43.128C159.832 43.128 159.464 43.0907 159.096 43.016C158.733 42.9413 158.381 42.8373 158.04 42.704C157.704 42.5707 157.387 42.4107 157.088 42.224C156.789 42.0373 156.528 41.8293 156.304 41.6L157.008 40.464C157.067 40.3787 157.144 40.3093 157.24 40.256C157.336 40.1973 157.437 40.168 157.544 40.168C157.688 40.168 157.84 40.2213 158 40.328C158.16 40.4347 158.344 40.552 158.552 40.68C158.76 40.808 159 40.9253 159.272 41.032C159.549 41.1387 159.88 41.192 160.264 41.192C160.824 41.192 161.256 41.064 161.56 40.808C161.869 40.552 162.024 40.1707 162.024 39.664C162.024 39.3707 161.947 39.1333 161.792 38.952C161.643 38.7707 161.445 38.6187 161.2 38.496C160.955 38.3733 160.675 38.2693 160.36 38.184C160.045 38.0933 159.723 37.9947 159.392 37.888C159.061 37.7813 158.739 37.6533 158.424 37.504C158.109 37.3547 157.829 37.1573 157.584 36.912C157.339 36.6667 157.139 36.3627 156.984 36C156.835 35.6373 156.76 35.1867 156.76 34.648C156.76 34.216 156.845 33.7973 157.016 33.392C157.187 32.9867 157.437 32.6267 157.768 32.312C158.099 31.9973 158.504 31.744 158.984 31.552C159.469 31.36 160.024 31.264 160.648 31.264C161.347 31.264 161.992 31.3733 162.584 31.592C163.181 31.8053 163.685 32.104 164.096 32.488L163.504 33.616ZM169.949 37.168C170.701 37.168 171.25 36.9867 171.597 36.624C171.949 36.2613 172.125 35.7653 172.125 35.136C172.125 34.848 172.079 34.5867 171.989 34.352C171.903 34.112 171.77 33.9093 171.589 33.744C171.413 33.5733 171.189 33.4427 170.917 33.352C170.645 33.2613 170.322 33.216 169.949 33.216H168.429V37.168H169.949ZM169.949 31.392C170.743 31.392 171.429 31.4853 172.005 31.672C172.586 31.8587 173.063 32.12 173.437 32.456C173.81 32.7867 174.085 33.1813 174.261 33.64C174.442 34.0987 174.533 34.5973 174.533 35.136C174.533 35.7067 174.439 36.2293 174.253 36.704C174.066 37.1787 173.783 37.5867 173.405 37.928C173.026 38.2693 172.549 38.536 171.973 38.728C171.397 38.9147 170.722 39.008 169.949 39.008H168.429V43H166.029V31.392H169.949ZM178.476 33.272V36.256H182.348V38.072H178.476V41.12H183.452V43H176.06V31.392H183.452V33.272H178.476ZM192.917 40.144C193.05 40.144 193.162 40.192 193.253 40.288L194.205 41.304C193.736 41.9013 193.152 42.3547 192.453 42.664C191.76 42.9733 190.933 43.128 189.973 43.128C189.104 43.128 188.322 42.9813 187.629 42.688C186.936 42.3893 186.346 41.976 185.861 41.448C185.376 40.92 185.002 40.2933 184.741 39.568C184.48 38.8427 184.349 38.0507 184.349 37.192C184.349 36.616 184.41 36.0693 184.533 35.552C184.661 35.0293 184.845 34.5493 185.085 34.112C185.325 33.6747 185.613 33.28 185.949 32.928C186.29 32.576 186.674 32.2773 187.101 32.032C187.528 31.7813 187.992 31.592 188.493 31.464C189 31.3307 189.538 31.264 190.109 31.264C190.536 31.264 190.938 31.3013 191.317 31.376C191.701 31.4507 192.058 31.5547 192.389 31.688C192.72 31.8213 193.024 31.984 193.301 32.176C193.584 32.3627 193.837 32.568 194.061 32.792L193.253 33.896C193.205 33.9653 193.144 34.0267 193.069 34.08C192.994 34.1333 192.893 34.16 192.765 34.16C192.637 34.16 192.506 34.1147 192.373 34.024C192.245 33.9333 192.085 33.832 191.893 33.72C191.706 33.608 191.469 33.5067 191.181 33.416C190.898 33.3253 190.538 33.28 190.101 33.28C189.616 33.28 189.17 33.368 188.765 33.544C188.36 33.72 188.01 33.976 187.717 34.312C187.429 34.6427 187.205 35.0507 187.045 35.536C186.885 36.0213 186.805 36.5733 186.805 37.192C186.805 37.816 186.89 38.3733 187.061 38.864C187.237 39.3493 187.474 39.76 187.773 40.096C188.077 40.432 188.429 40.688 188.829 40.864C189.234 41.0347 189.666 41.12 190.125 41.12C190.397 41.12 190.642 41.1067 190.861 41.08C191.085 41.0533 191.29 41.008 191.477 40.944C191.669 40.88 191.848 40.7973 192.013 40.696C192.184 40.5947 192.354 40.4667 192.525 40.312C192.584 40.264 192.645 40.224 192.709 40.192C192.773 40.16 192.842 40.144 192.917 40.144ZM197.976 43H195.56V31.392H197.976V43ZM206.532 38.592L205.276 35.04C205.201 34.8533 205.121 34.6347 205.036 34.384C204.956 34.1333 204.878 33.8613 204.804 33.568C204.729 33.8667 204.649 34.144 204.564 34.4C204.484 34.6507 204.406 34.8693 204.332 35.056L203.084 38.592H206.532ZM210.564 43H208.7C208.492 43 208.321 42.952 208.188 42.856C208.06 42.7547 207.964 42.6267 207.9 42.472L207.116 40.256H202.492L201.708 42.472C201.654 42.6053 201.561 42.728 201.428 42.84C201.294 42.9467 201.126 43 200.924 43H199.043L203.58 31.392H206.036L210.564 43ZM218.526 41.048V43H211.638V31.392H214.038V41.048H218.526Z" fill="white"/>
<path d="M161.171 53.918C161.171 54.66 161.045 55.3437 160.793 55.969C160.546 56.5897 160.193 57.124 159.736 57.572C159.283 58.02 158.737 58.37 158.098 58.622C157.459 58.874 156.749 59 155.97 59H152.064V48.843H155.97C156.749 48.843 157.459 48.969 158.098 49.221C158.737 49.473 159.283 49.8253 159.736 50.278C160.193 50.726 160.546 51.2603 160.793 51.881C161.045 52.5017 161.171 53.1807 161.171 53.918ZM159.015 53.918C159.015 53.386 158.945 52.9077 158.805 52.483C158.665 52.0583 158.464 51.699 158.203 51.405C157.942 51.111 157.622 50.8847 157.244 50.726C156.871 50.5673 156.446 50.488 155.97 50.488H154.178V57.355H155.97C156.446 57.355 156.871 57.278 157.244 57.124C157.622 56.9653 157.942 56.739 158.203 56.445C158.464 56.1463 158.665 55.7847 158.805 55.36C158.945 54.9353 159.015 54.4547 159.015 53.918ZM164.828 59H162.714V48.843H164.828V59ZM172.455 50.789C172.389 50.8963 172.322 50.9757 172.252 51.027C172.186 51.0737 172.1 51.097 171.993 51.097C171.89 51.097 171.778 51.062 171.657 50.992C171.54 50.9173 171.402 50.838 171.244 50.754C171.085 50.67 170.903 50.593 170.698 50.523C170.492 50.4483 170.252 50.411 169.977 50.411C169.491 50.411 169.127 50.5207 168.885 50.74C168.642 50.9547 168.521 51.237 168.521 51.587C168.521 51.811 168.586 51.9977 168.717 52.147C168.852 52.2917 169.027 52.4177 169.242 52.525C169.461 52.6323 169.708 52.728 169.984 52.812C170.259 52.896 170.541 52.9893 170.831 53.092C171.12 53.19 171.402 53.3067 171.678 53.442C171.953 53.5773 172.198 53.7477 172.413 53.953C172.632 54.1583 172.807 54.4103 172.938 54.709C173.073 55.003 173.141 55.3623 173.141 55.787C173.141 56.249 173.059 56.683 172.896 57.089C172.737 57.4903 172.506 57.8427 172.203 58.146C171.899 58.4447 171.524 58.6803 171.076 58.853C170.632 59.0257 170.128 59.112 169.564 59.112C169.242 59.112 168.92 59.0793 168.598 59.014C168.28 58.9487 167.972 58.8577 167.674 58.741C167.38 58.6243 167.102 58.4843 166.841 58.321C166.579 58.1577 166.351 57.9757 166.155 57.775L166.771 56.781C166.822 56.7063 166.89 56.6457 166.974 56.599C167.058 56.5477 167.146 56.522 167.24 56.522C167.366 56.522 167.499 56.5687 167.639 56.662C167.779 56.7553 167.94 56.858 168.122 56.97C168.304 57.082 168.514 57.1847 168.752 57.278C168.994 57.3713 169.284 57.418 169.62 57.418C170.11 57.418 170.488 57.306 170.754 57.082C171.024 56.858 171.16 56.5243 171.16 56.081C171.16 55.8243 171.092 55.6167 170.957 55.458C170.826 55.2993 170.653 55.1663 170.439 55.059C170.224 54.9517 169.979 54.8607 169.704 54.786C169.428 54.7067 169.146 54.6203 168.857 54.527C168.567 54.4337 168.285 54.3217 168.01 54.191C167.734 54.0603 167.489 53.8877 167.275 53.673C167.06 53.4583 166.885 53.1923 166.75 52.875C166.619 52.5577 166.554 52.1633 166.554 51.692C166.554 51.314 166.628 50.9477 166.778 50.593C166.927 50.2383 167.146 49.9233 167.436 49.648C167.725 49.3727 168.08 49.151 168.5 48.983C168.924 48.815 169.41 48.731 169.956 48.731C170.567 48.731 171.132 48.8267 171.65 49.018C172.172 49.2047 172.613 49.466 172.973 49.802L172.455 50.789ZM181.58 56.501C181.696 56.501 181.794 56.543 181.874 56.627L182.707 57.516C182.296 58.0387 181.785 58.4353 181.174 58.706C180.567 58.9767 179.844 59.112 179.004 59.112C178.243 59.112 177.559 58.9837 176.953 58.727C176.346 58.4657 175.83 58.104 175.406 57.642C174.981 57.18 174.654 56.6317 174.426 55.997C174.197 55.3623 174.083 54.6693 174.083 53.918C174.083 53.414 174.136 52.9357 174.244 52.483C174.356 52.0257 174.517 51.6057 174.727 51.223C174.937 50.8403 175.189 50.495 175.483 50.187C175.781 49.879 176.117 49.6177 176.491 49.403C176.864 49.1837 177.27 49.018 177.709 48.906C178.152 48.7893 178.623 48.731 179.123 48.731C179.496 48.731 179.848 48.7637 180.18 48.829C180.516 48.8943 180.828 48.9853 181.118 49.102C181.407 49.2187 181.673 49.361 181.916 49.529C182.163 49.6923 182.385 49.872 182.581 50.068L181.874 51.034C181.832 51.0947 181.778 51.1483 181.713 51.195C181.647 51.2417 181.559 51.265 181.447 51.265C181.335 51.265 181.22 51.2253 181.104 51.146C180.992 51.0667 180.852 50.978 180.684 50.88C180.52 50.782 180.313 50.6933 180.061 50.614C179.813 50.5347 179.498 50.495 179.116 50.495C178.691 50.495 178.301 50.572 177.947 50.726C177.592 50.88 177.286 51.104 177.03 51.398C176.778 51.6873 176.582 52.0443 176.442 52.469C176.302 52.8937 176.232 53.3767 176.232 53.918C176.232 54.464 176.306 54.9517 176.456 55.381C176.61 55.8057 176.817 56.165 177.079 56.459C177.345 56.753 177.653 56.977 178.003 57.131C178.357 57.2803 178.735 57.355 179.137 57.355C179.375 57.355 179.589 57.3433 179.781 57.32C179.977 57.2967 180.156 57.257 180.32 57.201C180.488 57.145 180.644 57.0727 180.789 56.984C180.938 56.8953 181.087 56.7833 181.237 56.648C181.288 56.606 181.342 56.571 181.398 56.543C181.454 56.515 181.514 56.501 181.58 56.501ZM193.487 53.918C193.487 54.66 193.361 55.3483 193.109 55.983C192.862 56.6177 192.51 57.166 192.052 57.628C191.6 58.09 191.054 58.454 190.414 58.72C189.775 58.9813 189.066 59.112 188.286 59.112C187.507 59.112 186.798 58.9813 186.158 58.72C185.519 58.454 184.971 58.09 184.513 57.628C184.056 57.166 183.701 56.6177 183.449 55.983C183.202 55.3483 183.078 54.66 183.078 53.918C183.078 53.176 183.202 52.49 183.449 51.86C183.701 51.2253 184.056 50.677 184.513 50.215C184.971 49.753 185.519 49.3913 186.158 49.13C186.798 48.864 187.507 48.731 188.286 48.731C189.066 48.731 189.775 48.864 190.414 49.13C191.054 49.3913 191.6 49.7553 192.052 50.222C192.51 50.684 192.862 51.2323 193.109 51.867C193.361 52.497 193.487 53.1807 193.487 53.918ZM191.338 53.918C191.338 53.386 191.268 52.91 191.128 52.49C190.988 52.0653 190.785 51.706 190.519 51.412C190.258 51.1133 189.938 50.887 189.56 50.733C189.187 50.5743 188.762 50.495 188.286 50.495C187.81 50.495 187.383 50.5743 187.005 50.733C186.627 50.887 186.305 51.1133 186.039 51.412C185.778 51.706 185.577 52.0653 185.437 52.49C185.297 52.91 185.227 53.386 185.227 53.918C185.227 54.4547 185.297 54.9353 185.437 55.36C185.577 55.78 185.778 56.137 186.039 56.431C186.305 56.725 186.627 56.9513 187.005 57.11C187.383 57.264 187.81 57.341 188.286 57.341C188.762 57.341 189.187 57.264 189.56 57.11C189.938 56.9513 190.258 56.725 190.519 56.431C190.785 56.137 190.988 55.78 191.128 55.36C191.268 54.9353 191.338 54.4547 191.338 53.918ZM199.179 57.32C199.52 57.32 199.825 57.264 200.096 57.152C200.367 57.0353 200.595 56.872 200.782 56.662C200.969 56.452 201.111 56.1977 201.209 55.899C201.307 55.6003 201.356 55.2643 201.356 54.891V48.843H203.456V54.891C203.456 55.507 203.356 56.074 203.155 56.592C202.959 57.1053 202.677 57.5487 202.308 57.922C201.939 58.2953 201.491 58.587 200.964 58.797C200.437 59.007 199.842 59.112 199.179 59.112C198.516 59.112 197.919 59.007 197.387 58.797C196.86 58.587 196.412 58.2953 196.043 57.922C195.674 57.5487 195.39 57.1053 195.189 56.592C194.993 56.074 194.895 55.507 194.895 54.891V48.843H196.995V54.891C196.995 55.2643 197.044 55.6003 197.142 55.899C197.24 56.1977 197.382 56.452 197.569 56.662C197.756 56.872 197.984 57.0353 198.255 57.152C198.526 57.264 198.834 57.32 199.179 57.32ZM214.154 48.843V59H213.069C212.905 59 212.768 58.9743 212.656 58.923C212.544 58.867 212.434 58.7737 212.327 58.643L207.266 52.203C207.28 52.3663 207.289 52.5273 207.294 52.686C207.303 52.8447 207.308 52.9917 207.308 53.127V59H205.453V48.843H206.559C206.647 48.843 206.722 48.8477 206.783 48.857C206.848 48.8617 206.906 48.878 206.958 48.906C207.009 48.9293 207.058 48.962 207.105 49.004C207.151 49.046 207.203 49.102 207.259 49.172L212.355 55.64C212.336 55.4627 212.322 55.2923 212.313 55.129C212.303 54.961 212.299 54.8023 212.299 54.653V48.843H214.154ZM223.47 50.537H220.502V59H218.395V50.537H215.427V48.843H223.47V50.537Z" fill="white"/>
<path d="M152 87.0001L152 111.892L152.86 111.892L152.86 87.0001L152 87.0001Z" fill="white"/>
<path d="M153.801 86.9999L153.801 111.892L154.247 111.892L154.247 86.9999L153.801 86.9999Z" fill="white"/>
<path d="M155.301 87.0003L155.301 108.908L156.539 108.908L156.539 87.0003L155.301 87.0003Z" fill="white"/>
<path d="M157.594 87.0003L157.594 108.908L158.04 108.908L158.04 87.0003L157.594 87.0003Z" fill="white"/>
<path d="M159.227 87.0003L159.227 108.908L160.201 108.908L160.201 87.0003L159.227 87.0003Z" fill="white"/>
<path d="M160.941 87.0003L160.941 108.908L161.387 108.908L161.387 87.0003L160.941 87.0003Z" fill="white"/>
<path d="M161.953 87.0003L161.953 108.908L162.399 108.908L162.399 87.0003L161.953 87.0003Z" fill="white"/>
<path d="M162.977 87.0003L162.977 108.908L164.037 108.908L164.037 87.0003L162.977 87.0003Z" fill="white"/>
<path d="M165.18 87.0003L165.18 108.908L165.626 108.908L165.626 87.0003L165.18 87.0003Z" fill="white"/>
<path d="M167.074 87.0003L167.074 108.908L167.52 108.908L167.52 87.0003L167.074 87.0003Z" fill="white"/>
<path d="M166.781 87.0003L166.781 108.908L166.937 108.908L166.937 87.0003L166.781 87.0003Z" fill="white"/>
<path d="M170.062 87.0003L170.062 108.908L170.218 108.908L170.218 87.0003L170.062 87.0003Z" fill="white"/>
<path d="M177.863 87.0003L177.863 108.908L178.019 108.908L178.019 87.0003L177.863 87.0003Z" fill="white"/>
<path d="M183.477 87.0003L183.477 108.908L183.633 108.908L183.633 87.0003L183.477 87.0003Z" fill="white"/>
<path d="M211.703 87.0003L211.703 108.908L211.859 108.908L211.859 87.0003L211.703 87.0003Z" fill="white"/>
<path d="M209.242 87.0003L209.242 108.908L209.398 108.908L209.398 87.0003L209.242 87.0003Z" fill="white"/>
<path d="M220.922 87.0003L220.922 108.908L221.078 108.908L221.078 87.0003L220.922 87.0003Z" fill="white"/>
<path d="M226.754 87.0003L226.754 108.908L226.91 108.908L226.91 87.0003L226.754 87.0003Z" fill="white"/>
<path d="M203.836 87.0003L203.836 108.908L203.992 108.908L203.992 87.0003L203.836 87.0003Z" fill="white"/>
<path d="M156.895 87.0003L156.895 108.908L157.05 108.908L157.05 87.0003L156.895 87.0003Z" fill="white"/>
<path d="M168.551 87.0003L168.551 108.908L169.84 108.908L169.84 87.0003L168.551 87.0003Z" fill="white"/>
<path d="M170.867 87.0003L170.867 108.908L171.313 108.908L171.313 87.0003L170.867 87.0003Z" fill="white"/>
<path d="M184.871 87.0003L184.871 108.908L185.317 108.908L185.317 87.0003L184.871 87.0003Z" fill="white"/>
<path d="M171.781 87.0003L171.781 108.908L172.227 108.908L172.227 87.0003L171.781 87.0003Z" fill="white"/>
<path d="M172.766 87.0003L172.766 108.908L173.212 108.908L173.212 87.0003L172.766 87.0003Z" fill="white"/>
<path d="M174.66 87.0003L174.66 108.908L175.106 108.908L175.106 87.0003L174.66 87.0003Z" fill="white"/>
<path d="M176.055 87.0003L176.055 108.908L177.502 108.908L177.502 87.0003L176.055 87.0003Z" fill="white"/>
<path d="M178.453 87.0003L178.453 108.908L178.899 108.908L178.899 87.0003L178.453 87.0003Z" fill="white"/>
<path d="M180.352 87.0003L180.352 108.908L180.798 108.908L180.798 87.0003L180.352 87.0003Z" fill="white"/>
<path d="M181.742 87.0003L181.742 108.908L183.192 108.908L183.192 87.0003L181.742 87.0003Z" fill="white"/>
<path d="M184.148 87.0003L184.148 108.908L184.594 108.908L184.594 87.0003L184.148 87.0003Z" fill="white"/>
<path d="M186.531 87.0003L186.531 108.908L186.977 108.908L186.977 87.0003L186.531 87.0003Z" fill="white"/>
<path d="M187.539 87.0003L187.539 108.908L188.775 108.908L188.775 87.0003L187.539 87.0003Z" fill="white"/>
<path d="M189.832 87.0002L189.832 111.955L190.278 111.955L190.278 87.0002L189.832 87.0002Z" fill="white"/>
<path d="M191.617 87.0002L191.617 111.955L192.063 111.955L192.063 87.0002L191.617 87.0002Z" fill="white"/>
<path d="M193.625 87.0003L193.625 108.908L194.071 108.908L194.071 87.0003L193.625 87.0003Z" fill="white"/>
<path d="M194.363 87.0003L194.363 108.908L194.809 108.908L194.809 87.0003L194.363 87.0003Z" fill="white"/>
<path d="M195.539 87.0003L195.539 108.908L196.329 108.908L196.329 87.0003L195.539 87.0003Z" fill="white"/>
<path d="M197.418 87.0003L197.418 108.908L197.864 108.908L197.864 87.0003L197.418 87.0003Z" fill="white"/>
<path d="M198.902 87.0003L198.902 108.908L200.174 108.908L200.174 87.0003L198.902 87.0003Z" fill="white"/>
<path d="M201.211 87.0003L201.211 108.908L201.657 108.908L201.657 87.0003L201.211 87.0003Z" fill="white"/>
<path d="M203.109 87.0003L203.109 108.908L203.555 108.908L203.555 87.0003L203.109 87.0003Z" fill="white"/>
<path d="M204.68 87.0003L204.68 108.908L205.774 108.908L205.774 87.0003L204.68 87.0003Z" fill="white"/>
<path d="M206.898 87.0003L206.898 108.908L207.344 108.908L207.344 87.0003L206.898 87.0003Z" fill="white"/>
<path d="M208.305 87.0003L208.305 108.908L208.751 108.908L208.751 87.0003L208.305 87.0003Z" fill="white"/>
<path d="M210.695 87.0003L210.695 108.908L211.141 108.908L211.141 87.0003L210.695 87.0003Z" fill="white"/>
<path d="M213.355 87.0003L213.355 108.908L214.24 108.908L214.24 87.0003L213.355 87.0003Z" fill="white"/>
<path d="M214.484 87.0003L214.484 108.908L214.93 108.908L214.93 87.0003L214.484 87.0003Z" fill="white"/>
<path d="M216.875 87.0003L216.875 108.908L217.321 108.908L217.321 87.0003L216.875 87.0003Z" fill="white"/>
<path d="M218.055 87.0003L218.055 108.908L218.947 108.908L218.947 87.0003L218.055 87.0003Z" fill="white"/>
<path d="M220.176 87.0003L220.176 108.908L220.622 108.908L220.622 87.0003L220.176 87.0003Z" fill="white"/>
<path d="M222.07 87.0003L222.07 108.908L222.516 108.908L222.516 87.0003L222.07 87.0003Z" fill="white"/>
<path d="M223.746 87.0003L223.746 108.908L224.638 108.908L224.638 87.0003L223.746 87.0003Z" fill="white"/>
<path d="M225.867 87.0003L225.867 108.908L226.313 108.908L226.313 87.0003L225.867 87.0003Z" fill="white"/>
<path d="M227.762 87.0003L227.762 108.908L228.961 108.908L228.961 87.0003L227.762 87.0003Z" fill="white"/>
<path d="M229.656 87.0002L229.656 111.955L230.102 111.955L230.102 87.0002L229.656 87.0002Z" fill="white"/>
<path d="M231.555 87.0002L231.555 111.955L232.001 111.955L232.001 87.0002L231.555 87.0002Z" fill="white"/>
<path d="M161.984 111.416C161.986 111.289 162.03 111.166 162.11 111.063C162.189 110.961 162.3 110.885 162.428 110.847V110.847C162.326 110.81 162.237 110.745 162.174 110.66C162.11 110.575 162.075 110.474 162.072 110.37C162.076 110.289 162.097 110.209 162.134 110.136C162.171 110.063 162.224 109.997 162.289 109.944C162.354 109.891 162.429 109.851 162.511 109.827C162.593 109.803 162.679 109.795 162.764 109.803C162.844 109.794 162.924 109.8 163.001 109.821C163.078 109.843 163.15 109.879 163.211 109.929C163.272 109.978 163.322 110.039 163.357 110.107C163.392 110.175 163.412 110.25 163.415 110.326C163.413 110.435 163.377 110.54 163.312 110.629C163.246 110.718 163.154 110.785 163.047 110.824V110.824C163.173 110.859 163.284 110.933 163.364 111.032C163.444 111.132 163.488 111.254 163.49 111.379C163.486 111.468 163.462 111.554 163.42 111.634C163.379 111.714 163.321 111.785 163.25 111.843C163.179 111.901 163.096 111.944 163.007 111.97C162.917 111.997 162.823 112.006 162.73 111.996C162.272 111.992 161.984 111.726 161.984 111.416ZM163.188 111.402C163.188 111.145 163.001 111.02 162.701 110.939C162.591 110.958 162.492 111.011 162.419 111.091C162.345 111.17 162.303 111.271 162.299 111.376C162.297 111.432 162.307 111.487 162.329 111.538C162.352 111.59 162.385 111.636 162.427 111.674C162.47 111.713 162.52 111.742 162.575 111.76C162.63 111.779 162.689 111.786 162.747 111.781C162.803 111.786 162.859 111.78 162.912 111.763C162.965 111.746 163.014 111.719 163.055 111.683C163.097 111.648 163.13 111.604 163.153 111.556C163.176 111.507 163.188 111.455 163.188 111.402ZM162.355 110.34C162.355 110.553 162.525 110.666 162.784 110.733C162.877 110.712 162.96 110.663 163.021 110.594C163.082 110.524 163.118 110.438 163.122 110.347C163.125 110.3 163.118 110.252 163.1 110.208C163.081 110.164 163.054 110.124 163.018 110.091C162.982 110.058 162.939 110.033 162.892 110.017C162.845 110.001 162.794 109.996 162.745 110C162.695 109.996 162.645 110.002 162.598 110.017C162.551 110.032 162.507 110.056 162.471 110.088C162.434 110.12 162.405 110.159 162.385 110.203C162.365 110.246 162.355 110.293 162.355 110.34V110.34Z" fill="white"/>
<path d="M165.707 111.751C165.788 111.759 165.869 111.759 165.95 111.751C166.125 111.731 166.289 111.659 166.418 111.545C166.584 111.396 166.689 111.196 166.716 110.981L166.703 110.981C166.64 111.055 166.56 111.114 166.469 111.155C166.377 111.195 166.278 111.214 166.177 111.212C166.088 111.214 165.999 111.198 165.916 111.166C165.834 111.133 165.759 111.085 165.697 111.024C165.635 110.963 165.587 110.891 165.556 110.811C165.525 110.732 165.512 110.647 165.517 110.562C165.513 110.464 165.53 110.367 165.566 110.276C165.603 110.184 165.658 110.101 165.729 110.03C165.8 109.96 165.886 109.904 165.98 109.865C166.075 109.826 166.176 109.806 166.279 109.806C166.738 109.806 167.01 110.16 167.01 110.701C167.021 110.883 166.992 111.066 166.926 111.237C166.86 111.409 166.758 111.565 166.625 111.698C166.447 111.858 166.219 111.958 165.975 111.983C165.883 111.997 165.79 112.003 165.697 111.999L165.707 111.751ZM165.816 110.53C165.808 110.588 165.813 110.647 165.831 110.703C165.848 110.759 165.879 110.81 165.919 110.854C165.96 110.898 166.01 110.933 166.066 110.957C166.123 110.981 166.184 110.993 166.245 110.992C166.334 110.996 166.422 110.976 166.5 110.935C166.577 110.894 166.642 110.834 166.686 110.761C166.707 110.73 166.717 110.694 166.716 110.657C166.716 110.294 166.574 110.016 166.257 110.016C165.999 110.014 165.816 110.222 165.816 110.53V110.53Z" fill="white"/>
<path d="M168.706 111.624C168.854 111.708 169.022 111.754 169.194 111.758C169.581 111.758 169.703 111.527 169.698 111.346C169.698 111.05 169.413 110.923 169.121 110.923L168.952 110.923L168.952 110.705L169.121 110.705C169.34 110.705 169.62 110.599 169.62 110.347C169.62 110.176 169.506 110.028 169.228 110.028C169.067 110.032 168.912 110.08 168.779 110.166L168.701 109.958C168.875 109.851 169.079 109.794 169.286 109.794C169.727 109.794 169.927 110.044 169.927 110.301C169.925 110.415 169.883 110.526 169.808 110.616C169.734 110.707 169.63 110.771 169.513 110.8V110.8C169.649 110.822 169.772 110.889 169.862 110.989C169.951 111.089 170 111.215 170 111.346C170 111.686 169.72 111.985 169.184 111.985C168.98 111.987 168.778 111.937 168.602 111.839L168.706 111.624Z" fill="white"/>
<path d="M173.198 109.831L173.198 110.021L172.223 111.955L171.908 111.955L172.883 110.076L171.789 110.076L171.789 109.845L173.198 109.831Z" fill="white"/>
<path d="M174.852 111.955L174.852 111.779L175.095 111.548C175.665 111.032 175.924 110.757 175.929 110.437C175.935 110.381 175.928 110.324 175.908 110.27C175.887 110.216 175.855 110.168 175.812 110.128C175.77 110.088 175.718 110.058 175.662 110.039C175.605 110.021 175.545 110.014 175.485 110.021C175.31 110.027 175.142 110.091 175.01 110.201L174.912 110C175.09 109.858 175.314 109.781 175.546 109.783C175.635 109.775 175.725 109.785 175.809 109.813C175.894 109.841 175.971 109.886 176.036 109.944C176.1 110.003 176.151 110.074 176.185 110.152C176.219 110.231 176.234 110.315 176.231 110.4C176.231 110.794 175.931 111.11 175.461 111.541L175.28 111.698L176.287 111.698L176.287 111.929L174.852 111.955Z" fill="white"/>
<path d="M179.234 110.032C179.157 110.03 179.08 110.034 179.005 110.046C178.805 110.073 178.621 110.161 178.48 110.298C178.34 110.434 178.251 110.611 178.227 110.801V110.801C178.317 110.691 178.441 110.612 178.582 110.575C178.723 110.538 178.872 110.545 179.008 110.594C179.145 110.644 179.261 110.733 179.339 110.85C179.418 110.967 179.455 111.104 179.446 111.242C179.451 111.338 179.437 111.433 179.403 111.523C179.369 111.612 179.316 111.694 179.248 111.764C179.179 111.834 179.097 111.891 179.005 111.93C178.914 111.969 178.815 111.99 178.715 111.992C178.227 111.992 177.923 111.638 177.923 111.085C177.91 110.731 178.046 110.387 178.3 110.127C178.497 109.952 178.748 109.842 179.017 109.815C179.09 109.804 179.164 109.798 179.239 109.799L179.234 110.032ZM179.146 111.259C179.154 111.197 179.149 111.134 179.129 111.075C179.11 111.016 179.077 110.961 179.033 110.915C178.99 110.869 178.936 110.832 178.876 110.808C178.816 110.783 178.751 110.771 178.685 110.773C178.595 110.774 178.506 110.799 178.429 110.845C178.353 110.891 178.291 110.957 178.252 111.034C178.228 111.073 178.216 111.117 178.217 111.161C178.217 111.511 178.393 111.77 178.705 111.77C178.97 111.77 179.146 111.562 179.146 111.259Z" fill="white"/>
<path d="M181.719 110.099L181.332 110.298L181.273 110.079L181.761 109.831L182.004 109.831L182.004 111.955L181.712 111.955L181.719 110.099Z" fill="white"/>
<path d="M203.516 111.955L203.516 111.779L203.759 111.548C204.33 111.032 204.588 110.757 204.593 110.437C204.599 110.381 204.591 110.323 204.571 110.27C204.55 110.216 204.517 110.168 204.474 110.128C204.432 110.088 204.38 110.058 204.323 110.039C204.267 110.021 204.206 110.014 204.147 110.021C203.972 110.028 203.805 110.091 203.674 110.201L203.577 110C203.754 109.858 203.978 109.781 204.21 109.783C204.299 109.775 204.389 109.785 204.473 109.813C204.558 109.841 204.635 109.886 204.7 109.944C204.765 110.003 204.815 110.074 204.849 110.152C204.883 110.231 204.898 110.315 204.895 110.4C204.895 110.794 204.595 111.11 204.125 111.541L203.945 111.698L204.951 111.698L204.951 111.929L203.516 111.955Z" fill="white"/>
<path d="M208.084 109.831L208.084 110.021L207.11 111.955L206.795 111.955L207.77 110.076L206.676 110.076L206.676 109.845L208.084 109.831Z" fill="white"/>
<path d="M209.802 111.624C209.949 111.708 210.117 111.754 210.289 111.758C210.679 111.758 210.801 111.527 210.796 111.346C210.796 111.05 210.511 110.923 210.218 110.923L210.05 110.923L210.05 110.705L210.218 110.705C210.438 110.705 210.706 110.599 210.706 110.347C210.706 110.176 210.591 110.028 210.313 110.028C210.153 110.031 209.997 110.08 209.865 110.166L209.785 109.958C209.959 109.851 210.163 109.794 210.372 109.794C210.81 109.794 211.01 110.044 211.01 110.301C211.008 110.415 210.967 110.526 210.893 110.616C210.818 110.706 210.715 110.771 210.598 110.8C210.737 110.82 210.863 110.885 210.955 110.985C211.046 111.086 211.097 111.214 211.098 111.346C211.098 111.686 210.818 111.985 210.282 111.985C210.077 111.987 209.876 111.937 209.699 111.839L209.802 111.624Z" fill="white"/>
<path d="M214.114 110.032C214.038 110.03 213.962 110.034 213.887 110.046C213.688 110.073 213.504 110.161 213.363 110.298C213.222 110.434 213.133 110.611 213.11 110.801V110.801C213.2 110.691 213.324 110.612 213.465 110.575C213.605 110.538 213.755 110.545 213.891 110.594C214.027 110.644 214.143 110.733 214.222 110.85C214.301 110.967 214.338 111.104 214.328 111.242C214.334 111.338 214.319 111.433 214.285 111.522C214.251 111.612 214.198 111.694 214.13 111.764C214.062 111.834 213.979 111.89 213.888 111.929C213.796 111.968 213.698 111.99 213.597 111.992C213.11 111.992 212.805 111.638 212.805 111.085C212.793 110.731 212.929 110.387 213.183 110.127C213.379 109.951 213.631 109.841 213.9 109.815C213.972 109.804 214.045 109.799 214.119 109.799L214.114 110.032ZM214.029 111.259C214.037 111.197 214.032 111.134 214.012 111.075C213.993 111.016 213.96 110.961 213.916 110.915C213.872 110.869 213.819 110.832 213.759 110.808C213.699 110.783 213.634 110.771 213.568 110.773C213.477 110.774 213.389 110.799 213.312 110.845C213.235 110.891 213.174 110.957 213.134 111.034C213.11 111.073 213.098 111.117 213.1 111.161C213.1 111.511 213.276 111.77 213.588 111.77C213.853 111.77 214.029 111.562 214.029 111.259Z" fill="white"/>
<path d="M216.614 110.099L216.226 110.298L216.168 110.079L216.655 109.831L216.914 109.831L216.914 111.955L216.614 111.955L216.614 110.099Z" fill="white"/>
<path d="M220.538 110.87C220.538 111.592 220.256 111.992 219.758 111.992C219.322 111.992 219.027 111.601 219.027 110.9C219.027 110.199 219.351 109.794 219.807 109.794C220.263 109.794 220.538 110.194 220.538 110.87ZM219.32 110.902C219.32 111.455 219.498 111.77 219.773 111.77C220.048 111.77 220.231 111.425 220.231 110.884C220.231 110.342 220.09 110.016 219.778 110.016C219.515 110.016 219.322 110.324 219.322 110.902L219.32 110.902Z" fill="white"/>
<path d="M165.315 72V68.78H165.86V71.58H167.51V72H165.315ZM167.942 72V68.78H168.487V72H167.942ZM169.119 72V68.78H169.679L170.699 70.865L171.714 68.78H172.274V72H171.734V69.665L170.864 71.445H170.534L169.659 69.665V72H169.119ZM172.903 72V68.78H173.448V72H172.903ZM174.915 72V69.205H173.885V68.78H176.485V69.205H175.46V72H174.915ZM176.921 72V68.78H179.166V69.205H177.466V70.18H178.981V70.6H177.466V71.58H179.166V72H176.921ZM179.67 72V68.78H180.975C181.452 68.78 181.805 68.9067 182.035 69.16C182.265 69.41 182.38 69.8267 182.38 70.41C182.38 70.96 182.267 71.3633 182.04 71.62C181.814 71.8733 181.459 72 180.975 72H179.67ZM180.215 71.58H180.89C181.1 71.58 181.275 71.55 181.415 71.49C181.555 71.4267 181.66 71.31 181.73 71.14C181.8 70.97 181.835 70.7267 181.835 70.41C181.835 70.0933 181.804 69.8483 181.74 69.675C181.677 69.5017 181.575 69.38 181.435 69.31C181.299 69.24 181.117 69.205 180.89 69.205H180.215V71.58ZM184.905 72V69.205H183.875V68.78H186.475V69.205H185.45V72H184.905ZM186.912 72V68.78H187.457V72H186.912ZM188.088 72V68.78H188.648L189.668 70.865L190.683 68.78H191.243V72H190.703V69.665L189.833 71.445H189.503L188.628 69.665V72H188.088ZM191.873 72V68.78H194.118V69.205H192.418V70.18H193.933V70.6H192.418V71.58H194.118V72H191.873ZM197.199 72.05C196.689 72.05 196.307 71.9167 196.054 71.65C195.801 71.38 195.674 70.9633 195.674 70.4C195.674 69.8133 195.801 69.3883 196.054 69.125C196.307 68.8617 196.689 68.73 197.199 68.73C197.712 68.73 198.094 68.8617 198.344 69.125C198.597 69.3883 198.724 69.8133 198.724 70.4C198.724 70.9633 198.597 71.38 198.344 71.65C198.094 71.9167 197.712 72.05 197.199 72.05ZM197.199 71.59C197.536 71.59 197.782 71.4983 197.939 71.315C198.099 71.1283 198.179 70.8233 198.179 70.4C198.179 69.9533 198.099 69.6417 197.939 69.465C197.782 69.285 197.536 69.195 197.199 69.195C196.866 69.195 196.619 69.285 196.459 69.465C196.302 69.6417 196.224 69.9533 196.224 70.4C196.224 70.8233 196.302 71.1283 196.459 71.315C196.619 71.4983 196.866 71.59 197.199 71.59ZM199.255 72V68.78H201.445V69.205H199.8V70.18H201.26V70.6H199.8V72H199.255ZM201.878 72V68.78H204.068V69.205H202.423V70.18H203.883V70.6H202.423V72H201.878ZM204.5 72V68.78H206.745V69.205H205.045V70.18H206.56V70.6H205.045V71.58H206.745V72H204.5ZM207.249 72V68.78H208.729C209.089 68.78 209.35 68.8733 209.514 69.06C209.68 69.2433 209.764 69.4933 209.764 69.81C209.764 70.0367 209.707 70.23 209.594 70.39C209.48 70.55 209.317 70.6617 209.104 70.725C209.164 70.7683 209.21 70.815 209.244 70.865C209.277 70.915 209.31 70.9817 209.344 71.065L209.749 72H209.189L208.794 71.1C208.757 71.0133 208.712 70.9517 208.659 70.915C208.609 70.8783 208.522 70.86 208.399 70.86H207.794V72H207.249ZM207.794 70.42H208.584C208.78 70.42 208.935 70.3717 209.049 70.275C209.162 70.1783 209.219 70.0233 209.219 69.81C209.219 69.4067 209.024 69.205 208.634 69.205H207.794V70.42Z" fill="white"/>
<defs>
<linearGradient id="paint0_linear_1426_12751" x1="250" y1="0" x2="1.61171e-05" y2="130" gradientUnits="userSpaceOnUse">
<stop stop-color="#0B3D60"/>
<stop offset="1" stop-color="#1175BA"/>
</linearGradient>
</defs>
</svg>
