<svg width="14" height="16" viewBox="0 0 14 16" fill="none" xmlns="http://www.w3.org/2000/svg">
<path fill-rule="evenodd" clip-rule="evenodd" d="M13.4455 2.52231C13.7481 2.52231 14 2.77353 14 3.09319V3.38874C14 3.70063 13.7481 3.95963 13.4455 3.95963H0.555219C0.251891 3.95963 0 3.70063 0 3.38874V3.09319C0 2.77353 0.251891 2.52231 0.555219 2.52231H2.823C3.28366 2.52231 3.68457 2.19487 3.7882 1.73287L3.90696 1.20243C4.09153 0.479884 4.69894 0 5.3941 0H8.6059C9.2935 0 9.90772 0.479884 10.0855 1.16432L10.2126 1.73209C10.3154 2.19487 10.7163 2.52231 11.1778 2.52231H13.4455ZM12.2925 13.3267C12.5293 11.1201 12.9438 5.87798 12.9438 5.82509C12.9589 5.66487 12.9067 5.5132 12.8031 5.39109C12.6919 5.27676 12.5512 5.20909 12.3961 5.20909H1.60792C1.4521 5.20909 1.30384 5.27676 1.20096 5.39109C1.09658 5.5132 1.04514 5.66487 1.0527 5.82509C1.05409 5.83481 1.06897 6.01946 1.09383 6.32817C1.2043 7.69958 1.51198 11.5192 1.7108 13.3267C1.85149 14.6582 2.72517 15.4951 3.99068 15.5254C4.96723 15.548 5.97328 15.5558 7.00202 15.5558C7.97101 15.5558 8.95512 15.548 9.96193 15.5254C11.2713 15.5029 12.1442 14.6808 12.2925 13.3267Z" fill="#F84141"/>
</svg>
