<svg xmlns="http://www.w3.org/2000/svg" width="36" height="36" viewBox="0 0 36 36" fill="none">
  <path fill-rule="evenodd" clip-rule="evenodd" d="M24.4455 12.5223C24.7481 12.5223 25 12.7735 25 13.0932V13.3887C25 13.7006 24.7481 13.9596 24.4455 13.9596H11.5552C11.2519 13.9596 11 13.7006 11 13.3887V13.0932C11 12.7735 11.2519 12.5223 11.5552 12.5223H13.823C14.2837 12.5223 14.6846 12.1949 14.7882 11.7329L14.907 11.2024C15.0915 10.4799 15.6989 10 16.3941 10H19.6059C20.2935 10 20.9077 10.4799 21.0855 11.1643L21.2126 11.7321C21.3154 12.1949 21.7163 12.5223 22.1778 12.5223H24.4455ZM23.2925 23.3267C23.5293 21.1201 23.9438 15.878 23.9438 15.8251C23.9589 15.6649 23.9067 15.5132 23.8031 15.3911C23.6919 15.2768 23.5512 15.2091 23.3961 15.2091H12.6079C12.4521 15.2091 12.3038 15.2768 12.201 15.3911C12.0966 15.5132 12.0451 15.6649 12.0527 15.8251C12.0541 15.8348 12.069 16.0195 12.0938 16.3282C12.2043 17.6996 12.512 21.5192 12.7108 23.3267C12.8515 24.6582 13.7252 25.4951 14.9907 25.5254C15.9672 25.548 16.9733 25.5558 18.002 25.5558C18.971 25.5558 19.9551 25.548 20.9619 25.5254C22.2713 25.5029 23.1442 24.6808 23.2925 23.3267Z" fill="#F84141"/>
</svg>