<svg width="25" height="25" viewBox="0 0 25 25" fill="none" xmlns="http://www.w3.org/2000/svg">
<circle opacity="0.05" cx="12.5" cy="12.5" r="12.5" fill="#F84141"/>
<path fill-rule="evenodd" clip-rule="evenodd" d="M17.3372 8.7516C17.5473 8.7516 17.7222 8.92606 17.7222 9.14805V9.35329C17.7222 9.56988 17.5473 9.74974 17.3372 9.74974H8.38557C8.17492 9.74974 8 9.56988 8 9.35329V9.14805C8 8.92606 8.17492 8.7516 8.38557 8.7516H9.96041C10.2803 8.7516 10.5587 8.52421 10.6307 8.20338L10.7132 7.83502C10.8413 7.33325 11.2632 7 11.7459 7H13.9763C14.4538 7 14.8804 7.33325 15.0038 7.80856L15.0921 8.20284C15.1635 8.52421 15.4419 8.7516 15.7623 8.7516H17.3372ZM16.5363 16.2546C16.7007 14.7222 16.9886 11.0819 16.9886 11.0451C16.9991 10.9339 16.9628 10.8285 16.8909 10.7437C16.8137 10.6643 16.716 10.6174 16.6083 10.6174H9.11646C9.00825 10.6174 8.90529 10.6643 8.83385 10.7437C8.76136 10.8285 8.72564 10.9339 8.73089 11.0451C8.73186 11.0519 8.74219 11.1801 8.75946 11.3945C8.83617 12.3469 9.04984 14.9994 9.1879 16.2546C9.28561 17.1792 9.89233 17.7604 10.7712 17.7815C11.4493 17.7971 12.148 17.8025 12.8624 17.8025C13.5353 17.8025 14.2187 17.7971 14.9179 17.7815C15.8271 17.7658 16.4333 17.1949 16.5363 16.2546Z" fill="#F84141"/>
</svg>
