<svg xmlns="http://www.w3.org/2000/svg" width="16.643" height="17.434" viewBox="0 0 16.643 17.434">
  <path id="noun-delete-4083536" d="M190.412,108.244h-4.056v-.811A2.433,2.433,0,0,0,183.923,105H182.3a2.433,2.433,0,0,0-2.433,2.433v.811h-4.056a.811.811,0,1,0,0,1.622h1.622v8.111a4.056,4.056,0,0,0,4.056,4.056h3.244a4.056,4.056,0,0,0,4.056-4.056v-8.111h1.622a.811.811,0,1,0,0-1.622Zm-8.922-.811a.811.811,0,0,1,.811-.811h1.622a.811.811,0,0,1,.811.811v.811h-3.244Zm5.678,10.545a2.433,2.433,0,0,1-2.433,2.433h-3.244a2.433,2.433,0,0,1-2.433-2.433v-8.111h8.111ZM182.3,112.3v4.056a.811.811,0,1,1-1.622,0V112.3a.811.811,0,1,1,1.622,0Zm3.245,0v4.056a.811.811,0,1,1-1.622,0V112.3a.811.811,0,1,1,1.622,0Z" transform="translate(-174.79 -104.8)" fill="#232323" stroke="#232323" stroke-width="0.4"/>
</svg>