<svg width="17" height="17" viewBox="0 0 17 17" fill="none" xmlns="http://www.w3.org/2000/svg">
<g id="Group 48098407">
<path id="Vector" d="M12.8398 16V11.5" stroke="#222222" stroke-width="1.5" stroke-miterlimit="10" stroke-linecap="round" stroke-linejoin="round"/>
<path id="Vector_2" d="M12.8398 3.25V1" stroke="#222222" stroke-width="1.5" stroke-miterlimit="10" stroke-linecap="round" stroke-linejoin="round"/>
<path id="Vector_3" d="M12.8392 9.25006C14.5846 9.25006 15.9997 7.90687 15.9997 6.25006C15.9997 4.59315 14.5846 3.25 12.8392 3.25C11.0936 3.25 9.67871 4.59315 9.67871 6.25006C9.67871 7.90687 11.0936 9.25006 12.8392 9.25006Z" stroke="#222222" stroke-width="1.5" stroke-miterlimit="10" stroke-linecap="round" stroke-linejoin="round"/>
<path id="Vector_4" d="M4.16016 16V13.75" stroke="#222222" stroke-width="1.5" stroke-miterlimit="10" stroke-linecap="round" stroke-linejoin="round"/>
<path id="Vector_5" d="M4.16016 5.5V1" stroke="#222222" stroke-width="1.5" stroke-miterlimit="10" stroke-linecap="round" stroke-linejoin="round"/>
<path id="Vector_6" d="M4.16049 13.75C5.90599 13.75 7.32104 12.4068 7.32104 10.75C7.32104 9.09319 5.90599 7.75 4.16049 7.75C2.415 7.75 1 9.09319 1 10.75C1 12.4068 2.415 13.75 4.16049 13.75Z" stroke="#222222" stroke-width="1.5" stroke-miterlimit="10" stroke-linecap="round" stroke-linejoin="round"/>
</g>
</svg>
