<svg width="15" height="14" viewBox="0 0 15 14" fill="none" xmlns="http://www.w3.org/2000/svg">
<path fill-rule="evenodd" clip-rule="evenodd" d="M9.69179 1.08809L6.6675 2.97081L10.216 3.4733L13.1339 1.57693L9.69179 1.08809ZM10.3922 6.67481C12.3263 6.67481 13.894 8.30846 13.894 10.3236C13.894 12.3385 12.3263 13.9722 10.3922 13.9722C8.45801 13.9722 6.8903 12.3385 6.8903 10.3236C6.8903 8.30846 8.45801 6.67481 10.3922 6.67481ZM9.49048 9.80885L10.0124 10.3184L11.211 9.04965C11.3279 8.92593 11.4018 8.82625 11.5463 8.9811L12.0149 9.48168C12.169 9.64035 12.1612 9.73348 12.016 9.88095L10.28 11.6563C9.97435 11.9693 10.0273 11.9882 9.71695 11.6675L8.70126 10.6156C8.63651 10.5424 8.64385 10.4689 8.71462 10.3955L9.25851 9.80776C9.34108 9.71764 9.40635 9.72528 9.49048 9.80885ZM6.25074 3.44463L6.24838 7.31467L4.8998 6.35774L3.55095 7.15163L3.71084 3.08496L1.39008 2.75643V11.3038L6.08063 11.9357C6.14668 12.1293 6.22401 12.3175 6.3126 12.4988L1.1256 11.8C0.99009 11.7943 0.881836 11.6776 0.881836 11.5354V2.45411C0.888913 2.34351 0.931376 2.26595 1.03177 2.21351L5.66491 0.0232871C5.70633 0.00362423 5.75718 -0.00429555 5.80252 0.00225875L13.8804 1.15035C14.0138 1.16647 14.1053 1.28062 14.1053 1.42318L14.1187 7.67133C13.9687 7.44029 13.7105 7.11722 13.5963 6.91295V1.89973L10.5607 3.94603V5.57942C10.3912 5.5729 10.2216 5.57618 10.0525 5.58925V3.9829L6.25074 3.44463ZM4.11398 2.6095L7.05412 0.713127L5.80698 0.535888L2.04143 2.31593L4.11398 2.6095Z" fill="#32C770"/>
<path fill-rule="evenodd" clip-rule="evenodd" d="M9.69179 1.08809L6.6675 2.97081L10.216 3.4733L13.1339 1.57693L9.69179 1.08809ZM6.25074 3.44463L6.24838 7.31467L4.8998 6.35774L3.55095 7.15163L3.71084 3.08496L1.39008 2.75643V11.3038L6.08063 11.9357C6.14668 12.1293 6.22401 12.3175 6.3126 12.4988L1.1256 11.8C0.99009 11.7943 0.881836 11.6776 0.881836 11.5354V2.45411C0.888913 2.34351 0.931376 2.26595 1.03177 2.21351L5.66491 0.0232871C5.70633 0.00362423 5.75718 -0.00429555 5.80252 0.00225875L13.8804 1.15035C14.0138 1.16647 14.1053 1.28062 14.1053 1.42318L14.1187 7.67133C13.9687 7.44029 13.7105 7.11722 13.5963 6.91294V1.89973L10.5607 3.94603V5.57942C10.3912 5.5729 10.2216 5.57618 10.0525 5.58925V3.9829L6.25074 3.44463ZM4.11398 2.6095L7.05412 0.713127L5.80698 0.535888L2.04143 2.31593L4.11398 2.6095Z" fill="#222222"/>
</svg>
