<svg width="18" height="14" viewBox="0 0 18 14" fill="none" xmlns="http://www.w3.org/2000/svg">
<path fill-rule="evenodd" clip-rule="evenodd" d="M11.3303 3.28724H13.8812C14.6448 3.28724 14.4663 3.19424 14.8951 3.84098L17.0435 7.0775C17.4931 7.75523 17.5 7.6087 17.5 8.4217V11.0974C17.5 11.964 16.8042 12.6741 15.952 12.6741H15.6366C15.6643 12.5346 15.6781 12.3895 15.6781 12.2415C15.6781 11.0058 14.6946 10.0026 13.48 10.0026C12.2668 10.0026 11.2818 11.0044 11.2818 12.2415C11.2818 12.3895 11.2957 12.5332 11.3233 12.6741H8.5428C8.56909 12.5346 8.5843 12.3895 8.5843 12.2415C8.5843 11.0058 7.60074 10.0026 6.38616 10.0026C5.17296 10.0026 4.18801 11.0044 4.18801 12.2415C4.18801 12.3895 4.20185 12.5332 4.22951 12.6741H3.86293C3.07995 12.6741 2.43946 12.0217 2.43946 11.2242V8.88386H11.3303V3.28724ZM13.4786 10.4817C14.4317 10.4817 15.205 11.2693 15.205 12.2415C15.205 13.2124 14.4317 14 13.4786 14C12.5241 14 11.7508 13.2124 11.7508 12.2415C11.7508 11.2693 12.5241 10.4817 13.4786 10.4817ZM6.38478 10.4817C7.33929 10.4817 8.11258 11.2693 8.11258 12.2415C8.11258 13.2124 7.33929 14 6.38478 14C5.43165 14 4.65835 13.2124 4.65835 12.2415C4.65835 11.2693 5.43165 10.4817 6.38478 10.4817ZM6.38478 11.7202C6.66698 11.7202 6.89662 11.9527 6.89662 12.2415C6.89662 12.529 6.66836 12.7615 6.38478 12.7615C6.10257 12.7615 5.87432 12.5276 5.87432 12.2415C5.87432 11.9527 6.10395 11.7202 6.38478 11.7202ZM13.4786 11.7075C13.7677 11.7075 14.0029 11.9471 14.0029 12.2415C14.0029 12.536 13.7677 12.7756 13.4786 12.7756C13.1895 12.7756 12.9543 12.536 12.9543 12.2415C12.9543 11.9457 13.1895 11.7075 13.4786 11.7075ZM12.8132 4.55817H13.3043L15.4015 7.53402V8.39915C15.4015 8.6091 15.2327 8.781 15.0266 8.781H12.8132C12.6016 8.781 12.43 8.60487 12.43 8.3907V4.94988C12.4286 4.7343 12.6016 4.55817 12.8132 4.55817ZM1.27468 0H10.1641C10.5902 0 10.9388 0.355072 10.9388 0.78905V7.68196C10.9388 8.11594 10.5902 8.47101 10.1641 8.47101H1.27468C0.848604 8.47101 0.5 8.11594 0.5 7.68196V0.78905C0.5 0.355072 0.848604 0 1.27468 0Z" fill="#472DC5"/>
<path d="M4.75 2.91687L9 2.91687" stroke="white" stroke-width="0.2" stroke-linecap="round"/>
<path d="M3.3335 4.37524L7.5835 4.37524" stroke="white" stroke-width="0.2" stroke-linecap="round"/>
<path d="M1.9165 5.83386L6.1665 5.83386" stroke="white" stroke-width="0.2" stroke-linecap="round"/>
</svg>
