<svg xmlns="http://www.w3.org/2000/svg" width="36" height="36" viewBox="0 0 36 36" fill="none">
  <path fill-rule="evenodd" clip-rule="evenodd" d="M15.6679 25.1358L23.478 15.0359C23.9024 14.4913 24.0533 13.8616 23.9119 13.2204C23.7892 12.6375 23.4308 12.0833 22.8932 11.6629L21.582 10.6214C20.4407 9.71364 19.0258 9.80919 18.2147 10.8507L17.3374 11.9887C17.2242 12.1311 17.2525 12.3413 17.394 12.456C17.394 12.456 19.6107 14.2333 19.6578 14.2715C19.8087 14.4148 19.9219 14.6059 19.9502 14.8353C19.9974 15.2844 19.6861 15.7048 19.2239 15.7621C19.007 15.7908 18.7995 15.7239 18.6485 15.5997L16.3187 13.746C16.2055 13.6609 16.0357 13.6791 15.9414 13.7937L10.4046 20.9602C10.0461 21.4093 9.92351 21.9922 10.0461 22.5559L10.7536 25.6232C10.7913 25.7856 10.9328 25.9003 11.1026 25.9003L14.2153 25.862C14.7812 25.8525 15.3094 25.5945 15.6679 25.1358ZM20.0264 24.1807H25.102C25.5972 24.1807 26 24.5887 26 25.0903C26 25.5929 25.5972 26 25.102 26H20.0264C19.5312 26 19.1284 25.5929 19.1284 25.0903C19.1284 24.5887 19.5312 24.1807 20.0264 24.1807Z" fill="#32C770"/>
</svg>