<svg xmlns="http://www.w3.org/2000/svg" width="100" height="100" viewBox="0 0 100 100" fill="none">
  <g clip-path="url(#clip0_1916_42346)">
    <path d="M62.791 47.6738L23.2559 40.6973V92.2481C23.2559 94.6016 25.1641 96.5117 27.5195 96.5117H95.7383C98.0918 96.5117 100.002 94.6035 100.002 92.2481V73.2559L62.791 47.6738Z" fill="#185C37"/>
    <path d="M62.791 3.48828H27.5195C25.166 3.48828 23.2559 5.39648 23.2559 7.75195V26.7441L62.791 50L83.7207 56.9766L100 50V26.7441L62.791 3.48828Z" fill="#21A366"/>
    <path d="M23.2559 26.7441H62.791V50H23.2559V26.7441Z" fill="#107C41"/>
    <path opacity="0.1" d="M51.5508 22.0938H23.2559V80.2324H51.5508C53.9023 80.2246 55.8066 78.3203 55.8144 75.9688V26.3555C55.8066 24.0039 53.9023 22.1016 51.5508 22.0938Z" fill="black"/>
    <path opacity="0.2" d="M49.2266 24.418H23.2559V82.5586H49.2266C51.5781 82.5508 53.4824 80.6465 53.4902 78.2949V28.6816C53.4805 26.3301 51.5762 24.4258 49.2266 24.418Z" fill="black"/>
    <path opacity="0.2" d="M49.2266 24.418H23.2559V77.9063H49.2266C51.5781 77.8984 53.4824 75.9941 53.4902 73.6426V28.6816C53.4805 26.3301 51.5762 24.4258 49.2266 24.418Z" fill="black"/>
    <path opacity="0.2" d="M46.9004 24.418H23.2559V77.9063H46.9004C49.252 77.8984 51.1562 75.9941 51.1641 73.6426V28.6816C51.1543 26.3301 49.252 24.4258 46.9004 24.418Z" fill="black"/>
    <path d="M4.26367 24.418H46.9004C49.2539 24.418 51.1641 26.3262 51.1641 28.6816V71.3184C51.1641 73.6719 49.2559 75.582 46.9004 75.582H4.26367C1.9082 75.582 0 73.6738 0 71.3184V28.6816C0 26.3262 1.9082 24.418 4.26367 24.418Z" fill="url(#paint0_linear_1916_42346)"/>
    <path d="M13.2031 63.8555L22.1699 49.9609L13.9531 36.1426H20.5625L25.0469 44.9805C25.4609 45.8203 25.7441 46.4434 25.8984 46.8555H25.957C26.252 46.1855 26.5625 45.5352 26.8867 44.9043L31.6797 36.1484H37.748L29.3223 49.8848L37.9609 63.8574H31.5039L26.3242 54.1582C26.0801 53.7461 25.873 53.3125 25.7051 52.8633H25.6289C25.4766 53.3027 25.2754 53.7246 25.0293 54.1191L19.6973 63.8594L13.2031 63.8555Z" fill="white"/>
    <path d="M95.7363 3.48828H62.791V26.7441H100V7.75195C100 5.39648 98.0918 3.48828 95.7363 3.48828Z" fill="#33C481"/>
    <path d="M62.791 50H100V73.2559H62.791V50Z" fill="#107C41"/>
  </g>
  <defs>
    <linearGradient id="paint0_linear_1916_42346" x1="8.88799" y1="21.0877" x2="42.2747" y2="78.9122" gradientUnits="userSpaceOnUse">
      <stop stop-color="#18884F"/>
      <stop offset="0.5" stop-color="#117E43"/>
      <stop offset="1" stop-color="#0B6631"/>
    </linearGradient>
    <clipPath id="clip0_1916_42346">
      <rect width="100" height="100" fill="white"/>
    </clipPath>
  </defs>
</svg>