<svg xmlns="http://www.w3.org/2000/svg" width="30" height="40" viewBox="0 0 30 30" fill="none">
<path d="M27.0376 18.4375C27.0376 19.55 26.7376 20.6 26.1876 21.5C25.6609 22.3785 24.9151 23.1052 24.0234 23.6091C23.1317 24.1131 22.1244 24.377 21.1001 24.375C19.9251 24.375 18.8251 24.025 17.9001 23.4125C17.1251 22.9375 16.4876 22.275 16.0251 21.5C15.4751 20.6 15.1626 19.55 15.1626 18.4375C15.1626 15.1625 17.8251 12.5 21.1001 12.5C21.5501 12.5 21.9876 12.55 22.4001 12.65C23.7163 12.943 24.8932 13.6762 25.7363 14.7285C26.5795 15.7807 27.0385 17.0891 27.0376 18.4375Z" stroke="#222222" stroke-miterlimit="10" stroke-linecap="round" stroke-linejoin="round"/>
<path d="M18.7876 18.4371L20.2501 19.8996L23.4126 16.9746" stroke="#222222" stroke-linecap="round" stroke-linejoin="round"/>
<path d="M25.8625 5.025V7.8C25.8625 8.8125 25.225 10.075 24.6 10.7125L22.4 12.65C21.9741 12.5487 21.5377 12.4983 21.1 12.5C17.825 12.5 15.1625 15.1625 15.1625 18.4375C15.1625 19.55 15.475 20.6 16.025 21.5C16.4875 22.275 17.125 22.9375 17.9 23.4125V23.8375C17.9 24.6 17.4 25.6125 16.7625 25.9875L15 27.125C13.3625 28.1375 11.0875 27 11.0875 24.975V18.2875C11.0875 17.4 10.575 16.2625 10.075 15.6375L5.27495 10.5875C4.64995 9.95 4.13745 8.8125 4.13745 8.0625V5.15C4.13745 3.6375 5.27495 2.5 6.66245 2.5H23.3375C24.725 2.5 25.8625 3.6375 25.8625 5.025Z" stroke="#222222" stroke-miterlimit="10" stroke-linecap="round" stroke-linejoin="round"/>
</svg>