<svg xmlns="http://www.w3.org/2000/svg" width="14" height="14" viewBox="0 0 14 14" fill="none">
  <path d="M10.7531 9.16829C10.4944 9.61388 10.1682 9.99417 9.78422 10.3156C9.82425 10.2441 9.85768 10.1631 9.88023 10.0729L9.88418 10.0571L9.8871 10.0411L9.98011 9.5295L10.4076 8.96701C10.558 8.79726 10.5968 8.59094 10.5968 8.42742V8.1371C10.5968 7.8437 10.4378 7.65008 10.3294 7.54161C10.2999 7.5121 10.2641 7.47887 10.2217 7.44611C10.3338 7.42932 10.433 7.39091 10.5139 7.35044L10.514 7.35059L10.5256 7.3444L10.8592 7.16648C11.0128 7.105 11.1463 6.99986 11.2393 6.85268C11.277 6.79296 11.3051 6.73103 11.3255 6.66869C11.3343 6.77929 11.3387 6.88972 11.3387 7C11.3387 7.78578 11.1429 8.51854 10.7567 9.16211L10.7567 9.16208L10.7531 9.16829ZM9.55956 7.23807L9.61675 7.27419H9.58304L9.55956 7.23807ZM9.21092 6.95534L9.1682 6.93825L9.21092 6.95534ZM6.66185 11.3264C6.00373 11.278 5.3882 11.0869 4.83789 10.7567L4.83792 10.7567L4.83171 10.7531C4.15689 10.3613 3.63874 9.84311 3.24691 9.16829L3.24696 9.16826L3.24326 9.16211C2.85712 8.51854 2.66129 7.78578 2.66129 7C2.66129 6.21932 2.85466 5.50842 3.24511 4.83481C3.64136 4.17543 4.16298 3.63521 4.83171 3.24691L4.83174 3.24696L4.83789 3.24326C5.33755 2.94347 5.89097 2.75839 6.48123 2.6906C6.30681 2.76113 6.17923 2.882 6.09194 2.99839L6.08361 3.00949L6.07591 3.02104L5.916 3.26091L5.61118 3.34799C5.41586 3.39889 5.23344 3.51054 5.10817 3.69846C5.01624 3.83635 4.95161 4.00382 4.95161 4.19355V4.31452C4.95161 4.48836 4.99541 4.73478 5.19483 4.9342C5.39425 5.13362 5.64067 5.17742 5.81452 5.17742H7.95389C7.95424 5.17768 7.9546 5.17793 7.95496 5.1782L8.05404 5.27728C8.14588 5.38783 8.25137 5.45758 8.35594 5.50062L7.81211 5.68575L7.51393 5.53666C7.2505 5.40495 6.95615 5.33871 6.68548 5.33871H6.66129C6.25277 5.33871 5.88838 5.47668 5.57617 5.69522L5.56586 5.70244L5.55593 5.71016L4.91012 6.21246C4.67442 6.38295 4.50435 6.591 4.37537 6.84897C4.24802 7.10367 4.17742 7.37329 4.17742 7.65323V7.99194C4.17742 8.48757 4.33592 8.9394 4.71068 9.28933C5.06061 9.66409 5.51244 9.82258 6.00806 9.82258H6.5V10.4113C6.5 10.7116 6.53793 11.0228 6.66185 11.3264ZM10.2505 1.38987C9.25984 0.816315 8.15788 0.5 7 0.5C5.81689 0.5 4.7392 0.816872 3.74948 1.38987C2.75953 1.963 1.94452 2.74966 1.36567 3.74948C0.788206 4.74693 0.5 5.8498 0.5 7C0.5 8.17544 0.78872 9.25396 1.36567 10.2505C1.9417 11.2455 2.75452 12.0583 3.74948 12.6343C4.74604 13.2113 5.82456 13.5 7 13.5C8.1502 13.5 9.25307 13.2118 10.2505 12.6343C11.2503 12.0555 12.037 11.2405 12.6101 10.2505C13.1831 9.2608 13.5 8.18311 13.5 7C13.5 5.84212 13.1837 4.74016 12.6101 3.74948C12.0341 2.75452 11.2455 1.9659 10.2505 1.38987Z" fill="#606770" stroke="white"/>
</svg>