<svg width="30" height="30" viewBox="0 0 30 30" fill="none" xmlns="http://www.w3.org/2000/svg">
<path d="M7.5 6.82861C11.6382 6.82861 15 10.1904 15 14.3286V15.0195H0.690918C0.319824 15.0195 0.0195312 14.7192 0 14.3286C0 10.188 3.36182 6.82861 7.5 6.82861Z" fill="#F6B704"/>
<path d="M23.1714 7.5C23.1714 11.6382 19.8096 15 15.6714 15H15V0.690918C15 0.317383 15.3003 0 15.6714 0C19.8291 0 23.1714 3.36182 23.1714 7.5Z" fill="#E54335"/>
<path d="M22.5 23.1909C18.3618 23.1909 15 19.8291 15 15.6909V15H29.3091C29.6802 15 30 15.3003 30 15.6714C30 19.8291 26.6382 23.1909 22.5 23.1909Z" fill="#4280EF"/>
<path d="M6.82812 22.5C6.82812 18.3618 10.1899 15 14.3281 15H14.9995V29.3091C14.9995 29.6802 14.6992 29.9805 14.3086 30C10.1704 30 6.82812 26.6382 6.82812 22.5Z" fill="#34A353"/>
</svg>
