<svg xmlns="http://www.w3.org/2000/svg" width="29" height="28" viewBox="0 0 29 28" fill="none">
  <circle cx="14.5" cy="14" r="12" fill="url(#paint0_linear_895_14717)" stroke="white" stroke-width="4"/>
  <path d="M18.3847 10.2591C18.7844 10.6188 19.0841 11.0385 19.244 11.5381C19.4039 12.0577 19.4239 12.5574 19.304 13.077C19.1841 13.5966 18.9442 14.0363 18.5845 14.396L14.7273 18.3931C14.5874 18.533 14.4275 18.593 14.2676 18.593C14.0878 18.593 13.9279 18.533 13.808 18.3931L9.95079 14.416C9.57106 14.0363 9.33124 13.5966 9.21132 13.077C9.09141 12.5574 9.13138 12.0577 9.29127 11.5381C9.45115 11.0385 9.73095 10.6188 10.1506 10.2591C10.5104 9.95927 10.9101 9.75942 11.3698 9.67948C11.8094 9.59953 12.2691 9.63951 12.7088 9.7794C13.1485 9.93929 13.5282 10.1791 13.8679 10.5189L14.2676 10.9186L14.6674 10.5189C14.9871 10.1791 15.3868 9.93929 15.8265 9.7794C16.2662 9.63951 16.7059 9.59953 17.1655 9.67948C17.6052 9.75942 18.0249 9.95927 18.3847 10.2591Z" fill="white"/>
  <defs>
    <linearGradient id="paint0_linear_895_14717" x1="14.5" y1="4" x2="14.5" y2="24" gradientUnits="userSpaceOnUse">
      <stop stop-color="#F95E73"/>
      <stop offset="1" stop-color="#E3223C"/>
    </linearGradient>
  </defs>
</svg>