<svg xmlns="http://www.w3.org/2000/svg" id="Layer_1" data-name="Layer 1" viewBox="0 0 30 30"><path d="M29.5 22.28a7.22 7.22 0 1 0 7.22 7.24 7.2 7.2 0 0 0-7.22-7.24Zm.86 5v2.18a1.31 1.31 0 0 1-.3.75c-.84.89-1.72 1.75-2.59 2.61a.89.89 0 0 1-1.27.06.88.88 0 0 1 0-1.3c.72-.73 1.46-1.45 2.16-2.19a1 1 0 0 0 .26-.62v-3.64a.9.9 0 0 1 .88-1 .89.89 0 0 1 .87 1c-.04.69-.01 1.4-.01 2.12ZM29.5 14.5a15 15 0 1 0 15 15 15 15 0 0 0-15-15Zm0 24a9 9 0 1 1 9-9 9 9 0 0 1-8.98 9Z" style="fill:#f9bf48" transform="translate(-14.5 -14.5)"/></svg>