<svg width="14" height="14" viewBox="0 0 14 14" fill="none" xmlns="http://www.w3.org/2000/svg">
<path d="M6.80317 8.81747L2.44002 6.50913L1.31335 7.86155C2.89543 8.70239 4.3532 9.49652 5.93076 10.3374L6.80317 8.82316V8.81747ZM8.23495 0V2.44278H9.365C9.44261 2.43839 9.52008 2.45348 9.59048 2.48669C9.66089 2.51989 9.72203 2.57018 9.76843 2.63305C9.97862 2.95207 9.69046 3.26767 9.49157 3.4887C8.92654 4.11649 7.6428 5.51676 7.36254 5.84717C7.31928 5.90241 7.26417 5.94706 7.20134 5.97775C7.13851 6.00844 7.06961 6.02439 6.99979 6.02439C6.92998 6.02439 6.86108 6.00844 6.79825 5.97775C6.73542 5.94706 6.68031 5.90241 6.63705 5.84717C6.34775 5.50536 4.99282 4.04015 4.45378 3.42832C4.26732 3.2164 4.03566 2.927 4.22777 2.63077C4.27406 2.56807 4.33502 2.51788 4.40521 2.48468C4.4754 2.45149 4.55265 2.43631 4.63007 2.4405H5.76012V0H8.23495ZM4.50576 5.27977L2.73609 6.16619L7.08568 8.4711L11.4432 6.16163L9.57406 5.18179L9.87918 4.83998L11.5743 5.72184L12.8026 4.55742L10.9392 3.532C11.0108 3.38905 11.0582 3.235 11.0793 3.07626L13.4106 4.31815C13.4259 4.32639 13.4396 4.33717 13.4513 4.35006C13.4667 4.36561 13.479 4.38408 13.4873 4.40441C13.4957 4.42475 13.5 4.44654 13.5 4.46855C13.5 4.49056 13.4957 4.51235 13.4873 4.53268C13.479 4.55302 13.4667 4.57149 13.4513 4.58704L11.954 6.0682L13.4038 7.81825C13.4323 7.85263 13.4461 7.89694 13.4423 7.94154C13.4384 7.98613 13.4173 8.02741 13.3835 8.05638C13.3727 8.0644 13.3614 8.07163 13.3496 8.07803L12.0444 8.77303V11.3799C12.0443 11.4132 12.0345 11.4458 12.0162 11.4735C11.998 11.5013 11.972 11.523 11.9415 11.536L7.23372 13.9446C7.21547 13.9649 7.19259 13.9804 7.16705 13.9898C7.14151 13.9992 7.11408 14.0022 7.08715 13.9985C7.06021 13.9948 7.03458 13.9845 7.01247 13.9685C6.99035 13.9526 6.97243 13.9315 6.96024 13.907L2.24339 11.5303C2.21585 11.5162 2.19271 11.4947 2.17655 11.4681C2.1604 11.4416 2.15185 11.411 2.15186 11.3799V8.79126L0.824041 8.08942C0.812243 8.08303 0.800914 8.07579 0.790139 8.06777C0.756296 8.0388 0.735172 7.99752 0.731363 7.95293C0.727553 7.90833 0.741367 7.86402 0.769798 7.82965L2.18237 6.12061L0.542657 4.55742C0.527791 4.5406 0.516396 4.52096 0.509135 4.49965C0.501874 4.47834 0.498893 4.45579 0.500366 4.43331C0.501839 4.41082 0.507735 4.38886 0.517712 4.3687C0.527689 4.34854 0.541547 4.33058 0.558477 4.31588C0.568689 4.30762 0.579663 4.30037 0.591249 4.29423L2.95759 2.94409C2.96858 3.10891 3.00322 3.27125 3.06042 3.42604L1.14498 4.52438L2.48183 5.77767L4.18709 4.92657L4.50915 5.28091L4.50576 5.27977ZM11.7562 6.52622L7.40096 8.83L8.24964 10.3476L12.832 7.84104L11.7562 6.52622Z" fill="#F59E0B"/>
</svg>
