<svg xmlns="http://www.w3.org/2000/svg" width="24" height="24" viewBox="0 0 24 24" fill="none">
<path d="M11.6 10.4C11.9165 10.4 12.2258 10.4938 12.4889 10.6696C12.752 10.8455 12.9571 11.0953 13.0782 11.3877C13.1993 11.6801 13.231 12.0018 13.1693 12.3121C13.1075 12.6225 12.9551 12.9076 12.7314 13.1314C12.5076 13.3551 12.2225 13.5075 11.9121 13.5693C11.6018 13.631 11.2801 13.5993 10.9877 13.4782C10.6953 13.3571 10.4455 13.152 10.2696 12.8889C10.0938 12.6258 10 12.3164 10 12C10 11.5757 10.1686 11.1687 10.4686 10.8686C10.7687 10.5686 11.1757 10.4 11.6 10.4ZM10 18.4C10 18.7164 10.0938 19.0258 10.2696 19.2889C10.4455 19.552 10.6953 19.7571 10.9877 19.8782C11.2801 19.9993 11.6018 20.031 11.9121 19.9693C12.2225 19.9075 12.5076 19.7551 12.7314 19.5314C12.9551 19.3076 13.1075 19.0225 13.1693 18.7121C13.231 18.4018 13.1993 18.0801 13.0782 17.7877C12.9571 17.4953 12.752 17.2455 12.4889 17.0696C12.2258 16.8938 11.9165 16.8 11.6 16.8C11.1757 16.8 10.7687 16.9686 10.4686 17.2686C10.1686 17.5687 10 17.9757 10 18.4ZM10 5.6C10 5.91645 10.0938 6.22579 10.2696 6.48891C10.4455 6.75203 10.6953 6.95711 10.9877 7.07821C11.2801 7.19931 11.6018 7.23099 11.9121 7.16926C12.2225 7.10752 12.5076 6.95513 12.7314 6.73137C12.9551 6.50761 13.1075 6.22251 13.1693 5.91214C13.231 5.60177 13.1993 5.28007 13.0782 4.98771C12.9571 4.69534 12.752 4.44546 12.4889 4.26965C12.2258 4.09384 11.9165 4 11.6 4C11.1757 4 10.7687 4.16857 10.4686 4.46863C10.1686 4.76869 10 5.17565 10 5.6Z" fill="#262626"/>
</svg>