<svg xmlns="http://www.w3.org/2000/svg" width="22" height="22" viewBox="0 0 22 22" fill="none">
  <path d="M18.1484 6.86719H16.2294C16.3236 6.65841 16.4014 6.47074 16.4682 6.29275L16.4714 6.28408L16.4743 6.2753C16.6487 5.75224 16.7344 5.19074 16.7344 4.63281C16.7344 3.38857 16.4443 2.3645 15.8412 1.6222L15.8354 1.61512L15.8294 1.60825C15.1598 0.842934 14.1817 0.5 12.9922 0.5C12.3444 0.5 11.8237 0.836088 11.4449 1.37733C11.0781 1.90136 10.8264 2.63631 10.6643 3.52774L10.6643 3.52773L10.6631 3.53499C10.5864 3.99518 10.5151 4.26436 10.4576 4.40805L10.4522 4.4217L10.4475 4.43564C10.3415 4.75385 10.2569 4.89777 10.1876 4.97211C9.86534 5.25411 9.4143 5.798 8.87638 6.56587C8.41054 7.18671 8.07911 7.58879 7.87301 7.79488L7.8646 7.8033L7.85659 7.8121C7.66269 8.02539 7.50818 8.18837 7.37759 8.31025C7.29728 8.38521 7.2342 8.43674 7.18496 8.47176C6.87372 8.16937 6.46551 8 6 8H2.25C1.74397 8 1.30947 8.22561 0.998009 8.53707C0.663736 8.87134 0.5 9.31382 0.5 9.75V19.75C0.5 20.2168 0.658281 20.6623 0.998009 21.002C1.33774 21.3417 1.78316 21.5 2.25 21.5H6C6.43618 21.5 6.87866 21.3363 7.21293 21.002C7.4765 20.7384 7.67858 20.3867 7.7345 19.9782C7.74058 19.9795 7.74673 19.9808 7.75294 19.9822L7.77001 19.9859C7.8458 20.0024 7.92929 20.0204 8.0195 20.0388L9.15347 20.4167C10.0964 20.77 10.8962 21.0113 11.4728 21.1355C12.4379 21.3763 13.336 21.5 14.1641 21.5H15.7656C16.9891 21.5 18.0307 21.1608 18.7754 20.4161C19.4861 19.7054 19.7889 18.7631 19.818 17.6635C20.0897 17.3007 20.2767 16.8605 20.4197 16.4316L20.4257 16.4133L20.4304 16.3947C20.5453 15.9349 20.5962 15.4597 20.5429 14.9748C20.7661 14.5733 20.8753 14.1213 20.9469 13.6571C21.0248 13.1867 20.9998 12.7284 20.9392 12.2967C21.3206 11.7225 21.5 11.044 21.5 10.2578C21.5 9.32617 21.1218 8.54497 20.5062 7.8854L20.5003 7.8791L20.4942 7.87301C19.8655 7.24431 19.0783 6.86719 18.1484 6.86719ZM18.6912 11.2962L17.7118 11.541L18.5002 12.1717C18.5512 12.2125 18.6398 12.3346 18.7128 12.6996C18.7709 12.9898 18.7475 13.2981 18.6785 13.6514C18.5836 13.954 18.461 14.0609 18.3812 14.0951L17.876 14.3116L18.1392 14.7941C18.3175 15.1211 18.3682 15.451 18.2565 15.8139C18.1175 16.2656 17.9464 16.4498 17.7891 16.5197L17.4377 16.6758L17.4985 17.0556C17.6419 17.9523 17.4801 18.475 17.1939 18.7871L17.1925 18.7887C16.9362 19.0706 16.4781 19.25 15.7656 19.25H14.1641C13.4981 19.25 12.7642 19.176 11.9967 18.9567L11.9887 18.9544L11.9806 18.9524C11.525 18.8385 10.8389 18.648 9.999 18.3426L9.99454 18.341C9.33076 18.1067 8.84899 17.9458 8.55924 17.863L8.55123 17.8607L8.54314 17.8587C8.26767 17.7898 8.00063 17.7292 7.75 17.691V10.6474C8.20082 10.5203 8.6526 10.2264 9.08793 9.79105C9.42375 9.45523 9.90821 8.88788 10.5383 8.06083L10.5384 8.06087L10.5432 8.05441C11.0838 7.32071 11.4964 6.83569 11.7442 6.58793C12.0805 6.25164 12.3459 5.79646 12.5553 5.29387L12.5623 5.27701L12.5681 5.25968C12.6436 5.03317 12.7163 4.66461 12.8023 4.22831C12.82 4.13809 12.8384 4.04498 12.8575 3.94962C12.9353 3.56032 13.0063 3.28764 13.0658 3.13882L13.0784 3.10731L13.0866 3.07439C13.118 2.9488 13.1671 2.84349 13.2221 2.75795C13.8006 2.80008 14.094 3.00673 14.2697 3.30601C14.376 3.52711 14.4844 3.9826 14.4844 4.63281C14.4844 4.95349 14.4209 5.2498 14.3147 5.56845C14.2506 5.76074 14.1149 6.03496 13.9122 6.44046C13.7323 6.80013 13.6138 7.10032 13.5365 7.29612C13.5262 7.32218 13.5166 7.34639 13.5078 7.36865C13.3157 7.80545 13.2734 8.23143 13.2734 8.61719V9.11719H13.7734H18.1484C18.4182 9.11719 18.6877 9.2386 18.9277 9.47855C19.1494 9.70028 19.25 9.96491 19.25 10.2188C19.25 10.548 19.1834 10.8079 19.0815 10.9863L19.0746 10.9984L19.0684 11.0108C18.9877 11.1721 18.8861 11.2475 18.6912 11.2962ZM5.1795 16.8986L5.14479 16.8552L5.10141 16.8205C4.8617 16.6287 4.51894 16.4375 4.125 16.4375C3.70664 16.4375 3.34832 16.6164 3.10738 16.8574C2.92878 17.036 2.8137 17.2387 2.75 17.4481V10.25H5.5V17.4811C5.42811 17.253 5.30391 17.0541 5.1795 16.8986ZM2.75 19.25V18.3297C2.81087 18.5349 2.92174 18.7321 3.1061 18.8939C3.2679 19.0783 3.46512 19.1891 3.67027 19.25H2.75ZM5.5 19.25H4.55195C4.76134 19.1863 4.96401 19.0712 5.14262 18.8926C5.29797 18.7373 5.42754 18.5331 5.5 18.2955V19.25Z" fill="#606770" stroke="white"/>
</svg>