<svg width="15" height="20" viewBox="0 0 15 20" fill="none" xmlns="http://www.w3.org/2000/svg">
<g id="&#240;&#159;&#166;&#134; icon &#34;location outline&#34;">
<g id="Group">
<path id="Vector" d="M7.15383 1C3.7564 1 1 3.6235 1 6.85468C1 10.5726 5.10255 16.4645 6.60896 18.4995C6.67149 18.5854 6.75344 18.6553 6.84814 18.7035C6.94283 18.7517 7.04758 18.7768 7.15383 18.7768C7.26008 18.7768 7.36483 18.7517 7.45952 18.7035C7.55421 18.6553 7.63617 18.5854 7.6987 18.4995C9.20511 16.4653 13.3077 10.5756 13.3077 6.85468C13.3077 3.6235 10.5513 1 7.15383 1Z" stroke="#0B3D60" stroke-width="1.5" stroke-linecap="round" stroke-linejoin="round"/>
<path id="Vector_2" d="M7.15382 9.20509C8.2867 9.20509 9.20509 8.2867 9.20509 7.15382C9.20509 6.02093 8.2867 5.10254 7.15382 5.10254C6.02093 5.10254 5.10254 6.02093 5.10254 7.15382C5.10254 8.2867 6.02093 9.20509 7.15382 9.20509Z" stroke="#0B3D60" stroke-width="1.5" stroke-linecap="round" stroke-linejoin="round"/>
</g>
</g>
</svg>
