<svg width="26" height="26" viewBox="0 0 26 26" fill="none" xmlns="http://www.w3.org/2000/svg">
<g id="&#240;&#159;&#166;&#134; icon &#34;messages 1&#34;">
<g id="Group">
<path id="Vector" d="M20.1955 11.5309V16.3231C20.1955 16.6346 20.1835 16.9341 20.1474 17.2216C19.8712 20.4564 17.9612 22.0618 14.4416 22.0618H13.9612C13.6609 22.0618 13.3726 22.2055 13.1924 22.4451L11.7509 24.362C11.1143 25.2126 10.0812 25.2126 9.44457 24.362L8.0031 22.4451C7.84694 22.2415 7.4986 22.0618 7.23433 22.0618H6.75385C2.92196 22.0618 1 21.1153 1 16.3231V11.5309C1 8.02062 2.62166 6.11572 5.85294 5.84017C6.14123 5.80423 6.44154 5.79224 6.75385 5.79224H14.4416C18.2735 5.79224 20.1955 7.70913 20.1955 11.5309Z" stroke="black" stroke-width="2" stroke-miterlimit="10" stroke-linecap="round" stroke-linejoin="round"/>
<path id="Vector_2" d="M24.9999 6.73867V11.5309C24.9999 15.0531 23.3783 16.946 20.147 17.2216C20.183 16.9341 20.195 16.6346 20.195 16.3231V11.5309C20.195 7.70909 18.2731 5.7922 14.4412 5.7922H6.75345C6.44114 5.7922 6.14083 5.80419 5.85254 5.84013C6.12882 2.61738 8.03876 1 11.5583 1H19.2461C23.078 1 24.9999 2.91689 24.9999 6.73867Z" stroke="black" stroke-width="2" stroke-miterlimit="10" stroke-linecap="round" stroke-linejoin="round"/>
<g id="Group_2">
<path id="Vector_3" d="M14.8088 14.4783H14.8206" stroke="black" stroke-width="2" stroke-linecap="round" stroke-linejoin="round"/>
<path id="Vector_4" d="M10.6045 14.4783H10.6163" stroke="black" stroke-width="2" stroke-linecap="round" stroke-linejoin="round"/>
<path id="Vector_5" d="M6.40039 14.4781H6.4122" stroke="black" stroke-width="2" stroke-linecap="round" stroke-linejoin="round"/>
</g>
</g>
</g>
</svg>
