<svg width="20" height="20" viewBox="0 0 20 20" fill="none" xmlns="http://www.w3.org/2000/svg">
<g clip-path="url(#clip0_26_59288)">
<path d="M12.5584 9.53398L4.65137 8.13867V18.4488C4.65137 18.9195 5.03301 19.3016 5.5041 19.3016H19.1479C19.6186 19.3016 20.0006 18.9199 20.0006 18.4488V14.6504L12.5584 9.53398Z" fill="#185C37"/>
<path d="M12.5584 0.697266H5.5041C5.0334 0.697266 4.65137 1.07891 4.65137 1.55V5.34844L12.5584 9.99961L16.7443 11.3949L20.0002 9.99961V5.34844L12.5584 0.697266Z" fill="#21A366"/>
<path d="M4.65137 5.34961H12.5584V10.0008H4.65137V5.34961Z" fill="#107C41"/>
<path opacity="0.1" d="M10.3104 4.41797H4.65137V16.0457H10.3104C10.7807 16.0441 11.1615 15.6633 11.1631 15.193V5.27031C11.1615 4.8 10.7807 4.41953 10.3104 4.41797Z" fill="black"/>
<path opacity="0.2" d="M9.84551 4.88281H4.65137V16.5109H9.84551C10.3158 16.5094 10.6967 16.1285 10.6982 15.6582V5.73555C10.6963 5.26523 10.3154 4.88437 9.84551 4.88281Z" fill="black"/>
<path opacity="0.2" d="M9.84551 4.88281H4.65137V15.5805H9.84551C10.3158 15.5789 10.6967 15.198 10.6982 14.7277V5.73555C10.6963 5.26523 10.3154 4.88437 9.84551 4.88281Z" fill="black"/>
<path opacity="0.2" d="M9.38027 4.88281H4.65137V15.5805H9.38027C9.85059 15.5789 10.2314 15.198 10.233 14.7277V5.73555C10.2311 5.26523 9.85059 4.88437 9.38027 4.88281Z" fill="black"/>
<path d="M0.852734 4.88281H9.38008C9.85078 4.88281 10.2328 5.26445 10.2328 5.73555V14.2629C10.2328 14.7336 9.85117 15.1156 9.38008 15.1156H0.852734C0.381641 15.1156 0 14.734 0 14.2629V5.73555C0 5.26445 0.381641 4.88281 0.852734 4.88281Z" fill="url(#paint0_linear_26_59288)"/>
<path d="M2.64062 12.7711L4.43398 9.99219L2.79063 7.22852H4.1125L5.00938 8.99609C5.09219 9.16406 5.14883 9.28867 5.17969 9.37109H5.19141C5.25039 9.23711 5.3125 9.10703 5.37734 8.98086L6.33594 7.22969H7.54961L5.86445 9.97695L7.59219 12.7715H6.30078L5.26484 10.8316C5.21602 10.7492 5.17461 10.6625 5.14102 10.5727H5.12578C5.09531 10.6605 5.05508 10.7449 5.00586 10.8238L3.93945 12.7719L2.64062 12.7711Z" fill="white"/>
<path d="M19.1477 0.697266H12.5586V5.34844H20.0004V1.55C20.0004 1.07891 19.6188 0.697266 19.1477 0.697266Z" fill="#33C481"/>
<path d="M12.5586 10H20.0004V14.6512H12.5586V10Z" fill="#107C41"/>
</g>
<defs>
<linearGradient id="paint0_linear_26_59288" x1="1.7776" y1="4.21677" x2="8.45495" y2="15.7817" gradientUnits="userSpaceOnUse">
<stop stop-color="#18884F"/>
<stop offset="0.5" stop-color="#117E43"/>
<stop offset="1" stop-color="#0B6631"/>
</linearGradient>
<clipPath id="clip0_26_59288">
<rect width="20" height="20" fill="white"/>
</clipPath>
</defs>
</svg>
