<svg width="140" height="167" viewBox="0 0 140 167" fill="none" xmlns="http://www.w3.org/2000/svg">
<g clip-path="url(#clip0_3750_45459)">
<path d="M88.8777 30.6979H51.1538C50.2941 30.699 49.47 31.0405 48.8621 31.6477C48.2542 32.2548 47.9123 33.078 47.9112 33.9367V117.68L47.4789 117.812L38.2246 120.643C37.786 120.776 37.3123 120.731 36.9074 120.516C36.5025 120.301 36.1996 119.934 36.0651 119.496L8.53786 29.6853C8.4039 29.2472 8.44956 28.7739 8.6648 28.3694C8.88005 27.965 9.24726 27.6624 9.68574 27.5282L23.9466 23.1667L65.2892 10.5269L79.5499 6.16531C79.767 6.09859 79.995 6.07528 80.2211 6.0967C80.4472 6.11813 80.6668 6.18387 80.8673 6.29016C81.0679 6.39645 81.2456 6.54121 81.3901 6.71615C81.5346 6.89109 81.6432 7.09278 81.7095 7.30967L88.7459 30.2661L88.8777 30.6979Z" fill="#CCCCCC" fill-opacity="0.4"/>
<path d="M97.1098 30.2662L88.6294 2.59846C88.4883 2.13746 88.2576 1.70875 87.9506 1.33683C87.6436 0.964902 87.2662 0.657054 86.84 0.43087C86.4138 0.204687 85.9471 0.0646005 85.4667 0.018621C84.9863 -0.0273585 84.5015 0.0216702 84.0401 0.1629L63.9902 6.29281L22.6498 18.9348L2.59997 25.0669C1.66856 25.3526 0.888682 25.9957 0.431511 26.8551C-0.0256595 27.7145 -0.122769 28.72 0.161503 29.6508L29.1457 124.208C29.3766 124.959 29.8426 125.617 30.4752 126.084C31.1078 126.552 31.8738 126.805 32.6607 126.805C33.0249 126.805 33.3871 126.751 33.735 126.643L47.4791 122.442L47.9115 122.308V121.856L47.4791 121.988L33.6075 126.231C32.7854 126.481 31.8974 126.396 31.1383 125.993C30.3793 125.59 29.8112 124.903 29.5586 124.083L0.576639 29.5234C0.451496 29.1168 0.40788 28.6896 0.448288 28.2661C0.488695 27.8427 0.61233 27.4313 0.812119 27.0557C1.01191 26.68 1.28393 26.3474 1.61259 26.0769C1.94126 25.8064 2.32012 25.6033 2.72747 25.4793L22.7773 19.3472L64.1179 6.70738L84.1677 0.575308C84.4767 0.481124 84.7979 0.433102 85.1209 0.432801C85.8142 0.434356 86.4888 0.657606 87.0459 1.06985C87.6029 1.4821 88.0132 2.06167 88.2166 2.72369L96.658 30.2662L96.792 30.698H97.2417L97.1098 30.2662Z" fill="#CCCCCC"/>
<path d="M26.5202 27.5989C26.1036 27.5986 25.698 27.4649 25.363 27.2175C25.0279 26.9701 24.7811 26.622 24.6587 26.2242L21.8743 17.1401C21.7995 16.8961 21.7736 16.6398 21.7979 16.3857C21.8223 16.1317 21.8966 15.8849 22.0164 15.6596C22.1363 15.4342 22.2994 15.2346 22.4965 15.0722C22.6936 14.9098 22.9208 14.7878 23.1651 14.7131L61.198 3.08299C61.6914 2.93261 62.2243 2.98389 62.6799 3.22559C63.1355 3.46729 63.4764 3.87965 63.6279 4.37217L66.4123 13.4563C66.5627 13.9491 66.5113 14.4814 66.2694 14.9364C66.0274 15.3914 65.6146 15.732 65.1216 15.8834L27.0886 27.5136C26.9044 27.57 26.7129 27.5988 26.5202 27.5989Z" fill="#CCCCCC"/>
<path d="M41.1059 9.70648C43.4936 9.70648 45.4293 7.77309 45.4293 5.38812C45.4293 3.00316 43.4936 1.06976 41.1059 1.06976C38.7181 1.06976 36.7825 3.00316 36.7825 5.38812C36.7825 7.77309 38.7181 9.70648 41.1059 9.70648Z" fill="#CCCCCC"/>
<path d="M41.1056 8.12266C42.6176 8.12266 43.8434 6.89838 43.8434 5.38815C43.8434 3.87791 42.6176 2.65363 41.1056 2.65363C39.5936 2.65363 38.3679 3.87791 38.3679 5.38815C38.3679 6.89838 39.5936 8.12266 41.1056 8.12266Z" fill="white"/>
<path d="M129.985 125.432H56.9195C56.4323 125.432 55.9653 125.238 55.6208 124.894C55.2764 124.55 55.0826 124.084 55.082 123.597V36.1504C55.0826 35.6638 55.2763 35.1973 55.6208 34.8532C55.9653 34.5091 56.4323 34.3156 56.9195 34.3151H129.985C130.472 34.3156 130.939 34.5092 131.284 34.8532C131.628 35.1973 131.822 35.6638 131.823 36.1504V123.597C131.822 124.084 131.628 124.55 131.284 124.894C130.939 125.238 130.472 125.432 129.985 125.432Z" fill="#CCCCCC" fill-opacity="0.4"/>
<path d="M96.6578 30.2661H51.1539C50.1797 30.2674 49.2458 30.6546 48.5569 31.3427C47.868 32.0307 47.4804 32.9636 47.479 33.9367V121.988L47.9113 121.856V33.9367C47.9124 33.078 48.2544 32.2548 48.8622 31.6477C49.4701 31.0405 50.2942 30.6989 51.1539 30.6979H96.7919L96.6578 30.2661ZM136.325 30.2661H51.1539C50.1797 30.2674 49.2458 30.6546 48.5569 31.3427C47.868 32.0307 47.4804 32.9636 47.479 33.9367V132.827C47.4804 133.8 47.868 134.733 48.5569 135.421C49.2458 136.109 50.1797 136.496 51.1539 136.498H136.325C137.299 136.496 138.233 136.109 138.922 135.421C139.611 134.733 139.999 133.8 140 132.827V33.9367C139.999 32.9636 139.611 32.0307 138.922 31.3427C138.233 30.6546 137.299 30.2674 136.325 30.2661ZM139.568 132.827C139.567 133.686 139.225 134.509 138.617 135.116C138.009 135.723 137.185 136.065 136.325 136.066H51.1539C50.2942 136.065 49.4701 135.723 48.8622 135.116C48.2544 134.509 47.9124 133.686 47.9113 132.827V33.9367C47.9124 33.078 48.2544 32.2548 48.8622 31.6477C49.4701 31.0405 50.2942 30.6989 51.1539 30.6979H136.325C137.185 30.6989 138.009 31.0405 138.617 31.6477C139.225 32.2548 139.567 33.078 139.568 33.9367V132.827Z" fill="#CCCCCC"/>
<path d="M113.627 39.7664H73.852C73.3362 39.7659 72.8417 39.5609 72.477 39.1966C72.1122 38.8323 71.9071 38.3384 71.9065 37.8232V28.3228C71.9071 27.8076 72.1122 27.3136 72.477 26.9493C72.8417 26.585 73.3362 26.3801 73.852 26.3795H113.627C114.143 26.3801 114.638 26.585 115.003 26.9493C115.367 27.3136 115.572 27.8076 115.573 28.3228V37.8232C115.572 38.3384 115.367 38.8323 115.003 39.1966C114.638 39.5609 114.143 39.7659 113.627 39.7664Z" fill="#CCCCCC"/>
<path d="M93.7397 27.0273C96.1274 27.0273 98.0631 25.0939 98.0631 22.7089C98.0631 20.324 96.1274 18.3906 93.7397 18.3906C91.3519 18.3906 89.4163 20.324 89.4163 22.7089C89.4163 25.0939 91.3519 27.0273 93.7397 27.0273Z" fill="#CCCCCC"/>
<path d="M93.7396 25.3392C95.1939 25.3392 96.3729 24.1616 96.3729 22.7089C96.3729 21.2562 95.1939 20.0786 93.7396 20.0786C92.2852 20.0786 91.1062 21.2562 91.1062 22.7089C91.1062 24.1616 92.2852 25.3392 93.7396 25.3392Z" fill="white"/>
<g clip-path="url(#clip1_3750_45459)">
<path d="M104.603 92.7119C101.644 89.7624 97.6308 88.1053 93.446 88.1053C89.2613 88.1053 85.7889 89.2232 82.8298 92.1727" stroke="#CCCCCC"/>
<path d="M87.0016 83.2044C87.0016 84.448 85.9898 85.4589 84.7381 85.4589C83.4865 85.4589 82.4746 84.448 82.4746 83.2044C82.4746 81.9607 83.4865 80.9498 84.7381 80.9498C85.9898 80.9498 87.0016 81.9607 87.0016 83.2044Z" fill="#CCCCCC" stroke="#CCCCCC"/>
<path d="M104.957 83.2044C104.957 84.448 103.945 85.4589 102.694 85.4589C101.442 85.4589 100.43 84.448 100.43 83.2044C100.43 81.9607 101.442 80.9498 102.694 80.9498C103.945 80.9498 104.957 81.9607 104.957 83.2044Z" fill="#CCCCCC" stroke="#CCCCCC"/>
<path d="M116.306 62.1374L116.306 62.1376C116.77 62.5998 117.027 63.2263 117.027 63.8726V64.1267H102.153V56.7152V49.3036H102.41C103.073 49.3036 103.702 49.5617 104.165 50.0231L116.306 62.1374ZM97.1846 49.3036V65.6157C97.1846 67.5251 98.7494 69.0825 100.661 69.0825H117.027V109.129C117.027 110.496 115.926 111.596 114.551 111.596H72.881C71.5062 111.596 70.4045 110.496 70.4045 109.129V51.7705C70.4045 50.404 71.5062 49.3036 72.881 49.3036H97.1846Z" stroke="#CCCCCC"/>
</g>
<path d="M39.74 167.16C39.3533 167.16 39.0533 167.053 38.84 166.84C38.64 166.627 38.54 166.32 38.54 165.92V154.02C38.54 153.607 38.64 153.293 38.84 153.08C39.0533 152.853 39.3267 152.74 39.66 152.74C39.9667 152.74 40.1933 152.8 40.34 152.92C40.5 153.027 40.6867 153.213 40.9 153.48L48.56 163.42H48.04V153.96C48.04 153.573 48.14 153.273 48.34 153.06C48.5533 152.847 48.8533 152.74 49.24 152.74C49.6267 152.74 49.92 152.847 50.12 153.06C50.32 153.273 50.42 153.573 50.42 153.96V165.96C50.42 166.333 50.3267 166.627 50.14 166.84C49.9533 167.053 49.7 167.16 49.38 167.16C49.0733 167.16 48.8267 167.1 48.64 166.98C48.4667 166.86 48.2733 166.667 48.06 166.4L40.42 156.46H40.92V165.92C40.92 166.32 40.82 166.627 40.62 166.84C40.42 167.053 40.1267 167.16 39.74 167.16ZM57.7209 167.2C56.7076 167.2 55.8276 166.993 55.0809 166.58C54.3343 166.167 53.7543 165.58 53.3409 164.82C52.9276 164.047 52.7209 163.14 52.7209 162.1C52.7209 161.313 52.8343 160.613 53.0609 160C53.3009 159.373 53.6409 158.84 54.0809 158.4C54.5209 157.947 55.0476 157.607 55.6609 157.38C56.2743 157.14 56.9609 157.02 57.7209 157.02C58.7343 157.02 59.6143 157.227 60.3609 157.64C61.1076 158.053 61.6876 158.64 62.1009 159.4C62.5143 160.16 62.7209 161.06 62.7209 162.1C62.7209 162.887 62.6009 163.593 62.3609 164.22C62.1343 164.847 61.8009 165.387 61.3609 165.84C60.9209 166.28 60.3943 166.62 59.7809 166.86C59.1676 167.087 58.4809 167.2 57.7209 167.2ZM57.7209 165.3C58.2143 165.3 58.6476 165.18 59.0209 164.94C59.3943 164.7 59.6809 164.347 59.8809 163.88C60.0943 163.4 60.2009 162.807 60.2009 162.1C60.2009 161.033 59.9743 160.24 59.5209 159.72C59.0676 159.187 58.4676 158.92 57.7209 158.92C57.2276 158.92 56.7943 159.04 56.4209 159.28C56.0476 159.507 55.7543 159.86 55.5409 160.34C55.3409 160.807 55.2409 161.393 55.2409 162.1C55.2409 163.153 55.4676 163.953 55.9209 164.5C56.3743 165.033 56.9743 165.3 57.7209 165.3ZM71.8141 167C71.3741 167 71.0341 166.887 70.7941 166.66C70.5674 166.42 70.4541 166.08 70.4541 165.64V154.26C70.4541 153.82 70.5674 153.487 70.7941 153.26C71.0341 153.02 71.3741 152.9 71.8141 152.9H75.6941C78.0541 152.9 79.8741 153.507 81.1541 154.72C82.4474 155.933 83.0941 157.673 83.0941 159.94C83.0941 161.073 82.9274 162.08 82.5941 162.96C82.2741 163.827 81.7941 164.56 81.1541 165.16C80.5274 165.76 79.7541 166.22 78.8341 166.54C77.9274 166.847 76.8807 167 75.6941 167H71.8141ZM73.0141 164.88H75.5341C76.3607 164.88 77.0741 164.78 77.6741 164.58C78.2874 164.367 78.7941 164.06 79.1941 163.66C79.6074 163.247 79.9141 162.733 80.1141 162.12C80.3141 161.493 80.4141 160.767 80.4141 159.94C80.4141 158.287 80.0074 157.053 79.1941 156.24C78.3807 155.427 77.1607 155.02 75.5341 155.02H73.0141V164.88ZM88.6684 167.2C87.9618 167.2 87.3284 167.067 86.7684 166.8C86.2218 166.52 85.7884 166.147 85.4684 165.68C85.1618 165.213 85.0084 164.687 85.0084 164.1C85.0084 163.38 85.1951 162.813 85.5684 162.4C85.9418 161.973 86.5484 161.667 87.3884 161.48C88.2284 161.293 89.3551 161.2 90.7684 161.2H91.7684V162.64H90.7884C89.9618 162.64 89.3018 162.68 88.8084 162.76C88.3151 162.84 87.9618 162.98 87.7484 163.18C87.5484 163.367 87.4484 163.633 87.4484 163.98C87.4484 164.42 87.6018 164.78 87.9084 165.06C88.2151 165.34 88.6418 165.48 89.1884 165.48C89.6284 165.48 90.0151 165.38 90.3484 165.18C90.6951 164.967 90.9684 164.68 91.1684 164.32C91.3684 163.96 91.4684 163.547 91.4684 163.08V160.78C91.4684 160.113 91.3218 159.633 91.0284 159.34C90.7351 159.047 90.2418 158.9 89.5484 158.9C89.1618 158.9 88.7418 158.947 88.2884 159.04C87.8484 159.133 87.3818 159.293 86.8884 159.52C86.6351 159.64 86.4084 159.673 86.2084 159.62C86.0218 159.567 85.8751 159.46 85.7684 159.3C85.6618 159.127 85.6084 158.94 85.6084 158.74C85.6084 158.54 85.6618 158.347 85.7684 158.16C85.8751 157.96 86.0551 157.813 86.3084 157.72C86.9218 157.467 87.5084 157.287 88.0684 157.18C88.6418 157.073 89.1618 157.02 89.6284 157.02C90.5884 157.02 91.3751 157.167 91.9884 157.46C92.6151 157.753 93.0818 158.2 93.3884 158.8C93.6951 159.387 93.8484 160.147 93.8484 161.08V165.88C93.8484 166.293 93.7484 166.613 93.5484 166.84C93.3484 167.053 93.0618 167.16 92.6884 167.16C92.3151 167.16 92.0218 167.053 91.8084 166.84C91.6084 166.613 91.5084 166.293 91.5084 165.88V164.92H91.6684C91.5751 165.387 91.3884 165.793 91.1084 166.14C90.8418 166.473 90.5018 166.733 90.0884 166.92C89.6751 167.107 89.2018 167.2 88.6684 167.2ZM100.866 167.2C99.9993 167.2 99.2726 167.053 98.6859 166.76C98.1126 166.467 97.6859 166.04 97.4059 165.48C97.1259 164.907 96.9859 164.2 96.9859 163.36V159.1H95.9459C95.6259 159.1 95.3793 159.02 95.2059 158.86C95.0326 158.687 94.9459 158.453 94.9459 158.16C94.9459 157.853 95.0326 157.62 95.2059 157.46C95.3793 157.3 95.6259 157.22 95.9459 157.22H96.9859V155.4C96.9859 154.987 97.0926 154.673 97.3059 154.46C97.5326 154.247 97.8459 154.14 98.2459 154.14C98.6459 154.14 98.9526 154.247 99.1659 154.46C99.3793 154.673 99.4859 154.987 99.4859 155.4V157.22H101.606C101.926 157.22 102.173 157.3 102.346 157.46C102.519 157.62 102.606 157.853 102.606 158.16C102.606 158.453 102.519 158.687 102.346 158.86C102.173 159.02 101.926 159.1 101.606 159.1H99.4859V163.22C99.4859 163.86 99.6259 164.34 99.9059 164.66C100.186 164.98 100.639 165.14 101.266 165.14C101.493 165.14 101.693 165.12 101.866 165.08C102.039 165.04 102.193 165.013 102.326 165C102.486 164.987 102.619 165.04 102.726 165.16C102.833 165.267 102.886 165.493 102.886 165.84C102.886 166.107 102.839 166.347 102.746 166.56C102.666 166.76 102.513 166.9 102.286 166.98C102.113 167.033 101.886 167.08 101.606 167.12C101.326 167.173 101.079 167.2 100.866 167.2ZM107.282 167.2C106.575 167.2 105.942 167.067 105.382 166.8C104.835 166.52 104.402 166.147 104.082 165.68C103.775 165.213 103.622 164.687 103.622 164.1C103.622 163.38 103.808 162.813 104.182 162.4C104.555 161.973 105.162 161.667 106.002 161.48C106.842 161.293 107.968 161.2 109.382 161.2H110.382V162.64H109.402C108.575 162.64 107.915 162.68 107.422 162.76C106.928 162.84 106.575 162.98 106.362 163.18C106.162 163.367 106.062 163.633 106.062 163.98C106.062 164.42 106.215 164.78 106.522 165.06C106.828 165.34 107.255 165.48 107.802 165.48C108.242 165.48 108.628 165.38 108.962 165.18C109.308 164.967 109.582 164.68 109.782 164.32C109.982 163.96 110.082 163.547 110.082 163.08V160.78C110.082 160.113 109.935 159.633 109.642 159.34C109.348 159.047 108.855 158.9 108.162 158.9C107.775 158.9 107.355 158.947 106.902 159.04C106.462 159.133 105.995 159.293 105.502 159.52C105.248 159.64 105.022 159.673 104.822 159.62C104.635 159.567 104.488 159.46 104.382 159.3C104.275 159.127 104.222 158.94 104.222 158.74C104.222 158.54 104.275 158.347 104.382 158.16C104.488 157.96 104.668 157.813 104.922 157.72C105.535 157.467 106.122 157.287 106.682 157.18C107.255 157.073 107.775 157.02 108.242 157.02C109.202 157.02 109.988 157.167 110.602 157.46C111.228 157.753 111.695 158.2 112.002 158.8C112.308 159.387 112.462 160.147 112.462 161.08V165.88C112.462 166.293 112.362 166.613 112.162 166.84C111.962 167.053 111.675 167.16 111.302 167.16C110.928 167.16 110.635 167.053 110.422 166.84C110.222 166.613 110.122 166.293 110.122 165.88V164.92H110.282C110.188 165.387 110.002 165.793 109.722 166.14C109.455 166.473 109.115 166.733 108.702 166.92C108.288 167.107 107.815 167.2 107.282 167.2Z" fill="#CCCCCC"/>
</g>
<defs>
<clipPath id="clip0_3750_45459">
<rect width="140" height="167" fill="white"/>
</clipPath>
<clipPath id="clip1_3750_45459">
<rect width="63.4973" height="63.2922" fill="white" transform="translate(61.9673 48.8036)"/>
</clipPath>
</defs>
</svg>
