<svg xmlns="http://www.w3.org/2000/svg" width="14.93" height="14.928" viewBox="0 0 14.93 14.928"><defs><style>.a{fill:#8993a0;}</style></defs><g transform="translate(-2.65 -2.65)"><g transform="translate(2.65 2.65)"><path class="a" d="M16.98,8.513l-.551-.645a1.12,1.12,0,0,1-.268-.645l-.063-.85a2.433,2.433,0,0,0-2.251-2.251L13,4.059a1.079,1.079,0,0,1-.645-.268l-.645-.551a2.457,2.457,0,0,0-3.195,0l-.645.551a1.12,1.12,0,0,1-.645.268l-.85.063A2.433,2.433,0,0,0,4.122,6.372l-.063.85a1.079,1.079,0,0,1-.268.645l-.551.645a2.457,2.457,0,0,0,0,3.195l.551.645A1.12,1.12,0,0,1,4.059,13l.063.85A2.433,2.433,0,0,0,6.372,16.1l.85.063a1.079,1.079,0,0,1,.645.268l.645.551a2.412,2.412,0,0,0,3.179,0l.645-.551a1.12,1.12,0,0,1,.645-.268l.85-.063a2.433,2.433,0,0,0,2.251-2.251l.063-.85a1.079,1.079,0,0,1,.268-.645l.551-.645A2.4,2.4,0,0,0,16.98,8.513Zm-1.007,2.329-.551.645a2.425,2.425,0,0,0-.582,1.4l-.063.85a1.13,1.13,0,0,1-1.039,1.039l-.85.063a2.425,2.425,0,0,0-1.4.582l-.645.551a1.143,1.143,0,0,1-1.479,0l-.645-.551a2.425,2.425,0,0,0-1.4-.582l-.85-.063a1.13,1.13,0,0,1-1.039-1.039l-.063-.85a2.425,2.425,0,0,0-.582-1.4l-.551-.645a1.143,1.143,0,0,1,0-1.479l.551-.645a2.425,2.425,0,0,0,.582-1.4l.063-.85A1.13,1.13,0,0,1,6.467,5.428l.85-.063a2.425,2.425,0,0,0,1.4-.582l.645-.551a1.1,1.1,0,0,1,.74-.268,1.186,1.186,0,0,1,.74.268l.645.551a2.425,2.425,0,0,0,1.4.582l.85.063a1.13,1.13,0,0,1,1.039,1.039l.063.85a2.425,2.425,0,0,0,.582,1.4l.551.645A1.107,1.107,0,0,1,15.973,10.842Z" transform="translate(-2.65 -2.65)"/><path class="a" d="M36.929,31.389a.665.665,0,0,0-.929,0L31.389,36a.653.653,0,0,0,.472,1.117.694.694,0,0,0,.472-.189l4.611-4.611A.651.651,0,0,0,36.929,31.389Z" transform="translate(-26.707 -26.707)"/><circle class="a" cx="1.117" cy="1.117" r="1.117" transform="translate(4.194 4.194)"/><circle class="a" cx="1.117" cy="1.117" r="1.117" transform="translate(8.475 8.475)"/></g></g></svg>