<svg xmlns="http://www.w3.org/2000/svg" width="711.373" height="590.688" viewBox="0 0 711.373 590.688"><defs><style>.a{fill:#fe9674;}.b{fill:#026d39;opacity:0.1;}.c{fill:#febf97;}.d{fill:#83715d;}.e{fill:#b14d31;}.f{fill:#ec6641;}.g{fill:#a29486;}.h{fill:#fe8d4c;}.i{fill:#fea13d;}.j{fill:#808285;}.k{fill:#fff2ea;}.l{fill:#e6e7e8;}</style></defs><path class="a" d="M1759.278,771.441a236.264,236.264,0,0,0-48.158-97.859,1.775,1.775,0,0,0-2.491,0,1.8,1.8,0,0,0,0,2.491,232.927,232.927,0,0,1,47.252,96.3C1756.385,774.587,1759.782,773.652,1759.278,771.441Z" transform="translate(-1053.412 -292.084)"/><path class="b" d="M1471.113,737.572l-385.972-.352-151.789-.142-96.1-.085C836,684.416,856.982,625.659,893.941,588.242c16.7-16.908,37.008-31.527,46.717-53.219,8.229-18.375,7.5-38.038,4-58.067-3.368-19.3-9.321-38.952-12.322-58.116a173.8,173.8,0,0,1,.606-56.4c8.215-47.428,35.367-91.63,76.426-116.605,57.2-34.782,138.474-26.7,184.331,22.066,57.778,61.455,51.888,165.647,113.421,223.347,36.149,33.9,88.918,44.737,126.708,76.793C1480.279,607.44,1496.187,682.063,1471.113,737.572Z" transform="translate(-796.07 -159.544)"/><path class="a" d="M1125.469,935.017l-151.789-.142c16.493-24.391,45.132-40.573,74.686-40.947C1078.752,893.541,1108.589,909.893,1125.469,935.017Z" transform="translate(-836.398 -357.341)"/><ellipse class="c" cx="49.862" cy="49.862" rx="49.862" ry="49.862" transform="translate(572.516 105.261)"/><ellipse class="a" cx="346.438" cy="3.248" rx="346.438" ry="3.248" transform="translate(0 574.201)"/><path class="d" d="M1549.96,802.562v65.055a40.176,40.176,0,0,1-40.179,40.179H1274.739a40.176,40.176,0,0,1-39.679-33.852c2.938,0,6.066.62,8.581.754,19.508,1.05,39.052,1.67,58.588,1.571,19.508-.106,39.016-.93,58.433-2.811a457.714,457.714,0,0,0,57.306-9.067,356.154,356.154,0,0,0,55.228-17.2q3.308-1.353,6.594-2.768A317.387,317.387,0,0,0,1549.96,802.562Z" transform="translate(-913.63 -330.346)"/><path class="e" d="M1594.2,451.382l42.675-33.6c6,9.977,11.955,18.942,17.953,28.921a11.81,11.81,0,0,1-7.033,2.812C1630.4,450.54,1611.6,450.355,1594.2,451.382Z" transform="translate(-1019.75 -216.651)"/><path class="f" d="M1505.017,445.923c4.97,2.228,10.069,4.969,12.86,9.646-14.767,8.113-32.228,9.256-49.049,10.221-22.7,1.3-45.843,2.567-67.857-3.13-4.031-1.043-8.224-2.457-10.933-5.62a10.037,10.037,0,0,1-1.239-10.478c1.21-2.917,5.142-3.7,7.8-4.658q6.35-2.28,12.9-3.947,6.512-1.66,13.159-2.71,6.666-1.055,13.411-1.5t13.5-.27q6.721.171,13.409.95,6.7.781,13.316,2.175t13.053,3.4q6.443,2,12.675,4.62Q1503.526,445.255,1505.017,445.923Z" transform="translate(-958.787 -221.275)"/><path class="e" d="M1451.763,423.726a6.431,6.431,0,0,1,2.767-1.361c2.064-.284,3.838,1.363,5.267,2.879l22.475,23.849a176.513,176.513,0,0,1-43.019,5.163c-2.2-.008-4.519-.089-6.4-1.231-2.066-1.253-3.172-3.52-3.926-5.729a5.663,5.663,0,0,1-.487-1.728c.011-.495.448-.841.75-1.189q1.383-1.594,2.807-3.15,2.885-3.131,5.969-6.069,3.07-2.923,6.324-5.642t6.678-5.218Q1451.365,424.011,1451.763,423.726Z" transform="translate(-970.77 -217.995)"/><path class="g" d="M1214.969,515.662l-16.993,29.047L1177.5,532.888a16.576,16.576,0,0,1-6.066-22.644l.247-.429a16.577,16.577,0,0,1,22.643-6.067Z" transform="translate(-894.174 -241.395)"/><path class="d" d="M1245.971,532.526l-16.824,29.146-19.106-11.033,16.993-29.047Z" transform="translate(-906.238 -247.325)"/><path class="g" d="M1681.558,515.662l16.993,29.047,20.473-11.821a16.576,16.576,0,0,0,6.066-22.644l-.247-.429a16.577,16.577,0,0,0-22.643-6.067Z" transform="translate(-1045.561 -241.395)"/><path class="d" d="M1654.678,532.526l16.824,29.146,19.107-11.033-16.993-29.047Z" transform="translate(-1037.619 -247.325)"/><g transform="translate(12.274 301.567)"><path class="e" d="M873.543,790.738a49.321,49.321,0,0,1,15.768-20.423c4.939-3.733,10.607-6.55,14.986-10.927,6.292-6.291,9.263-15.126,11.383-23.768s3.646-17.58,7.817-25.439a42.412,42.412,0,0,1,37.963-22c-12.524,8.711-21.588,21.113-25.071,35.965-2.414,10.294-2.379,21.614-8.33,30.354-6.281,9.224-17.614,13.247-27.934,17.494S876.9,780.094,873.543,790.738Z" transform="translate(-819.084 -598.108)"/><path class="e" d="M827.443,749.355c-4.214-12.038-4.739-24.994-6.446-37.634a199.5,199.5,0,0,0-24.754-72.646c9.743,2.152,17.006,10.233,22.571,18.515a128.071,128.071,0,0,1,20.266,52.216c1.719,11.464,1.868,23.114,3.447,34.6A96.641,96.641,0,0,0,845.586,759a66.8,66.8,0,0,0,2.506,6.985c.978,2.3,2.244,4.408,3.358,6.633.884,1.767-1.669,2.087-2.862,1.727a20.615,20.615,0,0,1-5.437-3.016,38.483,38.483,0,0,1-9.024-9.05,50.205,50.205,0,0,1-6.135-11.425Q827.706,750.106,827.443,749.355Z" transform="translate(-796.243 -583.605)"/><path class="h" d="M860.12,750.049c3.483-8.93,6.977-17.9,9.2-27.221s3.154-19.083,1.452-28.516c-1.316-7.292-4.161-14.208-6.155-21.345s-3.023-15.2-.859-22.287a63.085,63.085,0,0,0,27.5-78.729c-1.4-3.432-3.178-6.847-6.067-9.168s-7.113-3.3-10.373-1.543c-2.221,1.2-3.666,3.423-4.991,5.571-7.707,12.5-14.638,25.775-17.5,40.182s-1.27,30.192,6.983,42.343a151.4,151.4,0,0,0,4.953,35.079c2,7.99,4.662,15.925,4.9,24.157.251,8.684-2.214,17.19-4.656,25.527C862.921,739.5,861.7,744.645,860.12,750.049Z" transform="translate(-812.426 -560.341)"/><path class="h" d="M879.3,792.968c-3.965-7.418-7.955-14.894-10.415-22.937s-3.32-16.786-.954-24.857a31.62,31.62,0,0,1,6.689-11.5c18.727,7.8,40.585,5.571,58.666-3.626-6.487-1.284-11.751-5.891-16.477-10.516s-9.467-9.591-15.646-11.942a22.308,22.308,0,0,0-21.014,3.017c-5.886,4.464-8.706,14.523-8.037,21.881a33.71,33.71,0,0,0-8.2,19.916,49.606,49.606,0,0,0,3.633,21.208C870.16,780.354,875.3,786.939,879.3,792.968Z" transform="translate(-816.209 -603.442)"/><rect class="h" width="92.411" height="82.568" transform="translate(15.168 193.166)"/><rect class="i" width="99.861" height="14.078" transform="translate(11.443 179.088)"/><path class="f" d="M835.515,886.26l-3.024,4.834,3.024,4.614,3.024-4.614Z" transform="translate(-806.953 -656.643)"/><path class="f" d="M858.8,886.26l-3.024,4.834,3.024,4.614,3.024-4.614Z" transform="translate(-813.834 -656.643)"/><path class="e" d="M882.089,886.26l-3.024,4.834,3.024,4.614,3.024-4.614Z" transform="translate(-820.715 -656.643)"/><path class="f" d="M905.376,886.26l-3.024,4.834,3.024,4.614,3.024-4.614Z" transform="translate(-827.596 -656.643)"/><path class="f" d="M928.663,886.26l-3.024,4.834,3.024,4.614,3.024-4.614Z" transform="translate(-834.477 -656.643)"/><path class="f" d="M817.773,834.522v3.416l92.411,11.719V834.522Z" transform="translate(-802.605 -641.356)"/><path class="e" d="M883.481,576.8c-1.642,11.909-6.229,23.174-10.1,34.554s-7.1,23.334-5.872,35.292c-.922-5.74.687-11.369,2.341-16.942s4.009-10.91,5.995-16.374A130.366,130.366,0,0,0,883.481,576.8Z" transform="translate(-817.22 -565.204)"/><path class="e" d="M926.708,734.531c-6.659-3.045-12.622-7.727-19.7-9.592a24.662,24.662,0,0,0-14.2.415,21.488,21.488,0,0,0-11.152,8.69c5.2-6.214,14.3-7.917,22.359-7.084S919.34,731.162,926.708,734.531Z" transform="translate(-821.48 -608.727)"/></g><g transform="translate(513.147 166.027)"><rect class="h" width="89.17" height="55.614" rx="4.031" transform="translate(44.857 105.042) rotate(-120.202)"/><path class="f" d="M1569.519,478.1l5.733-42.855a5.227,5.227,0,0,0-3.493-5.64l-23.1-7.879,19.128,9.532Z" transform="translate(-1519.438 -383.843)"/><path class="e" d="M1507.946,413.547l39.777,68.339c1.41,2.424,5.18.235,3.766-2.192l-39.777-68.339C1510.3,408.931,1506.534,411.12,1507.946,413.547Z" transform="translate(-1507.317 -380.467)"/><path class="e" d="M1516.3,410.675a2.194,2.194,0,0,0,.824,2.97l38.549,16.2-.152,45.244c-.009,2.811,4.35,2.815,4.359.008q.079-23.339.157-46.679a2.137,2.137,0,0,0-1.106-1.9l-39.661-16.663A2.249,2.249,0,0,0,1516.3,410.675Z" transform="translate(-1509.8 -380.264)"/><path class="j" d="M1583.452,501.546l36.25-21.1c2.424-1.411.235-5.18-2.192-3.767l-36.25,21.1C1578.835,499.19,1581.024,502.959,1583.452,501.546Z" transform="translate(-1528.76 -399.988)"/><path class="e" d="M1574.344,374.645,1616,446.206c1.411,2.424,5.18.235,3.767-2.192l-41.653-71.561C1576.7,370.029,1572.932,372.217,1574.344,374.645Z" transform="translate(-1526.937 -368.972)"/><path class="j" d="M1516.605,397.945l24.3-14.145c2.424-1.41.235-5.18-2.192-3.766l-24.3,14.145C1511.989,395.589,1514.177,399.359,1516.605,397.945Z" transform="translate(-1509.008 -371.432)"/></g><path class="g" d="M1549.75,454.352V699.673a317.391,317.391,0,0,1-70.17,41.863q-3.287,1.415-6.594,2.768a356.152,356.152,0,0,1-55.227,17.2,457.708,457.708,0,0,1-57.306,9.067c-19.417,1.881-38.925,2.705-58.433,2.811-19.536.1-39.08-.521-58.588-1.571-2.515-.134-5.643-.754-8.581-.754a39.922,39.922,0,0,1-.5-6.327V454.352Z" transform="translate(-913.421 -227.457)"/><path class="d" d="M1549.694,462.188v-7.836h-315.4l-.134,33.388,53.942-4.368,23.465,35.094c10.173-12.469,19.963-25.809,28.965-39.34l30.847-2.5c-1.223,2.408-2.251,4.953-3.382,7.39l-4.485,9.665-5.065,10.917a193.8,193.8,0,0,1,86.3-15.99A34.55,34.55,0,0,1,1447.1,470.5Z" transform="translate(-913.365 -227.457)"/><g transform="translate(390.292 326.189)"><path class="d" d="M1505.061,693.213l35.568-20.324,19.384,33.5s4.516,25.594-18.318,25.594h-14.427Z" transform="translate(-1383.702 -618.218)"/><path class="d" d="M1542.73,753.255s-4.642,4.454-10.476,4.454h-43.471v-14.3l-21.83,34.5,21.077,35.129V799.361h19.529a16.786,16.786,0,0,0,14.729-8.732Z" transform="translate(-1372.441 -639.055)"/><path class="d" d="M1428,762.287l.127,40.965-38.7.33s-24.489-8.7-13.222-28.561l7.119-12.549Z" transform="translate(-1344.752 -644.634)"/><path class="d" d="M1357.807,762.488s-1.583-6.235,1.3-11.309l21.451-37.81,12.44,7.057-19.236-36.012-40.954,1,11.894,6.748-9.637,16.987a16.787,16.787,0,0,0,.328,17.12Z" transform="translate(-1332.803 -621.624)"/><path class="d" d="M1410.836,658.929l-35.316-20.757,19.429-33.471s19.961-16.642,31.312,3.17l7.173,12.519Z" transform="translate(-1345.425 -596.138)"/><path class="d" d="M1439.408,596.135s6.172,1.814,9.072,6.876l21.611,37.719-12.409,7.11,40.788,1.79,20-35.752-11.865,6.8-9.708-16.946a16.787,16.787,0,0,0-14.9-8.439Z" transform="translate(-1364.302 -595.289)"/></g><g transform="translate(364.469 211.114)"><path class="h" d="M1386.664,450.721q-26.007,27.709-52.015,55.41l-28.28-48.295c.895.128,1.79.225,2.691.282.634.042,1.268.07,1.909.078,9.574.12,18.733-3.516,27.836-6.468a204.933,204.933,0,0,1,36.389-8.207A71,71,0,0,1,1386.664,450.721Z" transform="translate(-1299.17 -435.37)"/><path class="f" d="M1372.175,440.1a204.933,204.933,0,0,0-36.389,8.207c-9.1,2.952-18.261,6.588-27.836,6.468-.641-.008-1.275-.036-1.909-.078-.9-.056-1.8-.154-2.691-.282q-3.593-6.149-7.2-12.3C1319.716,429.584,1348.771,428.323,1372.175,440.1Z" transform="translate(-1296.15 -431.951)"/><path class="e" d="M1400.716,447.039a90.05,90.05,0,0,0-34.15-4.142,1.39,1.39,0,0,0-.95.448,1.267,1.267,0,0,0-1.2.678,160.577,160.577,0,0,0-17.893,46.509c-1,4.663-1.772,9.367-2.358,14.1a1.046,1.046,0,0,0,.144.645c-.991,1.307.894,3.117,2.105,1.849l42.54-44.56,11.911-12.477a1.418,1.418,0,0,0,.335-.558A1.47,1.47,0,0,0,1400.716,447.039Zm-44.383,45.616-9.009,9.438a157.243,157.243,0,0,1,13.1-44.3q2.873-6.175,6.275-12.084a87.845,87.845,0,0,1,31.2,3.408Z" transform="translate(-1310.298 -435.117)"/><path class="e" d="M1328.5,498.735q-10.349-15.544-19.569-31.8-2.624-4.631-5.153-9.316c-.862-1.6-3.3-.175-2.433,1.422q8.876,16.43,18.91,32.2,2.86,4.49,5.812,8.921C1327.068,501.66,1329.51,500.25,1328.5,498.735Z" transform="translate(-1297.631 -439.329)"/></g><g transform="translate(303.413 122.551)"><g transform="translate(114.516 3.991)"><path class="d" d="M1456.736,338l-82.3,17.91-1.895-8.709a22.1,22.1,0,0,1,16.88-26.269l39.154-8.52a22.1,22.1,0,0,1,26.269,16.879Zm-74.107,5.311,61.418-13.365a11.53,11.53,0,0,0-13.228-7.208l-39.153,8.52A11.53,11.53,0,0,0,1382.629,343.316Z" transform="translate(-1372.031 -311.91)"/></g><path class="g" d="M1520.26,313.013l-294.568,70.343a32.445,32.445,0,0,1,24.442-23.394l243.422-52.969A32.342,32.342,0,0,1,1520.26,313.013Z" transform="translate(-1214.276 -306.245)"/><path class="d" d="M1531.647,334.6l-306.728,66.745a32.231,32.231,0,0,1,.323-15.146l294.568-70.343A32.253,32.253,0,0,1,1531.647,334.6Z" transform="translate(-1213.826 -309.083)"/><rect class="g" width="332.134" height="32.394" rx="2.915" transform="translate(0 84.135) rotate(-12.276)"/></g><g transform="translate(458.755 218.548)"><path class="h" d="M1510.676,464.959c-9.222,8.152-21.249,12.984-33.387,15.528-.451.092-.9.184-1.36.275-3.642.712-7.32,1.254-11.012,1.67s-7.4.725-11.11.965-7.44.429-11.16.62c-1.86.091-3.72.182-5.58.288-1.036.056-2.353-.042-3.234.6a4.131,4.131,0,0,0-1.289,1.691c-.859.092-1.712.183-2.564.283a90.521,90.521,0,0,1,15.239-37.382c18.888-6.637,41.109-6.489,59.4,1.655A58.361,58.361,0,0,1,1510.676,464.959Z" transform="translate(-1429.98 -443.17)"/><path class="e" d="M1472.505,446.889a1.442,1.442,0,0,0-1.992,0,269.579,269.579,0,0,0-31.238,29.438q-4.087,4.52-7.965,9.221c-1.146,1.389.837,3.393,1.993,1.993a269.608,269.608,0,0,1,29.87-30.824q4.577-4.023,9.331-7.835A1.418,1.418,0,0,0,1472.505,446.889Z" transform="translate(-1430.271 -443.681)"/><path class="e" d="M1486.693,445.587l-4.552-2.893a1.422,1.422,0,0,0-1.928.505,1.44,1.44,0,0,0,.506,1.928l4.551,2.893a1.421,1.421,0,0,0,1.927-.506A1.439,1.439,0,0,0,1486.693,445.587Z" transform="translate(-1444.77 -442.503)"/><path class="f" d="M1516.176,498.188c-27.328-4.417-55.051-6.009-82.556-3.121a4.131,4.131,0,0,1,1.289-1.691c.881-.641,2.2-.542,3.234-.6,1.86-.106,3.72-.2,5.58-.288,3.72-.191,7.44-.374,11.16-.62s7.419-.543,11.11-.965,7.369-.959,11.012-1.67c.458-.091.909-.182,1.36-.275,12.139-2.543,24.165-7.376,33.387-15.528C1514.147,481.35,1515.2,489.7,1516.176,498.188Z" transform="translate(-1431.056 -451.642)"/><path class="e" d="M1521,504.15a218.739,218.739,0,0,0-55.8-5.592q-7.951.232-15.871,1.053a1.449,1.449,0,0,0-1.409,1.409,1.419,1.419,0,0,0,1.409,1.409,215.772,215.772,0,0,1,55.473,1.43q7.776,1.221,15.447,3.008C1522.012,507.278,1522.765,504.561,1521,504.15Z" transform="translate(-1435.281 -459.039)"/></g><g transform="translate(244.214 405.857)"><path class="h" d="M1225.15,802.671a73.514,73.514,0,0,1-12.872,14.6,138.856,138.856,0,0,1-33.3,21.678c-23.764-12.146-41.884-31.14-53.516-55.164a337.848,337.848,0,0,0,96.491-75.412,245.726,245.726,0,0,1,12.047,30.1c.289.895.564,1.789.817,2.684,0,0-10.039,34.683-32.641,36.354C1202.175,777.506,1230.18,787.341,1225.15,802.671Z" transform="translate(-1125.46 -708.371)"/><path class="f" d="M1257.324,816.42c5.03-15.33-22.974-25.165-22.974-25.165,22.6-1.671,32.641-36.354,32.641-36.354l.007.007A74.109,74.109,0,0,1,1257.324,816.42Z" transform="translate(-1157.635 -722.12)"/><path class="e" d="M1221.522,712.93a290.475,290.475,0,0,1-19.178,51.619q-3.045,6.282-6.386,12.412c-1.055,1.935-2.084,3.906-3.266,5.769a9.336,9.336,0,0,1-4.178,3.805,17.5,17.5,0,0,1-5.73,1.132c-2.337.156-4.683.218-7.024.258q-7.137.124-14.269-.285a190.264,190.264,0,0,1-32.218-4.648c-1.764-.41-2.517,2.306-.749,2.717a194.99,194.99,0,0,0,29.575,4.525q7.287.546,14.6.538,3.739,0,7.476-.156a42.2,42.2,0,0,0,6.453-.6,12.91,12.91,0,0,0,5.607-2.464,17.18,17.18,0,0,0,3.948-5.193q3.441-6.073,6.579-12.312,6.438-12.773,11.613-26.135a292.93,292.93,0,0,0,9.865-30.232A1.411,1.411,0,0,0,1221.522,712.93Z" transform="translate(-1126.067 -709.423)"/><path class="e" d="M1180.62,874.531a133.29,133.29,0,0,1-47.245-47.573,1.41,1.41,0,0,0-2.433,1.422,137.422,137.422,0,0,0,35.6,40.081,134.758,134.758,0,0,0,12.652,8.5A1.41,1.41,0,0,0,1180.62,874.531Z" transform="translate(-1127.02 -743.21)"/></g><path class="j" d="M1680.03,594.924v103.46a1.41,1.41,0,0,0,2.818,0V594.924A1.41,1.41,0,0,0,1680.03,594.924Z" transform="translate(-1045.11 -268.591)"/><path class="j" d="M1680.03,756.449v24.61a1.41,1.41,0,0,0,2.818,0v-24.61A1.41,1.41,0,0,0,1680.03,756.449Z" transform="translate(-1045.11 -316.318)"/><path class="j" d="M1232.109,592.548V642.6a1.41,1.41,0,0,0,2.818,0V592.548A1.41,1.41,0,0,0,1232.109,592.548Z" transform="translate(-912.759 -267.889)"/><path class="d" d="M1309.8,438.728,1246.242,454l-17.769,4.271c-1.763.423-1.017,3.141.749,2.717l63.561-15.276,17.77-4.27C1312.316,441.022,1311.57,438.3,1309.8,438.728Z" transform="translate(-911.387 -222.827)"/><g transform="translate(108.609 62.454)"><ellipse class="f" cx="45.774" cy="45.774" rx="45.774" ry="45.774" transform="translate(0.739)"/><path class="h" d="M1010.539,292.967h0l-16.745-16.745q8.846-8.848,17.694-17.695c2.89-2.89-1.594-7.372-4.484-4.483L989.31,271.738l-17.694-17.693c-2.889-2.889-7.374,1.593-4.484,4.483l17.694,17.695-16.745,16.745h0l-.948.948c-2.891,2.891,1.594,7.373,4.484,4.484q8.846-8.848,17.694-17.695L1007,298.4c2.889,2.889,7.373-1.594,4.484-4.484Z" transform="translate(-942.797 -230.448)"/><path class="h" d="M1050.01,241.28c-1.575-2.188-5.244-.08-3.65,2.133a50.041,50.041,0,0,1,3.812,52.01c-1.264,2.407,2.383,4.546,3.649,2.133A54.234,54.234,0,0,0,1050.01,241.28Z" transform="translate(-966.367 -226.679)"/><path class="h" d="M943.124,242.188A39.141,39.141,0,0,0,933.015,262.6c-.44,2.661,3.632,3.805,4.076,1.124a35.283,35.283,0,0,1,9.023-18.543C947.964,243.187,944.982,240.19,943.124,242.188Z" transform="translate(-932.982 -227.025)"/></g><g transform="translate(546.099 0)"><ellipse class="h" cx="45.774" cy="45.774" rx="45.774" ry="45.774" transform="translate(0.74)"/><path class="f" d="M1670.986,152.633c-1.575-2.188-5.243-.08-3.65,2.133a50.038,50.038,0,0,1,3.812,52.01c-1.263,2.406,2.384,4.546,3.65,2.133A54.233,54.233,0,0,0,1670.986,152.633Z" transform="translate(-1587.342 -138.032)"/><path class="f" d="M1564.1,153.541a39.146,39.146,0,0,0-10.11,20.409c-.44,2.661,3.632,3.805,4.076,1.124a35.279,35.279,0,0,1,9.023-18.543C1568.94,154.54,1565.958,151.543,1564.1,153.541Z" transform="translate(-1553.957 -138.378)"/><path class="f" d="M1617.262,159.239v34.529c0,3.173,4.932,3.179,4.932,0V159.239C1622.194,156.066,1617.262,156.061,1617.262,159.239Z" transform="translate(-1572.662 -139.553)"/><path class="f" d="M1619.446,224.532c-4.181,0-4.188,6.5,0,6.5S1623.635,224.532,1619.446,224.532Z" transform="translate(-1572.38 -159.549)"/></g><g transform="translate(182.446 302.311)"><ellipse class="h" cx="45.774" cy="45.774" rx="45.774" ry="45.774" transform="translate(0.739)"/><ellipse class="k" cx="39.332" cy="39.332" rx="39.332" ry="39.332" transform="translate(7.182 6.442)"/><path class="f" d="M1154.814,581.735c-1.575-2.187-5.244-.08-3.65,2.133a50.039,50.039,0,0,1,3.812,52.01c-1.263,2.406,2.383,4.546,3.65,2.133A54.236,54.236,0,0,0,1154.814,581.735Z" transform="translate(-1071.171 -567.134)"/><path class="f" d="M1047.929,582.643a39.14,39.14,0,0,0-10.11,20.409c-.44,2.661,3.633,3.805,4.076,1.124a35.276,35.276,0,0,1,9.022-18.543C1052.769,583.642,1049.786,580.645,1047.929,582.643Z" transform="translate(-1037.786 -567.48)"/><path class="f" d="M1121.976,625.64l-16.806-12.827V587.849c0-3.173-4.932-3.179-4.932,0v25.039a2.625,2.625,0,0,0,.883,2.992l18.365,14.018C1122.01,631.824,1124.468,627.542,1121.976,625.64Z" transform="translate(-1056.195 -568.509)"/></g><g transform="translate(294.841 47.425)"><path class="a" d="M1246.341,230.821v-13.4h-4.9a20.938,20.938,0,0,0-1-2.431l3.459-3.459-9.476-9.476-3.466,3.459a20.855,20.855,0,0,0-2.424-1v-4.9h-13.4v4.9a20.467,20.467,0,0,0-2.431,1l-3.459-3.459-9.483,9.476,3.466,3.459a20.959,20.959,0,0,0-1,2.431h-4.9v13.4h4.9a20.413,20.413,0,0,0,1,2.431l-3.466,3.459,9.483,9.484,3.459-3.467a20.589,20.589,0,0,0,2.431,1v4.9h13.4v-4.9a20.982,20.982,0,0,0,2.424-1l3.466,3.467,9.476-9.484-3.459-3.459a20.392,20.392,0,0,0,1-2.431Zm-24.51,4.65a11.35,11.35,0,1,1,11.35-11.35A11.347,11.347,0,0,1,1221.83,235.471Z" transform="translate(-1197.32 -199.611)"/></g><g transform="translate(662.359 462.696)"><path class="h" d="M1767.991,820.259v-13.4h-4.9a19.328,19.328,0,0,0-1-2.43l3.466-3.459-9.483-9.477-3.459,3.46a20.338,20.338,0,0,0-2.431-1v-4.9h-13.4v4.9a20.726,20.726,0,0,0-2.423,1l-3.466-3.46-9.476,9.477,3.459,3.459a21.707,21.707,0,0,0-1,2.43h-4.9v13.4h4.9a21.677,21.677,0,0,0,1,2.431l-3.459,3.459,9.476,9.476,3.466-3.459a20.982,20.982,0,0,0,2.423,1v4.9h13.4v-4.9a20.584,20.584,0,0,0,2.431-1l3.459,3.459,9.483-9.476-3.466-3.459a19.307,19.307,0,0,0,1-2.431Zm-24.51,4.651a11.35,11.35,0,1,1,11.35-11.35A11.346,11.346,0,0,1,1743.48,824.909Z" transform="translate(-1718.977 -789.049)"/></g><path class="a" d="M1011.018,501.054a64.824,64.824,0,0,1-27.3,33.746c-3.368-19.3-9.321-38.952-12.322-58.116a173.8,173.8,0,0,1,.606-56.4c.7.275,1.367.55,2,.8a64.99,64.99,0,0,1,26.553,19.494q1.3,1.606,2.48,3.312A64.827,64.827,0,0,1,1011.018,501.054Z" transform="translate(-835.128 -217.389)"/><path class="l" d="M1200.918,968.131c-1.282.712-.613,1.113-1.9,1.825-.261-.592-.528-1.177-.8-1.761Z" transform="translate(-902.745 -379.268)"/><path class="a" d="M949.008,388.832a1.818,1.818,0,0,0-.632-2.41,1.775,1.775,0,0,0-2.41.632,140.073,140.073,0,0,0-10.1,77.373,134.99,134.99,0,0,0,5.087,21.462c.7,2.147,4.1,1.228,3.4-.936a134.788,134.788,0,0,1-6.532-37.749A137.306,137.306,0,0,1,942,409.265,132.259,132.259,0,0,1,949.008,388.832Z" transform="translate(-824.747 -207.318)"/><path class="a" d="M968.157,352.167a1.791,1.791,0,0,0-2.409.632l-5.058,9.02a1.761,1.761,0,1,0,3.041,1.778q2.53-4.509,5.058-9.019A1.787,1.787,0,0,0,968.157,352.167Z" transform="translate(-832.493 -197.197)"/><path class="a" d="M1370.51,277.222a153.08,153.08,0,0,0-37.1-39.55,149.978,149.978,0,0,0-12.666-8.454c-1.951-1.165-3.725,1.88-1.778,3.041a149.324,149.324,0,0,1,39.864,34.748A145.74,145.74,0,0,1,1367.469,279C1368.7,280.9,1371.747,279.133,1370.51,277.222Z" transform="translate(-938.175 -160.857)"/><path class="a" d="M1782.526,863.3c-.055-2.263-3.578-2.271-3.523,0q.166,6.86.331,13.72c.055,2.263,3.577,2.271,3.522,0Q1782.692,870.159,1782.526,863.3Z" transform="translate(-1074.354 -347.79)"/></svg>