<svg xmlns="http://www.w3.org/2000/svg" width="17.33" height="23.133" viewBox="0 0 17.33 23.133">
    <path data-name="Path 23891" d="M239.22 135.744a.272.272 0 0 1-.192-.08l-5-5a7.345 7.345 0 1 1 10.388 0l-4.617 5.081a2.1 2.1 0 0 1-.577 0zm0-17.077a6.8 6.8 0 0 0-4.809 11.611l5.029 4.809 4.59-4.809a6.8 6.8 0 0 0-4.809-11.611z" transform="translate(-230.553 -117.623)" style="fill:#191918;stroke:#191918"/>
    <path data-name="Path 23892" d="M275.088 160.8a3.838 3.838 0 1 1 3.838-3.838 3.843 3.843 0 0 1-3.838 3.838zm0-7.25a3.412 3.412 0 1 0 3.412 3.412 3.416 3.416 0 0 0-3.412-3.416z" transform="translate(-266.421 -149.385)" style="fill:#191918;stroke:#191918"/>
    <path data-name="Path 23894" d="M234.806 359.821h-15.78a.272.272 0 0 1-.262-.345l1.36-4.9a.272.272 0 0 1 .262-.2h2.332a.272.272 0 1 1 0 .544h-2.126l-1.209 4.353h15.064l-1.209-4.353h-1.97a.272.272 0 0 1 0-.544h2.177a.273.273 0 0 1 .262.2l1.36 4.9a.272.272 0 0 1-.262.345z" transform="translate(-218.251 -337.188)" style="fill:#191918;stroke:#191918"/>
</svg>
