<svg width="20" height="20" viewBox="0 0 20 20" fill="none" xmlns="http://www.w3.org/2000/svg">
<g clip-path="url(#clip0_26_62326)">
<path fill-rule="evenodd" clip-rule="evenodd" d="M16.6699 6.07404H13.3333C13.1443 6.08147 12.9557 6.04981 12.7792 5.98099C12.6027 5.91216 12.4421 5.80764 12.3072 5.67386C12.1722 5.54007 12.0659 5.37984 11.9946 5.20305C11.9234 5.02625 11.8888 4.83661 11.8929 4.64582V1.23615H3.41797C3.40546 1.23637 3.39312 1.23909 3.38167 1.24417C3.37021 1.24924 3.35987 1.25656 3.35124 1.2657C3.3407 1.27351 3.33242 1.28402 3.32727 1.29614C3.32212 1.30827 3.32028 1.32156 3.32195 1.33465V18.667C3.32414 18.6921 3.33443 18.7157 3.35124 18.7343C3.3594 18.744 3.36966 18.7517 3.38122 18.7569C3.39279 18.762 3.40536 18.7644 3.41797 18.7639H16.5755C16.6048 18.7639 16.6032 18.7491 16.6178 18.7343C16.6325 18.7195 16.6732 18.6883 16.6732 18.667V6.07404H16.6699ZM17.8857 19.0561C17.8853 19.3067 17.7864 19.547 17.6107 19.7242C17.435 19.9014 17.1968 20.0012 16.9482 20.0016H3.03711C2.78861 20.0012 2.5504 19.9014 2.37468 19.7242C2.19896 19.547 2.10004 19.3067 2.09961 19.0561V0.94558C2.0992 0.821372 2.12331 0.698324 2.17054 0.583611C2.21776 0.468899 2.28716 0.364817 2.37468 0.277436C2.5504 0.100199 2.78861 0.000435312 3.03711 0L12.5163 0C12.6604 0.00137614 12.8005 0.0484715 12.9167 0.134614L17.7588 5.07921C17.8173 5.13131 17.8603 5.1989 17.8827 5.27434C17.9051 5.34977 17.9062 5.43003 17.8857 5.50603V19.0544V19.0561ZM13.0208 4.54568L12.9509 1.58089L16.3835 5.08906L13.431 4.95609C13.3767 4.95888 13.3224 4.9502 13.2716 4.93061C13.2208 4.91102 13.1746 4.88094 13.136 4.84231C13.0974 4.80367 13.0672 4.75733 13.0474 4.70625C13.0275 4.65518 13.0185 4.60048 13.0208 4.54568Z" fill="black"/>
<path fill-rule="evenodd" clip-rule="evenodd" d="M1.09212 7.59766H18.9079C19.1975 7.59852 19.4751 7.71508 19.6797 7.92183C19.8844 8.12857 19.9996 8.40867 20 8.70083V16.1046C19.9991 16.3965 19.8838 16.6761 19.6792 16.8825C19.4746 17.0889 19.1973 17.2053 18.9079 17.2061H1.09212C0.802456 17.2053 0.524924 17.0887 0.320251 16.882C0.115578 16.6752 0.000429134 16.3951 0 16.103L0 8.70083C0.000858714 8.40895 0.116197 8.12928 0.320824 7.92289C0.525451 7.7165 0.802738 7.60016 1.09212 7.5993V7.59766Z" fill="#FF0000"/>
<path d="M2.6582 9.81437H5.29492C5.86947 9.81437 6.29915 9.95063 6.58724 10.2264C6.87533 10.5022 7.0153 10.8962 7.0153 11.4051C7.02809 11.6314 6.99289 11.8578 6.91206 12.0693C6.83123 12.2807 6.70662 12.4724 6.54655 12.6314C6.23568 12.9269 5.75879 13.073 5.11914 13.073H4.24837V14.9888H2.6582V9.81437ZM4.24837 12.0256H4.639C4.8682 12.0472 5.09784 11.9893 5.29004 11.8615C5.34973 11.8113 5.39742 11.7482 5.42955 11.6769C5.46167 11.6055 5.47741 11.5278 5.47559 11.4494C5.47701 11.373 5.46335 11.2971 5.43541 11.2261C5.40746 11.1551 5.36579 11.0904 5.31283 11.0357C5.2054 10.9225 5.00195 10.8716 4.70247 10.8716H4.24837V12.0207V12.0256ZM7.86165 9.81437H10.2184C10.6028 9.80037 10.9859 9.86515 11.3447 10.0048C11.6219 10.1253 11.8651 10.3131 12.0527 10.5515C12.2424 10.794 12.3804 11.0734 12.458 11.3723C12.544 11.6995 12.5867 12.0368 12.585 12.3753C12.6035 12.8124 12.54 13.2491 12.3978 13.6624C12.2844 13.9553 12.1082 14.2193 11.8818 14.4356C11.681 14.6302 11.4355 14.7718 11.1673 14.8476C10.8596 14.9363 10.5417 14.9838 10.2217 14.9888H7.86165V9.81437ZM9.44043 10.9849V13.8117H9.83105C10.0729 13.8274 10.3151 13.7893 10.5407 13.7001C10.6899 13.6122 10.8047 13.4755 10.8662 13.3127C10.9613 13.023 11.0016 12.7178 10.985 12.4131C10.985 11.8659 10.8966 11.491 10.7197 11.2886C10.5423 11.0866 10.2461 10.9849 9.83431 10.9849H9.44043ZM13.4167 9.81437H17.3376V10.9274H15.0133V11.8303H17.0055V12.8793H15.0133V14.9888H13.4215V9.81437H13.4167Z" fill="white"/>
</g>
<defs>
<clipPath id="clip0_26_62326">
<rect width="20" height="20" fill="white"/>
</clipPath>
</defs>
</svg>
