<svg width="13" height="14" viewBox="0 0 13 14" fill="none" xmlns="http://www.w3.org/2000/svg">
<path d="M8.89959 12.4941C8.92232 12.4834 8.94532 12.4744 8.96888 12.4672C8.99078 12.4511 9.01406 12.4369 9.03873 12.424C9.30539 12.2889 9.56013 12.1344 9.80128 11.9585C9.9335 11.8619 10.1067 11.8362 10.2614 11.8926C10.6262 12.0228 10.6958 12.5066 10.385 12.7337C10.1006 12.9406 9.79959 13.1245 9.48501 13.2835C9.45535 13.2985 9.42486 13.31 9.39437 13.3185C9.37413 13.333 9.35223 13.3458 9.32951 13.357L9.32313 13.36L9.32368 13.3609C7.70823 14.1306 5.92951 14.1812 4.35924 13.641C2.78896 13.1005 1.42769 11.9691 0.647681 10.3753C-0.132328 8.78115 -0.183608 7.02591 0.36384 5.47636C0.911287 3.92681 2.05802 2.58351 3.67319 1.81352C4.23783 1.54464 4.8227 1.36329 5.412 1.26427C5.90872 1.18084 6.40849 1.15595 6.90133 1.18659L6.6247 0.929195C6.40544 0.725689 6.39491 0.385417 6.60114 0.169328C6.80737 -0.0470339 7.15219 -0.057428 7.37117 0.146078L8.47715 1.17483C8.52011 1.21476 8.55476 1.25962 8.58165 1.30776C8.7366 1.52412 8.70888 1.82583 8.50653 2.01046L7.39113 3.02936C7.17076 3.2304 6.82705 3.21727 6.62304 2.99982C6.4193 2.78236 6.43261 2.44318 6.65297 2.24214L6.75969 2.14449C6.36608 2.12589 5.96804 2.14859 5.57249 2.21506C5.07327 2.29876 4.57711 2.45276 4.09757 2.68116C2.72466 3.33544 1.75034 4.47688 1.28521 5.79311C0.819815 7.10961 0.863888 8.60144 1.52692 9.95651C2.18996 11.3113 3.34667 12.2728 4.6805 12.7317C5.41837 12.9859 6.21086 13.086 7.00417 13.014C7.02248 13.0099 7.04098 13.0067 7.05961 13.0045C7.1508 12.9949 7.24144 12.9826 7.33208 12.9689C7.35509 12.9656 7.37838 12.9637 7.4011 12.9634C7.90864 12.8803 8.41257 12.7252 8.89931 12.4932L8.89959 12.4941ZM5.45663 4.98483C5.45663 4.71048 5.68198 4.4881 5.96 4.4881C6.23802 4.4881 6.46338 4.71048 6.46338 4.98483V8.00788L8.56003 8.91737C8.81421 9.02788 8.92952 9.32055 8.81782 9.57111C8.70583 9.82193 8.40924 9.93572 8.15506 9.82522L5.78288 8.79647C5.59245 8.72563 5.45663 8.54427 5.45663 8.33119V4.98483ZM11.05 10.6923C10.938 10.8542 10.9333 11.0564 11.0367 11.2235C11.2244 11.5167 11.6526 11.5285 11.8539 11.2435C12.0568 10.9522 12.2303 10.6589 12.3844 10.3397C12.5552 9.98195 12.2422 9.58424 11.848 9.65946C11.6936 9.69091 11.5678 9.78583 11.4999 9.9267C11.3693 10.1972 11.2219 10.4456 11.05 10.6923ZM11.9877 8.23108C11.942 8.66162 12.4443 8.92968 12.7849 8.6567C12.8853 8.57382 12.9457 8.46495 12.9607 8.33639C12.9998 7.9901 13.0095 7.64163 12.9909 7.29397C12.9698 6.89543 12.4922 6.6933 12.1848 6.95233C12.0684 7.04998 12.0058 7.19495 12.0138 7.34539C12.029 7.64163 12.0213 7.93622 11.9877 8.23108ZM11.6382 5.61504C11.7979 6.01549 12.37 6.02534 12.5432 5.62981C12.594 5.51247 12.5967 5.38199 12.5493 5.26301C12.4217 4.93867 12.2675 4.62516 12.0881 4.32562C11.9201 4.04799 11.5365 4.00641 11.31 4.24055C11.1603 4.40002 11.1351 4.62842 11.2454 4.81661C11.3979 5.07263 11.5293 5.33823 11.6382 5.61504ZM10.0984 3.46099C10.4372 3.74491 10.9494 3.47932 10.9042 3.04222C10.8901 2.91858 10.8321 2.81108 10.7373 2.7293C10.4688 2.50145 10.1855 2.29685 9.88333 2.1144C9.5252 1.89886 9.07532 2.20002 9.14601 2.6084C9.17179 2.74708 9.25051 2.86469 9.37302 2.93855C9.63053 3.09473 9.86919 3.26624 10.0984 3.46099Z" fill="#222222"/>
</svg>
