<svg width="18" height="20" viewBox="2 0 23 20" fill="none" xmlns="http://www.w3.org/2000/svg">
<path d="M9.37522 12.1528C8.80013 12.1528 8.33355 12.6172 8.33355 13.1945C8.33355 13.7717 8.80013 14.2361 9.37522 14.2361C9.95247 14.2361 10.4169 13.7717 10.4169 13.1945C10.4169 12.6172 9.95247 12.1528 9.37522 12.1528ZM9.37522 16.3195C8.80013 16.3195 8.33355 16.7861 8.33355 17.3611C8.33355 17.9362 8.80013 18.4028 9.37522 18.4028C9.95247 18.4028 10.4169 17.9384 10.4169 17.3611C10.4169 16.7839 9.95247 16.3195 9.37522 16.3195ZM17.3613 16.6667H12.5002C12.1183 16.6667 11.8058 16.9792 11.8058 17.3611C11.8058 17.7431 12.1183 18.0556 12.5002 18.0556H17.3613C17.7452 18.0556 18.0558 17.745 18.0558 17.3611C18.0558 16.9773 17.7433 16.6667 17.3613 16.6667ZM18.7502 4.16669H16.597C16.2372 2.58162 14.8743 1.38892 13.1947 1.38892C11.515 1.38892 10.1131 2.58162 9.79188 4.16669H7.63911C6.10482 4.16669 4.86133 5.41062 4.86133 6.94447V20.8334C4.86133 22.3672 6.10482 23.6111 7.63911 23.6111H18.7502C20.2845 23.6111 21.528 22.3672 21.528 20.8334V6.94447C21.528 5.41062 20.2823 4.16669 18.7502 4.16669ZM13.1947 3.47225C13.7689 3.47225 14.2363 3.9397 14.2363 4.51392C14.2363 5.08813 13.7676 5.55558 13.1947 5.55558C12.6217 5.55558 12.153 5.08813 12.153 4.51392C12.153 3.9397 12.6217 3.47225 13.1947 3.47225ZM19.4447 20.8334C19.4447 21.2162 19.1331 21.5278 18.7502 21.5278H7.63911C7.25621 21.5278 6.94466 21.2162 6.94466 20.8334V6.94447C6.94466 6.56166 7.25621 6.25003 7.63911 6.25003H8.43164C8.37392 6.47138 8.33355 6.70142 8.33355 6.94447V7.63892C8.33355 8.02086 8.64431 8.33336 9.02799 8.33336H17.3613C17.7448 8.33336 18.0558 8.02242 18.0558 7.63892V6.94447C18.0558 6.7032 18.0153 6.47312 17.9575 6.25003H18.7502C19.1331 6.25003 19.4447 6.56166 19.4447 6.94447V20.8334ZM17.3613 12.5H12.5002C12.1183 12.5 11.8058 12.8125 11.8058 13.1945C11.8058 13.5764 12.1183 13.8889 12.5002 13.8889H17.3613C17.7452 13.8889 18.0558 13.5783 18.0558 13.1945C18.0558 12.8106 17.7433 12.5 17.3613 12.5Z" fill="#666666"/>
</svg>
