<svg xmlns="http://www.w3.org/2000/svg" width="15.3" height="17.159" viewBox="0 0 15.3 17.159"><defs><style>.a{fill:#666;}</style></defs><g transform="translate(-3.6 -1)"><g transform="translate(3.6 1)"><path class="a" d="M22.454,18.159a1.075,1.075,0,0,0,1.072-1.072V2.072A1.075,1.075,0,0,0,22.454,1H11.872A1.053,1.053,0,0,0,10.8,2.072V17.087a1.053,1.053,0,0,0,1.072,1.072Zm-.572-1.644a.358.358,0,0,1-.357.357H18.343a.358.358,0,0,1-.357-.357V12.654a.338.338,0,0,1,.357-.357h3.182a.338.338,0,0,1,.357.357ZM21.524,11.3H18.343a.358.358,0,0,1-.357-.357.384.384,0,0,1,.357-.357h3.182a.357.357,0,1,1,0,.715Zm0-1.573H18.343a.357.357,0,1,1,0-.715h3.182a.357.357,0,1,1,0,.715Zm0-1.573H18.343a.357.357,0,1,1,0-.715h3.182a.357.357,0,1,1,0,.715Zm-9.08-5.04a.358.358,0,0,1,.357-.357h8.723a.358.358,0,0,1,.357.357V5.647A.358.358,0,0,1,21.524,6H12.8a.358.358,0,0,1-.357-.357ZM12.8,7.435h3.182a.357.357,0,0,1,0,.715H12.8a.357.357,0,0,1,0-.715Zm0,1.573h3.182a.357.357,0,0,1,0,.715H12.8a.357.357,0,0,1,0-.715Zm0,1.573h3.182a.384.384,0,0,1,.357.357.358.358,0,0,1-.357.357H12.8a.357.357,0,0,1,0-.715Zm0,2.038h4.04a.358.358,0,0,1,.357.357.384.384,0,0,1-.357.357H12.8a.357.357,0,0,1,0-.715Zm0,1.573h4.04a.357.357,0,0,1,0,.715H12.8a.357.357,0,0,1,0-.715Zm0,1.537h4.04a.384.384,0,0,1,.357.357.358.358,0,0,1-.357.357H12.8a.357.357,0,0,1,0-.715Z" transform="translate(-8.226 -1)"/><path class="a" d="M4.637,13A1.037,1.037,0,0,0,3.6,14.037V23.76a2.113,2.113,0,0,0,2.109,2.109h.107A1.621,1.621,0,0,1,5.459,24.8V13Z" transform="translate(-3.6 -8.71)"/></g></g></svg>