<svg width="25" height="25" viewBox="0 0 25 25" fill="none" xmlns="http://www.w3.org/2000/svg">
<circle opacity="0.05" cx="12.5" cy="12.5" r="12.5" fill="black"/>
<path fill-rule="evenodd" clip-rule="evenodd" d="M13.6597 13C13.6597 13.5863 13.1404 14.0615 12.5001 14.0615C11.8596 14.0615 11.3403 13.5863 11.3403 13C11.3403 12.4137 11.8596 11.9385 12.5001 11.9385C13.1404 11.9385 13.6597 12.4137 13.6597 13ZM12.4999 15.01C11.2872 15.01 10.304 14.1101 10.304 13C10.304 11.8899 11.2872 10.99 12.4999 10.99C13.7128 10.99 14.696 11.8899 14.696 13C14.696 14.1101 13.7128 15.01 12.4999 15.01ZM12.5001 10C9.46238 10 7 12.9853 7 12.9853C7 12.9853 9.46238 16 12.5001 16C15.5376 16 18 12.9853 18 12.9853C18 12.9853 15.5376 10 12.5001 10Z" fill="black"/>
</svg>
