<svg xmlns="http://www.w3.org/2000/svg" width="31" height="32" viewBox="0 0 31 32" fill="none">
<path fill-rule="evenodd" clip-rule="evenodd" d="M20.4669 2.49201L13.6127 6.80393L21.655 7.95478L28.2681 3.61158L20.4669 2.49201ZM22.0543 15.2871C26.4378 15.2871 29.9909 19.0286 29.9909 23.6438C29.9909 28.2585 26.4378 32 22.0543 32C17.6707 32 14.1176 28.2585 14.1176 23.6438C14.1176 19.0286 17.6707 15.2871 22.0543 15.2871ZM20.0107 22.4648L21.1935 23.632L23.9101 20.7261C24.175 20.4427 24.3426 20.2144 24.6699 20.5691L25.7321 21.7155C26.0814 22.0789 26.0636 22.2922 25.7345 22.63L21.8 26.6961C21.1073 27.4129 21.2273 27.456 20.524 26.7217L18.222 24.3125C18.0752 24.1448 18.0919 23.9766 18.2523 23.8083L19.4849 22.4623C19.6721 22.2559 19.82 22.2735 20.0107 22.4648ZM12.6681 7.88911L12.6628 16.7525L9.60634 14.5609L6.54931 16.3791L6.91168 7.06538L1.65188 6.31295V25.8886L12.2826 27.3359C12.4323 27.7794 12.6075 28.2103 12.8083 28.6256L1.05248 27.0251C0.745347 27.0119 0.5 26.7449 0.5 26.419V5.62056C0.51604 5.36725 0.612277 5.18962 0.839802 5.06953L11.3404 0.0533336C11.4343 0.00830043 11.5495 -0.00983794 11.6523 0.00517312L29.96 2.63461C30.2624 2.67151 30.4697 2.93296 30.4697 3.25945L30.5 17.5694C30.1602 17.0402 29.575 16.3003 29.316 15.8325V4.35088L22.4362 9.03745V12.7783C22.0522 12.7634 21.6676 12.7709 21.2844 12.8009V9.12189L12.6681 7.88911ZM7.82535 5.97645L14.4889 1.63325L11.6624 1.22732L3.12812 5.30408L7.82535 5.97645Z" fill="#0B3D60"/>
</svg>
