<svg width="20" height="20" viewBox="0 0 20 20" fill="none" xmlns="http://www.w3.org/2000/svg">
<g id="Vector">
<path id="Vector_2" d="M10 0C12.7613 0 15.2617 1.11953 17.0711 2.92891C18.8805 4.73867 20 7.23867 20 10C20 12.7613 18.8805 15.2617 17.0711 17.0711C15.2617 18.8805 12.7613 20 10 20C7.23867 20 4.73867 18.8805 2.92891 17.0711C1.11953 15.2617 0 12.7613 0 10C0 7.23867 1.11953 4.73867 2.92891 2.92891C4.73867 1.11953 7.23867 0 10 0ZM9.16055 11.7777V11.6984C9.1668 11.1727 9.21836 10.7562 9.31953 10.4465C9.41875 10.1371 9.56133 9.88516 9.74805 9.69453C9.93437 9.50234 10.1586 9.32773 10.4207 9.16875C10.5891 9.06172 10.7418 8.94297 10.877 8.81016C11.0117 8.67891 11.1187 8.52617 11.1984 8.35352C11.2773 8.18281 11.3172 7.99258 11.3172 7.78242C11.3172 7.53242 11.2578 7.31602 11.1387 7.13164C11.0215 6.94883 10.8629 6.8082 10.6684 6.70703C10.4719 6.60781 10.2539 6.5582 10.0137 6.5582C9.79766 6.5582 9.59141 6.60156 9.39297 6.69297C9.19648 6.78242 9.03164 6.92305 8.90273 7.11367C8.77383 7.30391 8.69844 7.54805 8.67852 7.8457H7.39297C7.41289 7.33984 7.5418 6.91133 7.77773 6.56016C8.01602 6.20898 8.32969 5.94297 8.71836 5.7625C9.10938 5.58203 9.5418 5.49297 10.0137 5.49297C10.5336 5.49297 10.9859 5.58789 11.3746 5.78242C11.7637 5.975 12.0672 6.24453 12.2836 6.58984C12.4977 6.93516 12.607 7.33594 12.607 7.79609C12.607 8.11172 12.5574 8.39531 12.4582 8.64727C12.359 8.89922 12.2199 9.12539 12.0375 9.32187C11.8547 9.52031 11.6387 9.69453 11.3848 9.8457C11.1445 9.99648 10.9504 10.1512 10.8035 10.3117C10.6547 10.4723 10.5473 10.6629 10.4801 10.8813C10.4125 11.1012 10.375 11.373 10.3691 11.6984V11.7777H9.16055ZM9.79961 14.3488C9.56758 14.3473 9.36914 14.2656 9.20234 14.1008C9.03594 13.9363 8.9543 13.7359 8.9543 13.502C8.9543 13.2719 9.03594 13.0734 9.20234 12.9086C9.36914 12.7441 9.56758 12.6605 9.79961 12.6605C10.0277 12.6605 10.2262 12.7441 10.3926 12.9086C10.5613 13.0734 10.6445 13.2719 10.6445 13.502C10.6445 13.6566 10.6051 13.7996 10.5277 13.9266C10.4504 14.0555 10.3492 14.1586 10.2223 14.234C10.0953 14.3094 9.9543 14.3473 9.79961 14.3488ZM16.3168 3.6832C14.7004 2.06719 12.4668 1.06719 10 1.06719C7.5332 1.06719 5.3 2.06719 3.6832 3.6832C2.06719 5.3 1.06719 7.5332 1.06719 10C1.06719 12.4668 2.06719 14.7004 3.6832 16.3168C5.3 17.9328 7.5332 18.9328 10 18.9328C12.4668 18.9328 14.7004 17.9328 16.3168 16.3168C17.9328 14.7004 18.9328 12.4668 18.9328 10C18.9328 7.5332 17.9328 5.3 16.3168 3.6832Z" fill="#222222" fill-opacity="0.5"/>
</g>
</svg>
