<svg xmlns="http://www.w3.org/2000/svg" width="17" height="30" class="product-svg" viewBox="0 0 17 17" fill="none">
  <path d="M16 10.75C16 13.6525 13.6525 16 10.75 16L11.5375 14.6875M1 6.25C1 3.3475 3.3475 1 6.25 1L5.4625 2.3125M9.775 2.8375L12.76 4.5625L15.715 2.845M12.76 7.615V4.555" stroke="#0B3D60" stroke-linecap="round" stroke-linejoin="round"/>
  <path d="M1.26247 11.0875L4.23997 12.8125L7.20247 11.095M4.23997 15.865V12.805M12.055 1.1575L10.255 2.155C9.84997 2.38 9.51247 2.95 9.51247 3.415V5.32C9.51247 5.785 9.84247 6.355 10.255 6.58L12.055 7.5775C12.4375 7.795 13.0675 7.795 13.4575 7.5775L15.2575 6.58C15.6625 6.355 16 5.785 16 5.32V3.415C16 2.95 15.67 2.38 15.2575 2.155L13.4575 1.1575C13.075 0.9475 12.445 0.9475 12.055 1.1575Z" stroke="#0B3D60" stroke-linecap="round" stroke-linejoin="round"/>
  <path d="M3.5425 9.40752L1.7425 10.405C1.3375 10.63 1 11.2 1 11.665V13.57C1 14.035 1.33 14.605 1.7425 14.83L3.5425 15.8275C3.925 16.045 4.555 16.045 4.945 15.8275L6.745 14.83C7.15 14.605 7.4875 14.035 7.4875 13.57V11.665C7.4875 11.2 7.1575 10.63 6.745 10.405L4.945 9.40752C4.555 9.19752 3.925 9.19752 3.5425 9.40752Z" stroke="#0B3D60" stroke-linecap="round" stroke-linejoin="round"/>
</svg>