<svg width="25" height="25" viewBox="0 0 25 25" fill="none" xmlns="http://www.w3.org/2000/svg">
<path fill-rule="evenodd" clip-rule="evenodd" d="M22.2638 4.68454L4.68454 22.2638H8.31942C9.07501 22.2638 9.68753 22.8763 9.68753 23.6319C9.68753 24.3875 9.07501 25 8.31942 25H1.47885C1.46252 25 1.44626 24.9997 1.43008 24.9991C1.06398 25.012 0.693684 24.8788 0.414217 24.5993C0.175679 24.3608 0.0436394 24.056 0.0180995 23.7442C0.00619224 23.6716 0 23.5971 0 23.5211V16.6806C0 15.925 0.612526 15.3125 1.36811 15.3125C2.1237 15.3125 2.73623 15.925 2.73623 16.6806V20.3425L20.3425 2.73623H16.6806C15.925 2.73623 15.3125 2.1237 15.3125 1.36811C15.3125 0.612526 15.925 0 16.6806 0H23.5211C23.5971 0 23.6716 0.00619224 23.7442 0.0180995C24.056 0.0436394 24.3608 0.175679 24.5993 0.414217C24.8788 0.693684 25.012 1.06398 24.9991 1.43008C24.9997 1.44626 25 1.46252 25 1.47885V8.31942C25 9.07501 24.3875 9.68753 23.6319 9.68753C22.8763 9.68753 22.2638 9.07501 22.2638 8.31942V4.68454Z" fill="white" fill-opacity="0.9"/>
</svg>
