<svg width="8" height="12" viewBox="0 0 8 12" fill="none" xmlns="http://www.w3.org/2000/svg">
<g id="Icon / Light / Month Chevron">
<path id="Month Chevron" d="M2.06641 11.6797C2.3584 11.6797 2.59326 11.5781 2.79639 11.375L7.57617 6.71582C7.84912 6.44287 7.96973 6.17627 7.97607 5.83984C7.97607 5.50977 7.84912 5.23047 7.57617 4.96387L2.80273 0.29834C2.59326 0.101562 2.35205 0 2.06641 0C1.48242 0 1 0.469727 1 1.05371C1 1.3457 1.12695 1.6123 1.34277 1.83447L5.48779 5.84619L1.34277 9.84521C1.12061 10.0674 1 10.334 1 10.626C1 11.2036 1.48242 11.6797 2.06641 11.6797Z" fill="#CCCCCC"/>
</g>
</svg>
