<svg xmlns="http://www.w3.org/2000/svg" width="15.906" height="16.787" viewBox="0 0 15.906 16.787"><defs><style>.a{fill:#666;}</style></defs><g transform="translate(-2.197 -0.6)"><g transform="translate(2.197 0.6)"><g transform="translate(3.075 4.063)"><path class="a" d="M15.09,21.2H14.074a.351.351,0,0,0-.374.374v3.074a.354.354,0,0,0,.4.4h.989a.359.359,0,0,0,.4-.374V21.6Q15.451,21.2,15.09,21.2Z" transform="translate(-13.7 -19.757)"/><path class="a" d="M35.79,15.8H34.774a.351.351,0,0,0-.374.374v4.491a.354.354,0,0,0,.4.4h.989a.359.359,0,0,0,.4-.374V16.174C36.191,15.96,36.031,15.827,35.79,15.8Z" transform="translate(-28.867 -15.8)"/><path class="a" d="M25.39,26.2H24.374a.359.359,0,0,0-.374.4v1.737a.354.354,0,0,0,.4.4h.989a.366.366,0,0,0,.4-.4V26.574A.372.372,0,0,0,25.39,26.2Z" transform="translate(-21.247 -23.42)"/></g><path class="a" d="M8.934.6H8.827A6.756,6.756,0,0,0,4.1,2.658,6.659,6.659,0,0,0,2.2,7.443a6.744,6.744,0,0,0,6.709,6.6h.107a6.9,6.9,0,0,0,3.234-.882l.134-.08.08.107c.642.8,1.31,1.6,1.951,2.406l1.1,1.337a1.165,1.165,0,0,0,.909.454h.053a1.2,1.2,0,0,0,.722-.294,3.442,3.442,0,0,0,.454-.428l.053-.053a1.128,1.128,0,0,0,.4-.855,1.258,1.258,0,0,0-.374-.882c-.535-.535-1.1-1.069-1.657-1.631l-.668-.668c-.187-.187-.374-.347-.561-.535l-.535-.535L14.2,11.4l.08-.107a6.551,6.551,0,0,0,1.337-4.117A6.716,6.716,0,0,0,8.934.6Zm2.86,11.387-.107.08a5.577,5.577,0,0,1-2.646.748h-.08a5.5,5.5,0,0,1-2.486-10.4,5.086,5.086,0,0,1,2.352-.561h.08a5.475,5.475,0,0,1,2.887,10.131Z" transform="translate(-2.197 -0.6)"/></g></g></svg>