<svg width="48" height="42" viewBox="0 0 48 42" fill="none" xmlns="http://www.w3.org/2000/svg">
<g id="&#240;&#159;&#166;&#134; icon &#34;Send alt filled&#34;">
<path id="Vector" d="M44.3561 20.8673C44.3566 20.632 44.2899 20.4021 44.1639 20.2046C44.0379 20.007 43.8577 19.85 43.6446 19.7521L17.484 7.63535C17.2558 7.53346 17.0013 7.50368 16.7544 7.54997C16.5075 7.59625 16.2799 7.7164 16.1017 7.89447C15.9236 8.07254 15.8033 8.3001 15.757 8.54692C15.7106 8.79374 15.7403 9.04814 15.8422 9.27634L20.303 19.7584L31.4017 19.6923L31.3903 22.1561L20.2567 22.2049L15.7074 32.7352C15.6085 32.963 15.58 33.2145 15.6256 33.4573C15.6712 33.7002 15.7889 33.923 15.9632 34.0971C16.1427 34.2692 16.3706 34.3825 16.6169 34.422C16.8632 34.4614 17.1163 34.4252 17.343 34.3182L43.6169 21.9714C43.8315 21.8754 44.0149 21.7206 44.1458 21.5252C44.2767 21.3297 44.3496 21.1015 44.3561 20.8673Z" fill="#0B3D60"/>
</g>
</svg>
