<svg xmlns="http://www.w3.org/2000/svg" width="16.267" height="16.261" viewBox="0 0 16.267 16.261"><defs><style>.a{fill:#666;}</style></defs><g transform="translate(0.004 0.004)"><path class="a" d="M16.046,4.7a1.713,1.713,0,0,0-1.556-.99,2.377,2.377,0,0,1-1.61-.488,2.348,2.348,0,0,1-.537-1.6A1.711,1.711,0,0,0,11.3.1,1.712,1.712,0,0,0,9.5.5a2.429,2.429,0,0,1-1.485.8A2.338,2.338,0,0,1,6.511.551,1.716,1.716,0,0,0,4.7.2a1.716,1.716,0,0,0-.994,1.556,2.377,2.377,0,0,1-.488,1.61,2.361,2.361,0,0,1-1.594.537A1.722,1.722,0,0,0,.1,4.95a1.712,1.712,0,0,0,.4,1.8,2.429,2.429,0,0,1,.8,1.483A2.334,2.334,0,0,1,.551,9.74,1.708,1.708,0,0,0,.2,11.553a1.714,1.714,0,0,0,1.556.994,2.377,2.377,0,0,1,1.61.488,2.339,2.339,0,0,1,.537,1.594A1.71,1.71,0,0,0,4.95,16.152a1.711,1.711,0,0,0,1.8-.4,2.381,2.381,0,0,1,1.483-.794,2.39,2.39,0,0,1,1.509.75A1.649,1.649,0,0,0,12.55,14.5a2.377,2.377,0,0,1,.488-1.61,2.334,2.334,0,0,1,1.6-.532A1.65,1.65,0,0,0,15.76,9.51a2.4,2.4,0,0,1-.8-1.485,2.325,2.325,0,0,1,.75-1.506,1.739,1.739,0,0,0,.338-1.82ZM9.379,11.033a3.165,3.165,0,1,1,1.651-4.157,3.165,3.165,0,0,1-1.651,4.157Z" transform="translate(0 0)"/></g></svg>