<svg xmlns="http://www.w3.org/2000/svg" width="22" height="23" viewBox="0 0 22 23" fill="none">
  <path d="M21.0128 8.35026L21.0061 8.34166L20.999 8.33335L14.8879 1.14495L14.888 1.14488L14.8807 1.13665C14.5131 0.72307 14.0322 0.5 13.5 0.5C12.9535 0.5 12.5113 0.734704 12.1541 1.13665C11.7967 1.53876 11.6111 2.00792 11.6111 2.5627V5.51206C9.59218 5.57031 7.90452 5.7666 6.56392 6.14301C4.69536 6.62894 3.20563 7.45114 2.21783 8.605C1.04335 9.9694 0.5 11.7375 0.5 13.9313C0.5 15.6414 0.861897 17.2115 1.67226 18.6248C2.19133 19.6226 2.89431 20.4533 3.7735 21.155C3.96556 21.3157 4.17716 21.425 4.41107 21.4728C4.64494 21.5207 4.87026 21.5008 5.07962 21.4485C5.50587 21.3419 5.87416 21.1101 6.12459 20.6593C6.36564 20.2254 6.40361 19.791 6.31867 19.3132L6.31488 19.2919L6.30926 19.271C5.86302 17.6102 5.83383 16.4979 6.11638 15.7985L6.11647 15.7985L6.12003 15.7892C6.35962 15.1602 6.93086 14.6582 7.9384 14.3743C8.67086 14.177 9.87362 14.0617 11.6111 14.0134V16.9395C11.6111 17.527 11.7925 17.9978 12.1541 18.4046C12.536 18.8344 12.9899 19.0022 13.5 19.0022C14.0322 19.0022 14.5131 18.7791 14.8807 18.3655L14.8808 18.3656L14.8879 18.3572L20.999 11.1688L21.0061 11.1605L21.0128 11.1519C21.3173 10.7604 21.5 10.3026 21.5 9.75109C21.5 9.24441 21.321 8.74667 21.0128 8.35026ZM3.93384 18.1605C3.74248 17.8913 3.57434 17.607 3.42908 17.3074L3.42267 17.2942L3.41549 17.2813C2.87375 16.3132 2.61111 15.1892 2.61111 13.9313C2.61111 12.0769 3.13501 10.7382 4.12203 9.80118L4.12375 9.79953C4.96697 8.99134 6.25163 8.39684 7.995 8.09506L7.99501 8.09511L8.00188 8.09382C9.20649 7.86793 10.9411 7.75078 13.2222 7.75078H13.7222V7.25078V3.11658L19.3625 9.75109L13.7222 16.3856V12.2514V11.7514H13.2222C10.8208 11.7514 9.04091 11.868 7.87596 12.1138L7.87595 12.1137L7.8694 12.1152C6.22497 12.4853 5.02949 13.2085 4.38077 14.3946L4.38075 14.3946L4.37826 14.3992C3.85048 15.3889 3.73328 16.6475 3.93384 18.1605Z" fill="#606770" stroke="white"/>
</svg>