<svg width="34" height="35" viewBox="0 0 34 35" fill="none" xmlns="http://www.w3.org/2000/svg">
<path d="M14.882 12.8436C14.882 12.2637 14.4253 11.7936 13.862 11.7936C13.2987 11.7936 12.842 12.2637 12.842 12.8436H14.882ZM21.157 12.8436C21.157 12.2637 20.7003 11.7936 20.137 11.7936C19.5737 11.7936 19.117 12.2637 19.117 12.8436H21.157ZM12.8422 12.8256C12.8325 13.4054 13.2812 13.8835 13.8444 13.8934C14.4077 13.9034 14.8722 13.4415 14.8818 12.8616L12.8422 12.8256ZM14.8954 12.0468C14.9051 11.467 14.4564 10.9889 13.8931 10.9789C13.3299 10.969 12.8654 11.4309 12.8557 12.0108L14.8954 12.0468ZM14.8514 13.099C14.9884 12.5365 14.6566 11.9662 14.1102 11.8251C13.5637 11.6841 13.0097 12.0257 12.8726 12.5882L14.8514 13.099ZM13.6484 13.72L14.6354 13.9853L14.6378 13.9754L13.6484 13.72ZM9.42074 14.6897C8.95783 14.3593 8.32233 14.4777 8.00132 14.9542C7.68032 15.4308 7.79537 16.085 8.2583 16.4154L9.42074 14.6897ZM9.85947 15.5634C9.86525 14.9835 9.41328 14.5086 8.84998 14.5027C8.28667 14.4967 7.82535 14.9619 7.81957 15.5418L9.85947 15.5634ZM8.76472 23.0664L9.78465 23.079L9.78467 23.0772L8.76472 23.0664ZM14.2795 26.95C14.8428 26.95 15.2995 26.4799 15.2995 25.9C15.2995 25.3201 14.8428 24.85 14.2795 24.85V26.95ZM8.25575 16.4136C8.71771 16.7455 9.35355 16.6291 9.67595 16.1535C9.99836 15.678 9.88524 15.0234 9.42329 14.6916L8.25575 16.4136ZM7.58696 12.0288L6.6308 11.6632C6.61946 11.6946 6.60958 11.7266 6.60122 11.759L7.58696 12.0288ZM8.72256 8.88159L9.67874 9.2472C9.68857 9.21996 9.69729 9.19231 9.70489 9.16431L8.72256 8.88159ZM10.2308 7.69999V6.64999H10.2278L10.2308 7.69999ZM23.7668 7.69999L23.7698 6.64999H23.7668V7.69999ZM25.2751 8.88159L24.2928 9.16432C24.3004 9.19225 24.3091 9.21986 24.3189 9.24706L25.2751 8.88159ZM26.4107 12.0302L27.3965 11.7605C27.3881 11.7281 27.3783 11.6961 27.3669 11.6647L26.4107 12.0302ZM24.5754 14.6919C24.1135 15.0241 24.0008 15.6786 24.3234 16.154C24.6461 16.6293 25.282 16.7454 25.7437 16.4133L24.5754 14.6919ZM13.2595 25.9C13.2595 26.4799 13.7162 26.95 14.2795 26.95C14.8428 26.95 15.2995 26.4799 15.2995 25.9H13.2595ZM18.6995 25.9C18.6995 26.4799 19.1562 26.95 19.7195 26.95C20.2828 26.95 20.7395 26.4799 20.7395 25.9H18.6995ZM14.2795 24.85C13.7162 24.85 13.2595 25.3201 13.2595 25.9C13.2595 26.4799 13.7162 26.95 14.2795 26.95V24.85ZM19.7195 26.95C20.2828 26.95 20.7395 26.4799 20.7395 25.9C20.7395 25.3201 20.2828 24.85 19.7195 24.85V26.95ZM19.1171 12.8562C19.1239 13.4361 19.5861 13.9005 20.1494 13.8935C20.7126 13.8865 21.1638 13.4108 21.157 12.831L19.1171 12.8562ZM21.1475 12.0162C21.1407 11.4363 20.6786 10.9719 20.1152 10.9789C19.5519 10.9858 19.1008 11.4616 19.1076 12.0414L21.1475 12.0162ZM21.1302 12.587C20.9926 12.0247 20.4381 11.6837 19.8919 11.8254C19.3456 11.9671 19.0143 12.5379 19.1521 13.1002L21.1302 12.587ZM20.3546 13.7158L19.3655 13.9724L19.3676 13.9807L20.3546 13.7158ZM25.7394 16.4164C26.2027 16.0868 26.3189 15.4329 25.9987 14.9558C25.6785 14.4786 25.0432 14.3591 24.5797 14.6887L25.7394 16.4164ZM26.1795 15.5424C26.174 14.9625 25.713 14.497 25.1497 14.5027C24.5864 14.5083 24.1342 14.9829 24.1396 15.5628L26.1795 15.5424ZM25.2302 23.0664L24.2103 23.0766V23.079L25.2302 23.0664ZM19.7195 24.85C19.1562 24.85 18.6995 25.3201 18.6995 25.9C18.6995 26.4799 19.1562 26.95 19.7195 26.95V24.85ZM12.842 12.8436C12.842 15.2072 14.7034 17.1234 16.9995 17.1234V15.0234C15.83 15.0234 14.882 14.0475 14.882 12.8436H12.842ZM16.9995 17.1234C19.2957 17.1234 21.157 15.2072 21.157 12.8436H19.117C19.117 14.0475 18.1689 15.0234 16.9995 15.0234V17.1234ZM14.8818 12.8616L14.8954 12.0468L12.8557 12.0108L12.8422 12.8256L14.8818 12.8616ZM12.8726 12.5882L12.6591 13.4646L14.6378 13.9754L14.8514 13.099L12.8726 12.5882ZM12.6616 13.4547C12.4876 14.1404 11.9994 14.6955 11.3538 14.9415L12.062 16.9109C13.3324 16.4268 14.2932 15.3346 14.6354 13.9853L12.6616 13.4547ZM11.3538 14.9415C10.7081 15.1876 9.98649 15.0935 9.42074 14.6897L8.2583 16.4154C9.37152 17.2101 10.7916 17.3951 12.062 16.9109L11.3538 14.9415ZM7.81957 15.5418L7.74477 23.0556L9.78467 23.0772L9.85947 15.5634L7.81957 15.5418ZM7.7448 23.0538C7.73279 24.0828 8.12154 25.074 8.82422 25.8061L10.2753 24.33C9.95589 23.9973 9.7792 23.5467 9.78465 23.079L7.7448 23.0538ZM8.82422 25.8061C9.52692 26.5381 10.4851 26.9501 11.4848 26.95L11.4847 24.85C11.0303 24.85 10.5947 24.6628 10.2753 24.33L8.82422 25.8061ZM11.4848 26.95H14.2795V24.85H11.4847L11.4848 26.95ZM9.42329 14.6916C8.67946 14.1572 8.3396 13.201 8.5727 12.2986L6.60122 11.759C6.14778 13.5143 6.80888 15.3741 8.25575 16.4136L9.42329 14.6916ZM8.54314 12.3944L9.67874 9.2472L7.7664 8.51598L6.6308 11.6632L8.54314 12.3944ZM9.70489 9.16431C9.77126 8.91995 9.98726 8.75072 10.2338 8.74999L10.2278 6.64999C9.06844 6.65345 8.05242 7.44944 7.74023 8.59888L9.70489 9.16431ZM10.2308 8.74999H23.7668V6.64999H10.2308V8.74999ZM23.764 8.74999C24.0104 8.75072 24.2264 8.91995 24.2928 9.16432L26.2574 8.59886C25.9453 7.44944 24.9292 6.65345 23.7698 6.64999L23.764 8.74999ZM24.3189 9.24706L25.4545 12.3957L27.3669 11.6647L26.2313 8.51612L24.3189 9.24706ZM25.425 12.2999C25.6578 13.2018 25.3183 14.1574 24.5754 14.6919L25.7437 16.4133C27.1893 15.3735 27.8494 13.5148 27.3965 11.7605L25.425 12.2999ZM15.2995 25.9V21.7H13.2595V25.9H15.2995ZM15.2995 21.7C15.2995 21.5067 15.4518 21.35 15.6395 21.35V19.25C14.325 19.25 13.2595 20.3469 13.2595 21.7H15.2995ZM15.6395 21.35H18.3595V19.25H15.6395V21.35ZM18.3595 21.35C18.5473 21.35 18.6995 21.5067 18.6995 21.7H20.7395C20.7395 20.3469 19.6739 19.25 18.3595 19.25V21.35ZM18.6995 21.7V25.9H20.7395V21.7H18.6995ZM14.2795 26.95H19.7195V24.85H14.2795V26.95ZM21.157 12.831L21.1475 12.0162L19.1076 12.0414L19.1171 12.8562L21.157 12.831ZM19.1521 13.1002L19.3655 13.9724L21.3437 13.4592L21.1302 12.587L19.1521 13.1002ZM19.3676 13.9807C19.7091 15.3292 20.6684 16.4212 21.9374 16.9063L22.6476 14.9377C22.0026 14.6911 21.5152 14.1362 21.3417 13.4509L19.3676 13.9807ZM21.9374 16.9063C23.2064 17.3915 24.6255 17.2087 25.7394 16.4164L24.5797 14.6887C24.0137 15.0913 23.2925 15.1843 22.6476 14.9377L21.9374 16.9063ZM24.1396 15.5628L24.2103 23.0766L26.2502 23.0562L26.1795 15.5424L24.1396 15.5628ZM24.2103 23.079C24.2158 23.5467 24.0391 23.9973 23.7196 24.33L25.1708 25.8061C25.8735 25.074 26.2622 24.0828 26.2502 23.0538L24.2103 23.079ZM23.7196 24.33C23.4003 24.6628 22.9647 24.85 22.5103 24.85L22.5102 26.95C23.5099 26.9501 24.4681 26.5381 25.1708 25.8061L23.7196 24.33ZM22.5103 24.85H19.7195V26.95H22.5102L22.5103 24.85Z" fill="black"/>
</svg>
