<svg xmlns="http://www.w3.org/2000/svg" width="17.669" height="13.631" viewBox="0 0 17.669 13.631"><defs><style>.a{fill:#666;}</style></defs><g transform="translate(-6.5 -10)"><path class="a" d="M24.169,14.291h0L21.393,10H9.277L6.5,14.291h0a1.789,1.789,0,0,0,1.767,1.767,1.756,1.756,0,0,0,1.767-1.767h0A1.789,1.789,0,0,0,11.8,16.058a1.756,1.756,0,0,0,1.767-1.767h0a1.789,1.789,0,0,0,1.767,1.767A1.756,1.756,0,0,0,17.1,14.291h0a1.789,1.789,0,0,0,1.767,1.767,1.756,1.756,0,0,0,1.767-1.767h0A1.789,1.789,0,0,0,22.4,16.058a1.756,1.756,0,0,0,1.767-1.767Z"/><path class="a" d="M23.64,25.7a3.689,3.689,0,0,1-1.515-.3v3.837H11.019V25.4a3.689,3.689,0,0,1-1.515.3,1.717,1.717,0,0,1-.5-.05v5.6H24.145v-5.6A1.717,1.717,0,0,1,23.64,25.7Z" transform="translate(-1.238 -7.625)"/></g></svg>