<svg xmlns="http://www.w3.org/2000/svg" width="20" height="20" viewBox="0 0 20 20" fill="none">
<path d="M17.6973 12.2917C17.6973 13.0333 17.5009 13.7333 17.1409 14.3333C16.7961 14.919 16.308 15.4035 15.7244 15.7394C15.1407 16.0754 14.4814 16.2513 13.8109 16.25C13.0418 16.25 12.3218 16.0167 11.7164 15.6083C11.2091 15.2917 10.7918 14.85 10.4891 14.3333C10.1291 13.7333 9.92456 13.0333 9.92456 12.2917C9.92456 10.1083 11.6673 8.33334 13.8109 8.33334C14.1055 8.33334 14.3918 8.36668 14.6618 8.43334C15.5233 8.62868 16.2936 9.11747 16.8455 9.81898C17.3974 10.5205 17.6979 11.3927 17.6973 12.2917Z" stroke="#0B3D60" stroke-miterlimit="10" stroke-linecap="round" stroke-linejoin="round"/>
<path d="M12.2974 12.2917L13.2546 13.2667L15.3246 11.3167" stroke="#0B3D60" stroke-linecap="round" stroke-linejoin="round"/>
<path d="M16.9283 3.34999V5.19999C16.9283 5.87499 16.511 6.71666 16.1019 7.14166L14.6619 8.43332C14.3831 8.36577 14.0975 8.33221 13.811 8.33332C11.6673 8.33332 9.92462 10.1083 9.92462 12.2917C9.92462 13.0333 10.1292 13.7333 10.4892 14.3333C10.7919 14.85 11.2092 15.2917 11.7164 15.6083V15.8917C11.7164 16.4 11.3892 17.075 10.9719 17.325L9.81825 18.0833C8.74643 18.7583 7.25734 18 7.25734 16.65V12.1917C7.25734 11.6 6.92189 10.8417 6.59462 10.425L3.4528 7.05832C3.04371 6.63332 2.70825 5.87499 2.70825 5.37499V3.43332C2.70825 2.42499 3.4528 1.66666 4.36098 1.66666H15.2755C16.1837 1.66666 16.9283 2.42499 16.9283 3.34999Z" stroke="#0B3D60" stroke-miterlimit="10" stroke-linecap="round" stroke-linejoin="round"/>
</svg>