<svg xmlns="http://www.w3.org/2000/svg" width="28" height="28" viewBox="0 0 28 28" fill="none">
  <circle cx="14" cy="14" r="12" fill="url(#paint0_linear_895_14716)" stroke="white" stroke-width="4"/>
  <path d="M10.7299 13.4767C10.8498 13.4767 10.9697 13.5367 11.0696 13.6166C11.1496 13.7166 11.2095 13.8365 11.2095 13.9564V18.7529C11.2095 18.8928 11.1496 19.0127 11.0696 19.0927C10.9697 19.1926 10.8498 19.2326 10.7299 19.2326H9.13102C8.99112 19.2326 8.87121 19.1926 8.79127 19.0927C8.69134 19.0127 8.65137 18.8928 8.65137 18.7529V13.9564C8.65137 13.8365 8.69134 13.7166 8.79127 13.6166C8.87121 13.5367 8.99112 13.4767 9.13102 13.4767H10.7299ZM9.93044 18.4331C10.0503 18.4331 10.1703 18.3932 10.2702 18.2932C10.3501 18.2133 10.4101 18.0934 10.4101 17.9535C10.4101 17.8336 10.3501 17.7137 10.2702 17.6137C10.1703 17.5338 10.0503 17.4738 9.93044 17.4738C9.79054 17.4738 9.67063 17.5338 9.59068 17.6137C9.49076 17.7137 9.45079 17.8336 9.45079 17.9535C9.45079 18.0934 9.49076 18.2133 9.59068 18.2932C9.67063 18.3932 9.79054 18.4331 9.93044 18.4331ZM16.3258 10.6188C16.3258 9.97929 16.1459 9.53961 15.7862 9.25981C15.5464 9.09993 15.2466 9 14.8868 9C14.707 9 14.5471 9.15988 14.4272 9.43968C14.3472 9.59956 14.2873 9.83939 14.2073 10.1392V10.1592C14.1274 10.4589 14.0674 10.6788 14.0275 10.7987C13.9475 11.0385 13.8276 11.2184 13.7077 11.3383C13.4878 11.5382 13.228 11.8779 12.9083 12.3376C12.5086 12.8972 12.1888 13.3169 11.929 13.5967C11.869 13.6366 11.849 13.6966 11.849 13.7565V18.0334C11.849 18.1134 11.869 18.1733 11.909 18.2133C11.949 18.2533 12.0089 18.2733 12.0889 18.2733C12.3087 18.2733 12.6485 18.3932 13.1081 18.593C13.5678 18.7929 13.9275 18.9328 14.2073 19.0127C14.647 19.1726 15.0867 19.2326 15.5264 19.2326H15.5863C16.1659 19.2326 16.6056 19.2126 16.8854 19.1526C17.345 19.0727 17.6648 18.9128 17.8447 18.653C18.0046 18.4132 18.0645 18.1134 17.9846 17.7536C18.1445 17.5738 18.2444 17.3339 18.3243 17.0541C18.3843 16.7743 18.3843 16.5145 18.3043 16.2547C18.4642 16.0349 18.5642 15.7751 18.6041 15.4753C18.6241 15.1955 18.5841 14.9157 18.4842 14.6559H18.5042C18.6041 14.536 18.6841 14.3961 18.764 14.2162C18.844 14.0563 18.8839 13.8765 18.8839 13.6766C18.8839 13.3768 18.764 13.117 18.5242 12.8772C18.2844 12.6374 18.0046 12.5174 17.6848 12.5174H15.6663C15.6863 12.3975 15.7662 12.1777 15.9261 11.8979C16.046 11.6581 16.1459 11.4782 16.2059 11.3383C16.2858 11.0985 16.3258 10.8586 16.3258 10.6188Z" fill="white"/>
  <defs>
    <linearGradient id="paint0_linear_895_14716" x1="14" y1="4" x2="14" y2="24" gradientUnits="userSpaceOnUse">
      <stop stop-color="#48ADF8"/>
      <stop offset="1" stop-color="#1E5FED"/>
    </linearGradient>
  </defs>
</svg>