<svg width="25" height="25" viewBox="0 0 25 25" fill="none" xmlns="http://www.w3.org/2000/svg">
<circle opacity="0.4" cx="12.5" cy="12.5" r="12.5" fill="#C8BFE7"/>
<path fill-rule="evenodd" clip-rule="evenodd" d="M11.3547 9.19883C11.3547 10.4106 10.3715 11.3968 9.16349 11.3968C7.95459 11.3968 6.97231 10.4106 6.97231 9.19883C6.97231 7.98708 7.95459 7 9.16349 7C10.3715 7 11.3547 7.98708 11.3547 9.19883ZM18.5463 13.9876C18.7517 14.1875 18.899 14.4157 18.996 14.6589C19.2896 15.3948 19.1371 16.2793 18.8232 17.0081C18.4511 17.8758 17.7386 18.5312 16.841 18.8178C16.4424 18.946 16.0244 19.0008 15.6074 19.0008H8.2173C7.48191 19.0008 6.83117 18.8293 6.2977 18.5073C5.96351 18.3056 5.90444 17.8413 6.15221 17.5388C6.56664 17.0346 6.97578 16.5287 7.38844 16.0184C8.17498 15.0419 8.70492 14.7589 9.29394 15.0074C9.5329 15.11 9.77274 15.2648 10.0196 15.4275C10.6774 15.8645 11.5918 16.4641 12.7963 15.8132C13.6196 15.3616 14.0975 14.5888 14.5135 13.9162L14.5219 13.9027C14.5499 13.8577 14.5777 13.8127 14.6053 13.7678C14.7468 13.5385 14.8861 13.3127 15.0439 13.1049C15.2397 12.8475 15.9662 12.0426 16.9053 12.6157C17.504 12.9766 18.0075 13.4649 18.5463 13.9876Z" fill="#0B3D60"/>
</svg>
