<svg xmlns="http://www.w3.org/2000/svg" width="70" height="61" viewBox="0 0 70 61" fill="none">
  <path d="M36.7346 14.8742L36.6418 14.8465C36.1738 14.7064 35.9078 14.2128 36.0471 13.7439L36.7346 14.8742ZM36.7346 14.8742L36.7386 14.8696M36.7346 14.8742L36.7386 14.8696M36.7386 14.8696C37.1778 14.9494 37.6128 14.6853 37.7416 14.249C38.9171 10.2844 42.6202 7.51522 46.7454 7.51522C47.2341 7.51522 47.6295 7.11754 47.6295 6.62841C47.6295 6.13927 47.2341 5.7416 46.7454 5.7416C41.6752 5.7416 37.415 9.13004 36.0472 13.7438L36.7386 14.8696Z" fill="#0B3D60" stroke="#F9FFF9" stroke-width="0.3"/>
  <path d="M57.0216 42.7325H52.6174C52.2121 42.7325 51.8834 42.4025 51.8834 41.9957C51.8834 41.5889 52.2121 41.2589 52.6174 41.2589H57.0216C63.0926 41.2589 68.0322 36.3007 68.0322 30.2069C68.0322 24.1131 63.0926 19.1549 57.0216 19.1549H56.9157C56.7028 19.1549 56.5004 19.0622 56.3609 18.9007C56.2215 18.7391 56.1586 18.5249 56.189 18.3133C56.2545 17.8544 56.2876 17.3934 56.2876 16.9445C56.2876 11.6632 52.0065 7.36601 46.745 7.36601C44.698 7.36601 42.746 8.00807 41.0996 9.22326C40.7378 9.49009 40.224 9.37167 40.0148 8.97221C35.3521 0.0601128 23.1736 -1.13669 16.8597 6.61606C14.1999 9.88218 13.1548 14.1309 13.9922 18.2718C14.0845 18.7291 13.7359 19.1554 13.2729 19.1554H12.9787C6.90776 19.1554 1.96815 24.1136 1.96815 30.2074C1.96815 36.3013 6.90776 41.2595 12.9787 41.2595H17.3829C17.7882 41.2595 18.117 41.5894 18.117 41.9963C18.117 42.4031 17.7882 42.7331 17.3829 42.7331H12.9787C6.09811 42.7331 0.5 37.1139 0.5 30.2074C0.5 23.4946 5.78819 17.9981 12.4025 17.6949C11.7812 13.3988 12.9693 9.06534 15.723 5.68349C22.4829 -2.61761 35.4379 -1.68717 40.9143 7.56917C42.6613 6.46974 44.6605 5.89299 46.7447 5.89299C53.1193 5.89299 58.1706 11.339 57.7286 17.7018C64.282 18.0707 69.5 23.5383 69.5 30.2069C69.5 37.1139 63.9022 42.7325 57.0216 42.7325Z" fill="#0B3D60"/>
  <path d="M16.3988 41.5794C16.3988 51.8187 24.6979 60.1497 34.9 60.1497C45.1024 60.1497 53.4013 51.8186 53.4013 41.5794C53.4013 31.3401 45.1024 23.0092 34.9 23.0092C24.6977 23.0092 16.3988 31.3402 16.3988 41.5794ZM18.1672 41.5794C18.1672 32.3177 25.6743 24.7831 34.9 24.7831C44.1257 24.7831 51.6328 32.3176 51.6328 41.5794C51.6328 50.8412 44.1257 58.3757 34.9 58.3757C25.6744 58.3757 18.1672 50.8413 18.1672 41.5794Z" fill="#0B3D60" stroke="#F9FFF9" stroke-width="0.3"/>
  <path d="M34.5512 48.9952C34.5512 49.3753 34.8585 49.6846 35.2386 49.6846C35.6186 49.6846 35.926 49.3758 35.926 48.9952V34.9701C35.926 34.5899 35.6187 34.2807 35.2386 34.2807C34.8585 34.2807 34.5512 34.5899 34.5512 34.9701V48.9952Z" fill="#0B3D60" stroke="#0B3D60" stroke-width="0.3"/>
  <path d="M35.2371 35.9464L39.05 39.7737C39.184 39.9082 39.3605 39.9758 39.5362 39.9758L35.2371 35.9464ZM35.2371 35.9464L31.4243 39.7736L35.2371 35.9464ZM30.4516 39.7737C30.7201 40.0432 31.1559 40.0434 31.4242 39.7737L34.7507 34.4838L30.4516 38.7991C30.1833 39.0683 30.1833 39.5044 30.4516 39.7737ZM35.7233 34.4837C35.4548 34.2142 35.0191 34.214 34.7508 34.4837L39.5363 39.9758C39.7117 39.9758 39.8883 39.9088 40.0225 39.7737C40.2908 39.5044 40.2908 39.0683 40.0225 38.7991L35.7233 34.4837Z" fill="#0B3D60" stroke="#0B3D60" stroke-width="0.3"/>
</svg>