<svg width="16" height="18" viewBox="0 0 16 18" fill="none" xmlns="http://www.w3.org/2000/svg">
<path id="Vector" fill-rule="evenodd" clip-rule="evenodd" d="M1.68789 18H14.3127C15.1287 18 16.1696 16.9878 15.9766 16.2231L13.8583 7.83105C13.3994 6.01172 12.7581 5.01563 10.6641 5.01563H9.05183C10.0153 4.61426 10.69 3.68994 10.69 2.61475C10.69 1.17041 9.4758 0 7.97748 0C6.47917 0 5.26501 1.17041 5.26501 2.61475C5.26501 3.69141 5.93971 4.61572 6.90313 5.01563H5.48231C3.39591 5.01563 2.51911 6.14648 2.08907 7.88086L0.0224208 16.2231C-0.166009 16.9878 0.871873 18 1.68789 18ZM5.66922 10.4956H6.34392V11.332L7.05205 10.4956H7.95165L7.15234 11.3262L7.98812 12.7075H7.1569L6.69495 11.7993L6.34392 12.1685V12.7075H5.66922V10.4956ZM9.16124 11.9077V11.4478H10.2067V12.3882C10.0061 12.5259 9.82986 12.6211 9.67639 12.6709C9.52291 12.7207 9.34056 12.7456 9.12933 12.7456C8.86948 12.7456 8.65826 12.7002 8.49414 12.6108C8.33003 12.5215 8.2039 12.3882 8.11425 12.2109C8.02459 12.0337 7.979 11.8315 7.979 11.6016C7.979 11.3599 8.02915 11.1504 8.1264 10.9717C8.22518 10.793 8.36954 10.6582 8.55949 10.5659C8.70841 10.4941 8.90747 10.459 9.15821 10.459C9.39982 10.459 9.58065 10.481 9.7007 10.5249C9.82075 10.5688 9.91952 10.6377 9.99854 10.7314C10.0776 10.8252 10.1368 10.9424 10.1763 11.0859L9.52595 11.2046C9.49859 11.1211 9.45301 11.0566 9.38918 11.0127C9.32536 10.9673 9.2433 10.9453 9.14301 10.9453C8.99561 10.9453 8.87708 10.9966 8.78894 11.1021C8.70081 11.2061 8.65674 11.3716 8.65674 11.5957C8.65674 11.8345 8.70081 12.0059 8.79046 12.1084C8.8786 12.2109 9.00321 12.2622 9.16276 12.2622C9.23874 12.2622 9.31016 12.252 9.37855 12.23C9.44693 12.208 9.52595 12.1699 9.61408 12.1172V11.9106H9.16124V11.9077ZM8.00028 7.77979C10.1657 7.77979 11.9208 9.47168 11.9208 11.5591C11.9208 13.6465 10.1657 15.3384 8.00028 15.3384C5.83486 15.3384 4.07973 13.6465 4.07973 11.5591C4.07973 9.47168 5.83638 7.77979 8.00028 7.77979ZM7.97748 1.5249C8.60203 1.5249 9.10806 2.0127 9.10806 2.61475C9.10806 3.2168 8.60203 3.70459 7.97748 3.70459C7.35293 3.70459 6.84691 3.2168 6.84691 2.61475C6.84843 2.0127 7.35445 1.5249 7.97748 1.5249Z" fill="#222222" fill-opacity="0.5"/>
</svg>
