<svg xmlns="http://www.w3.org/2000/svg" xmlns:xlink="http://www.w3.org/1999/xlink" width="25" height="25" viewBox="0 0 25 25">
  <defs>
    <linearGradient id="linear-gradient" x1="0.501" y1="1" x2="0.501" y2="0.002" gradientUnits="objectBoundingBox">
      <stop offset="0" stop-color="#20b038"/>
      <stop offset="1" stop-color="#60d66a"/>
    </linearGradient>
  </defs>
  <g id="WhatsApp-Logo.wine" transform="translate(-32.23 -25.533)">
    <path id="Path_1270" data-name="Path 1270" d="M.181-530.391A12.322,12.322,0,0,0,1.843-524.2l-1.766,6.42,6.6-1.723a12.487,12.487,0,0,0,5.948,1.508h.006a12.436,12.436,0,0,0,12.447-12.388,12.282,12.282,0,0,0-3.643-8.764,12.4,12.4,0,0,0-8.805-3.633A12.435,12.435,0,0,0,.181-530.391" transform="translate(32.153 568.311)" fill="url(#linear-gradient)"/>
    <path id="Path_1272" data-name="Path 1272" d="M174.128,175.182c-.239-.542-.491-.553-.718-.562-.186-.008-.4-.008-.612-.008a1.163,1.163,0,0,0-.851.407,3.678,3.678,0,0,0-1.117,2.714,6.394,6.394,0,0,0,1.3,3.366c.16.217,2.209,3.607,5.453,4.912,2.7,1.084,3.246.868,3.831.814a3.226,3.226,0,0,0,2.155-1.547,2.768,2.768,0,0,0,.186-1.547c-.08-.136-.293-.217-.612-.38s-1.889-.95-2.181-1.059-.506-.163-.718.163-.824,1.058-1.011,1.275-.372.245-.692.082a8.7,8.7,0,0,1-2.567-1.615,9.781,9.781,0,0,1-1.776-2.253c-.186-.325-.02-.5.14-.664.143-.146.319-.38.479-.57a2.239,2.239,0,0,0,.319-.543.609.609,0,0,0-.027-.57c-.08-.163-.7-1.772-.984-2.415" transform="translate(-132.536 -142.709)" fill="#fff" fill-rule="evenodd"/>
  </g>
</svg>
