<svg width="700" height="524" viewBox="0 0 700 524" fill="none" xmlns="http://www.w3.org/2000/svg">
<path fill-rule="evenodd" clip-rule="evenodd" d="M403.263 439.396C337.767 435.198 281.083 449.495 293.424 471.265C312.855 505.505 370.24 492.216 404.051 514.896C442.004 540.345 508.274 507.013 503.983 481.353C498.364 447.82 435.059 441.436 403.263 439.396ZM270.295 0.827933C231.817 12.1528 205.947 44.2355 221.892 68.1734C246.983 105.815 273.666 74.8071 302.029 94.4523C333.866 116.493 365.386 88.5568 352.343 57.7507C335.294 17.5006 288.975 -4.66559 270.295 0.827933Z" fill="#CEC7EA"/>
<path fill-rule="evenodd" clip-rule="evenodd" d="M396.069 432.711C554.593 497.766 642.307 272.089 561.256 153.81C408.178 -69.5019 364.399 189.562 244.912 114.857C110.817 31.0512 83.7514 264.182 116.394 341.537C206.116 554.414 313.773 398.945 396.069 432.711Z" fill="#CEC7EA"/>
<path d="M123.487 356.089C124.695 353.733 126.158 351.773 127.352 349.194C127.388 349.12 127.406 348.996 127.442 348.922C131.568 344.774 136.501 339.955 140.308 335.042C146.3 327.25 150.828 318.546 154.594 309.745C159.344 299.371 162.284 287.969 163.239 276.219C163.418 271.366 165.515 260.143 160.857 258.052C156.803 257.569 149.3 265.564 146.4 268.668C135.516 280.858 126.824 295.393 122.477 310.559C121.19 315.259 120.799 320.24 121.334 325.142C121.869 330.043 123.315 334.742 125.569 338.899C126.396 340.804 127.495 343.152 127.54 345.257C127.452 346.501 127.16 347.714 126.682 348.826C126.603 348.907 126.531 348.999 126.47 349.099C126.45 349.144 126.437 349.194 126.433 349.245C126.43 349.297 126.435 349.348 126.449 349.397C125.712 350.868 124.889 352.277 123.987 353.613C123.757 354.01 123.544 354.456 123.313 354.853C122.901 353.096 122.489 351.34 122.007 349.558C119.702 342.211 116.419 335.388 113.241 328.514C111.637 324.854 109.965 321.17 108.204 317.585C110.823 313.293 113.683 309.175 115.887 304.737C120.403 295.636 124.212 286.241 126.791 276.627C129.929 263.816 134.462 250.457 132.812 237.859C132.131 235.309 131.108 231.031 127.951 231.04C127.255 231.141 126.642 231.663 126.081 232.16L122.451 235.439C119.208 238.247 116.187 241.351 113.819 244.948C104.438 259.064 99.708 277.227 101.204 292.599C102.022 299.504 104.373 305.91 105.576 312.69L105.593 312.74C105.151 311.975 104.709 311.207 104.231 310.515C100.383 304.535 95.6956 299.126 91.8476 293.146C89.8547 290.132 87.8972 287.043 85.9042 284.028L85.8874 283.978C85.4372 282.469 85.0351 281.282 85.1043 279.87C85.3244 277.468 87.0263 274.418 88.1025 271.493C90.5413 264.875 91.4563 258.064 92.8905 251.349C94.9863 240.127 96.632 228.831 95.9324 217.791C95.8173 215.141 95.4771 212.513 94.9172 209.945C94.2663 206.406 91.3312 208.148 89.3443 210.358C85.5129 214.48 82.0061 219.021 79.5003 224.005C77.3647 228.467 76.5616 233.273 75.7756 237.956C74.6682 244.916 73.7329 252.025 74.6052 258.733C75.1829 262.593 76.5795 266.179 78.2732 269.566C79.5899 272.558 81.6248 274.979 83.5196 277.523C83.8779 277.869 84.0618 278.586 84.4743 278.907C84.3199 279.55 84.2593 280.22 84.2951 280.888L84.4384 281.854C83.0049 279.778 81.5911 277.752 80.0712 275.777C76.3781 271.331 72.366 267.554 68.6865 263.332C65.3639 259.801 61.7084 256.543 58.2981 253.112C58.3086 253.001 58.3328 252.893 58.3698 252.79C58.4841 252.35 58.6225 251.92 58.7841 251.501C59.8538 249.096 61.4074 246.863 62.6155 244.507C64.2483 241.432 66.0201 238.406 67.3763 235.233C68.7193 231.835 69.846 228.322 70.7468 224.725C73.01 216.869 73.4186 208.92 73.0437 201.172C72.9036 198.423 72.3968 195.85 72.1309 193.449C72.0194 192.35 71.853 191.259 71.6328 190.182C71.4819 189.737 71.2808 189.143 70.7261 189.12C69.9978 189.123 69.6061 189.941 69.2355 190.462C68.2997 191.826 67.3471 193.141 66.3778 194.407C63.7021 197.634 60.6476 200.639 58.4536 204.211C54.4398 210.487 51.9426 217.65 51.8594 224.583C52.0207 229.906 53.9405 234.679 55.4432 239.478C56.2765 242.298 57.1789 245.143 57.319 247.892C57.4236 249.278 57.3548 250.69 57.3548 252.126C55.4375 250.052 53.1761 247.682 51.4032 245.137C51.058 244.647 50.7563 244.117 50.5029 243.555C50.5828 243.328 50.6039 243.078 50.5635 242.836C50.5035 242.302 50.5042 241.761 50.5657 241.227C50.6893 238.181 51.0387 235.085 50.709 232.14C50.2904 229.467 49.0698 227.119 48.1287 224.695C46.2494 220.202 43.9939 215.945 41.3961 211.988C34.5395 202.327 26.9046 193.956 18.3815 185.836C17.5902 185.294 15.6518 182.08 14.7325 183.495C14.0939 186.096 14.1652 188.82 13.891 191.42C13.1854 203.876 17.5042 215.377 24.2977 224.493C26.4165 227.161 28.5184 229.779 31.0055 232.1C33.5619 234.445 36.5576 236.292 39.3608 238.29C42.0093 240.188 44.7979 241.963 47.9591 243.043C48.3537 243.197 48.7584 243.312 49.169 243.386C50.7654 246.468 52.7166 249.27 54.9662 251.713C46.793 247.675 40.1041 239.947 30.0383 238.936C25.466 238.356 20.6548 238.866 15.9066 239.919C12.2642 240.578 8.69546 241.718 5.26729 243.319C3.6259 244.215 1.74583 244.764 0.376814 246.107C-1.21655 248.761 2.64824 250.484 4.42653 251.245C7.79101 252.565 11.549 253.075 15.1855 253.585C18.4407 254.046 21.6084 254.605 24.9539 254.794C25.6366 260.041 26.2477 265.436 29.0036 269.984C34.3568 279.154 43.9557 285.786 55.2587 286.322C58.7088 286.46 62.2073 285.484 65.6678 284.756C67.6508 284.329 69.9075 284.174 71.6034 284.515C75.2022 285.272 78.8889 285.929 82.7053 285.893C83.0063 285.909 83.3078 285.9 83.6077 285.866C86.2458 290.067 88.7956 294.368 91.538 298.519C95.4572 304.351 99.8137 309.859 103.155 316.139C103.867 317.523 104.579 318.907 105.221 320.267C98.6164 314.221 92.926 307.107 85.2659 302.252C80.0025 299.021 74.5162 296.329 68.8668 294.204C64.9626 292.904 60.8526 291.357 56.4248 291.74C49.0264 292.505 41.9355 296.512 35.104 299.132C33.4063 300.4 35.7258 302.225 36.444 303.089C40.9847 307.706 47.1295 310.238 53.1714 312.646C59.1779 315.129 64.9894 317.934 71.3163 319.748C76.1186 321.368 81.3868 321.674 86.6432 321.757C90.4578 321.894 94.1631 322.428 97.9046 322.887C100.783 323.26 103.682 323.359 106.574 323.185C107.977 326.251 109.31 329.292 110.659 332.383C113.329 338.293 115.761 343.683 117.855 349.867C118.918 353.243 119.82 356.688 120.558 360.184C116.508 359.527 113.666 356.342 110.63 353.479C106.29 349.456 101.371 346.054 96.3797 342.8C91.3362 339.57 86.0583 337.087 81.1155 334.155C74.2801 329.941 67.2333 326.001 59.6546 323.003C56.0036 321.565 52.1523 320.979 48.3136 321.278C45.4351 321.213 45.7425 323.021 46.7267 324.848C52.0002 333.424 55.907 343.168 63.3348 350.029C66.3757 352.893 69.6179 355.443 73.0258 357.651C75.4689 359.303 77.9811 360.979 80.8661 361.96C88.1749 364.34 96.3919 364.737 104.433 363.896C107.281 363.689 110.051 362.716 112.819 361.742C114.144 361.302 115.442 360.761 116.707 360.121L116.969 359.996C117.729 360.39 118.522 360.686 119.334 360.88C119.802 361.001 120.276 361.082 120.754 361.124C122.071 367.714 122.804 374.45 122.94 381.222C121.8 379.594 120.461 378.179 118.966 377.025C117.058 375.774 114.941 375.036 112.766 374.864C107.426 374.707 102.464 376.207 97.2631 375.927C92.8059 375.866 89.1236 374.862 84.9051 373.711C82.2251 372.976 79.4953 372.093 76.5265 372.3C71.5607 372.711 67.1913 376.858 64.1243 380.904C63.0133 382.467 61.8486 384.055 60.8749 385.667C60.0563 387.378 61.4318 388.387 62.7445 388.854C65.4912 389.787 68.5625 389.704 71.6191 389.397C75.2137 389.065 78.7728 388.806 82.3466 388.771C86.63 388.856 91.0517 388.993 95.1612 386.232C97.5731 384.739 99.5388 382.827 101.755 381.657C106.552 379.489 111.748 381.553 116.534 383.123C118.111 383.601 119.746 383.755 121.368 383.579C121.942 383.538 122.506 383.385 123.038 383.128C123.13 388.427 123.344 393.725 122.967 399.074C122.925 399.669 122.891 399.569 122.814 400.238L122.848 400.337C122.864 400.387 122.864 400.387 122.829 400.461L122.845 400.51C122.851 400.566 122.866 400.619 122.891 400.667C122.915 400.715 122.948 400.755 122.988 400.786C123.027 400.816 123.072 400.836 123.118 400.844C123.165 400.852 123.213 400.848 123.258 400.831C123.881 400.635 124.471 400.315 125.004 399.885C125.854 399.882 125.839 396.788 125.931 396.341C126.182 392.948 126.239 389.532 126.315 386.164C127.449 385.729 128.529 385.118 129.528 384.347C130.344 383.63 131.083 382.796 131.727 381.864C131.898 382.012 132.264 381.838 132.562 381.639C134.203 380.743 136.048 380.267 137.965 379.469C140.145 378.546 142.326 377.45 144.438 376.33C149.591 373.418 154.199 369.615 158.499 365.443C165.638 358.885 171.751 351.092 175.794 342.39C177.115 339.291 178.576 336.068 178.581 332.849C178.537 332.181 178.599 331.289 177.961 331.019C177.323 330.748 176.552 331.345 175.873 331.495C174.661 331.951 173.429 332.327 172.182 332.62C167.591 333.598 162.964 334.653 158.666 337.216C149.81 342.294 140.027 355.223 137.31 364.788C135.94 369.002 135.61 373.41 133.794 377.203C132.704 379.271 131.412 381.178 129.944 382.885C129.153 383.777 127.999 384.5 126.517 385.148L126.412 385.198C126.429 383.812 126.429 382.375 126.446 380.991C126.116 372.472 125.229 364.106 123.487 356.089ZM75.2657 284.206C75.182 284.173 75.0942 284.156 75.0058 284.157C74.9076 283.687 74.2357 283.318 74.068 282.823C72.7093 280.426 71.3862 277.953 69.3975 276.028C65.3023 271.831 60.4849 268.553 55.7389 265.125C51.1835 261.722 46.1171 258.963 41.2603 255.933L38.9365 254.454C40.3077 254.376 41.6265 254.322 42.9981 254.242C47.0761 254.081 51.1692 254.143 55.3081 253.264C55.4296 253.264 55.5343 253.214 55.6557 253.214C55.7772 253.213 55.8629 253.287 55.9844 253.287L56.089 253.237C58.1261 255.484 60.3032 257.607 62.3249 259.805C65.2894 262.817 67.6321 265.608 70.2992 268.818C73.1046 272.078 75.7258 274.794 78.2506 278.302C79.7519 280.402 81.165 282.602 82.5089 284.777C80.0864 284.78 77.6665 284.589 75.2657 284.206Z" fill="#CEC7EA"/>
<path d="M559.584 171.706C560.185 172.635 560.742 173.615 561.343 174.544C562.663 176.681 564.081 178.729 565.593 180.679C567.71 183.195 570.037 185.452 572.537 187.414C575.749 189.895 578.641 192.096 580.134 195.983L580.225 195.881C581.082 195.019 585.611 192.363 585.366 195.321C585.22 199.027 585.072 202.52 585.97 205.903C586.282 207.115 586.722 208.276 587.279 209.357C587.354 208.877 587.456 208.403 587.584 207.939C587.716 207.468 587.894 206.945 588.301 206.805C589.481 206.329 590.468 209.503 590.978 210.428C593.58 215.639 594.275 221.717 594.242 227.549C594.152 232.371 593.39 238.276 589.45 240.694C588.183 241.484 586.044 241.651 585.092 242.191C582.554 243.454 585.401 245.811 587.651 247.665C588.677 248.474 589.749 249.196 590.86 249.827C593.639 247.001 596.766 244.694 600.132 242.985C600.318 242.873 600.516 242.793 600.722 242.747C601.341 241.629 601.647 240.306 601.596 238.969C601.622 237.008 600.643 234.682 600.302 232.386C599.721 228.859 601.872 225.247 604.997 228.147C607.344 230.641 606.849 235.922 606.012 238.906C605.761 239.711 605.432 240.479 605.033 241.195C605.214 241.097 605.441 241.054 605.622 240.957L607.939 240.267C607.891 240 607.843 239.839 607.795 239.572C607.257 237.22 606.943 234.804 606.86 232.369C606.776 228.494 608.198 224.74 610.311 221.92C612.698 219.113 615.87 217.455 618.582 215.246C622.56 212.246 625.843 207.783 630.516 206.035C632.514 205.384 634.574 206.38 634.873 209.046C635.124 211.549 634.739 214.024 634.17 216.385C633.205 220.265 631.601 223.904 629.949 227.382C629.905 227.539 629.815 227.641 629.77 227.798C629.828 227.717 629.908 227.664 629.996 227.649C632.48 225.377 634.769 221.928 637.11 219.065C640.396 215.028 644.419 211.869 648.721 209.256C650.534 208.279 654.696 205.393 656.624 206.86C656.893 207.174 657.074 207.577 657.144 208.017C657.213 208.456 657.167 208.91 657.012 209.318C655.945 212.027 654.876 214.523 654.264 217.147C653.92 218.653 653.646 220.181 653.443 221.723C654.532 221.243 655.62 220.762 656.754 220.231C659.792 218.832 662.783 217.272 666.105 216.947C669.429 216.834 673.125 217.481 675.882 219.941C678.549 222.503 680.31 225.554 683.336 227.495C686.27 229.433 690.337 230.734 693.856 231.902C695.044 232.275 696.323 232.652 697.511 233.025C698.289 233.326 699.111 233.577 699.664 234.237C700.588 235.554 699.408 236.029 698.5 236.305C697.275 236.832 696.051 237.36 694.872 237.942C692.152 239.302 689.075 241.388 686.222 243.114C683.778 244.699 681.29 246.441 678.519 247.321C673.816 248.908 668.852 249.063 664.085 247.773C663.353 247.527 662.577 247.332 661.891 247.036C662.031 247.414 662.263 247.795 662.403 248.173C663.611 250.668 665.142 253.442 664.851 256.346C664.334 259.399 661.425 260.008 659.052 259.581C657.683 259.306 656.445 258.454 655.253 257.763C652.916 256.33 650.798 254.005 649.14 252.126C647.574 250.357 645.551 248.461 643.858 247.588C643.125 247.236 642.577 246.999 642.353 247.254C642.435 247.471 642.544 247.673 642.677 247.852C644.298 250.525 646.055 253.257 646.815 256.474C646.965 257.059 647.002 257.677 646.923 258.282C646.137 261.746 639.171 252.783 638.067 251.671C636.592 250.118 635.008 248.715 633.335 247.476C630.628 245.496 627.416 243.014 624.687 243.421C623.734 243.854 624.333 244.571 625.534 246.324C627.845 249.717 631.35 254.121 630.118 258.625C629.233 261.236 626.369 261.901 624.219 260.901C622.904 260.227 621.67 259.35 620.549 258.293L620.829 258.942C621.02 259.799 620.889 260.482 620.484 260.941C623.875 263.006 628.356 264.803 631.307 268.332C632.597 269.77 634.035 272.435 632.273 273.998C631.731 274.398 631.047 274.419 630.364 274.441C629.936 274.414 629.51 274.359 629.087 274.276C629.832 275.901 630.44 277.573 631.32 279.046C632.618 281.332 634.79 284.561 635.912 287.476C637.173 290.663 637.616 294.131 637.74 297.531C637.961 301.122 637.498 304.726 636.384 308.076C635.5 310.793 634.7 312.878 634.27 315.616C634.143 316.617 633.925 317.613 633.844 318.672C633.763 319.731 633.593 320.994 632.443 319.721C630.32 316.866 629.241 313.687 627.165 310.994C620.7 301.894 613.999 306.149 610.485 296.069C609.672 293.765 609.246 291.296 609.231 288.799C609.302 286.382 609.187 283.963 608.887 281.57C607.314 283.78 605.466 285.762 603.893 287.97L603.714 288.174C604.234 288.503 604.739 288.862 605.228 289.252C606.237 290.04 607.295 290.99 607.854 292.289C608.552 293.859 608.114 295.642 607.169 296.818C607.353 297.039 607.491 297.311 607.723 297.586C608.231 298.299 609.246 299.618 609.522 299.949C611.319 301.994 613.608 303.16 615.538 304.945C617.468 306.731 618.274 309.897 616.334 311.876C615.498 312.777 614.425 313.308 613.297 313.381C612.888 313.433 612.476 313.432 612.067 313.377C611.832 313.882 611.624 314.404 611.445 314.94C610.382 318.073 610.144 321.669 610.316 325.336C610.914 330.667 613.976 336.323 617.119 341.028C618.213 342.559 619.233 344.165 620.172 345.835C620.682 346.76 621.468 347.91 620.931 348.946C620.662 349.357 620.116 349.439 619.661 349.524C618.661 349.69 617.659 349.75 616.659 349.917C612.498 350.436 608.292 349.936 604.3 348.448C601.969 347.546 599.545 346.533 597.703 344.539C594.529 341.37 594.652 335.224 594.108 330.797C593.961 329.23 593.624 327.696 593.107 326.243C592.509 324.802 591.728 323.478 590.791 322.319C590.782 323.538 590.609 324.747 590.279 325.902C589.037 329.239 586.182 326.138 585.07 324.178C582.143 318.263 582.303 311.323 580.784 304.995C580.021 301.46 579.525 297.3 576.338 297.473C574.516 297.496 572.656 298.312 571.116 299.196C570.388 299.622 569.691 300.123 569.036 300.692C568.99 300.743 568.899 300.739 568.808 300.734C567.315 306.394 566.186 312.176 564.921 317.898C563.658 323.833 562.395 329.768 561.269 335.762C562.821 336.071 564.349 336.532 565.837 337.138C567.118 337.728 568.358 338.686 569.055 340.15C569.525 341.076 569.844 342.098 569.995 343.163C570.41 343.66 571.007 344.164 571.559 344.72C572.384 345.532 573.127 346.456 573.772 347.473C575.622 350.315 577.073 354.36 575.923 357.701L575.969 357.756C576.946 360.425 577.335 363.344 577.099 366.24C576.943 368.885 576.329 371.402 575.944 373.983C575.476 377.303 576.01 380.775 576.501 384.404C576.388 386.784 574.363 384.677 573.626 383.794C572.152 382.137 570.859 380.379 569.431 378.67C567.263 375.866 564.779 373.419 562.52 370.61C560.739 368.313 559.2 365.766 557.937 363.028C557.517 362.001 557.143 361.031 556.814 360.007C556.037 364.427 555.169 368.841 554.255 373.201C553.753 375.869 553.109 378.496 552.327 381.068C551.387 383.878 550.256 386.592 548.944 389.185C547.2 392.552 545.459 396.132 543.026 398.884C542.074 399.318 541.42 397.697 542.05 396.877C543.176 395.337 544.225 393.721 545.191 392.036C547.252 388.524 549.973 382.55 550.854 379.514C553.05 371.129 554.422 362.388 556.069 353.766C558.869 337.189 562.216 320.743 565.929 304.42C565.989 304.061 566.077 303.71 566.192 303.371C563.166 301.323 558.491 298.351 556.451 294.651C556.328 294.914 556.177 295.156 556.002 295.373C555.075 297.126 553.806 298.588 552.302 299.636C550.798 300.684 549.103 301.287 547.361 301.395C544.859 301.757 542.216 301.636 539.879 300.203C538.871 299.626 537.818 299.101 536.945 298.265C536.254 297.543 536.382 296.542 537.151 296.098C538.103 295.558 538.739 295.375 539.553 294.67C539.916 294.358 540.196 293.929 540.36 293.434C538.304 292.757 536.246 291.867 534.189 291.189C532.451 290.367 528.75 289.19 528.226 286.885C528.03 285.497 529.114 284.486 530.158 284.163C530.275 284.114 530.398 284.084 530.522 284.074C530.328 283.884 530.112 283.731 529.88 283.62C528.714 282.799 527.489 282.105 526.217 281.548C523.792 280.43 521.366 279.205 519.342 277.203C518.146 275.981 516.72 274.59 516.383 272.718C516.19 271.543 516.957 270.888 517.775 270.608C517.621 268.957 517.393 267.318 517.09 265.697C516.177 260.848 514.254 256.348 511.496 252.608C508.859 248.404 504.665 243.387 504.204 238.114C504.096 236.414 504.714 234.425 506.497 234.984C511.39 236.854 516.15 239.191 520.995 241.005C523.83 242.09 526.573 243.17 529.363 244.306C531.422 245.196 533.615 245.933 535.632 247.192C538.889 249.622 541.16 253.597 542.385 257.79C543.458 255.718 544.713 253.548 546.947 253.81C548.775 254.317 549.707 256.694 550.409 258.476C551.035 260.138 551.422 261.912 551.553 263.726C551.721 266.969 551.566 269.718 552.324 272.724C552.457 273.227 552.629 273.714 552.839 274.18C553.489 272.979 554.041 271.708 554.487 270.384C554.797 269.496 555.107 268.503 555.417 267.615C555.637 266.83 556.083 265.896 556.86 266.091C559.145 266.832 560.011 271.645 560.353 274.047C561.332 280.986 559.805 287.97 556.765 293.77C558.251 296.703 561.645 299.085 564.488 301.125L566.277 302.321C568.38 293.826 571.307 285.58 574.417 277.555C574.727 276.668 575.128 275.785 575.484 274.847C575.209 274.728 574.934 274.503 574.66 274.385C573.516 273.855 572.419 273.486 571.276 273.063C569.589 272.584 567.926 271.995 566.295 271.296C562.724 269.436 559.643 266.483 556.879 263.281C555.819 262.012 554.714 260.795 553.609 259.577C553.102 258.971 552.319 258.14 552.176 257.337C552.073 257.141 552.009 256.921 551.987 256.692C552.026 256.005 552.661 255.715 553.161 255.685C553.492 255.609 553.826 255.553 554.162 255.519C555.209 255.408 556.3 255.246 557.393 255.19C563.132 255.135 570.213 257.315 572.875 264.067C573.715 266.121 574.152 268.954 574.894 270.259C575.449 271.133 575.865 271.735 576.506 272.083C578.801 266.594 581.575 261.407 584.783 256.605C584.058 256.03 583.291 255.533 582.491 255.121C579.014 253.583 575.277 253.411 571.801 251.873C569.076 250.695 566.489 249.115 564.098 247.169C561.711 245.256 559.368 243.186 557.521 240.662C555.858 238.252 555.329 235.417 558.235 234.384C559.461 234.069 560.695 234.497 561.929 234.818C563.618 235.267 565.217 235.711 567.13 235.693C567.221 235.697 567.357 235.65 567.448 235.655C567.128 235.481 566.806 235.201 566.485 235.027C563.707 233.131 561.025 231.042 558.453 228.772C557.35 227.767 556.247 226.762 555.234 225.654C554.267 224.603 553.345 223.394 553.057 221.895C552.816 220.558 553.308 219.467 554.491 219.309C555.72 219.207 556.955 219.741 558.096 220.058C559.786 220.507 561.247 220.892 562.799 221.175C561.42 219.946 559.952 218.817 558.619 217.536C556.248 215.19 554.126 212.51 552.3 209.557C551.791 208.738 547.53 201.436 550.134 202.245C552.609 203.843 554.54 205.629 557.1 206.595C557.466 206.718 557.786 206.892 558.152 207.014C555.763 200.275 557.27 195.996 558.02 188.817C558.334 185.955 558.413 183.064 558.255 180.184C558.136 177.314 557.56 174.319 557.988 171.472C558.103 171.356 558.238 171.269 558.382 171.218C558.527 171.166 558.679 171.151 558.83 171.173C558.98 171.195 559.124 171.254 559.254 171.345C559.384 171.437 559.497 171.56 559.584 171.706ZM600.023 245.58C597.91 246.765 595.896 248.182 594.006 249.812C595.586 249.769 597.165 249.967 598.703 250.399C599.936 250.721 600.804 251.026 602.125 251.033C604.586 251.146 606.985 249.506 609.673 249.576C611.814 249.621 613.695 251.033 615.35 252.593L615.442 252.703L612.677 249.395C611.295 247.74 610.094 246.094 608.67 244.809C608.025 244.143 607.292 243.685 606.603 243.07C604.36 243.711 602.16 244.55 600.023 245.58ZM575.008 282.141C573.586 285.894 572.3 289.493 571.151 293.048C571.6 293.016 572.043 292.911 572.469 292.737C573.864 292.348 575.186 291.654 576.366 290.689C578.717 288.887 579.908 284.858 582.301 282.687C583.658 281.689 585.342 281.607 586.982 281.576C588.715 281.628 590.44 281.867 592.136 282.29C593.964 282.799 595.702 283.62 597.53 284.234C597.785 284.32 598.044 284.385 598.306 284.429C598.603 282.348 598.811 280.252 598.928 278.146C599.056 274.947 598.903 271.74 598.471 268.579C598.272 267.001 597.968 265.444 597.56 263.923C596.931 265.575 596.152 267.14 595.237 268.59C594.556 269.686 593.821 270.732 593.035 271.724C593.175 272.101 593.362 272.534 593.501 272.914C593.963 273.991 594.573 274.969 595.306 275.808C597.376 277.865 596.886 279.062 594.618 280.019C592.884 280.893 590.981 281.191 589.115 280.88C587.016 280.572 584.915 279.945 583.08 278.588C582.071 277.905 581.241 276.807 580.277 276.073C579.542 275.403 578.587 275.624 577.453 276.049C576.535 278.02 575.718 280.054 575.007 282.141H575.008Z" fill="#CEC7EA"/>
<path fill-rule="evenodd" clip-rule="evenodd" d="M348.281 58.8238C348.281 53.2699 333.626 47.6956 329.681 44.7961C327.733 43.3728 325.51 42.5655 323.224 42.4511C320.938 42.3368 318.666 42.9192 316.624 44.1429L122.954 158.971C120.729 160.283 118.856 162.304 117.547 164.809C116.237 167.314 115.543 170.201 115.541 173.148V422.437C115.535 425.157 116.117 427.833 117.229 430.211C118.342 432.589 119.95 434.59 121.899 436.023C125.844 438.922 138.629 448.067 142.811 445.588C189.393 417.969 298.097 339.95 328.629 321.847C330.861 320.528 332.737 318.496 334.047 315.98C335.357 313.464 336.047 310.565 336.041 307.608C336.041 267.974 348.281 119.284 348.281 58.8238Z" fill="#3D6E90"/>
<path fill-rule="evenodd" clip-rule="evenodd" d="M351.524 67.4982C351.527 64.7866 350.943 62.1194 349.829 59.7512C348.715 57.3831 347.108 55.3931 345.161 53.9713C343.213 52.5495 340.991 51.7433 338.706 51.6297C336.422 51.516 334.15 52.0988 332.11 53.3223L138.437 168.15C136.212 169.462 134.339 171.484 133.03 173.989C131.72 176.493 131.026 179.381 131.024 182.328V431.617C131.013 434.33 131.588 437.001 132.695 439.375C133.802 441.75 135.405 443.748 137.349 445.178C139.293 446.609 141.515 447.424 143.8 447.546C146.086 447.668 148.36 447.092 150.405 445.875L344.112 331.027C346.344 329.708 348.22 327.676 349.53 325.16C350.839 322.644 351.53 319.744 351.524 316.787V67.4982Z" fill="#3D6E90"/>
<path fill-rule="evenodd" clip-rule="evenodd" d="M351.524 82.599C351.532 79.8839 350.953 77.2116 349.841 74.8379C348.73 72.4641 347.123 70.4682 345.176 69.0409C343.228 67.6137 341.004 66.8029 338.716 66.6861C336.428 66.5693 334.154 67.1503 332.11 68.3737L138.437 183.202C136.208 184.514 134.333 186.538 133.024 189.047C131.714 191.555 131.021 194.448 131.024 197.399V379.769C131.016 382.48 131.594 385.149 132.703 387.52C133.811 389.891 135.414 391.886 137.357 393.314C139.301 394.743 141.52 395.557 143.804 395.68C146.088 395.802 148.361 395.228 150.405 394.014L344.112 279.165C346.337 277.848 348.209 275.823 349.518 273.315C350.827 270.808 351.522 267.918 351.524 264.969V82.599Z" fill="white"/>
<mask id="mask0_344_68" style="mask-type:luminance" maskUnits="userSpaceOnUse" x="131" y="66" width="221" height="330">
<path d="M351.524 82.599C351.532 79.8839 350.953 77.2116 349.841 74.8379C348.73 72.4641 347.123 70.4682 345.176 69.0409C343.228 67.6137 341.004 66.8029 338.716 66.6861C336.428 66.5693 334.154 67.1503 332.11 68.3737L138.437 183.202C136.208 184.514 134.333 186.538 133.024 189.047C131.714 191.555 131.021 194.448 131.024 197.399V379.769C131.016 382.48 131.594 385.149 132.703 387.52C133.811 389.891 135.414 391.886 137.357 393.314C139.301 394.743 141.52 395.557 143.804 395.68C146.088 395.802 148.361 395.228 150.405 394.014L344.112 279.165C346.337 277.848 348.209 275.823 349.518 273.315C350.827 270.808 351.522 267.918 351.524 264.969V82.599Z" fill="white"/>
</mask>
<g mask="url(#mask0_344_68)">
<path fill-rule="evenodd" clip-rule="evenodd" d="M135.887 315.74C148.232 296.252 174.303 231.632 197.74 218.987C221.178 206.341 255.294 243.909 276.582 239.863C297.037 235.982 313.54 198.759 325.606 194.722C335.106 191.565 346.339 204.49 349.39 215.615C355.007 236.509 383.229 299.32 359.444 320.098C321.862 352.905 162.931 409.821 123.683 412.46C102.188 413.907 121.812 352.058 123.822 335.934C124.862 327.777 131.727 322.342 135.887 315.74Z" fill="#0B3B5D"/>
<path d="M321.004 165.271C333.543 146.23 335.773 123.447 325.984 114.383C316.196 105.319 298.096 113.407 285.557 132.447C273.017 151.488 270.788 174.271 280.576 183.335C290.365 192.399 308.465 184.311 321.004 165.271Z" fill="#0B3B5D"/>
</g>
<path fill-rule="evenodd" clip-rule="evenodd" d="M351.524 249.111C351.526 248.641 351.427 248.178 351.237 247.765C351.046 247.353 350.771 247.004 350.436 246.752C350.097 246.502 349.709 246.36 349.31 246.34C348.91 246.321 348.514 246.425 348.158 246.641L132.284 374.634C131.902 374.862 131.582 375.212 131.359 375.645C131.137 376.078 131.022 376.577 131.026 377.084V383.501C131.025 383.97 131.124 384.433 131.314 384.845C131.504 385.257 131.78 385.605 132.114 385.856C132.453 386.108 132.841 386.251 133.241 386.271C133.64 386.291 134.037 386.187 134.392 385.97L350.266 257.978C350.648 257.75 350.968 257.4 351.191 256.967C351.413 256.533 351.528 256.035 351.524 255.528V249.111Z" fill="#FFFEFF"/>
<path fill-rule="evenodd" clip-rule="evenodd" d="M260.756 302.961C260.755 302.491 260.654 302.029 260.461 301.618C260.269 301.206 259.992 300.86 259.656 300.61C259.319 300.362 258.935 300.221 258.539 300.2C258.143 300.178 257.749 300.278 257.395 300.489L132.302 374.658C131.915 374.884 131.589 375.236 131.363 375.672C131.136 376.108 131.018 376.61 131.021 377.122V383.539C131.017 384.01 131.116 384.475 131.309 384.887C131.502 385.299 131.782 385.644 132.121 385.888C132.458 386.137 132.842 386.279 133.238 386.301C133.634 386.323 134.028 386.223 134.382 386.012L259.476 311.845C259.86 311.615 260.184 311.262 260.41 310.827C260.636 310.392 260.756 309.891 260.756 309.38V302.961Z" fill="#051421"/>
<path fill-rule="evenodd" clip-rule="evenodd" d="M161.374 351.51C161.374 351.207 161.307 350.91 161.182 350.646C161.056 350.382 160.876 350.161 160.658 350.004C160.44 349.846 160.191 349.758 159.936 349.747C159.681 349.736 159.428 349.803 159.2 349.942L156.222 351.708C155.972 351.857 155.762 352.086 155.614 352.368C155.467 352.651 155.389 352.977 155.388 353.309V380.703C155.387 381.006 155.452 381.304 155.578 381.568C155.703 381.831 155.884 382.052 156.103 382.208C156.319 382.372 156.566 382.467 156.822 382.484C157.077 382.501 157.332 382.44 157.562 382.307L160.54 380.541C160.791 380.392 161.001 380.163 161.148 379.88C161.296 379.597 161.374 379.272 161.374 378.94V351.51ZM172.896 344.679C172.895 344.376 172.828 344.079 172.703 343.815C172.577 343.552 172.397 343.331 172.179 343.173C171.961 343.016 171.712 342.928 171.457 342.917C171.202 342.906 170.949 342.973 170.722 343.111L167.744 344.877C167.493 345.026 167.283 345.255 167.136 345.538C166.988 345.82 166.91 346.146 166.91 346.478V373.872C166.908 374.175 166.974 374.473 167.099 374.737C167.224 375.001 167.405 375.221 167.624 375.377C167.84 375.541 168.087 375.636 168.343 375.654C168.599 375.671 168.854 375.61 169.084 375.476L172.062 373.71C172.312 373.561 172.522 373.332 172.67 373.049C172.817 372.767 172.895 372.441 172.896 372.109V344.679Z" fill="#051421"/>
<path fill-rule="evenodd" clip-rule="evenodd" d="M520.767 246.521C512.984 274.484 384.389 352.276 365.153 307.352C354.294 281.975 366.069 239.743 381.518 202.253C398.747 160.44 420.541 124.514 420.541 124.514C418.124 118.729 419.329 102.958 422.044 95.8641C426.158 85.0883 432.491 91.4802 437.741 87.7264C444.492 82.912 426.652 54.849 440.353 54.776C448.462 54.7071 456.234 102.267 452.157 117.717C450.704 123.256 445.95 125.27 445.95 125.27C445.95 125.27 410.327 217.544 420.548 232.101C433.204 250.148 445.84 201.932 492.622 204.963C521.377 206.831 525.052 231.168 520.767 246.521Z" fill="#FFC197"/>
<mask id="mask1_344_68" style="mask-type:luminance" maskUnits="userSpaceOnUse" x="360" y="54" width="163" height="268">
<path d="M520.767 246.521C512.984 274.484 384.389 352.276 365.153 307.352C354.294 281.975 366.069 239.743 381.518 202.253C398.747 160.44 420.541 124.514 420.541 124.514C418.124 118.729 419.329 102.958 422.044 95.8641C426.158 85.0883 432.491 91.4802 437.741 87.7264C444.492 82.912 426.652 54.849 440.353 54.776C448.462 54.7071 456.234 102.267 452.157 117.717C450.704 123.256 445.95 125.27 445.95 125.27C445.95 125.27 410.327 217.544 420.548 232.101C433.204 250.148 445.84 201.932 492.622 204.963C521.377 206.831 525.052 231.168 520.767 246.521Z" fill="white"/>
</mask>
<g mask="url(#mask1_344_68)">
<path fill-rule="evenodd" clip-rule="evenodd" d="M432.93 211.967C439.027 214.896 442.738 225.341 445.169 231.84C447.742 238.707 449.178 246.15 448.768 253.716C448.153 265.105 443.835 275.665 443.711 287.093C443.622 295.596 446.148 304.319 450.198 311.311C452.088 314.581 454.458 317.421 457.196 319.698C473.401 333.096 496.93 318.414 510.862 307.277C526.541 294.744 540.559 276.055 544.953 253.704C551.772 219.05 530.573 185.994 502.853 177.088C491.877 173.633 480.359 173.369 469.278 176.318C456.103 179.76 443.449 187.046 434.085 198.686L432.93 211.967Z" fill="#3D6E90"/>
<path fill-rule="evenodd" clip-rule="evenodd" d="M404.155 114.65C407.784 116.64 420.87 119.633 420.103 124.315C418.504 134.32 392.033 159.27 380.613 257.492C377.882 281.044 400.091 301.907 415.141 298.914C433.455 295.27 450.303 274.096 465.487 262.187C470.881 257.95 475.542 252.795 480.536 247.977C482.436 246.172 485.065 244.009 487.03 246.859C489.527 250.496 489.993 255.861 490.625 260.296C491.957 269.55 493.078 278.85 493.988 288.194C495.852 307.289 496.519 328.858 485.864 344.889C474.109 362.616 453.499 368.318 435.852 372.602C403.154 380.542 364.03 384.814 341.355 349.706C337.06 343.1 333.763 335.646 331.199 327.911C324.008 306.187 322.343 281.771 323.841 258.642C325.572 231.714 331.632 205.158 343.52 181.993C357.371 155.061 376.75 135.351 399.325 119.483L404.155 114.65Z" fill="black" fill-opacity="0.1"/>
</g>
<path fill-rule="evenodd" clip-rule="evenodd" d="M426.037 441.481C446.627 360.918 467.169 405.958 460.679 314.556C458.619 285.962 470.842 199.781 510.085 209.63C543.731 218.076 580.063 245.359 584.667 258.951C594.008 286.395 566.95 391.71 535.026 409.641C508.127 430.697 494.808 461.6 426.037 441.481Z" fill="#3D6E90"/>
<mask id="mask2_344_68" style="mask-type:luminance" maskUnits="userSpaceOnUse" x="426" y="208" width="161" height="241">
<path d="M426.037 441.481C446.627 360.918 467.169 405.958 460.679 314.556C458.619 285.962 470.842 199.781 510.085 209.63C543.731 218.076 580.063 245.359 584.667 258.951C594.008 286.395 566.95 391.71 535.026 409.641C508.127 430.697 494.808 461.6 426.037 441.481Z" fill="white"/>
</mask>
<g mask="url(#mask2_344_68)">
<path fill-rule="evenodd" clip-rule="evenodd" d="M545.341 287.982C541.471 290.95 538.42 295.385 535.689 299.711C528.568 310.832 524.548 323.281 521.998 336.816C519.468 350.179 518.202 364.613 512.254 376.642C507.818 385.524 501.054 391.516 494.317 397.757C477.391 413.464 469.063 417.408 450.027 426.214C439.212 431.191 412.368 459.364 410.513 474.092C409.197 484.354 424.794 480.663 430.481 479.841C445.911 477.597 460.968 471.536 476.328 468.377C498.259 463.837 521.911 461.978 541.539 448.31C567.612 430.132 582.034 391.698 584.968 357.101C586.37 340.635 585.492 322.374 576.778 308.758L545.341 287.982Z" fill="#3D6E90"/>
</g>
<path fill-rule="evenodd" clip-rule="evenodd" d="M580.721 252.768C604.284 261.94 655.922 414.322 630.134 446.203C604.346 478.084 425.964 444.058 425.964 444.058C421.09 446.939 403.909 442.79 400.924 435.591C397.441 427.209 376.455 436.236 374.977 427.788C374.129 422.858 390.359 412.979 413.366 413.359C418.267 413.444 430.26 416.693 430.26 416.693C430.26 416.693 552.827 415.391 565.116 403.246C580.311 388.199 536.479 343.636 538.943 288.157C540.461 254.053 567.731 247.715 580.721 252.768Z" fill="#FFC197"/>
<mask id="mask3_344_68" style="mask-type:luminance" maskUnits="userSpaceOnUse" x="374" y="251" width="264" height="209">
<path d="M580.721 252.768C604.284 261.94 655.922 414.322 630.134 446.203C604.346 478.084 425.964 444.058 425.964 444.058C421.09 446.939 403.909 442.79 400.924 435.591C397.441 427.209 376.455 436.236 374.977 427.788C374.129 422.858 390.359 412.979 413.366 413.359C418.267 413.444 430.26 416.693 430.26 416.693C430.26 416.693 552.827 415.391 565.116 403.246C580.311 388.199 536.479 343.636 538.943 288.157C540.461 254.053 567.731 247.715 580.721 252.768Z" fill="white"/>
</mask>
<g mask="url(#mask3_344_68)">
<path fill-rule="evenodd" clip-rule="evenodd" d="M544.967 358.922C547.425 351.687 556.226 347.267 561.702 344.371C567.488 341.306 573.762 339.588 580.143 340.059C589.748 340.766 598.663 345.866 608.301 345.99C615.471 346.078 622.823 343.067 628.711 338.25C631.465 336.002 633.856 333.185 635.771 329.934C647.038 310.693 634.609 282.822 625.19 266.322C614.589 247.756 598.801 231.17 579.943 226.005C550.705 217.986 522.871 243.19 515.415 276.078C512.523 289.101 512.323 302.758 514.832 315.892C517.761 331.508 523.93 346.498 533.765 357.581L544.967 358.922Z" fill="#3D6E90"/>
</g>
<path fill-rule="evenodd" clip-rule="evenodd" d="M515.466 210.85C515.466 210.85 523.499 206.371 520.323 192.412C519.601 189.145 511.559 201.857 507.596 195.89C502.194 187.707 496.227 150.688 508.911 138.798C516.78 131.431 533.716 133.125 539.402 142.22C545.087 151.315 549.177 180.688 543.026 193.37C533.244 213.603 559.153 232.987 559.153 232.987C559.153 232.987 523.458 247.064 509.766 265.727C505.749 271.208 515.466 210.85 515.466 210.85Z" fill="#FFC197"/>
<mask id="mask4_344_68" style="mask-type:luminance" maskUnits="userSpaceOnUse" x="501" y="134" width="59" height="133">
<path d="M515.466 210.85C515.466 210.85 523.499 206.371 520.323 192.412C519.601 189.145 511.559 201.857 507.596 195.89C502.194 187.707 496.227 150.688 508.911 138.798C516.78 131.431 533.716 133.125 539.402 142.22C545.087 151.315 549.177 180.688 543.026 193.37C533.244 213.603 559.153 232.987 559.153 232.987C559.153 232.987 523.458 247.064 509.766 265.727C505.749 271.208 515.466 210.85 515.466 210.85Z" fill="white"/>
</mask>
<g mask="url(#mask4_344_68)">
<path fill-rule="evenodd" clip-rule="evenodd" d="M517.949 193.746C519.114 193.353 520.213 192.214 521.184 191.402C523.402 189.594 525.507 187.6 527.483 185.433C528.226 184.561 528.973 183.666 529.779 182.822C529.958 182.601 530.452 181.955 530.777 182.04C531.102 182.126 530.67 183.347 530.606 183.504C530.08 185.222 528.266 188.725 527.493 190.309C524.398 196.832 519.483 202.694 515.889 203.671L517.949 193.746Z" fill="black" fill-opacity="0.1"/>
</g>
<path fill-rule="evenodd" clip-rule="evenodd" d="M515.53 158.75C512.748 158.665 510.101 156.846 507.897 154.968C499.423 147.758 499.602 134.612 506.548 126.05C510.738 120.908 519.529 117.236 523.877 124.058C525.145 121.763 527.895 120.704 529.989 120.035C531.642 119.516 550.152 107.01 561.231 131.364C567.876 145.918 563.274 172.817 555.662 176.289C555.057 178.446 553.397 180.011 551.914 181.303C547.828 184.884 541.159 187.597 536.392 184.26C535.819 183.852 535.294 183.356 534.83 182.784C531.371 178.524 534.745 173.372 535.726 168.761C536.25 166.331 536.644 163.299 534.813 161.478C533.326 160.053 531.906 160.954 530.799 162.432C529.121 164.684 528.257 168.161 525.498 168.888C521.524 169.927 517.506 165.527 516.155 162.381C515.875 161.712 515.53 158.75 515.53 158.75Z" fill="black"/>
<path fill-rule="evenodd" clip-rule="evenodd" d="M491.251 55.3214C491.249 54.0445 490.947 52.7936 490.379 51.7086C489.811 50.6236 489 49.7471 488.037 49.1773L420.599 9.1936C419.717 8.67175 418.737 8.4257 417.752 8.47875C416.767 8.53181 415.81 8.88223 414.971 9.49679C414.133 10.1113 413.44 10.9697 412.96 11.9905C412.479 13.0112 412.226 14.1606 412.225 15.3297V75.2136C412.225 76.4877 412.523 77.7368 413.088 78.8209C413.653 79.9049 414.461 80.7809 415.422 81.3505L482.859 121.334C483.742 121.86 484.723 122.109 485.71 122.058C486.696 122.008 487.656 121.659 488.497 121.045C489.338 120.431 490.032 119.572 490.514 118.55C490.997 117.528 491.25 116.376 491.251 115.205V55.3214Z" fill="#3D6E90"/>
<path fill-rule="evenodd" clip-rule="evenodd" d="M484.659 59.2301C484.656 57.9532 484.354 56.7023 483.786 55.6173C483.219 54.5323 482.407 53.6558 481.444 53.086L414.008 13.1023C413.126 12.5804 412.146 12.3344 411.161 12.3874C410.176 12.4405 409.219 12.7909 408.38 13.4055C407.542 14.02 406.849 14.8784 406.369 15.8992C405.888 16.9199 405.635 18.0693 405.634 19.2384V79.1223C405.634 80.3964 405.932 81.6455 406.497 82.7296C407.061 83.8136 407.87 84.6895 408.831 85.2592L476.268 125.242C477.151 125.768 478.132 126.018 479.119 125.967C480.105 125.917 481.065 125.568 481.906 124.954C482.747 124.34 483.441 123.481 483.923 122.459C484.405 121.436 484.659 120.285 484.66 119.114L484.659 59.2301Z" fill="#0B3B5D"/>
<path fill-rule="evenodd" clip-rule="evenodd" d="M429.188 58.3512C428.777 58.3492 428.375 58.4904 428.031 58.7572C427.687 59.0241 427.416 59.4048 427.253 59.8522C427.099 60.3056 427.06 60.8021 427.139 61.2816C427.218 61.7612 427.413 62.2032 427.7 62.5542C433.917 69.9128 446.76 85.1198 452.977 92.5142C453.268 92.8599 453.64 93.0952 454.044 93.1903C454.448 93.2854 454.867 93.236 455.248 93.0484C455.62 92.8484 455.936 92.5273 456.16 92.1225C456.384 91.7177 456.507 91.2458 456.513 90.7616V60.8144C456.514 60.4897 456.46 60.1682 456.355 59.8682C456.25 59.5683 456.097 59.2957 455.903 59.0661C455.71 58.8366 455.48 58.6545 455.227 58.5303C454.974 58.4061 454.703 58.3422 454.429 58.3423C449.403 58.33 436.41 58.3606 429.188 58.3512Z" fill="#E9DFE6"/>
<path fill-rule="evenodd" clip-rule="evenodd" d="M442.656 111.961C444.737 109.161 457.235 102.415 460.515 101.873C465.747 100.962 470.67 105.025 468.857 110.924C468.135 113.194 452.307 118.408 447.953 118.593C446.171 118.659 441.825 113.07 442.656 111.961Z" fill="#FFC197"/>
<path fill-rule="evenodd" clip-rule="evenodd" d="M501.553 183.745C501.884 182.764 502.437 181.911 503.151 181.28C504.816 179.614 507.014 178.655 508.912 180.506C510.71 182.291 511.176 186.358 514.406 184.577C514.808 184.355 515.178 184.061 515.504 183.705C518.435 180.347 520.033 174.714 520.699 170.051C520.965 168.104 520.932 166.091 521.265 164.16C521.365 163.592 521.631 162.47 522.297 162.77C523.396 163.256 524.328 164.413 525.427 164.973C525.76 165.14 526.459 165.228 526.626 165.669C527.059 166.916 525.76 169.972 525.56 171.259C525.028 174.698 524.629 178.181 524.195 181.64C523.995 183.16 524.062 184.814 523.662 186.279C523.296 187.558 522.464 188.624 521.898 189.761C521.098 191.265 520.532 192.924 519.467 194.207C516.97 197.235 512.241 199.407 508.68 199.502C502.287 199.672 499.09 189.722 500.921 183.495L501.553 183.745Z" fill="black"/>
</svg>
