<svg width="851" height="818" viewBox="0 0 851 818" fill="none" xmlns="http://www.w3.org/2000/svg">
<path fill-rule="evenodd" clip-rule="evenodd" d="M541.832 491.885C477.868 488.428 422.51 500.203 434.561 518.133C453.538 546.332 509.581 535.388 542.602 554.067C579.667 575.026 644.387 547.575 640.196 526.441C634.709 498.823 572.884 493.565 541.832 491.885ZM411.973 130.682C374.395 140.009 349.131 166.432 364.703 186.147C389.207 217.149 415.266 191.611 442.966 207.791C474.058 225.943 504.841 202.935 492.103 177.563C475.452 144.413 430.217 126.157 411.973 130.682Z" fill="#CEC7EA"/>
<path fill-rule="evenodd" clip-rule="evenodd" d="M534.806 486.38C689.622 539.959 775.286 354.092 696.13 256.678C546.632 72.7588 503.877 286.123 387.185 224.596C256.225 155.574 229.793 347.58 261.672 411.29C349.295 586.615 454.434 458.571 534.806 486.38Z" fill="#CEC7EA"/>
<path d="M268.599 423.274C269.778 421.334 271.208 419.719 272.373 417.595C272.408 417.534 272.427 417.432 272.461 417.371C276.491 413.955 281.308 409.986 285.026 405.94C290.878 399.522 295.3 392.354 298.979 385.105C303.618 376.561 306.489 367.171 307.421 357.493C307.596 353.496 309.644 344.253 305.094 342.531C301.136 342.133 293.808 348.718 290.977 351.274C280.347 361.313 271.857 373.285 267.613 385.775C266.355 389.647 265.974 393.749 266.496 397.786C267.019 401.822 268.431 405.693 270.632 409.116C271.44 410.685 272.513 412.619 272.557 414.352C272.471 415.378 272.186 416.376 271.719 417.292C271.642 417.359 271.572 417.434 271.512 417.517C271.492 417.554 271.48 417.595 271.477 417.638C271.473 417.68 271.478 417.722 271.492 417.762C270.771 418.974 269.968 420.134 269.088 421.235C268.863 421.561 268.654 421.929 268.429 422.256C268.026 420.809 267.624 419.362 267.153 417.895C264.902 411.844 261.697 406.224 258.593 400.563C257.027 397.549 255.393 394.515 253.674 391.562C256.231 388.027 259.024 384.636 261.177 380.98C265.587 373.485 269.307 365.747 271.826 357.829C274.891 347.278 279.317 336.276 277.706 325.9C277.041 323.8 276.041 320.276 272.958 320.284C272.279 320.367 271.68 320.797 271.132 321.206L267.587 323.907C264.42 326.219 261.469 328.776 259.157 331.738C249.995 343.364 245.376 358.323 246.837 370.983C247.636 376.671 249.932 381.947 251.107 387.531L251.123 387.572C250.692 386.942 250.26 386.309 249.793 385.74C246.035 380.814 241.457 376.36 237.7 371.434C235.753 368.952 233.841 366.407 231.895 363.924L231.879 363.884C231.439 362.641 231.046 361.663 231.114 360.5C231.329 358.522 232.991 356.01 234.042 353.601C236.424 348.15 237.317 342.541 238.718 337.011C240.765 327.768 242.372 318.465 241.689 309.372C241.576 307.19 241.244 305.025 240.697 302.91C240.062 299.995 237.195 301.43 235.255 303.25C231.513 306.645 228.088 310.385 225.641 314.489C223.555 318.164 222.771 322.123 222.003 325.98C220.922 331.712 220.008 337.567 220.86 343.091C221.425 346.271 222.789 349.224 224.443 352.014C225.729 354.478 227.716 356.472 229.566 358.567C229.916 358.852 230.096 359.442 230.499 359.707C230.348 360.237 230.289 360.789 230.324 361.339L230.464 362.134C229.064 360.424 227.683 358.756 226.199 357.129C222.592 353.467 218.674 350.357 215.08 346.879C211.835 343.971 208.265 341.288 204.935 338.462C204.945 338.371 204.969 338.282 205.005 338.197C205.116 337.835 205.251 337.48 205.409 337.135C206.454 335.155 207.971 333.316 209.151 331.376C210.746 328.843 212.476 326.351 213.8 323.737C215.112 320.938 216.212 318.046 217.092 315.083C219.302 308.613 219.701 302.066 219.335 295.684C219.199 293.421 218.704 291.302 218.444 289.324C218.335 288.418 218.173 287.52 217.957 286.634C217.81 286.267 217.614 285.778 217.072 285.759C216.361 285.761 215.978 286.434 215.616 286.864C214.702 287.988 213.772 289.071 212.825 290.113C210.212 292.771 207.229 295.245 205.087 298.187C201.167 303.357 198.728 309.256 198.647 314.966C198.804 319.35 200.679 323.281 202.147 327.233C202.96 329.556 203.842 331.899 203.978 334.163C204.081 335.305 204.013 336.468 204.013 337.65C202.141 335.942 199.932 333.99 198.201 331.894C197.864 331.491 197.569 331.054 197.322 330.591C197.4 330.404 197.42 330.198 197.381 329.999C197.322 329.559 197.323 329.114 197.383 328.674C197.504 326.165 197.845 323.616 197.523 321.19C197.114 318.988 195.922 317.054 195.003 315.058C193.168 311.358 190.965 307.852 188.428 304.593C181.732 296.636 174.275 289.742 165.952 283.054C165.179 282.607 163.286 279.961 162.388 281.126C161.764 283.268 161.834 285.511 161.566 287.653C160.877 297.912 165.095 307.384 171.729 314.892C173.799 317.089 175.851 319.245 178.28 321.157C180.777 323.088 183.703 324.61 186.44 326.255C189.027 327.818 191.75 329.28 194.837 330.169C195.223 330.296 195.618 330.391 196.019 330.452C197.578 332.99 199.484 335.298 201.681 337.31C193.699 333.985 187.166 327.619 177.336 326.787C172.87 326.309 168.172 326.729 163.535 327.597C159.977 328.139 156.492 329.078 153.144 330.397C151.541 331.135 149.705 331.587 148.368 332.693C146.812 334.879 150.586 336.298 152.323 336.924C155.609 338.012 159.279 338.432 162.83 338.852C166.009 339.231 169.103 339.692 172.37 339.847C173.037 344.169 173.634 348.613 176.325 352.358C181.553 359.91 190.928 365.372 201.966 365.814C205.336 365.928 208.752 365.124 212.132 364.524C214.069 364.172 216.273 364.045 217.929 364.326C221.443 364.949 225.044 365.491 228.771 365.461C229.065 365.474 229.359 365.466 229.652 365.438C232.229 368.899 234.719 372.44 237.397 375.859C241.225 380.663 245.479 385.199 248.743 390.371C249.438 391.511 250.133 392.651 250.76 393.771C244.31 388.791 238.753 382.932 231.272 378.934C226.131 376.273 220.773 374.056 215.256 372.306C211.443 371.235 207.429 369.961 203.105 370.276C195.88 370.906 188.955 374.206 182.283 376.364C180.625 377.408 182.89 378.911 183.592 379.623C188.026 383.426 194.027 385.511 199.928 387.495C205.794 389.54 211.47 391.85 217.648 393.343C222.338 394.678 227.483 394.93 232.617 394.999C236.342 395.111 239.961 395.551 243.615 395.929C246.426 396.236 249.257 396.318 252.081 396.174C253.451 398.699 254.754 401.204 256.071 403.75C258.678 408.617 261.054 413.056 263.099 418.15C264.137 420.93 265.018 423.767 265.738 426.646C261.783 426.106 259.007 423.482 256.043 421.124C251.805 417.811 247 415.009 242.126 412.329C237.2 409.669 232.046 407.624 227.218 405.209C220.543 401.739 213.661 398.493 206.259 396.024C202.694 394.84 198.933 394.358 195.184 394.604C192.372 394.55 192.673 396.039 193.634 397.544C198.784 404.607 202.599 412.632 209.854 418.283C212.823 420.642 215.99 422.742 219.318 424.56C221.704 425.921 224.157 427.301 226.975 428.11C234.113 430.07 242.138 430.396 249.991 429.703C252.772 429.533 255.477 428.732 258.181 427.929C259.474 427.568 260.742 427.122 261.978 426.594L262.233 426.492C262.975 426.816 263.75 427.06 264.543 427.22C265 427.319 265.463 427.386 265.929 427.42C267.216 432.849 267.932 438.396 268.064 443.973C266.952 442.633 265.644 441.468 264.184 440.517C262.32 439.486 260.253 438.879 258.129 438.737C252.914 438.607 248.067 439.843 242.988 439.612C238.635 439.562 235.039 438.735 230.919 437.787C228.302 437.182 225.636 436.455 222.737 436.625C217.887 436.964 213.62 440.38 210.625 443.711C209.54 444.998 208.402 446.306 207.451 447.634C206.652 449.043 207.995 449.874 209.277 450.259C211.96 451.027 214.959 450.959 217.944 450.706C221.455 450.433 224.931 450.22 228.421 450.191C232.604 450.261 236.922 450.373 240.936 448.1C243.291 446.87 245.211 445.295 247.376 444.331C252.06 442.546 257.134 444.246 261.808 445.539C263.349 445.933 264.946 446.06 266.529 445.914C267.09 445.881 267.641 445.755 268.161 445.543C268.251 449.907 268.459 454.271 268.091 458.676C268.05 459.166 268.017 459.084 267.942 459.635L267.975 459.716C267.991 459.757 267.991 459.757 267.956 459.819L267.972 459.859C267.977 459.905 267.993 459.949 268.017 459.988C268.041 460.027 268.073 460.061 268.111 460.086C268.15 460.111 268.193 460.128 268.239 460.134C268.285 460.141 268.331 460.137 268.375 460.123C268.984 459.962 269.56 459.699 270.08 459.344C270.91 459.342 270.896 456.793 270.986 456.426C271.231 453.631 271.287 450.817 271.36 448.043C272.468 447.685 273.523 447.182 274.499 446.547C275.296 445.957 276.017 445.27 276.646 444.503C276.813 444.624 277.171 444.481 277.461 444.317C279.064 443.579 280.866 443.187 282.739 442.53C284.867 441.77 286.997 440.867 289.06 439.944C294.092 437.546 298.593 434.414 302.792 430.978C309.764 425.577 315.734 419.159 319.682 411.991C320.973 409.439 322.4 406.784 322.404 404.134C322.361 403.583 322.422 402.849 321.799 402.626C321.176 402.403 320.423 402.895 319.76 403.018C318.577 403.394 317.373 403.703 316.155 403.945C311.672 404.75 307.153 405.62 302.955 407.73C294.307 411.912 284.752 422.561 282.098 430.438C280.761 433.909 280.438 437.539 278.665 440.664C277.601 442.366 276.339 443.937 274.905 445.343C274.132 446.078 273.006 446.673 271.558 447.207L271.456 447.248C271.472 446.106 271.472 444.923 271.489 443.783C271.167 436.767 270.3 429.876 268.599 423.274ZM221.505 364.071C221.424 364.044 221.338 364.03 221.252 364.031C221.156 363.644 220.499 363.34 220.336 362.933C219.009 360.958 217.717 358.922 215.774 357.336C211.775 353.879 207.07 351.179 202.435 348.356C197.986 345.553 193.039 343.281 188.295 340.785L186.026 339.568C187.365 339.503 188.653 339.459 189.992 339.393C193.975 339.26 197.972 339.311 202.015 338.588C202.133 338.588 202.235 338.546 202.354 338.546C202.473 338.546 202.556 338.607 202.675 338.607L202.777 338.565C204.767 340.416 206.893 342.165 208.867 343.974C211.762 346.455 214.05 348.754 216.655 351.398C219.395 354.083 221.955 356.32 224.421 359.209C225.887 360.939 227.267 362.75 228.579 364.541C226.213 364.544 223.85 364.387 221.505 364.071Z" fill="#CEC7EA"/>
<path d="M694.497 271.416C695.084 272.181 695.628 272.988 696.215 273.753C697.504 275.513 698.889 277.2 700.365 278.806C702.433 280.879 704.705 282.737 707.147 284.353C710.284 286.396 713.108 288.209 714.567 291.41L714.655 291.326C715.492 290.616 719.915 288.429 719.676 290.865C719.534 293.917 719.389 296.794 720.266 299.58C720.571 300.579 721.001 301.535 721.545 302.425C721.617 302.03 721.717 301.639 721.843 301.257C721.971 300.869 722.145 300.439 722.543 300.323C723.694 299.931 724.659 302.546 725.157 303.308C727.698 307.599 728.377 312.605 728.344 317.408C728.257 321.379 727.512 326.243 723.665 328.234C722.427 328.885 720.338 329.023 719.409 329.467C716.93 330.507 719.71 332.449 721.907 333.975C722.909 334.642 723.957 335.237 725.042 335.756C727.756 333.429 730.809 331.528 734.096 330.121C734.278 330.029 734.472 329.963 734.672 329.925C735.278 329.004 735.576 327.915 735.526 326.814C735.552 325.198 734.596 323.283 734.263 321.392C733.695 318.487 735.796 315.512 738.848 317.9C741.14 319.955 740.656 324.304 739.84 326.762C739.594 327.425 739.273 328.057 738.883 328.647C739.06 328.566 739.282 328.531 739.459 328.451L741.721 327.883C741.674 327.663 741.628 327.53 741.581 327.31C741.055 325.373 740.749 323.383 740.667 321.378C740.586 318.186 741.974 315.095 744.038 312.772C746.369 310.46 749.467 309.095 752.115 307.275C756 304.805 759.206 301.129 763.77 299.689C765.721 299.153 767.733 299.973 768.025 302.169C768.27 304.231 767.894 306.269 767.338 308.214C766.396 311.409 764.83 314.406 763.217 317.27C763.174 317.4 763.086 317.484 763.042 317.613C763.098 317.547 763.176 317.503 763.263 317.491C765.688 315.619 767.924 312.779 770.21 310.421C773.419 307.096 777.348 304.494 781.55 302.342C783.32 301.537 787.385 299.16 789.267 300.369C789.53 300.627 789.707 300.959 789.775 301.321C789.843 301.683 789.798 302.057 789.647 302.393C788.605 304.624 787.561 306.68 786.963 308.841C786.627 310.081 786.359 311.34 786.161 312.61C787.224 312.214 788.287 311.819 789.394 311.381C792.362 310.229 795.283 308.944 798.527 308.677C801.773 308.583 805.383 309.116 808.075 311.142C810.68 313.252 812.399 315.765 815.355 317.364C818.221 318.96 822.192 320.031 825.629 320.993C826.789 321.3 828.038 321.611 829.199 321.918C829.958 322.166 830.761 322.373 831.301 322.916C832.203 324.001 831.051 324.392 830.164 324.619C828.968 325.054 827.772 325.488 826.621 325.968C823.965 327.088 820.96 328.806 818.173 330.227C815.786 331.533 813.356 332.968 810.651 333.692C806.058 334.999 801.209 335.127 796.554 334.064C795.84 333.862 795.081 333.702 794.411 333.457C794.548 333.768 794.774 334.083 794.911 334.394C796.092 336.449 797.586 338.734 797.302 341.125C796.797 343.639 793.956 344.141 791.639 343.789C790.302 343.563 789.093 342.861 787.929 342.292C785.646 341.112 783.578 339.197 781.959 337.65C780.429 336.193 778.454 334.631 776.8 333.912C776.084 333.622 775.549 333.427 775.33 333.637C775.41 333.816 775.517 333.982 775.647 334.129C777.229 336.331 778.946 338.581 779.688 341.23C779.834 341.713 779.87 342.222 779.793 342.72C779.026 345.573 772.223 338.19 771.145 337.275C769.704 335.996 768.157 334.841 766.523 333.82C763.88 332.189 760.742 330.145 758.077 330.48C757.147 330.837 757.732 331.428 758.905 332.871C761.162 335.666 764.584 339.292 763.382 343.002C762.517 345.153 759.72 345.7 757.62 344.876C756.336 344.321 755.131 343.599 754.037 342.728L754.31 343.263C754.496 343.969 754.369 344.532 753.973 344.91C757.284 346.61 761.661 348.09 764.543 350.997C765.803 352.181 767.206 354.376 765.486 355.663C764.956 355.992 764.289 356.01 763.622 356.028C763.204 356.006 762.788 355.961 762.375 355.892C763.102 357.231 763.696 358.608 764.555 359.821C765.823 361.704 767.944 364.363 769.04 366.764C770.271 369.389 770.704 372.245 770.825 375.045C771.041 378.002 770.589 380.971 769.501 383.73C768.637 385.967 767.856 387.685 767.436 389.94C767.312 390.765 767.1 391.585 767.021 392.457C766.941 393.329 766.776 394.369 765.652 393.321C763.578 390.97 762.525 388.351 760.498 386.133C754.183 378.638 747.64 382.143 744.208 373.841C743.414 371.944 742.998 369.91 742.983 367.853C743.052 365.863 742.94 363.87 742.647 361.9C741.111 363.72 739.306 365.352 737.77 367.171L737.595 367.339C738.103 367.609 738.596 367.906 739.073 368.226C740.059 368.876 741.092 369.658 741.638 370.728C742.32 372.021 741.892 373.489 740.969 374.458C741.149 374.64 741.284 374.864 741.51 375.09C742.006 375.678 742.998 376.764 743.267 377.037C745.022 378.721 747.257 379.681 749.143 381.151C751.028 382.622 751.814 385.23 749.92 386.86C749.103 387.601 748.056 388.039 746.954 388.099C746.555 388.142 746.152 388.141 745.753 388.096C745.523 388.512 745.32 388.942 745.145 389.383C744.107 391.964 743.874 394.925 744.043 397.945C744.627 402.336 747.617 406.994 750.686 410.869C751.755 412.13 752.751 413.452 753.668 414.828C754.166 415.59 754.933 416.537 754.409 417.39C754.146 417.729 753.613 417.796 753.169 417.866C752.192 418.003 751.214 418.053 750.237 418.19C746.173 418.617 742.065 418.206 738.168 416.981C735.89 416.237 733.523 415.403 731.725 413.761C728.625 411.151 728.745 406.089 728.213 402.443C728.07 401.152 727.741 399.889 727.236 398.692C726.652 397.505 725.889 396.415 724.974 395.46C724.965 396.464 724.796 397.46 724.475 398.411C723.261 401.16 720.473 398.606 719.387 396.991C716.528 392.12 716.685 386.404 715.201 381.192C714.456 378.281 713.971 374.855 710.859 374.997C709.08 375.016 707.264 375.688 705.76 376.416C705.048 376.767 704.368 377.18 703.728 377.648C703.683 377.69 703.595 377.687 703.505 377.683C702.047 382.344 700.945 387.106 699.709 391.819C698.476 396.708 697.242 401.596 696.142 406.532C697.658 406.787 699.15 407.166 700.604 407.666C701.855 408.151 703.065 408.94 703.746 410.146C704.206 410.908 704.517 411.75 704.665 412.628C705.07 413.036 705.653 413.452 706.192 413.91C706.998 414.579 707.724 415.34 708.354 416.177C710.16 418.518 711.577 421.849 710.454 424.601L710.499 424.646C711.453 426.844 711.832 429.249 711.602 431.634C711.45 433.812 710.85 435.885 710.475 438.011C710.017 440.745 710.539 443.605 711.018 446.593C710.908 448.553 708.93 446.818 708.21 446.091C706.771 444.726 705.509 443.279 704.113 441.871C701.996 439.561 699.571 437.546 697.364 435.233C695.625 433.341 694.122 431.244 692.888 428.988C692.478 428.143 692.113 427.343 691.792 426.5C691.033 430.14 690.185 433.776 689.293 437.367C688.802 439.564 688.173 441.728 687.41 443.846C686.492 446.16 685.387 448.396 684.106 450.531C682.403 453.304 680.702 456.252 678.326 458.519C677.396 458.876 676.758 457.541 677.373 456.866C678.473 455.598 679.497 454.267 680.441 452.879C682.454 449.987 685.111 445.066 685.971 442.566C688.115 435.66 689.456 428.461 691.065 421.36C693.798 407.707 697.068 394.162 700.694 380.718C700.752 380.423 700.838 380.134 700.951 379.855C697.995 378.168 693.43 375.72 691.437 372.673C691.317 372.889 691.17 373.089 690.999 373.268C690.094 374.711 688.854 375.916 687.385 376.779C685.916 377.642 684.261 378.139 682.56 378.227C680.117 378.526 677.535 378.426 675.253 377.245C674.269 376.771 673.24 376.338 672.388 375.65C671.713 375.055 671.837 374.231 672.589 373.865C673.518 373.42 674.139 373.27 674.934 372.689C675.289 372.432 675.562 372.079 675.723 371.671C673.715 371.113 671.705 370.38 669.696 369.822C667.998 369.145 664.384 368.175 663.872 366.277C663.681 365.134 664.739 364.301 665.759 364.035C665.874 363.995 665.993 363.97 666.115 363.962C665.926 363.806 665.714 363.68 665.487 363.588C664.349 362.912 663.152 362.341 661.911 361.882C659.542 360.961 657.173 359.952 655.197 358.303C654.028 357.297 652.636 356.151 652.307 354.609C652.118 353.641 652.867 353.102 653.666 352.871C653.516 351.512 653.292 350.162 652.996 348.827C652.105 344.833 650.227 341.127 647.534 338.047C644.958 334.584 640.862 330.452 640.412 326.109C640.307 324.709 640.911 323.071 642.652 323.531C647.43 325.071 652.078 326.996 656.811 328.49C659.579 329.384 662.259 330.274 664.983 331.209C666.993 331.942 669.136 332.549 671.105 333.586C674.286 335.587 676.504 338.861 677.701 342.314C678.748 340.608 679.973 338.821 682.156 339.036C683.941 339.455 684.851 341.412 685.536 342.88C686.148 344.248 686.526 345.71 686.654 347.203C686.818 349.874 686.666 352.138 687.406 354.614C687.537 355.028 687.705 355.43 687.91 355.813C688.545 354.824 689.084 353.778 689.52 352.687C689.822 351.956 690.124 351.138 690.428 350.407C690.642 349.76 691.078 348.991 691.836 349.151C694.068 349.761 694.914 353.725 695.248 355.704C696.204 361.419 694.713 367.171 691.744 371.948C693.195 374.363 696.51 376.325 699.287 378.005L701.033 378.99C703.088 371.993 705.946 365.203 708.983 358.593C709.286 357.862 709.678 357.135 710.025 356.362C709.757 356.265 709.488 356.08 709.22 355.982C708.103 355.545 707.032 355.242 705.916 354.893C704.268 354.499 702.644 354.013 701.051 353.438C697.563 351.906 694.555 349.474 691.855 346.837C690.82 345.792 689.741 344.789 688.662 343.786C688.167 343.287 687.402 342.602 687.262 341.942C687.162 341.78 687.099 341.599 687.078 341.41C687.116 340.844 687.736 340.605 688.225 340.581C688.548 340.518 688.874 340.472 689.202 340.444C690.224 340.353 691.29 340.219 692.357 340.173C697.962 340.128 704.878 341.923 707.477 347.484C708.297 349.176 708.725 351.509 709.449 352.584C709.991 353.303 710.397 353.8 711.024 354.086C713.264 349.566 715.974 345.293 719.106 341.339C718.398 340.865 717.649 340.456 716.868 340.116C713.473 338.849 709.823 338.708 706.428 337.441C703.767 336.471 701.24 335.169 698.906 333.567C696.574 331.992 694.286 330.287 692.482 328.208C690.858 326.223 690.342 323.888 693.179 323.037C694.377 322.778 695.582 323.13 696.787 323.395C698.437 323.764 699.998 324.13 701.866 324.115C701.955 324.119 702.088 324.08 702.177 324.084C701.864 323.941 701.55 323.71 701.237 323.567C698.523 322.005 695.904 320.285 693.393 318.415C692.315 317.588 691.239 316.76 690.249 315.848C689.304 314.981 688.404 313.986 688.123 312.752C687.888 311.651 688.368 310.752 689.523 310.622C690.723 310.537 691.929 310.977 693.044 311.239C694.694 311.608 696.121 311.925 697.637 312.159C696.29 311.146 694.856 310.217 693.554 309.162C691.239 307.229 689.167 305.022 687.384 302.59C686.887 301.915 682.725 295.901 685.268 296.568C687.685 297.884 689.571 299.355 692.071 300.15C692.428 300.251 692.741 300.395 693.098 300.496C690.765 294.945 692.237 291.421 692.97 285.509C693.276 283.152 693.353 280.77 693.199 278.398C693.083 276.035 692.521 273.568 692.938 271.223C693.051 271.127 693.182 271.056 693.323 271.014C693.465 270.971 693.614 270.959 693.76 270.977C693.907 270.995 694.048 271.043 694.175 271.119C694.302 271.194 694.412 271.295 694.497 271.416ZM733.99 332.259C731.927 333.234 729.959 334.401 728.114 335.744C729.657 335.709 731.199 335.871 732.701 336.227C733.905 336.492 734.753 336.743 736.043 336.75C738.447 336.842 740.789 335.491 743.414 335.55C745.505 335.587 747.343 336.75 748.959 338.035L749.049 338.125L746.348 335.4C744.998 334.038 743.826 332.682 742.435 331.624C741.805 331.075 741.09 330.698 740.416 330.191C738.225 330.719 736.077 331.41 733.99 332.259ZM709.56 362.37C708.172 365.461 706.916 368.425 705.793 371.353C706.232 371.326 706.665 371.24 707.08 371.097C708.443 370.777 709.734 370.204 710.886 369.41C713.183 367.926 714.346 364.608 716.683 362.82C718.008 361.997 719.653 361.93 721.254 361.905C722.946 361.948 724.631 362.144 726.288 362.492C728.073 362.912 729.77 363.588 731.555 364.094C731.804 364.164 732.057 364.218 732.313 364.254C732.604 362.541 732.807 360.814 732.921 359.08C733.046 356.445 732.896 353.804 732.474 351.2C732.28 349.9 731.983 348.618 731.585 347.366C730.971 348.726 730.21 350.015 729.316 351.209C728.651 352.112 727.934 352.974 727.166 353.791C727.303 354.101 727.485 354.458 727.621 354.771C728.072 355.657 728.667 356.463 729.383 357.154C731.405 358.848 730.927 359.834 728.712 360.622C727.018 361.342 725.16 361.587 723.337 361.331C721.288 361.078 719.236 360.561 717.443 359.444C716.458 358.881 715.647 357.977 714.706 357.372C713.988 356.82 713.056 357.003 711.948 357.353C711.051 358.976 710.254 360.651 709.559 362.37H709.56Z" fill="#CEC7EA"/>
<path fill-rule="evenodd" clip-rule="evenodd" d="M488.135 178.447C488.135 173.873 473.823 169.282 469.97 166.894C468.068 165.722 465.897 165.057 463.665 164.963C461.432 164.869 459.213 165.348 457.219 166.356L268.078 260.928C265.905 262.009 264.076 263.674 262.797 265.736C261.519 267.799 260.84 270.178 260.839 272.605V477.918C260.833 480.158 261.401 482.362 262.488 484.321C263.574 486.28 265.144 487.927 267.048 489.108C270.9 491.496 283.386 499.027 287.47 496.985C332.963 474.239 439.125 409.982 468.943 395.073C471.123 393.986 472.955 392.313 474.234 390.241C475.513 388.169 476.188 385.78 476.182 383.345C476.182 350.703 488.135 228.242 488.135 178.447Z" fill="#3D6E90"/>
<path fill-rule="evenodd" clip-rule="evenodd" d="M491.303 185.592C491.305 183.358 490.736 181.162 489.648 179.211C488.56 177.261 486.99 175.622 485.088 174.451C483.186 173.28 481.016 172.616 478.785 172.522C476.554 172.429 474.335 172.909 472.342 173.916L283.199 268.488C281.026 269.569 279.197 271.234 277.919 273.297C276.64 275.359 275.962 277.738 275.96 280.165V485.479C275.949 487.713 276.51 489.913 277.592 491.869C278.673 493.824 280.238 495.47 282.137 496.648C284.036 497.826 286.205 498.497 288.437 498.598C290.67 498.698 292.89 498.225 294.887 497.222L484.064 402.633C486.244 401.547 488.076 399.873 489.355 397.801C490.634 395.729 491.309 393.341 491.303 390.905V185.592Z" fill="#3D6E90"/>
<path fill-rule="evenodd" clip-rule="evenodd" d="M491.303 198.029C491.311 195.793 490.745 193.592 489.659 191.637C488.574 189.682 487.005 188.038 485.103 186.863C483.2 185.687 481.028 185.019 478.794 184.923C476.56 184.827 474.339 185.306 472.342 186.313L283.199 280.885C281.023 281.966 279.191 283.633 277.912 285.699C276.633 287.765 275.957 290.148 275.96 292.578V442.777C275.952 445.01 276.516 447.208 277.599 449.161C278.682 451.114 280.247 452.757 282.145 453.934C284.043 455.11 286.21 455.781 288.441 455.881C290.672 455.982 292.891 455.51 294.887 454.509L484.064 359.921C486.237 358.836 488.065 357.168 489.344 355.102C490.622 353.037 491.301 350.657 491.303 348.228V198.029Z" fill="white"/>
<mask id="mask0_235_36" style="mask-type:luminance" maskUnits="userSpaceOnUse" x="275" y="184" width="217" height="272">
<path d="M491.303 198.029C491.311 195.793 490.745 193.592 489.659 191.637C488.574 189.682 487.005 188.038 485.103 186.863C483.2 185.687 481.028 185.019 478.794 184.923C476.56 184.827 474.339 185.306 472.342 186.313L283.199 280.885C281.023 281.966 279.191 283.633 277.912 285.699C276.633 287.765 275.957 290.148 275.96 292.578V442.777C275.952 445.01 276.516 447.208 277.599 449.161C278.682 451.114 280.247 452.757 282.145 453.934C284.043 455.11 286.21 455.781 288.441 455.881C290.672 455.982 292.891 455.51 294.887 454.509L484.064 359.921C486.237 358.836 488.065 357.168 489.344 355.102C490.622 353.037 491.301 350.657 491.303 348.228V198.029Z" fill="white"/>
</mask>
<g mask="url(#mask0_235_36)">
<path fill-rule="evenodd" clip-rule="evenodd" d="M280.709 390.043C292.765 373.992 318.226 320.772 341.116 310.357C364.005 299.942 397.323 330.883 418.113 327.551C438.09 324.354 454.207 293.698 465.99 290.373C475.268 287.772 486.239 298.418 489.219 307.58C494.704 324.788 522.266 376.519 499.038 393.632C462.334 420.652 307.12 467.528 268.79 469.701C247.798 470.893 266.963 419.954 268.926 406.675C269.942 399.957 276.646 395.481 280.709 390.043Z" fill="#0B3B5D"/>
<path d="M461.496 266.117C473.742 250.435 475.92 231.671 466.36 224.206C456.801 216.741 439.124 223.402 426.878 239.084C414.632 254.766 412.455 273.53 422.014 280.995C431.574 288.46 449.251 281.799 461.496 266.117Z" fill="#0B3B5D"/>
</g>
<path fill-rule="evenodd" clip-rule="evenodd" d="M491.303 335.167C491.305 334.78 491.208 334.398 491.022 334.059C490.836 333.719 490.568 333.432 490.241 333.224C489.91 333.018 489.53 332.901 489.14 332.885C488.75 332.869 488.363 332.954 488.016 333.133L277.191 438.547C276.818 438.735 276.505 439.023 276.287 439.38C276.07 439.737 275.958 440.147 275.962 440.565V445.85C275.961 446.236 276.057 446.617 276.243 446.957C276.429 447.296 276.698 447.583 277.025 447.79C277.355 447.997 277.734 448.115 278.125 448.131C278.515 448.148 278.902 448.062 279.249 447.883L490.075 342.47C490.447 342.282 490.76 341.993 490.977 341.637C491.194 341.28 491.307 340.87 491.303 340.452V335.167Z" fill="#FFFEFF"/>
<path fill-rule="evenodd" clip-rule="evenodd" d="M402.658 379.518C402.657 379.131 402.558 378.75 402.37 378.411C402.182 378.073 401.912 377.787 401.583 377.582C401.255 377.377 400.879 377.261 400.492 377.244C400.106 377.226 399.721 377.308 399.376 377.482L277.208 438.567C276.83 438.754 276.512 439.043 276.291 439.402C276.07 439.761 275.954 440.175 275.957 440.597V445.882C275.953 446.27 276.049 446.652 276.238 446.992C276.426 447.331 276.7 447.615 277.032 447.816C277.36 448.021 277.736 448.139 278.122 448.156C278.509 448.174 278.894 448.092 279.239 447.918L401.407 386.834C401.783 386.645 402.099 386.355 402.32 385.996C402.541 385.638 402.658 385.225 402.658 384.804V379.518Z" fill="#051421"/>
<path fill-rule="evenodd" clip-rule="evenodd" d="M305.6 419.503C305.6 419.254 305.535 419.009 305.412 418.792C305.29 418.574 305.114 418.392 304.901 418.263C304.688 418.133 304.445 418.06 304.196 418.051C303.946 418.042 303.699 418.098 303.477 418.212L300.569 419.666C300.324 419.789 300.119 419.977 299.975 420.21C299.831 420.443 299.755 420.711 299.754 420.985V443.546C299.753 443.796 299.817 444.041 299.939 444.259C300.062 444.476 300.239 444.658 300.452 444.786C300.663 444.921 300.905 444.999 301.154 445.013C301.404 445.028 301.653 444.977 301.878 444.867L304.786 443.413C305.03 443.29 305.236 443.102 305.38 442.869C305.524 442.636 305.6 442.368 305.6 442.094V419.503ZM316.852 413.877C316.851 413.628 316.787 413.383 316.664 413.166C316.542 412.949 316.365 412.767 316.152 412.637C315.939 412.507 315.697 412.435 315.447 412.426C315.198 412.417 314.951 412.472 314.729 412.586L311.821 414.04C311.576 414.163 311.371 414.352 311.227 414.584C311.083 414.817 311.007 415.085 311.006 415.359V437.921C311.005 438.17 311.069 438.416 311.191 438.633C311.314 438.85 311.49 439.032 311.704 439.16C311.915 439.295 312.156 439.374 312.406 439.388C312.656 439.402 312.905 439.352 313.129 439.242L316.038 437.787C316.282 437.664 316.488 437.476 316.632 437.243C316.775 437.01 316.852 436.742 316.852 436.468V413.877Z" fill="#051421"/>
<path fill-rule="evenodd" clip-rule="evenodd" d="M656.588 333.034C648.987 356.064 523.4 420.134 504.613 383.134C494.008 362.234 505.508 327.452 520.595 296.575C537.422 262.138 558.706 232.55 558.706 232.55C556.345 227.785 557.522 214.796 560.174 208.953C564.191 200.078 570.377 205.343 575.504 202.251C582.097 198.286 564.674 175.174 578.054 175.113C585.974 175.057 593.564 214.227 589.582 226.952C588.163 231.513 583.521 233.172 583.521 233.172C583.521 233.172 548.73 309.169 558.713 321.158C571.072 336.021 583.413 296.311 629.101 298.807C657.183 300.346 660.773 320.389 656.588 333.034Z" fill="#FFC197"/>
<mask id="mask1_235_36" style="mask-type:luminance" maskUnits="userSpaceOnUse" x="500" y="175" width="159" height="220">
<path d="M656.588 333.034C648.987 356.064 523.4 420.134 504.613 383.134C494.008 362.234 505.508 327.452 520.595 296.575C537.422 262.138 558.706 232.55 558.706 232.55C556.345 227.785 557.522 214.796 560.174 208.953C564.191 200.078 570.377 205.343 575.504 202.251C582.097 198.286 564.674 175.174 578.054 175.113C585.974 175.057 593.564 214.227 589.582 226.952C588.163 231.513 583.521 233.172 583.521 233.172C583.521 233.172 548.73 309.169 558.713 321.158C571.072 336.021 583.413 296.311 629.101 298.807C657.183 300.346 660.773 320.389 656.588 333.034Z" fill="white"/>
</mask>
<g mask="url(#mask1_235_36)">
<path fill-rule="evenodd" clip-rule="evenodd" d="M570.806 304.575C576.76 306.988 580.383 315.59 582.758 320.942C585.27 326.598 586.674 332.729 586.273 338.959C585.672 348.339 581.455 357.037 581.334 366.449C581.247 373.452 583.714 380.636 587.669 386.395C589.515 389.088 591.83 391.427 594.503 393.302C610.329 404.337 633.308 392.245 646.915 383.073C662.227 372.75 675.917 357.358 680.208 338.95C686.868 310.409 666.165 283.184 639.093 275.849C628.373 273.003 617.125 272.786 606.303 275.215C593.436 278.05 581.078 284.05 571.933 293.637L570.806 304.575Z" fill="#3D6E90"/>
<path fill-rule="evenodd" clip-rule="evenodd" d="M542.703 224.425C546.247 226.064 559.027 228.529 558.278 232.385C556.716 240.625 530.865 261.174 519.711 342.07C517.045 361.467 538.734 378.65 553.433 376.184C571.318 373.183 587.771 355.744 602.6 345.936C607.868 342.447 612.42 338.201 617.298 334.232C619.153 332.746 621.721 330.964 623.639 333.312C626.078 336.307 626.534 340.726 627.151 344.378C628.452 352.001 629.547 359.66 630.435 367.356C632.255 383.082 632.907 400.846 622.501 414.049C611.021 428.649 590.893 433.345 573.659 436.873C541.725 443.413 503.517 446.931 481.372 418.016C477.177 412.576 473.958 406.436 471.454 400.066C464.43 382.174 462.804 362.065 464.267 343.016C465.958 320.839 471.876 298.967 483.486 279.888C497.013 257.708 515.939 241.474 537.986 228.405L542.703 224.425Z" fill="black" fill-opacity="0.1"/>
</g>
<path fill-rule="evenodd" clip-rule="evenodd" d="M564.074 493.603C584.182 427.251 604.243 464.347 597.905 389.068C595.893 365.518 607.83 294.539 646.156 302.651C679.015 309.607 714.497 332.078 718.994 343.272C728.116 365.874 701.691 452.612 670.514 467.38C644.244 484.722 631.236 510.173 564.074 493.603Z" fill="#3D6E90"/>
<mask id="mask2_235_36" style="mask-type:luminance" maskUnits="userSpaceOnUse" x="564" y="302" width="157" height="197">
<path d="M564.074 493.603C584.182 427.251 604.243 464.347 597.905 389.068C595.893 365.518 607.83 294.539 646.156 302.651C679.015 309.607 714.497 332.078 718.994 343.272C728.116 365.874 701.691 452.612 670.514 467.38C644.244 484.722 631.236 510.173 564.074 493.603Z" fill="white"/>
</mask>
<g mask="url(#mask2_235_36)">
<path fill-rule="evenodd" clip-rule="evenodd" d="M680.587 367.182C676.807 369.626 673.829 373.279 671.161 376.842C664.207 386 660.281 396.253 657.791 407.401C655.32 418.407 654.083 430.294 648.274 440.202C643.942 447.517 637.336 452.452 630.757 457.592C614.226 470.528 606.093 473.777 587.502 481.029C576.94 485.128 550.724 508.331 548.913 520.461C547.628 528.912 562.86 525.873 568.413 525.196C583.483 523.348 598.188 518.356 613.188 515.754C634.607 512.015 657.705 510.484 676.874 499.227C702.337 484.256 716.423 452.602 719.287 424.107C720.657 410.546 719.799 395.506 711.289 384.292L680.587 367.182Z" fill="#3D6E90"/>
</g>
<path fill-rule="evenodd" clip-rule="evenodd" d="M715.139 338.178C738.152 345.733 788.582 471.234 763.397 497.491C738.212 523.748 564.002 495.724 564.002 495.724C559.242 498.097 542.463 494.68 539.548 488.751C536.146 481.848 515.651 489.282 514.208 482.324C513.38 478.264 529.229 470.127 551.698 470.44C556.485 470.51 568.198 473.187 568.198 473.187C568.198 473.187 687.898 472.114 699.9 462.111C714.74 449.719 671.932 413.017 674.338 367.324C675.821 339.237 702.454 334.017 715.139 338.178Z" fill="#FFC197"/>
<mask id="mask3_235_36" style="mask-type:luminance" maskUnits="userSpaceOnUse" x="514" y="336" width="257" height="173">
<path d="M715.139 338.178C738.152 345.733 788.581 471.234 763.397 497.491C738.212 523.749 564.002 495.724 564.002 495.724C559.242 498.097 542.463 494.68 539.548 488.751C536.146 481.848 515.651 489.282 514.208 482.324C513.38 478.264 529.229 470.127 551.698 470.44C556.485 470.51 568.198 473.187 568.198 473.187C568.198 473.187 687.898 472.114 699.9 462.111C714.74 449.719 671.932 413.017 674.338 367.324C675.821 339.237 702.453 334.017 715.139 338.178Z" fill="white"/>
</mask>
<g mask="url(#mask3_235_36)">
<path fill-rule="evenodd" clip-rule="evenodd" d="M680.222 425.607C682.622 419.648 691.218 416.008 696.565 413.622C702.216 411.099 708.344 409.684 714.575 410.072C723.955 410.654 732.662 414.854 742.075 414.956C749.077 415.029 756.257 412.549 762.007 408.581C764.697 406.73 767.032 404.41 768.902 401.733C779.906 385.886 767.768 362.931 758.569 349.342C748.216 334.051 732.796 320.391 714.38 316.137C685.826 309.533 658.642 330.29 651.361 357.377C648.537 368.102 648.342 379.351 650.792 390.168C653.652 403.029 659.677 415.375 669.282 424.503L680.222 425.607Z" fill="#3D6E90"/>
</g>
<path fill-rule="evenodd" clip-rule="evenodd" d="M651.41 303.655C651.41 303.655 659.256 299.967 656.153 288.47C655.449 285.779 647.595 296.249 643.724 291.335C638.449 284.595 632.622 254.107 645.009 244.314C652.693 238.246 669.233 239.642 674.786 247.132C680.339 254.622 684.333 278.814 678.326 289.259C668.772 305.923 694.076 321.888 694.076 321.888C694.076 321.888 659.216 333.481 645.844 348.852C641.921 353.366 651.41 303.655 651.41 303.655Z" fill="#FFC197"/>
<mask id="mask4_235_36" style="mask-type:luminance" maskUnits="userSpaceOnUse" x="637" y="240" width="58" height="110">
<path d="M651.41 303.655C651.41 303.655 659.256 299.967 656.153 288.47C655.449 285.779 647.595 296.249 643.724 291.335C638.449 284.595 632.622 254.107 645.009 244.314C652.693 238.246 669.233 239.642 674.786 247.132C680.339 254.622 684.333 278.814 678.326 289.259C668.772 305.923 694.076 321.888 694.076 321.888C694.076 321.888 659.216 333.481 645.844 348.852C641.921 353.366 651.41 303.655 651.41 303.655Z" fill="white"/>
</mask>
<g mask="url(#mask4_235_36)">
<path fill-rule="evenodd" clip-rule="evenodd" d="M653.835 289.569C654.973 289.245 656.047 288.307 656.995 287.638C659.161 286.15 661.217 284.507 663.147 282.723C663.872 282.004 664.601 281.267 665.389 280.572C665.564 280.39 666.046 279.858 666.364 279.928C666.681 279.999 666.259 281.004 666.197 281.134C665.683 282.549 663.911 285.434 663.156 286.738C660.133 292.11 655.333 296.939 651.824 297.743L653.835 289.569Z" fill="black" fill-opacity="0.1"/>
</g>
<path fill-rule="evenodd" clip-rule="evenodd" d="M651.473 260.746C648.756 260.676 646.171 259.178 644.018 257.631C635.743 251.693 635.918 240.866 642.701 233.815C646.793 229.58 655.379 226.555 659.625 232.174C660.864 230.284 663.549 229.412 665.594 228.861C667.209 228.433 685.286 218.133 696.105 238.191C702.595 250.178 698.1 272.332 690.666 275.191C690.076 276.967 688.454 278.257 687.006 279.321C683.016 282.27 676.502 284.505 671.847 281.756C671.287 281.42 670.774 281.012 670.322 280.541C666.944 277.032 670.238 272.789 671.197 268.991C671.708 266.99 672.094 264.493 670.305 262.993C668.853 261.819 667.466 262.561 666.385 263.778C664.747 265.633 663.903 268.497 661.208 269.096C657.327 269.952 653.403 266.327 652.083 263.736C651.81 263.185 651.473 260.746 651.473 260.746Z" fill="black"/>
<path fill-rule="evenodd" clip-rule="evenodd" d="M627.762 175.562C627.76 174.51 627.465 173.48 626.91 172.586C626.356 171.693 625.564 170.971 624.623 170.502L558.762 137.571C557.9 137.141 556.943 136.939 555.982 136.982C555.02 137.026 554.085 137.315 553.266 137.821C552.447 138.327 551.771 139.034 551.301 139.875C550.832 140.715 550.585 141.662 550.584 142.625V191.945C550.583 192.994 550.875 194.023 551.427 194.916C551.978 195.809 552.767 196.53 553.706 196.999L619.566 229.929C620.428 230.363 621.386 230.568 622.35 230.526C623.313 230.485 624.25 230.197 625.072 229.692C625.893 229.186 626.571 228.478 627.042 227.637C627.513 226.795 627.761 225.847 627.762 224.882V175.562Z" fill="#3D6E90"/>
<path fill-rule="evenodd" clip-rule="evenodd" d="M621.324 178.782C621.321 177.73 621.026 176.7 620.472 175.806C619.917 174.912 619.125 174.191 618.184 173.721L552.325 140.791C551.464 140.361 550.507 140.158 549.545 140.202C548.583 140.246 547.648 140.534 546.829 141.041C546.01 141.547 545.334 142.254 544.865 143.094C544.395 143.935 544.148 144.882 544.147 145.845V195.165C544.147 196.214 544.438 197.243 544.99 198.136C545.541 199.028 546.331 199.75 547.269 200.219L613.129 233.149C613.991 233.582 614.949 233.788 615.913 233.746C616.877 233.704 617.814 233.417 618.635 232.911C619.456 232.406 620.135 231.698 620.605 230.856C621.076 230.015 621.324 229.066 621.325 228.102L621.324 178.782Z" fill="#0B3B5D"/>
<path fill-rule="evenodd" clip-rule="evenodd" d="M567.151 178.058C566.749 178.056 566.356 178.172 566.02 178.392C565.684 178.612 565.42 178.925 565.261 179.294C565.11 179.667 565.072 180.076 565.149 180.471C565.227 180.866 565.417 181.23 565.697 181.519C571.768 187.58 584.311 200.104 590.383 206.194C590.667 206.479 591.03 206.673 591.425 206.751C591.82 206.829 592.229 206.789 592.601 206.634C592.964 206.469 593.273 206.205 593.492 205.872C593.711 205.538 593.83 205.149 593.837 204.751V180.086C593.837 179.819 593.784 179.554 593.682 179.307C593.58 179.06 593.43 178.836 593.241 178.646C593.052 178.457 592.827 178.307 592.58 178.205C592.333 178.103 592.068 178.05 591.801 178.05C586.892 178.04 574.204 178.065 567.151 178.058Z" fill="#E9DFE6"/>
<path fill-rule="evenodd" clip-rule="evenodd" d="M580.303 222.21C582.336 219.904 594.541 214.348 597.745 213.902C602.855 213.152 607.662 216.498 605.892 221.357C605.187 223.226 589.729 227.52 585.477 227.673C583.736 227.727 579.492 223.124 580.303 222.21Z" fill="#FFC197"/>
<path fill-rule="evenodd" clip-rule="evenodd" d="M637.823 281.332C638.146 280.525 638.686 279.822 639.384 279.302C641.01 277.93 643.156 277.14 645.009 278.665C646.765 280.135 647.221 283.484 650.375 282.018C650.768 281.835 651.13 281.593 651.448 281.299C654.31 278.534 655.871 273.895 656.521 270.054C656.781 268.451 656.748 266.793 657.074 265.202C657.171 264.734 657.432 263.811 658.082 264.058C659.155 264.458 660.065 265.411 661.139 265.872C661.464 266.009 662.147 266.082 662.309 266.445C662.732 267.472 661.464 269.989 661.269 271.049C660.749 273.882 660.359 276.75 659.936 279.599C659.74 280.851 659.805 282.213 659.415 283.419C659.057 284.473 658.245 285.351 657.692 286.287C656.911 287.526 656.358 288.892 655.318 289.949C652.879 292.443 648.261 294.232 644.783 294.31C638.539 294.45 635.418 286.255 637.206 281.127L637.823 281.332Z" fill="black"/>
<g filter="url(#filter0_f_235_36)">
<circle cx="675.815" cy="530.782" r="175" fill="#081A29"/>
</g>
<defs>
<filter id="filter0_f_235_36" x="0.81543" y="-144.218" width="1350" height="1350" filterUnits="userSpaceOnUse" color-interpolation-filters="sRGB">
<feFlood flood-opacity="0" result="BackgroundImageFix"/>
<feBlend mode="normal" in="SourceGraphic" in2="BackgroundImageFix" result="shape"/>
<feGaussianBlur stdDeviation="250" result="effect1_foregroundBlur_235_36"/>
</filter>
</defs>
</svg>
