<svg xmlns="http://www.w3.org/2000/svg" width="22" height="22" viewBox="0 0 22 22">
  <g id="plan" transform="translate(-52 -143)">
    <rect id="base" width="22" height="22" transform="translate(52 143)" fill="#fff" opacity="0"/>
    <g id="noun-plan-1359924" transform="translate(-223.918 -55.897)">
      <path id="Path_914" data-name="Path 914" d="M145.2,60.037a2.187,2.187,0,0,0-2.187-2.187H130.037a2.187,2.187,0,0,0-2.187,2.187V73.012a2.187,2.187,0,0,0,2.187,2.187h12.976a2.187,2.187,0,0,0,2.187-2.187Zm-2.187,13.848h-7.931V67.4a.656.656,0,0,0-.656-.656h-3.133a.656.656,0,1,0,0,1.312h2.478v5.832h-3.733a.874.874,0,0,1-.875-.875V62.807h4.17a.656.656,0,0,0,0-1.312h-4.17V60.037a.874.874,0,0,1,.875-.875h12.976a.874.874,0,0,1,.875.875v4.3h-3.923v-3.5a.656.656,0,0,0-1.312,0v3.5h-2.915a.656.656,0,0,0,0,1.312h8.15V69.3h-4.942a.656.656,0,0,0-.656.656v2.506a.656.656,0,0,0,1.312,0v-1.85h4.286v2.405h0a.874.874,0,0,1-.875.875Z" transform="translate(150.068 143.047)" fill="#232323" stroke="#fff" stroke-linecap="round" stroke-width="0.4"/>
    </g>
  </g>
</svg>
