<?xml version="1.0" encoding="UTF-8"?>
<svg xmlns="http://www.w3.org/2000/svg" xmlns:xlink="http://www.w3.org/1999/xlink" width="22px" height="22px" viewBox="0 0 22 22" version="1.1">
<g id="surface1">
<path style=" stroke:none;fill-rule:evenodd;fill:rgb(0%,0%,0%);fill-opacity:1;" d="M 20.40625 11.238281 C 19.8125 10.542969 19.085938 10.027344 18.285156 9.722656 L 18.285156 1.867188 C 18.285156 0.835938 17.566406 0 16.679688 0 L 1.628906 0 C 0.738281 0 0.0195312 0.835938 0.0195312 1.867188 L 0.0195312 15.652344 C 0.0195312 16.144531 0.191406 16.617188 0.492188 16.964844 L 0.542969 17.019531 C 0.839844 17.335938 1.226562 17.515625 1.628906 17.515625 L 3.59375 17.515625 L 3.59375 21.230469 C 3.59375 21.65625 3.890625 22 4.253906 22 C 4.445312 22 4.625 21.90625 4.75 21.742188 L 8.539062 17.515625 L 11.476562 17.515625 C 11.738281 18.472656 12.195312 19.34375 12.804688 20.058594 C 14.902344 22.492188 18.308594 22.492188 20.40625 20.058594 C 22.503906 17.621094 22.503906 13.671875 20.40625 11.238281 Z M 16.960938 9.421875 C 15.429688 9.304688 13.925781 9.957031 12.832031 11.210938 C 11.738281 12.464844 11.160156 14.199219 11.242188 15.980469 L 8.277344 15.980469 C 8.109375 15.980469 7.945312 16.054688 7.820312 16.1875 L 4.910156 19.433594 L 4.910156 16.738281 C 4.910156 16.3125 4.613281 15.96875 4.246094 15.96875 L 1.628906 15.96875 C 1.5625 15.96875 1.5 15.941406 1.449219 15.894531 L 1.429688 15.875 C 1.378906 15.8125 1.347656 15.730469 1.347656 15.644531 L 1.347656 1.867188 C 1.351562 1.6875 1.472656 1.542969 1.628906 1.535156 L 16.683594 1.535156 C 16.757812 1.539062 16.828125 1.574219 16.878906 1.636719 C 16.933594 1.695312 16.960938 1.78125 16.960938 1.867188 Z M 4.5625 11.457031 C 4.320312 11.472656 4.085938 11.328125 3.960938 11.085938 C 3.835938 10.839844 3.835938 10.535156 3.960938 10.292969 C 4.085938 10.046875 4.320312 9.90625 4.5625 9.917969 L 10.710938 9.917969 C 11.0625 9.941406 11.339844 10.277344 11.339844 10.6875 C 11.339844 11.097656 11.0625 11.433594 10.710938 11.457031 Z M 4.5625 6.90625 C 4.320312 6.921875 4.085938 6.78125 3.960938 6.535156 C 3.835938 6.292969 3.835938 5.988281 3.960938 5.742188 C 4.085938 5.5 4.320312 5.355469 4.5625 5.371094 L 13.742188 5.371094 C 13.988281 5.355469 14.21875 5.5 14.347656 5.742188 C 14.472656 5.988281 14.472656 6.292969 14.347656 6.535156 C 14.21875 6.78125 13.988281 6.921875 13.742188 6.90625 Z M 17.226562 17.195312 L 15.746094 17.195312 C 15.746094 16.898438 15.746094 16.257812 15.832031 15.976562 C 15.890625 15.792969 15.976562 15.625 16.085938 15.480469 C 16.324219 15.195312 16.578125 14.929688 16.847656 14.683594 C 17.058594 14.476562 17.160156 14.304688 17.160156 14.140625 C 17.167969 13.996094 17.121094 13.855469 17.035156 13.753906 C 16.925781 13.652344 16.789062 13.605469 16.652344 13.617188 C 16.480469 13.609375 16.316406 13.683594 16.195312 13.824219 C 16.050781 14.035156 15.96875 14.292969 15.964844 14.5625 L 14.457031 14.355469 C 14.484375 13.769531 14.699219 13.214844 15.058594 12.800781 C 15.417969 12.410156 15.953125 12.214844 16.667969 12.214844 C 17.148438 12.191406 17.625 12.335938 18.035156 12.628906 C 18.480469 12.941406 18.753906 13.503906 18.75 14.109375 C 18.75 14.371094 18.6875 14.628906 18.570312 14.851562 C 18.367188 15.1875 18.113281 15.480469 17.824219 15.71875 C 17.632812 15.878906 17.464844 16.074219 17.328125 16.300781 C 17.253906 16.59375 17.21875 16.902344 17.226562 17.207031 Z M 17.28125 17.816406 L 17.28125 19.078125 L 15.699219 19.078125 L 15.699219 17.816406 Z M 17.28125 17.816406 "/>
</g>
</svg>
