<svg xmlns="http://www.w3.org/2000/svg" width="22" height="22" viewBox="0 0 22 22">
  <g id="setting" transform="translate(-52 -143)">
    <rect id="base" width="22" height="22" transform="translate(52 143)" fill="#fff" opacity="0"/>
    <g id="noun-setting-1571366" transform="translate(-17.647 144.017)">
      <path id="Path_912" data-name="Path 912" d="M80.9,19.1H79.5a1.186,1.186,0,0,1-1.165-1.165v-.839a.576.576,0,0,0-.354-.5l-.033-.014-1.186-.492h-.019a.576.576,0,0,0-.608.089l-.6.594a1.128,1.128,0,0,1-1.594,0l-1-.993a1.133,1.133,0,0,1,0-1.594l.6-.6a.585.585,0,0,0,.091-.615l-.019-.037-.492-1.193v-.014a.592.592,0,0,0-.5-.371h-.853a1.128,1.128,0,0,1-1.123-1.133v-1.4a1.1,1.1,0,0,1,1.126-1.1h.841a.611.611,0,0,0,.5-.385l.012-.03.492-1.214V6.069h0a.585.585,0,0,0-.091-.613l-.585-.6a1.128,1.128,0,0,1,0-1.594l.993-.991h0a1.126,1.126,0,0,1,1.594,0l.6.6a.585.585,0,0,0,.611.091h.019l1.221-.5a.576.576,0,0,0,.359-.517V1.091A1.137,1.137,0,0,1,79.5-.016h1.4a1.1,1.1,0,0,1,1.114,1.107v.844a.606.606,0,0,0,.378.5l.033.012,1.205.492h.019a.583.583,0,0,0,.613-.091l.6-.58a1.134,1.134,0,0,1,1.592,0l.993.991a1.13,1.13,0,0,1,0,1.6l-.6.6a.594.594,0,0,0-.089.62v.019l.5,1.233a.613.613,0,0,0,.5.385H88.6V7.7a1.121,1.121,0,0,1,1.109,1.114v1.4a1.11,1.11,0,0,1-1.1,1.13h-.832a.594.594,0,0,0-.5.371l-.012.033-.492,1.2v.019h0a.587.587,0,0,0,.089.613l.6.6h0a1.131,1.131,0,0,1,0,1.6l-1,1a1.12,1.12,0,0,1-1.585,0l-.6-.6a.594.594,0,0,0-.625-.1h-.021l-1.233.5h0a.611.611,0,0,0-.38.5v.858A1.147,1.147,0,0,1,80.9,19.1Zm-2.641-3.31a1.429,1.429,0,0,1,.932,1.31v.834a.3.3,0,0,0,.31.3h1.4a.284.284,0,0,0,.259-.3v-.839a1.452,1.452,0,0,1,.956-1.31l1.147-.466a1.436,1.436,0,0,1,1.6.249l.6.6a.273.273,0,0,0,.389,0l1-1a.28.28,0,0,0,0-.391l-.6-.6a1.44,1.44,0,0,1-.249-1.6l.466-1.14a1.447,1.447,0,0,1,1.31-.946h.844a.251.251,0,0,0,.233-.282v-1.4a.254.254,0,0,0-.233-.261v.033h-.844a1.463,1.463,0,0,1-1.31-.972L86,6.452h0a1.449,1.449,0,0,1,.249-1.6l.6-.6a.279.279,0,0,0,.081-.2.272.272,0,0,0-.079-.2l-1-.991a.278.278,0,0,0-.389,0l-.6.6a1.435,1.435,0,0,1-1.6.247l-1.147-.466a1.45,1.45,0,0,1-.956-1.31V1.091A.254.254,0,0,0,80.9.832H79.5a.277.277,0,0,0-.291.259v.844a1.426,1.426,0,0,1-.932,1.312l-1.137.466a1.42,1.42,0,0,1-1.592-.249l-.6-.6a.275.275,0,0,0-.389,0l-.993.993a.277.277,0,0,0,0,.389l.573.6a1.438,1.438,0,0,1,.252,1.594l-.466,1.165h0a1.462,1.462,0,0,1-1.31.974h-.846c-.142,0-.277.072-.277.233v1.4a.284.284,0,0,0,.275.282h.844a1.443,1.443,0,0,1,1.31.949l.466,1.14a1.435,1.435,0,0,1-.247,1.6l-.6.594a.28.28,0,0,0,0,.391l.993.993a.275.275,0,0,0,.389,0l.6-.6h0a1.433,1.433,0,0,1,1.6-.247Z" transform="translate(0 0)" fill="#232323"/>
      <path id="Path_913" data-name="Path 913" d="M218.723,152.726a4.6,4.6,0,1,0-.012,0Zm0-8.458a1.572,1.572,0,1,0,0-.009Z" transform="translate(-138.508 -138.524)" fill="#232323"/>
    </g>
  </g>
</svg>
