<svg xmlns="http://www.w3.org/2000/svg" width="22" height="22" viewBox="0 0 22 22">
  <g id="whatsapp" transform="translate(-52 -143)">
    <rect id="base" width="22" height="22" transform="translate(52 143)" fill="#fff" opacity="0"/>
    <g id="noun-phone-call-5336160" transform="translate(-22.391 145.012)">
      <path id="Path_984" data-name="Path 984" d="M99.5-.012A9.058,9.058,0,0,0,90.45,9.037a8.944,8.944,0,0,0,1.858,5.487l-1.423,3.857a.427.427,0,0,0,.095.42.356.356,0,0,0,.42.083l4.218-1.677a8.94,8.94,0,0,0,3.881.882,9.05,9.05,0,0,0,0-18.1Zm0,17.311a8.211,8.211,0,0,1-3.688-.876.4.4,0,0,0-.322-.015l-3.556,1.417,1.192-3.233a.4.4,0,0,0-.062-.385,8.156,8.156,0,0,1-1.825-5.171A8.262,8.262,0,1,1,99.5,17.3Z" transform="translate(-14.059 0)" fill="#232323"/>
      <path id="Path_985" data-name="Path 985" d="M192.124,99.724a.8.8,0,0,0-.222-.4l-1.343-1.343a.827.827,0,0,0-.784-.216,2.254,2.254,0,0,0-1.373.973,1.643,1.643,0,0,0-.18.417.579.579,0,0,1-.177.316.135.135,0,0,1-.068,0,10.482,10.482,0,0,1-2.653-2.068,10.676,10.676,0,0,1-2.056-2.624.14.14,0,0,1-.009-.095.555.555,0,0,1,.319-.177,1.787,1.787,0,0,0,.414-.177,2.261,2.261,0,0,0,.976-1.373.827.827,0,0,0-.216-.784l-1.343-1.343a.812.812,0,0,0-.4-.222,1.889,1.889,0,0,0-1.556.633,3.372,3.372,0,0,0-1.1,3,11.2,11.2,0,0,0,8.126,8.135,2.866,2.866,0,0,0,.485.038,3.312,3.312,0,0,0,2.5-1.106,1.919,1.919,0,0,0,.66-1.586Zm-1.219,1.029a2.584,2.584,0,0,1-2.293.846,10.434,10.434,0,0,1-7.478-7.478c0-.006,0-.012,0-.018a2.609,2.609,0,0,1,.873-2.3,1.317,1.317,0,0,1,.76-.423.427.427,0,0,1,.086.009l1.352,1.375a1.47,1.47,0,0,1-.627.9.872.872,0,0,1-.216.092,1.271,1.271,0,0,0-.8.574.9.9,0,0,0-.021.748,10.986,10.986,0,0,0,2.23,2.89,10.8,10.8,0,0,0,2.917,2.242.887.887,0,0,0,.722-.033,1.259,1.259,0,0,0,.574-.8.955.955,0,0,1,.092-.219,1.372,1.372,0,0,1,.926-.615l1.352,1.352c.062.275-.254.68-.444.858Z" transform="translate(-100.794 -87.442)" fill="#232323"/>
    </g>
  </g>
</svg>
