<svg xmlns="http://www.w3.org/2000/svg" width="22" height="22" viewBox="0 0 22 22">
  <g id="booking" transform="translate(-52 -143)">
    <rect id="base" width="22" height="22" transform="translate(52 143)" fill="#fff" opacity="0"/>
    <g id="booking-2" data-name="booking" transform="translate(-7006.856 -12391.514)">
      <path id="Path_1154" data-name="Path 1154" d="M138.8,15.322v-.761a.608.608,0,0,0-1.212,0V15.3h-2.208v-.741a.608.608,0,0,0-1.212,0V15.3h-2.229v-.741a.608.608,0,0,0-1.212,0V15.3h-2.23v-.741a.608.608,0,0,0-1.212,0v.761a2.93,2.93,0,0,0-2.965,2.824V30.2a2.941,2.941,0,0,0,3.052,2.824H138.71a2.941,2.941,0,0,0,3.052-2.824V18.146a2.93,2.93,0,0,0-2.965-2.824ZM140.55,30.2a1.774,1.774,0,0,1-1.84,1.7H127.368a1.774,1.774,0,0,1-1.84-1.7V18.146a1.756,1.756,0,0,1,1.732-1.682V17.2a.608.608,0,0,0,1.212,0v-.761h2.208V17.2a.608.608,0,0,0,1.212,0v-.761H134.1V17.2a.608.608,0,0,0,1.212,0v-.761h2.273V17.2a.608.608,0,0,0,1.212,0v-.741a1.741,1.741,0,0,1,1.732,1.682V30.2Z" transform="translate(6936.818 12522)" fill="#232323" stroke="#fff" stroke-width="0.1"/>
      <path id="Path_1155" data-name="Path 1155" d="M215.952,174.271a1.33,1.33,0,0,0-1.883,0L208.341,180a1.5,1.5,0,0,0-.4.741l-.5,2.444a.778.778,0,0,0,.2.681.727.727,0,0,0,.521.22.342.342,0,0,0,.14-.02l2.444-.5a1.5,1.5,0,0,0,.741-.4l5.748-5.748a1.33,1.33,0,0,0,0-1.883Zm-5.248,8.112a.388.388,0,0,1-.18.1l-1.863.381.381-1.883a.409.409,0,0,1,.1-.18l4.266-4.266,1.582,1.582Zm5.748-5.748-.681.681-1.582-1.582.681-.681a.194.194,0,0,1,.281,0l1.282,1.282a.2.2,0,0,1,.02.3Z" transform="translate(6857.33 12367.838)" fill="#232323" stroke="#fff" stroke-width="0.1"/>
    </g>
  </g>
</svg>
