<svg xmlns="http://www.w3.org/2000/svg" width="22" height="22" viewBox="0 0 22 22">
  <g id="leads" transform="translate(-52 -143)">
    <rect id="base" width="22" height="22" transform="translate(52 143)" fill="#fff" opacity="0"/>
    <g id="noun-user-3578433" transform="translate(-22.961 120.516)">
      <path id="Path_949" data-name="Path 949" d="M142.279,165.1a.559.559,0,0,0-.559.559v1.7a2.187,2.187,0,1,0,1.118-.022v-1.115h4.784v1.126a2.186,2.186,0,1,0,1.118,0v-1.126h4.784v1.116a2.184,2.184,0,1,0,1.118.022v-1.7a.559.559,0,0,0-.559-.559H148.74v-1.3h2.911a.559.559,0,0,0,.559-.559v-2.511a3.642,3.642,0,0,0-3.638-3.639h-.783a3.642,3.642,0,0,0-3.638,3.639v2.512a.559.559,0,0,0,.559.559h2.911v1.3Zm1.109,4.355a1.069,1.069,0,1,1-.313-.754,1.067,1.067,0,0,1,.313.754Zm5.859,0h0a1.068,1.068,0,1,1-.313-.755,1.068,1.068,0,0,1,.313.755Zm5.859,0h0a1.067,1.067,0,1,1-.312-.755,1.068,1.068,0,0,1,.312.755Zm-9.837-8.722a2.522,2.522,0,0,1,2.519-2.52h.783a2.523,2.523,0,0,1,2.52,2.52v1.954h-5.823Z" transform="translate(-62.173 -128.483)" fill="#232323" stroke="#fff" stroke-width="0.2"/>
      <path id="Path_950" data-name="Path 950" d="M289.517,26a2.514,2.514,0,1,0-.736,1.775A2.512,2.512,0,0,0,289.517,26Zm-3.9,0h0a1.395,1.395,0,1,1,.409.985,1.393,1.393,0,0,1-.409-.985Z" transform="translate(-200.998)" fill="#232323" stroke="#fff" stroke-width="0.2"/>
    </g>
  </g>
</svg>
