<svg xmlns="http://www.w3.org/2000/svg" width="25.482" height="18.976" viewBox="0 0 25.482 18.976">
  <g id="noun-web-1150154" transform="translate(-86.801 -84)">
    <path id="Path_1030" data-name="Path 1030" d="M88.7,84a1.912,1.912,0,0,0-1.9,1.9v16.265a.813.813,0,0,0,.813.813h23.855a.813.813,0,0,0,.813-.813V85.9a1.912,1.912,0,0,0-1.9-1.9H88.7Zm0,1.627h21.687a.255.255,0,0,1,.271.271v2.44H88.428V85.9a.255.255,0,0,1,.271-.271Zm1.084.542a.813.813,0,1,0,.813.813A.813.813,0,0,0,89.783,86.169Zm2.44,0a.813.813,0,1,0,.813.813A.813.813,0,0,0,92.222,86.169Zm2.44,0a.813.813,0,1,0,.813.813A.813.813,0,0,0,94.662,86.169Zm-6.235,3.8h22.229v11.385H88.427Z" fill="#fff"/>
  </g>
</svg>
