<svg xmlns="http://www.w3.org/2000/svg" width="39.466" height="39.389" viewBox="0 0 39.466 39.389">
  <g id="noun-money-donation-1273894" transform="translate(-136.666 -66.66)" opacity="0.15">
    <path id="Path_1051" data-name="Path 1051" d="M175.176,283.119l-1.129-.376a2.256,2.256,0,0,0-2.007.251,2.439,2.439,0,0,0-1.129,1.756l-.125,1L160,282.869a5.016,5.016,0,0,0-4.014.5l-4.516,2.133a3.859,3.859,0,0,0-2.258,3.512,5.262,5.262,0,0,0,.5,2.007h-.376c-1.756-.376-6.4-1.505-9.157-2.133a3,3,0,0,0-2.509.5,3.213,3.213,0,0,0-1,2.384,3.148,3.148,0,0,0,2.007,3.011l11.165,5.52a9.02,9.02,0,0,0,4.391,1,10.891,10.891,0,0,0,4.892-1.254c2.258-1.254,4.767-2.76,6.021-3.512a1.1,1.1,0,0,1,.878-.125l2.885.753v1.5a2.5,2.5,0,0,0,1.882,2.76l1.129.251h.251a1.32,1.32,0,0,0,1.254-1,1.29,1.29,0,0,0-.878-1.505l-1.129-.251,2.007-13.8,1.129.376a1.191,1.191,0,0,0,1.505-.878,1.152,1.152,0,0,0-.878-1.5Zm-8.4,10.788a3.533,3.533,0,0,0-2.76.376c-1.254.753-3.889,2.258-6.021,3.512a7.709,7.709,0,0,1-7.025.251L139.8,292.528c-.5-.251-.627-.376-.627-.753a.574.574,0,0,1,.627-.5c2.76.627,7.275,1.756,9.157,2.133a5.4,5.4,0,0,0,2.007,0l6.021-1.129a1.279,1.279,0,0,0-.5-2.509l-4.14.753a1.779,1.779,0,0,0-.251-.753,1.434,1.434,0,0,1-.376-.878,1.38,1.38,0,0,1,.753-1.254l4.641-2.133.125-.125a2.307,2.307,0,0,1,2.007-.251l11.165,3.011-.878,6.272Z" transform="translate(0 -195.636)" fill="#ce4141"/>
    <path id="Path_1052" data-name="Path 1052" d="M173.366,86.731A10.036,10.036,0,1,0,163.33,76.7,10.065,10.065,0,0,0,173.366,86.731Zm0-17.562a7.526,7.526,0,1,1-7.526,7.526A7.549,7.549,0,0,1,173.366,69.169Z" transform="translate(-24.155)" fill="#ce4141"/>
    <path id="Path_1053" data-name="Path 1053" d="M231.249,115.449a1.254,1.254,0,0,0,0,2.509H232.5a1.254,1.254,0,0,0,2.509,0,2.516,2.516,0,0,0,2.509-2.509v-1.254a2.516,2.516,0,0,0-2.509-2.509H232.5v-1.254h3.763a1.254,1.254,0,1,0,0-2.509h-1.254a1.254,1.254,0,0,0-2.509,0,2.516,2.516,0,0,0-2.509,2.509v1.254a2.516,2.516,0,0,0,2.509,2.509h2.509v1.254Z" transform="translate(-84.548 -36.244)" fill="#ce4141"/>
  </g>
</svg>
