<svg id="noun-copy-4671043" xmlns="http://www.w3.org/2000/svg" width="18" height="18" viewBox="0 0 18 18">
  <path id="Path_987" data-name="Path 987" d="M185.426,105.3h-.562v-1.125a3.375,3.375,0,0,0-3.375-3.375h-7.312a3.375,3.375,0,0,0-3.375,3.375v7.313a3.375,3.375,0,0,0,3.375,3.375H175.3v.562a3.375,3.375,0,0,0,3.375,3.375h6.75a3.375,3.375,0,0,0,3.375-3.375v-6.75a3.375,3.375,0,0,0-3.375-3.375ZM175.3,108.677v3.937h-1.125a1.125,1.125,0,0,1-1.125-1.125v-7.313a1.125,1.125,0,0,1,1.125-1.125h7.312a1.125,1.125,0,0,1,1.125,1.125V105.3h-3.937a3.375,3.375,0,0,0-3.375,3.375Zm11.25,6.75a1.125,1.125,0,0,1-1.125,1.125h-6.75a1.125,1.125,0,0,1-1.125-1.125v-6.75a1.125,1.125,0,0,1,1.125-1.125h6.75a1.125,1.125,0,0,1,1.125,1.125Z" transform="translate(-170.801 -100.802)" fill="#232323"/>
</svg>
