<svg id="noun-edit-5208215" xmlns="http://www.w3.org/2000/svg" width="18" height="18" viewBox="0 0 18 18">
  <path id="Path_986" data-name="Path 986" d="M223.034,46.668a1.125,1.125,0,0,1,.8.329l3.842,3.842a1.125,1.125,0,0,1,0,1.591L216.146,63.954a1.125,1.125,0,0,1-.694.325l-4.226.384A1.125,1.125,0,0,1,210,63.441l.384-4.226a1.126,1.126,0,0,1,.325-.694L222.239,47a1.125,1.125,0,0,1,.8-.329Zm-1.866,4.582,2.25,2.25,1.866-1.866-2.251-2.25Zm.659,3.842-2.25-2.25-6.983,6.983-.225,2.476,2.476-.225Z" transform="translate(-210 -46.668)" fill="#232323" fill-rule="evenodd"/>
</svg>
