<svg xmlns="http://www.w3.org/2000/svg" width="29.558" height="25.291" viewBox="0 0 29.558 25.291">
  <g id="noun-wallet-1573165" transform="translate(0.2 0.2)" opacity="0.2">
    <path id="Path_176" data-name="Path 176" d="M122.89,83.994a2.491,2.491,0,0,0-2.489,2.489v20.268a2.137,2.137,0,0,0,2.134,2.134h24.891a2.137,2.137,0,0,0,2.134-2.134V90.394a2.137,2.137,0,0,0-2.134-2.134h-2.134V84.349a.37.37,0,0,0-.356-.356Zm0,.711h21.69v3.556H122.89a1.778,1.778,0,0,1,0-3.556Zm-1.778,3.511a2.478,2.478,0,0,0,1.778.755h24.535a1.411,1.411,0,0,1,1.422,1.422v3.912h-9.956a1.427,1.427,0,0,0-1.422,1.422v5.689a1.427,1.427,0,0,0,1.422,1.422h9.956v3.912a1.411,1.411,0,0,1-1.422,1.422H122.534a1.411,1.411,0,0,1-1.422-1.422Zm17.779,6.8h9.956v7.112h-9.956a.7.7,0,0,1-.711-.711V95.728A.7.7,0,0,1,138.891,95.017Zm2.845,2.122a1.422,1.422,0,1,0,1.422,1.422A1.428,1.428,0,0,0,141.736,97.139Zm0,.711a.711.711,0,1,1-.711.711A.706.706,0,0,1,141.736,97.85Z" transform="translate(-120.401 -83.993)" fill="teal" stroke="teal" stroke-width="0.4"/>
  </g>
</svg>
