<svg xmlns="http://www.w3.org/2000/svg" width="11.812" height="20.924" viewBox="0 0 11.812 20.924">
  <g id="noun-mobile-5663039" transform="translate(-242.31 -89.23)">
    <path id="Path_990" data-name="Path 990" d="M304.52,130.77a.675.675,0,0,0,0,1.35h4.05a.675.675,0,1,0,0-1.35Z" transform="translate(-58.16 -39.262)" fill="#fff"/>
    <path id="Path_991" data-name="Path 991" d="M242.31,91.93a2.7,2.7,0,0,1,2.7-2.7h6.412a2.7,2.7,0,0,1,2.7,2.7v15.524a2.7,2.7,0,0,1-2.7,2.7H245.01a2.7,2.7,0,0,1-2.7-2.7Zm2.7-1.012h6.412a1.012,1.012,0,0,1,1.012,1.012v15.524a1.012,1.012,0,0,1-1.012,1.012H245.01A1.012,1.012,0,0,1,244,107.454V91.93A1.012,1.012,0,0,1,245.01,90.917Z" fill="#fff" fill-rule="evenodd"/>
  </g>
</svg>
