<svg xmlns="http://www.w3.org/2000/svg" width="36.209" height="42.572" viewBox="0 0 36.209 42.572">
  <g id="noun-subscription-2445064" transform="translate(-123.76 -14.002)" opacity="0.15">
    <path id="Path_1108" data-name="Path 1108" d="M159.969,39.142a3.557,3.557,0,0,0-3.585-3.54,3.315,3.315,0,0,0-1.613.4,3.5,3.5,0,0,0-3.092-1.792,3.315,3.315,0,0,0-1.613.4,3.5,3.5,0,0,0-3.092-1.792,3.342,3.342,0,0,0-1.165.179V30.942H148.5a3.864,3.864,0,0,0,3.854-3.9V17.9A3.892,3.892,0,0,0,148.5,14H127.614a3.864,3.864,0,0,0-3.854,3.9V27a3.892,3.892,0,0,0,3.854,3.9h11.024V41.562l-1.479-1.479a3.657,3.657,0,0,0-4.571-.448,3.778,3.778,0,0,0-1.569,2.465,3.639,3.639,0,0,0,.806,2.823l6.453,7.8a10.527,10.527,0,0,0,8.156,3.854h4.033a9.486,9.486,0,0,0,9.456-9.456Zm-9.411,15.012h-4.033a8.174,8.174,0,0,1-6.319-2.958l-6.453-7.8a1.18,1.18,0,0,1-.269-.941,1.1,1.1,0,0,1,.493-.806,1.208,1.208,0,0,1,.672-.224,1.224,1.224,0,0,1,.852.359l2.6,2.6a1.784,1.784,0,0,0,1.927.359,1.7,1.7,0,0,0,1.076-1.613V26.371a1.186,1.186,0,0,1,1.165-1.165,1.23,1.23,0,0,1,1.165,1.165V37.887a1.21,1.21,0,0,0,2.42,0V36.319a1.165,1.165,0,0,1,2.33,0v3a1.21,1.21,0,1,0,2.42,0V37.753a1.165,1.165,0,0,1,2.33,0v3a1.21,1.21,0,1,0,2.42,0V39.186a1.165,1.165,0,1,1,2.33,0v7.977a6.946,6.946,0,0,1-2.062,4.974,7.55,7.55,0,0,1-5.064,2.017ZM127.614,28.208A1.168,1.168,0,0,1,126.449,27V17.9a1.2,1.2,0,0,1,1.165-1.21h20.838a1.168,1.168,0,0,1,1.165,1.21V27a1.2,1.2,0,0,1-1.165,1.21h-2.689V26.416a3.54,3.54,0,1,0-7.08.045v1.792H127.614Z" transform="translate(0 0)" fill="teal"/>
    <path id="Path_1109" data-name="Path 1109" d="M206.58,82.483l-2.465,2.644-.852-.941a1.2,1.2,0,0,0-1.748,1.658l1.748,1.882a1.2,1.2,0,0,0,1.792,0l3.361-3.585a1.2,1.2,0,0,0-.045-1.7A1.314,1.314,0,0,0,206.58,82.483Z" transform="translate(-71.214 -62.655)" fill="teal"/>
  </g>
</svg>
