<svg xmlns="http://www.w3.org/2000/svg" width="21.198" height="15.949" viewBox="0 0 21.198 15.949">
  <g id="noun-eye-5644827" transform="translate(490.361 3.759)">
    <path id="Path_1032" data-name="Path 1032" d="M109.019,106.669c-7.6,0-10.428-7.314-10.546-7.62a1.054,1.054,0,0,1,0-.661c.118-.33,2.949-7.668,10.546-7.668s10.428,7.314,10.546,7.62a1.054,1.054,0,0,1,0,.661C119.447,99.331,116.616,106.669,109.019,106.669Zm-8.658-7.974c.59,1.321,3.138,6.063,8.658,6.063s8.045-4.742,8.658-6.087c-.613-1.3-3.138-6.063-8.658-6.063S100.974,97.373,100.361,98.694Zm8.658,3.539a3.539,3.539,0,1,1,3.539-3.539A3.534,3.534,0,0,1,109.019,102.233Zm0-5.19a1.651,1.651,0,1,0,1.651,1.651A1.641,1.641,0,0,0,109.019,97.043Z" transform="translate(-588.781 -94.479)" fill="#232323"/>
  </g>
</svg>
