<svg xmlns="http://www.w3.org/2000/svg" width="39.674" height="39.006" viewBox="0 0 39.674 39.006">
  <g id="noun-calendar-2080616" transform="translate(-84.563 -18.48)" opacity="0.15">
    <path id="Path_1054" data-name="Path 1054" d="M166.829,338.24H166.7a1.5,1.5,0,0,0-1.5,1.5v.167a1.5,1.5,0,0,0,1.5,1.5h.125a1.5,1.5,0,0,0,1.5-1.5v-.167A1.5,1.5,0,0,0,166.829,338.24Z" transform="translate(-74.624 -295.914)" fill="#2650a4"/>
    <path id="Path_1055" data-name="Path 1055" d="M248.589,338.24h-.125a1.5,1.5,0,0,0-1.5,1.5v.167a1.5,1.5,0,0,0,1.5,1.5h.125a1.5,1.5,0,0,0,1.5-1.5v-.167A1.5,1.5,0,0,0,248.589,338.24Z" transform="translate(-150.286 -295.914)" fill="#2650a4"/>
    <path id="Path_1056" data-name="Path 1056" d="M330.392,338.24h-.167a1.5,1.5,0,0,0-1.5,1.5v.167a1.5,1.5,0,0,0,1.5,1.5h.167a1.5,1.5,0,0,0,1.5-1.5v-.167A1.5,1.5,0,0,0,330.392,338.24Z" transform="translate(-225.95 -295.914)" fill="#2650a4"/>
    <path id="Path_1057" data-name="Path 1057" d="M166.829,255.36H166.7a1.5,1.5,0,0,0-1.5,1.5v.167a1.5,1.5,0,0,0,1.5,1.5h.125a1.5,1.5,0,0,0,1.5-1.5v-.167A1.5,1.5,0,0,0,166.829,255.36Z" transform="translate(-74.624 -219.214)" fill="#2650a4"/>
    <path id="Path_1058" data-name="Path 1058" d="M248.589,255.36h-.125a1.5,1.5,0,0,0-1.5,1.5v.167a1.5,1.5,0,0,0,1.5,1.5h.125a1.5,1.5,0,0,0,1.5-1.5v-.167A1.5,1.5,0,0,0,248.589,255.36Z" transform="translate(-150.286 -219.214)" fill="#2650a4"/>
    <path id="Path_1059" data-name="Path 1059" d="M330.392,255.36h-.167a1.5,1.5,0,0,0-1.5,1.5v.167a1.5,1.5,0,0,0,1.5,1.5h.167a1.5,1.5,0,0,0,1.5-1.5v-.167A1.5,1.5,0,0,0,330.392,255.36Z" transform="translate(-225.95 -219.214)" fill="#2650a4"/>
    <path id="Path_1060" data-name="Path 1060" d="M412.152,338.24h-.167a1.5,1.5,0,0,0-1.5,1.5v.167a1.5,1.5,0,0,0,1.5,1.5h.167a1.5,1.5,0,0,0,1.5-1.5v-.167A1.472,1.472,0,0,0,412.152,338.24Z" transform="translate(-301.613 -295.914)" fill="#2650a4"/>
    <path id="Path_1061" data-name="Path 1061" d="M494.472,338.24h-.167a1.5,1.5,0,0,0-1.5,1.5v.167a1.5,1.5,0,0,0,1.5,1.5h.167a1.5,1.5,0,0,0,1.5-1.5v-.167A1.5,1.5,0,0,0,494.472,338.24Z" transform="translate(-377.794 -295.914)" fill="#2650a4"/>
    <path id="Path_1062" data-name="Path 1062" d="M412.152,255.36h-.167a1.5,1.5,0,0,0-1.5,1.5v.167a1.5,1.5,0,0,0,1.5,1.5h.167a1.5,1.5,0,0,0,1.5-1.5v-.167A1.472,1.472,0,0,0,412.152,255.36Z" transform="translate(-301.613 -219.214)" fill="#2650a4"/>
    <path id="Path_1063" data-name="Path 1063" d="M494.472,255.36h-.167a1.5,1.5,0,0,0-1.5,1.5v.167a1.5,1.5,0,0,0,1.5,1.5h.167a1.5,1.5,0,0,0,1.5-1.5v-.167A1.5,1.5,0,0,0,494.472,255.36Z" transform="translate(-377.794 -219.214)" fill="#2650a4"/>
    <path id="Path_1064" data-name="Path 1064" d="M166.829,420.56H166.7a1.5,1.5,0,0,0-1.5,1.5v.167a1.5,1.5,0,0,0,1.5,1.5h.125a1.5,1.5,0,0,0,1.5-1.5v-.167A1.524,1.524,0,0,0,166.829,420.56Z" transform="translate(-74.624 -372.094)" fill="#2650a4"/>
    <path id="Path_1065" data-name="Path 1065" d="M248.589,420.56h-.125a1.5,1.5,0,0,0-1.5,1.5v.167a1.5,1.5,0,0,0,1.5,1.5h.125a1.5,1.5,0,0,0,1.5-1.5v-.167A1.524,1.524,0,0,0,248.589,420.56Z" transform="translate(-150.286 -372.094)" fill="#2650a4"/>
    <path id="Path_1066" data-name="Path 1066" d="M330.392,420.56h-.167a1.5,1.5,0,0,0-1.5,1.5v.167a1.5,1.5,0,0,0,1.5,1.5h.167a1.5,1.5,0,0,0,1.5-1.5v-.167A1.524,1.524,0,0,0,330.392,420.56Z" transform="translate(-225.95 -372.094)" fill="#2650a4"/>
    <path id="Path_1067" data-name="Path 1067" d="M412.152,420.56h-.167a1.5,1.5,0,0,0-1.5,1.5v.167a1.5,1.5,0,0,0,1.5,1.5h.167a1.5,1.5,0,0,0,1.5-1.5v-.167A1.5,1.5,0,0,0,412.152,420.56Z" transform="translate(-301.613 -372.094)" fill="#2650a4"/>
    <path id="Path_1068" data-name="Path 1068" d="M494.472,420.56h-.167a1.5,1.5,0,0,0-1.5,1.5v.167a1.5,1.5,0,0,0,1.5,1.5h.167a1.5,1.5,0,0,0,1.5-1.5v-.167A1.524,1.524,0,0,0,494.472,420.56Z" transform="translate(-377.794 -372.094)" fill="#2650a4"/>
    <path id="Path_1069" data-name="Path 1069" d="M124.2,31.259h0V27.877A4.661,4.661,0,0,0,119.56,23.2H117.1V21.737a3.257,3.257,0,1,0-6.515,0V23.2H98.219V21.737a3.257,3.257,0,1,0-6.515,0V23.2H89.24a4.67,4.67,0,0,0-4.677,4.677V52.851a4.661,4.661,0,0,0,4.677,4.636H119.6a4.652,4.652,0,0,0,4.636-4.636L124.2,31.259h0ZM112.5,21.737a1.295,1.295,0,1,1,2.589,0v3.091a1.295,1.295,0,1,1-2.589,0Zm-18.877,0a1.295,1.295,0,0,1,2.589,0v3.091a1.295,1.295,0,0,1-2.589,0ZM89.2,25.162H91.7a3.253,3.253,0,0,0,6.473,0h12.4a3.23,3.23,0,0,0,6.432,0h2.506a2.7,2.7,0,0,1,2.673,2.714V30.3H86.484V27.877A2.709,2.709,0,0,1,89.2,25.162ZM119.56,55.523H89.2a2.7,2.7,0,0,1-2.714-2.673V32.22h35.749V52.85a2.691,2.691,0,0,1-2.673,2.673Z" transform="translate(0)" fill="#2650a4"/>
  </g>
</svg>
