<svg id="noun-save-5664390" xmlns="http://www.w3.org/2000/svg" width="17.535" height="17.535" viewBox="0 0 17.535 17.535">
  <path id="Path_1031" data-name="Path 1031" d="M142.926,87.543h11.69a2.926,2.926,0,0,0,2.923-2.923V74.632a2.177,2.177,0,0,0-.642-1.55l-2.431-2.432a2.178,2.178,0,0,0-1.55-.642h-9.989A2.926,2.926,0,0,0,140,72.931v11.69a2.926,2.926,0,0,0,2.923,2.923Zm9.377-1.461H145.24V80.967a.366.366,0,0,1,.365-.365h6.332a.366.366,0,0,1,.365.365Zm-6.089-14.613h5.114v2.192a.366.366,0,0,1-.365.365H146.58a.366.366,0,0,1-.365-.365Zm-4.749,1.461a1.463,1.463,0,0,1,1.461-1.461h1.827v2.192a1.829,1.829,0,0,0,1.827,1.827h4.384a1.829,1.829,0,0,0,1.827-1.827V71.469h.125a.728.728,0,0,1,.517.214l2.431,2.432a.737.737,0,0,1,.214.517V84.62a1.463,1.463,0,0,1-1.461,1.461h-.852V80.967a1.829,1.829,0,0,0-1.827-1.827h-6.332a1.829,1.829,0,0,0-1.827,1.827v5.114h-.852a1.463,1.463,0,0,1-1.461-1.461Z" transform="translate(-140.004 -70.008)" fill="#232323"/>
</svg>
