<svg xmlns="http://www.w3.org/2000/svg" width="15" height="12" viewBox="0 0 15 12" fill="none">
  <g clip-path="url(#clip0_304_21013)">
    <path d="M0.461112 0.881857C0.212719 0.881857 0 0.680754 0 0.435932C0 0.201103 0.212719 0 0.461112 0H1.66608C1.67797 0 1.70175 0 1.71364 0C2.13908 0.0112418 2.51696 0.0886853 2.83537 0.278547C3.18947 0.490892 3.44975 0.814406 3.59112 1.29406C3.59112 1.3053 3.59112 1.31654 3.60301 1.32778L3.7206 1.77371H8.21413C7.31701 3.79348 8.12032 6.52649 10.6254 7.26595H5.27834C5.4435 7.84678 5.60865 8.15905 5.83326 8.30395C6.10544 8.47132 6.57712 8.48256 7.36854 8.47132H7.38043H12.7182C12.9785 8.47132 13.178 8.67243 13.178 8.90726C13.178 9.15208 12.9653 9.34194 12.7182 9.34194H7.38043C6.40007 9.35318 5.79759 9.3307 5.31401 9.02967C4.81855 8.71739 4.55827 8.18153 4.29798 7.20974L2.71646 1.55137C2.71646 1.54013 2.71646 1.54013 2.70457 1.52889C2.63322 1.28281 2.51564 1.11544 2.35048 1.02675C2.18533 0.926824 1.96072 0.881857 1.70043 0.881857C1.68854 0.881857 1.67665 0.881857 1.66476 0.881857H0.461112ZM11.3349 9.85656C11.9612 9.85656 12.4685 10.3362 12.4685 10.9283C12.4685 11.5203 11.9612 12 11.3349 12C10.7086 12 10.2013 11.5203 10.2013 10.9283C10.2026 10.3375 10.7099 9.85656 11.3349 9.85656ZM6.3644 9.85656C6.99066 9.85656 7.49802 10.3362 7.49802 10.9283C7.49802 11.5203 6.99066 12 6.3644 12C5.73813 12 5.23078 11.5203 5.23078 10.9283C5.23078 10.3375 5.73813 9.85656 6.3644 9.85656Z" fill="#F84141"/>
    <path fill-rule="evenodd" clip-rule="evenodd" d="M12.0259 0.660156C13.6682 0.660156 15 1.91924 15 3.47186C15 5.02447 13.6682 6.28356 12.0259 6.28356C8.11506 6.28356 8.11506 0.660156 12.0259 0.660156Z" fill="#F84141"/>
  </g>
  <defs>
    <clipPath id="clip0_304_21013">
      <rect width="15" height="12" fill="white"/>
    </clipPath>
  </defs>
</svg>