<svg xmlns="http://www.w3.org/2000/svg" width="10" height="10" viewBox="0 0 10 10" fill="none">
  <path fill-rule="evenodd" clip-rule="evenodd" d="M6.30289 0.776689L4.13923 2.1206L6.67794 2.47928L8.76547 1.12563L6.30289 0.776689ZM6.80396 4.76455C8.18771 4.76455 9.30929 5.93067 9.30929 7.36913C9.30929 8.80739 8.18771 9.97351 6.80396 9.97351C5.42022 9.97351 4.29863 8.80739 4.29863 7.36913C4.29863 5.93067 5.42022 4.76455 6.80396 4.76455ZM6.15888 7.00167L6.53224 7.36542L7.38979 6.45974C7.47342 6.37143 7.52631 6.30028 7.62963 6.41081L7.96493 6.76813C8.07519 6.88139 8.06956 6.94787 7.96568 7.05313L6.7237 8.32043C6.50505 8.54383 6.54293 8.55728 6.3209 8.32842L5.59424 7.57752C5.54792 7.52527 5.55317 7.47283 5.6038 7.4204L5.99292 7.00089C6.05199 6.93656 6.09868 6.94202 6.15888 7.00167ZM3.84107 2.45882L3.83938 5.22129L2.87457 4.53823L1.90956 5.10491L2.02395 2.20208L0.36361 1.96757V8.06876L3.71937 8.51985C3.76662 8.65806 3.82194 8.79238 3.88533 8.92181L0.174398 8.42297C0.0774477 8.41887 0 8.33563 0 8.23407V1.75177C0.00506317 1.67282 0.0354422 1.61746 0.107264 1.58003L3.42195 0.0166226C3.45158 0.00258701 3.48796 -0.00306621 3.5204 0.00161232L9.29954 0.821135C9.39499 0.832636 9.46044 0.914121 9.46044 1.01588L9.47 5.47588C9.36274 5.31096 9.17802 5.08035 9.09626 4.93454V1.35605L6.92454 2.81672V3.98265C6.8033 3.978 6.68191 3.98034 6.56093 3.98967V2.84304L3.84107 2.45882ZM2.31237 1.86269L4.41583 0.509038L3.52359 0.382523L0.82961 1.65313L2.31237 1.86269Z" fill="#222222"/>
  <path fill-rule="evenodd" clip-rule="evenodd" d="M6.83931 4.7243C8.29229 4.7243 9.46997 5.90525 9.46997 7.36226C9.46997 8.81905 8.29229 10 6.83931 10C5.38655 10 4.20886 8.81905 4.20886 7.36226C4.20886 5.90525 5.38655 4.7243 6.83931 4.7243Z" fill="#F84141"/>
  <path fill-rule="evenodd" clip-rule="evenodd" d="M5.70076 6.87654C5.66349 6.84004 5.62905 6.80835 5.60726 6.77688L5.61096 6.78037L6.14324 7.31413L6.13997 7.31719L5.70076 6.87654ZM8.05047 6.51459L8.09145 6.55655C8.21874 6.68267 8.2122 6.75655 8.09232 6.87414L7.56069 7.40702L7.46784 7.31413L8.00251 6.77775C8.10409 6.6783 8.12436 6.60989 8.05047 6.51459ZM8.05701 7.91105L8.09232 7.94646C8.2122 8.06383 8.21874 8.13771 8.09145 8.26405L7.7039 8.66207C7.58467 8.78534 7.52386 8.70622 7.42708 8.60764L6.89523 8.07433L6.36012 8.61092C6.24307 8.73136 6.16918 8.73791 6.04341 8.61027L5.64649 8.22164C5.6284 8.20394 5.61488 8.18776 5.60486 8.17246L5.95361 8.51388C6.07959 8.64152 6.15327 8.63497 6.27053 8.51475L6.80543 7.97815L7.33727 8.51147C7.43405 8.61005 7.49487 8.68895 7.61409 8.56568L8.00164 8.16766C8.10561 8.06471 8.12044 7.99651 8.05701 7.91105Z" fill="#D13327"/>
  <path fill-rule="evenodd" clip-rule="evenodd" d="M5.61111 6.78043C5.5128 6.68338 5.4339 6.6224 5.55683 6.50262L5.95375 6.11422C6.07974 5.98657 6.15341 5.99291 6.27046 6.11334L6.80558 6.64994L7.33742 6.11662C7.4342 6.01804 7.49501 5.93892 7.61424 6.0622L8.00179 6.46022C8.12908 6.58655 8.12254 6.66043 8.00266 6.77802L7.46798 7.31396L8.00266 7.85012C8.12254 7.96772 8.12908 8.04159 8.00179 8.16771L7.61424 8.56573C7.49501 8.68901 7.4342 8.6101 7.33742 8.51153L6.80558 7.97821L6.27046 8.5148C6.15341 8.63502 6.07974 8.64158 5.95375 8.51393L5.55683 8.12531C5.4339 8.00575 5.5128 7.94477 5.61111 7.84772L6.14339 7.31396L5.61111 6.78043Z" fill="white"/>
</svg>