<svg xmlns="http://www.w3.org/2000/svg" width="15" height="12" viewBox="0 0 15 12" fill="none">
  <g clip-path="url(#clip0_638_20318)">
    <path d="M0.460135 0.881857C0.211743 0.881857 -0.000976562 0.680754 -0.000976562 0.435932C-0.000976562 0.201103 0.211743 0 0.460135 0H1.6651C1.67699 0 1.70078 0 1.71267 0C2.13811 0.0112418 2.51598 0.0886853 2.8344 0.278547C3.18849 0.490892 3.44877 0.814406 3.59015 1.29406C3.59015 1.3053 3.59015 1.31654 3.60204 1.32778L3.71963 1.77371H8.21315C7.31603 3.79348 8.11934 6.52649 10.6244 7.26595H5.27736C5.44252 7.84678 5.60767 8.15905 5.83228 8.30395C6.10446 8.47132 6.57614 8.48256 7.36756 8.47132H7.37945H12.7172C12.9775 8.47132 13.177 8.67243 13.177 8.90726C13.177 9.15208 12.9643 9.34194 12.7172 9.34194H7.37945C6.39909 9.35318 5.79661 9.3307 5.31304 9.02967C4.81757 8.71739 4.55729 8.18153 4.29701 7.20974L2.71549 1.55137C2.71549 1.54013 2.71549 1.54013 2.7036 1.52889C2.63225 1.28281 2.51466 1.11544 2.3495 1.02675C2.18435 0.926824 1.95974 0.881857 1.69946 0.881857C1.68756 0.881857 1.67567 0.881857 1.66378 0.881857H0.460135ZM11.3339 9.85656C11.9602 9.85656 12.4675 10.3362 12.4675 10.9283C12.4675 11.5203 11.9602 12 11.3339 12C10.7076 12 10.2003 11.5203 10.2003 10.9283C10.2016 10.3375 10.709 9.85656 11.3339 9.85656ZM6.36342 9.85656C6.98969 9.85656 7.49704 10.3362 7.49704 10.9283C7.49704 11.5203 6.98969 12 6.36342 12C5.73715 12 5.2298 11.5203 5.2298 10.9283C5.2298 10.3375 5.73715 9.85656 6.36342 9.85656Z" fill="#F59E0B"/>
    <path fill-rule="evenodd" clip-rule="evenodd" d="M12.0249 0.659424C13.6672 0.659424 14.999 1.91851 14.999 3.47112C14.999 5.02374 13.6672 6.28282 12.0249 6.28282C8.11408 6.28282 8.11408 0.659424 12.0249 0.659424ZM10.709 3.54607C10.7486 3.32748 11.0129 3.20507 11.2216 3.32373C11.2401 3.33497 11.2586 3.34746 11.2758 3.3612L11.2771 3.36245C11.3709 3.44739 11.4753 3.53608 11.5784 3.62226L11.6682 3.69721L12.7252 2.64922C12.7886 2.58677 12.8349 2.54555 12.93 2.52556C13.2537 2.45811 13.4823 2.83284 13.2537 3.06142L11.9351 4.37172C11.8109 4.49663 11.5889 4.50787 11.4555 4.38795C11.3789 4.32175 11.2956 4.25305 11.2124 4.1831C11.067 4.06319 10.9191 3.94078 10.7975 3.82087C10.7235 3.75342 10.6918 3.63975 10.709 3.54607Z" fill="#F59E0B"/>
  </g>
  <defs>
    <clipPath id="clip0_638_20318">
      <rect width="15" height="12" fill="white" transform="translate(-0.000976562)"/>
    </clipPath>
  </defs>
</svg>