<svg xmlns="http://www.w3.org/2000/svg" width="10" height="10" viewBox="0 0 10 10" fill="none">
  <path fill-rule="evenodd" clip-rule="evenodd" d="M6.30535 0.778752L4.14084 2.12623L6.68054 2.48587L8.76888 1.12862L6.30535 0.778752ZM6.80661 4.77721C8.19089 4.77721 9.31291 5.94643 9.31291 7.3887C9.31291 8.83078 8.19089 10 6.80661 10C5.42232 10 4.3003 8.83078 4.3003 7.3887C4.3003 5.94643 5.42232 4.77721 6.80661 4.77721ZM6.16127 7.02027L6.53478 7.38499L7.39266 6.4769C7.47633 6.38835 7.52923 6.31701 7.6326 6.42784L7.96802 6.78611C8.07833 6.89967 8.0727 6.96632 7.96878 7.07187L6.72632 8.34253C6.50758 8.56652 6.54547 8.58001 6.32336 8.35054L5.59642 7.59764C5.55008 7.54526 5.55533 7.49268 5.60598 7.44011L5.99525 7.01948C6.05434 6.95498 6.10105 6.96046 6.16127 7.02027ZM3.84256 2.46535L3.84088 5.23516L2.87568 4.55028L1.91031 5.11847L2.02474 2.20793L0.363752 1.9728V8.09019L3.72081 8.54248C3.76809 8.68106 3.82343 8.81573 3.88684 8.94551L0.174466 8.44534C0.0774779 8.44123 0 8.35777 0 8.25594V1.75643C0.00506514 1.67727 0.035456 1.62176 0.107306 1.58423L3.42328 0.0166668C3.45292 0.00259388 3.48932 -0.00307436 3.52177 0.0016166L9.30316 0.823316C9.39864 0.834848 9.46412 0.916549 9.46412 1.01858L9.47368 5.49043C9.36638 5.32507 9.18159 5.09385 9.0998 4.94764V1.35965L6.92723 2.8242V3.99323C6.80595 3.98856 6.68451 3.99091 6.56348 4.00027V2.85059L3.84256 2.46535ZM2.31327 1.86764L4.41755 0.51039L3.52496 0.383539L0.829932 1.65752L2.31327 1.86764Z" fill="#32C770"/>
  <path fill-rule="evenodd" clip-rule="evenodd" d="M6.30535 0.778752L4.14084 2.12623L6.68054 2.48587L8.76888 1.12862L6.30535 0.778752ZM3.84256 2.46535L3.84088 5.23516L2.87568 4.55028L1.91031 5.11847L2.02474 2.20793L0.363752 1.9728V8.09019L3.72081 8.54248C3.76809 8.68106 3.82343 8.81573 3.88684 8.94551L0.174466 8.44534C0.0774779 8.44123 0 8.35777 0 8.25594V1.75643C0.00506514 1.67727 0.035456 1.62176 0.107306 1.58423L3.42328 0.0166668C3.45292 0.00259388 3.48932 -0.00307436 3.52177 0.0016166L9.30316 0.823316C9.39864 0.834848 9.46412 0.916549 9.46412 1.01858L9.47368 5.49043C9.36638 5.32507 9.18159 5.09385 9.0998 4.94764V1.35965L6.92723 2.8242V3.99323C6.80595 3.98856 6.68451 3.99091 6.56348 4.00027V2.85059L3.84256 2.46535ZM2.31327 1.86764L4.41755 0.51039L3.52496 0.383539L0.829932 1.65752L2.31327 1.86764Z" fill="#222222"/>
</svg>