<svg xmlns="http://www.w3.org/2000/svg" width="12" height="10" viewBox="0 0 12 10" fill="none">
  <path fill-rule="evenodd" clip-rule="evenodd" d="M7.64489 2.25392H9.44552C9.98454 2.25392 9.85857 2.19016 10.1613 2.6336L11.6778 4.85275C11.9951 5.31744 12 5.21697 12 5.77441V7.60904C12 8.2032 11.5088 8.69011 10.9073 8.69011H10.6847C10.7042 8.59447 10.714 8.49496 10.714 8.39352C10.714 7.54625 10.0197 6.85838 9.16234 6.85838C8.30596 6.85838 7.61071 7.54528 7.61071 8.39352C7.61071 8.49496 7.62047 8.5935 7.64 8.69011H5.67727C5.69583 8.59447 5.70657 8.49496 5.70657 8.39352C5.70657 7.54625 5.01229 6.85838 4.15493 6.85838C3.29856 6.85838 2.6033 7.54528 2.6033 8.39352C2.6033 8.49496 2.61307 8.5935 2.6326 8.69011H2.37383C1.82114 8.69011 1.36903 8.24281 1.36903 7.69599V6.09129H7.64489V2.25392ZM9.16136 7.18686C9.83416 7.18686 10.38 7.72691 10.38 8.39352C10.38 9.05917 9.83416 9.59922 9.16136 9.59922C8.48759 9.59922 7.94174 9.05917 7.94174 8.39352C7.94174 7.72691 8.48759 7.18686 9.16136 7.18686ZM4.15396 7.18686C4.82773 7.18686 5.37359 7.72691 5.37359 8.39352C5.37359 9.05917 4.82773 9.59922 4.15396 9.59922C3.48116 9.59922 2.93531 9.05917 2.93531 8.39352C2.93531 7.72691 3.48116 7.18686 4.15396 7.18686ZM4.15396 8.03606C4.35316 8.03606 4.51526 8.19547 4.51526 8.39352C4.51526 8.59061 4.35414 8.75001 4.15396 8.75001C3.95476 8.75001 3.79364 8.58964 3.79364 8.39352C3.79364 8.19547 3.95573 8.03606 4.15396 8.03606ZM9.16136 8.02737C9.36545 8.02737 9.53145 8.1916 9.53145 8.39352C9.53145 8.59544 9.36545 8.75967 9.16136 8.75967C8.95728 8.75967 8.79128 8.59544 8.79128 8.39352C8.79128 8.19064 8.95728 8.02737 9.16136 8.02737ZM8.69168 3.12535H9.03833L10.5187 5.16576V5.75895C10.5187 5.9029 10.3995 6.02077 10.254 6.02077H8.69168C8.54227 6.02077 8.42119 5.9 8.42119 5.75316V3.39393C8.42021 3.24611 8.54227 3.12535 8.69168 3.12535ZM0.54683 0H6.82171C7.12247 0 7.36854 0.243458 7.36854 0.541019V5.2672C7.36854 5.56476 7.12247 5.80822 6.82171 5.80822H0.54683C0.246074 5.80822 0 5.56476 0 5.2672V0.541019C0 0.243458 0.246074 0 0.54683 0Z" fill="#472DC5"/>
  <path d="M3 2L6 2" stroke="white" stroke-width="0.2" stroke-linecap="round"/>
  <path d="M2 3L5 3" stroke="white" stroke-width="0.2" stroke-linecap="round"/>
  <path d="M1 4L4 4" stroke="white" stroke-width="0.2" stroke-linecap="round"/>
</svg>