<svg xmlns="http://www.w3.org/2000/svg" width="9" height="10" viewBox="0 0 9 10" fill="none">
<path d="M4.36373 6.29819L1.34309 4.64938L0.563092 5.61539C1.65838 6.21599 2.6676 6.78323 3.75976 7.38383L4.36373 6.30226V6.29819ZM5.35496 0V1.74484H6.13731C6.19104 1.74171 6.24467 1.75249 6.29341 1.7762C6.34215 1.79992 6.38448 1.83584 6.41661 1.88075C6.56212 2.10862 6.36262 2.33405 6.22493 2.49193C5.83376 2.94035 4.94501 3.94054 4.75099 4.17655C4.72104 4.21601 4.68288 4.2479 4.63939 4.26982C4.59589 4.29175 4.54819 4.30313 4.49986 4.30313C4.45153 4.30313 4.40382 4.29175 4.36033 4.26982C4.31683 4.2479 4.27868 4.21601 4.24873 4.17655C4.04844 3.9324 3.11041 2.88582 2.73723 2.4488C2.60814 2.29743 2.44776 2.09072 2.58076 1.87912C2.61281 1.83433 2.65501 1.79849 2.70361 1.77477C2.7522 1.75106 2.80568 1.74022 2.85928 1.74321H3.64162V0H5.35496ZM2.77322 3.77126L1.54807 4.40442L4.55932 6.05079L7.57604 4.40117L6.28204 3.70128L6.49328 3.45713L7.6668 4.08703L8.51721 3.2553L7.22712 2.52286C7.27671 2.42075 7.3095 2.31071 7.32413 2.19733L8.93811 3.0844C8.94867 3.09028 8.95819 3.09798 8.96627 3.10718C8.97696 3.11829 8.98545 3.13149 8.99123 3.14601C8.99702 3.16053 9 3.1761 9 3.19182C9 3.20754 8.99702 3.22311 8.99123 3.23763C8.98545 3.25215 8.97696 3.26535 8.96627 3.27646L7.92966 4.33443L8.93341 5.58447C8.9531 5.60902 8.96266 5.64067 8.96002 5.67253C8.95739 5.70438 8.94276 5.73386 8.91933 5.75456C8.91187 5.76028 8.90403 5.76545 8.89586 5.77002L7.99225 6.26645V8.12848C7.99221 8.15228 7.98544 8.17555 7.97278 8.19537C7.96012 8.2152 7.94213 8.23071 7.92106 8.23998L4.6618 9.9604C4.64917 9.97491 4.63333 9.986 4.61565 9.99271C4.59797 9.99942 4.57898 10.0015 4.56033 9.9989C4.54169 9.99625 4.52394 9.98892 4.50863 9.97753C4.49332 9.96614 4.48091 9.95105 4.47248 9.93355L1.20696 8.23591C1.18789 8.22584 1.17188 8.21047 1.16069 8.19151C1.14951 8.17254 1.14359 8.15073 1.14359 8.12848V6.27947L0.224336 5.77816C0.216169 5.77359 0.208325 5.76842 0.200865 5.76269C0.177436 5.742 0.162811 5.71252 0.160174 5.68066C0.157537 5.64881 0.1671 5.61716 0.186783 5.5926L1.16472 4.37187L0.0295316 3.2553C0.0192401 3.24328 0.011351 3.22926 0.00632434 3.21404C0.00129766 3.19881 -0.000766103 3.18271 0.000253358 3.16665C0.00127282 3.15059 0.00535511 3.1349 0.0122623 3.1205C0.0191694 3.1061 0.0287632 3.09327 0.0404844 3.08277C0.047554 3.07687 0.0551516 3.07169 0.0631724 3.06731L1.70141 2.10292C1.70902 2.22065 1.733 2.3366 1.7726 2.44717L0.446522 3.2317L1.37204 4.12691L2.5526 3.51898L2.77557 3.77208L2.77322 3.77126ZM7.79275 4.66159L4.77759 6.30714L5.36513 7.39116L8.53755 5.60074L7.79275 4.66159Z" fill="#F59E0B"/>
</svg>