<svg xmlns="http://www.w3.org/2000/svg" width="26" height="25" viewBox="0 0 26 25" fill="none">
  <path d="M16.1257 7.63888C16.703 7.63888 17.1674 8.1033 17.1674 8.68058C17.1674 9.25785 16.703 9.72228 16.1257 9.72228H9.8755C9.29822 9.72228 8.8338 9.25785 8.8338 8.68058C8.8338 8.1033 9.29822 7.63888 9.8755 7.63888H16.1257ZM16.1257 15.278C16.703 15.278 17.1674 15.7424 17.1674 16.3197C17.1674 16.897 16.703 17.3614 16.1257 17.3614H9.8755C9.29822 17.3614 8.8338 16.897 8.8338 16.3197C8.8338 15.7424 9.29822 15.278 9.8755 15.278H16.1257ZM8.8338 12.5001C8.8338 11.9229 9.29822 11.4584 9.8755 11.4584H16.1257C16.703 11.4584 17.1674 11.9229 17.1674 12.5001C17.1674 13.0774 16.703 13.5418 16.1257 13.5418H9.8755C9.29822 13.5418 8.8338 13.0774 8.8338 12.5001ZM8.13933 3.14177L9.89286 1.63946C10.2835 1.30508 10.8564 1.30508 11.2471 1.63946L13.0006 3.14177L14.7541 1.63946C15.1448 1.30508 15.7177 1.30508 16.1083 1.63946L17.8619 3.14177L19.6154 1.63946C19.9236 1.37472 20.3576 1.31402 20.7265 1.48399C21.0955 1.654 21.3342 2.02368 21.3342 2.43037V22.5699C21.3342 22.9779 21.0955 23.3469 20.7265 23.5161C20.3576 23.6854 19.9236 23.6246 19.6154 23.3599L17.8619 21.8581L16.1083 23.3599C15.7177 23.6941 15.1448 23.6941 14.7541 23.3599L13.0006 21.8581L11.2471 23.3599C10.8564 23.6941 10.2835 23.6941 9.89286 23.3599L8.13933 21.8581L6.38667 23.3599C6.07763 23.6246 5.64315 23.6854 5.27335 23.5161C4.90381 23.3469 4.66699 22.9779 4.66699 22.5699V2.43037C4.66699 2.02368 4.90381 1.65396 5.27335 1.48399C5.64315 1.31402 6.07763 1.37472 6.38667 1.63946L8.13933 3.14177ZM7.46135 19.6966C7.85156 19.3623 8.4271 19.3623 8.8173 19.6966L10.57 21.1983L12.3235 19.6966C12.7141 19.3623 13.2871 19.3623 13.6777 19.6966L15.4312 21.1983L17.1848 19.6966C17.5754 19.3623 18.1483 19.3623 18.539 19.6966L19.2508 20.3042V4.6952L18.539 5.3046C18.1483 5.63925 17.5754 5.63925 17.1848 5.3046L15.4312 3.80238L13.6777 5.3046C13.2871 5.63925 12.7141 5.63925 12.3235 5.3046L10.57 3.80238L8.8173 5.3046C8.4271 5.63925 7.85156 5.63925 7.46135 5.3046L6.75039 4.6952V20.3042L7.46135 19.6966Z" fill="#222222"/>
</svg>