<svg xmlns="http://www.w3.org/2000/svg" width="21" height="25" viewBox="0 0 21 25" fill="none">
<path d="M11.9587 6.25021C12.536 6.25021 13.0004 6.71463 13.0004 7.29191C13.0004 7.86918 12.536 8.33361 11.9587 8.33361H5.7085C5.13123 8.33361 4.6668 7.86918 4.6668 7.29191C4.6668 6.71463 5.13123 6.25021 5.7085 6.25021H11.9587ZM11.9587 13.8893C12.536 13.8893 13.0004 14.3538 13.0004 14.931C13.0004 15.5083 12.536 15.9727 11.9587 15.9727H5.7085C5.13123 15.9727 4.6668 15.5083 4.6668 14.931C4.6668 14.3538 5.13123 13.8893 5.7085 13.8893H11.9587ZM4.6668 11.1115C4.6668 10.5342 5.13123 10.0698 5.7085 10.0698H11.9587C12.536 10.0698 13.0004 10.5342 13.0004 11.1115C13.0004 11.6888 12.536 12.1532 11.9587 12.1532H5.7085C5.13123 12.1532 4.6668 11.6888 4.6668 11.1115ZM3.97234 1.7531L5.72587 0.250789C6.1165 -0.0835965 6.68944 -0.0835965 7.08008 0.250789L8.83361 1.7531L10.5871 0.250789C10.9778 -0.0835965 11.5507 -0.0835965 11.9413 0.250789L13.6949 1.7531L15.4484 0.250789C15.7566 -0.0139501 16.1906 -0.0746552 16.5596 0.0953156C16.9285 0.26533 17.1672 0.635004 17.1672 1.0417V21.1812C17.1672 21.5892 16.9285 21.9582 16.5596 22.1275C16.1906 22.2967 15.7566 22.236 15.4484 21.9712L13.6949 20.4694L11.9413 21.9712C11.5507 22.3054 10.9778 22.3054 10.5871 21.9712L8.83361 20.4694L7.08008 21.9712C6.68944 22.3054 6.1165 22.3054 5.72587 21.9712L3.97234 20.4694L2.21967 21.9712C1.91064 22.236 1.47616 22.2967 1.10636 22.1275C0.736813 21.9582 0.5 21.5892 0.5 21.1812V1.0417C0.5 0.635004 0.736813 0.265286 1.10636 0.0953156C1.47616 -0.0746552 1.91064 -0.0139501 2.21967 0.250789L3.97234 1.7531ZM3.29436 18.3079C3.68457 17.9737 4.26011 17.9737 4.65031 18.3079L6.40297 19.8097L8.1565 18.3079C8.54714 17.9737 9.12008 17.9737 9.51071 18.3079L11.2642 19.8097L13.0178 18.3079C13.4084 17.9737 13.9813 17.9737 14.372 18.3079L15.0838 18.9155V3.30653L14.372 3.91593C13.9813 4.25057 13.4084 4.25057 13.0178 3.91593L11.2642 2.41371L9.51071 3.91593C9.12008 4.25057 8.54714 4.25057 8.1565 3.91593L6.40297 2.41371L4.65031 3.91593C4.26011 4.25057 3.68457 4.25057 3.29436 3.91593L2.5834 3.30653V18.9155L3.29436 18.3079Z" fill="#222222"/>
<circle cx="15.5" cy="20" r="5" fill="white"/>
<path d="M13.5 19.1015L15.66 21.04L19.98 16" stroke="#222222" stroke-width="2" stroke-linecap="round"/>
</svg>