<svg xmlns="http://www.w3.org/2000/svg" width="14" height="14" viewBox="0 0 14 14" fill="none">
  <path d="M9.53924 12.4941C9.56196 12.4834 9.58497 12.4744 9.60853 12.4672C9.63043 12.4511 9.65371 12.4369 9.67838 12.424C9.94504 12.2889 10.1998 12.1344 10.4409 11.9585C10.5731 11.8619 10.7464 11.8362 10.9011 11.8926C11.2658 12.0228 11.3354 12.5066 11.0247 12.7337C10.7402 12.9406 10.4392 13.1245 10.1247 13.2835C10.095 13.2985 10.0645 13.31 10.034 13.3185C10.0138 13.333 9.99188 13.3458 9.96915 13.357L9.96278 13.36L9.96333 13.3609C8.34788 14.1306 6.56916 14.1812 4.99889 13.641C3.42861 13.1005 2.06734 11.9691 1.28733 10.3753C0.507321 8.78115 0.456041 7.02591 1.00349 5.47636C1.55094 3.92681 2.69767 2.58351 4.31284 1.81352C4.87748 1.54464 5.46234 1.36329 6.05165 1.26427C6.54837 1.18084 7.04814 1.15595 7.54098 1.18659L7.26435 0.929195C7.04509 0.725689 7.03456 0.385417 7.24079 0.169328C7.44701 -0.0470339 7.79184 -0.057428 8.01082 0.146078L9.1168 1.17483C9.15976 1.21476 9.19441 1.25962 9.2213 1.30776C9.37625 1.52412 9.34853 1.82583 9.14618 2.01046L8.03077 3.02936C7.81041 3.2304 7.4667 3.21727 7.26268 2.99982C7.05895 2.78236 7.07226 2.44318 7.29262 2.24214L7.39934 2.14449C7.00573 2.12589 6.60769 2.14859 6.21214 2.21506C5.71292 2.29876 5.21676 2.45276 4.73722 2.68116C3.3643 3.33544 2.38999 4.47688 1.92486 5.79311C1.45946 7.10961 1.50354 8.60144 2.16657 9.95651C2.82961 11.3113 3.98632 12.2728 5.32015 12.7317C6.05802 12.9859 6.8505 13.086 7.64382 13.014C7.66212 13.0099 7.68063 13.0067 7.69926 13.0045C7.79045 12.9949 7.88109 12.9826 7.97173 12.9689C7.99474 12.9656 8.01802 12.9637 8.04075 12.9634C8.54829 12.8803 9.05221 12.7252 9.53896 12.4932L9.53924 12.4941ZM6.09627 4.98483C6.09627 4.71048 6.32163 4.4881 6.59965 4.4881C6.87767 4.4881 7.10302 4.71048 7.10302 4.98483V8.00788L9.19968 8.91737C9.45386 9.02788 9.56917 9.32055 9.45746 9.57111C9.34548 9.82193 9.04889 9.93572 8.79471 9.82522L6.42253 8.79647C6.2321 8.72563 6.09627 8.54427 6.09627 8.33119V4.98483ZM11.6897 10.6923C11.5777 10.8542 11.573 11.0564 11.6764 11.2235C11.864 11.5167 12.2923 11.5285 12.4935 11.2435C12.6964 10.9522 12.8699 10.6589 13.024 10.3397C13.1948 9.98195 12.8819 9.58424 12.4877 9.65946C12.3333 9.69091 12.2075 9.78583 12.1395 9.9267C12.009 10.1972 11.8615 10.4456 11.6897 10.6923ZM12.6274 8.23108C12.5817 8.66162 13.0839 8.92968 13.4246 8.6567C13.5249 8.57382 13.5854 8.46495 13.6003 8.33639C13.6394 7.9901 13.6491 7.64163 13.6305 7.29397C13.6095 6.89543 13.1319 6.6933 12.8245 6.95233C12.7081 7.04998 12.6454 7.19495 12.6534 7.34539C12.6687 7.64163 12.6609 7.93622 12.6274 8.23108ZM12.2779 5.61504C12.4375 6.01549 13.0096 6.02534 13.1829 5.62981C13.2336 5.51247 13.2364 5.38199 13.189 5.26301C13.0614 4.93867 12.9071 4.62516 12.7277 4.32562C12.5598 4.04799 12.1761 4.00641 11.9497 4.24055C11.8 4.40002 11.7748 4.62842 11.8851 4.81661C12.0375 5.07263 12.1689 5.33823 12.2779 5.61504ZM10.7381 3.46099C11.0768 3.74491 11.589 3.47932 11.5439 3.04222C11.5297 2.91858 11.4718 2.81108 11.377 2.7293C11.1084 2.50145 10.8251 2.29685 10.523 2.1144C10.1648 1.89886 9.71497 2.20002 9.78566 2.6084C9.81143 2.74708 9.89016 2.86469 10.0127 2.93855C10.2702 3.09473 10.5088 3.26624 10.7381 3.46099Z" fill="#222222"/>
</svg>