<svg xmlns="http://www.w3.org/2000/svg" xmlns:xlink="http://www.w3.org/1999/xlink" width="78" height="78" viewBox="0 0 78 78">
  <defs>
    <filter id="Rectangle_8" x="0" y="0" width="78" height="78" filterUnits="userSpaceOnUse">
      <feOffset dy="3" input="SourceAlpha"/>
      <feGaussianBlur stdDeviation="3" result="blur"/>
      <feFlood flood-color="#472dc5" flood-opacity="0.71"/>
      <feComposite operator="in" in2="blur"/>
      <feComposite in="SourceGraphic"/>
    </filter>
  </defs>
  <g id="Component_2_121" data-name="Component 2 – 121" transform="translate(9 6)">
    <g transform="matrix(1, 0, 0, 1, -9, -6)" filter="url(#Rectangle_8)">
      <rect id="Rectangle_8-2" data-name="Rectangle 8" width="60" height="60" rx="5" transform="translate(9 6)" fill="#fff"/>
    </g>
    <g id="insert" transform="translate(8.5 8.5)">
      <g id="Group_22" data-name="Group 22" transform="translate(-0.5 -0.5)">
        <path id="Path_30" data-name="Path 30" d="M-.5-.5H14.524V3.817H3.817V14.524H-.5Z" transform="translate(0.5 0.5)" fill="#664beb" stroke="#fff" stroke-width="1" fill-rule="evenodd" opacity="0.989"/>
      </g>
      <g id="Group_23" data-name="Group 23" transform="translate(28.685 -0.5)">
        <path id="Path_31" data-name="Path 31" d="M337.5-.5h15.024V14.524h-4.317V3.817H337.5Z" transform="translate(-337.5 0.5)" fill="#664beb" stroke="#fff" stroke-width="1" fill-rule="evenodd" opacity="0.989"/>
      </g>
      <g id="Group_24" data-name="Group 24" transform="translate(11.588 11.588)">
        <path id="Path_32" data-name="Path 32" d="M147.358,139.5h4.317v7.858h7.857v4.317h-7.857v7.857h-4.317v-7.857H139.5v-4.317h7.858Z" transform="translate(-139.5 -139.5)" fill="#664beb" stroke="#fff" stroke-width="1" fill-rule="evenodd" opacity="0.989"/>
      </g>
      <g id="Group_25" data-name="Group 25" transform="translate(-0.5 28.685)">
        <path id="Path_33" data-name="Path 33" d="M-.5,337.5H3.817v10.707H14.524v4.317H-.5Z" transform="translate(0.5 -337.5)" fill="#664beb" stroke="#fff" stroke-width="1" fill-rule="evenodd" opacity="0.989"/>
      </g>
      <g id="Group_26" data-name="Group 26" transform="translate(28.685 28.685)">
        <path id="Path_34" data-name="Path 34" d="M352.524,337.5v15.024H337.5v-4.317h10.707V337.5Z" transform="translate(-337.5 -337.5)" fill="#664beb" stroke="#fff" stroke-width="1" fill-rule="evenodd" opacity="0.989"/>
      </g>
    </g>
  </g>
</svg>
