<svg xmlns="http://www.w3.org/2000/svg" width="18.609" height="33.928" viewBox="0 0 18.609 33.928">
  <path id="Path_532" data-name="Path 532" d="M120.813,7.442q7.933-.017,15.866.034A1.951,1.951,0,0,1,137.944,8.6q.17,15.689.068,31.39a1.951,1.951,0,0,1-1.128,1.265q-8.03.17-16.071.068a1.951,1.951,0,0,1-1.265-1.128q-.17-15.689-.068-31.39A2.1,2.1,0,0,1,120.813,7.442Zm.547,1.094q2.087-.034,4.172.068.272.918.513,1.846a.32.32,0,0,0,.239.239q2.462.068,4.924,0a.32.32,0,0,0,.239-.239q.249-.945.513-1.881,2.086-.068,4.172,0a.856.856,0,0,1,.718.513q.17,15.178.068,30.364a.856.856,0,0,1-.513.718q-7.518.17-15.045.068a.856.856,0,0,1-.718-.513q-.17-15.178-.068-30.364A.982.982,0,0,1,121.36,8.536Zm5.4,0h3.966a7.238,7.238,0,0,1-.274,1.06q-1.71.068-3.419,0A7.237,7.237,0,0,1,126.762,8.536Z" transform="translate(-119.441 -7.438)" fill-rule="evenodd"/>
</svg>
