<svg xmlns="http://www.w3.org/2000/svg" width="51.692" height="52.816" viewBox="0 0 51.692 52.816">
  <g id="Group_1435" data-name="Group 1435" transform="translate(21568.6 3808.642)">
    <g id="Path_535" data-name="Path 535" transform="translate(-21568.6 -3808.642)" fill="#fff">
      <path d="M10.114,0H41.578A10.114,10.114,0,0,1,51.692,10.114V42.7A10.114,10.114,0,0,1,41.578,52.816H10.114A10.114,10.114,0,0,1,0,42.7V10.114A10.114,10.114,0,0,1,10.114,0Z" stroke="none"/>
      <path d="M 10.11368942260742 1 C 5.08837890625 1 1 5.08837890625 1 10.11368942260742 L 1 42.70222854614258 C 1 47.7275390625 5.08837890625 51.81591796875 10.11368942260742 51.81591796875 L 41.57848739624023 51.81591796875 C 46.60379791259766 51.81591796875 50.69217681884766 47.7275390625 50.69217681884766 42.70222854614258 L 50.69217681884766 10.11368942260742 C 50.69217681884766 5.08837890625 46.60379791259766 1 41.57848739624023 1 L 10.11368942260742 1 M 10.11368942260742 0 L 41.57848739624023 0 C 47.16411972045898 0 51.69217681884766 4.528049468994141 51.69217681884766 10.11368942260742 L 51.69217681884766 42.70222854614258 C 51.69217681884766 48.28785705566406 47.16411972045898 52.81591796875 41.57848739624023 52.81591796875 L 10.11368942260742 52.81591796875 C 4.528049468994141 52.81591796875 0 48.28785705566406 0 42.70222854614258 L 0 10.11368942260742 C 0 4.528049468994141 4.528049468994141 0 10.11368942260742 0 Z" stroke="none" fill="rgba(0,0,0,0.16)"/>
    </g>
    <g id="diskette" transform="translate(-21562.625 -3801.693)">
      <path id="Path_529" data-name="Path 529" d="M18.646,15.443q13.909-.021,27.818.041l.331.166,8.238,8.238.166.331q.083,13.909,0,27.818a4.064,4.064,0,0,1-3.1,3.1q-16.724.083-33.447,0a4.064,4.064,0,0,1-3.1-3.1q-.083-16.724,0-33.447A4.2,4.2,0,0,1,18.646,15.443Zm.828,2.649h7.948q-.021,4.305.041,8.61a2.514,2.514,0,0,0,1.946,1.946q5.961.083,11.922,0A2.514,2.514,0,0,0,43.276,26.7q.062-4.3.041-8.61,1.036-.021,2.07.041l7.161,7.161q.083,12.957,0,25.913a1.287,1.287,0,0,1-.869,1.2,21.158,21.158,0,0,1-3.063.124q.021-5.05-.041-10.1a4.064,4.064,0,0,0-3.1-3.1q-10.1-.083-20.2,0a4.064,4.064,0,0,0-3.1,3.1q-.062,5.05-.041,10.1a21.158,21.158,0,0,1-3.063-.124,1.287,1.287,0,0,1-.869-1.2q-.083-15.9,0-31.792A1.432,1.432,0,0,1,19.474,18.092Zm10.6,0h10.6V26.04h-10.6ZM26.1,41.936q9.273-.021,18.545.041a1.348,1.348,0,0,1,1.283,1.283q.062,4.636.041,9.273H24.773q-.021-4.636.041-9.273A1.432,1.432,0,0,1,26.1,41.936Z" transform="translate(-15.5 -15.437)" fill="#664beb" fill-rule="evenodd"/>
    </g>
  </g>
</svg>
