<svg id="Component_4_121" data-name="Component 4 – 121" xmlns="http://www.w3.org/2000/svg" width="60" height="60" viewBox="0 0 60 60">
  <g id="Rectangle_10" data-name="Rectangle 10" fill="#fff" stroke="rgba(112,112,112,0.07)" stroke-width="1">
    <rect width="60" height="60" rx="5" stroke="none"/>
    <rect x="0.5" y="0.5" width="59" height="59" rx="4.5" fill="none"/>
  </g>
  <g id="paint-palette" transform="translate(8.783 6.931) rotate(4)">
    <g id="Group_14" data-name="Group 14" transform="translate(0.896 -0.5)">
      <path id="Path_22" data-name="Path 22" d="M20.557-.5H23.3Q26.8.516,25.737,4.038a9.729,9.729,0,0,1-.856,1.284,4.355,4.355,0,0,0-.514,3.768A64.486,64.486,0,0,1,38.967,2.2a8.36,8.36,0,0,1,4.025-.343,1.722,1.722,0,0,1,1.242,2.269,8.739,8.739,0,0,1-1.8,2.74A51.647,51.647,0,0,1,35.628,12.3a10.539,10.539,0,0,1,8.691,9.119,19.4,19.4,0,0,1-6.037,16.141,21.9,21.9,0,0,1-13.358,5.78H20.985a22.3,22.3,0,0,1-17.6-11.731,22.25,22.25,0,0,1-.257-19.951A22.392,22.392,0,0,1,20.557-.5Zm.086,1.8q1.2-.021,2.4.043a1.327,1.327,0,0,1,1.07,1.841,21.424,21.424,0,0,0-1.284,2.226,6.342,6.342,0,0,0-.043,4.667,56.4,56.4,0,0,0-7.792,5.994,9.682,9.682,0,0,0-2.055-.086,4.118,4.118,0,0,0-2.055.856,21.143,21.143,0,0,0-3.3,4.838,12.661,12.661,0,0,0-.9,2.012,1.172,1.172,0,0,0,1.541.942,27.774,27.774,0,0,0,6.508-.257,3.879,3.879,0,0,0,3-3.211A44.541,44.541,0,0,0,25.266,18.3a87.812,87.812,0,0,0,7.878-4.367,8.988,8.988,0,0,1,8.092,4.153,11.832,11.832,0,0,1,1.284,7.792,18.423,18.423,0,0,1-8.948,12.887,21.221,21.221,0,0,1-16.184,2.055Q5.682,37.03,3.046,25.017,1.226,13.006,10.624,5.366A20.387,20.387,0,0,1,20.643,1.3ZM41.193,3.525h1.284a5.074,5.074,0,0,1-.557,1.113A34.619,34.619,0,0,1,36.655,9.39a84.526,84.526,0,0,1-10.918,6.636A12.823,12.823,0,0,0,23.425,12a.143.143,0,0,1,.043-.214A76.785,76.785,0,0,1,37.426,4.595,31.066,31.066,0,0,1,41.193,3.525Zm-25.26,3a1.718,1.718,0,1,1-.685.214Q15.609,6.635,15.933,6.522Zm5.737,6.422a.922.922,0,0,1,.471.343A13.121,13.121,0,0,1,24.068,16.8a50.063,50.063,0,0,1-6.294,2.569,4.442,4.442,0,0,0-1.2-2.141.107.107,0,0,1,0-.171A62.826,62.826,0,0,1,21.67,12.944Zm-8.477,4.8a2.621,2.621,0,0,1,2.783,1.884,2.458,2.458,0,0,1-1.841,3.04,23.91,23.91,0,0,1-5.052.128,30.127,30.127,0,0,1,2.526-4.11A3.039,3.039,0,0,1,13.193,17.739Zm23.89,6.679q2.351.1,1.841,2.4-1.353,1.775-2.911.171A1.735,1.735,0,0,1,37.083,24.418ZM11.395,29.556q2.351.1,1.841,2.4-1.353,1.775-2.911.171A1.735,1.735,0,0,1,11.395,29.556Zm18.838,3.425q2.351.1,1.841,2.4-1.353,1.775-2.911.171A1.735,1.735,0,0,1,30.233,32.981ZM19.958,34.693q2.351.1,1.841,2.4-1.353,1.775-2.911.171A1.735,1.735,0,0,1,19.958,34.693Z" transform="translate(-0.896 0.5)" fill="rgba(0,0,0,0.7)" fill-rule="evenodd" opacity="0.945"/>
    </g>
    <g id="Group_15" data-name="Group 15" transform="translate(12.588 4.723)">
      <path id="Path_23" data-name="Path 23" d="M140.691,60.5q3.864.4,3.554,4.281a3.48,3.48,0,0,1-4.153,2.612q-3.425-1.242-2.44-4.752A3.65,3.65,0,0,1,140.691,60.5Zm.086,1.8q-.324.114-.685.214a1.639,1.639,0,1,0,.685-.214Z" transform="translate(-137.431 -60.5)" fill="rgba(0,0,0,0.7)" fill-rule="evenodd" opacity="0.942"/>
    </g>
    <g id="Group_16" data-name="Group 16" transform="translate(28.787 18.827)">
      <path id="Path_24" data-name="Path 24" d="M327.116,225.231q1.4-.2,1.242,1.2a.923.923,0,1,1-1.242-1.2Z" transform="translate(-326.612 -225.206)" fill="rgba(0,0,0,0.7)" fill-rule="evenodd" opacity="0.895"/>
    </g>
    <g id="Group_17" data-name="Group 17" transform="translate(33.988 22.619)">
      <path id="Path_25" data-name="Path 25" d="M390.362,269.487a3.555,3.555,0,0,1,3.81,2.74,3.47,3.47,0,1,1-3.81-2.74Zm.086,1.8a1.735,1.735,0,0,0-1.07,2.569q1.558,1.6,2.911-.171Q392.8,271.389,390.448,271.286Z" transform="translate(-387.353 -269.486)" fill="rgba(0,0,0,0.7)" fill-rule="evenodd" opacity="0.943"/>
    </g>
    <g id="Group_18" data-name="Group 18" transform="translate(16.899 23.305)">
      <path id="Path_26" data-name="Path 26" d="M200.518,277.5a.959.959,0,0,1,1.028,1.028,6.281,6.281,0,0,1-2.312,3.725,9.337,9.337,0,0,1-9.676.514,5.817,5.817,0,0,1-1.755-1.584q-.171-1.413,1.242-1.156a6.983,6.983,0,0,0,7.193,1.713,5.462,5.462,0,0,0,3.125-2.355q.277-.721.514-1.456A.966.966,0,0,1,200.518,277.5Z" transform="translate(-187.784 -277.5)" fill="rgba(0,0,0,0.7)" fill-rule="evenodd" opacity="0.939"/>
    </g>
    <g id="Group_19" data-name="Group 19" transform="translate(8.299 27.756)">
      <path id="Path_27" data-name="Path 27" d="M90.362,329.487a3.555,3.555,0,0,1,3.81,2.74,3.47,3.47,0,1,1-3.81-2.74Zm.086,1.8a1.735,1.735,0,0,0-1.07,2.569q1.558,1.6,2.911-.171Q92.8,331.389,90.448,331.286Z" transform="translate(-87.353 -329.486)" fill="rgba(0,0,0,0.7)" fill-rule="evenodd" opacity="0.943"/>
    </g>
    <g id="Group_20" data-name="Group 20" transform="translate(27.138 31.181)">
      <path id="Path_28" data-name="Path 28" d="M310.362,369.488a3.555,3.555,0,0,1,3.81,2.74,3.47,3.47,0,1,1-3.81-2.74Zm.086,1.8a1.735,1.735,0,0,0-1.07,2.569q1.558,1.6,2.911-.171Q312.8,371.389,310.448,371.286Z" transform="translate(-307.352 -369.486)" fill="rgba(0,0,0,0.7)" fill-rule="evenodd" opacity="0.943"/>
    </g>
    <g id="Group_21" data-name="Group 21" transform="translate(16.862 32.894)">
      <path id="Path_29" data-name="Path 29" d="M190.362,389.487a3.555,3.555,0,0,1,3.811,2.74,3.47,3.47,0,1,1-3.811-2.74Zm.086,1.8a1.735,1.735,0,0,0-1.07,2.569q1.558,1.6,2.911-.171Q192.8,391.389,190.448,391.286Z" transform="translate(-187.352 -389.486)" fill="rgba(0,0,0,0.7)" fill-rule="evenodd" opacity="0.943"/>
    </g>
  </g>
</svg>
