<svg id="Group_1433" data-name="Group 1433" xmlns="http://www.w3.org/2000/svg" width="40.775" height="34.198" viewBox="0 0 40.775 34.198">
  <g id="monitor_1_" data-name="monitor (1)">
    <g id="Group_1429" data-name="Group 1429">
      <path id="Path_530" data-name="Path 530" d="M9.091,47.443q18.739-.021,37.478.041a2.355,2.355,0,0,1,1.6,1.6q.122,12.952-.082,25.889a2.345,2.345,0,0,1-1.52,1.356L32.6,76.414q.244.954.411,1.931a21.649,21.649,0,0,1,3.205.123.777.777,0,0,1,.123.205,21.05,21.05,0,0,1,0,2.63.777.777,0,0,1-.123.205q-4.181.143-8.383.123-4.2.02-8.383-.123a.777.777,0,0,1-.123-.205,21.05,21.05,0,0,1,0-2.63.777.777,0,0,1,.123-.205,21.649,21.649,0,0,1,3.205-.123q.167-.977.411-1.931L9.091,76.332a2.345,2.345,0,0,1-1.52-1.356q-.2-12.938-.082-25.889A2.525,2.525,0,0,1,9.091,47.443Zm.658,1.315q18.081-.021,36.163.041a1.077,1.077,0,0,1,.945.945q.062,10.684.041,21.369H8.762Q8.741,60.428,8.8,49.744A1.18,1.18,0,0,1,9.748,48.758Zm-.986,23.67H46.9a9.176,9.176,0,0,1-.123,1.973,1.028,1.028,0,0,1-.863.616q-18.081.082-36.163,0a1.028,1.028,0,0,1-.863-.616A9.173,9.173,0,0,1,8.762,72.428Zm15.7,3.945H31.2q.167.977.411,1.931-3.781.082-7.561,0Q24.293,77.35,24.46,76.373ZM20.6,79.66H35.062v.658H20.6Z" transform="translate(-7.442 -47.437)" fill="#737373" fill-rule="evenodd" opacity="0.994"/>
    </g>
    <g id="Group_1430" data-name="Group 1430" transform="translate(19.068 25.643)">
      <path id="Path_531" data-name="Path 531" d="M239.779,359.443q.987-.02,1.973.041a.385.385,0,0,1,.288.288,1.335,1.335,0,0,1,0,.658.385.385,0,0,1-.288.288,11.845,11.845,0,0,1-1.973,0,.57.57,0,0,1-.329-.616A.667.667,0,0,1,239.779,359.443Z" transform="translate(-239.446 -359.438)" fill="#737373" fill-rule="evenodd" opacity="0.95"/>
    </g>
  </g>
  <g id="Rectangle_723" data-name="Rectangle 723" transform="translate(0.999 1)" fill="#747474" stroke="#707070" stroke-width="1">
    <rect width="39" height="23" stroke="none"/>
    <rect x="0.5" y="0.5" width="38" height="22" fill="none"/>
  </g>
</svg>
