<svg width="88" height="30" viewBox="0 0 88 30" fill="none" xmlns="http://www.w3.org/2000/svg">
<path d="M51.7284 8.15402C51.7284 10.3759 49.9737 12.0131 47.8202 12.0131C45.6668 12.0131 43.9121 10.3759 43.9121 8.15402C43.9121 5.91651 45.6668 4.29492 47.8202 4.29492C49.9737 4.29492 51.7284 5.91651 51.7284 8.15402ZM50.0176 8.15402C50.0176 6.76558 49.0006 5.81559 47.8202 5.81559C46.6399 5.81559 45.6229 6.76558 45.6229 8.15402C45.6229 9.52854 46.6399 10.4924 47.8202 10.4924C49.0006 10.4924 50.0176 9.5268 50.0176 8.15402Z" fill="#EA4335"/>
<path d="M60.16 8.15402C60.16 10.3759 58.4053 12.0131 56.2519 12.0131C54.0985 12.0131 52.3438 10.3759 52.3438 8.15402C52.3438 5.91825 54.0985 4.29492 56.2519 4.29492C58.4053 4.29492 60.16 5.91651 60.16 8.15402ZM58.4492 8.15402C58.4492 6.76558 57.4322 5.81559 56.2519 5.81559C55.0715 5.81559 54.0546 6.76558 54.0546 8.15402C54.0546 9.52854 55.0715 10.4924 56.2519 10.4924C57.4322 10.4924 58.4492 9.5268 58.4492 8.15402Z" fill="#FBBC05"/>
<path d="M68.24 4.52807V11.4563C68.24 14.3063 66.5432 15.4703 64.5374 15.4703C62.6491 15.4703 61.5127 14.2193 61.0841 13.1962L62.5736 12.5821C62.8388 13.2102 63.4887 13.9514 64.5356 13.9514C65.8196 13.9514 66.6153 13.1667 66.6153 11.6895V11.1345H66.5555C66.1726 11.6025 65.4349 12.0114 64.504 12.0114C62.5561 12.0114 60.7715 10.3306 60.7715 8.16793C60.7715 5.98958 62.5561 4.29492 64.504 4.29492C65.4331 4.29492 66.1709 4.7038 66.5555 5.15791H66.6153V4.52981H68.24V4.52807ZM66.7364 8.16793C66.7364 6.80907 65.8213 5.81559 64.6568 5.81559C63.4764 5.81559 62.4876 6.80907 62.4876 8.16793C62.4876 9.51288 63.4764 10.4924 64.6568 10.4924C65.8213 10.4924 66.7364 9.51288 66.7364 8.16793Z" fill="#4285F4"/>
<path d="M70.9186 0.466797V11.7761H69.25V0.466797H70.9186Z" fill="#34A853"/>
<path d="M77.4208 9.42393L78.7487 10.3008C78.3201 10.9289 77.2873 12.0112 75.5027 12.0112C73.2896 12.0112 71.6367 10.3165 71.6367 8.15206C71.6367 5.85714 73.3036 4.29297 75.3112 4.29297C77.3329 4.29297 78.3218 5.88672 78.645 6.74797L78.8224 7.18642L73.6145 9.32302C74.0132 10.0973 74.6333 10.4922 75.5027 10.4922C76.3739 10.4922 76.9781 10.0677 77.4208 9.42393ZM73.3335 8.03549L76.8148 6.60355C76.6233 6.1216 76.0472 5.7858 75.3692 5.7858C74.4998 5.7858 73.2896 6.54614 73.3335 8.03549Z" fill="#EA4335"/>
<path d="M37.5963 7.14951V5.51227H43.166C43.2205 5.79761 43.2486 6.13515 43.2486 6.50053C43.2486 7.7289 42.9096 9.24783 41.8171 10.33C40.7544 11.4262 39.3967 12.0108 37.598 12.0108C34.2643 12.0108 31.4609 9.3209 31.4609 6.01858C31.4609 2.71625 34.2643 0.0263672 37.598 0.0263672C39.4423 0.0263672 40.7562 0.743205 41.7433 1.67753L40.577 2.83282C39.8691 2.17514 38.9101 1.66361 37.5963 1.66361C35.1618 1.66361 33.2578 3.60708 33.2578 6.01858C33.2578 8.43008 35.1618 10.3735 37.5963 10.3735C39.1753 10.3735 40.0747 9.74544 40.6508 9.17475C41.118 8.71194 41.4254 8.05078 41.5466 7.14777L37.5963 7.14951Z" fill="#4285F4"/>
<path d="M36.0329 18.0935L34.3177 22.7932H37.8173L36.0883 18.0935H36.0329ZM32.8377 26.8627H31.3438L35.2998 16.4492H36.8352L40.7913 26.8627H39.2974L38.2876 24.0401H33.8613L32.8377 26.8627Z" fill="#747474"/>
<path d="M41.4707 19.7368H42.771V20.7234H42.8263C43.0269 20.3774 43.3415 20.0897 43.7669 19.8602C44.1992 19.6238 44.6418 19.5039 45.0948 19.5039C45.9801 19.5039 46.6579 19.7574 47.1282 20.2575C47.6054 20.7508 47.8475 21.4599 47.8475 22.3813V26.8619H46.4919V22.4772C46.4642 21.3091 45.8729 20.7234 44.7213 20.7234C44.1853 20.7234 43.7323 20.9426 43.3657 21.3811C43.0061 21.8127 42.8263 22.3231 42.8263 22.9157V26.8619H41.4707V19.7368Z" fill="#747474"/>
<path d="M50.3502 24.6832C50.3502 25.0326 50.4954 25.3238 50.7928 25.5602C51.0868 25.7897 51.436 25.9027 51.8441 25.9027C52.4043 25.9027 52.9092 25.6972 53.3518 25.2861C53.8014 24.8682 54.0296 24.375 54.0296 23.8063C53.6043 23.4775 53.0129 23.3131 52.2591 23.3131C51.7127 23.3131 51.2562 23.4466 50.8897 23.7104C50.53 23.9673 50.3502 24.2927 50.3502 24.6832ZM52.0931 19.5039C53.089 19.5039 53.8706 19.7711 54.4446 20.2986C55.0256 20.8296 55.316 21.5558 55.316 22.4772V26.8619H54.0296V25.8753H53.9743C53.4106 26.6906 52.6637 27.0948 51.7334 27.0948C50.9381 27.0948 50.2741 26.8619 49.7416 26.396C49.2159 25.9301 48.9531 25.3512 48.9531 24.6558C48.9531 23.9159 49.2332 23.3336 49.7969 22.902C50.3571 22.4635 51.111 22.2443 52.0516 22.2443C52.8539 22.2443 53.5109 22.3882 54.0296 22.6691V22.3676C54.0296 21.9017 53.8394 21.5112 53.4625 21.1892C53.0925 20.8604 52.6602 20.696 52.1623 20.696C51.4049 20.696 50.8101 21.0111 50.3779 21.6414L49.1883 20.9015C49.8419 19.9698 50.8101 19.5039 52.0931 19.5039Z" fill="#747474"/>
<path d="M58.1446 16.4492V26.8627H56.7891V16.4492H58.1446Z" fill="#747474"/>
<path d="M66.1128 19.7373L61.6034 30.0001H60.2202L61.8939 26.4102L58.9199 19.7373H60.3862L62.5302 24.8618H62.5579L64.6466 19.7373H66.1128Z" fill="#747474"/>
<path d="M69.8256 26.9718C69.2447 26.9718 68.7605 26.7937 68.3732 26.4375C67.9859 26.0812 67.7854 25.5845 67.7784 24.9439V20.9567H66.5059V19.7372H67.7784V17.5586H69.1202V19.7372H70.8907V20.9567H69.1202V24.5055C69.1202 24.9816 69.2101 25.3071 69.3968 25.4783C69.5905 25.6427 69.8014 25.725 70.0331 25.725C70.1438 25.725 70.2475 25.7181 70.3513 25.6976C70.4516 25.6702 70.5484 25.6393 70.6418 25.6016L71.0567 26.7937C70.704 26.9102 70.2959 26.9718 69.8256 26.9718Z" fill="#747474"/>
<path d="M73.8464 17.2843C73.8464 17.5412 73.7496 17.7639 73.5559 17.9557C73.3692 18.1407 73.1478 18.2297 72.8919 18.2297C72.6222 18.2297 72.3974 18.1407 72.2141 17.9557C72.0274 17.7639 71.9375 17.5412 71.9375 17.2843C71.9375 17.0205 72.0274 16.7979 72.2141 16.6129C72.3974 16.4314 72.6222 16.3389 72.8919 16.3389C73.1478 16.3389 73.3692 16.4314 73.5559 16.6129C73.7496 16.7979 73.8464 17.0205 73.8464 17.2843ZM73.5697 19.737V26.862H72.2141V19.737H73.5697Z" fill="#747474"/>
<path d="M78.1249 27.0948C77.0529 27.0948 76.1676 26.7351 75.4691 26.0123C74.7775 25.2827 74.4316 24.3784 74.4316 23.2993C74.4316 22.2032 74.7775 21.2989 75.4691 20.5864C76.1676 19.867 77.0529 19.5039 78.1249 19.5039C78.8615 19.5039 79.5012 19.6889 80.0476 20.052C80.5905 20.4185 81.0021 20.9221 81.2787 21.5592L80.0476 22.0662C79.6672 21.1721 78.9998 20.7234 78.0419 20.7234C77.4229 20.7234 76.8869 20.97 76.4373 21.4633C75.9947 21.9566 75.7734 22.5697 75.7734 23.2993C75.7734 24.0324 75.9947 24.6421 76.4373 25.1354C76.8869 25.6287 77.4229 25.8753 78.0419 25.8753C79.0275 25.8753 79.7191 25.43 80.1168 24.5325L81.3202 25.0395C81.0608 25.6801 80.6493 26.1836 80.0891 26.5467C79.5254 26.9098 78.8719 27.0948 78.1249 27.0948Z" fill="#747474"/>
<path d="M87.9991 24.8888C87.9991 25.5122 87.7224 26.0363 87.1691 26.4645C86.6227 26.8824 85.938 27.0948 85.1081 27.0948C84.3888 27.0948 83.7525 26.9064 83.1992 26.533C82.6528 26.1596 82.262 25.6664 82.0234 25.0532L83.2269 24.5462C83.4101 24.9778 83.6695 25.3101 84.0015 25.5465C84.3404 25.7863 84.7104 25.9027 85.1081 25.9027C85.5403 25.9027 85.9 25.8137 86.187 25.6287C86.4809 25.4471 86.6296 25.2279 86.6296 24.971C86.6296 24.5154 86.2735 24.1831 85.5645 23.9707L84.3335 23.6693C82.9295 23.3131 82.2309 22.6417 82.2309 21.6551C82.2309 21.0077 82.4972 20.487 83.0332 20.0931C83.5658 19.7026 84.2505 19.5039 85.0804 19.5039C85.7167 19.5039 86.2907 19.6546 86.8095 19.9561C87.3247 20.2575 87.6844 20.6617 87.8884 21.1618L86.685 21.6551C86.5466 21.3537 86.3184 21.1207 86.0072 20.9563C85.7029 20.785 85.3605 20.696 84.9836 20.696C84.6309 20.696 84.3127 20.785 84.0291 20.9563C83.7525 21.131 83.6142 21.3468 83.6142 21.6003C83.6142 22.0045 84.0015 22.2957 84.7761 22.4772L85.855 22.7513C87.2832 23.1007 87.9991 23.8132 87.9991 24.8888Z" fill="#747474"/>
<path d="M18.5664 3.51124V25.5819C18.5664 28.0534 20.286 29.4276 22.1111 29.4276C23.799 29.4276 25.6558 28.2572 25.6558 25.5819V3.67844C25.6558 1.41599 23.9678 0 22.1111 0C20.2544 0 18.5664 1.56229 18.5664 3.51124Z" fill="#F8AB00"/>
<path d="M9.2832 14.7144V25.5825C9.2832 28.054 11.0028 29.4282 12.8279 29.4282C14.5158 29.4282 16.3726 28.2577 16.3726 25.5825V14.8816C16.3726 12.6191 14.6846 11.2031 12.8279 11.2031C10.9711 11.2031 9.2832 12.7654 9.2832 14.7144Z" fill="#E37300"/>
<path d="M7.08937 25.9165C7.08937 27.855 5.50164 29.4278 3.54468 29.4278C1.58772 29.4278 0 27.855 0 25.9165C0 23.978 1.58772 22.4053 3.54468 22.4053C5.50164 22.4053 7.08937 23.978 7.08937 25.9165Z" fill="#E37300"/>
</svg>
