<svg width="68" height="68" viewBox="0 0 68 68" fill="none" xmlns="http://www.w3.org/2000/svg">
<g filter="url(#filter0_d_2396_9472)">
<rect x="5" y="4" width="58" height="58" rx="8" fill="white"/>
<rect x="4.925" y="3.925" width="58.15" height="58.15" rx="8.075" stroke="#CCCCCC" stroke-width="0.15"/>
<path d="M41.8633 20.176V46.4254C41.8633 49.3648 43.9084 50.9991 46.0791 50.9991C48.0866 50.9991 50.2949 49.6071 50.2949 46.4254V20.3749C50.2949 17.6841 48.2874 16 46.0791 16C43.8708 16 41.8633 17.8581 41.8633 20.176Z" fill="#F8AB00"/>
<path d="M29.4316 33.4983V46.4241C29.4316 49.3635 31.4768 50.9979 33.6474 50.9979C35.655 50.9979 37.8632 49.6058 37.8632 46.4241V33.6972C37.8632 31.0063 35.8557 29.3223 33.6474 29.3223C31.4392 29.3223 29.4316 31.1803 29.4316 33.4983Z" fill="#E37300"/>
<path d="M25.4316 46.8245C25.4316 49.13 23.5433 51.0005 21.2158 51.0005C18.8883 51.0005 17 49.13 17 46.8245C17 44.5189 18.8883 42.6484 21.2158 42.6484C23.5433 42.6484 25.4316 44.5189 25.4316 46.8245Z" fill="#E37300"/>
</g>
<defs>
<filter id="filter0_d_2396_9472" x="0.849609" y="0.849609" width="66.3008" height="66.3008" filterUnits="userSpaceOnUse" color-interpolation-filters="sRGB">
<feFlood flood-opacity="0" result="BackgroundImageFix"/>
<feColorMatrix in="SourceAlpha" type="matrix" values="0 0 0 0 0 0 0 0 0 0 0 0 0 0 0 0 0 0 127 0" result="hardAlpha"/>
<feOffset dy="1"/>
<feGaussianBlur stdDeviation="2"/>
<feComposite in2="hardAlpha" operator="out"/>
<feColorMatrix type="matrix" values="0 0 0 0 0.0431373 0 0 0 0 0.239216 0 0 0 0 0.376471 0 0 0 0.1 0"/>
<feBlend mode="normal" in2="BackgroundImageFix" result="effect1_dropShadow_2396_9472"/>
<feBlend mode="normal" in="SourceGraphic" in2="effect1_dropShadow_2396_9472" result="shape"/>
</filter>
</defs>
</svg>
