<svg width="145" height="28" viewBox="0 0 145 28" fill="none" xmlns="http://www.w3.org/2000/svg">
<rect width="145" height="28" rx="14" fill="#9747FF"/>
<path d="M15.016 18.144C14.368 18.144 13.764 18.04 13.204 17.832C12.652 17.616 12.172 17.312 11.764 16.92C11.356 16.528 11.036 16.068 10.804 15.54C10.58 15.012 10.468 14.432 10.468 13.8C10.468 13.168 10.58 12.588 10.804 12.06C11.036 11.532 11.356 11.072 11.764 10.68C12.18 10.288 12.664 9.988 13.216 9.78C13.768 9.564 14.372 9.456 15.028 9.456C15.756 9.456 16.412 9.584 16.996 9.84C17.588 10.088 18.084 10.456 18.484 10.944L17.236 12.096C16.948 11.768 16.628 11.524 16.276 11.364C15.924 11.196 15.54 11.112 15.124 11.112C14.732 11.112 14.372 11.176 14.044 11.304C13.716 11.432 13.432 11.616 13.192 11.856C12.952 12.096 12.764 12.38 12.628 12.708C12.5 13.036 12.436 13.4 12.436 13.8C12.436 14.2 12.5 14.564 12.628 14.892C12.764 15.22 12.952 15.504 13.192 15.744C13.432 15.984 13.716 16.168 14.044 16.296C14.372 16.424 14.732 16.488 15.124 16.488C15.54 16.488 15.924 16.408 16.276 16.248C16.628 16.08 16.948 15.828 17.236 15.492L18.484 16.644C18.084 17.132 17.588 17.504 16.996 17.76C16.412 18.016 15.752 18.144 15.016 18.144ZM18.5404 18L22.2844 9.6H24.2044L27.9604 18H25.9204L22.8484 10.584H23.6164L20.5324 18H18.5404ZM20.4124 16.2L20.9284 14.724H25.2484L25.7764 16.2H20.4124ZM31.5919 18.144C30.9199 18.144 30.2759 18.056 29.6599 17.88C29.0439 17.696 28.5479 17.46 28.1719 17.172L28.8319 15.708C29.1919 15.964 29.6159 16.176 30.1039 16.344C30.5999 16.504 31.0999 16.584 31.6039 16.584C31.9879 16.584 32.2959 16.548 32.5279 16.476C32.7679 16.396 32.9439 16.288 33.0559 16.152C33.1679 16.016 33.2239 15.86 33.2239 15.684C33.2239 15.46 33.1359 15.284 32.9599 15.156C32.7839 15.02 32.5519 14.912 32.2639 14.832C31.9759 14.744 31.6559 14.664 31.3039 14.592C30.9599 14.512 30.6119 14.416 30.2599 14.304C29.9159 14.192 29.5999 14.048 29.3119 13.872C29.0239 13.696 28.7879 13.464 28.6039 13.176C28.4279 12.888 28.3399 12.52 28.3399 12.072C28.3399 11.592 28.4679 11.156 28.7239 10.764C28.9879 10.364 29.3799 10.048 29.8999 9.816C30.4279 9.576 31.0879 9.456 31.8799 9.456C32.4079 9.456 32.9279 9.52 33.4399 9.648C33.9519 9.768 34.4039 9.952 34.7959 10.2L34.1959 11.676C33.8039 11.452 33.4119 11.288 33.0199 11.184C32.6279 11.072 32.2439 11.016 31.8679 11.016C31.4919 11.016 31.1839 11.06 30.9439 11.148C30.7039 11.236 30.5319 11.352 30.4279 11.496C30.3239 11.632 30.2719 11.792 30.2719 11.976C30.2719 12.192 30.3599 12.368 30.5359 12.504C30.7119 12.632 30.9439 12.736 31.2319 12.816C31.5199 12.896 31.8359 12.976 32.1799 13.056C32.5319 13.136 32.8799 13.228 33.2239 13.332C33.5759 13.436 33.8959 13.576 34.1839 13.752C34.4719 13.928 34.7039 14.16 34.8799 14.448C35.0639 14.736 35.1559 15.1 35.1559 15.54C35.1559 16.012 35.0239 16.444 34.7599 16.836C34.4959 17.228 34.0999 17.544 33.5719 17.784C33.0519 18.024 32.3919 18.144 31.5919 18.144ZM42.2443 9.6H44.1883V18H42.2443V9.6ZM38.4283 18H36.4843V9.6H38.4283V18ZM42.3883 14.556H38.2843V12.912H42.3883V14.556ZM53.6541 18.144C52.9901 18.144 52.3741 18.036 51.8061 17.82C51.2461 17.604 50.7581 17.3 50.3421 16.908C49.9341 16.516 49.6141 16.056 49.3821 15.528C49.1581 15 49.0461 14.424 49.0461 13.8C49.0461 13.176 49.1581 12.6 49.3821 12.072C49.6141 11.544 49.9381 11.084 50.3541 10.692C50.7701 10.3 51.2581 9.996 51.8181 9.78C52.3781 9.564 52.9861 9.456 53.6421 9.456C54.3061 9.456 54.9141 9.564 55.4661 9.78C56.0261 9.996 56.5101 10.3 56.9181 10.692C57.3341 11.084 57.6581 11.544 57.8901 12.072C58.1221 12.592 58.2381 13.168 58.2381 13.8C58.2381 14.424 58.1221 15.004 57.8901 15.54C57.6581 16.068 57.3341 16.528 56.9181 16.92C56.5101 17.304 56.0261 17.604 55.4661 17.82C54.9141 18.036 54.3101 18.144 53.6541 18.144ZM53.6421 16.488C54.0181 16.488 54.3621 16.424 54.6741 16.296C54.9941 16.168 55.2741 15.984 55.5141 15.744C55.7541 15.504 55.9381 15.22 56.0661 14.892C56.2021 14.564 56.2701 14.2 56.2701 13.8C56.2701 13.4 56.2021 13.036 56.0661 12.708C55.9381 12.38 55.7541 12.096 55.5141 11.856C55.2821 11.616 55.0061 11.432 54.6861 11.304C54.3661 11.176 54.0181 11.112 53.6421 11.112C53.2661 11.112 52.9181 11.176 52.5981 11.304C52.2861 11.432 52.0101 11.616 51.7701 11.856C51.5301 12.096 51.3421 12.38 51.2061 12.708C51.0781 13.036 51.0141 13.4 51.0141 13.8C51.0141 14.192 51.0781 14.556 51.2061 14.892C51.3421 15.22 51.5261 15.504 51.7581 15.744C51.9981 15.984 52.2781 16.168 52.5981 16.296C52.9181 16.424 53.2661 16.488 53.6421 16.488ZM59.6991 18V9.6H61.3071L66.2631 15.648H65.4831V9.6H67.4031V18H65.8071L60.8391 11.952H61.6191V18H59.6991ZM72.789 18V9.6H76.605C77.517 9.6 78.321 9.776 79.017 10.128C79.713 10.472 80.257 10.956 80.649 11.58C81.041 12.204 81.237 12.944 81.237 13.8C81.237 14.648 81.041 15.388 80.649 16.02C80.257 16.644 79.713 17.132 79.017 17.484C78.321 17.828 77.517 18 76.605 18H72.789ZM74.733 16.404H76.509C77.069 16.404 77.553 16.3 77.961 16.092C78.377 15.876 78.697 15.572 78.921 15.18C79.153 14.788 79.269 14.328 79.269 13.8C79.269 13.264 79.153 12.804 78.921 12.42C78.697 12.028 78.377 11.728 77.961 11.52C77.553 11.304 77.069 11.196 76.509 11.196H74.733V16.404ZM84.491 12.984H88.535V14.496H84.491V12.984ZM84.635 16.44H89.207V18H82.703V9.6H89.051V11.16H84.635V16.44ZM90.7538 18V9.6H92.6978V16.416H96.9098V18H90.7538ZM97.996 18V9.6H99.94V18H97.996ZM104.418 18L100.794 9.6H102.894L106.062 17.04H104.826L108.042 9.6H109.974L106.338 18H104.418ZM112.464 12.984H116.508V14.496H112.464V12.984ZM112.608 16.44H117.18V18H110.676V9.6H117.024V11.16H112.608V16.44ZM118.726 18V9.6H122.362C123.114 9.6 123.762 9.724 124.306 9.972C124.85 10.212 125.27 10.56 125.566 11.016C125.862 11.472 126.01 12.016 126.01 12.648C126.01 13.272 125.862 13.812 125.566 14.268C125.27 14.716 124.85 15.06 124.306 15.3C123.762 15.54 123.114 15.66 122.362 15.66H119.806L120.67 14.808V18H118.726ZM124.066 18L121.966 14.952H124.042L126.166 18H124.066ZM120.67 15.024L119.806 14.112H122.254C122.854 14.112 123.302 13.984 123.598 13.728C123.894 13.464 124.042 13.104 124.042 12.648C124.042 12.184 123.894 11.824 123.598 11.568C123.302 11.312 122.854 11.184 122.254 11.184H119.806L120.67 10.26V15.024ZM129.521 18V14.568L129.965 15.744L126.269 9.6H128.334L131.166 14.316H129.978L132.822 9.6H134.73L131.034 15.744L131.466 14.568V18H129.521Z" fill="white"/>
</svg>
