<svg width="149" height="24" viewBox="0 0 149 24" fill="none" xmlns="http://www.w3.org/2000/svg">
<g id="Delhivery vector illustration" clip-path="url(#clip0_0_4159)">
<g id="surface1">
<g id="Clip path group">
<mask id="mask0_0_4159" style="mask-type:luminance" maskUnits="userSpaceOnUse" x="133" y="0" width="16" height="24">
<g id="clip1">
<path id="Vector" d="M133.67 0H149V23.9438H133.67V0Z" fill="white"/>
</g>
</mask>
<g mask="url(#mask0_0_4159)">
<g id="Group">
<path id="Vector_2" d="M149 0.00878906H143.565V9.40684L141.366 12.1254L139.158 9.40684V0.00878906H133.724V11.4004L138.649 17.45V23.9311H144.075V17.45L149 11.4004V0.00878906Z" fill="#231F20"/>
</g>
</g>
</g>
<path id="Vector_3" d="M71.8809 0.138306H77.3067V23.9829H71.8809V0.138306Z" fill="#231F20"/>
<path id="Vector_4" d="M123.585 23.8362H118.15V2.76181L120.868 0.000244141H130.972V5.52337H123.585V23.8362Z" fill="#231F20"/>
<path id="Vector_5" d="M106.059 18.4251V14.8178H112.012V9.30323H106.059V5.53193L108.165 5.52337L114.465 5.5495L114.483 0.0261516L108.173 0.000244141L103.324 0.0261516L100.624 2.78771V21.1781L103.342 23.9396H108.148L114.465 23.9656L114.483 18.4512L108.156 18.4251H106.059Z" fill="#231F20"/>
<path id="Vector_6" d="M91.0454 15.1544L88.8378 17.8643L86.63 15.1544V0.129761H81.2041V17.1308L86.7235 23.9311H90.9519L96.4713 17.1308V0.129761H91.0454V15.1544Z" fill="#231F20"/>
<path id="Vector_7" d="M11.1578 18.4856H5.45157V5.54063H11.1578V18.4856ZM9.06038 0.0778809H0V23.9999H13.8664L16.5668 21.2384V2.83944L13.8496 0.0778809H9.06038Z" fill="#231F20"/>
<path id="Vector_8" d="M27.6136 5.52337L33.9144 5.5495L33.9399 0.0261516L27.6223 0.000244141L22.7736 0.0261516L20.0732 2.78771V21.1781L22.7907 23.9396H27.5968L33.9144 23.9656L33.9399 18.4512L27.6136 18.4251H25.508V14.8178H31.4603V9.30323H25.508V5.53193L27.6136 5.52337Z" fill="#231F20"/>
<path id="Vector_9" d="M42.4319 0.0778809H37.0059V21.2125L39.7231 23.9655H49.8196V18.4511H42.4319V0.0778809Z" fill="#231F20"/>
<path id="Vector_10" d="M62.7775 0.129696V9.30314H57.9036V0.0778809H52.4775V23.9828H57.9036V14.8177H62.7775V23.9828H68.2122V0.129696H62.7775Z" fill="#231F20"/>
<path id="Vector_11" d="M0.0341797 18.4856H5.44319V23.9828H0.0341797V18.4856Z" fill="#E36556"/>
<g id="Clip path group_2">
<mask id="mask1_0_4159" style="mask-type:luminance" maskUnits="userSpaceOnUse" x="143" y="0" width="6" height="6">
<g id="clip2">
<path id="Vector_12" d="M143.569 0H149V5.5082H143.569V0Z" fill="white"/>
</g>
</mask>
<g mask="url(#mask1_0_4159)">
<g id="Group_2">
<path id="Vector_13" d="M143.582 0.00878906H148.991V5.50623H143.582V0.00878906Z" fill="#E36556"/>
</g>
</g>
</g>
</g>
</g>
<defs>
<clipPath id="clip0_0_4159">
<rect width="149" height="24" fill="white"/>
</clipPath>
</defs>
</svg>
