<svg width="130" height="21" viewBox="0 0 130 21" fill="none" xmlns="http://www.w3.org/2000/svg">
<g id="surface1">
<g id="Clip path group">
<mask id="mask0_951_7642" style="mask-type:luminance" maskUnits="userSpaceOnUse" x="116" y="0" width="14" height="21">
<g id="clip1">
<path id="Vector" d="M116.625 0H130V20.9508H116.625V0Z" fill="white"/>
</g>
</mask>
<g mask="url(#mask0_951_7642)">
<g id="Group">
<path id="Vector_2" d="M130 0.0078125H125.258V8.23111L123.34 10.6098L121.414 8.23111V0.0078125H116.672V9.97547L120.969 15.2689V20.9398H125.703V15.2689L130 9.97547V0.0078125Z" fill="#231F20"/>
</g>
</g>
</g>
<path id="Vector_3" d="M62.7148 0.121094H67.4488V20.9851H62.7148V0.121094Z" fill="#231F20"/>
<path id="Vector_4" d="M107.827 20.8565H103.086V2.41637L105.457 0H114.273V4.83274H107.827V20.8565Z" fill="#231F20"/>
<path id="Vector_5" d="M92.5347 16.1217V12.9654H97.7285V8.14011H92.5347V4.84023L94.372 4.83274L99.8693 4.8556L99.8844 0.0226691L94.3794 0L90.149 0.0226691L87.793 2.43904V18.5306L90.1641 20.947H94.3571L99.8693 20.9696L99.8844 16.1446L94.3649 16.1217H92.5347Z" fill="#231F20"/>
<path id="Vector_6" d="M79.436 13.2598L77.5099 15.631L75.5836 13.2598V0.113281H70.8496V14.9892L75.6652 20.9394H79.3544L84.17 14.9892V0.113281H79.436V13.2598Z" fill="#231F20"/>
<path id="Vector_7" d="M9.73502 16.1751H4.7564V4.84826H9.73502V16.1751ZM7.90503 0.0683594H0V21.0002H12.0982L14.4543 18.5838V2.48473L12.0835 0.0683594H7.90503Z" fill="#231F20"/>
<path id="Vector_8" d="M24.0925 4.83274L29.5899 4.8556L29.6121 0.0226691L24.1001 0L19.8697 0.0226691L17.5137 2.43904V18.5306L19.8846 20.947H24.0778L29.5899 20.9696L29.6121 16.1446L24.0925 16.1217H22.2554V12.9654H27.4487V8.14011H22.2554V4.84023L24.0925 4.83274Z" fill="#231F20"/>
<path id="Vector_9" d="M37.0213 0.0683594H32.2871V18.5611L34.6579 20.97H43.4669V16.1449H37.0213V0.0683594Z" fill="#231F20"/>
<path id="Vector_10" d="M54.7717 0.113697V8.14046H50.5193V0.0683594H45.7852V20.9852H50.5193V12.9657H54.7717V20.9852H59.5134V0.113697H54.7717Z" fill="#231F20"/>
<path id="Vector_11" d="M0.03125 16.1748H4.75052V20.9849H0.03125V16.1748Z" fill="#E36556"/>
<g id="Clip path group_2">
<mask id="mask1_951_7642" style="mask-type:luminance" maskUnits="userSpaceOnUse" x="125" y="0" width="5" height="5">
<g id="clip2">
<path id="Vector_12" d="M125.262 0H130V4.81967H125.262V0Z" fill="white"/>
</g>
</mask>
<g mask="url(#mask1_951_7642)">
<g id="Group_2">
<path id="Vector_13" d="M125.273 0.0078125H129.993V4.81807H125.273V0.0078125Z" fill="#E36556"/>
</g>
</g>
</g>
</g>
</svg>
