<svg width="135" height="34" viewBox="0 0 135 34" fill="none" xmlns="http://www.w3.org/2000/svg">
<g id="paypal-logo" clip-path="url(#clip0_937_7143)">
<path id="Vector" fill-rule="evenodd" clip-rule="evenodd" d="M11.7799 8.00293H21.0048C25.9578 8.00293 27.8223 10.6096 27.5342 14.439C27.0579 20.7613 23.3813 24.2591 18.5045 24.2591H16.0423C15.3732 24.2591 14.9231 24.7195 14.7421 25.9671L13.6968 33.2201C13.6277 33.6904 13.3896 33.9627 13.0324 33.9999H7.23645C6.69115 33.9999 6.49827 33.5667 6.64114 32.6285L10.1749 9.3768C10.313 8.44604 10.8036 8.00293 11.7799 8.00293Z" fill="#009EE3"/>
<path id="Vector_2" fill-rule="evenodd" clip-rule="evenodd" d="M51.8301 7.57227C54.9424 7.57227 57.8141 9.32735 57.4212 13.7014C56.945 18.8998 54.2661 21.7763 50.0394 21.7886H46.3461C45.815 21.7886 45.5579 22.2392 45.4198 23.1625L44.7054 27.8832C44.5982 28.5961 44.2458 28.9476 43.7267 28.9476H40.2905C39.7429 28.9476 39.5524 28.5837 39.6738 27.7693L42.5099 8.84959C42.6504 7.91883 42.9861 7.57227 43.5981 7.57227H51.8229H51.8301ZM46.2341 17.7017H49.0321C50.7823 17.6324 51.9444 16.3724 52.061 14.1C52.1325 12.6964 51.2205 11.6914 49.7703 11.6988L47.1366 11.7112L46.2341 17.7017ZM66.7629 27.4995C67.0772 27.2024 67.3963 27.0489 67.351 27.4153L67.2391 28.2916C67.182 28.7495 67.3558 28.9921 67.7654 28.9921H70.8181C71.3325 28.9921 71.5825 28.7768 71.7087 27.95L73.5899 15.6768C73.6851 15.0604 73.5399 14.7584 73.0898 14.7584H69.7323C69.4299 14.7584 69.2822 14.9342 69.2036 15.4144L69.0798 16.1694C69.0155 16.563 68.8417 16.6323 68.6798 16.2363C68.1106 14.8352 66.6581 14.2064 64.6316 14.2559C59.9239 14.3574 56.7497 18.073 56.4092 22.8358C56.1473 26.5192 58.6857 29.413 62.0337 29.413C64.4626 29.413 65.5484 28.6703 66.7724 27.5069L66.7629 27.4995ZM64.2054 25.6107C62.179 25.6107 60.7669 23.9299 61.0598 21.8703C61.3527 19.8108 63.2481 18.13 65.2746 18.13C67.301 18.13 68.7131 19.8108 68.4202 21.8703C68.1273 23.9299 66.2342 25.6107 64.2054 25.6107ZM79.5644 14.7188H76.4688C75.8306 14.7188 75.5711 15.2139 75.7735 15.8229L79.6168 27.5217L75.8473 33.089C75.5306 33.5544 75.7759 33.9777 76.2212 33.9777H79.7002C79.9029 34.002 80.1082 33.9653 80.2914 33.8718C80.4746 33.7783 80.6281 33.632 80.7336 33.4504L92.5541 15.8253C92.9185 15.2832 92.747 14.7139 92.1493 14.7139H88.8561C88.2917 14.7139 88.0655 14.9466 87.7416 15.4342L82.8125 22.8605L80.6098 15.4169C80.4812 14.9664 80.1598 14.7188 79.5668 14.7188H79.5644Z" fill="#113984"/>
<path id="Vector_3" fill-rule="evenodd" clip-rule="evenodd" d="M104.851 7.57234C107.963 7.57234 110.835 9.32742 110.442 13.7015C109.966 18.8999 107.287 21.7763 103.06 21.7887H99.3695C98.8385 21.7887 98.5813 22.2392 98.4432 23.1626L97.7288 27.8832C97.6217 28.5961 97.2692 28.9477 96.7501 28.9477H93.314C92.7663 28.9477 92.5758 28.5838 92.6972 27.7694L95.5381 8.8447C95.6786 7.91394 96.0143 7.56738 96.6263 7.56738H104.851V7.57234ZM99.2552 17.7018H102.053C103.803 17.6325 104.965 16.3725 105.082 14.1C105.154 12.6965 104.242 11.6914 102.791 11.6989L100.158 11.7113L99.2552 17.7018ZM119.784 27.4995C120.098 27.2025 120.417 27.049 120.372 27.4154L120.26 28.2917C120.203 28.7496 120.377 28.9922 120.786 28.9922H123.839C124.354 28.9922 124.604 28.7769 124.73 27.9501L126.611 15.6769C126.706 15.0605 126.561 14.7585 126.111 14.7585H122.758C122.456 14.7585 122.308 14.9343 122.229 15.4145L122.106 16.1695C122.041 16.5631 121.868 16.6324 121.706 16.2363C121.136 14.8352 119.684 14.2065 117.657 14.256C112.95 14.3575 109.776 18.0731 109.435 22.8358C109.173 26.5193 111.711 29.413 115.06 29.413C117.488 29.413 118.574 28.6704 119.798 27.507L119.784 27.4995ZM117.229 25.6108C115.202 25.6108 113.79 23.93 114.083 21.8704C114.376 19.8109 116.272 18.13 118.298 18.13C120.324 18.13 121.737 19.8109 121.444 21.8704C121.151 23.93 119.255 25.6108 117.229 25.6108ZM131.309 29.012H127.785C127.724 29.0149 127.662 29.0036 127.606 28.979C127.549 28.9545 127.498 28.9172 127.457 28.8699C127.416 28.8226 127.386 28.7665 127.368 28.7054C127.35 28.6444 127.345 28.5801 127.354 28.5169L130.45 8.12931C130.479 7.99017 130.553 7.86552 130.659 7.77563C130.766 7.68574 130.898 7.6359 131.035 7.63422H134.56C134.621 7.63137 134.682 7.64263 134.739 7.66719C134.795 7.69175 134.846 7.72901 134.887 7.77631C134.928 7.8236 134.959 7.87977 134.977 7.94079C134.995 8.00181 134.999 8.06619 134.991 8.12931L131.895 28.5169C131.866 28.657 131.793 28.7828 131.686 28.8736C131.58 28.9645 131.447 29.015 131.309 29.017V29.012Z" fill="#009EE3"/>
<path id="Vector_4" fill-rule="evenodd" clip-rule="evenodd" d="M6.00986 0H15.2443C17.8447 0 20.9308 0.0866399 22.9929 1.98034C24.3717 3.24529 25.0956 5.25781 24.9289 7.42628C24.3621 14.756 20.1449 18.8628 14.4871 18.8628H9.93416C9.15787 18.8628 8.6459 19.3974 8.42683 20.8431L7.15524 29.2596C7.0719 29.8041 6.84568 30.126 6.44087 30.1656H0.742549C0.111518 30.1656 -0.112321 29.6705 0.0519852 28.5763L4.14773 1.59912C4.31203 0.514887 4.88592 0 6.00986 0Z" fill="#113984"/>
<path id="Vector_5" fill-rule="evenodd" clip-rule="evenodd" d="M8.56055 19.9895L10.1727 9.37732C10.3131 8.44656 10.8037 8.00098 11.78 8.00098H21.0049C22.5313 8.00098 23.7672 8.24852 24.734 8.70648C23.8077 15.2317 19.7476 18.8557 14.4327 18.8557H9.8869C9.2773 18.8582 8.82963 19.1751 8.56055 19.9895Z" fill="#172C70"/>
</g>
<defs>
<clipPath id="clip0_937_7143">
<rect width="135" height="34" fill="white"/>
</clipPath>
</defs>
</svg>
