<svg width="142" height="39" viewBox="0 0 142 39" fill="none" xmlns="http://www.w3.org/2000/svg">
<g id="phonepe vectror illus" clip-path="url(#clip0_937_7172)">
<path id="Vector" d="M97.5108 30.6416V23.5611C97.5108 21.8184 96.8644 20.9471 95.249 20.9471C94.6026 20.9471 93.8489 21.0562 93.4177 21.1648V31.5129C93.4177 31.8397 93.0945 32.1666 92.7713 32.1666H90.2937C89.9705 32.1666 89.6473 31.8397 89.6473 31.5129V19.4221C89.6473 18.9861 89.9705 18.6599 90.2937 18.5507C91.9097 18.0062 93.5251 17.6794 95.2484 17.6794C99.1262 17.6794 101.281 19.7489 101.281 23.5617V31.622C101.281 31.9489 100.958 32.2757 100.634 32.2757H99.1262C98.1572 32.2751 97.5108 31.5129 97.5108 30.6416ZM107.206 26.3934L107.098 27.3739C107.098 28.6812 107.959 29.4434 109.36 29.4434C110.436 29.4434 111.406 29.1166 112.484 28.572C112.592 28.572 112.699 28.4629 112.807 28.4629C113.022 28.4629 113.13 28.5721 113.238 28.6806C113.346 28.7897 113.561 29.1166 113.561 29.1166C113.776 29.4434 113.992 29.8788 113.992 30.2056C113.992 30.7501 113.669 31.2946 113.238 31.5129C112.054 32.1666 110.653 32.4934 109.145 32.4934C107.422 32.4934 106.021 32.0574 104.944 31.1861C103.867 30.2056 103.221 28.8989 103.221 27.2647V23.0166C103.221 19.6398 105.376 17.5703 109.038 17.5703C112.593 17.5703 114.639 19.5312 114.639 23.0166V25.6306C114.639 25.9574 114.316 26.2843 113.993 26.2843H107.207L107.206 26.3934ZM107.098 23.9971H111.191V22.908C111.191 21.6007 110.437 20.7294 109.144 20.7294C107.851 20.7294 107.098 21.4916 107.098 22.908V23.9971ZM134.566 26.3934L134.458 27.3739C134.458 28.6812 135.32 29.4434 136.72 29.4434C137.797 29.4434 138.767 29.1166 139.844 28.572C139.952 28.572 140.059 28.4629 140.167 28.4629C140.383 28.4629 140.491 28.5721 140.598 28.6806C140.706 28.7897 140.922 29.1166 140.922 29.1166C141.137 29.4434 141.353 29.8788 141.353 30.2056C141.353 30.7501 141.03 31.2946 140.599 31.5129C139.414 32.1666 138.014 32.4934 136.506 32.4934C134.783 32.4934 133.382 32.0574 132.305 31.1861C131.228 30.2056 130.582 28.8989 130.582 27.2647V23.0166C130.582 19.6398 132.736 17.5703 136.399 17.5703C139.953 17.5703 142 19.5312 142 23.0166V25.6306C142 25.9574 141.677 26.2843 141.353 26.2843H134.567V26.3934H134.566ZM134.458 23.9971H138.551V22.908C138.551 21.6007 137.798 20.7294 136.505 20.7294C135.212 20.7294 134.458 21.4916 134.458 22.908V23.9971ZM71.1199 32.2751H72.6279C72.9511 32.2751 73.2743 31.9483 73.2743 31.6215V23.5611C73.2743 19.8575 71.3352 17.6788 68.1037 17.6788C67.1341 17.6788 66.0572 17.8965 65.4108 18.1148V14.0843C65.4108 13.213 64.657 12.4502 63.7948 12.4502H62.2867C61.9635 12.4502 61.6403 12.777 61.6403 13.1038V31.6215C61.6403 31.9483 61.9635 32.2751 62.2867 32.2751H64.7644C65.0876 32.2751 65.4108 31.9483 65.4108 31.6215V21.3825C65.9493 21.1648 66.7036 21.0556 67.2421 21.0556C68.8581 21.0556 69.5039 21.8178 69.5039 23.6697V30.7501C69.6118 31.5129 70.2582 32.2751 71.1199 32.2751ZM87.3855 23.1252V27.1556C87.3855 30.5324 85.1236 32.6019 81.3532 32.6019C77.6906 32.6019 75.3209 30.5324 75.3209 27.1556V23.1252C75.3209 19.7483 77.5827 17.6788 81.3532 17.6788C85.1236 17.6788 87.3855 19.7489 87.3855 23.1252ZM83.6156 23.1252C83.6156 21.8178 82.8618 20.9465 81.4611 20.9465C80.0604 20.9465 79.3066 21.7087 79.3066 23.1252V27.1556C79.3066 28.4629 80.0604 29.2251 81.4611 29.2251C82.8618 29.2251 83.6156 28.4629 83.6156 27.1556V23.1252ZM59.5944 21.2739C59.5944 24.7599 57.0093 27.1562 53.5621 27.1562C52.7004 27.1562 51.9461 27.0471 51.1923 26.7202V31.622C51.1923 31.9489 50.8691 32.2757 50.5459 32.2757H48.0683C47.7451 32.2757 47.4219 31.9489 47.4219 31.622V14.3026C47.4219 13.8666 47.7451 13.5404 48.0683 13.4312C49.6843 12.8867 51.2997 12.5599 53.023 12.5599C56.9008 12.5599 59.5938 14.9562 59.5938 18.6599C59.5944 18.6593 59.5944 21.2739 59.5944 21.2739ZM55.7165 18.4416C55.7165 16.6989 54.5317 15.8276 52.9157 15.8276C51.9461 15.8276 51.2997 16.1544 51.2997 16.1544V23.3434C51.9461 23.6702 52.2693 23.7794 53.023 23.7794C54.639 23.7794 55.8239 22.7989 55.8239 21.1653V18.4422H55.7165V18.4416ZM129.18 21.2739C129.18 24.7599 126.595 27.1562 123.148 27.1562C122.286 27.1562 121.532 27.0471 120.778 26.7202V31.622C120.778 31.9489 120.455 32.2757 120.132 32.2757H117.654C117.331 32.2757 117.008 31.9489 117.008 31.622V14.3026C117.008 13.8666 117.331 13.5404 117.654 13.4312C119.27 12.8867 120.886 12.5599 122.609 12.5599C126.487 12.5599 129.18 14.9562 129.18 18.6599C129.18 18.6593 129.18 21.2739 129.18 21.2739ZM125.302 18.4416C125.302 16.6989 124.118 15.8276 122.502 15.8276C121.532 15.8276 120.886 16.1544 120.886 16.1544V23.3434C121.532 23.6702 121.855 23.7794 122.609 23.7794C124.225 23.7794 125.41 22.7989 125.41 21.1653V18.4422H125.302V18.4416Z" fill="#5F259F"/>
<path id="Vector_2" d="M19.2817 38.9981C29.9307 38.9981 38.5634 30.2685 38.5634 19.5C38.5634 8.73155 29.9307 0.00195312 19.2817 0.00195312C8.63272 0.00195312 0 8.73155 0 19.5C0 30.2685 8.63272 38.9981 19.2817 38.9981Z" fill="#5F259F"/>
<path id="Vector_3" d="M28.0328 14.4118C28.0328 13.6495 27.3864 12.9959 26.6327 12.9959H24.0477L18.1233 6.13371C17.5848 5.48006 16.7231 5.26237 15.8615 5.48006L13.8149 6.13371C13.4917 6.24285 13.3838 6.67823 13.5997 6.89592L20.0625 13.105H10.2592C9.93598 13.105 9.7207 13.3227 9.7207 13.6495V14.7386C9.7207 15.5008 10.3671 16.1544 11.1209 16.1544H12.6289V21.3831C12.6289 25.3044 14.6755 27.5922 18.1227 27.5922C19.1997 27.5922 20.0619 27.4831 21.1389 27.0477V30.5336C21.1389 31.5141 21.8926 32.2763 22.8622 32.2763H24.3703C24.6935 32.2763 25.0167 31.9495 25.0167 31.6227V16.0459H27.4943C27.8175 16.0459 28.0328 15.8282 28.0328 15.5014V14.4118ZM21.1389 23.7794C20.4925 24.1062 19.6308 24.2154 18.9844 24.2154C17.2611 24.2154 16.3994 23.344 16.3994 21.3831V16.1544H21.1389V23.7794Z" fill="white"/>
</g>
<defs>
<clipPath id="clip0_937_7172">
<rect width="142" height="39" fill="white"/>
</clipPath>
</defs>
</svg>
