<svg width="40" height="40" viewBox="0 0 40 40" fill="none" xmlns="http://www.w3.org/2000/svg">
<path fill-rule="evenodd" clip-rule="evenodd" d="M2.92894 2.92894C-2.38419e-07 5.85786 0 10.5719 0 20C0 29.428 -2.38419e-07 34.1422 2.92894 37.071C5.85786 40 10.5719 40 20 40C29.428 40 34.1422 40 37.071 37.071C40 34.1422 40 29.428 40 20C40 10.5719 40 5.85786 37.071 2.92894C34.1422 -2.38419e-07 29.428 0 20 0C10.5719 0 5.85786 -2.38419e-07 2.92894 2.92894ZM22.9762 8.89182C23.7764 9.10622 24.2512 9.92874 24.0368 10.7289L18.8604 30.0474C18.646 30.8476 17.8234 31.3226 17.0232 31.1082C16.223 30.8936 15.7482 30.0712 15.9626 29.271L21.139 9.95248C21.3534 9.15228 22.176 8.6774 22.9762 8.89182ZM25.9394 12.9393C26.5252 12.3536 27.4748 12.3536 28.0606 12.9393L28.4774 13.356C29.748 14.6266 30.8076 15.6862 31.5356 16.6404C32.3042 17.6476 32.8432 18.7118 32.8432 20C32.8432 21.2882 32.3042 22.3524 31.5356 23.3596C30.8076 24.3138 29.748 25.3734 28.4774 26.644L28.0606 27.0606C27.4748 27.6464 26.5252 27.6464 25.9394 27.0606C25.3536 26.4748 25.3536 25.5252 25.9394 24.9394L26.2824 24.5962C27.6458 23.2328 28.5594 22.3148 29.1506 21.5398C29.7154 20.7996 29.8432 20.3686 29.8432 20C29.8432 19.6314 29.7154 19.2004 29.1506 18.4602C28.5594 17.6852 27.6458 16.7672 26.2824 15.4038L25.9394 15.0607C25.3536 14.4749 25.3536 13.5251 25.9394 12.9393ZM11.9397 12.9393C12.5255 12.3536 13.4752 12.3536 14.061 12.9393C14.6468 13.5251 14.6468 14.4749 14.061 15.0607L13.7179 15.4038C12.3546 16.7672 11.441 17.6852 10.8498 18.4602C10.2849 19.2004 10.1572 19.6314 10.1572 20C10.1572 20.3686 10.2849 20.7996 10.8498 21.5398C11.441 22.3148 12.3546 23.2328 13.7179 24.5962L14.061 24.9394C14.6468 25.5252 14.6468 26.4748 14.061 27.0606C13.4752 27.6464 12.5255 27.6464 11.9397 27.0606L11.523 26.644C10.2523 25.3734 9.19276 24.3138 8.4647 23.3596C7.69622 22.3524 7.15722 21.2882 7.15722 20C7.15722 18.7118 7.69622 17.6476 8.4647 16.6404C9.19276 15.6862 10.2523 14.6266 11.523 13.356L11.9397 12.9393Z" fill="#0866FF"/>
</svg>
