<svg width="68" height="68" viewBox="0 0 68 68" fill="none" xmlns="http://www.w3.org/2000/svg">
<g filter="url(#filter0_d_2396_9477)">
<rect x="5" y="4" width="58" height="58" rx="8" fill="white"/>
<rect x="4.925" y="3.925" width="58.15" height="58.15" rx="8.075" stroke="#CCCCCC" stroke-width="0.15"/>
<path d="M43 28.0543C43 27.2886 42.3293 26.632 41.5473 26.632H38.8651L32.7182 19.7386C32.1595 19.082 31.2655 18.8633 30.3714 19.082L28.248 19.7386C27.9127 19.8482 27.8007 20.2856 28.0247 20.5043L34.7303 26.7416H24.5587C24.2234 26.7416 24 26.9603 24 27.2886V28.3826C24 29.1483 24.6707 29.8049 25.4527 29.8049H27.0175V35.0573C27.0175 38.9964 29.1409 41.2946 32.7176 41.2946C33.835 41.2946 34.7297 41.185 35.8471 40.7476V44.2494C35.8471 45.2343 36.6291 46 37.6352 46H39.1999C39.5352 46 39.8706 45.6717 39.8706 45.3434V29.6958H42.4413C42.7766 29.6958 43 29.4772 43 29.1488V28.0543ZM35.8471 37.4645C35.1764 37.7928 34.2824 37.9024 33.6117 37.9024C31.8236 37.9024 30.9296 37.0271 30.9296 35.0573V29.8049H35.8471V37.4645Z" fill="white"/>
<path fill-rule="evenodd" clip-rule="evenodd" d="M16.9289 15.9289C14 18.8579 14 23.5719 14 33C14 42.428 14 47.1422 16.9289 50.071C19.8579 53 24.5719 53 34 53C43.428 53 48.1422 53 51.071 50.071C54 47.1422 54 42.428 54 33C54 23.5719 54 18.8579 51.071 15.9289C48.1422 13 43.428 13 34 13C24.5719 13 19.8579 13 16.9289 15.9289ZM36.9762 21.8918C37.7764 22.1062 38.2512 22.9287 38.0368 23.7289L32.8604 43.0474C32.646 43.8476 31.8234 44.3226 31.0232 44.1082C30.223 43.8936 29.7482 43.0712 29.9626 42.271L35.139 22.9525C35.3534 22.1523 36.176 21.6774 36.9762 21.8918ZM39.9394 25.9393C40.5252 25.3536 41.4748 25.3536 42.0606 25.9393L42.4774 26.356C43.748 27.6266 44.8076 28.6862 45.5356 29.6404C46.3042 30.6476 46.8432 31.7118 46.8432 33C46.8432 34.2882 46.3042 35.3524 45.5356 36.3596C44.8076 37.3138 43.748 38.3734 42.4774 39.644L42.0606 40.0606C41.4748 40.6464 40.5252 40.6464 39.9394 40.0606C39.3536 39.4748 39.3536 38.5252 39.9394 37.9394L40.2824 37.5962C41.6458 36.2328 42.5594 35.3148 43.1506 34.5398C43.7154 33.7996 43.8432 33.3686 43.8432 33C43.8432 32.6314 43.7154 32.2004 43.1506 31.4602C42.5594 30.6852 41.6458 29.7672 40.2824 28.4038L39.9394 28.0607C39.3536 27.4749 39.3536 26.5251 39.9394 25.9393ZM25.9397 25.9393C26.5255 25.3536 27.4752 25.3536 28.061 25.9393C28.6468 26.5251 28.6468 27.4749 28.061 28.0607L27.7179 28.4038C26.3546 29.7672 25.441 30.6852 24.8498 31.4602C24.2849 32.2004 24.1572 32.6314 24.1572 33C24.1572 33.3686 24.2849 33.7996 24.8498 34.5398C25.441 35.3148 26.3546 36.2328 27.7179 37.5962L28.061 37.9394C28.6468 38.5252 28.6468 39.4748 28.061 40.0606C27.4752 40.6464 26.5255 40.6464 25.9397 40.0606L25.523 39.644C24.2523 38.3734 23.1928 37.3138 22.4647 36.3596C21.6962 35.3524 21.1572 34.2882 21.1572 33C21.1572 31.7118 21.6962 30.6476 22.4647 29.6404C23.1928 28.6862 24.2523 27.6266 25.523 26.356L25.9397 25.9393Z" fill="#0866FF"/>
</g>
<defs>
<filter id="filter0_d_2396_9477" x="0.849609" y="0.849609" width="66.3008" height="66.3008" filterUnits="userSpaceOnUse" color-interpolation-filters="sRGB">
<feFlood flood-opacity="0" result="BackgroundImageFix"/>
<feColorMatrix in="SourceAlpha" type="matrix" values="0 0 0 0 0 0 0 0 0 0 0 0 0 0 0 0 0 0 127 0" result="hardAlpha"/>
<feOffset dy="1"/>
<feGaussianBlur stdDeviation="2"/>
<feComposite in2="hardAlpha" operator="out"/>
<feColorMatrix type="matrix" values="0 0 0 0 0.0431373 0 0 0 0 0.239216 0 0 0 0 0.376471 0 0 0 0.1 0"/>
<feBlend mode="normal" in2="BackgroundImageFix" result="effect1_dropShadow_2396_9477"/>
<feBlend mode="normal" in="SourceGraphic" in2="effect1_dropShadow_2396_9477" result="shape"/>
</filter>
</defs>
</svg>
