<svg width="142" height="34" viewBox="0 0 142 34" fill="none" xmlns="http://www.w3.org/2000/svg">
<g id="razorpay vector illus" clip-path="url(#clip0_937_7185)">
<path id="Vector" d="M9.12959 8.96576L7.94922 13.8725L14.7054 8.93782L10.2867 27.5577L14.7744 27.5619L21.302 0.0595703" fill="#3395FF"/>
<path id="Vector_2" d="M1.85862 19.7342L0 27.562H9.19792L12.9616 11.638L1.85862 19.7342ZM33.8089 12.8425C33.584 13.7863 33.1509 14.4795 32.5048 14.9222C31.8603 15.3641 30.9557 15.5858 29.7881 15.5858H26.0784L27.3809 10.1009H31.0907C32.2568 10.1009 33.0579 10.321 33.4926 10.7696C33.9273 11.2182 34.0322 11.9038 33.8089 12.8518M37.6498 12.7333C38.1219 10.7527 37.9271 9.22909 37.0637 8.16259C36.2019 7.10454 34.6895 6.57129 32.5311 6.57129H24.252L19.2682 27.5713H23.2904L25.299 19.107H27.937C28.5291 19.107 28.9952 19.217 29.3355 19.4286C29.6765 19.6487 29.8766 20.0296 29.938 20.5798L30.656 27.5713H34.9653L34.2668 21.0538C34.1244 19.5979 33.5346 18.743 32.4981 18.4891C33.8194 18.0574 34.9263 17.3379 35.8181 16.3391C36.7038 15.3477 37.3365 14.105 37.6498 12.7418M47.427 20.055C47.0898 21.477 46.5727 22.552 45.8734 23.3053C45.1734 24.0586 44.3371 24.4311 43.3613 24.4311C42.3675 24.4311 41.6938 24.0671 41.3378 23.3307C40.9811 22.5943 40.9691 21.5278 41.3003 20.1312C41.6316 18.7346 42.1599 17.6427 42.8869 16.8555C43.6138 16.0683 44.4637 15.6747 45.4395 15.6747C46.4138 15.6747 47.0808 16.0556 47.418 16.8115C47.7628 17.5707 47.7703 18.6567 47.433 20.0702L47.427 20.055ZM49.1897 12.6233L48.6861 14.7478C48.4687 13.9861 48.0468 13.3766 47.4233 12.9195C46.7982 12.4709 46.0248 12.2424 45.1022 12.2424C43.9706 12.2424 42.8839 12.5725 41.8422 13.2327C40.8004 13.8929 39.8861 14.824 39.1067 16.026C38.3273 17.2279 37.7577 18.5907 37.3905 20.1227C37.0307 21.6632 36.9558 23.0091 37.1731 24.1771C37.398 25.3537 37.8701 26.2509 38.5971 26.8773C39.3315 27.5121 40.2683 27.8253 41.415 27.8253C42.3261 27.8305 43.227 27.6079 44.053 27.1735C44.8697 26.7575 45.5961 26.1451 46.1814 25.3791L45.6568 27.5933H49.5464L53.098 12.6309H49.2009L49.1897 12.6233ZM67.0752 12.6233H55.7638L54.9732 15.9582H61.5548L52.8537 24.448L52.1103 27.5798H63.7866L64.5773 24.2448H57.525L66.3594 15.6281M77.0315 20.0296C76.6815 21.5024 76.1622 22.6095 75.4764 23.3307C74.7907 24.0586 73.9603 24.4226 72.9853 24.4226C70.9468 24.4226 70.2768 22.9583 70.9723 20.0296C71.317 18.5737 71.8386 17.4793 72.5356 16.742C73.2326 16.0023 74.0772 15.6332 75.0702 15.6332C76.0445 15.6332 76.7025 15.9997 77.0413 16.7378C77.38 17.4742 77.377 18.572 77.0315 20.0279M79.3083 13.1862C78.4127 12.5564 77.2698 12.2416 75.8759 12.2416C74.4647 12.2416 73.1584 12.5547 71.9563 13.1811C70.7592 13.8035 69.7071 14.7327 68.8836 15.8948C68.0367 17.0713 67.4274 18.451 67.0534 20.0254C66.6862 21.5938 66.6412 22.971 66.926 24.15C67.2108 25.3266 67.8104 26.2323 68.7097 26.8586C69.6165 27.4901 70.7707 27.8041 72.1871 27.8041C73.5811 27.8041 74.8776 27.4875 76.0692 26.8578C77.2608 26.2247 78.2801 25.3257 79.127 24.1407C79.9738 22.9608 80.5809 21.5845 80.9556 20.0101C81.3303 18.4358 81.3753 17.0612 81.0905 15.8795C80.8057 14.703 80.2136 13.7973 79.3218 13.1667M93.194 16.6202L94.1908 12.5488C93.8535 12.3541 93.4113 12.2526 92.8568 12.2526C91.9649 12.2526 91.1105 12.5014 90.2862 13.0059C89.5772 13.4342 88.9746 14.0385 88.465 14.7952L88.9821 12.603L87.8527 12.6081H85.0798L81.5049 27.5646H85.4493L87.3041 19.746C87.5739 18.6093 88.0596 17.7146 88.7603 17.0798C89.4573 16.4424 90.3266 16.1233 91.3759 16.1233C92.0204 16.1233 92.6199 16.2901 93.1895 16.6227M104.169 20.1015C103.832 21.4982 103.322 22.5647 102.625 23.3011C101.928 24.0409 101.089 24.4099 100.114 24.4099C99.1401 24.4099 98.4731 24.0375 98.1208 23.2926C97.7611 22.5435 97.7536 21.4643 98.0909 20.0457C98.4281 18.6279 98.9452 17.5402 99.6572 16.7869C100.369 16.0277 101.209 15.6485 102.183 15.6485C103.142 15.6485 103.787 16.0378 104.131 16.825C104.476 17.6122 104.484 18.7041 104.152 20.1007M106.91 13.2107C106.18 12.5505 105.247 12.2204 104.115 12.2204C103.123 12.2204 102.178 12.4743 101.282 12.9873C100.386 13.4994 99.6595 14.1977 99.1011 15.0813L99.1146 14.9798L99.7764 12.6013H95.9242L94.9425 16.7404L94.9125 16.8842L90.8655 33.9348H94.815L96.8535 25.352C97.0559 26.1155 97.4681 26.7147 98.0976 27.1481C98.7271 27.5798 99.5043 27.7939 100.428 27.7939C101.575 27.7939 102.669 27.4808 103.707 26.8544C104.749 26.2263 105.648 25.3224 106.413 24.1543C107.177 22.9862 107.744 21.6319 108.106 20.0999C108.474 18.5653 108.549 17.1966 108.339 15.9989C108.125 14.7995 107.652 13.8709 106.922 13.2141M120.011 20.0406C119.674 21.4541 119.157 22.5376 118.46 23.2824C117.763 24.0324 116.924 24.4057 115.949 24.4057C114.953 24.4057 114.278 24.0417 113.926 23.3053C113.566 22.5689 113.559 21.5024 113.888 20.1058C114.218 18.7092 114.744 17.6173 115.471 16.8301C116.198 16.0429 117.049 15.6501 118.025 15.6501C118.999 15.6501 119.658 16.031 120.003 16.7844C120.348 17.5402 120.35 18.6262 120.014 20.0431L120.011 20.0406ZM121.773 12.6047L121.268 14.7292C121.051 13.9632 120.631 13.3538 120.009 12.9009C119.38 12.4489 118.608 12.2238 117.686 12.2238C116.554 12.2238 115.461 12.5539 114.418 13.2141C113.377 13.8743 112.462 14.8003 111.683 15.9989C110.903 17.1974 110.334 18.5636 109.967 20.0956C109.603 21.6336 109.532 22.982 109.749 24.1551C109.969 25.3232 110.442 26.2255 111.173 26.8552C111.903 27.4816 112.844 27.7982 113.991 27.7982C114.913 27.7982 115.793 27.5815 116.629 27.1464C117.444 26.7285 118.168 26.1153 118.752 25.3494L118.228 27.5654H122.117L125.668 12.6089H121.779L121.773 12.6047ZM141.998 12.6098L142 12.6055H139.609C139.533 12.6055 139.465 12.6098 139.396 12.6114H138.155L137.518 13.6102L137.361 13.8472L137.293 13.9657L132.253 21.8951L131.212 12.6098H127.084L129.175 26.7198L124.558 33.9399H128.673L129.789 32.1514C129.821 32.0989 129.849 32.0549 129.887 31.999L131.191 29.9083L131.228 29.8491L137.069 20.496L141.992 12.6241L142 12.6191H141.998V12.6098Z" fill="#072654"/>
</g>
<defs>
<clipPath id="clip0_937_7185">
<rect width="142" height="34" fill="white"/>
</clipPath>
</defs>
</svg>
