<svg width="142" height="30" viewBox="0 0 142 30" fill="none" xmlns="http://www.w3.org/2000/svg">
<g id="shiprocket Vector illustration" clip-path="url(#clip0_0_4130)">
<g id="Clip path group">
<mask id="mask0_0_4130" style="mask-type:luminance" maskUnits="userSpaceOnUse" x="0" y="0" width="142" height="30">
<g id="clip0_1364_646">
<path id="Vector" d="M141.986 0.0234375H0.269531V29.9554H141.986V0.0234375Z" fill="white"/>
</g>
</mask>
<g mask="url(#mask0_0_4130)">
<g id="Group">
<path id="Vector_2" fill-rule="evenodd" clip-rule="evenodd" d="M10.7572 20.9078L18.8115 16.3459C19.0532 16.2129 19.2551 16.0168 19.3956 15.7781C19.5362 15.5393 19.6104 15.2668 19.6104 14.9892C19.6104 14.7115 19.5362 14.439 19.3956 14.2003C19.2551 13.9616 19.0532 13.7653 18.8115 13.6323L10.9307 9.16767C10.6937 8.99653 10.4149 8.89393 10.1243 8.87105C9.83368 8.84819 9.54239 8.90582 9.28197 9.03782C9.02156 9.16979 8.8019 9.37113 8.6468 9.61993C8.49171 9.8687 8.40705 10.1555 8.40203 10.4493V19.5269C8.40699 19.8029 8.4825 20.0729 8.62121 20.311C8.75992 20.549 8.95716 20.747 9.19394 20.8858C9.43069 21.0245 9.69896 21.0994 9.97282 21.1032C10.2467 21.1069 10.5168 21.0394 10.7572 20.9072V20.9078ZM12.1238 7.23433L22.461 13.0895C22.7827 13.271 23.1451 13.3662 23.5137 13.3662C23.8824 13.3662 24.2448 13.271 24.5665 13.0895L24.6374 13.0494C24.8793 12.9164 25.0812 12.7202 25.222 12.4814C25.3627 12.2425 25.4369 11.9699 25.4369 11.6921C25.4369 11.4144 25.3627 11.1417 25.222 10.9029C25.0812 10.6641 24.8793 10.468 24.6374 10.3351L10.9307 2.57173C10.6935 2.40184 10.4149 2.30039 10.1248 2.2781C9.83464 2.25581 9.54398 2.31364 9.28399 2.44534C9.02402 2.57704 8.80456 2.77766 8.64915 3.02565C8.49378 3.27362 8.40832 3.55947 8.40203 3.85273V4.00302C8.40061 4.0679 8.38247 4.13139 8.34934 4.18705C8.31621 4.2427 8.26927 4.28862 8.21315 4.32042C8.157 4.35222 8.09363 4.36867 8.02923 4.36825C7.96486 4.36782 7.90168 4.35062 7.84599 4.31807L6.35054 3.47107C6.28396 3.43436 6.23068 3.37736 6.19842 3.30813C6.16617 3.23893 6.15656 3.16116 6.17101 3.08607C6.31352 2.46763 6.60101 1.89252 7.00941 1.40916C7.41781 0.925792 7.93519 0.548286 8.51821 0.308035C9.10123 0.0677806 9.73286 -0.0282005 10.3602 0.0283512C10.9875 0.0849028 11.5923 0.292337 12.1238 0.633057L25.7913 8.37513C26.3793 8.69927 26.8703 9.17645 27.2133 9.75676C27.5563 10.3371 27.7387 10.9993 27.7416 11.6748C27.7445 12.3504 27.5677 13.0143 27.2297 13.5976C26.8917 14.1809 26.4048 14.6623 25.8197 14.9915L9.52632 24.2194C9.18725 24.4081 8.9043 24.6848 8.70666 25.0205C8.50902 25.3563 8.40384 25.7392 8.40203 26.1296C8.40821 26.4229 8.49355 26.709 8.6489 26.9571C8.80425 27.2051 9.02371 27.4057 9.2837 27.5375C9.5437 27.6693 9.83441 27.7272 10.1246 27.7049C10.4148 27.6827 10.6934 27.5812 10.9307 27.4113L24.6374 19.6473C24.8792 19.5143 25.0809 19.3182 25.2215 19.0794C25.3621 18.8407 25.4363 18.5682 25.4363 18.2906C25.4363 18.0129 25.3621 17.7403 25.2215 17.5015C25.0809 17.2628 24.8792 17.0666 24.6374 16.9337L24.5024 16.8574C24.4464 16.8265 24.3996 16.781 24.3671 16.7256C24.3345 16.6702 24.3173 16.607 24.3173 16.5426C24.3173 16.4782 24.3345 16.4149 24.3671 16.3595C24.3996 16.3041 24.4464 16.2584 24.5024 16.2275L25.9958 15.382C26.0631 15.3436 26.1404 15.327 26.2173 15.3341C26.2943 15.3413 26.3672 15.372 26.4264 15.4222C26.8878 15.8194 27.2466 16.3238 27.4718 16.8918C27.697 17.4598 27.7819 18.0746 27.7193 18.683C27.6566 19.2915 27.4482 19.8754 27.112 20.3847C26.7758 20.894 26.3219 21.3132 25.7893 21.6064L12.1218 29.3486C11.5399 29.7254 10.8695 29.94 10.1787 29.9706C9.48789 30.0012 8.80136 29.8469 8.18894 29.5232C7.57653 29.1994 7.06011 28.718 6.69228 28.1278C6.32444 27.5375 6.11827 26.8597 6.09477 26.163V7.55205C6.0931 7.20802 6.00047 6.87073 5.82647 6.57482C5.65244 6.27887 5.40334 6.03507 5.10477 5.86847C4.86753 5.69853 4.58889 5.59693 4.29871 5.57467C4.00853 5.55239 3.71781 5.6103 3.45782 5.74207C3.1978 5.87385 2.97834 6.07445 2.823 6.32253C2.66766 6.57059 2.58231 6.85665 2.57613 7.14996V22.8276C2.58219 23.121 2.66746 23.407 2.82276 23.6552C2.97805 23.9034 3.19749 24.1043 3.45751 24.2361C3.71753 24.368 4.00831 24.4258 4.29854 24.4036C4.58878 24.3813 4.8675 24.2799 5.10477 24.1099C5.16043 24.0774 5.22355 24.06 5.28786 24.0596C5.3522 24.0591 5.41552 24.0756 5.47164 24.1073C5.52776 24.139 5.5747 24.1849 5.60786 24.2404C5.64105 24.296 5.6593 24.3593 5.66083 24.4241V26.1105C5.66015 26.1878 5.63527 26.2629 5.58969 26.3251C5.54412 26.3873 5.4802 26.4334 5.4071 26.4568C4.8285 26.6576 4.21093 26.7175 3.60498 26.6315C2.999 26.5456 2.42185 26.3161 1.92072 25.9621C1.41958 25.608 1.00872 25.1395 0.721726 24.5947C0.434733 24.0499 0.279774 23.4444 0.269531 22.8276V7.14996C0.284445 6.46962 0.474229 5.80482 0.820332 5.22056C1.16643 4.63633 1.65702 4.15259 2.24411 3.81667C2.8312 3.48079 3.4947 3.30433 4.16975 3.30433C4.84483 3.3043 5.50832 3.48079 6.09542 3.81667C8.10556 4.95365 10.115 6.09176 12.1238 7.23099V7.23433Z" fill="#2A0C64"/>
<path id="Vector_3" d="M10.5186 17.9195C10.5182 18.0288 10.5477 18.1359 10.6039 18.2294C10.66 18.3229 10.7407 18.3989 10.837 18.4491C10.9333 18.4994 11.0414 18.5218 11.1495 18.5141C11.2577 18.5063 11.3616 18.4686 11.4498 18.4051L16.5024 15.4643C16.5919 15.4123 16.6663 15.3374 16.718 15.2472C16.7698 15.157 16.797 15.0546 16.797 14.9504C16.797 14.8462 16.7698 14.7439 16.718 14.6536C16.6663 14.5634 16.5919 14.4884 16.5024 14.4364L11.4498 11.4956C11.3615 11.4324 11.2577 11.395 11.1496 11.3873C11.0416 11.3797 10.9336 11.4022 10.8374 11.4524C10.7412 11.5026 10.6605 11.5785 10.6043 11.6718C10.548 11.7651 10.5184 11.8722 10.5186 11.9814V17.9195Z" fill="#18F040"/>
<path id="Vector_4" d="M45.1296 8.31682L43.0234 9.57465C42.7632 9.03956 42.3769 8.57691 41.8985 8.22702C41.4637 7.97054 40.9646 7.84582 40.4612 7.86785C39.8081 7.84411 39.1696 8.06376 38.6673 8.48485C38.4406 8.66765 38.2583 8.90042 38.1348 9.16528C38.0109 9.43014 37.9491 9.72005 37.9539 10.0127C37.9539 10.859 38.578 11.5404 39.826 12.057L41.5422 12.7651C42.7235 13.1842 43.7788 13.9016 44.6067 14.8488C45.2668 15.7103 45.6095 16.7764 45.5757 17.8645C45.5981 18.5981 45.4689 19.3285 45.1965 20.0092C44.9241 20.6899 44.5143 21.3061 43.9933 21.8188C43.4727 22.3358 42.8539 22.7415 42.1742 23.0118C41.4946 23.282 40.7676 23.4112 40.0372 23.3917C38.6795 23.4411 37.355 22.9623 36.3378 22.0542C35.3228 21.0493 34.6885 19.7183 34.5439 18.2916L37.1759 17.7073C37.2079 18.4514 37.4225 19.1759 37.8003 19.8161C38.0565 20.1395 38.3765 20.4056 38.7402 20.5977C39.1038 20.7899 39.5029 20.9038 39.9125 20.9323C40.322 20.9608 40.733 20.9033 41.1193 20.7634C41.5056 20.6235 41.8591 20.4043 42.157 20.1195C42.4231 19.8457 42.6314 19.5202 42.7695 19.1629C42.9072 18.8056 42.9718 18.4238 42.9594 18.0406C42.9628 17.7263 42.9157 17.4134 42.8202 17.1141C42.7255 16.8303 42.5781 16.5674 42.3857 16.3393C42.1646 16.0819 41.9075 15.8584 41.6224 15.676C41.2684 15.4477 40.8957 15.2504 40.5082 15.0862L38.8482 14.3896C36.4931 13.3869 35.3155 11.9191 35.3155 9.98619C35.3058 9.36422 35.4342 8.74791 35.691 8.18228C35.9478 7.61668 36.3267 7.11599 36.8001 6.71682C37.8193 5.82171 39.137 5.34831 40.4881 5.39165C42.4682 5.39436 44.0151 6.36942 45.1296 8.31682Z" fill="black"/>
<path id="Vector_5" d="M48.2275 4.10376H50.7345V13.0452C51.5292 12.276 52.5856 11.8421 53.6876 11.8323C54.2346 11.8082 54.7805 11.903 55.2881 12.1104C55.7958 12.3178 56.2532 12.633 56.6291 13.0344C57.2532 13.7314 57.5652 14.8425 57.5652 16.3677V23.0731H55.0583V16.6031C55.1138 15.9343 54.9511 15.2654 54.5951 14.6983C54.4103 14.4903 54.1799 14.3287 53.922 14.2263C53.6644 14.1239 53.3866 14.0836 53.1105 14.1085C52.7582 14.0721 52.4025 14.1286 52.0783 14.2724C51.754 14.4162 51.4723 14.6424 51.2608 14.9289C50.8416 15.8174 50.6611 16.8012 50.7371 17.782V23.0725H48.2301L48.2275 4.10376Z" fill="black"/>
<path id="Vector_6" d="M60.3623 7.58556C60.3677 7.1533 60.5411 6.74041 60.8453 6.43584C61.1497 6.13124 61.5604 5.95927 61.9895 5.95699C62.2049 5.95356 62.4189 5.99456 62.6181 6.0775C62.8174 6.16044 62.9977 6.28356 63.1482 6.4393C63.3032 6.58799 63.4259 6.76761 63.5084 6.9667C63.5909 7.16581 63.6314 7.38004 63.6272 7.59576C63.6306 7.81313 63.59 8.0289 63.5076 8.22979C63.4251 8.43067 63.3029 8.61241 63.1482 8.76379C63.0005 8.92016 62.8225 9.04384 62.625 9.12701C62.4274 9.21016 62.2148 9.25096 62.0008 9.24679C61.7849 9.24699 61.5709 9.20401 61.371 9.12039C61.1715 9.03676 60.9904 8.9141 60.8382 8.75953C60.686 8.60496 60.5655 8.42153 60.4839 8.21979C60.4026 8.01807 60.3612 7.80204 60.3629 7.58421L60.3623 7.58556ZM63.2485 12.1346V23.0754H60.741V12.1346H63.2485Z" fill="black"/>
<path id="Vector_7" d="M68.9308 29.2012H66.4238V12.3073H68.9308V13.4978C69.361 13.0302 69.8814 12.6563 70.4602 12.3989C71.039 12.1416 71.6637 12.0062 72.2963 12.0012C72.9952 11.9839 73.6891 12.1242 74.3271 12.4119C74.9654 12.6995 75.5317 13.1272 75.9849 13.6638C76.9834 14.8136 77.5095 16.3039 77.4553 17.8311C77.5041 19.3352 76.9823 20.8015 75.9957 21.9311C75.556 22.4354 75.0161 22.8411 74.411 23.1217C73.8058 23.4023 73.1491 23.5517 72.4831 23.5602C71.817 23.5686 71.1569 23.436 70.5449 23.1708C69.933 22.9057 69.3832 22.5139 68.9308 22.0209V29.2012ZM74.8931 17.8447C74.9331 16.915 74.6315 16.0031 74.0462 15.2835C73.7837 14.964 73.4535 14.7083 73.0797 14.5353C72.7058 14.3623 72.298 14.2764 71.8867 14.2842C71.4658 14.2693 71.0469 14.3482 70.6597 14.5151C70.2726 14.6821 69.9268 14.9331 69.6467 15.2502C69.0527 15.9563 68.746 16.8632 68.7885 17.7883C68.7534 18.7124 69.0592 19.6168 69.6467 20.327C69.922 20.6473 70.2649 20.9013 70.6504 21.0705C71.0356 21.2396 71.4536 21.3196 71.874 21.3046C72.283 21.3138 72.6891 21.2296 73.0615 21.0585C73.4337 20.8873 73.763 20.6336 74.0247 20.3162C74.6136 19.6311 74.9237 18.7467 74.8925 17.8406L74.8931 17.8447Z" fill="black"/>
<path id="Vector_8" d="M80.1074 12.2309H82.6147V13.2084C82.9653 12.8091 83.3794 12.4712 83.84 12.2084C84.2427 12.0127 84.6857 11.9164 85.1324 11.9275C85.8691 11.9505 86.5859 12.1758 87.2049 12.5792L86.0575 14.8921C85.6593 14.5758 85.1715 14.395 84.6647 14.3758C83.298 14.3758 82.6147 15.4168 82.6147 17.4989V23.1717H80.1074V12.2309Z" fill="black"/>
<path id="Vector_9" d="M87.9312 17.6243C87.9193 16.8714 88.063 16.1242 88.3526 15.4301C88.6423 14.736 89.072 14.1102 89.6142 13.5923C90.721 12.5233 92.1954 11.9276 93.7282 11.9297C95.261 11.9319 96.7338 12.5318 97.8377 13.6038C98.91 14.7016 99.5103 16.1811 99.5083 17.7217C99.5063 19.2624 98.9023 20.7402 97.8269 21.8351C97.2785 22.3761 96.6283 22.8009 95.9143 23.0845C95.2007 23.3682 94.4377 23.505 93.6707 23.4868C92.9105 23.5054 92.1546 23.3653 91.4508 23.0753C90.7468 22.7854 90.1099 22.3517 89.5805 21.8018C89.0371 21.2558 88.6106 20.6035 88.3271 19.885C88.0434 19.1666 87.9085 18.3972 87.9312 17.6243ZM90.4954 17.6692C90.4441 18.6144 90.7553 19.5433 91.3647 20.2637C91.9933 20.881 92.8357 21.2274 93.7135 21.2296C94.591 21.2317 95.4351 20.8895 96.0668 20.2753C96.6377 19.5494 96.9483 18.6504 96.9483 17.7243C96.9483 16.7981 96.6377 15.8991 96.0668 15.1732C95.443 14.5541 94.6023 14.2071 93.7268 14.2071C92.8513 14.2071 92.0109 14.5541 91.3868 15.1732C90.7771 15.8556 90.4566 16.7515 90.494 17.6692H90.4954Z" fill="black"/>
<path id="Vector_10" d="M110.608 12.7045V16.063C110.182 15.4939 109.662 15.0037 109.07 14.614C108.593 14.3361 108.049 14.1963 107.498 14.2099C107.058 14.1986 106.621 14.2819 106.216 14.4542C105.81 14.6265 105.446 14.8839 105.147 15.2093C104.519 15.8867 104.182 16.7872 104.211 17.714C104.175 18.6427 104.499 19.5489 105.113 20.2419C105.408 20.5652 105.769 20.8208 106.171 20.9913C106.573 21.1619 107.006 21.2434 107.442 21.2303C107.998 21.2419 108.547 21.1066 109.035 20.8378C109.639 20.4377 110.171 19.9361 110.606 19.3548V22.6882C109.668 23.1992 108.619 23.4728 107.553 23.4855C106.778 23.5074 106.006 23.3737 105.283 23.0922C104.56 22.8106 103.9 22.3867 103.341 21.8453C102.79 21.3192 102.355 20.6825 102.063 19.9763C101.771 19.2701 101.629 18.5101 101.647 17.7453C101.632 16.9738 101.777 16.2076 102.072 15.4958C102.368 14.7839 102.808 14.1421 103.363 13.6113C103.917 13.0601 104.576 12.6268 105.299 12.3373C106.023 12.0478 106.797 11.9081 107.575 11.9263C108.635 11.9243 109.678 12.192 110.608 12.7045Z" fill="black"/>
<path id="Vector_11" d="M116.135 4.10376V15.6738L119.666 12.1364H123.032L118.318 16.731L123.379 23.0772H120.125L116.538 18.4609L116.138 18.865V23.0772H113.63V4.1051L116.135 4.10376Z" fill="black"/>
<path id="Vector_12" d="M134.509 18.2985H126.727C126.752 19.0958 127.061 19.8574 127.597 20.444C127.854 20.7051 128.163 20.9096 128.502 21.045C128.842 21.1803 129.205 21.2434 129.57 21.2304C130.121 21.2521 130.664 21.0944 131.118 20.7808C131.666 20.3093 132.129 19.7473 132.489 19.1189L134.607 20.3094C134.312 20.8256 133.965 21.3092 133.571 21.7522C133.228 22.1348 132.834 22.4677 132.4 22.7413C131.983 23 131.527 23.1915 131.051 23.3087C130.536 23.4322 130.008 23.4928 129.478 23.489C128.755 23.5206 128.033 23.3966 127.361 23.1255C126.688 22.8543 126.081 22.4421 125.578 21.9162C124.562 20.7636 124.033 19.2553 124.107 17.7148C124.038 16.1832 124.548 14.6821 125.533 13.5141C126.543 12.5071 127.904 11.9386 129.324 11.9304C130.744 11.9221 132.112 12.4747 133.133 13.4699C134.111 14.653 134.605 16.1673 134.514 17.7046L134.509 18.2985ZM131.935 16.2318C131.838 15.6383 131.525 15.1025 131.057 14.7287C130.59 14.355 130.001 14.1701 129.405 14.21C129.113 14.2079 128.823 14.2556 128.547 14.3508C128.283 14.4428 128.036 14.5794 127.818 14.7549C127.596 14.9334 127.406 15.1479 127.255 15.3896C127.093 15.6498 126.972 15.934 126.898 16.2318H131.935Z" fill="black"/>
<path id="Vector_13" d="M140.036 14.563V23.1453H137.528V14.563H136.459V12.2038H137.528V8.1936H140.036V12.2038H141.986V14.563H140.036Z" fill="black"/>
</g>
</g>
</g>
</g>
<defs>
<clipPath id="clip0_0_4130">
<rect width="142" height="30" fill="white"/>
</clipPath>
</defs>
</svg>
