<svg width="142" height="30" viewBox="0 0 142 30" fill="none" xmlns="http://www.w3.org/2000/svg">
<g id="shiprocket Vector illustration" clip-path="url(#clip0_956_9745)">
<g id="Clip path group">
<mask id="mask0_956_9745" style="mask-type:luminance" maskUnits="userSpaceOnUse" x="0" y="0" width="142" height="30">
<g id="clip0_1364_646">
<path id="Vector" d="M141.986 0.0234375H0.269531V29.9554H141.986V0.0234375Z" fill="white"/>
</g>
</mask>
<g mask="url(#mask0_956_9745)">
<g id="Group">
<path id="Vector_2" fill-rule="evenodd" clip-rule="evenodd" d="M10.7572 20.908L18.8115 16.346C19.0532 16.2131 19.2551 16.0169 19.3956 15.7782C19.5362 15.5395 19.6104 15.267 19.6104 14.9893C19.6104 14.7117 19.5362 14.4392 19.3956 14.2004C19.2551 13.9617 19.0532 13.7654 18.8115 13.6324L10.9307 9.1678C10.6937 8.99665 10.4149 8.89405 10.1243 8.87117C9.83368 8.84831 9.54239 8.90594 9.28197 9.03794C9.02156 9.16991 8.8019 9.37125 8.6468 9.62005C8.49171 9.86882 8.40705 10.1557 8.40203 10.4495V19.527C8.40699 19.803 8.4825 20.073 8.62121 20.3111C8.75992 20.5491 8.95716 20.7471 9.19394 20.8859C9.43069 21.0247 9.69896 21.0995 9.97282 21.1033C10.2467 21.107 10.5168 21.0395 10.7572 20.9073V20.908ZM12.1238 7.23445L22.461 13.0897C22.7827 13.2712 23.1451 13.3664 23.5137 13.3664C23.8824 13.3664 24.2448 13.2712 24.5665 13.0897L24.6374 13.0495C24.8793 12.9166 25.0812 12.7203 25.222 12.4815C25.3627 12.2427 25.4369 11.97 25.4369 11.6923C25.4369 11.4145 25.3627 11.1419 25.222 10.903C25.0812 10.6642 24.8793 10.4681 24.6374 10.3352L10.9307 2.57185C10.6935 2.40196 10.4149 2.30051 10.1248 2.27822C9.83464 2.25593 9.54398 2.31377 9.28399 2.44546C9.02402 2.57716 8.80456 2.77778 8.64915 3.02577C8.49378 3.27374 8.40832 3.5596 8.40203 3.85285V4.00314C8.40061 4.06803 8.38247 4.13151 8.34934 4.18717C8.31621 4.24283 8.26927 4.28874 8.21315 4.32054C8.157 4.35234 8.09363 4.3688 8.02923 4.36837C7.96486 4.36794 7.90168 4.35074 7.84599 4.3182L6.35054 3.4712C6.28396 3.43448 6.23068 3.37748 6.19842 3.30825C6.16617 3.23905 6.15656 3.16128 6.17101 3.0862C6.31352 2.46775 6.60101 1.89265 7.00941 1.40928C7.41781 0.925914 7.93519 0.548408 8.51821 0.308157C9.10123 0.0679027 9.73286 -0.0280784 10.3602 0.0284733C10.9875 0.0850249 11.5923 0.29246 12.1238 0.633179L25.7913 8.37525C26.3793 8.6994 26.8703 9.17657 27.2133 9.75688C27.5563 10.3372 27.7387 10.9995 27.7416 11.675C27.7445 12.3505 27.5677 13.0144 27.2297 13.5977C26.8917 14.181 26.4048 14.6624 25.8197 14.9916L9.52632 24.2195C9.18725 24.4082 8.9043 24.6849 8.70666 25.0207C8.50902 25.3565 8.40384 25.7393 8.40203 26.1298C8.40821 26.4231 8.49355 26.7091 8.6489 26.9572C8.80425 27.2053 9.02371 27.4059 9.2837 27.5377C9.5437 27.6694 9.83441 27.7273 10.1246 27.7051C10.4148 27.6828 10.6934 27.5813 10.9307 27.4114L24.6374 19.6474C24.8792 19.5145 25.0809 19.3183 25.2215 19.0796C25.3621 18.8408 25.4363 18.5683 25.4363 18.2907C25.4363 18.0131 25.3621 17.7404 25.2215 17.5016C25.0809 17.2629 24.8792 17.0668 24.6374 16.9338L24.5024 16.8576C24.4464 16.8266 24.3996 16.7811 24.3671 16.7257C24.3345 16.6703 24.3173 16.6071 24.3173 16.5427C24.3173 16.4783 24.3345 16.4151 24.3671 16.3597C24.3996 16.3043 24.4464 16.2586 24.5024 16.2276L25.9958 15.3821C26.0631 15.3438 26.1404 15.3271 26.2173 15.3343C26.2943 15.3414 26.3672 15.3722 26.4264 15.4223C26.8878 15.8196 27.2466 16.3239 27.4718 16.8919C27.697 17.46 27.7819 18.0747 27.7193 18.6831C27.6566 19.2916 27.4482 19.8755 27.112 20.3848C26.7758 20.8941 26.3219 21.3133 25.7893 21.6065L12.1218 29.3487C11.5399 29.7256 10.8695 29.9401 10.1787 29.9707C9.48789 30.0013 8.80136 29.847 8.18894 29.5233C7.57653 29.1996 7.06011 28.7181 6.69228 28.1279C6.32444 27.5377 6.11827 26.8598 6.09477 26.1631V7.55217C6.0931 7.20814 6.00047 6.87085 5.82647 6.57494C5.65244 6.279 5.40334 6.0352 5.10477 5.8686C4.86753 5.69865 4.58889 5.59705 4.29871 5.5748C4.00853 5.55251 3.71781 5.61042 3.45782 5.7422C3.1978 5.87397 2.97834 6.07457 2.823 6.32265C2.66766 6.57071 2.58231 6.85677 2.57613 7.15008V22.8277C2.58219 23.1211 2.66746 23.4071 2.82276 23.6553C2.97805 23.9035 3.19749 24.1044 3.45751 24.2363C3.71753 24.3681 4.00831 24.4259 4.29854 24.4037C4.58878 24.3815 4.8675 24.28 5.10477 24.1101C5.16043 24.0775 5.22355 24.0602 5.28786 24.0597C5.3522 24.0593 5.41552 24.0757 5.47164 24.1074C5.52776 24.1391 5.5747 24.185 5.60786 24.2406C5.64105 24.2961 5.6593 24.3594 5.66083 24.4243V26.1107C5.66015 26.188 5.63527 26.2631 5.58969 26.3253C5.54412 26.3874 5.4802 26.4336 5.4071 26.4569C4.8285 26.6577 4.21093 26.7177 3.60498 26.6317C2.999 26.5457 2.42185 26.3162 1.92072 25.9622C1.41958 25.6082 1.00872 25.1397 0.721726 24.5948C0.434733 24.05 0.279774 23.4445 0.269531 22.8277V7.15008C0.284445 6.46974 0.474229 5.80494 0.820332 5.22068C1.16643 4.63645 1.65702 4.15271 2.24411 3.8168C2.8312 3.48091 3.4947 3.30445 4.16975 3.30445C4.84483 3.30443 5.50832 3.48091 6.09542 3.8168C8.10556 4.95377 10.115 6.09188 12.1238 7.23111V7.23445Z" fill="#2A0C64"/>
<path id="Vector_3" d="M10.5176 17.9194C10.5172 18.0287 10.5467 18.1358 10.6029 18.2293C10.6591 18.3227 10.7397 18.3988 10.836 18.449C10.9323 18.4992 11.0404 18.5217 11.1486 18.5139C11.2567 18.5062 11.3606 18.4685 11.4489 18.405L16.5014 15.4642C16.591 15.4121 16.6654 15.3373 16.7171 15.2471C16.7688 15.1569 16.796 15.0545 16.796 14.9503C16.796 14.8461 16.7688 14.7437 16.7171 14.6535C16.6654 14.5633 16.591 14.4883 16.5014 14.4363L11.4489 11.4955C11.3606 11.4323 11.2567 11.3948 11.1486 11.3872C11.0406 11.3795 10.9326 11.4021 10.8364 11.4523C10.7402 11.5025 10.6595 11.5784 10.6033 11.6717C10.5471 11.765 10.5174 11.8721 10.5176 11.9813V17.9194Z" fill="#18F040"/>
<path id="Vector_4" d="M45.1286 8.31658L43.0224 9.57441C42.7622 9.03932 42.3759 8.57666 41.8975 8.22678C41.4627 7.97029 40.9636 7.84558 40.4602 7.86761C39.8072 7.84386 39.1686 8.06352 38.6664 8.48461C38.4396 8.66741 38.2574 8.90018 38.1338 9.16504C38.0099 9.42989 37.9481 9.71981 37.953 10.0125C37.953 10.8587 38.5771 11.5401 39.825 12.0567L41.5412 12.7649C42.7226 13.1839 43.7778 13.9013 44.6057 14.8485C45.2658 15.7101 45.6085 16.7761 45.5748 17.8642C45.5971 18.5979 45.4679 19.3282 45.1955 20.0089C44.9231 20.6897 44.5133 21.3059 43.9923 21.8186C43.4717 22.3355 42.8529 22.7413 42.1733 23.0115C41.4936 23.2818 40.7666 23.411 40.0362 23.3914C38.6785 23.4409 37.3541 22.962 36.3368 22.054C35.3218 21.0491 34.6875 19.7181 34.543 18.2914L37.1749 17.7071C37.207 18.4512 37.4215 19.1757 37.7993 19.8159C38.0556 20.1392 38.3756 20.4053 38.7392 20.5975C39.1028 20.7896 39.5019 20.9036 39.9115 20.9321C40.321 20.9606 40.732 20.9031 41.1183 20.7632C41.5047 20.6233 41.8581 20.404 42.156 20.1193C42.4221 19.8454 42.6304 19.52 42.7685 19.1627C42.9062 18.8054 42.9709 18.4236 42.9584 18.0404C42.9618 17.726 42.9147 17.4131 42.8192 17.1139C42.7245 16.8301 42.5772 16.5671 42.3847 16.339C42.1636 16.0817 41.9066 15.8582 41.6214 15.6757C41.2674 15.4475 40.8947 15.2501 40.5073 15.0859L38.8472 14.3893C36.4921 13.3866 35.3145 11.9188 35.3145 9.98595C35.3048 9.36398 35.4332 8.74766 35.69 8.18203C35.9468 7.61643 36.3258 7.11575 36.7991 6.71658C37.8183 5.82146 39.136 5.34806 40.4871 5.39141C42.4672 5.39412 44.0142 6.36918 45.1286 8.31658Z" fill="#222222"/>
<path id="Vector_5" d="M48.2266 4.10352H50.7335V13.045C51.5283 12.2758 52.5846 11.8419 53.6866 11.8321C54.2336 11.8079 54.7795 11.9028 55.2872 12.1102C55.7948 12.3176 56.2523 12.6327 56.6281 13.0341C57.2522 13.7312 57.5643 14.8423 57.5643 16.3675V23.0729H55.0573V16.6028C55.1129 15.934 54.9502 15.2652 54.5942 14.6981C54.4094 14.4901 54.1789 14.3285 53.921 14.2261C53.6634 14.1237 53.3856 14.0833 53.1095 14.1083C52.7572 14.0719 52.4015 14.1283 52.0773 14.2721C51.753 14.4159 51.4713 14.6422 51.2599 14.9287C50.8407 15.8171 50.6601 16.8009 50.7361 17.7817V23.0722H48.2291L48.2266 4.10352Z" fill="#222222"/>
<path id="Vector_6" d="M60.3613 7.5858C60.3667 7.15354 60.5402 6.74066 60.8443 6.43609C61.1487 6.13149 61.5594 5.95952 61.9885 5.95723C62.2039 5.9538 62.4179 5.9948 62.6172 6.07774C62.8164 6.16069 62.9967 6.2838 63.1472 6.43954C63.3022 6.58823 63.425 6.76786 63.5074 6.96694C63.5899 7.16606 63.6304 7.38029 63.6262 7.596C63.6296 7.81337 63.5891 8.02914 63.5066 8.23003C63.4241 8.43092 63.3019 8.61266 63.1472 8.76403C62.9995 8.9204 62.8215 9.04409 62.624 9.12726C62.4264 9.2104 62.2138 9.2512 61.9999 9.24703C61.7839 9.24723 61.5699 9.20426 61.3701 9.12063C61.1705 9.037 60.9894 8.91434 60.8372 8.75977C60.685 8.6052 60.5645 8.42177 60.4829 8.22003C60.4016 8.01832 60.3602 7.80229 60.3619 7.58446L60.3613 7.5858ZM63.2475 12.1348V23.0756H60.74V12.1348H63.2475Z" fill="#222222"/>
<path id="Vector_7" d="M68.9308 29.2014H66.4238V12.3075H68.9308V13.498C69.361 13.0305 69.8814 12.6565 70.4602 12.3992C71.039 12.1418 71.6637 12.0064 72.2963 12.0014C72.9952 11.9841 73.6891 12.1245 74.3271 12.4121C74.9654 12.6997 75.5317 13.1275 75.9849 13.664C76.9834 14.8138 77.5095 16.3042 77.4553 17.8314C77.5041 19.3355 76.9823 20.8017 75.9957 21.9314C75.556 22.4357 75.0161 22.8413 74.411 23.1219C73.8058 23.4026 73.1491 23.5519 72.4831 23.5604C71.817 23.5689 71.1569 23.4362 70.5449 23.1711C69.933 22.9059 69.3832 22.5141 68.9308 22.0211V29.2014ZM74.8931 17.845C74.9331 16.9153 74.6315 16.0033 74.0462 15.2837C73.7837 14.9643 73.4535 14.7085 73.0797 14.5355C72.7058 14.3625 72.298 14.2767 71.8867 14.2844C71.4658 14.2695 71.0469 14.3484 70.6597 14.5154C70.2726 14.6823 69.9268 14.9333 69.6467 15.2504C69.0527 15.9566 68.746 16.8635 68.7885 17.7885C68.7534 18.7126 69.0592 19.617 69.6467 20.3273C69.922 20.6475 70.2649 20.9016 70.6504 21.0707C71.0356 21.2399 71.4536 21.3199 71.874 21.3048C72.283 21.314 72.6891 21.2299 73.0615 21.0587C73.4337 20.8876 73.763 20.6338 74.0247 20.3164C74.6136 19.6313 74.9237 18.7469 74.8925 17.8409L74.8931 17.845Z" fill="#222222"/>
<path id="Vector_8" d="M80.1074 12.231H82.6147V13.2086C82.9653 12.8092 83.3794 12.4713 83.84 12.2086C84.2427 12.0128 84.6857 11.9165 85.1324 11.9276C85.8691 11.9506 86.5859 12.176 87.2049 12.5793L86.0575 14.8922C85.6593 14.5759 85.1715 14.3951 84.6647 14.3759C83.298 14.3759 82.6147 15.417 82.6147 17.499V23.1718H80.1074V12.231Z" fill="#222222"/>
<path id="Vector_9" d="M87.9302 17.6243C87.9183 16.8714 88.062 16.1242 88.3516 15.4301C88.6413 14.736 89.071 14.1102 89.6132 13.5923C90.72 12.5233 92.1944 11.9276 93.7272 11.9297C95.26 11.9319 96.7328 12.5318 97.8367 13.6038C98.909 14.7016 99.5093 16.1811 99.5073 17.7217C99.5053 19.2624 98.9013 20.7402 97.826 21.8351C97.2775 22.3761 96.6273 22.8009 95.9134 23.0845C95.1997 23.3682 94.4367 23.505 93.6697 23.4868C92.9095 23.5054 92.1536 23.3653 91.4499 23.0753C90.7458 22.7854 90.1089 22.3517 89.5795 21.8018C89.0361 21.2558 88.6096 20.6035 88.3261 19.885C88.0424 19.1666 87.9075 18.3972 87.9302 17.6243ZM90.4944 17.6692C90.4431 18.6144 90.7543 19.5433 91.3637 20.2637C91.9924 20.881 92.8347 21.2274 93.7125 21.2296C94.59 21.2317 95.4341 20.8895 96.0659 20.2753C96.6367 19.5494 96.9473 18.6504 96.9473 17.7243C96.9473 16.7981 96.6367 15.8991 96.0659 15.1732C95.442 14.5541 94.6014 14.2071 93.7258 14.2071C92.8503 14.2071 92.0099 14.5541 91.3858 15.1732C90.7761 15.8556 90.4556 16.7515 90.493 17.6692H90.4944Z" fill="#222222"/>
<path id="Vector_10" d="M110.607 12.7046V16.0631C110.181 15.494 109.661 15.0038 109.069 14.6142C108.592 14.3363 108.048 14.1964 107.497 14.2101C107.057 14.1987 106.62 14.282 106.215 14.4543C105.809 14.6266 105.445 14.884 105.146 15.2094C104.518 15.8868 104.181 16.7874 104.21 17.7142C104.174 18.6428 104.498 19.5491 105.112 20.242C105.407 20.5654 105.768 20.8209 106.17 20.9915C106.572 21.162 107.005 21.2435 107.441 21.2305C107.997 21.242 108.546 21.1067 109.034 20.838C109.638 20.4378 110.17 19.9362 110.605 19.355V22.6883C109.667 23.1993 108.618 23.4729 107.552 23.4856C106.777 23.5076 106.005 23.3739 105.282 23.0923C104.559 22.8107 103.899 22.3868 103.34 21.8454C102.789 21.3194 102.354 20.6827 102.062 19.9765C101.77 19.2703 101.628 18.5102 101.646 17.7454C101.631 16.9739 101.776 16.2078 102.071 15.4959C102.367 14.7841 102.807 14.1422 103.362 13.6114C103.916 13.0602 104.575 12.6269 105.298 12.3374C106.022 12.048 106.796 11.9082 107.574 11.9264C108.634 11.9244 109.677 12.1921 110.607 12.7046Z" fill="#222222"/>
<path id="Vector_11" d="M116.136 4.10352V15.6736L119.667 12.1362H123.033L118.319 16.7307L123.38 23.077H120.126L116.539 18.4607L116.139 18.8647V23.077H113.631V4.10486L116.136 4.10352Z" fill="#222222"/>
<path id="Vector_12" d="M134.51 18.2988H126.728C126.753 19.0961 127.062 19.8578 127.598 20.4444C127.855 20.7054 128.163 20.91 128.503 21.0453C128.843 21.1806 129.206 21.2438 129.571 21.2308C130.122 21.2525 130.665 21.0948 131.119 20.7812C131.667 20.3097 132.13 19.7477 132.49 19.1192L134.608 20.3097C134.313 20.826 133.966 21.3096 133.572 21.7526C133.229 22.1352 132.835 22.468 132.401 22.7417C131.984 23.0004 131.528 23.1918 131.052 23.309C130.537 23.4326 130.009 23.4932 129.479 23.4893C128.756 23.5209 128.034 23.397 127.362 23.1258C126.689 22.8547 126.082 22.4425 125.579 21.9165C124.563 20.764 124.034 19.2557 124.108 17.7152C124.039 16.1835 124.549 14.6824 125.534 13.5145C126.544 12.5075 127.905 11.939 129.325 11.9308C130.745 11.9225 132.113 12.4751 133.133 13.4703C134.112 14.6534 134.606 16.1677 134.515 17.705L134.51 18.2988ZM131.936 16.2322C131.839 15.6387 131.526 15.1028 131.058 14.7291C130.591 14.3554 130.002 14.1704 129.406 14.2104C129.114 14.2083 128.824 14.2559 128.548 14.3512C128.284 14.4432 128.037 14.5798 127.819 14.7553C127.597 14.9338 127.407 15.1483 127.256 15.39C127.094 15.6502 126.973 15.9344 126.899 16.2322H131.936Z" fill="#222222"/>
<path id="Vector_13" d="M140.036 14.5628V23.1451H137.528V14.5628H136.459V12.2036H137.528V8.19336H140.036V12.2036H141.986V14.5628H140.036Z" fill="#222222"/>
</g>
</g>
</g>
</g>
<defs>
<clipPath id="clip0_956_9745">
<rect width="142" height="30" fill="white"/>
</clipPath>
</defs>
</svg>
