<svg width="68" height="68" viewBox="0 0 68 68" fill="none" xmlns="http://www.w3.org/2000/svg">
<g id="razorpay-glyph 6" filter="url(#filter0_d_1488_13213)">
<rect x="5" y="4" width="58" height="58" rx="8" fill="white"/>
<rect x="4.925" y="3.925" width="58.15" height="58.15" rx="8.075" stroke="#CCCCCC" stroke-width="0.15"/>
<path id="Vector" d="M14.3031 30.8371C14.3031 30.3164 14.7208 30.1162 15.4128 30.1162C16.405 30.1162 17.6583 30.4232 18.6506 30.9706V27.8331C17.5669 27.3925 16.4964 27.219 15.4128 27.219C12.7625 27.219 11 28.6342 11 30.9973C11 34.6822 15.9611 34.0948 15.9611 35.6836C15.9611 36.2977 15.4389 36.498 14.7078 36.498C13.6242 36.498 12.2403 36.0441 11.1436 35.4299V38.6075C12.3578 39.1415 13.585 39.3685 14.7078 39.3685C17.4233 39.3685 19.2903 37.9933 19.2903 35.6035C19.2772 31.6248 14.3031 32.3324 14.3031 30.8371ZM23.1286 24.5487L19.9431 25.243L19.93 35.9373C19.93 37.9132 21.3792 39.3685 23.3114 39.3685C24.3819 39.3685 25.1653 39.1682 25.5961 38.9279V36.2176C25.1783 36.3912 23.1156 37.0053 23.1156 35.0294V30.2897H25.5961V27.4459H23.1156L23.1286 24.5487ZM29.6564 28.4339L29.4475 27.4459H26.6275V39.1282H29.8914V31.2109C30.6617 30.1829 31.9672 30.3698 32.3719 30.5167V27.4459C31.9542 27.2857 30.4267 26.992 29.6564 28.4339ZM33.1683 27.4459H36.4453V39.1282H33.1683V27.4459ZM33.1683 26.4312L36.4453 25.7103V23L33.1683 23.7076V26.4312ZM43.2603 27.219C41.9808 27.219 41.1583 27.8331 40.7014 28.2603L40.5317 27.4326H37.6594V43L40.9233 42.2924L40.9364 38.514C41.4064 38.8611 42.0983 39.3551 43.2472 39.3551C45.5842 39.3551 47.7122 37.4326 47.7122 33.2003C47.6992 29.3284 45.545 27.219 43.2603 27.219ZM42.4769 36.4179C41.7067 36.4179 41.2497 36.1375 40.9364 35.7904L40.9233 30.8371C41.2628 30.4499 41.7328 30.1829 42.4769 30.1829C43.665 30.1829 44.4875 31.5447 44.4875 33.2937C44.4875 35.0828 43.6781 36.4179 42.4769 36.4179ZM58 33.3338C58 29.9159 56.3811 27.219 53.2869 27.219C50.1797 27.219 48.2997 29.9159 48.2997 33.3071C48.2997 37.3258 50.5192 39.3551 53.7047 39.3551C55.2583 39.3551 56.4333 38.9947 57.3211 38.4873V35.8171C56.4333 36.271 55.415 36.5514 54.1225 36.5514C52.8561 36.5514 51.7333 36.0975 51.5897 34.522H57.9739C57.9739 34.3485 58 33.6542 58 33.3338ZM51.5506 32.0654C51.5506 30.5567 52.4514 29.9292 53.2739 29.9292C54.0703 29.9292 54.9189 30.5567 54.9189 32.0654H51.5506Z" fill="#6772E5"/>
</g>
<defs>
<filter id="filter0_d_1488_13213" x="0.849609" y="0.849609" width="66.3008" height="66.3008" filterUnits="userSpaceOnUse" color-interpolation-filters="sRGB">
<feFlood flood-opacity="0" result="BackgroundImageFix"/>
<feColorMatrix in="SourceAlpha" type="matrix" values="0 0 0 0 0 0 0 0 0 0 0 0 0 0 0 0 0 0 127 0" result="hardAlpha"/>
<feOffset dy="1"/>
<feGaussianBlur stdDeviation="2"/>
<feComposite in2="hardAlpha" operator="out"/>
<feColorMatrix type="matrix" values="0 0 0 0 0.0431373 0 0 0 0 0.239216 0 0 0 0 0.376471 0 0 0 0.1 0"/>
<feBlend mode="normal" in2="BackgroundImageFix" result="effect1_dropShadow_1488_13213"/>
<feBlend mode="normal" in="SourceGraphic" in2="effect1_dropShadow_1488_13213" result="shape"/>
</filter>
</defs>
</svg>
