<svg width="80" height="34" viewBox="0 0 80 34" fill="none" xmlns="http://www.w3.org/2000/svg">
<path id="Vector" d="M5.62222 13.3231C5.62222 12.4379 6.33333 12.0975 7.51111 12.0975C9.2 12.0975 11.3333 12.6195 13.0222 13.5501V8.21629C11.1778 7.46729 9.35556 7.17223 7.51111 7.17223C3 7.17223 0 9.5781 0 13.5955C0 19.8598 8.44444 18.8611 8.44444 21.5621C8.44444 22.6061 7.55556 22.9466 6.31111 22.9466C4.46667 22.9466 2.11111 22.1749 0.244444 21.1308V26.5327C2.31111 27.4406 4.4 27.8264 6.31111 27.8264C10.9333 27.8264 14.1111 25.4887 14.1111 21.4259C14.0889 14.6622 5.62222 15.8652 5.62222 13.3231ZM20.6444 2.63284L15.2222 3.81308L15.2 21.9933C15.2 25.3525 17.6667 27.8264 20.9556 27.8264C22.7778 27.8264 24.1111 27.486 24.8444 27.0774V22.47C24.1333 22.765 20.6222 23.8091 20.6222 20.4499V12.3925H24.8444V7.55808H20.6222L20.6444 2.63284ZM31.7556 9.23765L31.4 7.55808H26.6V27.4179H32.1556V13.9586C33.4667 12.2109 35.6889 12.5287 36.3778 12.7784V7.55808C35.6667 7.28571 33.0667 6.78638 31.7556 9.23765ZM37.7333 7.55808H43.3111V27.4179H37.7333V7.55808ZM37.7333 5.83311L43.3111 4.60748V0L37.7333 1.20294V5.83311ZM54.9111 7.17223C52.7333 7.17223 51.3333 8.21629 50.5556 8.94259L50.2667 7.53538H45.3778V34L50.9333 32.7971L50.9556 26.3738C51.7556 26.964 52.9333 27.8037 54.8889 27.8037C58.8667 27.8037 62.4889 24.5354 62.4889 17.3405C62.4667 10.7583 58.8 7.17223 54.9111 7.17223ZM53.5778 22.8104C52.2667 22.8104 51.4889 22.3338 50.9556 21.7437L50.9333 13.3231C51.5111 12.6649 52.3111 12.2109 53.5778 12.2109C55.6 12.2109 57 14.526 57 17.4993C57 20.5407 55.6222 22.8104 53.5778 22.8104ZM80 17.5674C80 11.757 77.2444 7.17223 71.9778 7.17223C66.6889 7.17223 63.4889 11.757 63.4889 17.522C63.4889 24.3538 67.2667 27.8037 72.6889 27.8037C75.3333 27.8037 77.3333 27.1909 78.8444 26.3284V21.7891C77.3333 22.5607 75.6 23.0374 73.4 23.0374C71.2444 23.0374 69.3333 22.2657 69.0889 19.5875H79.9556C79.9556 19.2924 80 18.1122 80 17.5674ZM69.0222 15.4112C69.0222 12.8465 70.5556 11.7797 71.9556 11.7797C73.3111 11.7797 74.7556 12.8465 74.7556 15.4112H69.0222Z" fill="#6772E5"/>
</svg>
