<svg width="40" height="40" viewBox="0 0 40 40" fill="none" xmlns="http://www.w3.org/2000/svg">
<g clip-path="url(#clip0_991_8447)">
<path d="M23.481 38.48L16.5371 31.5274L31.4569 16.457L38.5278 23.5268L23.481 38.48Z" fill="#8AB4F8"/>
<path d="M23.5347 8.53784L16.4606 1.46484L1.46588 16.4571C1.00176 16.9211 0.633602 17.4719 0.382419 18.0781C0.131236 18.6844 0.00195313 19.3342 0.00195312 19.9904C0.00195313 20.6466 0.131236 21.2963 0.382419 21.9026C0.633602 22.5088 1.00176 23.0596 1.46588 23.5236L16.4606 38.5159L23.398 31.5503L12.069 20.0017L23.5347 8.53784Z" fill="#4285F4"/>
<path d="M38.5289 16.4566L23.5342 1.46436C22.5965 0.526428 21.3246 -0.00067123 19.9983 -0.00097643C18.6719 -0.00128163 17.3998 0.525232 16.4617 1.46274C15.5236 2.40024 14.9964 3.67194 14.9961 4.99808C14.9958 6.32422 15.5224 7.59617 16.46 8.5341L31.4645 23.5264C32.4068 24.4414 33.6713 24.9489 34.9848 24.9393C36.2983 24.9297 37.5553 24.4037 38.4841 23.4751C39.4129 22.5464 39.939 21.2897 39.9486 19.9764C39.9582 18.6631 39.4505 17.3988 38.5354 16.4566H38.5289Z" fill="#8AB4F8"/>
<path d="M24.8986 35.0422C24.8986 34.0616 24.6077 33.1031 24.0628 32.2878C23.5178 31.4725 22.7433 30.8371 21.8371 30.462C20.931 30.0869 19.9339 29.9889 18.972 30.1805C18.0102 30.372 17.1267 30.8445 16.4335 31.5381C15.7402 32.2317 15.2682 33.1153 15.0773 34.0771C14.8864 35.039 14.985 36.0358 15.3608 36.9416C15.7365 37.8473 16.3725 38.6213 17.1883 39.1657C18.0041 39.71 18.963 40.0002 19.9438 39.9995C20.5947 39.9995 21.2393 39.8713 21.8406 39.6221C22.442 39.3729 22.9884 39.0077 23.4485 38.5474C23.9087 38.087 24.2736 37.5405 24.5224 36.9391C24.7712 36.3376 24.899 35.6931 24.8986 35.0422Z" fill="#246FDB"/>
</g>
<defs>
<clipPath id="clip0_991_8447">
<rect width="40" height="40" fill="white"/>
</clipPath>
</defs>
</svg>
