<svg width="68" height="68" viewBox="0 0 68 68" fill="none" xmlns="http://www.w3.org/2000/svg">
<g filter="url(#filter0_d_2396_9480)">
<rect x="5" y="4" width="58" height="58" rx="8" fill="white"/>
<rect x="4.925" y="3.925" width="58.15" height="58.15" rx="8.075" stroke="#CCCCCC" stroke-width="0.15"/>
<path d="M43 28.0543C43 27.2886 42.3293 26.632 41.5473 26.632H38.8651L32.7182 19.7386C32.1595 19.082 31.2655 18.8633 30.3714 19.082L28.248 19.7386C27.9127 19.8482 27.8007 20.2856 28.0247 20.5043L34.7303 26.7416H24.5587C24.2234 26.7416 24 26.9603 24 27.2886V28.3826C24 29.1483 24.6707 29.8049 25.4527 29.8049H27.0175V35.0573C27.0175 38.9964 29.1409 41.2946 32.7176 41.2946C33.835 41.2946 34.7297 41.185 35.8471 40.7476V44.2494C35.8471 45.2343 36.6291 46 37.6352 46H39.1999C39.5352 46 39.8706 45.6717 39.8706 45.3434V29.6958H42.4413C42.7766 29.6958 43 29.4772 43 29.1488V28.0543ZM35.8471 37.4645C35.1764 37.7928 34.2824 37.9024 33.6117 37.9024C31.8236 37.9024 30.9296 37.0271 30.9296 35.0573V29.8049H35.8471V37.4645Z" fill="white"/>
<g clip-path="url(#clip0_2396_9480)">
<path d="M37.482 51.48L30.5381 44.5274L45.4579 29.457L52.5288 36.5268L37.482 51.48Z" fill="#8AB4F8"/>
<path d="M37.5338 21.5378L30.4596 14.4648L15.4649 29.4571C15.0008 29.9211 14.6326 30.4719 14.3814 31.0781C14.1303 31.6844 14.001 32.3342 14.001 32.9904C14.001 33.6466 14.1303 34.2963 14.3814 34.9026C14.6326 35.5088 15.0008 36.0596 15.4649 36.5236L30.4596 51.5159L37.397 44.5503L26.068 33.0017L37.5338 21.5378Z" fill="#4285F4"/>
<path d="M52.5289 29.4576L37.5342 14.4653C36.5965 13.5274 35.3246 13.0003 33.9983 13C32.6719 12.9997 31.3998 13.5262 30.4617 14.4637C29.5236 15.4012 28.9964 16.6729 28.9961 17.9991C28.9958 19.3252 29.5224 20.5971 30.46 21.5351L45.4645 36.5273C46.4068 37.4423 47.6713 37.9499 48.9848 37.9403C50.2983 37.9307 51.5553 37.4047 52.4841 36.4761C53.4129 35.5474 53.939 34.2906 53.9486 32.9773C53.9582 31.6641 53.4505 30.3997 52.5354 29.4576H52.5289Z" fill="#8AB4F8"/>
<path d="M38.8976 48.0432C38.8976 47.0626 38.6067 46.1041 38.0618 45.2888C37.5169 44.4735 36.7423 43.8381 35.8362 43.463C34.93 43.0879 33.9329 42.9899 32.9711 43.1814C32.0092 43.373 31.1258 43.8454 30.4325 44.539C29.7392 45.2327 29.2673 46.1163 29.0763 47.0781C28.8854 48.0399 28.984 49.0368 29.3598 49.9425C29.7356 50.8483 30.3716 51.6223 31.1873 52.1666C32.0031 52.7109 32.962 53.0011 33.9428 53.0005C34.5937 53.0005 35.2383 52.8723 35.8397 52.6231C36.441 52.3739 36.9874 52.0087 37.4475 51.5483C37.9077 51.088 38.2726 50.5415 38.5214 49.94C38.7702 49.3386 38.898 48.6941 38.8976 48.0432Z" fill="#246FDB"/>
</g>
</g>
<defs>
<filter id="filter0_d_2396_9480" x="0.849609" y="0.849609" width="66.3008" height="66.3008" filterUnits="userSpaceOnUse" color-interpolation-filters="sRGB">
<feFlood flood-opacity="0" result="BackgroundImageFix"/>
<feColorMatrix in="SourceAlpha" type="matrix" values="0 0 0 0 0 0 0 0 0 0 0 0 0 0 0 0 0 0 127 0" result="hardAlpha"/>
<feOffset dy="1"/>
<feGaussianBlur stdDeviation="2"/>
<feComposite in2="hardAlpha" operator="out"/>
<feColorMatrix type="matrix" values="0 0 0 0 0.0431373 0 0 0 0 0.239216 0 0 0 0 0.376471 0 0 0 0.1 0"/>
<feBlend mode="normal" in2="BackgroundImageFix" result="effect1_dropShadow_2396_9480"/>
<feBlend mode="normal" in="SourceGraphic" in2="effect1_dropShadow_2396_9480" result="shape"/>
</filter>
<clipPath id="clip0_2396_9480">
<rect width="40" height="40" fill="white" transform="translate(14 13)"/>
</clipPath>
</defs>
</svg>
