<svg width="100" height="28" viewBox="0 0 100 28" fill="none" xmlns="http://www.w3.org/2000/svg">
<path fill-rule="evenodd" clip-rule="evenodd" d="M85.6758 27.0872L99.9978 13.8334L93.2138 0.12207L85.6758 27.0872Z" fill="#097939"/>
<path fill-rule="evenodd" clip-rule="evenodd" d="M80.8516 27.0872L95.1736 13.8334L88.3896 0.12207L80.8516 27.0872Z" fill="#ED752E"/>
<path fill-rule="evenodd" clip-rule="evenodd" d="M12.4089 0.27507L6.37888 22.0604L27.7859 22.2126L33.6659 0.27507H39.0929L32.0429 25.7784C31.7729 26.7522 30.7449 27.5435 29.7479 27.5435H2.30888C0.644876 27.5435 -0.341124 26.2247 0.108876 24.6016L6.83288 0.27507H12.4089ZM78.5909 0.122902H84.0179L76.4799 27.5435H70.8999L78.5909 0.122902ZM39.6969 11.5476L66.8329 11.3955L68.6429 5.60601H41.0529L42.7109 0.274056L72.1109 0.000153565C73.9409 -0.0170921 75.0309 1.42038 74.5489 3.21292L71.7789 13.4832C71.2959 15.2747 69.4189 16.7264 67.5889 16.7264H43.3149L40.4529 28H35.1729L39.6969 11.5476Z" fill="#747474"/>
</svg>
