
<svg xmlns="http://www.w3.org/2000/svg" width="10" height="10" viewBox="0 0 10 10" fill="none" class="edit-svg custom-svg">
  <path fill-rule="evenodd" clip-rule="evenodd" d="M3.54243 9.45992L8.42374 3.14746C8.68903 2.80705 8.78335 2.41349 8.69492 2.01277C8.61829 1.64847 8.39426 1.30209 8.05823 1.03932L7.23878 0.388367C6.52545 -0.178978 5.64116 -0.119257 5.13416 0.531697L4.5859 1.24297C4.51516 1.33195 4.53284 1.46334 4.62127 1.535C4.62127 1.535 6.00667 2.6458 6.03614 2.66969C6.13047 2.75927 6.20121 2.87871 6.2189 3.02204C6.24837 3.30273 6.05383 3.5655 5.76496 3.60133C5.62937 3.61925 5.49967 3.57744 5.40535 3.49981L3.94921 2.34123C3.87846 2.28808 3.77235 2.29942 3.7134 2.37109L0.252854 6.85013C0.0288324 7.13081 -0.0478065 7.49511 0.0288324 7.84746L0.47098 9.76449C0.494561 9.86601 0.582991 9.93768 0.689106 9.93768L2.63456 9.91379C2.98827 9.90782 3.31841 9.74657 3.54243 9.45992ZM6.26658 8.8632H9.43884C9.74835 8.8632 10.0001 9.11821 10.0001 9.43174C10.0001 9.74587 9.74835 10.0003 9.43884 10.0003H6.26658C5.95708 10.0003 5.70535 9.74587 5.70535 9.43174C5.70535 9.11821 5.95708 8.8632 6.26658 8.8632Z" fill="#0B3D60"/>
</svg>