<svg xmlns="http://www.w3.org/2000/svg" width="142" height="21" viewBox="0 0 142 21" fill="none">
  <g clip-path="url(#clip0_1580_49070)">
    <mask id="mask0_1580_49070" style="mask-type:luminance" maskUnits="userSpaceOnUse" x="127" y="0" width="15" height="21">
      <path d="M127.39 0H142V20.9508H127.39V0Z" fill="white"/>
    </mask>
    <g mask="url(#mask0_1580_49070)">
      <path d="M142 0.0078125H136.821V8.23111L134.725 10.6098L132.621 8.23111V0.0078125H127.441V9.97547L132.135 15.2689V20.9398H137.307V15.2689L142 9.97547V0.0078125Z" fill="#231F20"/>
    </g>
    <path d="M68.5036 0.121094H73.6746V20.9851H68.5036V0.121094Z" fill="#231F20"/>
    <path d="M117.779 20.8565H112.6V2.41637L115.19 0H124.819V4.83274H117.779V20.8565Z" fill="#231F20"/>
    <path d="M101.076 16.1217V12.9654H106.749V8.14011H101.076V4.84023L103.083 4.83274L109.088 4.8556L109.104 0.0226691L103.091 0L98.4701 0.0226691L95.8965 2.43904V18.5306L98.4866 20.947H103.067L109.088 20.9696L109.104 16.1446L103.075 16.1217H101.076Z" fill="#231F20"/>
    <path d="M86.7682 13.2598L84.6642 15.631L82.5601 13.2598V0.113281H77.3892V14.9892L82.6493 20.9394H86.679L91.9391 14.9892V0.113281H86.7682V13.2598Z" fill="#231F20"/>
    <path d="M10.6336 16.1732H5.19545V4.84631H10.6336V16.1732ZM8.63473 0.0664062H0V20.9982H13.215L15.7885 18.5818V2.48277L13.1989 0.0664062H8.63473Z" fill="#231F20"/>
    <path d="M26.3168 4.83274L32.3215 4.8556L32.3458 0.0226691L26.325 0L21.7042 0.0226691L19.1306 2.43904V18.5306L21.7204 20.947H26.3007L32.3215 20.9696L32.3458 16.1446L26.3168 16.1217H24.31V12.9654H29.9827V8.14011H24.31V4.84023L26.3168 4.83274Z" fill="#231F20"/>
    <path d="M40.4385 0.0664062H35.2673V18.5592L37.8569 20.968H47.4791V16.143H40.4385V0.0664062Z" fill="#231F20"/>
    <path d="M59.8281 0.111744V8.13851H55.1832V0.0664062H50.012V20.9832H55.1832V12.9638H59.8281V20.9832H65.0075V0.111744H59.8281Z" fill="#231F20"/>
    <path d="M0.0327148 16.1758H5.18761V20.9858H0.0327148V16.1758Z" fill="#E36556"/>
    <mask id="mask1_1580_49070" style="mask-type:luminance" maskUnits="userSpaceOnUse" x="136" y="0" width="6" height="5">
      <path d="M136.825 0H142V4.81967H136.825V0Z" fill="white"/>
    </mask>
    <g mask="url(#mask1_1580_49070)">
      <path d="M136.837 0.0078125H141.992V4.81807H136.837V0.0078125Z" fill="#E36556"/>
    </g>
  </g>
  <defs>
    <clipPath id="clip0_1580_49070">
      <rect width="142" height="21" fill="white"/>
    </clipPath>
  </defs>
</svg>