<svg xmlns="http://www.w3.org/2000/svg" width="143" height="30" viewBox="0 0 143 30" fill="none">
  <g clip-path="url(#clip0_1566_50691)">
    <mask id="mask0_1566_50691" style="mask-type:luminance" maskUnits="userSpaceOnUse" x="0" y="0" width="143" height="30">
      <path d="M142.486 0.0234375H0.769531V29.9554H142.486V0.0234375Z" fill="white"/>
    </mask>
    <g mask="url(#mask0_1566_50691)">
      <path fill-rule="evenodd" clip-rule="evenodd" d="M11.2572 20.907L19.3115 16.345C19.5532 16.2121 19.7551 16.016 19.8956 15.7772C20.0362 15.5385 20.1104 15.266 20.1104 14.9883C20.1104 14.7107 20.0362 14.4382 19.8956 14.1994C19.7551 13.9607 19.5532 13.7644 19.3115 13.6314L11.4307 9.16682C11.1937 8.99568 10.9149 8.89308 10.6243 8.87019C10.3337 8.84733 10.0424 8.90496 9.78197 9.03696C9.52156 9.16893 9.3019 9.37028 9.1468 9.61908C8.99171 9.86785 8.90705 10.1547 8.90203 10.4485V19.526C8.90699 19.802 8.9825 20.072 9.12121 20.3101C9.25992 20.5481 9.45716 20.7462 9.69394 20.8849C9.93069 21.0237 10.199 21.0986 10.4728 21.1023C10.7467 21.106 11.0168 21.0386 11.2572 20.9063V20.907ZM12.6238 7.23348L22.961 13.0887C23.2827 13.2702 23.6451 13.3654 24.0137 13.3654C24.3824 13.3654 24.7448 13.2702 25.0665 13.0887L25.1374 13.0485C25.3793 12.9156 25.5812 12.7193 25.722 12.4805C25.8627 12.2417 25.9369 11.969 25.9369 11.6913C25.9369 11.4135 25.8627 11.1409 25.722 10.902C25.5812 10.6632 25.3793 10.4671 25.1374 10.3342L11.4307 2.57088C11.1935 2.40098 10.9149 2.29953 10.6248 2.27724C10.3346 2.25495 10.044 2.31279 9.78399 2.44449C9.52402 2.57619 9.30456 2.77681 9.14915 3.02479C8.99378 3.27276 8.90832 3.55862 8.90203 3.85188V4.00216C8.90061 4.06705 8.88247 4.13053 8.84934 4.18619C8.81621 4.24185 8.76927 4.28776 8.71315 4.31956C8.657 4.35136 8.59363 4.36782 8.52923 4.36739C8.46486 4.36696 8.40168 4.34976 8.34599 4.31722L6.85054 3.47022C6.78396 3.43351 6.73068 3.37651 6.69842 3.30728C6.66617 3.23808 6.65656 3.16031 6.67101 3.08522C6.81352 2.46678 7.10101 1.89167 7.50941 1.4083C7.91781 0.924937 8.43519 0.547431 9.01821 0.30718C9.60123 0.0669261 10.2329 -0.029055 10.8602 0.0274967C11.4875 0.0840484 12.0923 0.291483 12.6238 0.632203L26.2913 8.37428C26.8793 8.69842 27.3703 9.17559 27.7133 9.75591C28.0563 10.3362 28.2387 10.9985 28.2416 11.674C28.2445 12.3495 28.0677 13.0134 27.7297 13.5967C27.3917 14.18 26.9048 14.6614 26.3197 14.9906L10.0263 24.2185C9.68725 24.4072 9.4043 24.6839 9.20666 25.0197C9.00902 25.3555 8.90384 25.7383 8.90203 26.1288C8.90821 26.4221 8.99355 26.7081 9.1489 26.9562C9.30425 27.2043 9.52371 27.4049 9.7837 27.5367C10.0437 27.6684 10.3344 27.7263 10.6246 27.7041C10.9148 27.6818 11.1934 27.5804 11.4307 27.4104L25.1374 19.6464C25.3792 19.5135 25.5809 19.3174 25.7215 19.0786C25.8621 18.8398 25.9363 18.5674 25.9363 18.2897C25.9363 18.0121 25.8621 17.7394 25.7215 17.5006C25.5809 17.2619 25.3792 17.0658 25.1374 16.9328L25.0024 16.8566C24.9464 16.8256 24.8996 16.7801 24.8671 16.7247C24.8345 16.6693 24.8173 16.6061 24.8173 16.5417C24.8173 16.4773 24.8345 16.4141 24.8671 16.3587C24.8996 16.3033 24.9464 16.2576 25.0024 16.2266L26.4958 15.3811C26.5631 15.3428 26.6404 15.3261 26.7173 15.3333C26.7943 15.3404 26.8672 15.3712 26.9264 15.4213C27.3878 15.8186 27.7466 16.3229 27.9718 16.891C28.197 17.459 28.2819 18.0737 28.2193 18.6822C28.1566 19.2906 27.9482 19.8746 27.612 20.3838C27.2758 20.8931 26.8219 21.3123 26.2893 21.6055L12.6218 29.3477C12.0399 29.7246 11.3695 29.9392 10.6787 29.9697C9.98789 30.0003 9.30136 29.846 8.68894 29.5223C8.07653 29.1986 7.56011 28.7172 7.19228 28.1269C6.82444 27.5367 6.61827 26.8588 6.59477 26.1622V7.55119C6.5931 7.20716 6.50047 6.86988 6.32647 6.57396C6.15244 6.27802 5.90334 6.03422 5.60477 5.86762C5.36753 5.69768 5.08889 5.59608 4.79871 5.57382C4.50853 5.55153 4.21781 5.60945 3.95782 5.74122C3.6978 5.87299 3.47834 6.07359 3.323 6.32168C3.16766 6.56973 3.08231 6.85579 3.07613 7.14911V22.8267C3.08219 23.1201 3.16746 23.4062 3.32276 23.6543C3.47805 23.9025 3.69749 24.1034 3.95751 24.2353C4.21753 24.3671 4.50831 24.4249 4.79854 24.4027C5.08878 24.3805 5.3675 24.279 5.60477 24.1091C5.66043 24.0766 5.72355 24.0592 5.78786 24.0587C5.8522 24.0583 5.91552 24.0747 5.97164 24.1064C6.02776 24.1381 6.0747 24.184 6.10786 24.2396C6.14105 24.2952 6.1593 24.3584 6.16083 24.4233V26.1097C6.16015 26.187 6.13527 26.2621 6.08969 26.3243C6.04412 26.3864 5.9802 26.4326 5.9071 26.456C5.3285 26.6568 4.71093 26.7167 4.10498 26.6307C3.499 26.5447 2.92185 26.3152 2.42072 25.9612C1.91958 25.6072 1.50872 25.1387 1.22173 24.5938C0.934733 24.049 0.779774 23.4435 0.769531 22.8267V7.14911C0.784445 6.46876 0.974229 5.80396 1.32033 5.21971C1.66643 4.63548 2.15702 4.15173 2.74411 3.81582C3.3312 3.47993 3.9947 3.30348 4.66975 3.30348C5.34483 3.30345 6.00832 3.47993 6.59542 3.81582C8.60556 4.95279 10.615 6.09091 12.6238 7.23013V7.23348Z" fill="#2A0C64"/>
      <path d="M11.0183 17.9203C11.0179 18.0296 11.0475 18.1368 11.1036 18.2303C11.1598 18.3237 11.2405 18.3997 11.3368 18.45C11.433 18.5002 11.5412 18.5227 11.6493 18.5149C11.7574 18.5071 11.8614 18.4694 11.9496 18.406L17.0021 15.4651C17.0917 15.4131 17.1661 15.3383 17.2178 15.2481C17.2695 15.1579 17.2968 15.0555 17.2968 14.9513C17.2968 14.8471 17.2695 14.7447 17.2178 14.6545C17.1661 14.5643 17.0917 14.4893 17.0021 14.4373L11.9496 11.4965C11.8613 11.4332 11.7574 11.3958 11.6494 11.3882C11.5413 11.3805 11.4333 11.4031 11.3371 11.4533C11.2409 11.5034 11.1603 11.5793 11.104 11.6727C11.0478 11.766 11.0181 11.8731 11.0183 11.9822V17.9203Z" fill="#18F040"/>
      <path d="M45.6296 8.31462L43.5234 9.57245C43.2632 9.03737 42.8769 8.57471 42.3985 8.22482C41.9637 7.96834 41.4646 7.84362 40.9612 7.86565C40.3081 7.84191 39.6696 8.06157 39.1673 8.48265C38.9406 8.66545 38.7583 8.89822 38.6348 9.16308C38.5109 9.42794 38.4491 9.71785 38.4539 10.0105C38.4539 10.8568 39.078 11.5382 40.326 12.0548L42.0422 12.7629C43.2235 13.182 44.2788 13.8994 45.1067 14.8466C45.7668 15.7081 46.1095 16.7742 46.0757 17.8623C46.0981 18.5959 45.9689 19.3263 45.6965 20.007C45.4241 20.6877 45.0143 21.3039 44.4933 21.8167C43.9727 22.3336 43.3539 22.7393 42.6742 23.0096C41.9946 23.2798 41.2676 23.409 40.5372 23.3895C39.1795 23.4389 37.855 22.9601 36.8378 22.052C35.8228 21.0471 35.1885 19.7161 35.0439 18.2895L37.6759 17.7051C37.7079 18.4492 37.9225 19.1737 38.3003 19.8139C38.5565 20.1373 38.8765 20.4034 39.2402 20.5955C39.6038 20.7877 40.0029 20.9016 40.4125 20.9301C40.822 20.9587 41.233 20.9011 41.6193 20.7612C42.0056 20.6213 42.3591 20.4021 42.657 20.1173C42.9231 19.8435 43.1314 19.5181 43.2695 19.1607C43.4072 18.8034 43.4718 18.4216 43.4594 18.0384C43.4628 17.7241 43.4157 17.4112 43.3202 17.1119C43.2255 16.8281 43.0781 16.5652 42.8857 16.3371C42.6646 16.0797 42.4075 15.8563 42.1224 15.6738C41.7684 15.4455 41.3957 15.2482 41.0082 15.084L39.3482 14.3874C36.9931 13.3847 35.8155 11.9169 35.8155 9.984C35.8058 9.36202 35.9342 8.74571 36.191 8.18008C36.4478 7.61448 36.8267 7.1138 37.3001 6.71462C38.3193 5.81951 39.637 5.34611 40.9881 5.38945C42.9682 5.39217 44.5151 6.36722 45.6296 8.31462Z" fill="#222222"/>
      <path d="M48.7273 4.10156H51.2343V13.043C52.029 12.2738 53.0854 11.8399 54.1873 11.8301C54.7344 11.806 55.2803 11.9008 55.7879 12.1082C56.2955 12.3156 56.753 12.6308 57.1288 13.0322C57.7529 13.7292 58.065 14.8403 58.065 16.3655V23.0709H55.558V16.6009C55.6136 15.9321 55.4509 15.2632 55.0949 14.6961C54.9101 14.4881 54.6797 14.3265 54.4217 14.2241C54.1641 14.1217 53.8863 14.0814 53.6103 14.1063C53.258 14.0699 52.9023 14.1264 52.578 14.2702C52.2538 14.414 51.972 14.6402 51.7606 14.9267C51.3414 15.8152 51.1608 16.799 51.2368 17.7798V23.0703H48.7298L48.7273 4.10156Z" fill="#222222"/>
      <path d="M60.8621 7.5858C60.8674 7.15354 61.0409 6.74066 61.345 6.43609C61.6494 6.13149 62.0601 5.95952 62.4892 5.95723C62.7047 5.9538 62.9187 5.9948 63.1179 6.07774C63.3172 6.16069 63.4974 6.2838 63.6479 6.43954C63.803 6.58823 63.9257 6.76786 64.0082 6.96694C64.0906 7.16606 64.1312 7.38029 64.1269 7.596C64.1303 7.81337 64.0898 8.02914 64.0073 8.23003C63.9248 8.43092 63.8027 8.61266 63.6479 8.76403C63.5003 8.9204 63.3223 9.04409 63.1247 9.12726C62.9272 9.2104 62.7146 9.2512 62.5006 9.24703C62.2846 9.24723 62.0706 9.20426 61.8708 9.12063C61.6713 9.037 61.4901 8.91434 61.3379 8.75977C61.1857 8.6052 61.0653 8.42177 60.9837 8.22003C60.9023 8.01832 60.8609 7.80229 60.8626 7.58446L60.8621 7.5858ZM63.7483 12.1348V23.0756H61.2407V12.1348H63.7483Z" fill="#222222"/>
      <path d="M69.431 29.2014H66.9241V12.3075H69.431V13.498C69.8613 13.0305 70.3817 12.6565 70.9604 12.3992C71.5392 12.1418 72.1639 12.0064 72.7965 12.0014C73.4955 11.9841 74.1893 12.1245 74.8273 12.4121C75.4656 12.6997 76.0319 13.1275 76.4851 13.664C77.4837 14.8138 78.0097 16.3042 77.9556 17.8314C78.0043 19.3355 77.4825 20.8017 76.4959 21.9314C76.0563 22.4357 75.5164 22.8413 74.9112 23.1219C74.3061 23.4026 73.6494 23.5519 72.9833 23.5604C72.3172 23.5689 71.6571 23.4362 71.0452 23.1711C70.4333 22.9059 69.8834 22.5141 69.431 22.0211V29.2014ZM75.3933 17.845C75.4333 16.9153 75.1317 16.0033 74.5464 15.2837C74.284 14.9643 73.9538 14.7085 73.5799 14.5355C73.2061 14.3625 72.7982 14.2767 72.387 14.2844C71.9661 14.2695 71.5471 14.3484 71.16 14.5154C70.7728 14.6823 70.427 14.9333 70.147 15.2504C69.5529 15.9566 69.2462 16.8635 69.2888 17.7885C69.2536 18.7126 69.5594 19.617 70.147 20.3273C70.4222 20.6475 70.7652 20.9016 71.1506 21.0707C71.5358 21.2399 71.9539 21.3199 72.3742 21.3048C72.7832 21.314 73.1894 21.2299 73.5618 21.0587C73.9339 20.8876 74.2633 20.6338 74.5249 20.3164C75.1139 19.6313 75.4239 18.7469 75.3928 17.8409L75.3933 17.845Z" fill="#222222"/>
      <path d="M80.6072 12.23H83.1144V13.2076C83.465 12.8082 83.8791 12.4703 84.3397 12.2076C84.7425 12.0118 85.1855 11.9155 85.6322 11.9266C86.3688 11.9497 87.0856 12.175 87.7046 12.5783L86.5573 14.8913C86.1591 14.5749 85.6713 14.3941 85.1645 14.3749C83.7978 14.3749 83.1144 15.416 83.1144 17.4981V23.1708H80.6072V12.23Z" fill="#222222"/>
      <path d="M88.4309 17.6243C88.419 16.8714 88.5627 16.1242 88.8524 15.4301C89.1421 14.736 89.5717 14.1102 90.1139 13.5923C91.2208 12.5233 92.6952 11.9276 94.228 11.9297C95.7608 11.9319 97.2335 12.5318 98.3375 13.6038C99.4097 14.7016 100.01 16.1811 100.008 17.7217C100.006 19.2624 99.402 20.7402 98.3267 21.8351C97.7783 22.3761 97.1281 22.8009 96.4141 23.0845C95.7004 23.3682 94.9374 23.505 94.1704 23.4868C93.4103 23.5054 92.6544 23.3653 91.9506 23.0753C91.2466 22.7854 90.6097 22.3517 90.0802 21.8018C89.5369 21.2558 89.1103 20.6035 88.8269 19.885C88.5432 19.1666 88.4082 18.3972 88.4309 17.6243ZM90.9951 17.6692C90.9438 18.6144 91.255 19.5433 91.8644 20.2637C92.4931 20.881 93.3354 21.2274 94.2132 21.2296C95.0907 21.2317 95.9348 20.8895 96.5666 20.2753C97.1374 19.5494 97.4481 18.6504 97.4481 17.7243C97.4481 16.7981 97.1374 15.8991 96.5666 15.1732C95.9427 14.5541 95.1021 14.2071 94.2266 14.2071C93.351 14.2071 92.5107 14.5541 91.8865 15.1732C91.2769 15.8556 90.9563 16.7515 90.9937 17.6692H90.9951Z" fill="#222222"/>
      <path d="M111.107 12.7017V16.0602C110.682 15.4911 110.161 15.0008 109.57 14.6112C109.093 14.3333 108.549 14.1935 107.998 14.2071C107.558 14.1958 107.121 14.279 106.715 14.4514C106.31 14.6237 105.946 14.8811 105.647 15.2064C105.018 15.8839 104.682 16.7844 104.711 17.7112C104.675 18.6399 104.999 19.5461 105.613 20.2391C105.908 20.5624 106.269 20.818 106.671 20.9885C107.073 21.1591 107.506 21.2406 107.942 21.2275C108.498 21.2391 109.047 21.1038 109.535 20.835C110.139 20.4349 110.67 19.9333 111.106 19.352V22.6854C110.167 23.1964 109.119 23.47 108.052 23.4826C107.277 23.5046 106.506 23.3709 105.783 23.0894C105.06 22.8078 104.4 22.3839 103.841 21.8425C103.29 21.3164 102.854 20.6797 102.563 19.9735C102.271 19.2673 102.129 18.5073 102.147 17.7425C102.132 16.971 102.277 16.2048 102.572 15.493C102.868 14.7811 103.307 14.1393 103.863 13.6085C104.417 13.0572 105.075 12.624 105.799 12.3345C106.522 12.045 107.296 11.9052 108.075 11.9234C109.134 11.9215 110.178 12.1892 111.107 12.7017Z" fill="#222222"/>
      <path d="M116.635 4.10156V15.6716L120.166 12.1342H123.532L118.818 16.7288L123.879 23.075H120.625L117.038 18.4587L116.638 18.8628V23.075H114.13V4.10291L116.635 4.10156Z" fill="#222222"/>
      <path d="M135.01 18.2979H127.227C127.252 19.0952 127.561 19.8568 128.097 20.4434C128.355 20.7045 128.663 20.909 129.002 21.0444C129.342 21.1797 129.706 21.2428 130.07 21.2298C130.621 21.2515 131.164 21.0938 131.618 20.7802C132.166 20.3087 132.63 19.7467 132.99 19.1183L135.107 20.3088C134.813 20.825 134.465 21.3086 134.071 21.7516C133.728 22.1342 133.334 22.4671 132.901 22.7407C132.483 22.9994 132.027 23.1909 131.551 23.3081C131.036 23.4316 130.508 23.4922 129.979 23.4883C129.255 23.5199 128.533 23.396 127.861 23.1249C127.188 22.8537 126.581 22.4415 126.079 21.9155C125.062 20.763 124.534 19.2547 124.608 17.7142C124.539 16.1826 125.048 14.6815 126.034 13.5135C127.043 12.5065 128.404 11.938 129.824 11.9298C131.245 11.9215 132.612 12.4741 133.633 13.4693C134.611 14.6524 135.105 16.1667 135.014 17.704L135.01 18.2979ZM132.435 16.2312C132.338 15.6377 132.025 15.1019 131.557 14.7281C131.09 14.3544 130.501 14.1695 129.906 14.2094C129.614 14.2073 129.324 14.255 129.047 14.3502C128.783 14.4422 128.536 14.5788 128.318 14.7543C128.096 14.9328 127.906 15.1473 127.755 15.389C127.593 15.6492 127.473 15.9334 127.398 16.2312H132.435Z" fill="#222222"/>
      <path d="M140.536 14.5608V23.1431H138.027V14.5608H136.958V12.2016H138.027V8.19141H140.536V12.2016H142.486V14.5608H140.536Z" fill="#222222"/>
    </g>
  </g>
  <defs>
    <clipPath id="clip0_1566_50691">
      <rect width="142" height="30" fill="white" transform="translate(0.5)"/>
    </clipPath>
  </defs>
</svg>