<svg xmlns="http://www.w3.org/2000/svg" width="65" height="65" viewBox="0 0 65 65" fill="none">
  <g clip-path="url(#clip0_661_45763)">
    <path d="M43.6025 44.711C40.6435 41.7615 36.6301 40.1045 32.4453 40.1045C28.2605 40.1045 24.7881 41.2223 21.8291 44.1718" stroke="#CCCCCC"/>
    <path d="M26.0016 35.2038C26.0016 36.4475 24.9898 37.4584 23.7381 37.4584C22.4865 37.4584 21.4746 36.4475 21.4746 35.2038C21.4746 33.9602 22.4865 32.9492 23.7381 32.9492C24.9897 32.9492 26.0016 33.9602 26.0016 35.2038Z" fill="#CCCCCC" stroke="#CCCCCC"/>
    <path d="M43.9567 35.2038C43.9567 36.4475 42.9448 37.4584 41.6932 37.4584C40.4416 37.4584 39.4297 36.4475 39.4297 35.2038C39.4297 33.9602 40.4416 32.9492 41.6932 32.9492C42.9448 32.9492 43.9567 33.9602 43.9567 35.2038Z" fill="#CCCCCC" stroke="#CCCCCC"/>
    <path d="M55.306 14.1365L55.3061 14.1367C55.7698 14.5988 56.0272 15.2253 56.0272 15.8717V16.1258H41.1529V8.71426V1.30273H41.4094C42.0729 1.30273 42.7019 1.56077 43.1648 2.02218L55.306 14.1365ZM36.1844 1.30273V17.6147C36.1844 19.5242 37.7491 21.0816 39.6608 21.0816H56.0272V61.1281C56.0272 62.4946 54.9256 63.595 53.5508 63.595H11.8807C10.5059 63.595 9.4043 62.4946 9.4043 61.1281V3.76956C9.4043 2.40311 10.5059 1.30273 11.8807 1.30273H36.1844Z" stroke="#CCCCCC"/>
  </g>
  <defs>
    <clipPath id="clip0_661_45763">
      <rect width="63.4973" height="63.2922" fill="white" transform="translate(0.966797 0.802734)"/>
    </clipPath>
  </defs>
</svg>