<svg xmlns="http://www.w3.org/2000/svg" width="16" height="16" viewBox="0 0 16 16" fill="none" class="unverified-svg">
  <path d="M5.52727 16L4.14545 13.5619L1.52727 12.9524L1.78182 10.1333L0 8L1.78182 5.86667L1.52727 3.04762L4.14545 2.4381L5.52727 0L8 1.10476L10.4727 0L11.8545 2.4381L14.4727 3.04762L14.2182 5.86667L16 8L14.2182 10.1333L14.4727 12.9524L11.8545 13.5619L10.4727 16L8 14.8952L5.52727 16Z" fill="#F84141"/>
  <path d="M6.2368 11L11 6.22535L9.81974 5L5 9.775L6.2368 11Z" fill="white"/>
  <path d="M9.7632 11L5 6.22535L6.18026 5L11 9.775L9.7632 11Z" fill="white"/>
</svg>