<svg xmlns="http://www.w3.org/2000/svg" width="166" height="120" viewBox="0 0 166 120" fill="none">
  <g clip-path="url(#clip0_3187_33838)">
    <path d="M81.854 119.494H75.5156V70.2773H80.6704C80.9201 70.2773 81.1596 70.3771 81.3366 70.5548C81.5136 70.7324 81.6136 70.9736 81.6149 71.2255L81.854 119.494Z" fill="#CCCCCC"/>
    <path d="M76.1129 119.754H8.04688V84.7031H76.1129V119.754Z" fill="white"/>
    <path d="M49.2805 119.622H8.17188V84.832H75.9795V92.6854C75.9715 99.8269 73.156 106.674 68.1507 111.724C63.1454 116.773 56.359 119.614 49.2805 119.622Z" fill="#F2F2F2"/>
    <path d="M80.8259 71.6753C80.7917 71.7406 80.7652 71.8097 80.7468 71.8812L78.3997 81.0087L75.8539 85.8731H8.30469V84.6615L12.1505 81.0087L16.6368 72.351C16.8348 71.9688 17.0949 71.6227 17.4062 71.3272C18.1166 70.6528 19.0552 70.2773 20.0306 70.2773H79.9908C80.1536 70.2773 80.3136 70.3198 80.4554 70.4006C80.5971 70.4813 80.7157 70.5977 80.7998 70.7384C80.8838 70.879 80.9303 71.0392 80.9349 71.2034C80.9395 71.3676 80.902 71.5301 80.8259 71.6753Z" fill="#F2F2F2"/>
    <path d="M76.1129 119.754H8.04688V84.7031H76.1129V119.754ZM8.56357 119.233H75.5962V85.2244H8.56357V119.233Z" fill="#E6E6E6"/>
    <path d="M79.6515 76.3438L78.3975 81.0078H12.1484L14.2891 77.1257L79.6515 76.3438Z" fill="#CCCCCC"/>
    <path d="M21.4051 103.07H10.5547V103.676H21.4051V103.07Z" fill="white"/>
    <path d="M21.4051 105.191H10.5547V105.797H21.4051V105.191Z" fill="white"/>
    <path d="M21.4051 107.309H10.5547V107.914H21.4051V107.309Z" fill="white"/>
    <path d="M14.7544 96.3205C16.9099 96.3205 18.6572 94.5576 18.6572 92.3829C18.6572 90.2082 16.9099 88.4453 14.7544 88.4453C12.5989 88.4453 10.8516 90.2082 10.8516 92.3829C10.8516 94.5576 12.5989 96.3205 14.7544 96.3205Z" fill="white"/>
    <path d="M57.5334 78.363H54.2188V52.625H56.9145C57.045 52.625 57.1703 52.6772 57.2628 52.7701C57.3554 52.863 57.4077 52.9891 57.4084 53.1208L57.5334 78.363Z" fill="#CCCCCC"/>
    <path d="M54.525 78.4979H18.9297V60.168H54.525V78.4979Z" fill="white"/>
    <path d="M40.4979 78.4318H19V60.2383H54.4602V64.3452C54.4561 68.0799 52.9837 71.6605 50.3661 74.3013C47.7486 76.9421 44.1996 78.4276 40.4979 78.4318Z" fill="#F2F2F2"/>
    <path d="M56.9955 53.3561C56.9777 53.3902 56.9638 53.4264 56.9542 53.4637L55.7267 58.237L54.3954 60.7808H19.0703V60.1473L21.0815 58.237L23.4276 53.7094C23.5312 53.5095 23.6672 53.3286 23.83 53.174C24.2015 52.8214 24.6923 52.625 25.2024 52.625H56.5588C56.644 52.625 56.7276 52.6472 56.8018 52.6894C56.8759 52.7317 56.9379 52.7925 56.9819 52.8661C57.0258 52.9397 57.0501 53.0234 57.0525 53.1093C57.0549 53.1951 57.0353 53.2801 56.9955 53.3561Z" fill="#F2F2F2"/>
    <path d="M54.525 78.4979H18.9297V60.168H54.525V78.4979ZM19.1999 78.2252H54.2548V60.4406H19.1999V78.2252Z" fill="#E6E6E6"/>
    <path d="M56.379 55.7969L55.7233 58.2358H21.0781L22.1976 56.2056L56.379 55.7969Z" fill="#CCCCCC"/>
    <path d="M25.9164 69.7734H20.2422V70.0902H25.9164V69.7734Z" fill="white"/>
    <path d="M25.9164 70.8828H20.2422V71.1996H25.9164V70.8828Z" fill="white"/>
    <path d="M25.9164 71.9922H20.2422V72.309H25.9164V71.9922Z" fill="white"/>
    <path d="M22.4394 66.2433C23.5667 66.2433 24.4804 65.3214 24.4804 64.1842C24.4804 63.0469 23.5667 62.125 22.4394 62.125C21.3122 62.125 20.3984 63.0469 20.3984 64.1842C20.3984 65.3214 21.3122 66.2433 22.4394 66.2433Z" fill="white"/>
    <path d="M155.221 119.736L155.2 119.625C154.865 117.759 154.936 115.842 155.409 114.007C155.882 112.172 156.746 110.463 157.94 108.998C158.616 108.182 159.391 107.455 160.247 106.835L160.329 106.775L160.365 106.87C160.791 108.003 161.328 109.138 161.573 109.64L161.738 105.891L161.833 105.841C162.265 105.607 162.757 105.509 163.244 105.56C163.732 105.611 164.194 105.808 164.569 106.125C164.958 106.441 165.244 106.866 165.391 107.347C165.538 107.828 165.539 108.342 165.394 108.823C165.265 109.263 165.144 109.72 165.027 110.162C164.623 111.68 164.207 113.25 163.399 114.572C162.777 115.567 161.944 116.409 160.958 117.037C159.973 117.665 158.862 118.063 157.704 118.202L155.221 119.736Z" fill="#F2F2F2"/>
    <path d="M165.5 119.689C165.5 119.73 165.492 119.77 165.477 119.808C165.461 119.846 165.439 119.88 165.41 119.909C165.382 119.938 165.348 119.96 165.31 119.976C165.273 119.991 165.233 119.999 165.193 119.999H0.807436C0.725899 119.999 0.647701 119.967 0.590045 119.908C0.53239 119.85 0.5 119.771 0.5 119.689C0.5 119.607 0.53239 119.528 0.590045 119.47C0.647701 119.412 0.725899 119.379 0.807436 119.379H165.193C165.233 119.379 165.273 119.387 165.31 119.402C165.348 119.418 165.382 119.441 165.41 119.469C165.439 119.498 165.461 119.533 165.477 119.57C165.492 119.608 165.5 119.648 165.5 119.689Z" fill="#CCCCCC"/>
    <path d="M128.215 40.3284L123.509 39.6484C121.918 42.3331 121.352 49.4788 121.352 49.4788L116.748 60.5211C116.443 60.73 116.198 61.0164 116.037 61.3513C115.877 61.6861 115.807 62.0578 115.834 62.4287C115.861 62.7996 115.985 63.1568 116.192 63.4642C116.4 63.7716 116.684 64.0185 117.016 64.1799C117.348 64.3413 117.716 64.4116 118.084 64.3838C118.452 64.3559 118.805 64.2308 119.11 64.0211C119.414 63.8114 119.659 63.5244 119.818 63.1892C119.978 62.8539 120.047 62.4821 120.019 62.1113L127.58 49.2585L128.215 40.3284Z" fill="#FFB8B8"/>
    <path d="M127.468 27.1513C128.196 27.2651 128.891 27.5394 129.502 27.9548C130.113 28.3702 130.626 28.9163 131.004 29.5544C131.383 30.1925 131.617 30.9069 131.69 31.6468C131.764 32.3866 131.675 33.1336 131.43 33.8348L130.431 36.6902C130.431 36.6902 129.888 45.2876 127.815 47.7145L121.454 47.1336C121.454 47.1336 122.617 42.796 121.724 40.6974C121.177 39.4121 121.208 34.973 121.747 31.3618C121.848 30.7061 122.076 30.0768 122.418 29.5101C122.76 28.9434 123.21 28.4504 123.742 28.0593C124.273 27.6682 124.876 27.3867 125.515 27.2309C126.155 27.0751 126.818 27.048 127.468 27.1513Z" fill="#E6E6E6"/>
    <path d="M143.019 116.358L140.184 116.358L138.836 105.328L143.019 105.328L143.019 116.358Z" fill="#FFB6B6"/>
    <path d="M143.114 119.343L134.398 119.342V119.231C134.399 118.323 134.756 117.453 135.392 116.811C136.028 116.169 136.891 115.808 137.791 115.808L139.383 114.59L142.354 115.809L143.115 115.809L143.114 119.343Z" fill="#2F2E41"/>
    <path d="M130.692 102.689L128.074 103.784L122.641 94.1165L126.505 92.5L130.692 102.689Z" fill="#FFB6B6"/>
    <path d="M131.915 105.405L123.863 108.773L123.821 108.671C123.477 107.832 123.476 106.89 123.82 106.051C124.164 105.212 124.824 104.546 125.655 104.198L126.663 102.457L129.87 102.435L130.573 102.141L131.915 105.405Z" fill="#2F2E41"/>
    <path d="M146.256 53.6133L126.142 55.7335L123.451 64.8765L114.133 79.9844L124.421 99.0554L128.044 95.7743L124.567 80.3742L134.947 69.0676L136.916 68.2436L138.478 110.2L144.258 110.295L146.787 63.9995C148.002 59.9097 147.636 56.5328 146.256 53.6133Z" fill="#2F2E41"/>
    <path d="M138.884 24.6686L135.582 20.918L130.365 21.5028L127.025 26.2187C125.247 26.631 123.694 27.7151 122.684 29.248C121.674 30.7808 121.285 32.6458 121.597 34.4592C122.893 41.989 127.298 49.292 125.844 53.0072C123.636 58.6468 123.501 60.9469 128.786 60.1562C134.071 59.3656 151.776 57.5428 148.344 54.0796C144.911 50.6163 144.157 44.8291 144.157 44.8291L144.019 31.589C144.165 30.7904 144.146 29.9701 143.962 29.1795C143.778 28.3889 143.435 27.6452 142.952 26.9951C142.47 26.3451 141.859 25.8028 141.159 25.4024C140.459 25.0021 139.684 24.7522 138.884 24.6686Z" fill="#E6E6E6"/>
    <path d="M132.432 19.9586C135.63 19.9586 138.223 17.3428 138.223 14.116C138.223 10.8892 135.63 8.27344 132.432 8.27344C129.233 8.27344 126.641 10.8892 126.641 14.116C126.641 17.3428 129.233 19.9586 132.432 19.9586Z" fill="#FFB8B8"/>
    <path d="M139.562 13.769C139.303 14.9527 138.837 16.0803 138.184 17.0982C138.011 17.4454 137.752 17.7417 137.433 17.9588C137.271 18.0635 137.078 18.1077 136.888 18.0837C136.697 18.0596 136.521 17.9689 136.39 17.8273L136.249 17.7115C136.525 17.5397 136.772 17.3237 136.979 17.0719C137.082 16.9456 137.153 16.7963 137.187 16.6366C137.221 16.4768 137.217 16.3112 137.175 16.1534C137.125 15.9978 137.017 15.8679 136.874 15.7908C136.731 15.7138 136.564 15.6956 136.408 15.7402C136.069 15.8744 135.863 16.3692 135.508 16.2929C135.221 16.2297 135.161 15.8481 135.161 15.5481C135.171 13.9795 134.42 11.7503 133.838 11.8188C133.251 11.8512 132.662 11.7717 132.104 11.5845C131.544 11.397 130.954 11.321 130.366 11.3608C130.324 11.3661 130.283 11.374 130.238 11.3819C130.144 11.0839 130.014 10.7984 129.852 10.5318C129.871 10.8536 129.855 11.1766 129.805 11.495C129.337 11.6896 128.854 11.8437 128.36 11.9556C127.823 12.0319 126.641 13.6532 126.586 13.4873C126.492 13.1893 126.362 12.9039 126.2 12.6373C126.219 12.9591 126.203 13.282 126.153 13.6005C126.151 13.6137 126.151 13.6242 126.148 13.6374C125.887 13.2873 125.728 12.861 125.817 13.1873C124.943 11.1924 125.282 9.76329 126.657 8.08154C126.925 7.71993 127.279 7.43286 127.687 7.24724C127.891 7.1567 128.115 7.12076 128.337 7.14289C128.559 7.16502 128.772 7.24446 128.955 7.37357C129.516 6.85492 130.204 6.497 130.948 6.33688C131.692 6.17677 132.464 6.22029 133.186 6.46295C134.618 6.96564 135.722 7.26041 135.941 8.77635C137.125 8.58422 138.343 9.26324 138.996 10.2765C139.645 11.2924 139.778 12.582 139.562 13.769Z" fill="#2F2E41"/>
    <path d="M134.867 62.2996H132.945V47.375H134.508C134.584 47.375 134.657 47.4052 134.71 47.4591C134.764 47.513 134.794 47.5861 134.795 47.6625L134.867 62.2996Z" fill="#3F3D56"/>
    <path d="M133.125 62.3749H112.484V51.7461H133.125V62.3749Z" fill="white"/>
    <path d="M124.989 62.3389H112.523V51.7891H133.086V54.1705C133.083 56.3362 132.229 58.4124 130.712 59.9437C129.194 61.475 127.136 62.3364 124.989 62.3389Z" fill="#0B3D60"/>
    <path d="M134.554 47.7989C134.544 47.8187 134.536 47.8397 134.53 47.8614L133.818 50.6292L133.046 52.1043H112.562V51.7369L113.729 50.6292L115.089 48.0038C115.149 47.8879 115.228 47.783 115.322 47.6934C115.538 47.4889 115.823 47.375 116.118 47.375H134.301C134.35 47.375 134.399 47.3879 134.442 47.4124C134.485 47.4369 134.521 47.4721 134.546 47.5148C134.572 47.5575 134.586 47.606 134.587 47.6558C134.588 47.7056 134.577 47.7549 134.554 47.7989Z" fill="#3F3D56"/>
    <path d="M133.125 62.3749H112.484V51.7461H133.125V62.3749ZM112.641 62.2168H132.968V51.9042H112.641V62.2168Z" fill="#3F3D56"/>
    <path d="M134.196 49.2148L133.816 50.6294H113.727L114.376 49.452L134.196 49.2148Z" fill="#0B3D60"/>
    <path d="M116.54 57.3164H113.25V57.5001H116.54V57.3164Z" fill="white"/>
    <path d="M116.54 57.9609H113.25V58.1446H116.54V57.9609Z" fill="white"/>
    <path d="M116.54 58.6016H113.25V58.7853H116.54V58.6016Z" fill="white"/>
    <path d="M114.519 55.2709C115.173 55.2709 115.703 54.7363 115.703 54.0769C115.703 53.4174 115.173 52.8828 114.519 52.8828C113.866 52.8828 113.336 53.4174 113.336 54.0769C113.336 54.7363 113.866 55.2709 114.519 55.2709Z" fill="white"/>
    <path d="M142.902 38.9651L138.197 38.2852C136.605 40.9698 136.04 48.1155 136.04 48.1155L131.435 59.1578C131.13 59.3668 130.885 59.6531 130.725 59.988C130.564 60.3229 130.494 60.6945 130.521 61.0654C130.549 61.4363 130.672 61.7935 130.88 62.1009C131.087 62.4083 131.371 62.6552 131.703 62.8166C132.035 62.9781 132.404 63.0484 132.771 63.0205C133.139 62.9926 133.493 62.8675 133.797 62.6578C134.102 62.4481 134.346 62.1612 134.506 61.8259C134.665 61.4906 134.735 61.1188 134.707 60.748L142.267 47.8952L142.902 38.9651Z" fill="#FFB8B8"/>
    <path d="M140.346 25.787C141.075 25.9008 141.769 26.1751 142.38 26.5904C142.992 27.0058 143.505 27.552 143.883 28.1901C144.261 28.8282 144.495 29.5426 144.569 30.2824C144.642 31.0222 144.553 31.7693 144.308 32.4704L143.31 35.3258C143.31 35.3258 144.567 43.9233 142.495 46.3501L136.134 45.7692C136.134 45.7692 137.297 41.4317 136.404 39.333C135.857 38.0477 135.888 33.6086 136.426 29.9975C136.838 27.2401 137.615 25.3602 140.346 25.787Z" fill="#E6E6E6"/>
    <path d="M100.394 11.5578C98.0956 12.7145 96.3463 14.7452 95.5314 17.2032C94.7166 19.6612 94.9029 22.345 96.0494 24.6644C98.4369 29.4942 107.064 37.7314 113.948 38.976C110.987 29.9054 115.104 20.6856 113.385 15.9415C111.549 10.8724 105.182 9.14908 100.394 11.5578Z" fill="#0B3D60"/>
    <path d="M103.62 23.0461C105.365 23.0461 106.779 21.6192 106.779 19.859C106.779 18.0988 105.365 16.6719 103.62 16.6719C101.875 16.6719 100.461 18.0988 100.461 19.859C100.461 21.6192 101.875 23.0461 103.62 23.0461Z" fill="white"/>
    <path d="M113.889 44.0929C115.032 44.0929 115.958 43.1583 115.958 42.0054C115.958 40.8526 115.032 39.918 113.889 39.918C112.747 39.918 111.82 40.8526 111.82 42.0054C111.82 43.1583 112.747 44.0929 113.889 44.0929Z" fill="#0B3D60"/>
    <path opacity="0.2" d="M104.582 16.5097C104.997 16.4952 105.411 16.5633 105.8 16.7101C106.188 16.8569 106.545 17.0795 106.848 17.3653C107.151 17.6511 107.396 17.9944 107.568 18.3756C107.739 18.7568 107.835 19.1684 107.849 19.5869C107.863 20.0054 107.795 20.4226 107.65 20.8147C107.504 21.2067 107.283 21.5659 106.999 21.8718C106.716 22.1776 106.375 22.4241 105.997 22.5971C105.619 22.7701 105.211 22.8663 104.796 22.8801C105.499 22.6163 106.087 22.1087 106.452 21.4481C106.818 20.7876 106.939 20.0172 106.794 19.2748C106.648 18.5324 106.245 17.8666 105.658 17.3964C105.07 16.9263 104.336 16.6825 103.586 16.7087C103.905 16.5886 104.242 16.5214 104.582 16.5097Z" fill="#231F20"/>
    <path opacity="0.2" d="M113.401 15.9449C115.12 20.6889 111.003 29.9087 113.964 38.9793C113.314 38.8586 112.674 38.6896 112.049 38.4736C109.637 29.7052 113.423 20.9435 111.763 16.3599C110.276 12.2575 105.823 10.3469 101.641 11.0439C106.231 9.46458 111.718 11.2995 113.401 15.9449Z" fill="#231F20"/>
    <path d="M16.4332 59.9596C14.0535 59.902 11.7486 60.8005 10.0255 62.4574C8.30239 64.1143 7.30225 66.3939 7.24511 68.7948C7.12612 73.7944 10.6544 84.3128 15.7577 88.3416C17.2285 79.6179 24.5605 73.8664 25.1904 69.2295C25.8636 64.2749 21.3887 60.0797 16.4332 59.9596Z" fill="#D1D3D4"/>
    <path d="M15.5052 71.1212C17.1219 71.1212 18.4324 69.799 18.4324 68.168C18.4324 66.537 17.1219 65.2148 15.5052 65.2148C13.8886 65.2148 12.5781 66.537 12.5781 68.168C12.5781 69.799 13.8886 71.1212 15.5052 71.1212Z" fill="white"/>
    <path d="M14.4016 92.7279C15.4604 92.7279 16.3188 91.8619 16.3188 90.7936C16.3188 89.7254 15.4604 88.8594 14.4016 88.8594C13.3427 88.8594 12.4844 89.7254 12.4844 90.7936C12.4844 91.8619 13.3427 92.7279 14.4016 92.7279Z" fill="#D1D3D4"/>
    <path opacity="0.2" d="M17.7327 65.8469C18.4308 66.1895 18.9654 66.7979 19.2189 67.5382C19.4724 68.2785 19.424 69.09 19.0845 69.7943C18.9163 70.1431 18.6817 70.455 18.3941 70.7123C18.1065 70.9695 17.7714 71.1671 17.4081 71.2938C16.6744 71.5495 15.87 71.5007 15.1719 71.1581C15.861 71.2494 16.5598 71.0903 17.1433 70.7092C17.7267 70.3282 18.1567 69.7501 18.3563 69.0784C18.5559 68.4067 18.5121 67.6853 18.2326 67.0433C17.9532 66.4012 17.4563 65.8805 16.8311 65.5742C17.1443 65.6155 17.4488 65.7075 17.7327 65.8469Z" fill="#231F20"/>
    <path opacity="0.2" d="M25.1978 69.2377C24.5678 73.8746 17.2358 79.6261 15.7651 88.3497C15.2848 87.9668 14.8332 87.5486 14.4141 87.0985C16.2042 78.8621 23.0687 73.3412 23.6774 68.8612C24.2221 64.8514 21.3951 61.3395 17.6704 60.082C22.1081 60.7952 25.8147 64.6972 25.1978 69.2377Z" fill="#231F20"/>
    <path d="M50.4815 21.4798C49.8127 21.524 49.1874 21.8297 48.7386 22.3319C48.2898 22.8341 48.0529 23.4932 48.0784 24.1689C48.0857 24.3062 48.1043 24.4426 48.1339 24.5768L40.5391 29.4041L44.7379 31.2777L51.3064 26.4063C51.8484 26.2393 52.3202 25.8959 52.6484 25.4298C52.9766 24.9637 53.1426 24.4012 53.1206 23.8299C53.105 23.5049 53.026 23.1863 52.8883 22.8921C52.7506 22.5979 52.5568 22.334 52.318 22.1154C52.0792 21.8967 51.8 21.7277 51.4965 21.6179C51.1929 21.5082 50.8709 21.4598 50.5488 21.4756C50.5264 21.4767 50.504 21.4781 50.4815 21.4798Z" fill="#FFB6B6"/>
    <path d="M43.1592 27.2106L45.0415 31.1289L37.5991 35.9607C37.0695 36.3075 36.4609 36.5119 35.831 36.5545C35.2011 36.597 34.5708 36.4764 34.0002 36.204C33.3064 35.8689 32.7393 35.3154 32.3844 34.6269C32.0296 33.9384 31.9062 33.1522 32.0328 32.3867L34.4477 18.4772C34.6098 17.5038 35.1355 16.6301 35.9166 16.0358C36.6977 15.4415 37.6748 15.1717 38.647 15.282C39.1205 15.3342 39.5792 15.4801 39.9969 15.7111C40.4145 15.9422 40.783 16.2541 41.0812 16.6288C41.3795 17.0036 41.6016 17.4339 41.735 17.8953C41.8683 18.3567 41.9103 18.84 41.8586 19.3178C41.8545 19.3555 41.8498 19.3932 41.8445 19.4308C41.8263 19.5644 41.8009 19.697 41.7685 19.8279L39.1322 29.7201L43.1592 27.2106Z" fill="#0B3D60"/>
    <path d="M43.6826 33.2852H33.0391V44.0234H43.6826V33.2852Z" fill="#FFB8B8"/>
    <path d="M68.9297 64.9109L72.9946 63.5312L75.2582 74.6943L72.5037 75.629L68.9297 64.9109Z" fill="#FFB6B6"/>
    <path d="M62.0391 64.0529L66.0711 62.5781L68.5916 73.6849L65.8595 74.684L62.0391 64.0529Z" fill="#FFB6B6"/>
    <path d="M33.4249 46.8305C31.2916 61.1791 59.7001 52.696 59.7001 52.696L68.6074 65.0929L73.8221 64.1363C73.8221 64.1363 71.4756 56.6941 67.2852 46.7174C65.4242 42.2868 44.293 43.3694 44.293 43.3694L43.8543 39.8954L31.7656 39.6562L33.4249 46.8305Z" fill="#2F2E41"/>
    <path d="M53.9453 53.6551L60.5145 49.5273C65.3236 59.2159 66.7412 63.4118 66.7412 63.4118L62.1947 64.7017L53.9453 53.6551Z" fill="#2F2E41"/>
    <path d="M39.5037 15.8378L37.3613 13.0595L34.3054 12.9258L34.0004 15.5388L32.4861 16.2433C30.9742 22.0385 30.7407 28.0978 31.8021 33.994C32.005 34.1868 32.1533 34.4307 32.2316 34.7005C32.31 34.9704 32.3155 35.2565 32.2477 35.5293L32.1495 35.9241L32.1586 35.9386C32.4808 36.4515 32.5901 37.0717 32.463 37.6653L31.7398 38.9617C31.4803 39.4279 31.3246 39.9455 31.2835 40.4786C31.2423 41.0116 31.3167 41.5474 31.5016 42.0485C31.6865 42.5496 31.9773 43.0041 32.3538 43.3803C32.7304 43.7565 33.1837 44.0455 33.6822 44.2271C38.1272 45.8526 42.294 46.4581 45.3766 41.8966L46.3459 26.0008L39.5037 15.8378Z" fill="#0B3D60"/>
    <path d="M37.2597 13.7958C40.3803 13.7958 42.91 11.2435 42.91 8.09515C42.91 4.94679 40.3803 2.39453 37.2597 2.39453C34.1391 2.39453 31.6094 4.94679 31.6094 8.09515C31.6094 11.2435 34.1391 13.7958 37.2597 13.7958Z" fill="#FFB8B8"/>
    <path d="M34.4249 1.223C32.0325 1.26937 30.135 3.50828 30.1867 6.22373C28.4162 8.08753 27.9873 17.2548 29.4667 19.6936C32.1728 20.0105 33.8188 13.2559 36.192 14.2323L36.5047 12.7582L37.2133 14.6779C37.8165 14.9584 38.415 15.2663 39.009 15.6016C39.4359 13.6262 39.3301 11.706 38.1827 10.0335C37.1634 8.54762 39.6439 6.78363 41.4179 7.03295L41.3919 5.66827L41.8375 7.02482C42.5289 7.53746 43.2939 7.35187 44.0783 6.98138C45.3502 0.311849 35.5024 -1.51206 34.4249 1.223Z" fill="#2F2E41"/>
    <path d="M71.2497 77.5168L73.0607 77.2782L73.1606 75.5105L74.2119 77.1264L79.0152 76.4934C79.2455 76.4631 79.4601 76.3593 79.6277 76.1972C79.7953 76.0351 79.9072 75.8232 79.947 75.5924C79.9868 75.3616 79.9525 75.124 79.849 74.9143C79.7455 74.7046 79.5782 74.5338 79.3716 74.4268L75.1898 72.2596L74.964 70.5156L70.9609 71.2903L71.2497 77.5168Z" fill="#2F2E41"/>
    <path d="M66.4623 77.5345L68.1052 76.7296L67.6453 75.021L69.1496 76.218L73.5071 74.0833C73.716 73.9809 73.887 73.8139 73.9952 73.6066C74.1033 73.3993 74.1429 73.1626 74.1083 72.9309C74.0736 72.6993 73.9664 72.4849 73.8024 72.3191C73.6384 72.1532 73.4262 72.0446 73.1967 72.0091L68.5499 71.2892L67.7884 69.707L64.2344 71.7205L66.4623 77.5345Z" fill="#2F2E41"/>
    <path d="M41.6641 39.5185H43.6787V23.875H42.0402C41.9609 23.875 41.8848 23.9067 41.8285 23.9632C41.7722 24.0196 41.7404 24.0963 41.74 24.1764L41.6641 39.5185Z" fill="#CCCCCC"/>
    <path d="M43.4922 28.4609H65.127V39.6018H43.4922V28.4609Z" fill="white"/>
    <path d="M43.5312 31.0001V28.5039H65.0839V39.5619H52.0175C49.7676 39.5593 47.6106 38.6565 46.0196 37.0514C44.4287 35.4463 43.5338 33.27 43.5312 31.0001Z" fill="#F2F2F2"/>
    <path d="M41.9879 24.3193C41.9988 24.3401 42.0072 24.3621 42.013 24.3848L42.7591 27.2859L43.5683 28.8321H65.0387V28.447L63.8164 27.286L62.3904 24.5341C62.3274 24.4126 62.2448 24.3026 62.1458 24.2087C61.92 23.9944 61.6217 23.875 61.3117 23.875H42.2533C42.2016 23.875 42.1507 23.8885 42.1057 23.9142C42.0606 23.9398 42.0229 23.9768 41.9962 24.0215C41.9695 24.0663 41.9547 24.1172 41.9532 24.1693C41.9518 24.2215 41.9637 24.2732 41.9879 24.3193Z" fill="#F2F2F2"/>
    <path d="M43.4922 28.4609H65.127V39.6018H43.4922V28.4609ZM64.9627 39.4361H43.6564V28.6266H64.9627L64.9627 39.4361Z" fill="#E6E6E6"/>
    <path d="M42.3672 25.8047L42.7658 27.2873H63.8231L63.1426 26.0533L42.3672 25.8047Z" fill="#CCCCCC"/>
    <path d="M64.3238 34.2969H60.875V34.4894H64.3238V34.2969Z" fill="white"/>
    <path d="M64.3238 34.9727H60.875V35.1652H64.3238V34.9727Z" fill="white"/>
    <path d="M64.3238 35.6445H60.875V35.8371H64.3238V35.6445Z" fill="white"/>
    <path d="M62.9905 32.1555C63.6756 32.1555 64.231 31.5951 64.231 30.9039C64.231 30.2127 63.6756 29.6523 62.9905 29.6523C62.3054 29.6523 61.75 30.2127 61.75 30.9039C61.75 31.5951 62.3054 32.1555 62.9905 32.1555Z" fill="white"/>
    <path d="M52.9854 11.9899C54.4435 11.9546 55.8558 12.5051 56.9117 13.5204C57.9675 14.5356 58.5803 15.9325 58.6153 17.4036C58.6882 20.467 56.5263 26.9121 53.3992 29.3807C52.4981 24.0354 48.0054 20.5112 47.6194 17.67C47.207 14.634 49.9489 12.0634 52.9854 11.9899Z" fill="#D1D3D4"/>
    <path d="M53.5514 18.83C54.542 18.83 55.345 18.0199 55.345 17.0205C55.345 16.0211 54.542 15.2109 53.5514 15.2109C52.5608 15.2109 51.7578 16.0211 51.7578 17.0205C51.7578 18.0199 52.5608 18.83 53.5514 18.83Z" fill="white"/>
    <path d="M54.2216 32.0696C54.8704 32.0696 55.3964 31.539 55.3964 30.8844C55.3964 30.2299 54.8704 29.6992 54.2216 29.6992C53.5728 29.6992 53.0469 30.2299 53.0469 30.8844C53.0469 31.539 53.5728 32.0696 54.2216 32.0696Z" fill="#D1D3D4"/>
    <path opacity="0.2" d="M52.1808 15.5968C51.969 15.7007 51.7796 15.8458 51.6234 16.0236C51.4671 16.2014 51.3471 16.4085 51.2702 16.6331C51.1933 16.8577 51.161 17.0954 51.1751 17.3326C51.1892 17.5698 51.2495 17.8019 51.3526 18.0155C51.4556 18.2292 51.5994 18.4204 51.7756 18.578C51.9518 18.7356 52.1571 18.8567 52.3798 18.9343C52.6024 19.0119 52.838 19.0445 53.0731 19.0302C53.3082 19.016 53.5382 18.9551 53.75 18.8512C53.3277 18.9071 52.8996 18.8096 52.542 18.5761C52.1845 18.3426 51.921 17.9884 51.7987 17.5769C51.6765 17.1653 51.7033 16.7232 51.8746 16.3298C52.0458 15.9364 52.3502 15.6173 52.7333 15.4297C52.5414 15.455 52.3549 15.5114 52.1808 15.5968Z" fill="#231F20"/>
    <path opacity="0.2" d="M47.6116 17.6765C47.9976 20.5177 52.4902 24.0419 53.3914 29.3873C53.6857 29.1527 53.9624 28.8964 54.2193 28.6206C53.1223 23.5738 48.9162 20.1909 48.5432 17.4458C48.2094 14.9888 49.9417 12.8369 52.224 12.0664C49.5048 12.5034 47.2336 14.8943 47.6116 17.6765Z" fill="#231F20"/>
    <path d="M49.7881 27.0383C49.1197 26.9884 48.4583 27.2036 47.9448 27.6381C47.4312 28.0726 47.1059 28.6921 47.0382 29.3649C47.0266 29.5018 47.0262 29.6395 47.0371 29.7766L38.8516 33.4935L42.752 35.937L49.9271 32.0327C50.4868 31.9432 51.0014 31.6692 51.3905 31.2536C51.7797 30.838 52.0215 30.3041 52.0782 29.7353C52.1373 29.0809 51.9362 28.4297 51.5193 27.9249C51.1025 27.4202 50.5039 27.1031 49.8553 27.0436C49.8329 27.0415 49.8105 27.0398 49.7881 27.0383Z" fill="#FFB6B6"/>
    <path d="M41.7458 31.6873L43.0708 35.8313L35.0356 39.574C34.4634 39.8433 33.8325 39.9604 33.2029 39.9144C32.5732 39.8683 31.9657 39.6606 31.438 39.3109C30.797 38.8819 30.3116 38.2544 30.0549 37.5228C29.7982 36.7912 29.7842 35.9953 30.0149 35.255L34.3203 21.8184C34.6148 20.8771 35.2556 20.0855 36.1109 19.6063C36.9662 19.1272 37.9709 18.9969 38.9185 19.2422C39.3803 19.3603 39.8145 19.569 40.1963 19.8563C40.5781 20.1437 40.9001 20.5041 41.1439 20.917C41.3877 21.3299 41.5485 21.7871 41.6171 22.2627C41.6857 22.7383 41.6608 23.2229 41.5437 23.6887C41.5345 23.7256 41.5247 23.7622 41.5143 23.7987C41.4778 23.9285 41.4345 24.0562 41.3844 24.1813L37.4124 33.6085L41.7458 31.6873Z" fill="#0B3D60"/>
  </g>
  <defs>
    <clipPath id="clip0_3187_33838">
      <rect width="165" height="120" fill="white" transform="translate(0.5)"/>
    </clipPath>
  </defs>
</svg>