<svg xmlns="http://www.w3.org/2000/svg" width="10.966" height="10.964" viewBox="0 0 10.966 10.964"><defs><style>.a{fill:#696969;}</style></defs><g transform="translate(0 0)"><path class="a" d="M637.352,71.15a.711.711,0,0,0-.207-.309l-.39-.39c-.048-.048-.1-.1-.144-.144a.579.579,0,0,0-.8-.011c-.033.03-.062.062-.093.093l-.628.627-.683.683c.009.009.017.019.026.026l.138.138.165.165.4.4.342.342.165.165.165.165.587-.587.685-.685c.04-.04.082-.079.121-.121A.577.577,0,0,0,637.352,71.15Z" transform="translate(-626.406 -70.14)"/><path class="a" d="M156.564,200.308l-.11.11-1.421,1.421-1.538,1.538-1.488,1.488q-.634.636-1.269,1.269l-.885.885-.332.332a.228.228,0,0,1-.089.054l0,0a.233.233,0,0,1-.073.012l-1.523.451a.237.237,0,0,1-.233-.233l.451-1.481a.293.293,0,0,1,.073-.213c.126-.138.267-.266.4-.4l.933-.933q.65-.65,1.3-1.3l1.5-1.5,1.533-1.533q.687-.687,1.373-1.371l.165.165.165.165.342.342.4.4.165.165.138.138C156.547,200.289,156.556,200.3,156.564,200.308Z" transform="translate(-147.6 -196.907)"/></g></svg>