<svg xmlns="http://www.w3.org/2000/svg" width="22.184" height="22.184" viewBox="0 0 22.184 22.184"><defs><style>.a{fill:#fff;}</style></defs><g transform="translate(2.808 2.809)"><path class="a" d="M167.442,161.536a7.462,7.462,0,0,1-.065.963l.042-.307a7.232,7.232,0,0,1-.489,1.8c.039-.092.078-.185.115-.275a7.31,7.31,0,0,1-.935,1.6l.18-.233a7.313,7.313,0,0,1-1.281,1.281l.233-.18a7.256,7.256,0,0,1-1.6.935l.275-.115a7.26,7.26,0,0,1-1.8.489l.307-.042a7.267,7.267,0,0,1-1.925,0l.307.042a7.233,7.233,0,0,1-1.8-.489l.275.115a7.308,7.308,0,0,1-1.6-.935l.233.18a7.313,7.313,0,0,1-1.281-1.281l.18.233a7.257,7.257,0,0,1-.935-1.6c.039.092.078.185.115.275a7.259,7.259,0,0,1-.489-1.8l.042.307a7.266,7.266,0,0,1,0-1.925l-.042.307a7.233,7.233,0,0,1,.489-1.8c-.039.092-.078.185-.115.275a7.309,7.309,0,0,1,.935-1.6l-.18.233a7.316,7.316,0,0,1,1.281-1.281l-.233.18a7.256,7.256,0,0,1,1.6-.935l-.275.115a7.26,7.26,0,0,1,1.8-.489l-.307.042a7.264,7.264,0,0,1,1.925,0l-.307-.042a7.233,7.233,0,0,1,1.8.489l-.275-.115a7.311,7.311,0,0,1,1.6.935l-.233-.18a7.316,7.316,0,0,1,1.281,1.281l-.18-.233a7.256,7.256,0,0,1,.935,1.6c-.039-.092-.078-.185-.115-.275a7.26,7.26,0,0,1,.489,1.8l-.042-.307a7.075,7.075,0,0,1,.065.963,1.2,1.2,0,0,0,.337.817,1.159,1.159,0,0,0,1.634,0,1.187,1.187,0,0,0,.337-.817,8.231,8.231,0,0,0-1.484-4.725,7.883,7.883,0,0,0-1.879-1.93,8.216,8.216,0,0,0-4.642-1.621,8.239,8.239,0,0,0-6.6,2.936,9.3,9.3,0,0,0-.792,1.1,9.014,9.014,0,0,0-.6,1.23,8.085,8.085,0,0,0-.549,2.445,8.258,8.258,0,0,0,4.751,8.063,9.244,9.244,0,0,0,1.29.485,9.132,9.132,0,0,0,1.385.254,8.265,8.265,0,0,0,9-6.842,9.43,9.43,0,0,0,.125-1.394,1.2,1.2,0,0,0-.337-.817,1.159,1.159,0,0,0-1.634,0A1.192,1.192,0,0,0,167.442,161.536Z" transform="translate(-153.184 -153.254)"/></g><g transform="translate(9.937 0)"><path class="a" d="M464.308,35.524V32.717a1.2,1.2,0,0,0-.337-.817,1.159,1.159,0,0,0-1.634,0,1.2,1.2,0,0,0-.337.817v2.807a1.2,1.2,0,0,0,.337.817,1.159,1.159,0,0,0,1.634,0,1.217,1.217,0,0,0,.337-.817Z" transform="translate(-462 -31.562)"/></g><g transform="translate(9.937 17.067)"><g transform="translate(0 0)"><path class="a" d="M464.308,774.824v-2.807a1.2,1.2,0,0,0-.337-.817,1.159,1.159,0,0,0-1.634,0,1.2,1.2,0,0,0-.337.817v2.807a1.2,1.2,0,0,0,.337.817,1.159,1.159,0,0,0,1.634,0,1.212,1.212,0,0,0,.337-.817Z" transform="translate(-462 -770.862)"/></g></g><g transform="translate(0 9.937)"><path class="a" d="M35.524,462H32.717a1.2,1.2,0,0,0-.817.337,1.159,1.159,0,0,0,0,1.634,1.2,1.2,0,0,0,.817.337h2.807a1.2,1.2,0,0,0,.817-.337,1.159,1.159,0,0,0,0-1.634,1.217,1.217,0,0,0-.817-.337Z" transform="translate(-31.562 -462)"/></g><g transform="translate(17.067 9.937)"><g transform="translate(0)"><path class="a" d="M774.824,462h-2.807a1.2,1.2,0,0,0-.817.337,1.159,1.159,0,0,0,0,1.634,1.2,1.2,0,0,0,.817.337h2.807a1.2,1.2,0,0,0,.817-.337,1.159,1.159,0,0,0,0-1.634,1.212,1.212,0,0,0-.817-.337Z" transform="translate(-770.862 -462)"/></g></g><g transform="translate(7.792 7.792)"><path class="a" d="M373.374,372.4a2.423,2.423,0,0,1-.018.289l.042-.307a2.182,2.182,0,0,1-.145.538c.039-.092.078-.185.115-.275a2.353,2.353,0,0,1-.272.473l.18-.233a2.233,2.233,0,0,1-.4.4l.233-.18a2.19,2.19,0,0,1-.473.272l.275-.115a2.183,2.183,0,0,1-.538.145l.307-.042a2.193,2.193,0,0,1-.577,0l.307.042a2.183,2.183,0,0,1-.538-.145l.275.115a2.352,2.352,0,0,1-.473-.272l.233.18a2.233,2.233,0,0,1-.4-.4l.18.233a2.194,2.194,0,0,1-.272-.473c.039.092.078.185.115.275a2.183,2.183,0,0,1-.145-.538l.042.307a2.193,2.193,0,0,1,0-.577l-.042.307a2.184,2.184,0,0,1,.145-.538c-.039.092-.078.185-.115.275a2.355,2.355,0,0,1,.272-.473l-.18.233a2.232,2.232,0,0,1,.4-.4l-.233.18a2.194,2.194,0,0,1,.473-.272l-.275.115a2.182,2.182,0,0,1,.538-.145l-.307.042a2.2,2.2,0,0,1,.577,0l-.307-.042a2.181,2.181,0,0,1,.538.145l-.275-.115a2.353,2.353,0,0,1,.473.272l-.233-.18a2.232,2.232,0,0,1,.4.4l-.18-.233a2.192,2.192,0,0,1,.272.473c-.039-.092-.078-.185-.115-.275a2.183,2.183,0,0,1,.145.538l-.042-.307a2.422,2.422,0,0,1,.018.289,1.2,1.2,0,0,0,.337.817,1.159,1.159,0,0,0,1.634,0,1.193,1.193,0,0,0,.337-.817,3.215,3.215,0,0,0-.561-1.833,4.237,4.237,0,0,0-.374-.466,3.993,3.993,0,0,0-.48-.4,3.184,3.184,0,0,0-.833-.422,3.276,3.276,0,0,0-3.532.96,4.306,4.306,0,0,0-.346.469,3.756,3.756,0,0,0-.261.561,3.276,3.276,0,0,0,1.625,4.081,4.081,4.081,0,0,0,.563.222,3.825,3.825,0,0,0,.644.108,3.231,3.231,0,0,0,.976-.065,3.229,3.229,0,0,0,1.745-1.03,3.961,3.961,0,0,0,.388-.531,3.835,3.835,0,0,0,.261-.579,3.169,3.169,0,0,0,.185-1.078,1.187,1.187,0,0,0-.337-.817,1.166,1.166,0,0,0-.817-.337A1.183,1.183,0,0,0,373.374,372.4Z" transform="translate(-369.087 -369.099)"/></g></svg>