<svg width="150" height="120" viewBox="0 0 150 120" fill="none" xmlns="http://www.w3.org/2000/svg">
<g id="Group">
<g id="Layer 2">
<path id="Vector" d="M72.7809 118.782L2.91661 76.5914C0.691337 75.2998 -1.21363 73.2204 0.952638 71.8557L71.0698 30.582C72.1234 29.9147 73.7207 29.4799 74.787 30.1128L148.12 73.595C150.345 74.9123 150.741 78.6019 148.516 79.9193L81.9896 118.713C80.5935 119.543 79.0094 119.986 77.3942 119.998C75.779 120.01 74.1887 119.591 72.7809 118.782Z" fill="#0B3D60"/>
<path id="Vector_2" d="M122.84 68.9258C122.84 68.9258 121.71 78.8277 126.848 80.765C131.985 82.7023 134.733 77.6911 134.813 68.9258" fill="#06577A"/>
<path id="Vector_3" d="M128.833 72.4597C132.14 72.4597 134.821 70.8772 134.821 68.9252C134.821 66.9731 132.14 65.3906 128.833 65.3906C125.525 65.3906 122.844 66.9731 122.844 68.9252C122.844 70.8772 125.525 72.4597 128.833 72.4597Z" fill="#F2696A"/>
<path id="Vector_4" d="M130.365 61.0641C130.365 61.0641 128.013 57.5985 129.041 55.2005C129.041 55.2005 129.884 53.6592 131.085 53.4182C131.085 53.4182 130.967 56.703 132.164 56.2854C133.361 55.8678 132.164 52.8413 132.164 52.8413C132.164 52.8413 133.429 51.1192 134.798 51.1579C136.168 51.1967 134.798 54.2318 135.755 53.741C136.712 53.2502 135.814 50.6715 136.893 50.3658C137.879 50.1341 138.878 49.9701 139.885 49.875C139.885 49.875 140.905 52.8886 139.885 53.3191C138.866 53.7497 137.357 53.8917 138.09 54.5547C138.823 55.2177 140.846 54.4557 140.846 54.4557C140.846 54.4557 140.973 56.1433 140.282 56.8709C139.59 57.5985 135.519 55.9883 136.236 57.4349C136.952 58.8814 139.649 58.1581 139.649 58.1581C139.649 58.1581 138.271 60.1687 136.657 61.0857C135.043 62.0027 130.365 61.0641 130.365 61.0641Z" fill="#8CCC00"/>
<path id="Vector_5" d="M130.898 69.7353C130.898 69.7353 129.212 68.0133 129.533 66.5538C129.533 66.5538 129.853 65.5894 130.506 65.3182C130.506 65.3182 130.78 67.1953 131.417 66.8293C132.053 66.4634 131.058 64.8791 131.058 64.8791C131.058 64.8791 131.589 63.7554 132.377 63.6349C133.166 63.5144 132.698 65.3785 133.191 64.991C133.684 64.6036 132.904 63.2431 133.486 62.9504C134.021 62.7121 134.572 62.5107 135.134 62.3477C135.134 62.3477 136.023 63.9363 135.492 64.2936C134.961 64.6509 134.122 64.892 134.603 65.1891C135.083 65.4861 136.158 64.8317 136.158 64.8317C136.158 64.8317 136.407 65.7746 136.09 66.2654C135.774 66.7561 133.292 66.2654 133.853 67.0274C134.413 67.7894 135.867 67.0661 135.867 67.0661C135.523 67.8135 135.042 68.487 134.451 69.0508C133.646 69.7482 130.898 69.7353 130.898 69.7353Z" fill="#8CCC00"/>
<path id="Vector_6" d="M124.656 66.0442C124.656 66.0442 120.53 66.2078 119.105 64.038C119.105 64.038 118.287 62.4838 118.73 61.3171C118.73 61.3171 121.377 63.1856 121.68 61.9284C121.984 60.6713 118.839 60.0815 118.839 60.0815C118.839 60.0815 118.077 58.0624 118.865 56.9043C119.653 55.7462 121.393 58.5532 121.503 57.4597C121.613 56.3662 119 55.7591 119.328 54.6656C119.668 53.692 120.07 52.7428 120.534 51.8242C120.534 51.8242 123.556 52.5561 123.362 53.6668C123.168 54.7776 122.485 56.1423 123.416 55.8797C124.348 55.6171 124.816 53.4516 124.816 53.4516C124.816 53.4516 126.278 54.248 126.502 55.2382C126.725 56.2284 123.21 58.8675 124.795 59.0268C126.379 59.1861 127.226 56.4738 127.226 56.4738C127.226 56.4738 128.145 58.7426 128.036 60.6283C127.926 62.514 124.656 66.0442 124.656 66.0442Z" fill="#8CCC00"/>
<path id="Vector_7" d="M138.963 51.1965C138.528 51.5754 138.088 51.96 137.644 52.3503C137.69 51.8725 137.745 51.3989 137.817 50.9253C137.855 50.6756 137.48 50.568 137.442 50.8177C137.343 51.452 137.269 52.0891 137.218 52.7292C136.064 53.7667 134.913 54.8473 133.847 55.9968C133.755 55.1896 133.731 54.3758 133.775 53.5644C133.775 53.3104 133.4 53.3104 133.387 53.5644C133.337 54.503 133.375 55.4445 133.501 56.3757C132.819 57.1265 132.179 57.9156 131.583 58.7392C130.913 57.7928 130.457 56.7062 130.247 55.5577C130.201 55.308 129.826 55.4113 129.872 55.6653C130.096 56.8862 130.589 58.039 131.314 59.0363C131.325 59.0493 131.338 59.0609 131.352 59.0707C129.636 61.5505 128.456 64.3359 128.359 67.5605C128.359 67.8188 128.743 67.8145 128.747 67.5605C128.844 64.4565 129.974 61.7657 131.617 59.3807C133.191 59.8076 134.822 59.9704 136.447 59.8628C136.696 59.8628 136.7 59.4323 136.447 59.4668C134.905 59.5702 133.356 59.4249 131.857 59.0363C132.683 57.8962 133.591 56.8199 134.572 55.816H134.605C135.516 55.8978 136.426 55.9796 137.336 56.014C137.906 56.0963 138.487 56.0266 139.022 55.8117C139.246 55.6954 139.047 55.351 138.824 55.4673C138.196 55.7902 137.315 55.6179 136.641 55.5792C136.064 55.5448 135.486 55.4931 134.909 55.4414C136.3 54.0379 137.787 52.7292 139.224 51.485C139.431 51.3128 139.153 51.0114 138.963 51.1965Z" fill="#06577A"/>
<path id="Vector_8" d="M126.909 58.9339C126.923 58.883 126.917 58.8286 126.892 58.7826C126.866 58.7366 126.824 58.7027 126.775 58.6885C126.725 58.6742 126.672 58.6807 126.627 58.7065C126.582 58.7324 126.548 58.7754 126.534 58.8262C126.113 60.2949 125.236 61.5839 124.035 62.4985C123.594 61.2472 123.189 59.9815 122.821 58.7014C123.761 57.7433 124.534 56.6279 125.106 55.4036C125.215 55.1754 124.878 54.9731 124.768 55.2013C124.241 56.3264 123.54 57.3571 122.691 58.2536C122.269 56.7899 121.924 55.3089 121.62 53.815C121.57 53.5653 121.199 53.6686 121.245 53.9226C121.658 55.9662 122.17 57.9824 122.779 59.9714C122.051 59.8229 121.344 59.5844 120.672 59.2611C120.444 59.1534 120.251 59.4935 120.474 59.6055C121.255 59.9849 122.083 60.2542 122.935 60.4062C123.357 61.6978 123.808 62.9893 124.301 64.2809C123.14 64.2412 121.997 63.9828 120.929 63.5189C120.701 63.4198 120.508 63.7643 120.731 63.8633C121.913 64.3819 123.183 64.6611 124.469 64.6856C125.096 66.2813 125.784 67.8513 126.534 69.3954C126.648 69.6236 126.981 69.4212 126.872 69.1931C125.867 67.1385 124.975 65.0286 124.2 62.8731C125.503 61.9006 126.455 60.5159 126.909 58.9339Z" fill="#06577A"/>
<path id="Vector_9" d="M133.945 64.0989L132.875 65.9372C132.743 65.7581 132.628 65.5663 132.533 65.3646C132.424 65.1321 132.091 65.3344 132.196 65.5669C132.318 65.8244 132.468 66.0671 132.643 66.2902L131.492 68.2921C131.361 68.1652 131.277 67.9967 131.252 67.8142C131.222 67.5645 130.83 67.5602 130.864 67.8142C130.897 68.1318 131.048 68.4244 131.286 68.6322L129.832 71.1249C129.805 71.1706 129.798 71.225 129.811 71.2763C129.824 71.3275 129.856 71.3714 129.901 71.3983C129.946 71.4251 129.999 71.4327 130.049 71.4194C130.1 71.406 130.143 71.3729 130.169 71.3272L132.086 68.0424C132.408 68.0475 132.729 67.998 133.035 67.896C133.271 67.8185 133.17 67.431 132.929 67.5128C132.734 67.5758 132.531 67.6148 132.327 67.6291L134.27 64.3012C134.285 64.2582 134.285 64.2111 134.27 64.1679C134.256 64.1247 134.227 64.088 134.188 64.0642C134.15 64.0403 134.105 64.0307 134.061 64.0371C134.016 64.0434 133.975 64.0652 133.945 64.0989Z" fill="#06577A"/>
<path id="Vector_10" d="M45.2031 65.5569V53.7091L55.5835 47.7852V59.534L45.2031 65.5569Z" fill="#ECA016"/>
<path id="Vector_11" d="M45.2169 53.7091L35.1021 47.7852C35.1021 47.7852 34.8197 59.7277 35.1021 59.9171C35.3844 60.1065 45.2169 65.5526 45.2169 65.5526V53.7091Z" fill="#FFB72F"/>
<path id="Vector_12" d="M35.0938 47.7914L45.1918 41.4844L55.5722 47.7914L45.1918 53.7111L35.0938 47.7914Z" fill="#FFC863"/>
<path id="Vector_13" d="M38.9453 45.39L49.4606 51.2794V57.466L52.4866 55.9032V49.5574L41.9713 43.5L38.9453 45.39Z" fill="#FDEDCB"/>
<path id="Vector_14" d="M73.309 0.402843C80.2335 4.83286 97.6437 15.1222 103.582 18.8419C104.926 19.7029 105.133 20.9385 105.154 22.5529V97.8288C104.788 98.2637 104.282 98.5505 103.727 98.6374C103.172 98.7243 102.605 98.6054 102.128 98.3023L72.9087 81.4347C71.4546 80.5737 70.3125 79.661 70.3125 77.9389L70.5654 1.76758C70.5569 0.118703 71.9393 -0.471106 73.309 0.402843Z" fill="#FFD0D0"/>
<path id="Vector_15" d="M70.6037 1.23182L80.1032 6.82854V8.92516C80.1052 9.10005 80.1517 9.27142 80.2381 9.4224C80.3246 9.57337 80.4481 9.69875 80.5963 9.78619L87.9465 14.1258C88.0447 14.1868 88.1571 14.2201 88.272 14.2222C88.387 14.2243 88.5004 14.1952 88.6007 14.1378C88.701 14.0804 88.7846 13.9969 88.8429 13.8957C88.9013 13.7945 88.9322 13.6793 88.9327 13.5618V12.0378L102.735 20.3037C102.865 20.384 102.972 20.4972 103.045 20.6323C103.119 20.7673 103.158 20.9196 103.157 21.0743V96.3459C103.157 96.4527 103.129 96.5577 103.077 96.6502C103.025 96.7427 102.95 96.8195 102.859 96.8728C102.768 96.9261 102.665 96.954 102.561 96.9537C102.456 96.9534 102.354 96.9249 102.263 96.8711L70.296 77.9284C70.2405 78.5139 70.3422 79.1039 70.5902 79.6349C70.8382 80.1658 71.2231 80.6177 71.7037 80.942C73.36 82.0226 102.47 98.8515 102.47 98.8515C102.47 98.8515 104.771 99.9148 105.445 97.1079V21.3886C105.445 20.8972 105.33 20.4129 105.11 19.9757C104.89 19.5386 104.572 19.1611 104.181 18.8744C102.874 17.867 73.1703 0.250246 73.1703 0.250246C73.1703 0.250246 71.0799 -0.744248 70.6037 1.23182Z" fill="#124577"/>
<path id="Vector_16" d="M65.2031 16.7344V23.6226C65.2711 24.1665 65.4994 24.6765 65.8577 25.0848C66.216 25.493 66.6874 25.7804 67.2092 25.9087C69.0341 26.3392 69.2828 23.8766 69.2828 23.8766V18.7922L65.2031 16.7344Z" fill="#C13D3D"/>
<path id="Vector_17" d="M69.1484 19.4805L69.317 26.7347C69.385 27.2786 69.6133 27.7885 69.9716 28.1968C70.3299 28.6051 70.8013 28.8924 71.3231 29.0207C73.148 29.4512 73.3967 26.9887 73.3967 26.9887V21.9043L69.1484 19.4805Z" fill="#DD842A"/>
<path id="Vector_18" d="M73.4297 21.9453V28.8336C73.4977 29.3775 73.726 29.8874 74.0843 30.2957C74.4426 30.704 74.9139 30.9913 75.4358 31.1196C77.2607 31.5501 77.5094 29.0876 77.5094 29.0876V24.0032L73.4297 21.9453Z" fill="#C13D3D"/>
<path id="Vector_19" d="M77.4922 24.4531V31.3414C77.5602 31.8853 77.7885 32.3952 78.1468 32.8035C78.5051 33.2118 78.9764 33.4991 79.4983 33.6274C81.3232 34.058 81.5719 31.5954 81.5719 31.5954V26.511L77.4922 24.4531Z" fill="#DD842A"/>
<path id="Vector_20" d="M81.5703 26.5469V33.4351C81.6383 33.979 81.8666 34.489 82.2249 34.8972C82.5832 35.3055 83.0546 35.5929 83.5764 35.7212C85.4013 36.1517 85.65 33.6891 85.65 33.6891V28.6177L81.5703 26.5469Z" fill="#C13D3D"/>
<path id="Vector_21" d="M85.5859 29.375V36.2633C85.6539 36.8072 85.8822 37.3171 86.2405 37.7254C86.5988 38.1337 87.0702 38.421 87.5921 38.5493C89.4169 38.9798 89.6656 36.5173 89.6656 36.5173V31.4329L85.5859 29.375Z" fill="#DD842A"/>
<path id="Vector_22" d="M85.5859 29.723L95.2794 15.7656L99.0134 18.099L89.6698 32.1855" fill="#F29D40"/>
<path id="Vector_23" d="M81.5703 27.2769L91.0825 13.3281L95.276 15.7648L85.5825 29.7222" fill="#E04F4F"/>
<path id="Vector_24" d="M77.4922 24.8126L87.3753 10.9844L91.084 13.3178L81.5761 27.301" fill="#F29D40"/>
<path id="Vector_25" d="M73.4297 22.2867L83.022 8.48438L87.3924 10.9943L77.5051 24.788" fill="#E04F4F"/>
<path id="Vector_26" d="M69.2578 19.6926L78.4371 5.89453L82.993 8.49055L73.4007 22.2929" fill="#F29D40"/>
<path id="Vector_27" d="M65.2031 17.164L74.3234 3.42188L78.462 5.89304L69.2828 19.6911" fill="#E04F4F"/>
<path id="Vector_28" d="M61.0938 14.7311L70.5891 1.23438L74.2937 3.4214L65.1734 17.1635" fill="#F29D40"/>
<path id="Vector_29" d="M102.732 20.2969C102.732 20.2969 103.154 20.3873 103.154 21.1579V34.4264L92.5625 40.613L94.0376 31.1416L102.732 20.2969Z" fill="#AA2B2B"/>
<path id="Vector_30" d="M89.6562 32.1875V38.3611C89.7243 38.905 89.9526 39.4149 90.3108 39.8232C90.6691 40.2315 91.1405 40.5189 91.6624 40.6472C93.4873 41.0777 93.7359 38.6151 93.7359 38.6151L93.6558 34.5553L89.6562 32.1875Z" fill="#C13D3D"/>
<path id="Vector_31" d="M93.6558 34.552L102.713 20.3019L98.9999 18.0977L89.6562 32.1842" fill="#E04F4F"/>
<path id="Vector_32" d="M61.0938 14.7344V21.9714C61.1618 22.5153 61.3901 23.0252 61.7483 23.4335C62.1066 23.8418 62.578 24.1291 63.0999 24.2574C64.9248 24.6879 65.1734 22.2254 65.1734 22.2254V17.141L61.0938 14.7344Z" fill="#DD842A"/>
<path id="Vector_33" d="M77.9051 52.1516C77.9051 52.1516 79.4139 49.0131 79.1694 48.7376C78.925 48.4621 78.0652 49.6977 78.0652 49.6977C78.0652 49.6977 78.0652 46.4817 77.7955 46.43C77.5257 46.3784 77.374 48.4362 77.374 48.4362C77.374 48.4362 77.079 46.0469 76.6196 46.0469C76.1602 46.0469 76.6196 48.3286 76.6196 48.3286C76.6196 48.3286 75.8146 46.8993 75.5449 47.0112C75.2752 47.1232 75.9664 48.9227 75.9664 48.9227C75.9664 48.9227 75.212 48.277 75.1235 48.4405C75.035 48.6041 75.9031 50.8471 76.4679 51.3853C76.8335 51.7494 77.1497 52.1621 77.4077 52.6123" fill="#FFB288"/>
<path id="Vector_34" d="M84.6236 51.418C84.8301 51.573 83.0853 50.8196 80.0255 58.3966C80.0255 58.3966 79.2205 54.7846 78.9635 52.3694C78.5742 52.0871 78.1333 51.8875 77.6671 51.7825C77.2009 51.6775 76.7187 51.6692 76.2493 51.7581C76.2029 53.5232 76.1482 60.4072 78.032 61.4318C80.1983 62.6071 82.4826 62.7233 83.7638 59.7097C83.7638 59.7356 87.9193 53.0798 84.6236 51.418Z" fill="#0B3D60"/>
<path id="Vector_35" d="M91.2592 59.9136L91.4657 60.1892C92.1232 57.6061 92.2454 54.4934 90.9642 52.2505C89.7841 51.7769 88.524 51.6951 88.3048 51.454L84.9585 51.3205C84.7943 51.317 84.6318 51.3544 84.4849 51.4294C84.3381 51.5044 84.2113 51.6148 84.1156 51.7511C83.2727 52.9048 81.1949 56.1337 81.9156 59.0225C82.8091 62.6173 82.514 65.3511 82.5773 67.9643C82.6405 70.5776 79.5049 76.5747 79.8926 80.4493C80.2803 84.324 91.4741 86.7219 91.9841 84.4359C93.7963 76.2561 94.0913 71.9724 92.473 68.4293C90.8546 64.8861 91.2592 59.9136 91.2592 59.9136Z" fill="#0B3D60"/>
<path id="Vector_36" d="M90.9886 52.2578C90.9886 52.2578 93.2181 53.2093 94.2675 57.9062C95.317 62.6031 95.7763 63.4082 91.507 66.2281C87.2377 69.048 87.7139 68.7122 87.7139 68.7122C87.7139 68.7122 85.2653 67.2355 85.7205 66.297C86.1756 65.3584 91.2668 62.9174 91.0856 61.2857C90.9043 59.6541 88.5948 57.9105 88.5948 57.9105" fill="#0B3D60"/>
<path id="Vector_37" d="M90.6274 58.7949C90.6048 58.7399 90.5634 58.6953 90.5109 58.6692C90.4584 58.6432 90.3984 58.6375 90.3421 58.6533C90.2859 58.6692 90.2372 58.7053 90.2051 58.7552C90.1731 58.805 90.1599 58.865 90.168 58.9241C90.3984 59.572 90.5677 60.2409 90.6737 60.9217C90.7749 62.1573 90.2523 62.7901 89.3377 63.4445C88.3878 64.0754 87.38 64.6103 86.3286 65.0417C86.3051 65.0499 86.2835 65.0628 86.265 65.0797C86.2465 65.0965 86.2316 65.117 86.221 65.1399C86.2103 65.1627 86.2043 65.1876 86.2033 65.2129C86.2022 65.2381 86.2061 65.2634 86.2148 65.2871C86.1698 65.3111 86.1348 65.3509 86.1162 65.3991C86.0976 65.4474 86.0967 65.5008 86.1136 65.5497C86.3216 66.5379 86.7661 67.4579 87.4075 68.2275C87.4318 68.2556 87.4628 68.2768 87.4976 68.2889C87.5323 68.301 87.5695 68.3036 87.6056 68.2964C87.6301 68.343 87.669 68.3801 87.7162 68.4019C87.7635 68.4237 87.8164 68.429 87.8669 68.417C88.8428 68.2184 89.7673 67.8137 90.581 67.2287C90.8297 67.0479 90.581 66.626 90.3408 66.7982C89.5735 67.3507 88.7025 67.7348 87.7826 67.9262C87.7736 67.9075 87.7623 67.8901 87.7489 67.8745C87.1728 67.1765 86.7747 66.3439 86.5899 65.4507C88.0734 64.7834 89.6412 64.0774 90.7623 62.8375C91.7695 61.7009 90.9898 60.1252 90.6274 58.7949Z" fill="#0B3D60"/>
<path id="Vector_38" d="M68.7039 60.4883L103.175 80.8302L91.2896 87.9983L56.25 67.708L68.7039 60.4883Z" fill="#FFA364"/>
<path id="Vector_39" d="M86.0911 65.543C85.3765 65.9155 84.6229 66.2043 83.8448 66.404C83.0609 66.5202 82.3528 65.7927 82.0915 66.1371C81.8302 66.4815 83.2589 66.6623 82.9344 66.8991C82.6099 67.1359 81.6954 67.3296 81.4341 67.8548C81.1728 68.3801 80.8356 69.3444 81.6195 69.8783C82.4034 70.4121 83.5624 69.3444 84.3084 68.8881C85.0543 68.4317 86.6896 67.166 86.6896 67.166C86.6896 67.166 86.4746 65.939 86.0911 65.543Z" fill="#FFB288"/>
<path id="Vector_40" d="M91.2656 88.0001V107.963L103.151 100.322V80.832L91.2656 88.0001Z" fill="#FFBB8D"/>
<path id="Vector_41" d="M56.2344 67.7148V86.1582L91.274 107.964V88.0008L56.2344 67.7148Z" fill="#E58341"/>
<path id="Vector_42" d="M85.6685 50.2298C85.6558 50.9232 85.5261 51.6092 85.285 52.2575C84.9352 52.9377 86.2248 53.1874 87.308 52.8688C88.3911 52.5503 87.8685 49.9844 87.8685 49.9844" fill="#FFB288"/>
<path id="Vector_43" d="M83.9028 46.3203C83.9028 46.3203 82.5963 49.9754 83.5741 50.5437C84.5518 51.112 86.9878 50.5437 86.9878 50.5437" fill="#222222"/>
<path id="Vector_44" d="M83.5941 45.535C83.5941 45.535 83.1305 50.7012 85.7561 51.1575C88.3818 51.6139 88.9086 46.2754 88.386 45.535C87.8634 44.7945 84.2726 44.3338 83.5941 45.535Z" fill="#FFB288"/>
<path id="Vector_45" d="M87.0092 49.4058C86.926 49.7325 86.9074 50.0728 86.9544 50.4069C87.0014 50.7411 87.1132 51.0622 87.2832 51.3517C88.3712 51.6082 89.5083 51.544 90.5621 51.1666C91.9697 47.8516 90.5368 42.7888 87.1061 42.4099C83.6755 42.031 83.1445 44.0502 82.9506 45.247C82.7567 46.4438 83.5954 46.3405 83.9242 46.319C86.8322 46.1253 87.6245 47.5115 87.0092 49.4058Z" fill="#222222"/>
<path id="Vector_46" d="M69.2422 69.7598V65.0241L73.3893 62.6562V67.3704L69.2422 69.7598Z" fill="#ECA016"/>
<path id="Vector_47" d="M69.2443 65.0397L65.2068 62.6719C65.2068 62.6719 65.093 67.4463 65.2068 67.5195C65.3206 67.5927 69.2443 69.7711 69.2443 69.7711V65.0397Z" fill="#FFB72F"/>
<path id="Vector_48" d="M65.2031 62.6674L69.2406 60.1445L73.392 62.6674L69.2406 65.0352L65.2031 62.6674Z" fill="#FFC863"/>
<path id="Vector_49" d="M66.7188 61.7147L70.9206 64.0697V66.5408L72.1302 65.9166V63.3808L67.9283 60.957L66.7188 61.7147Z" fill="#FDEDCB"/>
<path id="Vector_50" d="M18.8752 52.3041C15.6469 52.5322 15.8155 57.8663 15.5963 60.0792C15.5415 60.6346 16.3802 60.8197 16.4392 60.26C16.6205 58.4174 16.5024 55.9204 17.5055 54.2974C17.8174 53.7937 18.184 53.3029 18.8204 53.2598C19.0157 53.2532 19.2101 53.2881 19.3915 53.3622C19.5728 53.4363 19.7372 53.548 19.8741 53.6903C20.1564 53.9529 20.2955 54.9819 20.3545 55.2918C20.5211 56.4324 20.5395 57.5905 20.4093 58.736C20.3503 59.2914 21.189 59.4765 21.2522 58.9168C21.425 57.1474 21.7495 52.0802 18.8752 52.3041Z" fill="#8CCC00"/>
<path id="Vector_51" d="M23.7303 55.8711L24.7039 57.5243L26.6425 57.9376L25.1885 63.0607L21.0625 60.3356" fill="#DD842A"/>
<path id="Vector_52" d="M13.7656 61.4936L23.7161 55.8711L23.3958 64.2188L15.7886 64.9636L13.7656 61.4936Z" fill="#C13D3D"/>
<path id="Vector_53" d="M17.3438 62.7178L18.8821 78.5006L28.1835 72.7962L26.6452 57.9219L17.3438 62.7178Z" fill="#F29D40"/>
<path id="Vector_54" d="M17.3529 62.7243L16.3035 61.4844H13.7916L12.7422 75.2824L15.4437 76.5525L18.8912 78.507L17.3529 62.7243Z" fill="#DD842A"/>
<path id="Vector_55" d="M23.0604 54.9221C19.8236 54.9522 19.6888 60.2863 19.3347 62.4819C19.2462 63.033 20.0723 63.2698 20.1777 62.7144C20.4685 60.8847 20.4937 58.3834 21.5895 56.8249C22.0405 56.1878 22.8286 55.6496 23.5999 56.0672C24.2953 56.4418 24.3037 57.2813 24.3711 57.983C24.472 59.1325 24.4238 60.2906 24.2278 61.4272C24.1393 61.9782 24.9654 62.215 25.0707 61.6596C25.2983 59.9333 25.9431 54.8876 23.0604 54.9221Z" fill="#8CCC00"/>
</g>
</g>
</svg>
