<svg xmlns="http://www.w3.org/2000/svg" width="13.306" height="17.25" viewBox="0 0 13.306 17.25"><defs><style>.a{fill:#fff;stroke:#fff;stroke-width:0.5px;}</style></defs><g transform="translate(0.25 0.25)"><path class="a" d="M6.815,16.544a.515.515,0,0,1-.824,0C3.847,14.126,0,9.728,0,6.376a6.4,6.4,0,0,1,12.806,0C12.806,9.728,8.9,14.126,6.815,16.544Zm-.44-1.154c2.034-2.363,5.331-6.266,5.331-9.014a5.3,5.3,0,0,0-10.608,0C1.1,9.124,4.342,13.026,6.376,15.39Z"/><path class="a" d="M68.748,66A2.756,2.756,0,0,1,71.5,68.748,2.721,2.721,0,0,1,68.748,71.5,2.756,2.756,0,0,1,66,68.748,2.793,2.793,0,0,1,68.748,66Zm0,1.1A1.691,1.691,0,0,0,67.1,68.748,1.654,1.654,0,0,0,68.748,70.4,1.619,1.619,0,0,0,70.4,68.748,1.654,1.654,0,0,0,68.748,67.1Z" transform="translate(-62.372 -62.372)"/></g></svg>