<svg xmlns="http://www.w3.org/2000/svg" width="16.968" height="17" viewBox="0 0 16.968 17">
  <g id="noun_Save_2209758" transform="translate(58.468 -41.2) rotate(90)">
    <g id="Group_1401" data-name="Group 1401" transform="translate(41.2 41.5)">
      <path id="Path_4462" data-name="Path 4462" d="M58.2,257.908v3.763a.856.856,0,0,1-.027.209h0a.808.808,0,0,1-.787.648H42.008a.805.805,0,0,1-.8-.717.635.635,0,0,1-.011-.145V257.9a.8.8,0,0,1,1.606,0v3.014H56.6V257.9a.8.8,0,0,1,1.37-.567A.848.848,0,0,1,58.2,257.908Z" transform="translate(-41.2 -245.56)" fill="#e03b3b"/>
      <path id="Path_4463" data-name="Path 4463" d="M118.028,50.08l-3.945,3.945c-.005.011-.016.016-.021.021a.93.93,0,0,1-.519.262c-.016,0-.032.005-.048.005a.581.581,0,0,1-.1.005h0l-.091-.005c-.016,0-.032-.005-.048-.005a.913.913,0,0,1-.519-.262l-.021-.021-3.945-3.945a.939.939,0,1,1,1.327-1.327l2.371,2.371V42.437a.941.941,0,0,1,.937-.937.958.958,0,0,1,.664.273.925.925,0,0,1,.273.664v8.687l2.371-2.371a.943.943,0,0,1,1.327,0A.959.959,0,0,1,118.028,50.08Z" transform="translate(-104.898 -41.5)" fill="#e03b3b"/>
    </g>
  </g>
</svg>
