<svg xmlns="http://www.w3.org/2000/svg" width="11.079" height="11.1" viewBox="0 0 11.079 11.1"><defs><style>.a{fill:#fff;}</style></defs><g transform="translate(52.579 -41.2) rotate(90)"><g transform="translate(41.2 41.5)"><path class="a" d="M52.3,257.628v2.457a.559.559,0,0,1-.017.136h0a.528.528,0,0,1-.514.423H41.728a.526.526,0,0,1-.521-.468.414.414,0,0,1-.007-.094v-2.457a.524.524,0,0,1,1.048,0v1.968h9.006v-1.968a.524.524,0,0,1,.895-.37A.554.554,0,0,1,52.3,257.628Z" transform="translate(-41.2 -249.565)"/><path class="a" d="M114.721,47.1l-2.576,2.576c0,.007-.01.01-.014.014a.607.607,0,0,1-.339.171c-.01,0-.021,0-.031,0a.38.38,0,0,1-.063,0h0l-.059,0c-.01,0-.021,0-.031,0a.6.6,0,0,1-.339-.171l-.014-.014L108.678,47.1a.613.613,0,1,1,.867-.867l1.548,1.548V42.112a.615.615,0,0,1,.612-.612.625.625,0,0,1,.433.178.6.6,0,0,1,.178.433v5.672l1.548-1.548a.616.616,0,0,1,.867,0A.626.626,0,0,1,114.721,47.1Z" transform="translate(-106.148 -41.5)"/></g></g></svg>