<svg xmlns="http://www.w3.org/2000/svg" width="160" height="120" viewBox="0 0 160 120" fill="none">
  <path d="M77.902 116.799L12.0243 77.5994C9.92548 76.3994 8.12878 74.4674 10.1719 73.1994L76.2881 34.8394C77.2819 34.2194 78.7884 33.8154 79.7941 34.4034L148.959 74.8034C151.058 76.0274 151.432 79.4554 149.333 80.6794L86.5873 116.723C85.2716 117.496 83.7781 117.91 82.2547 117.923C80.7313 117.937 79.2308 117.549 77.902 116.799Z" fill="#0B3D60"/>
  <path opacity="0.48" d="M28.5471 71.8008L14.5312 78.6488C16.5929 80.0357 18.77 81.2402 21.0383 82.2488L35.3165 72.6688" fill="url(#paint0_linear_3187_34609)"/>
  <path opacity="0.48" d="M92.2255 71.119C88.5446 68.775 84.8677 66.407 81.4413 63.707L62.25 74.771L82.125 90.371C84.4066 88.919 96.3396 82.903 103.224 79.219V78.419C99.5593 75.999 95.9421 73.483 92.2255 71.119Z" fill="url(#paint1_linear_3187_34609)"/>
  <path d="M85.409 37.8259C85.3775 37.671 85.3123 37.525 85.2182 37.3985C85.124 37.2719 85.0032 37.1679 84.8644 37.0939C84.7387 37.0239 84.591 37.0052 84.4519 37.0417C84.3128 37.0781 84.193 37.167 84.1171 37.2899C84.055 37.4133 84.0355 37.554 84.0615 37.6899C84.0166 37.8868 84.0218 38.092 84.0767 38.2864C84.1316 38.4808 84.2344 38.6581 84.3755 38.8019C84.427 38.8556 84.4888 38.8983 84.5571 38.9275C84.6254 38.9566 84.6988 38.9717 84.773 38.9717C84.8472 38.9717 84.9206 38.9566 84.9889 38.9275C85.0572 38.8983 85.119 38.8556 85.1705 38.8019C85.2828 38.669 85.3628 38.5116 85.4042 38.3422C85.4456 38.1728 85.4473 37.996 85.409 37.8259Z" fill="#5A2500"/>
  <path d="M102.46 19.8308L81.6509 7.46275C81.346 7.30581 81.0126 7.21283 80.671 7.18946C80.3294 7.16608 79.9865 7.21279 79.6634 7.32675H79.6316C79.4788 7.37829 79.3311 7.4439 79.1904 7.52275L77.2188 8.39875L78.2721 8.86675L78.92 62.4668C78.9198 63.4107 79.1656 64.3381 79.633 65.1565C80.1003 65.9749 80.7728 66.6557 81.5833 67.1308L100.985 78.5068L100.683 80.3388L103.315 78.9388C103.57 78.7982 103.782 78.591 103.93 78.3389C104.077 78.0869 104.155 77.7993 104.153 77.5068V22.8188C104.154 22.2155 103.998 21.6226 103.701 21.0986C103.404 20.5746 102.976 20.1376 102.46 19.8308Z" fill="#68E1FD"/>
  <path opacity="0.33" d="M102.46 19.8308L81.6509 7.46275C81.346 7.30581 81.0126 7.21283 80.671 7.18946C80.3294 7.16608 79.9865 7.21279 79.6634 7.32675H79.6316C79.4788 7.37829 79.3311 7.4439 79.1904 7.52275L77.2188 8.39875L78.2721 8.86675L78.92 62.4668C78.9198 63.4107 79.1656 64.3381 79.633 65.1565C80.1003 65.9749 80.7728 66.6557 81.5833 67.1308L100.985 78.5068L100.683 80.3388L103.315 78.9388C103.57 78.7982 103.782 78.591 103.93 78.3389C104.077 78.0869 104.155 77.7993 104.153 77.5068V22.8188C104.154 22.2155 103.998 21.6226 103.701 21.0986C103.404 20.5746 102.976 20.1376 102.46 19.8308Z" fill="#3F3D56"/>
  <path d="M99.187 80.251L79.0695 68.455C78.259 67.9799 77.5865 67.2991 77.1192 66.4807C76.6518 65.6623 76.406 64.7348 76.4063 63.791V9.69895C76.4053 9.44557 76.4712 9.19648 76.5973 8.9771C76.7233 8.75773 76.9049 8.57592 77.1235 8.45025C77.3422 8.32458 77.59 8.25954 77.8418 8.26177C78.0936 8.26401 78.3403 8.33343 78.5567 8.46295L99.9422 21.175C100.458 21.4818 100.886 21.9188 101.183 22.4428C101.48 22.9668 101.636 23.5597 101.636 24.163V78.835C101.635 79.1231 101.559 79.406 101.416 79.6553C101.272 79.9045 101.066 80.1114 100.818 80.2549C100.57 80.3985 100.288 80.4737 100.002 80.473C99.7156 80.4723 99.4345 80.3957 99.187 80.251Z" fill="#F4F4F4"/>
  <path d="M100.357 27.4663L77.4375 14.2383V61.5623L100.357 74.8943V27.4663Z" fill="#054F70"/>
  <path d="M87.0976 71.5893C87.6655 71.4528 87.9776 70.7169 87.7946 69.9455C87.6115 69.1741 87.0027 68.6594 86.4347 68.7958C85.8667 68.9323 85.5546 69.6683 85.7377 70.4397C85.9207 71.2111 86.5296 71.7258 87.0976 71.5893Z" fill="#BABABC"/>
  <path d="M85.9062 16.5155C85.9063 16.6065 85.9302 16.6958 85.9755 16.7745C86.0209 16.8532 86.0861 16.9184 86.1646 16.9635L90.5928 19.5235C90.6708 19.5683 90.7591 19.5918 90.8489 19.5915C90.9387 19.5912 91.0269 19.5671 91.1045 19.5218C91.1822 19.4764 91.2467 19.4113 91.2915 19.333C91.3364 19.2547 91.3599 19.1659 91.36 19.0755V18.9675C91.3599 18.8751 91.3351 18.7843 91.2882 18.7048C91.2414 18.6253 91.1742 18.5599 91.0936 18.5155L86.6655 16.0635C86.5874 16.0205 86.4996 15.9986 86.4106 16.0001C86.3216 16.0015 86.2345 16.0263 86.1579 16.0719C86.0813 16.1175 86.0178 16.1824 85.9737 16.2602C85.9296 16.3379 85.9063 16.4259 85.9062 16.5155Z" fill="#CCCCCC"/>
  <path d="M84.34 15.5858C84.6 15.4884 84.7037 15.1198 84.5715 14.7627C84.4394 14.4055 84.1214 14.1949 83.8614 14.2923C83.6014 14.3898 83.4978 14.7583 83.6299 15.1155C83.7621 15.4726 84.08 15.6832 84.34 15.5858Z" fill="#CCCCCC"/>
  <path d="M80 23.2008V23.1048C80 22.0528 81.3038 21.3968 82.3452 21.9248L97.013 30.1448C97.259 30.2642 97.4944 30.4047 97.7166 30.5648C98.7501 31.4288 97.649 33.5408 95.6814 32.6168L80.795 24.4008C80.5629 24.2974 80.3648 24.1297 80.224 23.9172C80.0832 23.7046 80.0055 23.4561 80 23.2008Z" fill="#031E28"/>
  <path d="M95.3477 46.8448C96.0752 52.6768 93.4 57.7568 89.3852 58.1928C85.3705 58.6288 81.5108 54.2568 80.7833 48.4288C80.0559 42.6008 82.7311 37.5168 86.7458 37.0808C90.7606 36.6448 94.6203 41.0168 95.3477 46.8448Z" fill="#79C83B"/>
  <path d="M83.0156 48.2838L84.1962 46.4118L86.3149 49.6638L91.0292 42.3398L92.8935 43.8758L86.5017 53.6358L83.0156 48.2838Z" fill="white"/>
  <path opacity="0.48" d="M126.414 81.8125L112.398 88.6605C114.46 90.0474 116.637 91.2519 118.906 92.2605L133.184 82.6805" fill="url(#paint2_linear_3187_34609)"/>
  <path d="M125.08 68.7753C125.044 68.74 125.016 68.6979 124.996 68.6513C124.396 68.3473 123.804 68.0593 123.172 67.7913C122.981 67.6473 122.774 67.5153 122.591 67.3913C122.558 67.4276 122.518 67.456 122.472 67.4747C122.427 67.4934 122.378 67.5018 122.329 67.4993C121.43 67.4748 120.535 67.3731 119.654 67.1953C119.614 67.2714 119.583 67.352 119.562 67.4353C120.36 68.3686 120.899 69.4973 121.125 70.7073C121.296 70.9033 121.478 71.1073 121.677 71.3233C122.564 71.6753 123.768 71.5993 124.778 71.7233C124.825 71.6206 124.862 71.5134 124.889 71.4033H124.933C125.272 71.5284 125.603 71.6767 125.923 71.8473C126.586 71.9415 127.215 72.203 127.751 72.6073C127.898 72.5506 128.033 72.4664 128.149 72.3593C127.111 71.1993 126.205 69.8913 125.08 68.7753Z" fill="#1B896C"/>
  <path d="M130.211 69.7447L132.699 67.7727C132.699 67.7727 136.058 66.7007 136.01 63.0727C135.963 59.4447 134.886 58.4727 134.886 58.4727C134.886 58.4727 130.7 64.8007 130.211 69.7447Z" fill="#1B896C"/>
  <path d="M124.953 76.6328L126.225 82.6048C126.267 82.8032 126.354 82.9894 126.478 83.1494C126.601 83.3094 126.76 83.4391 126.941 83.5288C127.68 83.8928 129.206 84.2728 132.108 83.7448C132.369 83.6974 132.61 83.5733 132.801 83.3882C132.992 83.2032 133.124 82.9654 133.181 82.7048L134.485 76.6328" fill="#68E1FD"/>
  <path d="M129.719 78.596C132.351 78.596 134.485 77.7167 134.485 76.632C134.485 75.5473 132.351 74.668 129.719 74.668C127.087 74.668 124.953 75.5473 124.953 76.632C124.953 77.7167 127.087 78.596 129.719 78.596Z" fill="#56403D"/>
  <path d="M136.277 61.8486C136.165 60.4046 135.219 59.1126 135.362 57.6566C135.39 57.3846 135.021 57.3406 134.893 57.5286C132.421 61.1848 130.819 65.3648 130.211 69.7446C130.181 69.798 130.171 69.8605 130.183 69.9206C129.923 71.8746 129.863 73.8503 130.004 75.8166C130.171 75.8015 130.337 75.7748 130.501 75.7366C130.368 73.8072 130.43 71.8692 130.688 69.9526C131.534 68.9406 132.735 68.4606 133.756 67.6566C134.625 66.9774 135.308 66.0886 135.744 65.0726C136.178 64.0571 136.361 62.9508 136.277 61.8486ZM135.255 64.8686C134.719 66.079 133.824 67.0923 132.691 67.7686C132.218 68.0686 131.749 68.3526 131.312 68.6766C132.222 66.8853 133.008 65.0329 133.665 63.1326C133.772 62.8246 133.268 62.6926 133.18 62.9966C132.564 64.7917 131.829 66.5436 130.982 68.2406C131.667 64.7664 132.992 61.4519 134.889 58.4686C135.013 59.2886 135.398 60.0286 135.613 60.8686C135.936 62.205 135.811 63.6117 135.255 64.8686Z" fill="#37B596"/>
  <path d="M129.757 75.8299C129.359 74.7979 128.962 73.7538 128.501 72.7578C128.507 72.7116 128.501 72.6645 128.482 72.6216C128.464 72.5787 128.435 72.5414 128.397 72.5138C127.812 71.2839 127.019 70.1659 126.052 69.2099C124.152 67.3979 121.68 66.9579 119.16 66.6659C118.905 66.6379 118.857 66.9458 119.005 67.0938C119.012 67.1245 119.025 67.1533 119.043 67.1788C119.062 67.2042 119.085 67.2256 119.112 67.2419C120.606 68.1739 120.169 70.5458 121.751 71.4218C122.495 71.8218 123.397 71.7099 124.208 71.7419C125.284 71.7553 126.345 71.9994 127.32 72.4578C128.172 73.4019 128.763 74.5532 129.037 75.7979C129.276 75.8291 129.517 75.8398 129.757 75.8299ZM122.864 68.9378C122.558 68.8258 122.427 69.3138 122.729 69.4258C124.063 69.9039 125.3 70.6193 126.382 71.5378C126.121 71.463 125.855 71.4029 125.587 71.3578C124.534 71.1858 122.916 71.5178 121.986 70.9578C120.686 70.1978 120.793 68.3418 119.867 67.2338C122.129 67.5378 124.279 68.0818 125.945 69.8058C126.545 70.4382 127.065 71.1421 127.495 71.9018C126.203 70.5636 124.617 69.5485 122.864 68.9378Z" fill="#37B596"/>
  <path d="M21.7891 56.8924V76.5564C21.7892 76.8523 21.8672 77.1429 22.0151 77.3986C22.1631 77.6543 22.3756 77.8661 22.6312 78.0124C22.8868 78.1586 23.1763 78.2342 23.4704 78.2314C23.7644 78.2286 24.0524 78.1475 24.3052 77.9964L53.3029 60.6244C53.5474 60.4736 53.749 60.2617 53.8883 60.0095C54.0276 59.7572 54.0998 59.473 54.0979 59.1844V39.1564C54.0972 38.8619 54.0194 38.5729 53.8724 38.3183C53.7254 38.0637 53.5143 37.8526 53.2604 37.7062C53.0065 37.5598 52.7188 37.4833 52.4262 37.4844C52.1336 37.4855 51.8464 37.5641 51.5936 37.7124L23.1922 54.4284C22.7648 54.68 22.4104 55.0398 22.1642 55.4722C21.918 55.9045 21.7887 56.3941 21.7891 56.8924Z" fill="#054F70"/>
  <path d="M23.0312 57.3807V77.0447C23.0329 77.339 23.1116 77.6278 23.2594 77.8818C23.4072 78.1358 23.6189 78.3462 23.8731 78.4918C24.1274 78.6374 24.4153 78.713 24.7078 78.711C25.0003 78.7091 25.2872 78.6296 25.5395 78.4807L54.557 61.1087C54.8015 60.9578 55.0031 60.746 55.1424 60.4937C55.2817 60.2415 55.3539 59.9573 55.352 59.6687V39.6447C55.3513 39.3502 55.2735 39.0612 55.1265 38.8066C54.9795 38.552 54.7684 38.3409 54.5145 38.1945C54.2606 38.0481 53.9729 37.9716 53.6803 37.9727C53.3877 37.9738 53.1005 38.0524 52.8477 38.2007L24.4384 54.9167C24.0103 55.1678 23.655 55.5274 23.4081 55.9597C23.1612 56.3921 23.0313 56.882 23.0312 57.3807Z" fill="#37B596"/>
  <path d="M53.0787 58.6169C53.6945 57.0446 53.3343 55.4292 52.2743 55.0088C51.2143 54.5884 49.8558 55.5222 49.24 57.0945C48.6242 58.6668 48.9843 60.2822 50.0443 60.7026C51.1044 61.123 52.4629 60.1892 53.0787 58.6169Z" fill="#FBF472"/>
  <path d="M50.1334 60.2732C50.7491 58.7009 50.389 57.0855 49.329 56.6651C48.269 56.2447 46.9105 57.1785 46.2947 58.7508C45.6789 60.3231 46.039 61.9385 47.099 62.3589C48.1591 62.7792 49.5176 61.8455 50.1334 60.2732Z" fill="#E2347C"/>
  <path d="M26.6517 56.1584C27.0174 55.9504 27.2639 56.0584 27.3434 56.4544L27.0651 56.7144C26.9936 56.4904 26.8544 56.4384 26.6676 56.5544C26.5164 56.6502 26.3972 56.7896 26.3258 56.9544C26.2319 57.1601 26.1844 57.3841 26.1866 57.6104C26.1641 57.7904 26.211 57.9722 26.3178 58.1184C26.3664 58.1573 26.4266 58.1785 26.4887 58.1785C26.5508 58.1785 26.6111 58.1573 26.6597 58.1184C26.7657 58.0454 26.8556 57.9513 26.924 57.8419C26.9924 57.7325 27.0377 57.6101 27.0572 57.4824L27.3354 57.4184C27.3075 57.6416 27.2306 57.8557 27.1103 58.0453C26.99 58.2348 26.8293 58.3951 26.6398 58.5144C26.5586 58.5745 26.4604 58.6069 26.3596 58.6069C26.2587 58.6069 26.1605 58.5745 26.0793 58.5144C25.9898 58.4162 25.923 58.2993 25.8838 58.172C25.8446 58.0447 25.834 57.9103 25.8527 57.7784C25.8494 57.4322 25.9299 57.0903 26.0873 56.7824C26.2128 56.5247 26.4085 56.3083 26.6517 56.1584Z" fill="white"/>
  <path d="M28.4241 56.4385L28.8812 57.1985L28.5354 57.3985L28.0902 56.6625L27.9272 56.7545V57.7465L27.6172 57.9265V55.6265L28.2254 55.2785C28.5513 55.0905 28.7342 55.2465 28.7302 55.6425C28.7361 55.9381 28.6262 56.224 28.4241 56.4385ZM28.2293 56.1905C28.2937 56.1534 28.3464 56.0988 28.3815 56.0331C28.4166 55.9673 28.4327 55.893 28.4281 55.8185C28.4281 55.6452 28.3632 55.5959 28.2333 55.6705L27.9312 55.8425V56.3625L28.2333 56.1905" fill="white"/>
  <path d="M30.1392 54.1797V54.5757L29.4157 54.9917L29.4117 55.4717L29.9921 55.1397V55.5357L29.4117 55.8677L29.4078 56.4997L30.1551 56.0717V56.4677L29.0938 57.0757L29.1057 54.7757L30.1392 54.1797Z" fill="white"/>
  <path d="M30.9743 53.7045C31.3718 53.4805 31.7693 53.6045 31.7454 54.4085C31.7598 54.7213 31.6944 55.0327 31.5552 55.3128C31.416 55.5929 31.2078 55.8324 30.9504 56.0085L30.4297 56.3085V54.0085L30.9743 53.7045ZM31.2446 55.3045C31.3741 55.0889 31.4389 54.8403 31.4314 54.5885C31.4314 54.3005 31.3638 54.1285 31.2485 54.0885C31.1846 54.0705 31.1174 54.0673 31.052 54.079C30.9866 54.0908 30.9247 54.1173 30.8709 54.1565L30.7556 54.2245V55.7365L30.8709 55.6685C31.0312 55.5819 31.1677 55.4569 31.2684 55.3045" fill="white"/>
  <path d="M32.3414 52.9141L32.3295 55.2141L32.0234 55.3941L32.0354 53.0901L32.3414 52.9141Z" fill="white"/>
  <path d="M33.8536 52.0469L33.8496 52.4429L33.3845 52.7109L33.3766 54.6149L33.0665 54.7949L33.0744 52.8869L32.6094 53.1549L32.6134 52.7589L33.8536 52.0469Z" fill="white"/>
  <path d="M35.3666 51.1506C35.7323 50.9426 35.9788 51.0506 36.0583 51.4466L35.78 51.7066C35.7085 51.4826 35.5694 51.4306 35.3825 51.5466C35.2309 51.642 35.1117 51.7815 35.0407 51.9466C34.9458 52.1519 34.8983 52.3762 34.9016 52.6026C34.8773 52.7827 34.9244 52.9652 35.0327 53.1106C35.0807 53.1492 35.1403 53.1702 35.2017 53.1702C35.2631 53.1702 35.3227 53.1492 35.3706 53.1106C35.4766 53.0376 35.5666 52.9435 35.6349 52.8341C35.7033 52.7247 35.7486 52.6023 35.7681 52.4746L36.0464 52.4106C36.0185 52.6338 35.9416 52.8479 35.8213 53.0375C35.7009 53.227 35.5402 53.3873 35.3507 53.5066C35.2695 53.5667 35.1713 53.5991 35.0705 53.5991C34.9697 53.5991 34.8715 53.5667 34.7903 53.5066C34.7007 53.4084 34.6339 53.2915 34.5947 53.1642C34.5556 53.0369 34.5449 52.9025 34.5637 52.7706C34.5603 52.4243 34.6408 52.0825 34.7982 51.7746C34.9248 51.5164 35.122 51.2999 35.3666 51.1506Z" fill="white"/>
  <path d="M37.0232 50.2266L37.5757 52.2026L37.2418 52.3946L37.1186 51.9226L36.5899 52.2266L36.4667 52.8386L36.1328 53.0306L36.7132 50.3986L37.0232 50.2266ZM36.6734 51.7826L37.0272 51.5786L36.8523 50.8826L36.6734 51.7826Z" fill="white"/>
  <path d="M38.596 50.5909L39.0571 51.3549L38.7073 51.5549L38.2621 50.8189L38.0991 50.9109V51.9029L37.7891 52.0789V49.7789L38.3972 49.4309C38.7232 49.2429 38.906 49.3989 38.9021 49.7949C38.9076 50.0903 38.7977 50.3761 38.596 50.5909ZM38.4012 50.3429C38.4655 50.3057 38.5182 50.2512 38.5534 50.1854C38.5885 50.1197 38.6046 50.0454 38.6 49.9709C38.6 49.7976 38.535 49.7482 38.4052 49.8229L38.1031 49.9949V50.5149L38.4052 50.3429" fill="white"/>
  <path d="M39.8142 48.6264C40.2117 48.4024 40.6092 48.5264 40.5853 49.3304C40.5998 49.6432 40.5343 49.9546 40.3951 50.2347C40.2559 50.5148 40.0477 50.7543 39.7903 50.9304L39.2656 51.2304V48.9304L39.8142 48.6264ZM40.0845 50.2264C40.214 50.0108 40.2788 49.7622 40.2713 49.5104C40.2713 49.2224 40.2037 49.0504 40.0884 49.0104C40.0245 48.9924 39.9573 48.9891 39.8919 49.0009C39.8265 49.0127 39.7646 49.0392 39.7108 49.0784L39.5956 49.1464V50.6584L39.7108 50.5904C39.8711 50.5038 40.0076 50.3788 40.1083 50.2264" fill="white"/>
  <path d="M26.4922 62.2353V65.9113C26.4924 66.0658 26.5328 66.2175 26.6094 66.3514C26.686 66.4853 26.7962 66.5966 26.9289 66.6743C27.0616 66.752 27.2122 66.7934 27.3658 66.7942C27.5193 66.7951 27.6704 66.7555 27.8039 66.6793L32.8999 63.7473C33.0342 63.6697 33.1457 63.5578 33.2232 63.423C33.3007 63.2881 33.3413 63.135 33.3411 62.9793V59.2273C33.3403 59.0723 33.2991 58.9202 33.2215 58.7863C33.1439 58.6524 33.0327 58.5414 32.899 58.4644C32.7653 58.3874 32.6139 58.3472 32.4598 58.3477C32.3058 58.3482 32.1546 58.3894 32.0214 58.4673L26.9255 61.4753C26.7938 61.5531 26.6847 61.6642 26.6087 61.7974C26.5327 61.9307 26.4925 62.0816 26.4922 62.2353Z" fill="#F15A24"/>
  <path d="M35.3523 59.1344L35.4715 59.0664L35.3205 61.3624L35.0502 61.5264L35.1615 59.8024L34.8594 60.2384L34.8872 59.7904L35.3523 59.1344Z" fill="white"/>
  <path d="M36.2015 58.6044L36.2373 58.5804C36.5155 58.4124 36.6626 58.5804 36.6348 58.9804C36.6174 59.1946 36.5636 59.4044 36.4758 59.6004L36.0783 60.5524L36.603 60.2324L36.5791 60.6324L35.6172 61.2004V61.0364L36.2174 59.6564C36.2915 59.5044 36.3386 59.3406 36.3565 59.1724C36.3565 58.9844 36.3128 58.9084 36.1936 58.9804C36.1358 59.0305 36.0885 59.0916 36.0543 59.1603C36.0202 59.229 36 59.3038 35.9948 59.3804L35.7523 59.4604C35.7723 59.2774 35.8291 59.1005 35.9193 58.9404C35.9868 58.8083 36.0833 58.6934 36.2015 58.6044Z" fill="white"/>
  <path d="M37.0315 58.1296L37.8663 57.6016V57.7456L37.4688 58.6936L37.5284 58.6496C37.759 58.5096 37.8822 58.7016 37.8544 59.1096C37.8416 59.3372 37.7806 59.5595 37.6755 59.7616C37.5992 59.9198 37.486 60.057 37.3456 60.1616L37.3018 60.1896C37.1667 60.2736 37.0554 60.2816 36.9719 60.2136C36.9232 60.1603 36.8868 60.0967 36.8655 60.0275C36.8442 59.9584 36.8384 59.8853 36.8487 59.8136L37.111 59.6056C37.1309 59.8096 37.2025 59.8696 37.3297 59.7936C37.4039 59.7305 37.464 59.6522 37.5058 59.5639C37.5476 59.4756 37.5702 59.3793 37.5721 59.2816C37.5721 59.0216 37.5046 58.9336 37.3615 59.0216C37.317 59.0537 37.2781 59.0929 37.2462 59.1376L37.1548 58.9696L37.4767 58.2056L36.9997 58.4896L37.0315 58.1296Z" fill="white"/>
  <path d="M38.9926 58.3742L39.1596 58.2742L39.1357 58.6742L38.9688 58.7742L38.941 59.1982L38.6747 59.3542L38.7025 58.9302L38.0625 59.3302V59.1222L38.8019 57.0822L39.0841 56.9102L38.9926 58.3742ZM38.7263 58.5342L38.782 57.6582L38.4083 58.7262L38.7263 58.5342Z" fill="white"/>
  <path d="M40.8365 57.2647L41.0035 57.1647L40.9796 57.5647L40.8127 57.6647L40.7849 58.0927L40.5146 58.2527L40.5424 57.8247L39.8984 58.2247V58.0167L40.6378 55.9767L40.92 55.8047L40.8365 57.2647ZM40.5662 57.4287L40.6219 56.5527L40.2482 57.6007L40.5623 57.4087" fill="white"/>
  <path d="M41.4799 55.4523L42.2471 54.9883L42.2233 55.3883L41.6747 55.7163L41.6071 56.2163C41.6594 56.1407 41.7239 56.0744 41.7979 56.0203H41.8258C42.1279 55.8403 42.263 56.0203 42.2233 56.5083C42.2095 56.7353 42.15 56.9571 42.0484 57.1603C41.9734 57.3193 41.8599 57.4568 41.7184 57.5603L41.6787 57.5883C41.6351 57.6239 41.5819 57.6455 41.5259 57.6505C41.47 57.6555 41.4138 57.6436 41.3647 57.6163C41.3194 57.5673 41.2853 57.5091 41.2647 57.4455C41.2441 57.382 41.2375 57.3147 41.2454 57.2483L41.5038 57.0243C41.5038 57.2203 41.5873 57.2803 41.7065 57.2083H41.7264C41.8009 57.1428 41.8598 57.0614 41.899 56.9701C41.9382 56.8787 41.9567 56.7797 41.953 56.6803C41.953 56.4203 41.8973 56.3363 41.7423 56.4283H41.7184C41.6059 56.5209 41.5183 56.6406 41.464 56.7763L41.2971 56.8243L41.4799 55.4523Z" fill="white"/>
  <path d="M43.3737 55.3055C43.4211 55.3695 43.4548 55.4428 43.4726 55.5206C43.4904 55.5984 43.4919 55.6791 43.4771 55.7575C43.4612 55.9745 43.4002 56.1857 43.2982 56.3775C43.221 56.5351 43.108 56.6722 42.9683 56.7775L42.9285 56.8055C42.7894 56.8895 42.6741 56.8895 42.5867 56.8055C42.5375 56.7432 42.5024 56.6708 42.4839 56.5934C42.4654 56.5161 42.4638 56.4356 42.4793 56.3575C42.4914 56.2042 42.5249 56.0534 42.5787 55.9095L43.0915 54.4495L43.3896 54.2695L42.9921 55.3175H43.0239C43.1829 55.2015 43.2902 55.2015 43.3737 55.3055ZM43.2068 55.9215C43.2068 55.6935 43.1352 55.6095 43.0001 55.6935H42.9802C42.9085 55.754 42.8505 55.8291 42.81 55.914C42.7696 55.9989 42.7476 56.0914 42.7457 56.1855C42.7457 56.4055 42.8212 56.4935 42.9524 56.4135C43.0243 56.3522 43.0827 56.2764 43.1238 56.1909C43.1648 56.1055 43.1877 56.0124 43.1909 55.9175" fill="white"/>
  <path d="M43.7552 54.0792L44.6575 53.5352L44.6456 53.7072L43.946 56.1752L43.6797 56.3312L44.3157 54.1112L43.7274 54.4592L43.7552 54.0792Z" fill="white"/>
  <path d="M46.0875 53.6904C46.2147 53.7264 46.2664 53.8704 46.2505 54.1224C46.2391 54.3346 46.1793 54.5413 46.0756 54.7264C46.001 54.8743 45.8935 55.003 45.7615 55.1024L45.7178 55.1304C45.6696 55.1667 45.6111 55.1864 45.5509 55.1864C45.4907 55.1864 45.4321 55.1667 45.3839 55.1304C45.3346 55.0713 45.2993 55.0017 45.2807 54.9268C45.2621 54.852 45.2607 54.7738 45.2766 54.6984C45.2883 54.4581 45.3683 54.2262 45.5071 54.0304C45.4197 53.9744 45.3839 53.8504 45.3998 53.6544C45.4125 53.4739 45.4626 53.2981 45.5469 53.1384C45.614 53.0003 45.7136 52.8809 45.8371 52.7904L45.8689 52.7704C45.9961 52.6984 46.0954 52.6944 46.163 52.7704C46.2039 52.8221 46.2333 52.8821 46.249 52.9463C46.2648 53.0105 46.2667 53.0774 46.2544 53.1424C46.2436 53.3359 46.1863 53.5239 46.0875 53.6904ZM45.9802 54.2864C45.987 54.2509 45.9862 54.2144 45.978 54.1792C45.9698 54.1441 45.9543 54.1111 45.9325 54.0824C45.8967 54.0504 45.845 54.0464 45.7854 54.0824C45.7235 54.1272 45.6731 54.1861 45.6383 54.2544C45.5934 54.3411 45.5676 54.4366 45.5628 54.5344C45.5551 54.5702 45.555 54.6072 45.5625 54.6431C45.5701 54.6789 45.5851 54.7127 45.6065 54.7424C45.6423 54.7744 45.694 54.7744 45.7576 54.7424H45.7774C45.8376 54.6984 45.8866 54.6409 45.9205 54.5744C45.9644 54.4886 45.9902 54.3946 45.9961 54.2984M46.0239 53.3144C46.0239 53.1424 45.9722 53.0704 45.8609 53.1384C45.8032 53.1875 45.7569 53.2488 45.7253 53.3179C45.6937 53.387 45.6776 53.4623 45.6781 53.5384C45.6781 53.7144 45.7297 53.7904 45.8371 53.7264C45.8947 53.6769 45.9411 53.6156 45.9733 53.5466C46.0056 53.4777 46.0228 53.4026 46.0239 53.3264" fill="white"/>
  <path d="M47.4073 52.0615C47.4557 52.1242 47.4903 52.1966 47.5088 52.2739C47.5273 52.3511 47.5293 52.4314 47.5146 52.5095C47.5041 52.663 47.4706 52.8141 47.4152 52.9575L46.9064 54.4015L46.6043 54.5855L47.0018 53.5375H46.97C46.8309 53.6215 46.7196 53.6215 46.6361 53.5375C46.5893 53.4716 46.5561 53.397 46.5383 53.318C46.5206 53.239 46.5187 53.1572 46.5328 53.0775C46.5476 52.8591 46.6086 52.6464 46.7116 52.4535C46.7881 52.2955 46.9013 52.1583 47.0416 52.0535L47.0813 52.0255C47.1316 51.9934 47.1913 51.9794 47.2506 51.986C47.3098 51.9925 47.3651 52.0191 47.4073 52.0615ZM47.2483 52.6695C47.2483 52.4495 47.1727 52.3615 47.0416 52.4415C46.9705 52.5034 46.913 52.5794 46.8726 52.6648C46.8323 52.7501 46.8099 52.843 46.807 52.9375C46.807 53.1655 46.8786 53.2495 47.0137 53.1655H47.0336C47.1057 53.1054 47.164 53.0303 47.2045 52.9454C47.245 52.8605 47.2667 52.7677 47.2681 52.6735" fill="white"/>
  <path d="M47.763 51.6651L48.6653 51.1211L48.6534 51.2891L47.9538 53.7531L47.6875 53.9131L48.3235 51.6891L47.7352 52.0451L47.763 51.6651Z" fill="white"/>
  <path d="M49.685 50.6852C49.7346 50.7473 49.7702 50.8196 49.7895 50.8969C49.8087 50.9742 49.811 51.0549 49.7963 51.1332C49.7848 51.2865 49.7513 51.4374 49.6969 51.5812L49.1842 53.0412L48.886 53.2212L49.2835 52.1732H49.2517C49.1126 52.2612 49.0013 52.2612 48.9178 52.1732C48.8706 52.1075 48.8371 52.0329 48.8194 51.9538C48.8016 51.8748 48.7999 51.7929 48.8145 51.7132C48.83 51.4949 48.8909 51.2823 48.9934 51.0892C49.07 50.9312 49.1831 50.7941 49.3233 50.6892L49.367 50.6612C49.4863 50.5972 49.6015 50.6012 49.685 50.6852ZM49.526 51.2972C49.526 51.0772 49.4505 50.9892 49.3193 51.0692C49.2486 51.1305 49.1912 51.2058 49.1509 51.2905C49.1105 51.3752 49.088 51.4673 49.0848 51.5612C49.0848 51.7852 49.1563 51.8692 49.2915 51.7892H49.3114C49.3831 51.7287 49.4411 51.6536 49.4815 51.5687C49.522 51.4839 49.5439 51.3913 49.5459 51.2972" fill="white"/>
  <path d="M31.7477 68.3008L31.3264 69.6008L31.7636 70.4848L31.4536 70.7008L31.1634 70.1048L30.8335 71.1328L30.5234 71.3448L31.0243 69.8128L30.6506 69.0608L30.9527 68.8528L31.1833 69.3128L31.4456 68.5088L31.7477 68.3008Z" fill="white"/>
  <path d="M30.4821 69.1797L30.0608 70.4837L30.498 71.3677L30.188 71.5797L29.8978 70.9877L29.5679 72.0117L29.2578 72.2277L29.7587 70.6917L29.385 69.9437L29.6871 69.7317L29.9177 70.1917L30.176 69.3917L30.4821 69.1797Z" fill="white"/>
  <path d="M33.0134 67.4141L32.592 68.7181L33.0293 69.5981L32.7232 69.8141L32.433 69.2221L32.1031 70.2461L31.7891 70.4621L32.2899 68.9261L31.9163 68.1781L32.2223 67.9661L32.4529 68.4261L32.7113 67.6261L33.0134 67.4141Z" fill="white"/>
  <path d="M34.8181 66.1641L34.3967 67.4681L34.834 68.3521L34.5239 68.5641L34.2337 67.9721L33.9038 68.9961L33.5938 69.2121L34.0906 67.6801L33.7209 66.9281L34.0231 66.7161L34.2536 67.1761L34.512 66.3761L34.8181 66.1641Z" fill="white"/>
  <path d="M36.0875 65.2852L35.6662 66.5852L36.1034 67.4692L35.7934 67.6852L35.5032 67.0892L35.1733 68.1172L34.8672 68.3292L35.3641 66.7972L34.9904 66.0452L35.2965 65.8372L35.5231 66.2972L35.7814 65.4972L36.0875 65.2852Z" fill="white"/>
  <path d="M37.3531 64.3984L36.9318 65.7024L37.369 66.5864L37.059 66.7984L36.7688 66.2064L36.4389 67.2304L36.1328 67.4464L36.6297 65.9104L36.256 65.1624L36.5621 64.9504L36.7887 65.4104L37.051 64.6104L37.3531 64.3984Z" fill="white"/>
  <path d="M102.424 8.00117C103.3 8.60827 104.007 9.42932 104.481 10.3872C104.955 11.3451 105.178 12.4084 105.131 13.4772C104.96 18.5492 103.847 19.5212 103.847 19.5212L96.2035 14.7732L84.2109 7.03317C84.2109 7.03317 94.0014 4.62117 102.424 8.00117Z" fill="#666666"/>
  <path d="M94.1789 31.783L80.8984 24.471C80.8984 24.471 81.0853 11.499 86.1931 3.57902C86.6563 2.88286 87.3536 2.37822 88.1568 2.15778C88.96 1.93734 89.8153 2.0159 90.5656 2.37902L102.427 7.99902C102.427 7.99902 97.8558 5.32302 94.1789 31.783Z" fill="#E6E6E6"/>
  <path d="M95.6447 11.1197L87.1223 6.39968C86.4506 6.02768 85.8464 7.06368 86.5221 7.43568L95.0445 12.1397C95.7163 12.5117 96.3205 11.4757 95.6447 11.1037V11.1197Z" fill="#999999"/>
  <path d="M94.4494 13.4709L85.927 8.76686C85.2553 8.39486 84.6511 9.43086 85.3268 9.80286L93.8492 14.5069C94.521 14.8789 95.1252 13.8429 94.4494 13.4709Z" fill="#999999"/>
  <path d="M92.6994 19.3263L84.177 14.6223C83.5053 14.2503 82.9011 15.2863 83.5768 15.6583L92.0992 20.3623C92.771 20.7343 93.3752 19.6983 92.6994 19.3263Z" fill="#999999"/>
  <path d="M91.9651 22.1935L83.4427 17.4895C82.7709 17.1175 82.1667 18.1535 82.8424 18.5255L91.3648 23.2295C92.0366 23.6015 92.6408 22.5655 91.9651 22.1935Z" fill="#999999"/>
  <path d="M91.9651 25.3029L83.4427 20.5989C82.7709 20.2269 82.1667 21.2629 82.8424 21.6349L91.3648 26.3389C92.0366 26.7109 92.6408 25.6749 91.9651 25.3029Z" fill="#999999"/>
  <path d="M98.6484 16.2094L99.5428 15.7734V16.7014L100.449 16.3934V17.2654L101.51 16.9094V17.9254L102.445 17.5414L102.536 18.5614L103.291 18.1254L103.41 19.1054L104.17 18.5614V19.5774L105.016 19.0374L105.096 20.1534H103.987" fill="white"/>
  <path d="M68.4688 37.5549C68.7145 36.8928 68.9268 36.2186 69.1048 35.5349C69.1843 35.0509 68.7073 33.2109 69.0412 33.1069C69.3751 33.0029 69.7924 34.2509 69.7924 34.2509C69.7924 34.2509 70.7862 31.9949 71.0565 31.8869C71.3268 31.7789 72.1337 31.7069 72.3285 31.9109C72.5233 32.1149 73.0599 33.4309 72.8214 33.8789C72.3052 34.6777 71.7451 35.4469 71.1439 36.1829C71.0565 36.2509 70.011 38.5149 69.8719 38.5829C69.7328 38.6509 68.5801 38.0629 68.4688 37.5549Z" fill="#FFC9B5"/>
  <path d="M57.5781 44.8549C57.5781 44.8549 63.0398 42.6829 63.9898 41.8949C64.9398 41.1069 68.3623 37.0469 68.3623 37.0469C68.3623 37.0469 70.3498 37.7789 70.326 38.7829C70.326 38.7829 67.5435 43.4589 66.2516 44.7109C64.9597 45.9629 60.2454 49.1109 59.2119 49.0389C58.1784 48.9669 57.5781 44.8549 57.5781 44.8549Z" fill="#F15A24"/>
  <path d="M61.0635 89.3418C61.0635 89.3418 62.3673 88.2218 63.846 88.6538C65.3247 89.0858 65.0067 90.1898 64.0845 90.8818C63.1623 91.5738 59.6127 93.9778 58.5195 93.9538C57.4264 93.9298 57.1879 93.0458 57.1641 92.4378C57.2247 91.4996 57.3322 90.5651 57.486 89.6378" fill="#2C1D1A"/>
  <path d="M60.2444 89.2591C60.2498 89.3001 60.2642 89.3394 60.2866 89.3742C60.3089 89.4089 60.3387 89.4383 60.3737 89.4601C60.4086 89.4819 60.448 89.4956 60.4889 89.5003C60.5298 89.505 60.5712 89.5004 60.6101 89.4871C61.0067 89.3607 61.3956 89.2111 61.7748 89.0391C61.7748 89.0391 63.0348 89.0391 62.2677 90.3071C61.5005 91.5751 58.8571 91.9471 58.0422 91.4751C57.2274 91.0031 57.7719 89.6591 57.7719 89.6591" fill="#2C1D1A"/>
  <path d="M64.1338 91.8106C64.1338 91.8106 65.4376 90.6906 66.9163 91.1226C68.395 91.5546 68.077 92.6586 67.1548 93.3506C66.2326 94.0426 62.683 96.4466 61.5898 96.4226C60.4967 96.3986 60.2582 95.5146 60.2344 94.9066C60.295 93.9684 60.4025 93.0339 60.5563 92.1066" fill="#2C1D1A"/>
  <path d="M63.3069 91.7356C63.3123 91.7767 63.3267 91.816 63.3491 91.8508C63.3714 91.8855 63.4012 91.9149 63.4362 91.9367C63.4711 91.9585 63.5105 91.9722 63.5514 91.9769C63.5922 91.9815 63.6337 91.977 63.6726 91.9636C64.0692 91.8373 64.4581 91.6877 64.8373 91.5156C64.8373 91.5156 66.0973 91.5156 65.3302 92.7836C64.563 94.0516 61.9196 94.4236 61.1047 93.9516C60.2899 93.4796 60.8344 92.1356 60.8344 92.1356" fill="#FFC9B5"/>
  <path d="M64.6922 57.2262C65.1175 58.1942 65.3481 72.0542 65.1851 75.6262C65.0221 79.1982 63.3089 91.7342 63.3089 91.7342C63.3089 91.7342 62.3429 93.2102 60.7132 93.1062C59.0834 93.0022 59.4014 91.6822 59.4014 91.6822C59.4014 91.6822 57.3185 92.6542 56.4083 90.5182C56.0704 89.7182 54.4844 67.6342 54.4844 65.1182C54.5388 62.1116 55.36 59.1695 56.8694 56.5742" fill="#CCCCCC"/>
  <path d="M59.4111 91.6812C59.4111 91.6812 58.4214 63.6812 58.5486 62.8532C58.6758 62.0252 58.2783 68.9932 58.3061 70.8972C58.322 72.2572 59.1448 89.7772 59.4111 91.6812Z" fill="#6D5854"/>
  <path d="M64.6921 57.2286C64.6921 57.2286 66.1311 47.3126 64.084 45.4406C62.0368 43.5686 56.3486 42.2406 55.2873 43.1726C54.226 44.1046 55.8199 54.6206 56.8773 56.5726C57.9346 58.5246 63.9369 58.0006 64.6921 57.2286Z" fill="#F15A24"/>
  <path d="M62.1157 38.1465C62.1634 38.2865 63.173 42.1465 61.4121 42.7065C59.6512 43.2665 59.2974 41.1505 59.1225 41.0305C58.9476 40.9105 58.3951 40.7225 58.4229 40.2945C58.4507 39.8665 59.1185 39.8585 59.1185 39.8585C59.1185 39.8585 59.3769 38.7385 60.1679 38.2585C60.9589 37.7785 62.1157 38.1465 62.1157 38.1465Z" fill="#FFC9B5"/>
  <path d="M60.456 39.2376C60.456 39.2376 61.9267 39.2616 62.5627 38.6296C62.6818 38.5061 62.7741 38.3591 62.8338 38.1978C62.8935 38.0366 62.9193 37.8646 62.9096 37.6928C62.8999 37.521 62.8549 37.3531 62.7774 37.1997C62.6999 37.0463 62.5916 36.9108 62.4594 36.8016C62.4594 36.8016 63.0437 35.6296 61.9466 35.3456C61.9466 35.3456 61.8472 34.2696 59.661 34.7616C57.4747 35.2536 55.4753 36.8016 55.4475 38.8016C55.4197 40.8016 55.2726 41.0456 54.565 41.5056C53.8575 41.9656 54.0523 43.7296 55.9444 43.8016C57.8365 43.8736 60.4162 43.7056 60.6587 42.7656C60.9012 41.8256 59.4662 41.7256 59.2873 40.7656C59.2433 40.4075 59.3412 40.0462 59.5599 39.7602C59.7787 39.4742 60.1006 39.2864 60.456 39.2376Z" fill="#2C1D1A"/>
  <path d="M67.532 55.8008C67.532 55.8008 69.0465 57.4248 69.4837 57.6008C70.1532 57.909 70.7967 58.2715 71.4076 58.6848C71.2048 58.8676 71.0246 59.0745 70.871 59.3008C70.8706 59.3088 70.8706 59.3168 70.871 59.3248C70.6762 59.1848 70.5411 59.0808 70.5451 59.1528C70.5451 59.3808 72.0357 61.3328 72.2623 61.6288C72.4888 61.9248 71.8648 62.8928 71.8648 62.8928C70.9028 63.2168 69.7938 62.2368 69.0823 61.5728C68.3707 60.9088 68.0408 59.3728 67.7944 59.1728C67.5479 58.9728 65.5167 57.6248 65.3736 57.2048C65.2305 56.7848 67.532 55.8008 67.532 55.8008Z" fill="#FFC9B5"/>
  <path d="M64.5484 46.1466C64.9459 47.0306 64.9459 47.9986 65.1128 48.9466C65.244 49.6226 65.3792 50.3306 65.5342 51.0146C65.64 51.7119 65.8574 52.3873 66.1781 53.0146C66.7346 53.9466 67.4581 54.7546 68.0901 55.6306C68.2657 55.821 68.3926 56.0517 68.4598 56.3026C68.5194 56.9146 67.7522 58.6586 65.6256 58.4426C64.5508 57.5686 63.546 56.611 62.6205 55.5786C61.428 54.1666 60.2991 49.3906 60.4144 47.8026C60.4939 46.7226 61.0782 45.5146 62.0958 45.0426C62.4333 44.9042 62.8047 44.8734 63.1602 44.9542C63.5156 45.0351 63.8378 45.2237 64.0833 45.4946C64.2736 45.6841 64.4308 45.9045 64.5484 46.1466Z" fill="#F15A24"/>
  <path d="M64.4307 57.3945C64.4307 57.3945 62.6539 55.8745 62.2166 54.9585C61.7794 54.0425 61.2109 52.3945 61.2109 52.3945C61.2109 52.3945 62.0338 57.1585 62.8208 57.7945C63.3684 57.7107 63.9073 57.5768 64.4307 57.3945Z" fill="#2C1D1A"/>
  <path opacity="0.48" d="M82.6738 82.4907L80.8254 79.6547L78.4126 78.7188L74.7119 80.5227L45.2969 97.4948L55.3576 103.379C58.3667 101.471 79.7243 84.4987 82.6738 82.4907Z" fill="url(#paint3_linear_3187_34609)"/>
  <path d="M72.2232 58.0346C68.5821 58.3106 68.773 64.8346 68.5265 67.5186C68.4629 68.1986 69.409 68.4226 69.4726 67.7426C69.6793 65.4946 69.5401 62.4466 70.6651 60.4666C71.0149 59.8546 71.4322 59.2666 72.1477 59.1986C72.372 59.1908 72.5952 59.2331 72.8014 59.3223C73.0075 59.4115 73.1915 59.5455 73.3402 59.7146C73.6582 60.0346 73.8292 61.2906 73.8848 61.6666C74.074 63.0629 74.0954 64.4771 73.9484 65.8786C73.8848 66.5586 74.8309 66.7826 74.8945 66.1026C75.0972 63.9706 75.4668 57.7866 72.2232 58.0346Z" fill="#F15A24"/>
  <path d="M77.6693 62.4023L78.7624 64.4183L80.9526 64.9223L79.311 71.1743L74.6562 67.8463" fill="#232323"/>
  <path d="M66.4375 69.2583L77.6629 62.4023L77.2972 72.5863L68.7192 73.4943L66.4375 69.2583Z" fill="#232323"/>
  <path d="M70.4531 70.7738L72.1862 90.0338L82.6802 83.0778L80.9471 64.9258L70.4531 70.7738Z" fill="#D8D8D8"/>
  <path d="M70.4571 70.7737L69.2726 69.2617H66.4424L65.2578 86.1017L68.3027 87.6537L72.1902 90.0337L70.4571 70.7737Z" fill="#68E1FD"/>
  <path d="M70.4571 70.7737L69.2726 69.2617H66.4424L65.2578 86.1017L68.3027 87.6537L72.1902 90.0337L70.4571 70.7737Z" fill="#D8D8D8"/>
  <path d="M76.9043 61.2579C73.2552 61.2939 73.0923 67.8019 72.7027 70.4819C72.6033 71.1539 73.5375 71.4459 73.6368 70.7659C73.9628 68.5339 73.9906 65.4819 75.2268 63.5659C75.7317 62.7859 76.6221 62.1299 77.4966 62.6419C78.2916 63.0979 78.2916 64.1219 78.3671 64.9779C78.4809 66.3821 78.4262 67.7949 78.2041 69.1859C78.1047 69.8579 79.0349 70.1499 79.1382 69.4699C79.4523 67.3739 80.1558 61.2259 76.9043 61.2579Z" fill="#F15A24"/>
  <defs>
    <linearGradient id="paint0_linear_3187_34609" x1="19.0349" y1="80.0488" x2="32.0547" y2="70.4908" gradientUnits="userSpaceOnUse">
      <stop offset="0.01" stop-color="#2E3192" stop-opacity="0"/>
      <stop offset="1" stop-color="#666666"/>
    </linearGradient>
    <linearGradient id="paint1_linear_3187_34609" x1="78.5038" y1="83.019" x2="91.1258" y2="65.3097" gradientUnits="userSpaceOnUse">
      <stop offset="0.01" stop-color="#2E3192" stop-opacity="0"/>
      <stop offset="1" stop-color="#666666"/>
    </linearGradient>
    <linearGradient id="paint2_linear_3187_34609" x1="116.902" y1="90.0605" x2="129.922" y2="80.5025" gradientUnits="userSpaceOnUse">
      <stop offset="0.01" stop-color="#2E3192" stop-opacity="0"/>
      <stop offset="1" stop-color="#666666"/>
    </linearGradient>
    <linearGradient id="paint3_linear_3187_34609" x1="49.0811" y1="102.543" x2="75.4036" y2="80.6412" gradientUnits="userSpaceOnUse">
      <stop offset="0.01" stop-color="#2E3192" stop-opacity="0"/>
      <stop offset="1" stop-color="#666666"/>
    </linearGradient>
  </defs>
</svg>