<svg width="24" height="24" viewBox="0 0 24 24" fill="none" xmlns="http://www.w3.org/2000/svg">
<g filter="url(#filter0_d_2986_30917)">
<path d="M5.75647 16.8033C5.34978 16.3098 4.84143 15.3091 3.95544 14.0617C3.44708 13.3763 2.19798 12.074 1.82034 11.4023C1.54812 10.9941 1.46912 10.4971 1.60248 10.0315C1.83045 9.14626 2.72022 8.55901 3.67947 8.6607C4.42138 8.80136 5.10319 9.14456 5.64027 9.64769C6.01526 9.98103 6.3602 10.3433 6.6715 10.7306C6.9039 11.0048 6.96199 11.1145 7.22343 11.4297C7.48487 11.745 7.65917 12.0603 7.52845 11.5942C7.42678 10.9088 7.25248 9.75735 7.00557 8.72925C6.81675 7.94788 6.77318 7.82451 6.59888 7.23506C6.42459 6.64562 6.32292 6.15213 6.1341 5.48043C5.9615 4.82049 5.82575 4.15244 5.72742 3.47905C5.54434 2.61778 5.67753 1.72334 6.10505 0.943057C6.61253 0.492568 7.35696 0.373668 7.99323 0.641479C8.63317 1.08745 9.1103 1.71023 9.35852 2.42353C9.73916 3.30138 9.99319 4.22349 10.1138 5.16514C10.3462 6.53595 10.7964 8.53733 10.811 8.94858C10.811 8.44138 10.7093 7.37215 10.811 6.89236C10.9117 6.39219 11.28 5.97709 11.7841 5.79572C12.2167 5.67046 12.6742 5.64229 13.1204 5.71347C13.5707 5.80232 13.9695 6.04677 14.2387 6.39887C14.5752 7.19859 14.762 8.0474 14.7907 8.90745C14.8296 8.15431 14.9661 7.40851 15.1973 6.68674C15.4401 6.36398 15.7945 6.13128 16.1995 6.02875C16.6797 5.9459 17.1718 5.9459 17.652 6.02875C18.0457 6.15299 18.3902 6.38724 18.6396 6.70045C18.9472 7.42745 19.1334 8.1951 19.1916 8.97599C19.1916 9.1679 19.2932 8.44138 19.6128 7.96159C19.7788 7.49634 20.1953 7.15003 20.7052 7.05313C21.2151 6.95622 21.7411 7.12344 22.085 7.49178C22.4289 7.86013 22.5385 8.37365 22.3724 8.83891C22.3724 9.72994 22.3724 9.68881 22.3724 10.292C22.3724 10.8951 22.3724 11.4297 22.3724 11.9369C22.3195 12.7391 22.203 13.5364 22.0238 14.3221C21.7711 15.0173 21.4193 15.6768 20.9781 16.2824C20.2728 17.0226 19.6901 17.8591 19.2497 18.7636C19.1404 19.2129 19.0916 19.6735 19.1044 20.1344C19.103 20.5602 19.1616 20.9843 19.2787 21.3955C18.6849 21.4548 18.0861 21.4548 17.4922 21.3955C16.9258 21.3133 16.2286 20.244 16.0398 19.915C15.9463 19.7384 15.7551 19.6268 15.5459 19.6268C15.3367 19.6268 15.1455 19.7384 15.0521 19.915C14.7326 20.4359 14.0209 21.3818 13.527 21.4366C12.5539 21.5463 10.5495 21.4366 8.96637 21.4366C8.96637 21.4366 9.22781 20.0658 8.6323 19.5723C8.0368 19.0788 7.42678 18.5031 6.97652 18.1193L5.75647 16.8033Z" fill="white"/>
<path fill-rule="evenodd" clip-rule="evenodd" d="M22.9227 11.9687C22.9238 11.1623 22.9238 11.1623 22.9238 10.2918V8.91621C23.1093 8.30048 22.9517 7.63517 22.5004 7.15179C22.0278 6.64565 21.3051 6.41588 20.6044 6.54904C20.127 6.63976 19.7092 6.88957 19.4193 7.24176C19.3427 6.99345 19.2536 6.74949 19.1522 6.50967C18.7659 5.99491 18.3298 5.69836 17.8314 5.54108C17.2117 5.4289 16.6532 5.4289 16.1083 5.52294C15.563 5.65929 15.1172 5.9421 14.8029 6.33376C14.7862 6.29205 14.7691 6.25046 14.7517 6.20899C14.3385 5.64187 13.8218 5.32523 13.2385 5.21015C12.6881 5.12194 12.1447 5.15539 11.631 5.30413C11.301 5.42233 11.0173 5.60541 10.7941 5.83473C10.7404 5.55126 10.696 5.30596 10.6583 5.08378C10.5348 4.11597 10.2684 3.14913 9.86932 2.22869C9.59923 1.44836 9.05432 0.737121 8.32347 0.227799C7.385 -0.180353 6.40598 -0.0239852 5.73859 0.568465L5.62795 0.706791C5.14358 1.59083 4.99268 2.60421 5.2001 3.58002C5.2955 4.24031 5.43484 4.92605 5.61201 5.60347C5.69411 5.89583 5.69448 5.89726 5.86813 6.58416L5.86816 6.58428C5.89048 6.67238 5.89049 6.67242 5.91314 6.76082C5.97226 6.99057 6.02393 7.1802 6.08097 7.3731C6.17854 7.70101 6.21623 7.82798 6.24881 7.94186L6.26813 8.01C6.32796 8.22304 6.38681 8.45262 6.48125 8.8434C6.56782 9.20391 6.64412 9.56614 6.71735 9.95957C6.49916 9.72141 6.26587 9.49153 6.02042 9.27334C5.41788 8.70864 4.63995 8.31706 3.79345 8.15657C2.51521 8.01914 1.37267 8.77321 1.07993 9.90996C0.910347 10.5014 1.01285 11.1463 1.3661 11.676C1.53368 11.9771 1.85846 12.3907 2.43563 13.0658L2.52545 13.1707C3.1959 13.9519 3.31614 14.0918 3.42775 14.2383C3.45503 14.2741 3.48179 14.3103 3.51594 14.3563C3.72615 14.6524 4.09476 15.2262 4.4502 15.7795C4.84758 16.398 5.22852 16.991 5.35327 17.1417L6.57332 18.4576C6.73288 18.5968 7.15642 18.9751 7.44701 19.2347C7.59028 19.3627 7.70123 19.4618 7.73231 19.4891C7.87305 19.613 8.00225 19.7249 8.12619 19.8299C8.16457 19.8623 8.18373 19.8784 8.20295 19.8945C8.22209 19.9106 8.2413 19.9266 8.27964 19.9585C8.36639 20.0304 8.43921 20.2103 8.46971 20.4731C8.49559 20.6961 8.48848 20.9449 8.46033 21.1836C8.45104 21.2623 8.44211 21.3188 8.43702 21.3454C8.37689 21.6607 8.63364 21.9505 8.97307 21.9505C9.36399 21.9505 9.76757 21.9565 10.4091 21.9701L10.6305 21.9748C12.3684 22.0121 13.02 22.0121 13.5983 21.9469C14.2594 21.8735 14.9625 21.0978 15.5591 20.1445C16.0665 21.0291 16.7182 21.8021 17.4161 21.9034C18.0736 21.9696 18.7108 21.9696 19.3427 21.9066C19.6757 21.8733 19.8983 21.5671 19.8114 21.2619C19.7068 20.8947 19.6545 20.5161 19.6558 20.1359C19.644 19.703 19.6882 19.2856 19.7872 18.8784C20.1688 18.1206 20.7212 17.3277 21.3898 16.626C21.9028 15.9294 22.2769 15.2281 22.5457 14.4888C22.7479 13.6193 22.8681 12.7965 22.9227 11.9687ZM8.27878 18.562C7.99537 18.309 7.50018 17.867 7.34864 17.7378L6.18615 16.4786C6.10108 16.3697 5.82452 15.9376 5.5033 15.4357C5.12139 14.8389 4.67634 14.1436 4.4149 13.7755C4.29369 13.6119 4.14414 13.4274 3.9401 13.1861C3.8608 13.0923 3.80414 13.0261 3.66199 12.8605L3.37227 12.5237L3.28376 12.4204C2.75412 11.8009 2.45105 11.4149 2.30852 11.1614C2.09713 10.8418 2.04165 10.4927 2.13532 10.1657C2.30199 9.51916 2.93898 9.09874 3.62572 9.17154C4.21656 9.28552 4.80225 9.58033 5.26362 10.0125C5.62686 10.3357 5.95155 10.6766 6.24459 11.0413C6.33552 11.1488 6.39266 11.221 6.48256 11.3399C6.63723 11.5447 6.68136 11.6016 6.80155 11.7466C6.8101 11.7569 6.83323 11.7864 6.86376 11.8254C6.94771 11.9327 7.08757 12.1114 7.13375 12.1576C7.19056 12.2258 7.19056 12.2258 7.48023 12.3379C8.10179 12.1217 8.10524 12.1169 8.12336 11.8413C8.13049 11.733 8.11066 11.6361 8.06202 11.4627C7.89605 10.3173 7.74893 9.46972 7.5438 8.61561C7.44663 8.21347 7.38498 7.97302 7.32143 7.74673L7.30082 7.67404C7.26667 7.55466 7.22731 7.42206 7.13055 7.09689C7.07721 6.91651 7.02847 6.73766 6.97204 6.51834C6.96108 6.47559 6.95558 6.45411 6.95011 6.43263C6.94458 6.41095 6.93909 6.38927 6.92806 6.3457C6.75157 5.64758 6.75079 5.64455 6.6676 5.34861C6.50191 4.71477 6.36976 4.06442 6.27403 3.40886C6.11649 2.66305 6.21624 1.91924 6.55164 1.26281C6.89567 0.999904 7.36964 0.938898 7.77843 1.11096C8.22578 1.43764 8.63514 1.97195 8.8481 2.58393C9.22365 3.45348 9.46535 4.33086 9.58011 5.22684C9.6431 5.60077 9.71922 6.00837 9.82094 6.52795L9.8662 6.75809C10.2647 8.77603 10.2675 8.79043 10.2736 8.9657C10.2974 9.6394 11.3627 9.62265 11.3627 8.94857C11.3627 8.80009 11.3596 8.72041 11.3396 8.27489C11.3318 8.09915 11.3287 8.02423 11.3252 7.9216C11.3097 7.46645 11.3174 7.15685 11.3521 6.99318C11.4185 6.66347 11.6578 6.39385 11.9852 6.27604C12.3024 6.18538 12.6741 6.1625 13.0366 6.22033C13.3333 6.27926 13.6144 6.45153 13.8041 6.69966C14.0528 7.33299 14.2266 8.12307 14.2533 8.92362C14.2753 9.58176 15.3078 9.59017 15.3417 8.93248C15.3769 8.25145 15.4967 7.57678 15.6985 6.92231C15.8648 6.72932 16.0917 6.59004 16.3477 6.52526C16.7199 6.46274 17.1457 6.46274 17.5611 6.53442C17.7754 6.60748 18.0282 6.77943 18.2113 7.00934C18.4275 7.56869 18.6011 8.28419 18.6553 9.01203C18.6343 9.00628 18.6343 9.00628 18.7965 9.35058C19.3572 9.44243 19.5223 9.46947 19.6018 9.39941C19.635 9.37018 19.6533 9.32405 19.6792 9.25867C19.706 9.20702 19.7137 9.19224 19.7198 9.17683C19.7222 9.17065 19.7244 9.16437 19.7275 9.15558C19.7409 9.11812 19.755 9.06808 19.7797 8.97745C19.8339 8.78363 19.8838 8.63268 19.9486 8.48451C19.9909 8.38769 20.0354 8.3036 20.081 8.23516C20.2399 7.83448 20.5006 7.61772 20.8198 7.55706C21.1389 7.49641 21.4682 7.60107 21.6834 7.83163C21.8987 8.06218 21.9672 8.3836 21.8633 8.67481L21.8348 8.83891V11.9369C21.7846 12.6815 21.6718 13.4534 21.4984 14.214C21.279 14.8063 20.9495 15.424 20.5363 15.9912C19.8382 16.7174 19.2252 17.5974 18.7618 18.5489C18.6063 19.14 18.5529 19.6438 18.567 20.1479C18.566 20.4036 18.5859 20.6635 18.6265 20.9226C18.2695 20.9326 17.9121 20.9198 17.5565 20.8843C17.3798 20.8581 16.84 20.2177 16.5257 19.6702C16.3485 19.3345 15.9686 19.1127 15.553 19.1127C15.1373 19.1127 14.7574 19.3345 14.5718 19.6855C14.2113 20.2711 13.6341 20.9079 13.4704 20.9261C12.9666 20.9829 12.3228 20.9829 10.6556 20.9471L10.4338 20.9424C10.0915 20.9351 9.81565 20.93 9.57256 20.9268C9.57975 20.7377 9.5745 20.5474 9.5529 20.3613C9.49559 19.8674 9.3314 19.4618 8.99872 19.1861C8.96284 19.1562 8.9448 19.1412 8.92682 19.1261C8.90863 19.1109 8.89049 19.0956 8.85401 19.0648C8.73575 18.9646 8.61162 18.8572 8.47572 18.7375C8.45336 18.7178 8.37942 18.6518 8.27878 18.562Z" fill="black"/>
<path d="M18.0737 17.5492V12.8175C18.0737 12.5343 17.8299 12.3047 17.529 12.3047C17.2282 12.3047 16.9844 12.5343 16.9844 12.8175V17.5492C16.9844 17.8325 17.2282 18.0621 17.529 18.0621C17.8299 18.0621 18.0737 17.8325 18.0737 17.5492Z" fill="black"/>
<path d="M15.1965 17.5475L15.1674 12.8134C15.1657 12.5308 14.9205 12.3031 14.6197 12.3047C14.3188 12.3063 14.0764 12.5367 14.0781 12.8193L14.1072 17.5534C14.1089 17.836 14.3542 18.0637 14.655 18.0621C14.9558 18.0604 15.1982 17.8301 15.1965 17.5475Z" fill="black"/>
<path d="M11.1719 12.8242L11.2009 17.5486C11.2027 17.8338 11.448 18.0637 11.7488 18.0621C12.0496 18.0604 12.292 17.8278 12.2902 17.5426L12.2612 12.8182C12.2594 12.5329 12.0142 12.303 11.7134 12.3047C11.4126 12.3064 11.1701 12.539 11.1719 12.8242Z" fill="black"/>
</g>
<defs>
<filter id="filter0_d_2986_30917" x="0.2" y="0" width="23.6" height="23.8" filterUnits="userSpaceOnUse" color-interpolation-filters="sRGB">
<feFlood flood-opacity="0" result="BackgroundImageFix"/>
<feColorMatrix in="SourceAlpha" type="matrix" values="0 0 0 0 0 0 0 0 0 0 0 0 0 0 0 0 0 0 127 0" result="hardAlpha"/>
<feOffset dy="1"/>
<feGaussianBlur stdDeviation="0.4"/>
<feColorMatrix type="matrix" values="0 0 0 0 0 0 0 0 0 0 0 0 0 0 0 0 0 0 0.5 0"/>
<feBlend mode="normal" in2="BackgroundImageFix" result="effect1_dropShadow_2986_30917"/>
<feBlend mode="normal" in="SourceGraphic" in2="effect1_dropShadow_2986_30917" result="shape"/>
</filter>
</defs>
</svg>
