<svg width="136" height="120" viewBox="0 0 136 120" fill="none" xmlns="http://www.w3.org/2000/svg">
<g id="undraw_completed_tasks_vs6q 1" clip-path="url(#clip0_3084_26835)">
<path id="Vector" d="M84.3754 69.7323H34.9264C33.2496 69.7304 31.6419 69.0728 30.4562 67.9037C29.2704 66.7346 28.6035 65.1494 28.6016 63.4961V6.23622C28.6035 4.58285 29.2704 2.99772 30.4562 1.82861C31.6419 0.659496 33.2496 0.00186765 34.9264 0H80.9306L90.7003 7.6779V63.4961C90.6984 65.1494 90.0314 66.7346 88.8457 67.9037C87.66 69.0728 86.0523 69.7304 84.3754 69.7323Z" fill="#E6E6E6"/>
<path id="Vector_2" d="M34.926 1.79688C33.7318 1.7982 32.587 2.26651 31.7426 3.09906C30.8982 3.93161 30.4232 5.06042 30.4219 6.23782V63.4977C30.4232 64.6751 30.8982 65.8039 31.7426 66.6364C32.587 67.469 33.7318 67.9373 34.926 67.9386H84.3749C85.5691 67.9373 86.7139 67.469 87.5583 66.6364C88.4027 65.8039 88.8777 64.6751 88.879 63.4977V8.54438L80.2933 1.79688H34.926Z" fill="white"/>
<path id="Vector_3" d="M74.762 18.4442H52.2486C52.1103 18.4442 51.9733 18.4173 51.8455 18.3651C51.7177 18.3129 51.6016 18.2364 51.5038 18.14C51.406 18.0436 51.3284 17.9291 51.2755 17.8031C51.2226 17.6771 51.1953 17.5421 51.1953 17.4057C51.1953 17.2693 51.2226 17.1343 51.2755 17.0083C51.3284 16.8823 51.406 16.7678 51.5038 16.6714C51.6016 16.5749 51.7177 16.4984 51.8455 16.4462C51.9733 16.394 52.1103 16.3672 52.2486 16.3672H74.762C74.9003 16.3672 75.0373 16.394 75.1651 16.4462C75.2929 16.4984 75.409 16.5749 75.5068 16.6714C75.6046 16.7678 75.6822 16.8823 75.7351 17.0083C75.788 17.1343 75.8153 17.2693 75.8153 17.4057C75.8153 17.5421 75.788 17.6771 75.7351 17.8031C75.6822 17.9291 75.6046 18.0436 75.5068 18.14C75.409 18.2364 75.2929 18.3129 75.1651 18.3651C75.0373 18.4173 74.9003 18.4442 74.762 18.4442Z" fill="#CCCCCC"/>
<path id="Vector_4" d="M79.1067 21.9481H52.2486C51.9692 21.9481 51.7013 21.8387 51.5038 21.6439C51.3063 21.4492 51.1953 21.185 51.1953 20.9096C51.1953 20.6342 51.3063 20.37 51.5038 20.1753C51.7013 19.9805 51.9692 19.8711 52.2486 19.8711H79.1067C79.386 19.8711 79.6539 19.9805 79.8515 20.1753C80.049 20.37 80.16 20.6342 80.16 20.9096C80.16 21.185 80.049 21.4492 79.8515 21.6439C79.6539 21.8387 79.386 21.9481 79.1067 21.9481Z" fill="#CCCCCC"/>
<path id="Vector_5" d="M74.762 34.1512H52.2486C51.9692 34.1512 51.7013 34.0418 51.5038 33.847C51.3063 33.6523 51.1953 33.3881 51.1953 33.1127C51.1953 32.8373 51.3063 32.5731 51.5038 32.3784C51.7013 32.1836 51.9692 32.0742 52.2486 32.0742H74.762C75.0413 32.0742 75.3093 32.1836 75.5068 32.3784C75.7043 32.5731 75.8153 32.8373 75.8153 33.1127C75.8153 33.3881 75.7043 33.6523 75.5068 33.847C75.3093 34.0418 75.0413 34.1512 74.762 34.1512Z" fill="#CCCCCC"/>
<path id="Vector_6" d="M79.1067 37.659H52.2486C51.9692 37.659 51.7013 37.5496 51.5038 37.3549C51.3063 37.1601 51.1953 36.896 51.1953 36.6205C51.1953 36.3451 51.3063 36.081 51.5038 35.8862C51.7013 35.6914 51.9692 35.582 52.2486 35.582H79.1067C79.386 35.582 79.6539 35.6914 79.8515 35.8862C80.049 36.081 80.16 36.3451 80.16 36.6205C80.16 36.896 80.049 37.1601 79.8515 37.3549C79.6539 37.5496 79.386 37.659 79.1067 37.659Z" fill="#CCCCCC"/>
<path id="Vector_7" d="M74.762 49.8582H52.2486C51.9692 49.8582 51.7013 49.7488 51.5038 49.5541C51.3063 49.3593 51.1953 49.0952 51.1953 48.8197C51.1953 48.5443 51.3063 48.2802 51.5038 48.0854C51.7013 47.8907 51.9692 47.7812 52.2486 47.7812H74.762C75.0413 47.7812 75.3093 47.8907 75.5068 48.0854C75.7043 48.2802 75.8153 48.5443 75.8153 48.8197C75.8153 49.0952 75.7043 49.3593 75.5068 49.5541C75.3093 49.7488 75.0413 49.8582 74.762 49.8582Z" fill="#CCCCCC"/>
<path id="Vector_8" d="M79.1067 53.3661H52.2486C51.9692 53.3661 51.7013 53.2566 51.5038 53.0619C51.3063 52.8671 51.1953 52.603 51.1953 52.3276C51.1953 52.0521 51.3063 51.788 51.5038 51.5932C51.7013 51.3985 51.9692 51.2891 52.2486 51.2891H79.1067C79.386 51.2891 79.6539 51.3985 79.8515 51.5932C80.049 51.788 80.16 52.0521 80.16 52.3276C80.16 52.603 80.049 52.8671 79.8515 53.0619C79.6539 53.2566 79.386 53.3661 79.1067 53.3661Z" fill="#CCCCCC"/>
<path id="Ellipse 44" d="M42.8711 22.8293C44.9271 22.8293 46.5938 21.186 46.5938 19.1588C46.5938 17.1316 44.9271 15.4883 42.8711 15.4883C40.8151 15.4883 39.1484 17.1316 39.1484 19.1588C39.1484 21.186 40.8151 22.8293 42.8711 22.8293Z" fill="#0B3D60"/>
<path id="Path 395" d="M42.5055 20.5572C42.4217 20.5574 42.3402 20.5307 42.2732 20.4811L42.269 20.478L41.3942 19.8182C41.3124 19.7563 41.259 19.6649 41.2455 19.5642C41.2321 19.4634 41.2597 19.3616 41.3224 19.2809C41.3851 19.2003 41.4777 19.1475 41.5799 19.1341C41.6821 19.1208 41.7854 19.148 41.8673 19.2097L42.4339 19.6382L43.773 17.9157C43.8041 17.8757 43.8428 17.8422 43.887 17.817C43.9312 17.7919 43.98 17.7755 44.0306 17.7689C44.0812 17.7623 44.1326 17.7656 44.1819 17.7786C44.2312 17.7916 44.2774 17.8141 44.3179 17.8447L44.3097 17.8562L44.3182 17.8448C44.4 17.9067 44.4534 17.9981 44.4669 18.0988C44.4804 18.1995 44.4528 18.3014 44.3901 18.3821L42.8151 20.4073C42.7786 20.4539 42.7318 20.4917 42.6781 20.5176C42.6245 20.5436 42.5656 20.5569 42.5058 20.5568L42.5055 20.5572Z" fill="white"/>
<path id="Ellipse 44_2" d="M43.2539 38.5363C45.3099 38.5363 46.9766 36.893 46.9766 34.8658C46.9766 32.8387 45.3099 31.1953 43.2539 31.1953C41.198 31.1953 39.5312 32.8387 39.5312 34.8658C39.5312 36.893 41.198 38.5363 43.2539 38.5363Z" fill="#CCCCCC"/>
<path id="Ellipse 44_3" d="M42.8711 54.2434C44.9271 54.2434 46.5938 52.6 46.5938 50.5729C46.5938 48.5457 44.9271 46.9023 42.8711 46.9023C40.8151 46.9023 39.1484 48.5457 39.1484 50.5729C39.1484 52.6 40.8151 54.2434 42.8711 54.2434Z" fill="#CCCCCC"/>
<path id="Vector_9" d="M90.5094 7.92444H82.8565C82.2978 7.92444 81.762 7.70562 81.367 7.3161C80.9719 6.92659 80.75 6.3983 80.75 5.84745V0.274346C80.75 0.249946 80.757 0.226039 80.7701 0.205368C80.7833 0.184698 80.8021 0.1681 80.8243 0.157478C80.8466 0.146856 80.8715 0.14264 80.8961 0.145313C80.9207 0.147986 80.944 0.15744 80.9634 0.172591L90.5912 7.69287C90.6126 7.70961 90.6282 7.73251 90.6358 7.75839C90.6435 7.78427 90.6427 7.81185 90.6338 7.8373C90.6248 7.86276 90.608 7.88482 90.5857 7.90044C90.5634 7.91605 90.5368 7.92444 90.5094 7.92444Z" fill="#E6E6E6"/>
<path id="Vector_10" d="M38.7065 80.4606L9.45 86.5409C8.60452 86.7156 7.72327 86.5525 6.99959 86.0874C6.27591 85.6223 5.76889 84.8932 5.58977 84.0599L0.569392 60.576C0.392174 59.7423 0.557564 58.8734 1.02928 58.1599C1.50099 57.4464 2.24051 56.9464 3.08558 56.7698L32.3421 50.6895C33.1876 50.5148 34.0688 50.6778 34.7925 51.143C35.5162 51.6081 36.0232 52.3372 36.2023 53.1704L41.2227 76.6544C41.3999 77.4881 41.2346 78.3569 40.7628 79.0705C40.2911 79.784 39.5516 80.2839 38.7065 80.4606Z" fill="white"/>
<path id="Vector_11" d="M38.7065 80.4606L9.45 86.5409C8.60452 86.7156 7.72327 86.5525 6.99959 86.0874C6.27591 85.6223 5.76889 84.8932 5.58977 84.0599L0.569392 60.576C0.392174 59.7423 0.557564 58.8734 1.02928 58.1599C1.50099 57.4464 2.24051 56.9464 3.08558 56.7698L32.3421 50.6895C33.1876 50.5148 34.0688 50.6778 34.7925 51.143C35.5162 51.6081 36.0232 52.3372 36.2023 53.1704L41.2227 76.6544C41.3999 77.4881 41.2346 78.3569 40.7628 79.0705C40.2911 79.784 39.5516 80.2839 38.7065 80.4606ZM3.16464 57.1397C2.41899 57.2955 1.76648 57.7366 1.35027 58.3662C0.934046 58.9958 0.78811 59.7625 0.944473 60.498L5.96485 83.982C6.1229 84.7172 6.57027 85.3606 7.20882 85.771C7.84736 86.1813 8.62493 86.3252 9.37094 86.1711L38.6275 80.0907C39.3731 79.9349 40.0256 79.4938 40.4418 78.8642C40.8581 78.2346 41.004 77.4679 40.8476 76.7324L35.8273 53.2484C35.6692 52.5132 35.2218 51.8698 34.5833 51.4595C33.9448 51.0491 33.1672 50.9052 32.4212 51.0594L3.16464 57.1397Z" fill="#3F3D56"/>
<path id="Path 411" d="M30.5265 58.4322L15.7611 61.5009C15.6319 61.5305 15.4961 61.5105 15.3812 61.4452C15.2663 61.3798 15.1809 61.2739 15.1421 61.1488C15.1244 61.0836 15.1204 61.0155 15.1303 60.9486C15.1401 60.8818 15.1637 60.8177 15.1996 60.7601C15.2354 60.7026 15.2828 60.6528 15.3388 60.6139C15.3947 60.575 15.4582 60.5478 15.5252 60.5339L30.5555 57.4102C31.1423 57.7362 30.957 58.3428 30.5265 58.4322Z" fill="#CCCCCC"/>
<path id="Path 412" d="M31.0733 60.9869L16.308 64.0556C16.1787 64.0851 16.043 64.0652 15.9281 63.9999C15.8132 63.9345 15.7277 63.8286 15.689 63.7035C15.6713 63.6383 15.6673 63.5702 15.6771 63.5033C15.687 63.4365 15.7106 63.3724 15.7464 63.3148C15.7823 63.2573 15.8296 63.2075 15.8856 63.1686C15.9416 63.1297 16.0051 63.1025 16.0721 63.0886L31.1023 59.9648C31.6892 60.2909 31.5039 60.8974 31.0733 60.9869Z" fill="#CCCCCC"/>
<path id="Path 413" d="M13.4283 66.1736L8.92208 67.1102C8.77491 67.1406 8.62151 67.1122 8.49554 67.0313C8.36957 66.9503 8.28132 66.8234 8.25016 66.6783L7.12928 61.4351C7.09841 61.29 7.12719 61.1388 7.2093 61.0146C7.29141 60.8904 7.42014 60.8034 7.56725 60.7726L12.0735 59.8361C12.2207 59.8057 12.374 59.8341 12.5 59.9151C12.6259 59.996 12.7142 60.1229 12.7454 60.2679L13.8663 65.5112C13.8972 65.6563 13.8684 65.8075 13.7863 65.9317C13.7042 66.0559 13.5754 66.1429 13.4283 66.1736Z" fill="#CCCCCC"/>
<path id="Path 414" d="M32.1473 66.2252L9.61264 70.9086C9.48343 70.9381 9.34765 70.9182 9.23276 70.8529C9.11786 70.7875 9.03242 70.6816 8.9937 70.5565C8.97599 70.4913 8.97196 70.4232 8.98183 70.3563C8.9917 70.2895 9.01528 70.2254 9.05112 70.1678C9.08697 70.1103 9.13433 70.0605 9.19031 70.0216C9.2463 69.9827 9.30974 69.9555 9.37676 69.9416L32.1765 65.2031C32.7634 65.5292 32.5779 66.1358 32.1473 66.2252Z" fill="#CCCCCC"/>
<path id="Path 415" d="M32.6942 68.7799L10.1595 73.4633C10.0303 73.4928 9.89453 73.4729 9.77963 73.4076C9.66474 73.3422 9.57929 73.2363 9.54058 73.1112C9.52287 73.046 9.51883 72.9778 9.5287 72.911C9.53857 72.8442 9.56215 72.78 9.598 72.7225C9.63384 72.665 9.6812 72.6152 9.73719 72.5763C9.79317 72.5374 9.85661 72.5102 9.92363 72.4962L32.7234 67.7578C33.3102 68.0839 33.1247 68.6904 32.6942 68.7799Z" fill="#CCCCCC"/>
<path id="Path 416" d="M33.2411 71.3307L10.7064 76.0141C10.5772 76.0436 10.4414 76.0237 10.3265 75.9584C10.2116 75.893 10.1262 75.7871 10.0875 75.662C10.0697 75.5967 10.0657 75.5286 10.0756 75.4618C10.0855 75.395 10.109 75.3308 10.1449 75.2733C10.1807 75.2157 10.2281 75.166 10.2841 75.1271C10.34 75.0882 10.4035 75.061 10.4705 75.047L33.2702 70.3086C33.8571 70.6347 33.6716 71.2412 33.2411 71.3307Z" fill="#CCCCCC"/>
<path id="Path 417" d="M33.7801 73.8854L11.2455 78.5687C11.1162 78.5983 10.9805 78.5784 10.8656 78.513C10.7507 78.4477 10.6652 78.3417 10.6265 78.2167C10.6088 78.1514 10.6048 78.0833 10.6146 78.0165C10.6245 77.9497 10.6481 77.8855 10.6839 77.828C10.7198 77.7704 10.7671 77.7207 10.8231 77.6818C10.8791 77.6429 10.9426 77.6156 11.0096 77.6017L33.8093 72.8633C34.3962 73.1894 34.2107 73.7959 33.7801 73.8854Z" fill="#CCCCCC"/>
<path id="Path 418" d="M34.327 76.4401L11.7923 81.1234C11.6631 81.153 11.5273 81.1331 11.4124 81.0677C11.2975 81.0024 11.2121 80.8964 11.1734 80.7713C11.1557 80.7061 11.1516 80.638 11.1615 80.5712C11.1714 80.5043 11.195 80.4402 11.2308 80.3827C11.2667 80.3251 11.314 80.2754 11.37 80.2365C11.426 80.1976 11.4894 80.1703 11.5564 80.1564L34.3562 75.418C34.9431 75.7441 34.7576 76.3506 34.327 76.4401Z" fill="#CCCCCC"/>
<path id="Vector_12" d="M38.3069 64.749C38.2557 64.8406 38.2119 64.936 38.1759 65.0344L28.9506 67.2916L27.3457 65.6545L24.5234 67.7197L27.0789 70.89C27.2854 71.1461 27.5705 71.3293 27.8915 71.412C28.2125 71.4947 28.5521 71.4726 28.8593 71.3488L38.8697 67.3156C39.1987 67.5544 39.5937 67.6888 40.0021 67.7009C40.4104 67.713 40.8129 67.6022 41.1558 67.3832C41.4988 67.1643 41.766 66.8476 41.9219 66.4753C42.0779 66.1029 42.1152 65.6926 42.0288 65.2989C41.9425 64.9052 41.7366 64.5467 41.4386 64.2711C41.1406 63.9955 40.7646 63.816 40.3605 63.7563C39.9565 63.6966 39.5436 63.7596 39.1767 63.9369C38.8099 64.1142 38.5065 64.3975 38.3069 64.749Z" fill="#A0616A"/>
<path id="Vector_13" d="M6.81876 84.8359C7.10637 84.7484 7.371 84.5997 7.59402 84.4003C7.81704 84.201 7.99303 83.9559 8.10958 83.6823C8.22613 83.4086 8.28041 83.1131 8.2686 82.8166C8.25679 82.52 8.17918 82.2296 8.04123 81.9658L14.3899 64.5673L9.98097 63.7969L5.1268 81.1413C4.69271 81.3992 4.36964 81.8051 4.21881 82.2821C4.06798 82.7592 4.09986 83.2742 4.30842 83.7296C4.51698 84.185 4.88772 84.5492 5.35039 84.7531C5.81306 84.957 6.33552 84.9865 6.81876 84.8359Z" fill="#A0616A"/>
<path id="Vector_14" d="M13.5862 67.6544L9.23302 66.0071C9.10917 65.9603 8.99701 65.8876 8.90419 65.7942C8.81138 65.7007 8.74008 65.5886 8.69516 65.4655C8.65024 65.3425 8.63275 65.2113 8.64388 65.0809C8.65501 64.9506 8.69451 64.8241 8.75967 64.7102L11.0433 60.7179C11.2902 60.0946 11.7777 59.5931 12.3989 59.3235C13.0201 59.054 13.7244 59.0383 14.3574 59.2799C14.9903 59.5215 15.5003 60.0007 15.7755 60.6125C16.0506 61.2242 16.0686 61.9186 15.8253 62.5434L14.818 67.0027C14.7891 67.1304 14.7327 67.2504 14.6525 67.3547C14.5724 67.4589 14.4703 67.5449 14.3534 67.6067C14.2365 67.6685 14.1075 67.7048 13.9751 67.7131C13.8427 67.7213 13.71 67.7013 13.5862 67.6544Z" fill="#0B3D60"/>
<path id="Vector_15" d="M23.4066 117.499L25.7564 117.499L26.8742 108.562L23.4062 108.563L23.4066 117.499Z" fill="#A0616A"/>
<path id="Vector_16" d="M22.8125 116.742L27.44 116.742H27.4402C27.8274 116.742 28.2109 116.817 28.5687 116.963C28.9265 117.11 29.2516 117.324 29.5254 117.594C29.7993 117.864 30.0165 118.184 30.1647 118.537C30.3129 118.89 30.3892 119.268 30.3892 119.65V119.744L22.8126 119.745L22.8125 116.742Z" fill="#2F2E41"/>
<path id="Vector_17" d="M10.1801 117.499L12.5299 117.499L13.6476 108.562L10.1797 108.563L10.1801 117.499Z" fill="#A0616A"/>
<path id="Vector_18" d="M9.58594 116.742L14.2134 116.742H14.2136C14.6009 116.742 14.9843 116.817 15.3421 116.963C15.6999 117.11 16.025 117.324 16.2989 117.594C16.5727 117.864 16.7899 118.184 16.9381 118.537C17.0863 118.89 17.1626 119.268 17.1626 119.65V119.744L9.58608 119.745L9.58594 116.742Z" fill="#2F2E41"/>
<path id="Vector_19" d="M12.6486 113.902H9.67497C9.55826 113.902 9.44277 113.879 9.33548 113.833C9.2282 113.788 9.13135 113.722 9.05081 113.638C8.97027 113.555 8.90771 113.457 8.86691 113.349C8.82612 113.241 8.80794 113.126 8.81347 113.011L10.2259 83.0902L10.3149 83.0878L24.6741 82.7188L27.484 112.657C27.4948 112.769 27.4829 112.882 27.4489 112.99C27.4149 113.098 27.3596 113.198 27.2861 113.284C27.2126 113.37 27.1224 113.441 27.0208 113.493C26.9192 113.545 26.8081 113.576 26.6942 113.585L23.3542 113.848C23.1444 113.865 22.9357 113.805 22.7674 113.68C22.5991 113.556 22.4829 113.375 22.4405 113.171L18.1683 91.8594C18.1567 91.7946 18.1218 91.7361 18.0702 91.6946C18.0185 91.653 17.9534 91.631 17.8868 91.6328H17.8856C17.8187 91.6313 17.7535 91.6536 17.7019 91.6956C17.6503 91.7376 17.6157 91.7965 17.6046 91.8616L13.4948 113.216C13.4559 113.409 13.3503 113.583 13.196 113.708C13.0417 113.833 12.8483 113.902 12.6486 113.902Z" fill="#2F2E41"/>
<path id="Vector_20" d="M18.0902 56.404C20.6901 56.404 22.7977 54.326 22.7977 51.7625C22.7977 49.1991 20.6901 47.1211 18.0902 47.1211C15.4904 47.1211 13.3828 49.1991 13.3828 51.7625C13.3828 54.326 15.4904 56.404 18.0902 56.404Z" fill="#A0616A"/>
<path id="Vector_21" d="M16.5185 86.5984C14.2749 86.5984 11.9703 86.0169 10.0599 84.2976C9.95823 84.2067 9.87974 84.0935 9.8308 83.9671C9.78186 83.8407 9.76386 83.7047 9.77825 83.5701C9.98273 81.7586 10.9746 72.4052 10.416 66.1572C10.307 64.9901 10.4746 63.8141 10.9055 62.7218C11.3365 61.6296 12.0189 60.651 12.8991 59.8634C13.7639 59.0775 14.8021 58.5006 15.9317 58.1781C17.0614 57.8556 18.2516 57.7963 19.4084 58.005C19.467 58.0153 19.5257 58.0262 19.5844 58.0373C23.3531 58.7565 25.9717 62.1955 25.6754 66.0368C25.243 71.6419 24.8555 79.2235 25.464 83.5111C25.4893 83.6865 25.4582 83.8653 25.3752 84.0224C25.2922 84.1795 25.1614 84.3071 25.0012 84.3873C23.6165 85.0771 20.1471 86.5984 16.5185 86.5984Z" fill="#0B3D60"/>
<path id="Vector_22" d="M22.6577 67.9858C22.5473 67.9134 22.454 67.8183 22.3842 67.707C22.3144 67.5957 22.2698 67.471 22.2534 67.3412L21.6799 62.8076C21.4978 62.1629 21.5825 61.4733 21.9153 60.89C22.2481 60.3068 22.8019 59.8774 23.4553 59.6961C24.1087 59.5148 24.8083 59.5963 25.4008 59.9229C25.9933 60.2494 26.4303 60.7942 26.616 61.4379L28.5051 65.6259C28.559 65.7454 28.5861 65.8749 28.5847 66.0057C28.5832 66.1365 28.5532 66.2655 28.4966 66.3838C28.44 66.5022 28.3583 66.6071 28.2569 66.6914C28.1555 66.7758 28.0368 66.8376 27.909 66.8727L23.417 68.1052C23.2892 68.1403 23.1552 68.1478 23.0241 68.1272C22.8931 68.1066 22.7681 68.0584 22.6577 67.9858Z" fill="#0B3D60"/>
<path id="Vector_23" d="M16.4524 56.341C16.0068 56.3491 15.564 56.2701 15.1496 56.1086C14.9673 56.0393 14.778 55.9823 14.596 55.913C12.9886 55.3007 11.9297 53.6128 11.8918 51.9142C11.8539 50.2155 12.746 48.5669 14.0708 47.4803C15.3956 46.3938 17.1116 45.836 18.8298 45.707C20.6806 45.5681 22.7647 46.0308 23.7989 47.5506C24.0742 47.9551 24.2667 48.4459 24.1036 48.9344C24.0547 49.0817 23.9675 49.2139 23.8505 49.3176C23.3887 49.7228 22.9282 49.4181 22.4574 49.3912C21.8102 49.3542 21.229 49.8707 21.02 50.4757C20.8111 51.0808 20.9031 51.7469 21.0718 52.3641C21.2003 52.7354 21.2813 53.1211 21.3129 53.5123C21.3266 53.7084 21.2891 53.9047 21.2043 54.0826C21.1194 54.2604 20.9898 54.414 20.8279 54.5287C20.4235 54.7697 19.8924 54.6302 19.4878 54.3896C19.0831 54.1489 18.7335 53.8144 18.2964 53.6373C17.8594 53.4602 17.2722 53.4995 17.0178 53.8921C16.9369 54.035 16.8822 54.1908 16.8561 54.3523C16.628 55.3768 16.6805 55.3165 16.4524 56.341Z" fill="#2F2E41"/>
<path id="Vector_24" d="M37.2326 119.999H0.816663C0.765831 119.999 0.71708 119.979 0.681137 119.944C0.645193 119.908 0.625 119.86 0.625 119.81C0.625 119.76 0.645193 119.712 0.681137 119.676C0.71708 119.641 0.765831 119.621 0.816663 119.621H37.2326C37.2834 119.621 37.3322 119.641 37.3681 119.676C37.4041 119.712 37.4243 119.76 37.4243 119.81C37.4243 119.86 37.4041 119.908 37.3681 119.944C37.3322 119.979 37.2834 119.999 37.2326 119.999Z" fill="#CCCCCC"/>
<path id="Vector_25" d="M130.453 80.9998L104.376 95.422C103.622 95.8379 102.732 95.9419 101.9 95.7112C101.069 95.4806 100.364 94.9341 99.9404 94.1917L88.0324 73.2598C87.6106 72.5165 87.5051 71.6386 87.7391 70.8186C87.973 69.9987 88.5272 69.3038 89.2801 68.8863L115.357 54.4641C116.111 54.0482 117.002 53.9442 117.833 54.1749C118.665 54.4055 119.37 54.952 119.793 55.6943L131.701 76.6263C132.123 77.3696 132.228 78.2475 131.994 79.0674C131.76 79.8874 131.206 80.5823 130.453 80.9998Z" fill="white"/>
<path id="Vector_26" d="M130.453 80.9998L104.376 95.422C103.622 95.8379 102.732 95.9419 101.9 95.7112C101.069 95.4806 100.364 94.9341 99.9404 94.1917L88.0324 73.2598C87.6106 72.5165 87.5051 71.6386 87.7391 70.8186C87.973 69.9987 88.5272 69.3038 89.2801 68.8863L115.357 54.4641C116.111 54.0482 117.002 53.9442 117.833 54.1749C118.665 54.4055 119.37 54.952 119.793 55.6943L131.701 76.6263C132.123 77.3696 132.228 78.2475 131.994 79.0674C131.76 79.8874 131.206 80.5823 130.453 80.9998ZM89.4677 69.2159C88.8033 69.5843 88.3143 70.1975 88.1079 70.9209C87.9015 71.6444 87.9946 72.419 88.3667 73.0749L100.275 94.0068C100.648 94.6619 101.27 95.1441 102.004 95.3476C102.738 95.5511 103.523 95.4593 104.189 95.0924L130.266 80.6702C130.93 80.3018 131.419 79.6886 131.626 78.9651C131.832 78.2417 131.739 77.467 131.367 76.8112L119.459 55.8792C119.085 55.2242 118.463 54.742 117.729 54.5385C116.996 54.335 116.21 54.4268 115.545 54.7937L89.4677 69.2159Z" fill="#3F3D56"/>
<path id="Path 411_2" d="M115.968 62.3902L102.807 69.6689C102.693 69.7351 102.557 69.7561 102.428 69.7276C102.298 69.6991 102.184 69.6232 102.11 69.5152C102.073 69.4582 102.048 69.3944 102.038 69.3277C102.027 69.261 102.03 69.1928 102.047 69.1274C102.063 69.0619 102.093 69.0005 102.135 68.9469C102.177 68.8932 102.229 68.8485 102.289 68.8155L115.686 61.4062C116.345 61.5445 116.352 62.1779 115.968 62.3902Z" fill="#CCCCCC"/>
<path id="Path 412_2" d="M117.257 64.6675L104.096 71.9462C103.982 72.0125 103.846 72.0335 103.717 72.005C103.587 71.9764 103.474 71.9005 103.399 71.7926C103.362 71.7355 103.337 71.6717 103.327 71.605C103.316 71.5383 103.319 71.4702 103.336 71.4047C103.352 71.3392 103.383 71.2778 103.424 71.2242C103.466 71.1706 103.518 71.1259 103.578 71.0928L116.975 63.6836C117.634 63.8219 117.641 64.4553 117.257 64.6675Z" fill="#CCCCCC"/>
<path id="Path 413_2" d="M101.988 74.8138L97.9718 77.0352C97.8406 77.1076 97.6856 77.1257 97.5409 77.0855C97.3961 77.0454 97.2734 76.9503 97.1997 76.821L94.541 72.1476C94.4676 72.0182 94.4492 71.8654 94.49 71.7227C94.5307 71.58 94.6272 71.459 94.7582 71.3863L98.7748 69.165C98.906 69.0926 99.061 69.0745 99.2057 69.1147C99.3505 69.1548 99.4731 69.2499 99.5469 69.3791L102.206 74.0525C102.279 74.1819 102.297 74.3347 102.257 74.4775C102.216 74.6202 102.119 74.7411 101.988 74.8138Z" fill="#CCCCCC"/>
<path id="Path 414_2" d="M119.877 69.3473L99.7913 80.4559C99.677 80.5222 99.5414 80.5432 99.4119 80.5147C99.2825 80.4861 99.1688 80.4102 99.094 80.3023C99.0573 80.2452 99.0328 80.1814 99.022 80.1147C99.0111 80.0481 99.0142 79.9799 99.031 79.9144C99.0477 79.8489 99.0779 79.7875 99.1195 79.7339C99.1611 79.6803 99.2134 79.6356 99.2732 79.6025L119.595 68.3633C120.254 68.5016 120.261 69.135 119.877 69.3473Z" fill="#CCCCCC"/>
<path id="Path 415_2" d="M121.166 71.6246L101.08 82.7332C100.966 82.7995 100.83 82.8205 100.701 82.792C100.572 82.7635 100.458 82.6876 100.383 82.5796C100.346 82.5226 100.322 82.4588 100.311 82.3921C100.3 82.3254 100.303 82.2572 100.32 82.1918C100.337 82.1263 100.367 82.0649 100.409 82.0112C100.45 81.9576 100.502 81.9129 100.562 81.8799L120.884 70.6406C121.543 70.7789 121.55 71.4124 121.166 71.6246Z" fill="#CCCCCC"/>
<path id="Path 416_2" d="M122.463 73.902L102.377 85.0106C102.263 85.0769 102.127 85.0979 101.998 85.0694C101.868 85.0408 101.755 84.9649 101.68 84.857C101.643 84.7999 101.619 84.7361 101.608 84.6694C101.597 84.6027 101.6 84.5346 101.617 84.4691C101.634 84.4036 101.664 84.3422 101.705 84.2886C101.747 84.235 101.799 84.1903 101.859 84.1572L122.181 72.918C122.84 73.0563 122.847 73.6897 122.463 73.902Z" fill="#CCCCCC"/>
<path id="Path 417_2" d="M123.76 76.1754L103.674 87.284C103.56 87.3503 103.424 87.3713 103.295 87.3428C103.165 87.3143 103.052 87.2384 102.977 87.1304C102.94 87.0734 102.916 87.0095 102.905 86.9429C102.894 86.8762 102.897 86.808 102.914 86.7425C102.931 86.6771 102.961 86.6157 103.002 86.562C103.044 86.5084 103.096 86.4637 103.156 86.4307L123.478 75.1914C124.137 75.3297 124.144 75.9632 123.76 76.1754Z" fill="#CCCCCC"/>
<path id="Path 418_2" d="M125.049 78.4528L104.963 89.5614C104.849 89.6277 104.713 89.6487 104.584 89.6201C104.454 89.5916 104.341 89.5157 104.266 89.4077C104.229 89.3507 104.205 89.2869 104.194 89.2202C104.183 89.1535 104.186 89.0854 104.203 89.0199C104.22 88.9544 104.25 88.893 104.291 88.8394C104.333 88.7857 104.385 88.7411 104.445 88.708L124.767 77.4688C125.426 77.607 125.433 78.2405 125.049 78.4528Z" fill="#CCCCCC"/>
<path id="Vector_27" d="M121.549 86.9785C121.658 86.7406 121.713 86.482 121.71 86.2208C121.707 85.9596 121.646 85.7023 121.532 85.4669C121.417 85.2315 121.251 85.0238 121.046 84.8584C120.841 84.6929 120.602 84.5738 120.345 84.5095L119.799 78.1836L117.172 80.2269L118.093 85.9208C118.012 86.3532 118.095 86.7999 118.325 87.1763C118.556 87.5527 118.919 87.8326 119.345 87.9629C119.771 88.0933 120.23 88.0651 120.636 87.8837C121.043 87.7022 121.367 87.3801 121.549 86.9785Z" fill="#FFB8B8"/>
<path id="Vector_28" d="M119.851 83.8471L117.669 84.1037C117.558 84.1167 117.446 84.107 117.339 84.0752C117.232 84.0434 117.133 83.9902 117.048 83.9189C116.963 83.8477 116.894 83.7598 116.845 83.661C116.796 83.5621 116.768 83.4543 116.763 83.3443L116.445 76.0872L112.309 64.9478C112.144 64.6022 112.068 64.2212 112.09 63.8395C112.111 63.4577 112.229 63.0873 112.432 62.7618C112.534 62.6046 112.65 62.457 112.779 62.3209C113.033 62.0507 113.35 61.8452 113.703 61.7218C114.055 61.5984 114.433 61.5608 114.803 61.6122C115.185 61.6623 115.549 61.8014 115.865 62.018C116.181 62.2345 116.44 62.5224 116.621 62.8575L119.318 68.4298C120.446 70.7605 120.978 73.3279 120.869 75.9082L120.565 83.087C120.557 83.2748 120.482 83.4539 120.354 83.5927C120.225 83.7314 120.051 83.821 119.862 83.8457L119.851 83.8471Z" fill="#0B3D60"/>
<path id="Vector_29" d="M127.597 115.212L125.575 116.088L121.188 108.812L124.173 107.52L127.597 115.212Z" fill="#FFB8B8"/>
<path id="Vector_30" d="M128.972 116.92L122.45 119.743L122.414 119.662C122.267 119.333 122.188 118.979 122.18 118.62C122.173 118.261 122.237 117.905 122.369 117.57C122.501 117.236 122.699 116.93 122.951 116.671C123.203 116.412 123.504 116.204 123.838 116.06L127.821 114.336L128.972 116.92Z" fill="#2F2E41"/>
<path id="Vector_31" d="M100.44 117.632H98.2306L97.1797 109.23L100.44 109.231L100.44 117.632Z" fill="#FFB8B8"/>
<path id="Vector_32" d="M101.006 119.745L93.8828 119.744V119.655C93.8828 119.296 93.9545 118.941 94.0938 118.609C94.2332 118.278 94.4374 117.976 94.6948 117.722C94.9523 117.469 95.2579 117.267 95.5943 117.13C95.9307 116.993 96.2912 116.922 96.6553 116.922L101.006 116.922L101.006 119.745Z" fill="#2F2E41"/>
<path id="Vector_33" d="M121.947 114.763L109.641 87.6855C109.619 87.6347 109.581 87.592 109.533 87.5633C109.485 87.5346 109.429 87.5213 109.373 87.5252C109.318 87.5291 109.264 87.55 109.221 87.5851C109.178 87.6202 109.146 87.6677 109.132 87.721L101.634 113.874C101.584 114.057 101.47 114.217 101.312 114.324C101.154 114.432 100.962 114.48 100.771 114.46L96.6756 114.056C96.4646 114.035 96.2706 113.933 96.1347 113.772C95.9988 113.611 95.9317 113.405 95.9476 113.196C97.2501 97.2232 99.3034 82.1479 105.454 72.2791L105.487 72.2266L114.791 74.0254L127.212 113.025C127.274 113.226 127.253 113.443 127.154 113.629C127.056 113.814 126.887 113.955 126.685 114.02L122.939 115.207C122.748 115.269 122.539 115.257 122.356 115.175C122.172 115.093 122.026 114.946 121.947 114.763Z" fill="#2F2E41"/>
<path id="Vector_34" d="M109.988 58.4068C112.432 58.4068 114.414 56.4532 114.414 54.0433C114.414 51.6333 112.432 49.6797 109.988 49.6797C107.544 49.6797 105.562 51.6333 105.562 54.0433C105.562 56.4532 107.544 58.4068 109.988 58.4068Z" fill="#FFB8B8"/>
<path id="Vector_35" d="M104.887 73.0326L104.831 73.0211L104.817 72.966C104.221 70.4837 104.207 67.7747 104.775 64.9146C105.063 63.4527 105.866 62.1381 107.04 61.2021C108.215 60.2662 109.687 59.769 111.197 59.7981C112.836 59.8309 114.4 60.4797 115.569 61.612C116.738 62.7442 117.425 64.2742 117.487 65.8889C117.677 70.8083 115.638 75.0733 115.618 75.1158L115.587 75.1782L104.887 73.0326Z" fill="#0B3D60"/>
<path id="Vector_36" d="M93.0217 81.3353C93.2837 81.2971 93.5341 81.2027 93.7551 81.0588C93.9762 80.9149 94.1625 80.7249 94.3011 80.5023C94.4396 80.2797 94.527 80.0298 94.557 79.7703C94.587 79.5109 94.5589 79.248 94.4748 79.0004L99.5722 75.1215L96.4073 74.0508L92.0519 77.8984C91.6393 78.0654 91.3032 78.3757 91.1072 78.7707C90.9112 79.1657 90.869 79.6179 90.9885 80.0415C91.1081 80.4652 91.3811 80.8309 91.7558 81.0693C92.1305 81.3077 92.5809 81.4024 93.0217 81.3353Z" fill="#FFB8B8"/>
<path id="Vector_37" d="M95.8013 78.4091C95.6353 78.5058 95.4397 78.5408 95.2499 78.5078C95.06 78.4748 94.8884 78.3759 94.766 78.229L93.3657 76.5597C93.2946 76.4748 93.2419 76.3765 93.2111 76.2707C93.1803 76.1649 93.172 76.0539 93.1868 75.9448C93.2015 75.8357 93.2389 75.7308 93.2966 75.6366C93.3544 75.5424 93.4312 75.461 93.5224 75.3974L99.5373 71.2033L106.795 61.7422C107 61.4176 107.284 61.1486 107.621 60.9597C107.958 60.7707 108.337 60.6678 108.725 60.6602C108.914 60.659 109.103 60.6753 109.289 60.7086C109.657 60.7732 110.004 60.9246 110.3 61.1499C110.596 61.3753 110.833 61.6679 110.989 62.0028C111.153 62.3461 111.232 62.7231 111.218 63.1024C111.205 63.4817 111.1 63.8523 110.912 64.1836L105.538 72.7644L105.526 72.7831L95.8013 78.4091Z" fill="#0B3D60"/>
<path id="Vector_38" d="M110.78 53.7731C110.453 53.2441 109.734 53.0947 109.109 53.155C108.484 53.2154 107.876 53.4319 107.248 53.4271C105.505 53.4138 104.159 51.3186 104.892 49.7588C105.493 48.4795 106.994 47.9178 108.353 47.477C111.2 46.5526 114.471 45.6645 117.056 47.1632C117.879 47.655 118.554 48.3546 119.012 49.1898C119.47 50.025 119.693 50.9655 119.658 51.9141C119.6 53.0937 119.142 54.3053 119.53 55.4227C119.977 56.7118 121.394 57.4034 122.733 57.738C125.081 58.3245 127.557 58.23 129.92 58.7561C132.282 59.2821 134.703 60.6789 135.34 62.983C135.758 64.4965 135.322 66.1258 134.599 67.5232C133.862 68.9489 132.837 70.2111 131.587 71.2326C130.337 72.2541 128.89 73.0133 127.332 73.4637C125.774 73.9142 124.14 74.0464 122.529 73.8523C120.918 73.6581 119.364 73.1417 117.962 72.3347C115.106 70.6903 113.043 67.911 111.814 64.8834C111.117 63.1174 110.626 61.2788 110.351 59.4032C110.076 57.6475 110.31 55.8732 110.808 54.166C110.832 54.1022 110.842 54.0342 110.837 53.9665C110.832 53.8988 110.812 53.8329 110.78 53.7731Z" fill="#2F2E41"/>
<path id="Vector_39" d="M126.74 119.999H90.3245C90.2736 119.999 90.2249 119.979 90.189 119.944C90.153 119.908 90.1328 119.86 90.1328 119.81C90.1328 119.76 90.153 119.712 90.189 119.676C90.2249 119.641 90.2736 119.621 90.3245 119.621H126.74C126.791 119.621 126.84 119.641 126.876 119.676C126.912 119.712 126.932 119.76 126.932 119.81C126.932 119.86 126.912 119.908 126.876 119.944C126.84 119.979 126.791 119.999 126.74 119.999Z" fill="#CCCCCC"/>
</g>
<defs>
<clipPath id="clip0_3084_26835">
<rect width="135" height="120" fill="white" transform="translate(0.5)"/>
</clipPath>
</defs>
</svg>
