<svg xmlns="http://www.w3.org/2000/svg" width="14" height="13.973" viewBox="0 0 14 13.973"><defs><style>.a{fill:#fff;}</style></defs><g transform="translate(-41.2 -41.5)"><g transform="translate(41.2 41.5)"><path class="a" d="M55.2,257.766v3.1a.705.705,0,0,1-.022.172h0a.665.665,0,0,1-.648.533H41.866a.663.663,0,0,1-.657-.591.522.522,0,0,1-.009-.119v-3.1a.661.661,0,0,1,1.322,0v2.482H53.882v-2.482a.661.661,0,0,1,1.128-.467A.7.7,0,0,1,55.2,257.766Z" transform="translate(-41.2 -247.596)"/><path class="a" d="M116.346,48.566,113.1,51.815c0,.009-.013.013-.018.018a.765.765,0,0,1-.428.216c-.013,0-.026,0-.04,0a.479.479,0,0,1-.079,0h0l-.075,0c-.013,0-.026,0-.04,0a.752.752,0,0,1-.428-.216l-.018-.018-3.249-3.249a.773.773,0,0,1,1.093-1.093l1.953,1.953V42.271a.775.775,0,0,1,.771-.771.789.789,0,0,1,.547.225.762.762,0,0,1,.225.547v7.154l1.953-1.953a.777.777,0,0,1,1.093,0A.789.789,0,0,1,116.346,48.566Z" transform="translate(-105.533 -41.5)"/></g></g></svg>
