<svg xmlns="http://www.w3.org/2000/svg" width="150" height="110" viewBox="0 0 150 110" fill="none">
  <path d="M72.7755 108.765L2.91653 65.8569C0.693189 64.5607 -1.21426 62.4269 0.952376 61.0338L71.0584 19.0393C72.1113 18.3616 73.707 17.9197 74.7761 18.5637L148.118 62.7804C150.341 64.123 150.742 67.8729 148.523 69.2155L81.9928 108.693C80.5952 109.538 79.0098 109.988 77.3933 110.001C75.7768 110.013 74.1851 109.587 72.7755 108.765Z" fill="#0B3D60"/>
  <path d="M30.1072 44.293C30.0789 44.293 28.9571 45.9764 28.8923 46.0522C26.9119 49.2256 26.4219 53.0976 25.62 56.7087C25.2151 58.4763 24.4375 60.6396 24.4375 62.4409C24.802 63.6362 25.4702 65.2481 26.3612 64.8104C27.7381 64.137 33.5212 53.388 34.6673 46.8561L30.1072 44.293Z" fill="#FFB288"/>
  <path d="M48.1552 46.6406C48.1552 46.6406 49.1676 66.4216 48.4427 66.7414C47.7178 67.0613 45.8711 67.036 45.2029 66.0849C44.5347 65.1337 43.6518 56.5606 43.8057 54.1742C43.9596 51.7879 43.3359 46.6406 43.3359 46.6406" fill="#FFB288"/>
  <path d="M49.7229 67.3669C49.2891 66.6623 48.9984 65.8732 48.8683 65.0479C47.3618 65.4393 46.1874 65.6707 44.9198 64.8711C44.6728 65.999 43.798 67.3963 43.8628 68.2801C43.964 69.6522 45.0777 69.2061 46.2036 69.5428C46.9892 69.7911 47.5522 70.637 48.0341 71.4156C49.5082 73.1875 52.0596 73.5621 54.0683 72.5941C54.2065 72.2658 54.2913 71.9159 54.3194 71.5587C54.453 69.9889 50.5328 68.5705 49.7229 67.3669Z" fill="#29333F"/>
  <path d="M34.0757 27.5561C33.2658 27.9769 32.2088 31.8868 31.0991 36.2428C29.9895 40.5989 24.4453 59.8116 24.4453 59.8116C24.4453 59.8116 26.9967 61.2089 29.5602 61.2594C32.1237 61.3099 39.2028 36.428 39.2028 36.428C39.2028 36.428 42.6451 63.1828 43.86 63.5069C45.075 63.8309 49.3354 62.8503 49.3354 62.8503C49.3354 62.8503 48.2622 28.785 42.0862 25.9062" fill="white"/>
  <path opacity="0.31" d="M34.0757 27.5539C33.2658 27.9748 32.2088 31.8847 31.0991 36.2407C29.9895 40.5967 24.4453 59.8095 24.4453 59.8095C24.4453 59.8095 26.9967 61.2067 29.5602 61.2573C32.1237 61.3078 39.2028 36.4259 39.2028 36.4259C39.2028 36.4259 42.6451 63.1806 43.86 63.5047C45.075 63.8288 49.3354 62.8481 49.3354 62.8481C49.3354 62.8481 48.4485 28.2652 42.2685 25.3906" fill="#29333F"/>
  <path d="M28.669 64.8178C28.3986 64.0305 28.2856 63.1941 28.3369 62.3599C26.7859 62.3894 25.5912 62.3599 24.5261 61.2656C24.0401 62.3052 22.8859 63.4752 22.7563 64.338C22.5579 65.6974 23.7445 65.5248 24.761 66.1351C25.4737 66.556 25.8382 67.5156 26.1379 68.3868C27.1908 70.4575 29.5964 71.4212 31.7631 70.9457C31.9692 70.6578 32.128 70.3364 32.2328 69.9945C32.7269 68.4836 29.1995 66.1814 28.669 64.8178Z" fill="#29333F"/>
  <path d="M134.077 36.645C138.479 36.9606 138.248 44.3595 138.532 47.4319C138.605 48.2021 137.463 48.463 137.386 47.6844C137.139 45.1255 137.301 41.6617 135.936 39.4101C135.531 38.7114 135.008 38.0338 134.146 37.9707C133.881 37.9611 133.617 38.0085 133.37 38.1099C133.123 38.2113 132.899 38.3645 132.712 38.5599C132.307 38.9219 132.121 40.3528 132.056 40.7779C131.827 42.3639 131.802 43.9744 131.979 45.5674C132.056 46.3376 130.914 46.5986 130.833 45.8199C130.598 43.3999 130.157 36.363 134.077 36.645Z" fill="#F15A24"/>
  <path d="M127.484 41.6133L126.16 43.907L123.516 44.4836L125.5 51.5921L131.125 47.8085" fill="white"/>
  <path opacity="0.28" d="M127.484 41.6133L126.16 43.907L123.516 44.4836L125.5 51.5921L131.125 47.8085" fill="#606060"/>
  <path d="M141.059 49.412L127.484 41.6133L127.926 53.1957L138.301 54.231L141.059 49.412Z" fill="white"/>
  <path opacity="0.81" d="M141.059 49.412L127.484 41.6133L127.926 53.1957L138.301 54.231L141.059 49.412Z" fill="#606060"/>
  <path d="M136.208 51.1302L134.11 73.0324L121.422 65.12L123.52 44.4805L136.208 51.1302Z" fill="white"/>
  <path d="M136.199 51.1315L137.633 49.4102H141.055V68.6818L138.803 70.3274L134.102 73.0337L136.199 51.1315Z" fill="white"/>
  <path opacity="0.28" d="M136.199 51.1315L137.633 49.4102H141.055V68.6818L138.803 70.3274L134.102 73.0337L136.199 51.1315Z" fill="#606060"/>
  <path d="M128.407 40.3127C132.822 40.3547 133.016 47.7579 133.49 50.8008C133.607 51.5667 132.481 51.895 132.36 51.1248C131.955 48.5996 131.931 45.119 130.436 42.9557C129.825 42.0677 128.747 41.3227 127.695 41.9035C126.747 42.4254 126.735 43.587 126.642 44.5592C126.504 46.1565 126.571 47.7655 126.84 49.3445C126.962 50.1105 125.836 50.4388 125.71 49.6686C125.329 47.2654 124.475 40.2748 128.407 40.3127Z" fill="#F15A24"/>
  <path d="M95.6613 90.801L96.7669 90.1739C96.904 90.0965 97.0232 89.9891 97.1162 89.859C97.2092 89.7288 97.2738 89.5792 97.3055 89.4205C97.504 88.4147 97.6255 86.2177 95.2523 85.2539L94.0859 85.9946" fill="#F14A24"/>
  <path d="M96.0624 91.2155C96.8485 90.746 96.8548 89.2244 96.0765 87.8169C95.2981 86.4094 94.0299 85.6491 93.2437 86.1186C92.4576 86.5881 92.4513 88.1097 93.2296 89.5172C94.008 90.9247 95.2763 91.685 96.0624 91.2155Z" fill="#F14A24"/>
  <path d="M92.7969 86.5272V85.1594L94.3965 84.3008L96.4457 85.1383L96.7819 86.3841L95.8828 85.5886L94.7894 86.2705V87.5415L92.7969 86.5272Z" fill="white"/>
  <path d="M92.7969 86.5273C92.7969 86.5273 93.0399 88.96 93.9025 89.141C94.7651 89.3219 94.9352 87.4238 94.7894 87.0366" fill="white"/>
  <path d="M77.1301 77.0666L78.2357 76.4395C78.3727 76.3622 78.4919 76.2547 78.5849 76.1246C78.6779 75.9945 78.7426 75.8449 78.7743 75.6862C78.9727 74.6803 79.0942 72.4833 76.721 71.5195L75.5547 72.2603" fill="#F14A24"/>
  <path d="M77.4374 77.4225C78.2235 76.953 78.2298 75.4314 77.4515 74.0239C76.6731 72.6164 75.4049 71.8561 74.6187 72.3256C73.8326 72.7952 73.8263 74.3168 74.6046 75.7242C75.383 77.1317 76.6513 77.8921 77.4374 77.4225Z" fill="#F14A24"/>
  <path d="M74.2422 72.785V71.4172L75.8419 70.5586L77.8911 71.4003L78.2272 72.6419L77.3241 71.8465L76.2347 72.5283V73.8035L74.2422 72.785Z" fill="white"/>
  <path d="M74.2422 72.7852C74.2422 72.7852 74.4852 75.2178 75.3478 75.3988C76.2104 75.5797 76.3805 73.6816 76.2347 73.2944" fill="white"/>
  <path d="M56.2707 89.2971L57.3763 88.67C57.5133 88.5926 57.6325 88.4852 57.7256 88.3551C57.8186 88.2249 57.8832 88.0753 57.9149 87.9166C58.1133 86.9107 58.2348 84.7138 55.8617 83.75L54.6953 84.4907" fill="#F14A24"/>
  <path d="M56.5077 89.6843C57.2938 89.2147 57.3001 87.6931 56.5218 86.2856C55.7434 84.8782 54.4752 84.1178 53.689 84.5873C52.9029 85.0569 52.8966 86.5785 53.675 87.986C54.4533 89.3934 55.7216 90.1538 56.5077 89.6843Z" fill="#F14A24"/>
  <path d="M53.3906 84.992V83.6242L54.9862 82.7656L57.0354 83.6074L57.3756 84.8489L56.4725 84.0577L55.3831 84.7353V86.0105L53.3906 84.992Z" fill="white"/>
  <path d="M53.3906 84.9922C53.3906 84.9922 53.6336 87.4248 54.4962 87.6058C55.3588 87.7868 55.5289 85.8886 55.3831 85.5014" fill="white"/>
  <path d="M52.0226 66.4516L72.0489 54.6672C72.3217 54.4754 72.6088 54.3065 72.9074 54.1622C72.3526 54.3684 72.5024 54.0822 73.0006 54.461C74.1467 55.3406 75.5884 55.9719 76.8276 56.6958L89.7262 64.221L98.6884 69.4524C98.7917 69.5026 98.9092 69.511 99.0181 69.4759C99.1269 69.4408 99.2193 69.3648 99.277 69.2627C99.3348 69.1605 99.3538 69.0397 99.3303 68.9238C99.3068 68.8078 99.2426 68.7052 99.1501 68.6359L78.1276 56.3675L73.766 53.8423C73.199 53.5098 72.956 53.2699 72.3445 53.4214C71.1539 53.7203 69.785 54.9282 68.728 55.5511L62.1917 59.402L51.565 65.6604C51.4725 65.7296 51.4083 65.8323 51.3848 65.9482C51.3613 66.0641 51.3803 66.185 51.4381 66.2871C51.4958 66.3892 51.5882 66.4653 51.697 66.5004C51.8059 66.5355 51.9234 66.5271 52.0267 66.4769L52.0226 66.4516Z" fill="white"/>
  <path d="M55.9301 50.7395L58.279 70.1249C58.2789 70.2083 58.2997 70.2904 58.3394 70.3629C58.3792 70.4354 58.4364 70.4959 58.5055 70.5384C58.5746 70.5809 58.6532 70.6039 58.7335 70.6052C58.8138 70.6065 58.893 70.586 58.9634 70.5457L79.4796 57.9785C79.5721 57.9093 79.6363 57.8066 79.6598 57.6907C79.6833 57.5748 79.6643 57.4539 79.6066 57.3518C79.5488 57.2497 79.4565 57.1736 79.3476 57.1385C79.2387 57.1034 79.1212 57.1118 79.018 57.162L58.5017 69.7166L59.1861 70.1375L56.8372 50.7522C56.7643 50.1545 55.8531 50.1461 55.926 50.7522L55.9301 50.7395Z" fill="white"/>
  <path d="M100.321 60.3117L77.8081 47.1679L72.5757 44.1124C72.0168 43.7841 71.0975 42.9634 70.4091 43.0055C69.5991 43.056 68.3153 44.2092 67.635 44.6006L60.969 48.4726L49.176 55.3244C49.108 55.3666 49.0518 55.4264 49.0127 55.4979C48.9737 55.5695 48.9531 55.6503 48.9531 55.7326C48.9531 55.8149 48.9737 55.8957 49.0127 55.9673C49.0518 56.0389 49.108 56.0987 49.176 56.1409L71.7293 68.9606L77.1398 72.0414C77.6623 72.3402 78.5654 73.1398 79.1971 73.144C80.0071 73.144 81.3354 71.9867 81.9955 71.6079L88.6372 67.82L100.305 61.1366C100.819 60.842 100.357 60.0255 99.843 60.3201C92.9583 64.2637 85.8874 67.9631 79.1566 72.1718C78.78 72.4075 79.6467 72.4664 79.2295 72.1718C78.836 71.922 78.4305 71.693 78.0146 71.4858L73.2115 68.7544L58.9522 60.6484L49.6012 55.3328V56.1493L59.1101 50.6232L66.2054 46.5197C67.558 45.7327 69.2994 45.0509 70.4982 44.024C70.9396 43.6494 70.2147 43.8262 70.4415 43.9482C70.8465 44.1587 71.2231 44.407 71.6159 44.6342L76.4757 47.4625L90.6135 55.72L99.8835 61.1324C99.9856 61.1699 100.097 61.1687 100.198 61.1288C100.3 61.0889 100.384 61.0129 100.437 60.9145C100.489 60.816 100.506 60.7014 100.485 60.5911C100.464 60.4807 100.406 60.3817 100.321 60.3117Z" fill="white"/>
  <path d="M67.3085 26.6593L62.2098 23.4985C62.1397 23.456 62.06 23.4336 61.9789 23.4336C61.8978 23.4336 61.8181 23.456 61.7481 23.4985L41.0941 36.4066C41.0271 36.4496 40.9718 36.5097 40.9335 36.5812C40.8951 36.6526 40.875 36.7331 40.875 36.8149C40.875 36.8967 40.8951 36.9772 40.9335 37.0486C40.9718 37.1201 41.0271 37.1802 41.0941 37.2231C42.4913 38.0396 44.496 38.7425 45.6501 39.883C45.8162 40.0472 45.4679 39.4201 45.6218 39.9209C45.719 40.2366 45.7595 40.5817 45.8283 40.9058L47.7682 50.2112L53.3164 76.8397L54.2276 81.2084C54.3329 81.7218 54.3491 82.593 54.6123 83.0518C54.8756 83.5105 55.2684 83.6158 55.7098 83.8557L59.7191 86.0147L71.6255 92.4625L76.4205 95.0592C76.9429 95.3412 77.7691 96.0272 78.3684 96.1114C79.1784 96.2293 80.1787 95.2697 80.8591 94.8488L86.6381 91.263L96.1673 85.3413C96.2343 85.2983 96.2896 85.2383 96.3279 85.1668C96.3663 85.0954 96.3864 85.0149 96.3864 84.9331C96.3864 84.8513 96.3663 84.7708 96.3279 84.6993C96.2896 84.6279 96.2343 84.5678 96.1673 84.5248L84.9858 76.3431L78.2753 71.4315C77.7488 71.0443 77.1859 70.6824 76.6797 70.2657C76.1735 69.8491 76.704 70.6866 76.5703 70.0469C74.3861 59.6654 72.206 49.2951 70.0299 38.9361L67.5069 26.9455C67.3813 26.352 66.5025 26.6003 66.6281 27.198L72.8364 56.7347C73.7638 61.1454 74.4968 65.6656 75.6308 70.0216C75.8252 70.7708 76.0074 70.9307 76.6432 71.3937L82.6005 75.7539L95.7056 85.3455V84.529L87.9057 89.3691L82.2562 92.8749C81.2883 93.4768 80.2313 94.0912 78.6762 95.0971C78.2388 95.3791 78.498 95.1518 78.7329 95.2444C78.41 95.0919 78.0951 94.9219 77.7893 94.7352L73.6504 92.4961L62.0397 86.2083L57.2447 83.6115C56.7871 83.3632 56.3254 83.056 55.8475 82.854C55.5073 82.7067 55.2198 82.3111 55.5074 82.854C55.2927 82.4584 55.2765 81.7513 55.1874 81.3178L54.3775 77.4752L48.9629 51.4191L46.7193 40.6574C46.614 40.144 46.5937 39.5379 46.2536 39.1423C45.7433 38.5531 44.5729 38.1617 43.9087 37.7745L41.5639 36.4066V37.2231L55.4304 28.5532L59.3587 26.0995C60.0877 25.645 61.2662 25.1904 61.8493 24.5423C62.1409 24.2224 62.4203 24.517 61.7764 24.3403C62.2786 24.4792 62.8415 25.001 63.2789 25.2704L66.8468 27.4842C66.8989 27.5157 66.9565 27.5362 67.0162 27.5446C67.076 27.553 67.1367 27.549 67.195 27.533C67.2533 27.517 67.308 27.4892 67.3559 27.4512C67.4039 27.4132 67.4442 27.3658 67.4745 27.3116C67.5048 27.2575 67.5246 27.1976 67.5326 27.1355C67.5407 27.0734 67.5369 27.0103 67.5215 26.9497C67.5061 26.8891 67.4793 26.8323 67.4428 26.7825C67.4062 26.7326 67.3606 26.6908 67.3085 26.6593Z" fill="white"/>
  <path d="M54.0076 41.3901L58.9767 62.1643C59.0167 62.2757 59.0954 62.3676 59.1974 62.4217C59.2994 62.4758 59.4171 62.4882 59.5275 62.4565C59.6378 62.4248 59.7327 62.3513 59.7934 62.2504C59.8541 62.1496 59.8763 62.0287 59.8555 61.9117L54.8864 41.1376C54.8464 41.0261 54.7677 40.9342 54.6657 40.8801C54.5638 40.826 54.446 40.8136 54.3357 40.8453C54.2253 40.877 54.1304 40.9506 54.0697 41.0514C54.009 41.1522 53.9868 41.2731 54.0076 41.3901Z" fill="white"/>
  <path d="M61.0935 37.2221L65.9938 57.5375C66.0338 57.649 66.1125 57.7409 66.2145 57.795C66.3164 57.8491 66.4342 57.8615 66.5445 57.8298C66.6549 57.7981 66.7498 57.7245 66.8105 57.6237C66.8712 57.5229 66.8934 57.402 66.8726 57.285L61.9724 36.9696C61.9324 36.8581 61.8536 36.7663 61.7517 36.7122C61.6497 36.6581 61.5319 36.6457 61.4216 36.6774C61.3113 36.7091 61.2164 36.7826 61.1557 36.8834C61.0949 36.9843 61.0728 37.1051 61.0935 37.2221Z" fill="white"/>
  <path d="M65.3016 73.3545C71.7813 69.2047 78.2407 65.017 84.8621 61.1114C84.9546 61.0421 85.0188 60.9394 85.0423 60.8235C85.0658 60.7076 85.0468 60.5868 84.989 60.4846C84.9313 60.3825 84.8389 60.3065 84.7301 60.2714C84.6212 60.2363 84.5037 60.2446 84.4004 60.2949C77.779 64.2006 71.3236 68.3882 64.8399 72.538C64.3418 72.8579 64.7994 73.6786 65.3016 73.3545Z" fill="white"/>
  <path d="M47.5692 45.8512L58.0703 39.6728L65.1575 35.5062L67.5509 34.1004C67.7493 33.9826 68.8306 33.4902 68.3406 33.5028C67.8506 33.5154 68.5067 33.7048 68.6889 33.8353C69.2518 34.2267 69.9038 34.5339 70.487 34.8791L76.1365 38.1534L91.4528 47.0338L101.059 52.6019C101.573 52.9007 102.031 52.08 101.521 51.7854L77.6997 37.9514L71.5643 34.3951C70.7543 33.9279 69.5394 32.8631 68.6201 32.6905C67.8506 32.5432 67.0244 33.305 66.3603 33.6964L59.8806 37.5137L47.1197 45.0178C47.0272 45.0871 46.963 45.1897 46.9395 45.3057C46.916 45.4216 46.935 45.5424 46.9928 45.6446C47.0505 45.7467 47.1429 45.8227 47.2517 45.8578C47.3606 45.8929 47.4781 45.8846 47.5814 45.8343L47.5692 45.8512Z" fill="white"/>
  <path d="M86.8947 60.5758L84.4203 77.3264C84.3312 77.9241 85.2302 78.1682 85.2991 77.5789L87.7654 60.8325C87.8545 60.2348 86.9554 59.9907 86.8866 60.58L86.8947 60.5758Z" fill="white"/>
  <path d="M93.9459 56.3405L91.1637 73.3016C91.0665 73.8992 91.9454 74.1433 92.0425 73.5541L94.8248 56.6098C94.9219 56.0122 94.0431 55.7681 93.9459 56.3573V56.3405Z" fill="white"/>
  <path d="M91.7734 46.9387V64.9267C91.7841 65.0446 91.8368 65.1541 91.921 65.2338C92.0053 65.3135 92.1151 65.3576 92.229 65.3576C92.343 65.3576 92.4528 65.3135 92.5371 65.2338C92.6213 65.1541 92.6739 65.0446 92.6846 64.9267V46.9387C92.6739 46.8208 92.6213 46.7113 92.5371 46.6317C92.4528 46.552 92.343 46.5078 92.229 46.5078C92.1151 46.5078 92.0053 46.552 91.921 46.6317C91.8368 46.7113 91.7841 46.8208 91.7734 46.9387Z" fill="white"/>
  <path d="M84.3672 42.6442L84.8329 61.0994C84.8436 61.2173 84.8962 61.3268 84.9805 61.4065C85.0648 61.4862 85.1746 61.5303 85.2885 61.5303C85.4024 61.5303 85.5123 61.4862 85.5965 61.4065C85.6808 61.3268 85.7334 61.2173 85.7441 61.0994L85.2905 42.6653C85.2798 42.5474 85.2272 42.4379 85.1429 42.3582C85.0587 42.2785 84.9489 42.2344 84.8349 42.2344C84.721 42.2344 84.6112 42.2785 84.5269 42.3582C84.4427 42.4379 84.39 42.5474 84.3793 42.6653L84.3672 42.6442Z" fill="white"/>
  <path d="M77.2068 38.4865L79.3775 57.8971C79.4464 58.4948 80.3576 58.5032 80.2887 57.8971L78.118 38.4865C78.0492 37.8889 77.138 37.8805 77.2068 38.4865Z" fill="white"/>
  <path d="M63.8594 55.4543C63.9323 61.2427 63.9323 67.0311 63.8594 72.8195C63.8701 72.9374 63.9227 73.0468 64.007 73.1265C64.0912 73.2062 64.2011 73.2504 64.315 73.2504C64.4289 73.2504 64.5387 73.2062 64.623 73.1265C64.7072 73.0468 64.7599 72.9374 64.7706 72.8195C64.8489 67.0311 64.8489 61.2427 64.7706 55.4543C64.7599 55.3365 64.7072 55.227 64.623 55.1473C64.5387 55.0676 64.4289 55.0234 64.315 55.0234C64.2011 55.0234 64.0912 55.0676 64.007 55.1473C63.9227 55.227 63.8701 55.3365 63.8594 55.4543Z" fill="white"/>
  <path d="M70.7306 59.802V77.4491C70.7293 77.5331 70.7494 77.6159 70.7888 77.6891C70.8282 77.7624 70.8856 77.8235 70.9551 77.8662C71.0246 77.909 71.1038 77.9319 71.1846 77.9325C71.2654 77.9332 71.3449 77.9116 71.415 77.87L91.826 64.8524C92.3241 64.5326 91.8665 63.7161 91.3643 64.036L70.9534 77.0535L71.6378 77.4744V59.802C71.6271 59.6841 71.5744 59.5746 71.4902 59.4949C71.4059 59.4153 71.2961 59.3711 71.1822 59.3711C71.0682 59.3711 70.9584 59.4153 70.8742 59.4949C70.7899 59.5746 70.7373 59.6841 70.7266 59.802H70.7306Z" fill="white"/>
  <path d="M79.9658 64.8065L77.6615 81.3888C77.5805 81.9865 78.4714 82.2306 78.5403 81.6414L80.8446 65.059C80.9256 64.4614 80.0346 64.2173 79.9658 64.8065Z" fill="white"/>
  <path d="M47.1081 45.8496L70.9655 59.9109L77.2103 63.5936C78.0202 64.0734 79.1947 65.134 80.1221 65.3107C80.851 65.4496 81.5435 64.7762 82.1753 64.3932L88.655 60.4412L101.517 52.6004L100.849 52.0659L98.6499 67.575C98.5972 67.9412 98.577 68.3326 98.4919 68.6945C98.3866 69.1449 98.7754 68.4883 98.577 68.6945C98.0504 69.0872 97.4874 69.4242 96.8963 69.7004L89.3191 74.2458L81.1791 79.1111C80.3002 79.6372 79.3728 80.1254 78.5224 80.702C78.3442 80.824 78.1458 80.9377 77.9554 81.0429C77.6841 81.1944 78.5102 81.1902 78.2227 81.0429C73.938 78.8586 69.8437 76.1187 65.6886 73.6776L52.0205 65.6306C51.9173 65.5804 51.7997 65.572 51.6909 65.6071C51.582 65.6422 51.4897 65.7182 51.4319 65.8204C51.3742 65.9225 51.3552 66.0433 51.3786 66.1592C51.4021 66.2752 51.4664 66.3778 51.5588 66.4471L63.4855 73.4588L72.2209 78.5934C73.938 79.6035 75.7361 81.0134 77.5828 81.7457C78.5062 82.1119 79.0489 81.4932 79.9115 80.9755L87.6911 76.3081L96.0863 71.2576C96.9571 70.7358 98.8726 70.0624 99.3586 69.0901C99.7352 68.3368 99.6623 66.9353 99.7636 66.1104L100.574 60.517L101.736 52.3058C101.757 52.2157 101.752 52.1212 101.722 52.0338C101.693 51.9464 101.639 51.8698 101.569 51.8133C101.498 51.7567 101.413 51.7227 101.324 51.7152C101.235 51.7078 101.146 51.7273 101.068 51.7713L90.6151 58.1517L83.4348 62.5288L81.1791 63.9008C80.9161 64.0276 80.6653 64.1798 80.4298 64.3553C80.1302 64.6373 80.0249 64.309 80.6202 64.5153C79.8102 64.2333 79.0003 63.5641 78.2713 63.1306L72.3626 59.65L57.4068 50.837L47.5657 45.0332C47.4625 44.9829 47.345 44.9745 47.2361 45.0096C47.1272 45.0447 47.0349 45.1208 46.9771 45.2229C46.9194 45.325 46.9004 45.4459 46.9239 45.5618C46.9473 45.6777 47.0116 45.7804 47.1041 45.8496H47.1081Z" fill="white"/>
  <path d="M43.0623 35.1802C43.0623 35.1802 43.5158 34.8982 43.771 35.1802C44.0261 35.4622 43.771 35.8662 43.771 35.8662L43.366 36.1061C43.4737 36.2289 43.6173 36.3115 43.7747 36.3412C43.932 36.3709 44.0943 36.3459 44.2367 36.2703C44.8482 36.0556 60.3428 26.4513 60.3428 26.4513C60.3428 26.4513 60.772 25.8832 60.5331 25.4076C60.422 25.1048 60.2102 24.8533 59.936 24.6989C59.6618 24.5445 59.3435 24.4973 59.0387 24.5658C58.2288 24.7468 43.0461 34.2459 43.0461 34.2459C43.0461 34.2459 42.633 34.9066 43.0623 35.1802Z" fill="#F14A24"/>
  <path d="M78.4972 101.344L79.6028 100.717C79.7399 100.64 79.8591 100.532 79.9521 100.402C80.0451 100.272 80.1098 100.122 80.1415 99.9635C80.3399 98.9576 80.4614 96.7607 78.0882 95.7969L76.9219 96.5376" fill="#F14A24"/>
  <path d="M78.8202 101.801C79.6063 101.332 79.6126 99.8103 78.8343 98.4028C78.0559 96.9953 76.7877 96.235 76.0015 96.7045C75.2154 97.1741 75.2091 98.6957 75.9875 100.103C76.7658 101.511 78.0341 102.271 78.8202 101.801Z" fill="#F14A24"/>
  <path d="M75.625 97.0744V95.7065L77.2247 94.8438L79.2739 95.6855L79.61 96.9313L78.7069 96.1358L77.6175 96.8176V98.0887L75.625 97.0744Z" fill="white"/>
  <path d="M75.625 97.0703C75.625 97.0703 75.868 99.5029 76.7306 99.6839C77.5932 99.8649 77.7633 97.9668 77.6175 97.5796" fill="white"/>
  <path d="M56.647 26.613C56.072 26.1922 53.958 25.7208 53.958 25.7208C53.958 25.7208 48.183 19.433 47.4419 18.4818C45.9287 16.1495 44.5754 13.7095 43.3921 11.1797C41.9179 11.8152 41.7721 12.5433 40.2656 13.1325C41.1768 16.0239 43.55 19.9254 44.036 20.6451C44.6394 21.5373 52.2895 27.6694 52.2895 27.6694L53.1318 28.8058C53.1318 28.8058 54.3468 28.3302 54.1807 30.565L53.6907 31.6803C53.6907 31.6803 54.2698 32.4379 55.6427 31.6803C57.0156 30.9227 57.5097 30.9227 57.5056 29.9421C57.5016 28.9615 57.2221 27.0465 56.647 26.613Z" fill="#FFB288"/>
  <path d="M33.3924 17.1361L33.9472 27.5611C34.5304 28.3849 35.2731 29.0727 36.1275 29.5801C36.982 30.0875 37.9292 30.4033 38.9082 30.5072C42.3222 30.8607 44.6428 28.2765 44.5294 28.4028C44.4414 26.878 44.4333 25.3494 44.5051 23.8237C44.6509 20.9365 45.315 17.9315 44.7238 15.0444C44.416 13.4955 44.0312 11.6395 42.8527 10.5368C42.4275 10.137 41.7957 9.59828 41.1964 9.53936C40.1677 9.43414 39.0257 10.0444 38.0942 10.4106C36.0693 11.2102 34.1052 12.2203 32.5703 13.8449L33.3924 17.1361Z" fill="#0B3D60"/>
  <path d="M33.8988 12.6609C33.8988 12.6609 32.0156 13.389 32.0156 16.0615C32.0156 18.734 35.5389 24.5463 36.1424 25.4385C36.7458 26.3308 44.3959 32.4755 44.3959 32.4755L45.2382 33.6076C45.2382 33.6076 46.4531 33.132 46.2871 35.3669L45.7971 36.4822C45.7971 36.4822 46.3762 37.2397 47.7491 36.4822C49.122 35.7246 49.616 35.7246 49.612 34.744C49.6079 33.7633 49.3285 31.8526 48.7534 31.4233C48.1784 30.994 46.0644 30.5311 46.0644 30.5311C46.0644 30.5311 40.2732 24.2475 39.5482 23.2837C38.8233 22.3199 36.5554 12.5641 33.8988 12.6609Z" fill="#FFB288"/>
  <path d="M36.8516 7.59766L37.2849 11.718C37.2849 11.718 38.0948 12.9175 40.3465 12.3703C40.5293 12.3236 40.6923 12.2161 40.8107 12.0641C40.9292 11.9121 40.9966 11.7241 41.0026 11.5286L41.1848 8.47728" fill="#E8956B"/>
  <path d="M41.6623 6.35884C42.6136 5.47705 43.2227 4.26495 43.3754 2.94978C43.5981 0.786508 41.3869 -0.0636519 40.2489 0.00368743C40.2489 0.00368743 40.9415 0.424558 41.0589 0.723377C41.0589 0.723377 40.1113 -0.434019 37.8717 0.18887C35.6322 0.811759 37.7057 1.06007 37.7057 1.06007C37.7057 1.06007 35.3932 0.870682 34.154 1.34206C32.9148 1.81343 32.3194 2.47841 32.5341 2.68885C32.7487 2.89928 33.2469 2.6678 33.4615 2.80248C33.6761 2.93716 32.3559 3.8757 32.3154 4.48596C32.2749 5.09623 33.3764 5.43292 33.3116 5.58444C33.2469 5.73595 32.0967 5.26458 32.04 5.50026C31.9833 5.73595 34.4699 10.4034 38.0054 9.94887" fill="#222222"/>
  <path d="M41.8048 4.07304C41.7675 4.0642 41.7287 4.0642 41.6914 4.07304C41.0416 4.27807 40.3721 4.40793 39.6949 4.46024C39.0226 4.46024 38.3503 4.37186 37.67 4.38027C37.2285 4.38027 36.9126 5.47875 36.8843 6.82133C36.6049 6.63193 36.2606 6.54355 36.0176 6.87604C35.9122 7.06174 35.875 7.28086 35.9129 7.49286C35.9509 7.70486 36.0615 7.8954 36.2242 8.02922C36.4392 8.23707 36.7033 8.38225 36.9896 8.4501C37.0662 9.14172 37.3516 9.79036 37.8048 10.303C38.2581 10.8156 38.8559 11.1659 39.5126 11.3036C40.7275 11.5182 41.4646 10.8028 41.821 9.73796C42.3272 8.22704 42.3151 6.92654 42.2624 5.37353L42.2381 4.64963C42.2222 4.54022 42.1831 4.43586 42.1236 4.34413C42.064 4.2524 41.9856 4.17561 41.8939 4.11933C41.8675 4.09787 41.8372 4.08213 41.8048 4.07304Z" fill="#FFB288"/>
  <path d="M41.5393 3.54297C41.5393 3.54297 38.9757 7.20455 37.0845 6.85523C35.1932 6.5059 37.372 3.66502 37.372 3.66502" fill="#222222"/>
  <path d="M37.7018 16.4877C37.7018 16.4877 34.9277 9.98101 32.5545 13.8404C30.1813 17.6998 33.9193 22.1863 33.9193 22.1863L38.4591 18.2595L37.7018 16.4877Z" fill="#0B3D60"/>
  <path d="M115.381 36.2048C118.435 36.4237 118.273 41.5541 118.479 43.6837C118.532 44.2182 117.738 44.3992 117.669 43.8605C117.499 42.0886 117.613 39.6854 116.665 38.124C116.373 37.64 116.025 37.1686 115.422 37.1265C115.237 37.1211 115.053 37.1558 114.881 37.2282C114.71 37.3007 114.554 37.4094 114.425 37.5474C114.158 37.7999 114.02 38.81 113.972 39.0878C113.814 40.1874 113.796 41.304 113.919 42.4085C113.972 42.943 113.182 43.1239 113.109 42.5852C112.972 40.8975 112.664 36.0112 115.381 36.2048Z" fill="#F15A24"/>
  <path d="M110.816 39.6445L109.901 41.2354L108.062 41.631L109.439 46.5594L113.343 43.9374" fill="white"/>
  <path opacity="0.28" d="M110.816 39.6445L109.901 41.2354L108.062 41.631L109.439 46.5594L113.343 43.9374" fill="#606060"/>
  <path d="M120.228 45.0485L110.82 39.6445L111.128 47.6748L118.316 48.3902L120.228 45.0485Z" fill="white"/>
  <path opacity="0.81" d="M120.228 45.0485L110.82 39.6445L111.128 47.6748L118.316 48.3902L120.228 45.0485Z" fill="#606060"/>
  <path d="M116.863 46.2456L115.409 61.4264L106.617 55.9424L108.067 41.6328L116.863 46.2456Z" fill="white"/>
  <path d="M116.86 46.2461L117.856 45.0508H120.226V58.4092L118.666 59.5498L115.406 61.4269L116.86 46.2461Z" fill="white"/>
  <path opacity="0.28" d="M116.86 46.2461L117.856 45.0508H120.226V58.4092L118.666 59.5498L115.406 61.4269L116.86 46.2461Z" fill="#606060"/>
  <path d="M111.45 38.7423C114.508 38.7717 114.646 43.9022 114.974 46.0149C115.055 46.5452 114.273 46.7725 114.192 46.238C113.917 44.4788 113.892 42.0756 112.86 40.5731C112.455 39.9586 111.689 39.4409 110.956 39.845C110.3 40.2069 110.292 41.0108 110.227 41.6884C110.133 42.7954 110.179 43.9105 110.365 45.0048C110.45 45.5351 109.669 45.7624 109.583 45.2279C109.316 43.5655 108.717 38.717 111.45 38.7423Z" fill="#F15A24"/>
</svg>