<svg xmlns="http://www.w3.org/2000/svg" width="120" height="120" viewBox="0 0 120 120" fill="none">
  <path d="M98.531 83.4854L109.228 72.7886C109.736 72.2789 110.022 71.5885 110.022 70.8686C110.022 70.1488 109.736 69.4584 109.228 68.9486L71.4998 31.223C71.1396 31.3837 70.739 31.4312 70.3511 31.3594C69.9632 31.2875 69.6063 31.0996 69.3275 30.8206C69.0487 30.5415 68.8611 30.1844 68.7896 29.7964C68.7181 29.4085 68.766 29.008 68.927 28.6478L51.0494 10.7702C50.5397 10.262 49.8493 9.97656 49.1294 9.97656C48.4096 9.97656 47.7192 10.262 47.2094 10.7702L36.2102 21.7694C37.4377 23.7566 37.9584 26.0999 37.688 28.4199C37.4176 30.7399 36.3719 32.9007 34.7203 34.5523C33.0687 36.2039 30.9079 37.2496 28.5879 37.52C26.2679 37.7904 23.9246 37.2697 21.9374 36.0422L10.7702 47.2094C10.262 47.7192 9.97656 48.4096 9.97656 49.1294C9.97656 49.8493 10.262 50.5397 10.7702 51.0494L28.559 68.8334L30.6758 66.7142C30.8571 66.533 31.0722 66.3893 31.309 66.2912C31.5458 66.1931 31.7995 66.1426 32.0558 66.1426C32.3121 66.1426 32.5659 66.1931 32.8027 66.2912C33.0395 66.3893 33.2546 66.533 33.4358 66.7142C33.6171 66.8955 33.7608 67.1106 33.8589 67.3474C33.957 67.5842 34.0075 67.838 34.0075 68.0942C34.0075 68.3505 33.957 68.6043 33.8589 68.8411C33.7608 69.0779 33.6171 69.293 33.4358 69.4742L31.319 71.5934L68.951 109.228C69.4608 109.736 70.1512 110.022 70.871 110.022C71.5909 110.022 72.2813 109.736 72.791 109.228L84.2774 97.7414C83.0669 95.7556 82.5588 93.4204 82.8349 91.1111C83.1109 88.8018 84.1551 86.6522 85.7997 85.0077C87.4442 83.3631 89.5938 82.3189 91.9031 82.0429C94.2124 81.7668 96.5476 82.2749 98.5334 83.4854H98.531ZM38.9558 63.9518C38.7746 64.1331 38.5595 64.2768 38.3227 64.3749C38.0859 64.473 37.8321 64.5234 37.5758 64.5234C37.3195 64.5234 37.0658 64.473 36.829 64.3749C36.5922 64.2768 36.3771 64.1331 36.1958 63.9518C36.0146 63.7706 35.8709 63.5555 35.7728 63.3187C35.6747 63.0819 35.6242 62.8281 35.6242 62.5718C35.6242 62.3155 35.6747 62.0618 35.7728 61.825C35.8709 61.5882 36.0146 61.3731 36.1958 61.1918L38.9582 58.4318C39.3242 58.0658 39.8206 57.8602 40.3382 57.8602C40.8558 57.8602 41.3522 58.0658 41.7182 58.4318C42.0842 58.7978 42.2899 59.2942 42.2899 59.8118C42.2899 60.3294 42.0842 60.8258 41.7182 61.1918L38.9558 63.9518ZM47.2382 55.679C46.8722 56.045 46.3758 56.2507 45.8582 56.2507C45.3406 56.2507 44.8442 56.045 44.4782 55.679C44.1122 55.313 43.9066 54.8166 43.9066 54.299C43.9066 53.7814 44.1122 53.285 44.4782 52.919L47.2406 50.159C47.4219 49.9778 47.637 49.8341 47.8738 49.736C48.1106 49.6379 48.3643 49.5874 48.6206 49.5874C48.8769 49.5874 49.1307 49.6379 49.3675 49.736C49.6043 49.8341 49.8194 49.9778 50.0006 50.159C50.1819 50.3403 50.3256 50.5554 50.4237 50.7922C50.5218 51.029 50.5723 51.2827 50.5723 51.539C50.5723 51.7953 50.5218 52.0491 50.4237 52.2859C50.3256 52.5227 50.1819 52.7378 50.0006 52.919L47.2382 55.679ZM55.523 47.3966C55.157 47.7626 54.6606 47.9683 54.143 47.9683C53.6254 47.9683 53.129 47.7626 52.763 47.3966C52.397 47.0306 52.1914 46.5342 52.1914 46.0166C52.1914 45.499 52.397 45.0026 52.763 44.6366L55.523 41.8766C55.8913 41.5233 56.3833 41.3283 56.8937 41.3334C57.404 41.3386 57.892 41.5435 58.2531 41.9042C58.6141 42.265 58.8194 42.7528 58.825 43.2631C58.8306 43.7735 58.6361 44.2657 58.283 44.6342L55.523 47.3966ZM63.8054 39.1142C63.4394 39.4802 62.943 39.6859 62.4254 39.6859C61.9078 39.6859 61.4114 39.4802 61.0454 39.1142C60.6794 38.7482 60.4738 38.2518 60.4738 37.7342C60.4738 37.2166 60.6794 36.7202 61.0454 36.3542L63.8054 33.5918C64.1714 33.2258 64.6678 33.0202 65.1854 33.0202C65.703 33.0202 66.1994 33.2258 66.5654 33.5918C66.9314 33.9578 67.1371 34.4542 67.1371 34.9718C67.1371 35.4894 66.9314 35.9858 66.5654 36.3518L63.8054 39.1142Z" fill="#0B3D60"/>
  <path d="M51.2468 70.9914C51.0771 70.8219 50.9613 70.6058 50.9142 70.3706C50.8672 70.1353 50.8908 69.8914 50.9822 69.6696C51.0736 69.4477 51.2287 69.258 51.4278 69.1242C51.627 68.9904 51.8613 68.9186 52.1012 68.9178L89.6348 68.8242C89.9569 68.8242 90.2658 68.9522 90.4935 69.1799C90.7213 69.4077 90.8492 69.7165 90.8492 70.0386C90.8492 70.3607 90.7213 70.6696 90.4935 70.8973C90.2658 71.1251 89.9569 71.253 89.6348 71.253L52.1012 71.3466C51.9424 71.3469 51.7851 71.3157 51.6384 71.2547C51.4917 71.1937 51.3586 71.1042 51.2468 70.9914Z" fill="white"/>
  <path d="M65.2809 61.7271C64.4439 60.8871 63.8747 59.8179 63.6449 58.6547C63.4152 57.4914 63.5353 56.2861 63.9901 55.191C64.4448 54.0959 65.2139 53.1602 66.2001 52.5018C67.1863 51.8435 68.3455 51.4922 69.5313 51.4922C70.717 51.4922 71.8762 51.8435 72.8624 52.5018C73.8486 53.1602 74.6177 54.0959 75.0724 55.191C75.5272 56.2861 75.6473 57.4914 75.4176 58.6547C75.1878 59.8179 74.6186 60.8871 73.7817 61.7271C72.6533 62.8523 71.1248 63.4842 69.5313 63.4842C67.9377 63.4842 66.4092 62.8523 65.2809 61.7271ZM72.0633 54.9447C71.5625 54.4439 70.9244 54.1028 70.2298 53.9647C69.5352 53.8265 68.8152 53.8974 68.1609 54.1684C67.5066 54.4394 66.9474 54.8984 66.5539 55.4873C66.1604 56.0761 65.9504 56.7684 65.9504 57.4767C65.9504 58.1849 66.1604 58.8772 66.5539 59.466C66.9474 60.0549 67.5066 60.5139 68.1609 60.7849C68.8152 61.0559 69.5352 61.1268 70.2298 60.9886C70.9244 60.8505 71.5625 60.5094 72.0633 60.0087C72.7345 59.3371 73.1118 58.4266 73.1122 57.4772C73.1127 56.5277 72.7363 55.6168 72.0657 54.9447H72.0633Z" fill="white"/>
  <path d="M67.9684 86.9458C67.1314 86.1058 66.5622 85.0367 66.3324 83.8734C66.1027 82.7101 66.2228 81.5048 66.6776 80.4098C67.1323 79.3147 67.9014 78.3789 68.8876 77.7206C69.8738 77.0623 71.033 76.7109 72.2188 76.7109C73.4045 76.7109 74.5637 77.0623 75.5499 77.7206C76.5361 78.3789 77.3052 79.3147 77.7599 80.4098C78.2147 81.5048 78.3348 82.7101 78.1051 83.8734C77.8753 85.0367 77.3061 86.1058 76.4691 86.9458C75.3411 88.0717 73.8125 88.704 72.2188 88.704C70.625 88.704 69.0964 88.0717 67.9684 86.9458ZM74.7508 80.161C74.25 79.6602 73.6119 79.3192 72.9173 79.181C72.2227 79.0428 71.5027 79.1138 70.8484 79.3848C70.1941 79.6558 69.6349 80.1148 69.2414 80.7036C68.8479 81.2925 68.6379 81.9848 68.6379 82.693C68.6379 83.4012 68.8479 84.0935 69.2414 84.6824C69.6349 85.2712 70.1941 85.7302 70.8484 86.0012C71.5027 86.2723 72.2227 86.3432 72.9173 86.205C73.6119 86.0668 74.25 85.7258 74.7508 85.225C75.4217 84.5532 75.7985 83.6425 75.7985 82.693C75.7985 81.7435 75.4217 80.8328 74.7508 80.161Z" fill="white"/>
</svg>