<svg xmlns="http://www.w3.org/2000/svg" width="150" height="125" viewBox="0 0 150 125" fill="none">
  <path d="M72.7755 123.711L2.91653 79.0823C0.693189 77.734 -1.21426 75.5147 0.952376 74.0657L71.0584 30.3873C72.1113 29.6825 73.707 29.2229 74.7761 29.8927L148.118 75.8955C150.341 77.2919 150.742 81.1922 148.523 82.5886L81.9928 123.641C80.5949 124.518 79.0093 124.986 77.3928 124.998C75.7762 125.011 74.1847 124.567 72.7755 123.711Z" fill="#0B3D60"/>
  <path d="M103.825 92.9841L123.208 80.8147L98.6133 65.2266L78.5547 76.4241C80.6606 78.0744 101.513 91.6402 103.825 92.9841Z" fill="url(#paint0_linear_3137_29808)"/>
  <path d="M105.769 0.331661C111.111 3.94745 124.548 12.3478 129.129 15.3858C130.165 16.073 130.343 17.0974 130.343 18.415V79.8791C130.061 80.2334 129.671 80.4669 129.243 80.5376C128.815 80.6082 128.378 80.5113 128.011 80.2643L105.466 66.4928C104.344 65.7792 103.461 65.0438 103.461 63.6386L103.655 1.44792C103.643 0.0952776 104.712 -0.386244 105.769 0.331661Z" fill="#FFD0D0"/>
  <path d="M97.1336 1.20768L104.464 5.78214V7.49373C104.464 7.63758 104.5 7.77876 104.567 7.90319C104.633 8.02762 104.729 8.13095 104.844 8.20288L110.514 11.7443C110.59 11.7918 110.677 11.8169 110.765 11.817C110.853 11.817 110.939 11.7921 111.016 11.7447C111.092 11.6972 111.155 11.629 111.2 11.5467C111.244 11.4644 111.267 11.371 111.267 11.2759V10.0283L121.918 16.7783C122.02 16.8431 122.104 16.9353 122.162 17.0459C122.22 17.1564 122.251 17.2815 122.25 17.4087V78.8684C122.252 78.9563 122.232 79.0432 122.193 79.12C122.153 79.1968 122.095 79.2608 122.025 79.3055C121.955 79.35 121.875 79.3736 121.794 79.3737C121.712 79.3739 121.632 79.3505 121.562 79.3061L96.8947 63.8493C96.8508 64.3267 96.9288 64.808 97.1202 65.241C97.3115 65.6739 97.6089 66.0419 97.9801 66.305C99.2598 67.1805 121.728 80.9302 121.728 80.9302C121.728 80.9302 123.506 81.8057 124.024 79.5075V17.6626C124.025 17.2624 123.938 16.8676 123.771 16.5107C123.603 16.1538 123.36 15.845 123.06 15.6096C122.032 14.8041 99.114 0.402225 99.114 0.402225C99.114 0.402225 97.4981 -0.407607 97.1336 1.20768Z" fill="#124577"/>
  <path d="M92.9531 13.8672V19.4922C93.0027 19.9376 93.1777 20.3558 93.4544 20.6901C93.7311 21.0244 94.0962 21.2588 94.5001 21.3614C95.9095 21.7072 96.1201 19.7024 96.1201 19.7024V15.5481L92.9531 13.8672Z" fill="#C13D3D"/>
  <path d="M96.0156 16.1016L96.1655 22.0243C96.215 22.4697 96.39 22.8878 96.6667 23.2221C96.9434 23.5565 97.3085 23.7908 97.7125 23.8935C99.1218 24.2393 99.3324 22.2344 99.3324 22.2344V18.0802L96.0156 16.1016Z" fill="#DD842A"/>
  <path d="M99.2969 18.1172V23.7422C99.3465 24.1876 99.5214 24.6058 99.7981 24.9401C100.075 25.2744 100.44 25.5088 100.844 25.6114C102.253 25.9572 102.464 23.9524 102.464 23.9524V19.7981L99.2969 18.1172Z" fill="#C13D3D"/>
  <path d="M102.445 20.168V25.793C102.495 26.2384 102.67 26.6565 102.947 26.9909C103.223 27.3252 103.588 27.5595 103.992 27.6622C105.402 28.008 105.612 26.0031 105.612 26.0031V21.8489L102.445 20.168Z" fill="#DD842A"/>
  <path d="M105.594 21.8906V27.5113C105.643 27.9567 105.818 28.3748 106.095 28.7091C106.372 29.0435 106.737 29.2778 107.141 29.3805C108.55 29.7263 108.761 27.7214 108.761 27.7214V23.5672L105.594 21.8906Z" fill="#C13D3D"/>
  <path d="M108.688 24.1836V29.8086C108.737 30.254 108.912 30.6722 109.189 31.0065C109.465 31.3408 109.831 31.5752 110.235 31.6778C111.644 32.0236 111.854 30.0188 111.854 30.0188V25.8645L108.688 24.1836Z" fill="#DD842A"/>
  <path d="M108.688 24.4688L116.167 13.0742L119.051 14.9784L111.838 26.478" fill="#F29D40"/>
  <path d="M105.594 22.4722L112.932 11.082L116.168 13.0738L108.688 24.4683" fill="#E04F4F"/>
  <path d="M102.445 20.4692L110.071 9.17969L112.934 11.0839L105.596 22.5003" fill="#F29D40"/>
  <path d="M99.2969 18.3965L106.7 7.12891L110.069 9.17756L102.444 20.4408" fill="#E04F4F"/>
  <path d="M96.1016 16.2754L103.185 5.00781L106.7 7.13089L99.2969 18.3985" fill="#F29D40"/>
  <path d="M92.9531 14.216L99.9917 2.99219L103.187 5.0102L96.1039 16.2778" fill="#E04F4F"/>
  <path d="M89.8047 12.229L97.1308 1.21094L99.9899 2.99257L92.9514 14.2164" fill="#F29D40"/>
  <path d="M121.919 16.7773C121.919 16.7773 122.251 16.8518 122.251 17.469V28.312L114.078 33.3636L115.204 25.633L121.919 16.7773Z" fill="#AA2B2B"/>
  <path d="M111.836 26.4805V31.5189C111.886 31.9643 112.06 32.3825 112.337 32.7168C112.614 33.0511 112.979 33.2855 113.383 33.3881C114.792 33.7339 115.003 31.7291 115.003 31.7291L114.942 28.4109L111.836 26.4805Z" fill="#C13D3D"/>
  <path d="M114.922 28.411L121.912 16.7757L119.049 14.9766L111.836 26.4762" fill="#E04F4F"/>
  <path d="M89.8047 12.2266V18.1361C89.8543 18.5815 90.0293 18.9997 90.306 19.334C90.5827 19.6683 90.9477 19.9027 91.3517 20.0053C92.761 20.3511 92.9716 18.3463 92.9716 18.3463V14.192L89.8047 12.2266Z" fill="#DD842A"/>
  <path d="M110.669 70.8578C111.228 70.8578 111.681 68.4648 111.681 65.5129C111.681 62.561 111.228 60.168 110.669 60.168C110.11 60.168 109.656 62.561 109.656 65.5129C109.656 68.4648 110.11 70.8578 110.669 70.8578Z" fill="#F15A24"/>
  <path d="M95.0391 65.0787C95.0391 65.0787 95.2537 79.7826 95.768 80.0233C96.2823 80.2641 97.6026 80.2422 98.0845 79.5374C98.5664 78.8327 99.1901 72.4722 99.0808 70.7037C98.9714 68.9352 98.3315 64.9648 98.3315 64.9648" fill="#FFB288"/>
  <path d="M94.8541 80.4923C95.1642 79.9698 95.3723 79.3844 95.4656 78.772C96.5388 79.0609 97.3772 79.236 98.3005 78.6406C98.4787 79.4767 99.1105 80.5229 99.0538 81.1664C98.9809 82.182 98.1831 81.8537 97.3852 82.1163C96.8223 82.3002 96.4254 82.9262 96.0812 83.504C95.5443 84.1279 94.8367 84.5495 94.062 84.7071C93.2873 84.8646 92.4862 84.7498 91.7763 84.3795C91.6778 84.1351 91.6176 83.8748 91.5981 83.6091C91.4685 82.4403 94.2791 81.3853 94.8541 80.4923Z" fill="#29333F"/>
  <path d="M102.098 53.463C102.104 52.3648 102.175 51.2681 102.313 50.1799L100.288 49.7422C95.882 51.874 95.0234 65.0633 95.0234 65.0633C95.0234 65.0633 98.1053 66.8143 98.972 66.5736C99.6767 66.3766 101.467 60.5239 102.107 58.3439C102.078 56.7286 102.054 55.0958 102.098 53.463Z" fill="#CCCCCC"/>
  <path d="M95.0381 65.082L94.8438 77.5666C94.8438 77.5666 98.0147 78.1532 98.6668 77.8117C99.3188 77.4703 99.663 65.5548 99.663 65.5548L95.0381 65.082Z" fill="#CCCCCC"/>
  <path d="M101.143 61.5257L100.418 54.2109L99.6562 65.5749L101.143 61.5257Z" fill="#CCCCCC"/>
  <path opacity="0.32" d="M13.1011 82.3319L29.9806 71.9836L22.6302 68.3984L6.17188 78.309C8.28992 79.955 10.7846 80.9837 13.1011 82.3319Z" fill="url(#paint1_linear_3137_29808)"/>
  <path d="M22.1339 62.7151C22.1339 62.7151 20.6558 73.6237 26.9937 73.6588C33.117 73.6938 31.5416 62.5969 31.5416 62.5969C31.5416 62.5969 27.103 58.4076 22.1339 62.7151Z" fill="#68E1FD"/>
  <path opacity="0.15" d="M22.1339 62.7151C22.1339 62.7151 20.6558 73.6237 26.9937 73.6588C33.117 73.6938 31.5416 62.5969 31.5416 62.5969C31.5416 62.5969 27.103 58.4076 22.1339 62.7151Z" fill="black"/>
  <path d="M26.8228 64.8108C29.4173 64.8108 31.5205 63.872 31.5205 62.714C31.5205 61.556 29.4173 60.6172 26.8228 60.6172C24.2283 60.6172 22.125 61.556 22.125 62.714C22.125 63.872 24.2283 64.8108 26.8228 64.8108Z" fill="#68E1FD"/>
  <path opacity="0.7" d="M26.8228 64.8108C29.4173 64.8108 31.5205 63.872 31.5205 62.714C31.5205 61.556 29.4173 60.6172 26.8228 60.6172C24.2283 60.6172 22.125 61.556 22.125 62.714C22.125 63.872 24.2283 64.8108 26.8228 64.8108Z" fill="black"/>
  <path d="M19.4256 46.7875C19.4256 46.7875 16.1534 45.9382 17.4007 42.9922C17.4088 42.9922 19.6605 43.4737 19.4256 46.7875Z" fill="#938F05"/>
  <path d="M21.4174 49.7514C21.4174 49.7514 20.9639 47.2343 22.7822 46.2188C22.7822 46.2231 24.2442 48.8584 21.4174 49.7514Z" fill="#938F05"/>
  <path d="M23.459 53.6149C23.459 53.6149 22.9164 50.6032 25.079 49.3906C25.0911 49.3906 26.8406 52.5293 23.459 53.6149Z" fill="#938F05"/>
  <path d="M25.0372 57.8141C25.0372 57.8141 24.4945 54.8024 26.6571 53.5898C26.6692 53.5898 28.4187 56.7416 25.0372 57.8141Z" fill="#938F05"/>
  <path d="M21.2211 49.824C21.2211 49.824 20.0669 47.5871 18.0703 48.073C18.0703 48.0774 18.5279 51.1066 21.2211 49.824Z" fill="#938F05"/>
  <path d="M23.2729 53.7041C23.2729 53.7041 21.7948 51.0776 19.4297 51.7736C19.4499 51.7736 20.1263 55.3763 23.2729 53.7041Z" fill="#938F05"/>
  <path d="M24.8649 57.8497C24.8649 57.8497 23.1316 55.4246 20.8516 56.392C20.8475 56.3876 21.8924 59.8896 24.8649 57.8497Z" fill="#938F05"/>
  <path d="M26.09 64.8365H26.1345C26.2879 64.8328 26.4412 64.846 26.5921 64.8759C26.5939 64.8584 26.5939 64.8408 26.5921 64.8234C25.8783 58.0915 23.4344 51.7104 19.5374 46.403C19.3349 46.1272 18.9745 46.5168 19.177 46.7925C22.9877 51.9889 25.3805 58.2321 26.0859 64.819L26.09 64.8365Z" fill="#42352F"/>
  <path d="M33.8352 51.5923C33.8352 51.5923 36.6417 50.8657 35.5644 48.3399C35.5644 48.3355 33.6327 48.7514 33.8352 51.5923Z" fill="#938F05"/>
  <path d="M32.1235 54.1386C32.1235 54.1386 32.5285 51.9805 30.9531 51.1094C30.9653 51.1138 29.6977 53.3725 32.1235 54.1386Z" fill="#938F05"/>
  <path d="M30.3742 57.4488C30.3742 57.4488 30.84 54.8661 28.973 53.8242C28.973 53.8417 27.4746 56.5251 30.3742 57.4488Z" fill="#938F05"/>
  <path d="M29.0195 61.0542C29.0195 61.0542 29.4852 58.4715 27.6183 57.4297C27.6183 57.4297 26.1077 60.135 29.0195 61.0542Z" fill="#938F05"/>
  <path d="M32.2891 54.1951C32.2891 54.1951 33.2813 52.2734 34.9903 52.698C35.0105 52.698 34.6055 55.2982 32.2891 54.1951Z" fill="#938F05"/>
  <path d="M30.5234 57.5272C30.5234 57.5272 31.791 55.2816 33.82 55.8725C33.8038 55.8725 33.2368 58.963 30.5234 57.5272Z" fill="#938F05"/>
  <path d="M29.1641 61.0871C29.1641 61.0871 30.6544 59.0078 32.6064 59.8352C32.6104 59.8352 31.7154 62.8381 29.1641 61.0871Z" fill="#938F05"/>
  <path d="M33.7423 51.2721C30.8478 55.2105 28.8801 59.8489 28.0078 64.7897C28.1577 64.7634 28.3075 64.7416 28.4614 64.724C29.3254 59.9263 31.242 55.4227 34.0501 51.5916C34.204 51.3728 33.9165 51.0357 33.7423 51.2721Z" fill="#42352F"/>
  <path d="M51.1364 79.1004C56.6522 75.7516 63.2169 72.0483 68.7287 68.6995L73.2199 65.9724C73.7221 65.6659 74.2891 65.2019 74.8398 64.9261C75.0195 64.979 75.1894 65.0648 75.342 65.18C75.909 65.6178 76.5813 65.9286 77.1847 66.2919L82.579 69.5487C85.2762 71.1772 89.2369 73.1339 91.934 74.7623C92.501 74.7623 91.8004 74.3858 92.3633 74.3246L92.3269 74.2939L84.2678 69.4262L78.347 65.8498C77.4722 65.3201 76.2613 64.2082 75.2691 63.9894C74.7022 63.8624 74.4835 64.0857 73.961 64.4008L70.3648 66.5896L58.7581 73.6417L50.6828 78.5313C50.5892 78.5834 50.518 78.6729 50.4844 78.7808C51.0513 78.794 50.5694 79.131 51.1364 79.1004Z" fill="#D8D8D8"/>
  <path d="M73.9543 92.2331C68.8232 88.4072 63.2629 85.343 58.0386 81.6747C57.5446 81.3288 57.0869 82.1824 57.577 82.5239C62.8012 86.1922 68.3616 89.2564 73.4927 93.0824C73.9746 93.4413 74.4322 92.5877 73.9543 92.2331Z" fill="#D8D8D8"/>
  <path d="M83.9002 85.943C78.4775 82.8569 73.3423 79.2367 68.0736 75.8748C67.9703 75.8226 67.8528 75.8138 67.7439 75.8503C67.635 75.8868 67.5427 75.9659 67.485 76.0722C67.4272 76.1784 67.4082 76.3041 67.4317 76.4247C67.4552 76.5452 67.5194 76.652 67.6119 76.724C72.8766 80.1034 78.0158 83.728 83.4385 86.7922C83.9569 87.0855 84.4185 86.2363 83.9002 85.943Z" fill="#D8D8D8"/>
  <path d="M69.8058 92.7211L68.9068 92.1914C68.7958 92.126 68.6992 92.0354 68.6237 91.9259C68.5482 91.8163 68.4956 91.6903 68.4694 91.5567C68.3074 90.7031 68.2102 88.847 70.1379 88.0547L71.0856 88.6807" fill="#3695C9"/>
  <path d="M72.1101 91.2984C72.7431 90.1133 72.7396 88.8303 72.1023 88.4326C71.465 88.0349 70.4353 88.6732 69.8023 89.8582C69.1694 91.0432 69.1729 92.3263 69.8101 92.724C70.4474 93.1217 71.4771 92.4834 72.1101 91.2984Z" fill="#1174B5"/>
  <path d="M72.1383 89.105V87.9493L70.8383 87.2227L69.1738 87.9318L68.8984 88.9868L69.6315 88.3126L70.5184 88.8905V89.963L72.1383 89.105Z" fill="#747E80"/>
  <path d="M72.1417 89.1016C72.1417 89.1016 71.9433 91.159 71.2427 91.2903C70.542 91.4216 70.4043 89.837 70.5218 89.5393" fill="#747E80"/>
  <path opacity="0.8" d="M53.9933 104.389L53.0943 103.859C52.9833 103.794 52.8867 103.703 52.8112 103.594C52.7357 103.484 52.6831 103.358 52.6569 103.225C52.4949 102.371 52.3977 100.515 54.3254 99.7227L55.2731 100.349" fill="#F14A24"/>
  <path d="M56.691 102.699C57.324 101.508 57.3181 100.221 56.6779 99.823C56.0377 99.4254 55.0056 100.068 54.3727 101.259C53.7397 102.449 53.7455 103.736 54.3857 104.134C55.0259 104.532 56.058 103.889 56.691 102.699Z" fill="#F14A24"/>
  <path d="M56.3336 100.773V99.6173L55.0336 98.8906L53.3691 99.5998L53.0938 100.655L53.8268 99.9806L54.7137 100.558V101.631L56.3336 100.773Z" fill="#747E80"/>
  <path d="M56.3292 100.773C56.3292 100.773 56.1308 102.831 55.4301 102.962C54.7295 103.093 54.5918 101.509 54.7093 101.211" fill="#747E80"/>
  <path opacity="0.8" d="M67.9777 113.584L67.0787 113.055C66.9677 112.989 66.8711 112.899 66.7956 112.789C66.7201 112.68 66.6674 112.554 66.6413 112.42C66.4793 111.566 66.3821 109.71 68.3098 108.918L69.2575 109.544" fill="#F14A24"/>
  <path d="M70.7066 111.828C71.3396 110.637 71.3337 109.35 70.6935 108.952C70.0534 108.554 69.0212 109.197 68.3883 110.387C67.7553 111.578 67.7612 112.865 68.4014 113.263C69.0416 113.661 70.0737 113.018 70.7066 111.828Z" fill="#F14A24"/>
  <path d="M70.3101 109.964V108.809L69.0102 108.082L67.3457 108.791L67.0703 109.842L67.8033 109.172L68.6902 109.745V110.822L70.3101 109.964Z" fill="#747E80"/>
  <path d="M70.3136 109.969C70.3136 109.969 70.1151 112.026 69.4145 112.157C68.7139 112.289 68.5762 110.704 68.6937 110.406" fill="#747E80"/>
  <path opacity="0.8" d="M86.5284 103.1L85.6334 102.57C85.5224 102.505 85.4258 102.414 85.3503 102.305C85.2748 102.195 85.2221 102.069 85.196 101.936C85.034 101.082 84.9368 99.2259 86.8645 98.4336L87.8121 99.0596" fill="#F14A24"/>
  <path d="M89.2144 101.269C89.8474 100.079 89.8415 98.7911 89.2014 98.3934C88.5612 97.9957 87.5291 98.6383 86.8961 99.8288C86.2631 101.019 86.269 102.307 86.9092 102.704C87.5494 103.102 88.5815 102.459 89.2144 101.269Z" fill="#F14A24"/>
  <path d="M88.8648 99.4839V98.3282L87.5648 97.6016L85.9004 98.3107L85.625 99.3613L86.358 98.6915L87.2449 99.265V100.342L88.8648 99.4839Z" fill="#747E80"/>
  <path d="M88.8761 99.4844C88.8761 99.4844 88.6776 101.542 87.977 101.673C87.2764 101.804 87.1387 100.22 87.2562 99.9221" fill="#747E80"/>
  <path d="M90.4113 83.0335C84.9278 79.676 79.5173 76.0734 73.9245 72.9347C72.6083 72.1949 71.28 73.6483 70.0813 74.3749L59.3534 80.8842L51.6588 85.5594C51.5663 85.6314 51.502 85.7382 51.4786 85.8587C51.4551 85.9793 51.4741 86.105 51.5318 86.2112C51.5896 86.3174 51.6819 86.3965 51.7908 86.433C51.8997 86.4695 52.0172 86.4608 52.1204 86.4086L68.7691 76.301L72.495 74.0379L73.3049 73.5432C73.5115 73.4162 72.7825 73.2674 73.1915 73.6089C74.1189 74.388 75.3501 74.9221 76.3706 75.5568L81.6353 78.7787L89.9577 83.874C90.0609 83.9263 90.1785 83.935 90.2873 83.8985C90.3962 83.862 90.4885 83.7829 90.5463 83.6767C90.604 83.5704 90.623 83.4447 90.5995 83.3242C90.5761 83.2036 90.5118 83.0969 90.4193 83.0248L90.4113 83.0335Z" fill="#D8D8D8"/>
  <path d="M77.9694 50.9352L80.8812 49.0572C81.2595 48.7541 81.6668 48.4958 82.0961 48.2868C81.7398 48.405 81.598 48.1511 81.9463 48.44C83.5298 49.7532 85.4777 50.7338 87.1827 51.8457L98.4492 59.1736V58.3243C97.1614 59.1079 94.8813 59.8083 94.3468 61.336C93.6421 63.3584 93.4518 65.801 93.0306 67.9022L88.507 90.4725C88.0696 92.6612 87.3852 94.9419 87.1665 97.1656C87.0976 97.8616 87.4419 97.2926 86.9235 97.5333C85.9799 97.9711 85.0687 98.5752 84.1615 99.0917L74.7012 104.415C72.5791 105.61 70.4611 107.041 68.2499 108.048C68.3633 107.995 68.6549 108.35 68.2742 107.899C67.9543 107.523 67.2334 107.229 66.8325 106.967L62.0699 103.903L54.4968 99.0129V99.8621L63.6696 92.8801L69.1975 88.6733C69.7483 88.2356 70.4611 87.8898 70.7729 87.2506C71.1779 86.3752 71.2346 84.9656 71.4249 84.0157L72.7492 77.4495L76.0903 60.9245L78.1678 50.6419C78.2934 50.0246 77.4146 49.7664 77.289 50.3792L72.3888 74.6129C71.6072 78.4826 70.6717 82.3566 70.0358 86.2613C70.0088 86.5325 69.9545 86.7996 69.8739 87.058C70.0804 86.5503 69.7767 87.0186 69.4081 87.2988L64.5038 91.0547L54.0473 99.0042C53.9803 99.0489 53.925 99.1113 53.8866 99.1857C53.8483 99.26 53.8281 99.3437 53.8281 99.4288C53.8281 99.5139 53.8483 99.5976 53.8866 99.6719C53.925 99.7462 53.9803 99.8087 54.0473 99.8534L60.4054 103.959L65.1923 107.05C66.0266 107.588 67.043 108.543 67.9786 108.849C69.1449 109.23 70.8377 107.707 71.8745 107.124L81.513 101.696L85.6357 99.3719C86.2107 99.0479 87.2556 98.7196 87.7051 98.2075C88.3774 97.4458 88.3936 95.6729 88.592 94.6836L92.9658 72.8531L94.9907 62.8375C95.0514 62.5398 95.3633 61.139 95.2337 61.3273C95.0271 61.6293 95.6387 61.1522 95.7763 61.0778C96.1813 60.8457 96.5863 60.5743 97.0156 60.3248L98.919 59.1692C98.986 59.1245 99.0413 59.062 99.0796 58.9877C99.118 58.9134 99.1381 58.8297 99.1381 58.7446C99.1381 58.6595 99.118 58.5758 99.0796 58.5015C99.0413 58.4271 98.986 58.3647 98.919 58.3199L82.1123 47.4113C82.0423 47.3671 81.9626 47.3438 81.8815 47.3438C81.8004 47.3437 81.7207 47.3671 81.6507 47.4113L77.5077 50.0859C77.4153 50.158 77.351 50.2647 77.3275 50.3853C77.3041 50.5059 77.323 50.6316 77.3808 50.7378C77.4385 50.844 77.5309 50.9231 77.6398 50.9596C77.7486 50.9961 77.8662 50.9874 77.9694 50.9352Z" fill="#D8D8D8"/>
  <path d="M87.573 62.3843L83.5232 79.9467C83.5024 80.0684 83.5246 80.1941 83.5853 80.299C83.6461 80.4039 83.741 80.4804 83.8513 80.5133C83.9616 80.5463 84.0794 80.5334 84.1813 80.4771C84.2833 80.4209 84.362 80.3253 84.402 80.2094L88.4518 62.647C88.4726 62.5253 88.4505 62.3996 88.3897 62.2947C88.329 62.1898 88.2341 62.1134 88.1238 62.0804C88.0134 62.0474 87.8957 62.0603 87.7937 62.1166C87.6918 62.1729 87.613 62.2684 87.573 62.3843Z" fill="#D8D8D8"/>
  <path d="M81.8089 58.8609L77.8279 76.0381C77.8071 76.1598 77.8293 76.2854 77.89 76.3903C77.9508 76.4952 78.0457 76.5717 78.156 76.6047C78.2663 76.6376 78.3841 76.6247 78.486 76.5685C78.588 76.5122 78.6667 76.4167 78.7067 76.3007L82.6877 59.1235C82.7085 59.0019 82.6863 58.8762 82.6256 58.7713C82.5648 58.6664 82.4699 58.5899 82.3596 58.557C82.2493 58.524 82.1315 58.5369 82.0296 58.5932C81.9276 58.6494 81.8489 58.745 81.8089 58.8609Z" fill="#D8D8D8"/>
  <path d="M79.594 88.8599C74.3293 85.3579 69.0645 81.8165 63.6986 78.5115C63.5953 78.4593 63.4778 78.4506 63.3689 78.4871C63.26 78.5236 63.1677 78.6027 63.11 78.7089C63.0522 78.8151 63.0332 78.9408 63.0567 79.0614C63.0802 79.1819 63.1444 79.2887 63.2369 79.3607C68.6231 82.6701 73.8878 86.2071 79.1526 89.7354C79.6547 90.068 80.1124 89.2188 79.6142 88.8861L79.594 88.8599Z" fill="#D8D8D8"/>
  <path d="M94.008 65.6156L85.1228 60.1787L79.283 56.6067C78.6593 56.2259 77.5213 55.149 76.7681 55.114C76.2254 55.0878 75.4843 55.7706 75.0428 56.0377L70.4544 58.8042L57.9244 66.3597L49.6992 71.3194C49.1889 71.6302 49.6466 72.4794 50.1609 72.1686L68.875 60.8791C71.4993 59.2989 74.2491 57.8456 76.7883 56.1077C77.1244 55.8801 76.2861 55.8275 76.6668 56.134C77.1347 56.4572 77.6202 56.7496 78.1207 57.0095L83.4421 60.2663L93.5666 66.4473C93.6698 66.4995 93.7874 66.5083 93.8963 66.4718C94.0051 66.4352 94.0975 66.3561 94.1552 66.2499C94.213 66.1437 94.2319 66.018 94.2085 65.8974C94.185 65.7769 94.1207 65.6701 94.0283 65.5981L94.008 65.6156Z" fill="#D8D8D8"/>
  <path d="M55.1091 75.4888L57.3688 89.8119C57.466 90.4335 58.3448 90.1709 58.2476 89.5493L55.9879 75.2262C55.8907 74.6046 55.0119 74.8672 55.1091 75.4888Z" fill="#D8D8D8"/>
  <path d="M56.8438 67.3114V82.5188C56.8545 82.6414 56.9071 82.7553 56.9913 82.8381C57.0756 82.921 57.1854 82.967 57.2994 82.967C57.4133 82.967 57.5231 82.921 57.6074 82.8381C57.6916 82.7553 57.7442 82.6414 57.755 82.5188V67.3114C57.7442 67.1888 57.6916 67.075 57.6074 66.9921C57.5231 66.9092 57.4133 66.8633 57.2994 66.8633C57.1854 66.8633 57.0756 66.9092 56.9913 66.9921C56.9071 67.075 56.8545 67.1888 56.8438 67.3114Z" fill="#D8D8D8"/>
  <path d="M62.8685 63.6747L62.5 79.2585C62.5107 79.3811 62.5633 79.495 62.6476 79.5779C62.7318 79.6608 62.8417 79.7067 62.9556 79.7067C63.0695 79.7067 63.1794 79.6608 63.2636 79.5779C63.3479 79.495 63.4005 79.3811 63.4112 79.2585L63.7797 63.6747C63.769 63.5521 63.7164 63.4383 63.6321 63.3554C63.5479 63.2725 63.4381 63.2266 63.3241 63.2266C63.2102 63.2266 63.1004 63.2725 63.0161 63.3554C62.9319 63.4383 62.8792 63.5521 62.8685 63.6747Z" fill="#D8D8D8"/>
  <path d="M68.6835 60.1726L66.9178 76.5794C66.8489 77.2097 67.7601 77.201 67.829 76.5794L69.5947 60.1726C69.6635 59.5423 68.7523 59.551 68.6835 60.1726Z" fill="#D8D8D8"/>
  <path d="M97.2717 57.3669C97.2717 57.3669 96.9031 57.1305 96.6926 57.3669C96.482 57.6033 96.6926 57.9491 96.6926 57.9491L97.0125 58.1548C96.9251 58.2593 96.8083 58.3297 96.6801 58.355C96.552 58.3803 96.4197 58.3592 96.3038 58.2949C95.8056 58.111 83.2148 49.9777 83.2148 49.9777C83.2148 49.9777 82.8666 49.5006 83.0569 49.1022C83.1485 48.8476 83.3213 48.6366 83.544 48.5074C83.7668 48.3782 84.0248 48.3392 84.2718 48.3974C84.9279 48.5506 97.2717 56.5745 97.2717 56.5745C97.2717 56.5745 97.62 57.1392 97.2717 57.3669Z" fill="#F14A24"/>
  <path d="M79.3849 48.7195C83.7871 49.0478 83.5562 56.7434 83.8397 59.939C83.9126 60.74 82.7706 61.0114 82.6936 60.2016C82.4466 57.5401 82.6086 53.9375 81.2438 51.5955C80.8388 50.8688 80.3164 50.1641 79.4538 50.0984C79.1887 50.0884 78.9245 50.1377 78.6778 50.2432C78.4311 50.3486 78.2072 50.508 78.0201 50.7113C77.6152 51.0877 77.4289 52.5761 77.3641 53.0182C77.1353 54.6678 77.1095 56.3428 77.2871 57.9997C77.3641 58.8008 76.222 59.0722 76.141 58.2624C75.9183 55.741 75.4607 48.4262 79.3849 48.7195Z" fill="#F15A24"/>
  <path d="M72.801 53.8828L71.4767 56.2685L68.8281 56.8639L70.8125 64.2574L76.4417 60.3221" fill="#68E1FD"/>
  <path d="M72.801 53.8828L71.4767 56.2685L68.8281 56.8639L70.8125 64.2574L76.4417 60.3221" fill="#CCCCCC"/>
  <path d="M86.3756 61.9943L72.8047 53.8828L73.2461 65.9296L83.6176 67.0021L86.3756 61.9943Z" fill="#68E1FD"/>
  <path d="M86.3756 61.9943L72.8047 53.8828L73.2461 65.9296L83.6176 67.0021L86.3756 61.9943Z" fill="#CCCCCC"/>
  <path d="M81.5202 63.7836L79.4264 86.5639L66.7344 78.3343L68.8322 56.8672L81.5202 63.7836Z" fill="white"/>
  <path d="M81.5156 63.7821L82.9533 61.9961H86.3713V82.0362L84.1237 83.7477L79.4219 86.5625L81.5156 63.7821Z" fill="#68E1FD"/>
  <path d="M79.5689 86.3288L81.6366 63.8311L83.0131 62.1211H86.2463V81.9742L84.0535 83.6441L79.5689 86.3288Z" fill="white" stroke="#F15A24" stroke-width="0.25"/>
  <path d="M73.7194 52.5275C78.1337 52.5713 78.3281 60.2712 78.8019 63.4362C78.9194 64.2329 77.7935 64.5743 77.672 63.7732C77.267 61.1467 77.2427 57.5266 75.7484 55.2766C75.1368 54.3529 74.0596 53.5781 73.0067 54.1822C72.059 54.725 72.0468 55.9332 71.9537 56.9444C71.8166 58.6056 71.8833 60.2792 72.1521 61.9216C72.2736 62.7183 71.1478 63.0597 71.0222 62.2586C70.6578 59.7635 69.7911 52.4881 73.7194 52.5275Z" fill="#F15A24"/>
  <path d="M68.861 64.7368C72.1656 64.982 71.9955 70.7646 72.2183 73.1591C72.275 73.7632 71.4083 73.9645 71.3597 73.3561C71.1734 71.3599 71.2949 68.6503 70.2703 66.8949C69.9544 66.3521 69.5737 65.8181 68.9258 65.7699C68.7281 65.7595 68.5305 65.793 68.3452 65.8683C68.16 65.9436 67.9909 66.0591 67.8485 66.2077C67.5569 66.4922 67.4031 67.6084 67.3545 67.9586C67.1832 69.1966 67.1641 70.4536 67.2978 71.697C67.3585 72.3011 66.4878 72.5025 66.4392 71.894C66.2489 70.0117 65.9127 64.518 68.861 64.7368Z" fill="#F15A24"/>
  <path d="M63.9144 68.6172L62.9181 70.4076L60.9297 70.8585L62.42 76.4091L66.648 73.4543" fill="#68E1FD"/>
  <path opacity="0.8" d="M63.9144 68.6172L62.9181 70.4076L60.9297 70.8585L62.42 76.4091L66.648 73.4543" fill="#CCCCCC"/>
  <path d="M74.1033 74.7063L63.9141 68.6172L64.2461 77.661L72.0339 78.4665L74.1033 74.7063Z" fill="#68E1FD"/>
  <path d="M74.1033 74.7063L63.9141 68.6172L64.2461 77.661L72.0339 78.4665L74.1033 74.7063Z" fill="#CCCCCC"/>
  <path d="M70.4561 76.055L68.8807 93.1621L59.3516 86.9811L60.9269 70.8633L70.4561 76.055Z" fill="white"/>
  <path d="M70.4582 76.047L71.5354 74.7031H74.103V89.7529L72.4142 91.0398L68.8828 93.1542L70.4582 76.047Z" fill="#68E1FD"/>
  <path d="M69.0299 92.9204L70.5792 76.0959L71.5954 74.8281H73.978V89.691L72.344 90.9362L69.0299 92.9204Z" fill="white" stroke="#F15A24" stroke-width="0.25"/>
  <path d="M64.6065 67.5938C67.9193 67.6289 68.0691 73.4071 68.4214 75.7885C68.5105 76.3882 67.6641 76.664 67.575 76.0424C67.2794 74.0594 67.251 71.3497 66.1293 69.66C65.6676 68.9684 64.8617 68.3862 64.0679 68.837C63.3592 69.2441 63.347 70.1503 63.2579 70.912C63.1551 72.1598 63.2055 73.4168 63.4078 74.6503C63.5009 75.25 62.6545 75.5258 62.5614 74.9042C62.2941 73.0263 61.6542 67.5676 64.6065 67.5938Z" fill="#F15A24"/>
  <path d="M93.5512 65.6209L74.8128 77.1074C72.1615 78.7329 69.5102 80.3584 66.859 81.9839C66.454 82.2246 67.2882 82.2028 66.9926 81.9839C66.5431 81.6775 66.0693 81.3973 65.6116 81.1084L60.2133 77.6852L50.1576 71.3291C50.0791 71.2833 49.9901 71.263 49.9012 71.2708C49.8123 71.2785 49.7273 71.3139 49.6566 71.3728C49.586 71.4316 49.5326 71.5112 49.5029 71.6021C49.4732 71.6931 49.4685 71.7913 49.4894 71.8851C50.1009 76.3851 50.4775 81.0077 51.3361 85.4552C51.5426 86.5321 51.9557 86.6109 52.8548 87.1712L59.2211 91.1415L65.968 95.3483C66.778 95.8429 68.0537 97.0993 69.0054 96.9548C69.8923 96.8279 71.2085 95.6066 71.9658 95.1469L78.6601 91.054L90.4045 83.8749C90.4969 83.8029 90.5612 83.6961 90.5847 83.5756C90.6082 83.455 90.5892 83.3293 90.5314 83.2231C90.4737 83.1169 90.3813 83.0378 90.2724 83.0012C90.1636 82.9647 90.046 82.9735 89.9428 83.0257L80.6283 88.7164C76.8336 91.0365 72.7231 93.0939 69.1147 95.7554C68.568 96.1581 68.5032 95.913 68.9649 96.0837C68.4812 95.8373 68.019 95.5443 67.5839 95.2082L61.412 91.3604L54.9323 87.3156C54.2236 86.8779 53.523 86.392 52.7981 86.0024C52.6001 85.9063 52.4115 85.789 52.2352 85.6522C51.899 85.3502 52.4134 86.0899 52.2757 85.7091C51.976 84.8686 51.9962 83.6692 51.8707 82.7806L51.2632 78.3112L50.352 71.6224L49.6838 72.1783L58.5204 77.7815L64.3278 81.463C64.9434 81.8526 66.126 83.0038 66.8914 83.0082C67.4462 83.0082 68.2602 82.2422 68.7097 81.9664L73.0795 79.2961L85.8647 71.4561L94.0007 66.4701C94.0932 66.3981 94.1574 66.2913 94.1809 66.1708C94.2044 66.0502 94.1854 65.9245 94.1276 65.8183C94.0699 65.712 93.9775 65.6329 93.8687 65.5964C93.7598 65.5599 93.6423 65.5686 93.539 65.6209H93.5512Z" fill="#D8D8D8"/>
  <path d="M91.8872 74.2858C86.2863 77.5952 79.7378 81.4999 74.1491 84.7917C72.1971 85.9474 70.079 87.6633 67.9569 88.5038C67.8125 88.4514 67.6761 88.3761 67.552 88.2806C67.0255 87.9041 66.4221 87.6064 65.8673 87.2781L60.5337 84.122C57.7758 82.4804 53.9001 80.3486 51.1422 78.707C50.5712 78.7377 51.1179 79.2455 50.5469 79.2279C50.5873 79.2959 50.6431 79.3516 50.7089 79.3899L58.8368 84.2358L64.5835 87.6765C65.3934 88.1667 66.661 89.318 67.6046 89.4756C68.1351 89.5675 68.3862 89.3312 68.8722 89.0379L72.7843 86.7266L84.3748 79.8714L92.3327 75.1657C92.3979 75.1254 92.4524 75.0676 92.4908 74.9977C92.5291 74.9279 92.55 74.8485 92.5514 74.7673C92.0289 74.8198 92.4258 74.2639 91.8872 74.2858Z" fill="#D8D8D8"/>
  <path d="M60.8423 79.0707L62.8469 93.2362C62.936 93.8622 63.8148 93.5952 63.7257 92.9736L61.7211 78.7906C61.632 78.1646 60.7532 78.4316 60.8423 79.0532V79.0707Z" fill="#D8D8D8"/>
  <path d="M66.474 82.647L68.345 96.6549C68.4301 97.2809 69.3049 97.0138 69.2239 96.3922L67.3529 82.3843C67.2678 81.7584 66.393 82.0254 66.474 82.647Z" fill="#D8D8D8"/>
  <path d="M73.9453 78.1865C73.9453 83.1155 74.164 88.0358 74.1762 92.9648C74.1869 93.0874 74.2395 93.2013 74.3237 93.2841C74.408 93.367 74.5178 93.413 74.6318 93.413C74.7457 93.413 74.8555 93.367 74.9398 93.2841C75.024 93.2013 75.0767 93.0874 75.0874 92.9648C75.0874 88.0358 74.8687 83.1155 74.8565 78.1865C74.8458 78.0639 74.7932 77.95 74.7089 77.8671C74.6247 77.7842 74.5148 77.7383 74.4009 77.7383C74.287 77.7383 74.1772 77.7842 74.0929 77.8671C74.0086 77.95 73.956 78.0639 73.9453 78.1865Z" fill="#D8D8D8"/>
  <path d="M79.5211 74.5029C79.4617 79.3969 79.4617 84.2894 79.5211 89.1805C79.5318 89.3031 79.5844 89.417 79.6687 89.4999C79.753 89.5828 79.8628 89.6287 79.9767 89.6287C80.0906 89.6287 80.2005 89.5828 80.2847 89.4999C80.369 89.417 80.4216 89.3031 80.4323 89.1805C80.3702 84.2865 80.3702 79.394 80.4323 74.5029C80.4216 74.3803 80.369 74.2664 80.2847 74.1835C80.2005 74.1006 80.0906 74.0547 79.9767 74.0547C79.8628 74.0547 79.753 74.1006 79.6687 74.1835C79.5844 74.2664 79.5318 74.3803 79.5211 74.5029Z" fill="#D8D8D8"/>
  <path d="M85.9796 70.5225L84.137 86.3515C84.0641 86.9774 84.9753 86.9731 85.0482 86.3515L86.8908 70.5225C86.9637 69.8966 86.0525 69.9009 85.9796 70.5225Z" fill="#D8D8D8"/>
  <path d="M100.466 34.8453C100.466 34.5827 99.0886 32.766 99.9269 31.8249C100.765 30.8837 101.709 30.8837 102.636 31.2208C103.397 31.468 104.08 31.9371 104.61 32.5765C105.14 33.216 105.497 34.001 105.641 34.8453C105.95 36.1874 106.165 37.5526 106.285 38.9295L102.482 37.5506" fill="#222222"/>
  <path d="M104.355 46.9489C104.355 46.9489 101.771 45.7845 101.99 42.2256C102.161 40.0357 103.063 37.9881 104.529 36.4648L106.287 38.9337" fill="#222222"/>
  <path d="M105.821 35.6992C105.821 35.6992 107.968 42.782 107.692 44.8481C107.417 46.9143 104.359 46.9493 104.359 46.9493" fill="#222222"/>
  <path d="M111.016 63.8805L106.29 61.3722C106.251 57.8756 105.763 54.4018 104.84 51.0501L100.863 50.2578C100.662 52.5857 100.597 54.925 100.669 57.2618C100.691 59.0121 100.932 60.7512 101.386 62.4316C101.791 63.7448 102.313 65.2463 103.52 65.9335C104.569 66.5289 105.901 66.739 107.039 67.0804C107.404 67.1899 111.024 68.0916 111.024 68.2755L111.016 63.8805Z" fill="#CCCCCC"/>
  <path d="M97.7387 41.3235C97.0335 42.7558 96.2208 44.1232 95.3088 45.412C94.6689 46.2131 89.0721 49.0016 89.0721 49.0016C89.0721 49.0016 85.9781 48.5945 85.5569 49.7457C85.1357 50.897 84.9049 51.2428 85.9619 51.8469C87.0189 52.451 87.9868 50.8182 88.9992 50.7131C90.0117 50.6081 96.2281 49.2073 99.0954 44.5234C99.5004 43.8712 99.9053 41.6562 100.428 40.9514C100.349 40.6001 100.305 40.2404 100.298 39.8789C99.1845 40.1766 98.8321 40.9251 97.7387 41.3235Z" fill="#FFB288"/>
  <path d="M105.778 39.3413C105.533 39.0391 105.261 38.7621 104.968 38.514C103.462 37.7611 101.032 37.1263 100.627 37.1701C100.222 37.2139 98.8005 37.9099 98.517 39.0218C98.2335 40.1337 98.0756 42.4756 98.0756 45.1502C98.0756 48.0087 97.2656 51.9703 97.2656 51.9703C97.2656 51.9703 99.8534 53.8745 102.231 53.6206C103.911 53.4412 105.13 53.3317 105.612 52.7451C105.653 48.7135 105.487 43.2285 105.778 39.3413Z" fill="#0B3D60"/>
  <path d="M102.985 42.8555C102.331 44.6156 101.486 46.2862 100.47 47.8327C99.9638 48.6687 94.5695 52.7223 94.5695 52.7223C94.5695 52.7223 92.2652 52.2408 92.0019 53.3745C91.7387 54.5083 91.4228 55.502 92.4636 55.9222C93.5044 56.3425 94.367 54.1187 95.2985 53.8823C96.2299 53.6459 101.507 51.1026 103.896 47.8852C104.569 46.9268 105.086 45.8523 105.427 44.7071C104.163 44.3175 104.034 43.6784 102.985 42.8555Z" fill="#FFB288"/>
  <path d="M100.883 45.446C100.883 45.446 102.968 38.9761 103.661 38.6609C103.901 38.5466 104.161 38.4905 104.423 38.4965C104.685 38.5025 104.942 38.5705 105.178 38.6957C105.413 38.8209 105.619 39.0002 105.784 39.2211C105.948 39.4419 106.065 39.699 106.127 39.9741C106.488 41.5413 105.139 46.5403 104.779 47.0919C104.418 47.6435 100.883 45.446 100.883 45.446Z" fill="#0B3D60"/>
  <path d="M98.7751 38.5156L95.5312 42.9062L98.4026 46.2769L99.9415 44.469" fill="#0B3D60"/>
  <path d="M103.81 36.0657V38.412C103.506 38.6476 103.142 38.7743 102.768 38.7743C102.393 38.7743 102.029 38.6476 101.725 38.412L101.227 35.8906" fill="#E59770"/>
  <path d="M100.833 33.0709C100.857 33.0649 100.882 33.0649 100.906 33.0709C101.316 33.2186 101.739 33.317 102.169 33.3642C102.599 33.3642 103.028 33.3335 103.453 33.3642C103.737 33.3642 103.915 34.104 103.911 34.997C104.093 34.8788 104.316 34.8263 104.462 35.0495C104.525 35.1746 104.544 35.3201 104.516 35.4593C104.487 35.5984 104.413 35.7218 104.308 35.8068C104.167 35.9398 103.997 36.0304 103.814 36.0695C103.752 36.5254 103.558 36.9485 103.261 37.2787C102.963 37.6088 102.577 37.829 102.157 37.908C101.834 37.9659 101.503 37.8853 101.233 37.6834C100.964 37.4816 100.778 37.1743 100.715 36.8268C100.47 35.885 100.401 34.8998 100.513 33.9289L100.541 33.4517C100.553 33.3795 100.579 33.311 100.619 33.2512C100.658 33.1914 100.709 33.1418 100.768 33.1059C100.787 33.0891 100.809 33.0771 100.833 33.0709Z" fill="#FFB288"/>
  <path d="M101.023 32.7305C101.023 32.7305 102.591 35.2037 103.785 35.0111C104.98 34.8185 103.66 32.8924 103.66 32.8924" fill="#222222"/>
  <defs>
    <linearGradient id="paint0_linear_3137_29808" x1="97.6697" y1="82.7102" x2="119.254" y2="44.724" gradientUnits="userSpaceOnUse">
      <stop stop-color="#0B3D60"/>
      <stop offset="1" stop-color="white"/>
    </linearGradient>
    <linearGradient id="paint1_linear_3137_29808" x1="9.95438" y1="80.3621" x2="24.1905" y2="72.533" gradientUnits="userSpaceOnUse">
      <stop stop-color="#4444A5"/>
      <stop offset="1"/>
    </linearGradient>
  </defs>
</svg>